<?xml version="1.0" standalone="no"?>
<!DOCTYPE svg PUBLIC "-//W3C//DTD SVG 20010904//EN"
 "http://www.w3.org/TR/2001/REC-SVG-20010904/DTD/svg10.dtd">
<svg version="1.0" xmlns="http://www.w3.org/2000/svg"
 width="700.000000pt" height="700.000000pt" viewBox="0 0 700.000000 700.000000"
 preserveAspectRatio="xMidYMid meet">
<metadata>
Created by potrace 1.11, written by Peter Selinger 2001-2013
</metadata>
<g transform="translate(0.000000,700.000000) scale(0.100000,-0.100000)"
fill="#000000" stroke="none">
<path d="M4940 6923 c-32 -4 -173 -26 -245 -39 -62 -12 -243 -77 -327 -119
-250 -124 -476 -350 -601 -600 -57 -115 -116 -270 -131 -347 -2 -13 -12 -56
-20 -96 -9 -41 -19 -97 -22 -125 -3 -29 -8 -63 -11 -77 -9 -45 -11 -443 -2
-515 18 -144 21 -162 39 -245 112 -515 405 -879 847 -1053 134 -53 214 -74
398 -101 91 -14 477 -15 540 -2 17 3 41 9 53 12 13 2 43 7 65 11 52 7 215 54
284 82 446 179 754 556 862 1056 38 176 46 266 46 495 -1 201 -5 257 -30 395
-20 109 -20 108 -50 209 -173 592 -615 964 -1245 1051 -53 7 -399 13 -450 8z
m332 -993 c207 -77 328 -337 322 -695 -3 -179 -36 -327 -101 -443 -45 -81 -86
-128 -148 -167 -66 -43 -115 -57 -197 -60 -236 -9 -403 160 -464 470 -16 80
-22 280 -10 360 3 22 8 60 11 85 10 73 62 217 101 278 62 97 167 175 256 189
18 3 34 6 36 8 11 10 146 -7 194 -25z"/>
<path d="M280 6374 l0 -485 460 3 460 4 0 -1046 c0 -575 0 -1084 0 -1132 l0
-88 575 0 575 0 0 1133 0 1133 435 -4 435 -4 0 486 0 486 -1470 0 -1470 0 0
-486z"/>
<path d="M280 1670 l0 -1620 550 0 550 0 2 645 3 646 50 -68 c28 -37 151 -205
275 -373 123 -168 228 -309 233 -315 12 -16 297 -403 347 -472 l45 -62 436 -1
c341 0 438 3 441 13 3 10 2 3194 -1 3220 -1 4 -248 7 -549 7 l-549 0 1 -635
c1 -349 1 -635 0 -635 -3 0 -570 759 -854 1143 l-94 127 -443 0 -443 0 0
-1620z"/>
<path d="M4032 2194 l548 -1096 0 -524 0 -524 575 0 575 0 0 521 0 522 549
1098 549 1099 -615 -2 -615 -3 -114 -265 c-64 -146 -119 -275 -124 -288 -5
-12 -18 -41 -28 -65 -11 -23 -50 -114 -87 -202 -38 -88 -71 -163 -75 -168 -3
-4 -28 43 -54 105 -27 62 -57 131 -67 153 -10 22 -71 162 -135 310 -64 149
-124 288 -134 310 -10 22 -25 57 -33 78 l-16 37 -624 0 -623 0 548 -1096z"/>
</g>
</svg>
