<?xml version="1.0" standalone="no"?>
<!DOCTYPE svg PUBLIC "-//W3C//DTD SVG 20010904//EN"
 "http://www.w3.org/TR/2001/REC-SVG-20010904/DTD/svg10.dtd">
<svg version="1.0" xmlns="http://www.w3.org/2000/svg"
 width="700.000000pt" height="700.000000pt" viewBox="0 0 700.000000 700.000000"
 preserveAspectRatio="xMidYMid meet">
<metadata>
Created by potrace 1.11, written by Peter Selinger 2001-2013
</metadata>
<g transform="translate(0.000000,700.000000) scale(0.100000,-0.100000)"
fill="#000000" stroke="none">
<path d="M4989 6787 c-2 -3 -37 -7 -77 -11 -41 -3 -77 -8 -80 -10 -4 -2 -28
-7 -53 -10 -71 -10 -273 -73 -304 -96 -5 -4 -21 -11 -35 -15 -65 -20 -257
-157 -328 -235 -129 -140 -212 -269 -273 -423 -27 -66 -68 -202 -75 -246 -3
-19 -10 -45 -15 -59 -5 -14 -8 -27 -5 -29 2 -3 0 -18 -4 -33 -32 -110 -35
-541 -5 -715 62 -364 188 -625 397 -824 145 -137 352 -249 558 -302 250 -63
633 -63 880 0 345 90 610 279 780 556 116 189 193 431 219 685 13 128 6 439
-13 560 -55 349 -181 615 -391 825 -196 197 -438 314 -760 366 -60 10 -407 23
-416 16z m314 -718 c270 -91 428 -386 430 -804 1 -176 -20 -306 -70 -440 -14
-38 -34 -82 -45 -97 -10 -14 -18 -29 -18 -33 0 -12 -55 -80 -103 -127 -101
-98 -235 -148 -382 -143 -113 4 -166 19 -260 72 -151 84 -281 310 -311 538 -3
28 -8 53 -11 58 -5 9 -5 295 1 322 2 11 7 43 10 70 8 58 10 66 39 160 36 119
107 237 186 311 69 66 184 123 265 132 23 2 43 6 45 7 10 10 172 -9 224 -26z"/>
<path d="M420 6374 l0 -345 458 3 457 3 3 -1132 2 -1133 435 0 435 0 0 1134 0
1133 435 -4 435 -4 0 346 0 345 -1330 0 -1330 0 0 -346z"/>
<path d="M420 1670 l0 -1480 410 0 410 0 0 780 c0 429 4 780 9 780 4 0 16 -10
25 -22 9 -13 73 -99 142 -193 69 -93 132 -179 140 -190 15 -21 113 -153 144
-195 10 -14 96 -131 192 -260 95 -129 176 -239 181 -245 4 -5 64 -86 132 -180
69 -93 143 -194 166 -222 l40 -53 330 0 c306 0 329 1 330 18 1 9 2 675 3 1480
l1 1462 -410 -2 -410 -3 -2 -745 c-1 -850 0 -783 -12 -778 -6 2 -62 73 -125
158 -64 85 -119 160 -124 165 -9 11 -105 141 -432 580 -122 165 -277 373 -344
462 l-121 163 -337 0 -338 0 0 -1480z"/>
<path d="M3816 2938 c57 -116 106 -214 108 -217 2 -3 111 -220 241 -481 130
-261 238 -477 240 -480 2 -3 73 -146 160 -319 l156 -313 2 -467 2 -466 433 -3
432 -2 0 469 0 469 492 984 c271 540 498 995 505 1011 l12 27 -453 0 -452 0
-21 -47 c-48 -109 -284 -655 -292 -676 -5 -12 -22 -51 -38 -87 -16 -36 -61
-138 -99 -227 -38 -90 -72 -163 -76 -163 -9 0 -21 26 -155 335 -52 121 -101
234 -108 250 -8 17 -57 131 -110 255 -54 124 -106 244 -116 267 -11 24 -24 54
-29 68 l-10 25 -465 0 -465 0 106 -212z"/>
</g>
</svg>
