<?xml version="1.0" encoding="UTF-8"?>
<svg width="490px" height="167px" viewBox="0 0 490 167" version="1.1" xmlns="http://www.w3.org/2000/svg" xmlns:xlink="http://www.w3.org/1999/xlink">
    <title>beach</title>
    <defs>
        <linearGradient x1="5.12465374%" y1="3.67258003%" x2="92.9957039%" y2="100%" id="linearGradient-1">
            <stop stop-color="#00B8FF" offset="0%"></stop>
            <stop stop-color="#00FFF9" offset="100%"></stop>
        </linearGradient>
        <linearGradient x1="44.6231116%" y1="97.6760227%" x2="53.743039%" y2="-5.80374651%" id="linearGradient-2">
            <stop stop-color="#00FFF9" offset="0%"></stop>
            <stop stop-color="#00B8FF" offset="100%"></stop>
        </linearGradient>
        <linearGradient x1="42.9063572%" y1="98.7522299%" x2="54.795071%" y2="-5.80374651%" id="linearGradient-3">
            <stop stop-color="#00FFF9" offset="0%"></stop>
            <stop stop-color="#00B8FF" offset="100%"></stop>
        </linearGradient>
        <linearGradient x1="50%" y1="0%" x2="50%" y2="57.6254672%" id="linearGradient-4">
            <stop stop-color="#FF00C1" offset="0%"></stop>
            <stop stop-color="#F98B1F" offset="100%"></stop>
        </linearGradient>
        <linearGradient x1="96.3118025%" y1="50%" x2="8.1330704%" y2="73.8197195%" id="linearGradient-5">
            <stop stop-color="#00FFF9" offset="0%"></stop>
            <stop stop-color="#00B8FF" offset="100%"></stop>
        </linearGradient>
        <linearGradient x1="91.7460017%" y1="46.8163727%" x2="8.52022755%" y2="73.9751514%" id="linearGradient-6">
            <stop stop-color="#00FFF9" offset="0%"></stop>
            <stop stop-color="#00B8FF" offset="100%"></stop>
        </linearGradient>
        <linearGradient x1="81.6145758%" y1="94.3376864%" x2="10.6110885%" y2="34.826244%" id="linearGradient-7">
            <stop stop-color="#00FFF9" offset="0%"></stop>
            <stop stop-color="#00B8FF" offset="100%"></stop>
        </linearGradient>
        <linearGradient x1="13.8335044%" y1="87.9242738%" x2="94.6747642%" y2="33.0874284%" id="linearGradient-8">
            <stop stop-color="#00FFF9" offset="0%"></stop>
            <stop stop-color="#00B8FF" offset="100%"></stop>
        </linearGradient>
    </defs>
    <g id="beach" stroke="none" stroke-width="1" fill="none" fill-rule="evenodd">
        <path d="M62.3106545,61.8943418 C57.9835115,57.3267834 51.5763923,56.684338 48,60.45934 L58.4883835,71.5304567 L61.8093511,70.2685441 L60.6802364,73.8440886 L63.670035,77 C67.2464273,73.224998 66.6377974,66.4619002 62.3106545,61.8943418 Z" id="Path" stroke="url(#linearGradient-1)" stroke-width="2" fill="#202124" fill-rule="nonzero" stroke-linejoin="round" transform="translate(57.000000, 67.500000) rotate(17.000000) translate(-57.000000, -67.500000) "></path>
        <path d="M53,64 C50.2169599,77.9624158 47.3233428,89.3398262 44.3191489,98.1322314 C41.314955,106.924637 36.2085721,118.880559 29,134" id="Line-10" stroke="url(#linearGradient-2)" stroke-width="2" stroke-linecap="square"></path>
        <path d="M44,62 C43.1194964,69.7813647 40.1194964,80.2683213 35,93.4608696 C29.8805036,106.653418 24.213837,118.499795 18,129" id="Line-10" stroke="url(#linearGradient-3)" stroke-width="2" stroke-linecap="square" transform="translate(31.000000, 95.500000) rotate(5.000000) translate(-31.000000, -95.500000) "></path>
        <path d="M280.5,114 C292.374332,114 302,123.625668 302,135.5 C302,147.374332 292.374332,157 280.5,157 C268.625668,157 259,147.374332 259,135.5 C259.013011,123.632173 268.631089,114.013011 280.5,114 Z" id="Path" stroke="url(#linearGradient-4)" stroke-width="2" fill-rule="nonzero"></path>
        <rect id="Rectangle" fill="#202124" x="252" y="140" width="62" height="19"></rect>
        <polyline id="Line" stroke="#00FFF9" stroke-width="2" stroke-linecap="square" transform="translate(273.500000, 139.500000) scale(1, -1) translate(-273.500000, -139.500000) " points="41 139.5 196 139.5 239 139.5 506 139.5"></polyline>
        <ellipse id="Oval" stroke="#00FFF9" stroke-width="2" transform="translate(17.812616, 162.345237) rotate(25.000000) translate(-17.812616, -162.345237) " cx="17.8126156" cy="162.345237" rx="57" ry="30.5"></ellipse>
        <path d="M262,146.75 L299,146.75 L262,146.75 Z" id="Line-11" stroke="#FF00C1" stroke-linecap="square"></path>
        <path d="M79.976499,53.5025872 C79.8666604,52.9478918 79.7274932,52.391316 79.5621602,51.8486257 C78.2606303,47.5724805 75.3821113,44.062061 71.4563877,41.964343 C67.5305202,39.8666251 63.0277126,39.432415 58.7773613,40.7416988 C54.5270099,42.0509826 51.0379091,44.9471148 48.9525571,48.8968069 C46.8674927,52.8464989 46.4357579,57.3764878 47.7372879,61.6527776 C47.9027646,62.1963357 48.0969949,62.7359886 48.3145156,63.256549 C48.5029952,63.707682 48.9419183,64 49.4267033,64 C49.4354732,64 49.444243,64 49.4530128,63.9997107 C49.9480054,63.9890073 50.3863534,63.6749933 50.5584435,63.2078052 C52.5385574,57.829935 56.794947,53.7840572 62.2365584,52.1076764 C67.6786011,50.4314402 73.4566291,51.3859214 78.0899779,54.7265333 C78.9614983,55.3542721 80.1849623,54.5580273 79.976499,53.5025872 Z" id="Path" stroke="url(#linearGradient-5)" stroke-width="1.5" fill="#202124" fill-rule="nonzero"></path>
        <path d="M50.976499,52.5025872 C50.8666604,51.9478918 50.7274932,51.391316 50.5621602,50.8486257 C49.2606303,46.5724805 46.3821113,43.062061 42.4563877,40.964343 C38.5305202,38.8666251 34.0277126,38.432415 29.7773613,39.7416988 C25.5270099,41.0509826 22.0379091,43.9471148 19.9525571,47.8968069 C17.8674927,51.8464989 17.4357579,56.3764878 18.7372879,60.6527776 C18.9027646,61.1963357 19.0969949,61.7359886 19.3145156,62.256549 C19.5029952,62.707682 19.9419183,63 20.4267033,63 C20.4354732,63 20.444243,63 20.4530128,62.9997107 C20.9480054,62.9890073 21.3863534,62.6749933 21.5584435,62.2078052 C23.5385574,56.829935 27.794947,52.7840572 33.2365584,51.1076764 C38.6786011,49.4314402 44.4566291,50.3859214 49.0899779,53.7265333 C49.9614983,54.3542721 51.1849623,53.5580273 50.976499,52.5025872 Z" id="Path" stroke="url(#linearGradient-6)" stroke-width="1.5" fill="#202124" fill-rule="nonzero" transform="translate(34.500000, 51.000000) scale(-1, 1) translate(-34.500000, -51.000000) "></path>
        <path d="M75.231336,55.6958765 C67.6698291,49.6661281 56.8121242,51.1736022 51.0281013,59.056155 C50.2805905,60.0751383 49.6363607,61.1784206 49.1135713,62.335536 C48.9065836,62.7935609 48.9871655,63.33692 49.3174379,63.7082795 C49.6474265,64.079639 50.1607107,64.2044608 50.6149771,64.024327 C56.2569886,61.7813807 62.4844958,62.7222764 67.2734455,66.5408755 C72.0622532,70.3594747 74.5629884,76.3788706 73.9631638,82.6427338 C73.8593153,83.7278253 75.1182659,84.4217396 75.9196872,83.7112613 C76.8544659,82.8820248 77.7073858,81.9452701 78.4547548,80.9265826 C84.2387777,73.0438818 82.7927011,61.7254771 75.231336,55.6958765 Z" id="Path" stroke="url(#linearGradient-7)" stroke-width="1.5" fill="#202124" fill-rule="nonzero"></path>
        <path d="M49.8829948,62.3338873 C49.3442187,61.1769635 48.6806149,60.0737161 47.9104545,59.0550494 C41.9510293,51.1738022 30.7644819,49.6664299 22.973861,55.6953275 C15.1832402,61.7240773 13.6933474,73.0407552 19.6527726,80.9220024 C20.4227868,81.9402255 21.3015503,82.8771208 22.2646528,83.7062199 C22.6417668,84.0307914 23.1903362,84.0927483 23.6289871,83.8604468 C24.0723153,83.6254836 24.3300099,83.1415098 24.2803127,82.6378694 C23.6624596,76.3750437 26.2388209,70.3566448 31.1727298,66.5386781 C36.1067847,62.7207115 42.5229856,61.7801194 48.3359502,64.0225464 C48.8036886,64.2027982 49.3326714,64.0777014 49.6728049,63.7065513 C50.0132307,63.3349575 50.0962543,62.7918362 49.8829948,62.3338873 Z" id="Path" stroke="url(#linearGradient-8)" stroke-width="1.5" fill="#202124" fill-rule="nonzero"></path>
        <line x1="261" y1="143.5" x2="301" y2="143.5" id="Line-11" stroke="#FF00C1" stroke-linecap="square"></line>
        <line x1="265" y1="150" x2="296" y2="150" id="Line-11" stroke="#FF00C1" stroke-linecap="square"></line>
        <line x1="269" y1="153.25" x2="292" y2="153.25" id="Line-11" stroke="#FF00C1" stroke-linecap="square"></line>
        <line x1="275" y1="156.5" x2="285" y2="156.5" id="Line-11" stroke="#FF00C1" stroke-linecap="square"></line>
    </g>
</svg>