<?xml version="1.0" encoding="UTF-8"?>
<svg width="400px" height="400px" viewBox="0 0 400 400" version="1.1" xmlns="http://www.w3.org/2000/svg" xmlns:xlink="http://www.w3.org/1999/xlink">
    <!-- Generator: Sketch 64 (93537) - https://sketch.com -->
    <title>d4sd</title>
    <desc>Created with Sketch.</desc>
    <g id="d4sd" stroke="none" stroke-width="1" fill="none" fill-rule="evenodd">
        <g id="logo.27938d1b" transform="translate(1.000000, 272.000000)" fill="#A7A7A7" fill-rule="nonzero">
            <path d="M247.520856,109 C270.416767,109 283,94.4062227 283,76.5507008 C282.363991,40.2197278 236.405152,50.9277183 236.405152,31.2263609 C236.405152,24.5132717 240.641119,19.0187501 251.63255,19.0187501 C258.73946,19.0187501 262.293114,20.5364755 269.723767,26.1842254 L282.395653,12.2545714 C274.95471,5.99749749 268.597395,1.72884183 249.972674,2.01341887 C228.910779,2.51690258 217.567505,15.4067983 217.567505,33.5613572 C217.670802,69.7207549 264.475015,55.4302082 264.549816,78.3604066 C264.549816,84.927445 258.508724,92.0348146 247.49236,92.0348146 C237.876243,92.0348146 234.059796,88.302498 227.307895,81.7423144 L214,95.2562361 C221.099787,102.578528 230.157862,108.937902 247.520856,109 Z" id="Path"></path>
            <path d="M307,107 L348.422524,107 C378.354636,103.368871 397.668459,84.9136604 397.996206,54.4922747 C398.323954,24.0712569 377.378615,6.18533915 349.503247,4 L307,4 L307,107 Z M324.865637,89.9645471 L324.930625,20.6582404 L346.391052,20.6582404 C363.82103,21.9302596 378.985259,34.1771171 378.985259,54.4922747 C378.985259,74.8078002 364.904963,87.8238768 346.391052,89.960869 L324.865637,89.9645471 Z" id="Shape"></path>
            <path d="M95,105 L186,104.835335 L186,0 L95,105 Z M166.789789,87.9063679 L135.293808,87.742107 L166.884572,50.4657684 L166.789789,87.9063679 Z" id="Shape"></path>
            <path d="M0,107 L41.4224919,107 C71.3546238,103.368871 90.6684588,84.9136604 90.9962063,54.4922747 C91.3239538,24.0712569 70.3786021,6.18533915 42.5032162,4 L0,4 L0,107 Z M17.8657108,89.9645471 L17.9305382,20.6582404 L39.390979,20.6582404 C56.821008,21.9302596 71.9852469,34.1771171 71.9852469,54.4922747 C71.9852469,74.8078002 57.9049416,87.8238768 39.390979,89.960869 L17.8657108,89.9645471 Z" id="Shape"></path>
        </g>
    </g>
</svg>