<?xml version="1.0" encoding="UTF-8"?>
<svg width="882px" height="225px" viewBox="0 0 882 225" version="1.1" xmlns="http://www.w3.org/2000/svg" xmlns:xlink="http://www.w3.org/1999/xlink">
    <!-- Generator: Sketch 64 (93537) - https://sketch.com -->
    <title>designer</title>
    <desc>Created with Sketch.</desc>
    <g id="designer" stroke="none" stroke-width="1" fill="none" fill-rule="evenodd" fill-opacity="0">
        <path d="M127.692,160 C134.204,160 140.740667,158.914667 147.302,156.744 C153.863333,154.573333 159.783333,151.292667 165.062,146.902 C170.340667,142.511333 174.608,137.06 177.864,130.548 C181.12,124.036 182.748,116.389333 182.748,107.608 C182.748,98.9253333 181.12,91.3033333 177.864,84.742 C174.608,78.1806667 170.340667,72.7046667 165.062,68.314 C159.783333,63.9233333 153.863333,60.6426667 147.302,58.472 C140.740667,56.3013333 134.204,55.216 127.692,55.216 L127.692,55.216 L92.912,55.216 L92.912,160 L127.692,160 Z M124.732,150.528 L103.568,150.528 L103.568,64.688 L124.732,64.688 C132.625333,64.688 139.507333,65.9213333 145.378,68.388 C151.248667,70.8546667 156.108,74.086 159.956,78.082 C163.804,82.078 166.69,86.6413333 168.614,91.772 C170.538,96.9026667 171.5,102.181333 171.5,107.608 C171.5,113.034667 170.538,118.313333 168.614,123.444 C166.69,128.574667 163.804,133.138 159.956,137.134 C156.108,141.13 151.248667,144.361333 145.378,146.828 C139.507333,149.294667 132.625333,150.528 124.732,150.528 L124.732,150.528 Z M271.370537,160 L271.370537,150.528 L215.278537,150.528 L215.278537,110.124 L266.042537,110.124 L266.042537,100.8 L215.278537,100.8 L215.278537,64.688 L269.594537,64.688 L269.594537,55.216 L204.622537,55.216 L204.622537,160 L271.370537,160 Z M318.405074,162.664 C322.549074,162.664 326.668407,162.072 330.763074,160.888 C334.85774,159.704 338.508407,157.878667 341.715074,155.412 C344.92174,152.945333 347.536407,149.812667 349.559074,146.014 C351.58174,142.215333 352.593074,137.701333 352.593074,132.472 C352.593074,127.242667 351.65574,122.926 349.781074,119.522 C347.906407,116.118 345.489074,113.306 342.529074,111.086 C339.569074,108.866 336.239074,107.065333 332.539074,105.684 C328.839074,104.302667 325.16374,103.02 321.513074,101.836 C318.553074,100.849333 315.716407,99.8626667 313.003074,98.876 C310.28974,97.8893333 307.872407,96.6313333 305.751074,95.102 C303.62974,93.5726667 301.92774,91.7226667 300.645074,89.552 C299.362407,87.3813333 298.721074,84.6186667 298.721074,81.264 C298.721074,77.9093333 299.387074,74.9986667 300.719074,72.532 C302.051074,70.0653333 303.802407,68.018 305.973074,66.39 C308.14374,64.762 310.561074,63.5533333 313.225074,62.764 C315.889074,61.9746667 318.50374,61.58 321.069074,61.58 C326.101074,61.58 330.393074,62.542 333.945074,64.466 C337.497074,66.39 340.40774,68.9306667 342.677074,72.088 L342.677074,72.088 L351.113074,65.28 C348.54774,61.8266667 344.749074,58.842 339.717074,56.326 C334.685074,53.81 328.617074,52.552 321.513074,52.552 C317.665074,52.552 313.76774,53.0946667 309.821074,54.18 C305.874407,55.2653333 302.273074,56.992 299.017074,59.36 C295.761074,61.728 293.12174,64.7373333 291.099074,68.388 C289.076407,72.0386667 288.065074,76.38 288.065074,81.412 C288.065074,86.148 288.879074,90.144 290.507074,93.4 C292.135074,96.656 294.281074,99.394 296.945074,101.614 C299.609074,103.834 302.618407,105.634667 305.973074,107.016 C309.32774,108.397333 312.73174,109.630667 316.185074,110.716 C319.53974,111.801333 322.746407,112.886667 325.805074,113.972 C328.86374,115.057333 331.577074,116.414 333.945074,118.042 C336.313074,119.67 338.212407,121.692667 339.643074,124.11 C341.07374,126.527333 341.789074,129.561333 341.789074,133.212 C341.789074,136.566667 341.07374,139.502 339.643074,142.018 C338.212407,144.534 336.387074,146.655333 334.167074,148.382 C331.947074,150.108667 329.45574,151.391333 326.693074,152.23 C323.930407,153.068667 321.217074,153.488 318.553074,153.488 C313.02774,153.488 308.21774,152.23 304.123074,149.714 C300.028407,147.198 296.846407,144.065333 294.577074,140.316 L294.577074,140.316 L285.401074,147.124 C287.27574,149.689333 289.446407,151.958667 291.913074,153.932 C294.37974,155.905333 297.04374,157.533333 299.905074,158.816 C302.766407,160.098667 305.77574,161.060667 308.933074,161.702 C312.090407,162.343333 315.24774,162.664 318.405074,162.664 Z M385.715611,160 L385.715611,55.216 L375.059611,55.216 L375.059611,160 L385.715611,160 Z M462.202148,162.664 C469.306148,162.664 476.163481,161.825333 482.774148,160.148 C489.384814,158.470667 495.551481,155.905333 501.274148,152.452 L501.274148,152.452 L501.274148,105.24 L466.198148,105.24 L466.198148,114.564 L490.618148,114.564 L490.618148,146.384 C487.559481,148.357333 483.563481,149.985333 478.630148,151.268 C473.696814,152.550667 468.270148,153.192 462.350148,153.192 C455.640814,153.192 449.597481,151.958667 444.220148,149.492 C438.842814,147.025333 434.279481,143.72 430.530148,139.576 C426.780814,135.432 423.894814,130.597333 421.872148,125.072 C419.849481,119.546667 418.838148,113.725333 418.838148,107.608 C418.838148,101.490667 419.849481,95.6693333 421.872148,90.144 C423.894814,84.6186667 426.780814,79.7593333 430.530148,75.566 C434.279481,71.3726667 438.842814,68.0426667 444.220148,65.576 C449.597481,63.1093333 455.640814,61.876 462.350148,61.876 C468.862148,61.876 474.634148,62.9366667 479.666148,65.058 C484.698148,67.1793333 489.039481,70.164 492.690148,74.012 L492.690148,74.012 L500.090148,66.612 C495.650148,62.172 490.322148,58.7186667 484.106148,56.252 C477.890148,53.7853333 470.588814,52.552 462.202148,52.552 C454.407481,52.552 447.180148,53.9333333 440.520148,56.696 C433.860148,59.4586667 428.088148,63.282 423.204148,68.166 C418.320148,73.05 414.496814,78.8466667 411.734148,85.556 C408.971481,92.2653333 407.590148,99.616 407.590148,107.608 C407.590148,115.6 408.946814,122.950667 411.660148,129.66 C414.373481,136.369333 418.147481,142.166 422.982148,147.05 C427.816814,151.934 433.588814,155.757333 440.298148,158.52 C447.007481,161.282667 454.308814,162.664 462.202148,162.664 Z M538.836685,160 L538.836685,69.868 L539.132684,69.868 L600.108684,160 L613.428685,160 L613.428685,55.216 L602.772684,55.216 L602.772684,144.46 L602.476685,144.46 L541.500685,55.216 L528.180684,55.216 L528.180684,160 L538.836685,160 Z M707.675221,160 L707.675221,150.528 L651.583221,150.528 L651.583221,110.124 L702.347221,110.124 L702.347221,100.8 L651.583221,100.8 L651.583221,64.688 L705.899221,64.688 L705.899221,55.216 L640.927221,55.216 L640.927221,160 L707.675221,160 Z M738.873758,160 L738.873758,111.012 L756.633758,111.012 L785.641758,160 L798.665758,160 L768.029758,110.124 C771.877758,109.729333 775.429758,108.841333 778.685758,107.46 C781.941758,106.078667 784.753758,104.228667 787.121758,101.91 C789.489758,99.5913333 791.364425,96.8533333 792.745758,93.696 C794.127092,90.5386667 794.817758,87.036 794.817758,83.188 C794.817758,78.0573333 793.929758,73.716 792.153758,70.164 C790.377758,66.612 787.886425,63.726 784.679758,61.506 C781.473092,59.286 777.674425,57.6826667 773.283758,56.696 C768.893092,55.7093333 764.132425,55.216 759.001758,55.216 L759.001758,55.216 L728.217758,55.216 L728.217758,160 L738.873758,160 Z M757.373758,101.836 L738.873758,101.836 L738.873758,64.392 L757.817758,64.392 C761.764425,64.392 765.365758,64.7373333 768.621758,65.428 C771.877758,66.1186667 774.640425,67.204 776.909758,68.684 C779.179092,70.164 780.955092,72.088 782.237758,74.456 C783.520425,76.824 784.161758,79.7346667 784.161758,83.188 C784.161758,89.404 781.843092,94.066 777.205758,97.174 C772.568425,100.282 765.957758,101.836 757.373758,101.836 L757.373758,101.836 Z" id="DESIGNER" stroke="#FFFFFF" fill="#814B4B" fill-rule="nonzero"></path>
    </g>
</svg>