<?xml version="1.0" encoding="UTF-8"?>
<svg width="882px" height="225px" viewBox="0 0 882 225" version="1.1" xmlns="http://www.w3.org/2000/svg" xmlns:xlink="http://www.w3.org/1999/xlink">
    <!-- Generator: Sketch 64 (93537) - https://sketch.com -->
    <title>developer</title>
    <desc>Created with Sketch.</desc>
    <g id="developer" stroke="none" stroke-width="1" fill="none" fill-rule="evenodd" fill-opacity="0">
        <path d="M71.692,160 C78.204,160 84.7406667,158.914667 91.302,156.744 C97.8633333,154.573333 103.783333,151.292667 109.062,146.902 C114.340667,142.511333 118.608,137.06 121.864,130.548 C125.12,124.036 126.748,116.389333 126.748,107.608 C126.748,98.9253333 125.12,91.3033333 121.864,84.742 C118.608,78.1806667 114.340667,72.7046667 109.062,68.314 C103.783333,63.9233333 97.8633333,60.6426667 91.302,58.472 C84.7406667,56.3013333 78.204,55.216 71.692,55.216 L71.692,55.216 L36.912,55.216 L36.912,160 L71.692,160 Z M68.732,150.528 L47.568,150.528 L47.568,64.688 L68.732,64.688 C76.6253333,64.688 83.5073333,65.9213333 89.378,68.388 C95.2486667,70.8546667 100.108,74.086 103.956,78.082 C107.804,82.078 110.69,86.6413333 112.614,91.772 C114.538,96.9026667 115.5,102.181333 115.5,107.608 C115.5,113.034667 114.538,118.313333 112.614,123.444 C110.69,128.574667 107.804,133.138 103.956,137.134 C100.108,141.13 95.2486667,144.361333 89.378,146.828 C83.5073333,149.294667 76.6253333,150.528 68.732,150.528 L68.732,150.528 Z M215.370537,160 L215.370537,150.528 L159.278537,150.528 L159.278537,110.124 L210.042537,110.124 L210.042537,100.8 L159.278537,100.8 L159.278537,64.688 L213.594537,64.688 L213.594537,55.216 L148.622537,55.216 L148.622537,160 L215.370537,160 Z M273.653074,160 L313.761074,55.216 L302.365074,55.216 L268.325074,146.236 L268.029074,146.236 L233.989074,55.216 L222.445074,55.216 L262.405074,160 L273.653074,160 Z M394.539611,160 L394.539611,150.528 L338.447611,150.528 L338.447611,110.124 L389.211611,110.124 L389.211611,100.8 L338.447611,100.8 L338.447611,64.688 L392.763611,64.688 L392.763611,55.216 L327.791611,55.216 L327.791611,160 L394.539611,160 Z M474.578148,160 L474.578148,150.528 L425.738148,150.528 L425.738148,55.216 L415.082148,55.216 L415.082148,160 L474.578148,160 Z M534.784685,162.664 C542.579351,162.664 549.806685,161.282667 556.466685,158.52 C563.126685,155.757333 568.898685,151.934 573.782685,147.05 C578.666684,142.166 582.490018,136.369333 585.252684,129.66 C588.015351,122.950667 589.396684,115.6 589.396684,107.608 C589.396684,99.616 588.015351,92.2653333 585.252684,85.556 C582.490018,78.8466667 578.666684,73.05 573.782685,68.166 C568.898685,63.282 563.126685,59.4586667 556.466685,56.696 C549.806685,53.9333333 542.579351,52.552 534.784685,52.552 C526.990018,52.552 519.762685,53.9333333 513.102685,56.696 C506.442685,59.4586667 500.670685,63.282 495.786685,68.166 C490.902685,73.05 487.079351,78.8466667 484.316685,85.556 C481.554018,92.2653333 480.172685,99.616 480.172685,107.608 C480.172685,115.6 481.554018,122.950667 484.316685,129.66 C487.079351,136.369333 490.902685,142.166 495.786685,147.05 C500.670685,151.934 506.442685,155.757333 513.102685,158.52 C519.762685,161.282667 526.990018,162.664 534.784685,162.664 Z M534.784685,153.192 C528.075351,153.192 522.032018,151.958667 516.654685,149.492 C511.277351,147.025333 506.714018,143.72 502.964685,139.576 C499.215351,135.432 496.354018,130.597333 494.380685,125.072 C492.407351,119.546667 491.420685,113.725333 491.420685,107.608 C491.420685,101.490667 492.407351,95.6693333 494.380685,90.144 C496.354018,84.6186667 499.215351,79.7593333 502.964685,75.566 C506.714018,71.3726667 511.277351,68.0426667 516.654685,65.576 C522.032018,63.1093333 528.075351,61.876 534.784685,61.876 C541.494018,61.876 547.537351,63.1093333 552.914685,65.576 C558.292018,68.0426667 562.855351,71.3726667 566.604685,75.566 C570.354018,79.7593333 573.215351,84.6186667 575.188685,90.144 C577.162018,95.6693333 578.148685,101.490667 578.148685,107.608 C578.148685,113.725333 577.162018,119.546667 575.188685,125.072 C573.215351,130.597333 570.354018,135.432 566.604685,139.576 C562.855351,143.72 558.292018,147.025333 552.914685,149.492 C547.537351,151.958667 541.494018,153.192 534.784685,153.192 Z M621.927221,160 L621.927221,111.308 L640.575221,111.308 C645.903221,111.308 650.762555,110.716 655.153221,109.532 C659.543888,108.348 663.293221,106.596667 666.401221,104.278 C669.509221,101.959333 671.926555,99.0486667 673.653221,95.546 C675.379888,92.0433333 676.243221,87.924 676.243221,83.188 C676.243221,78.452 675.404555,74.3326667 673.727221,70.83 C672.049888,67.3273333 669.657221,64.4166667 666.549221,62.098 C663.441221,59.7793333 659.716555,58.0526667 655.375221,56.918 C651.033888,55.7833333 646.199221,55.216 640.871221,55.216 L640.871221,55.216 L611.271221,55.216 L611.271221,160 L621.927221,160 Z M639.983221,102.28 L621.927221,102.28 L621.927221,64.392 L639.983221,64.392 C648.073888,64.392 654.363888,65.8966667 658.853221,68.906 C663.342555,71.9153333 665.587221,76.676 665.587221,83.188 C665.587221,89.404 663.416555,94.14 659.075221,97.396 C654.733888,100.652 648.369888,102.28 639.983221,102.28 L639.983221,102.28 Z M763.533758,160 L763.533758,150.528 L707.441758,150.528 L707.441758,110.124 L758.205758,110.124 L758.205758,100.8 L707.441758,100.8 L707.441758,64.688 L761.757758,64.688 L761.757758,55.216 L696.785758,55.216 L696.785758,160 L763.533758,160 Z M794.732295,160 L794.732295,111.012 L812.492295,111.012 L841.500295,160 L854.524295,160 L823.888295,110.124 C827.736295,109.729333 831.288295,108.841333 834.544295,107.46 C837.800295,106.078667 840.612295,104.228667 842.980295,101.91 C845.348295,99.5913333 847.222962,96.8533333 848.604295,93.696 C849.985629,90.5386667 850.676295,87.036 850.676295,83.188 C850.676295,78.0573333 849.788295,73.716 848.012295,70.164 C846.236295,66.612 843.744962,63.726 840.538295,61.506 C837.331629,59.286 833.532962,57.6826667 829.142295,56.696 C824.751629,55.7093333 819.990962,55.216 814.860295,55.216 L814.860295,55.216 L784.076295,55.216 L784.076295,160 L794.732295,160 Z M813.232295,101.836 L794.732295,101.836 L794.732295,64.392 L813.676295,64.392 C817.622962,64.392 821.224295,64.7373333 824.480295,65.428 C827.736295,66.1186667 830.498962,67.204 832.768295,68.684 C835.037629,70.164 836.813629,72.088 838.096295,74.456 C839.378962,76.824 840.020295,79.7346667 840.020295,83.188 C840.020295,89.404 837.701629,94.066 833.064295,97.174 C828.426962,100.282 821.816295,101.836 813.232295,101.836 L813.232295,101.836 Z" id="DEVELOPER" stroke="#FFFFFF" stroke-width="2" fill="#8C5555" fill-rule="nonzero"></path>
    </g>
</svg>