<?xml version="1.0" encoding="UTF-8"?>
<svg width="400px" height="400px" viewBox="0 0 400 400" version="1.1" xmlns="http://www.w3.org/2000/svg" xmlns:xlink="http://www.w3.org/1999/xlink">
    <!-- Generator: Sketch 64 (93537) - https://sketch.com -->
    <title>eqr</title>
    <desc>Created with Sketch.</desc>
    <g id="eqr" stroke="none" stroke-width="1" fill="none" fill-rule="evenodd">
        <g id="Group" transform="translate(4.000000, 257.000000)" fill-rule="nonzero">
            <path d="M106.123,49 L106.123,38.926 L83.422,38.926 L83.422,28.783 L103.708,28.783 L103.708,19.33 L83.422,19.33 L83.422,10.153 L104.881,10.153 L104.881,0.148 L72.037,0.148 L72.037,49 L106.123,49 Z M137.355083,49 L150.879083,14.638 L138.804083,14.638 L131.559083,36.925 L131.352083,36.925 L124.107083,14.638 L111.618083,14.638 L125.142083,49 L137.355083,49 Z M176.039167,50.104 C179.535167,50.104 182.605667,49.4715 185.250667,48.2065 C187.895667,46.9415 190.023167,45.136 191.633167,42.79 L191.633167,42.79 L183.767167,37.822 C182.985167,38.88 181.973167,39.7425 180.731167,40.4095 C179.489167,41.0765 177.971167,41.41 176.177167,41.41 C175.165167,41.41 174.187667,41.249 173.244667,40.927 C172.301667,40.605 171.450667,40.1565 170.691667,39.5815 C169.932667,39.0065 169.311667,38.328 168.828667,37.546 C168.345667,36.764 168.058167,35.89 167.966167,34.924 L167.966167,34.924 L192.875167,34.924 C192.921167,34.51 192.944167,34.073 192.944167,33.613 L192.944167,33.613 L192.944167,32.233 C192.944167,29.289 192.518667,26.667 191.667667,24.367 C190.816667,22.067 189.632167,20.112 188.114167,18.502 C186.596167,16.892 184.779167,15.6615 182.663167,14.8105 C180.547167,13.9595 178.224167,13.534 175.694167,13.534 C173.072167,13.534 170.634167,13.971 168.380167,14.845 C166.126167,15.719 164.171167,16.9495 162.515167,18.5365 C160.859167,20.1235 159.548167,22.0555 158.582167,24.3325 C157.616167,26.6095 157.133167,29.151 157.133167,31.957 C157.133167,34.855 157.627667,37.431 158.616667,39.685 C159.605667,41.939 160.962667,43.8365 162.687667,45.3775 C164.412667,46.9185 166.425167,48.0915 168.725167,48.8965 C171.025167,49.7015 173.463167,50.104 176.039167,50.104 Z M182.525167,27.886 L167.966167,27.886 C168.012167,27.012 168.242167,26.1725 168.656167,25.3675 C169.070167,24.5625 169.622167,23.861 170.312167,23.263 C171.002167,22.665 171.807167,22.1935 172.727167,21.8485 C173.647167,21.5035 174.659167,21.331 175.763167,21.331 C178.017167,21.331 179.707667,21.975 180.834667,23.263 C181.961667,24.551 182.525167,26.092 182.525167,27.886 L182.525167,27.886 Z M214.99925,49 L214.99925,30.37 C214.99925,29.404 215.12575,28.4725 215.37875,27.5755 C215.63175,26.6785 216.01125,25.885 216.51725,25.195 C217.02325,24.505 217.65575,23.9645 218.41475,23.5735 C219.17375,23.1825 220.05925,22.987 221.07125,22.987 C222.08325,22.987 222.92275,23.1825 223.58975,23.5735 C224.25675,23.9645 224.77425,24.4935 225.14225,25.1605 C225.51025,25.8275 225.77475,26.598 225.93575,27.472 C226.09675,28.346 226.17725,29.266 226.17725,30.232 L226.17725,30.232 L226.17725,49 L237.56225,49 L237.56225,27.748 C237.56225,26.046 237.34375,24.344 236.90675,22.642 C236.46975,20.94 235.75675,19.4335 234.76775,18.1225 C233.77875,16.8115 232.47925,15.742 230.86925,14.914 C229.25925,14.086 227.30425,13.672 225.00425,13.672 C223.80825,13.672 222.68125,13.833 221.62325,14.155 C220.56525,14.477 219.58775,14.891 218.69075,15.397 C217.79375,15.903 217.01175,16.5125 216.34475,17.2255 C215.67775,17.9385 215.13725,18.663 214.72325,19.399 L214.72325,19.399 L214.58525,19.399 L214.58525,14.638 L203.61425,14.638 L203.61425,49 L214.99925,49 Z M263.205334,49.828 C264.401334,49.828 265.597334,49.7245 266.793334,49.5175 C267.989334,49.3105 268.978334,49.069 269.760334,48.793 L269.760334,48.793 L269.622334,40.513 C269.208334,40.697 268.690834,40.835 268.069834,40.927 C267.448834,41.019 266.862334,41.065 266.310334,41.065 C264.700334,41.065 263.584834,40.6625 262.963834,39.8575 C262.342834,39.0525 262.032334,37.845 262.032334,36.235 L262.032334,36.235 L262.032334,23.125 L270.105334,23.125 L270.105334,14.638 L262.032334,14.638 L262.032334,5.599 L250.923334,5.599 L250.923334,14.638 L245.472334,14.638 L245.472334,23.125 L250.992334,23.125 L250.992334,37.615 C250.992334,39.455 251.199334,41.1225 251.613334,42.6175 C252.027334,44.1125 252.705834,45.4005 253.648834,46.4815 C254.591834,47.5625 255.845334,48.3905 257.409334,48.9655 C258.973334,49.5405 260.905334,49.828 263.205334,49.828 Z" id="Event" fill="#E160AA"></path>
            <path d="M56.305,118 L56.305,108.616 L46.024,108.823 L46.024,108.616 C46.898,107.926 47.772,107.0635 48.646,106.0285 C49.52,104.9935 50.302,103.809 50.992,102.475 C51.682,101.141 52.234,99.6575 52.648,98.0245 C53.062,96.3915 53.269,94.632 53.269,92.746 C53.269,89.066 52.6135,85.6965 51.3025,82.6375 C49.9915,79.5785 48.163,76.9565 45.817,74.7715 C43.471,72.5865 40.688,70.8845 37.468,69.6655 C34.248,68.4465 30.752,67.837 26.98,67.837 C23.208,67.837 19.7005,68.4465 16.4575,69.6655 C13.2145,70.8845 10.4085,72.598 8.0395,74.806 C5.6705,77.014 3.819,79.659 2.485,82.741 C1.151,85.823 0.484,89.227 0.484,92.953 C0.484,96.955 1.1165,100.5085 2.3815,103.6135 C3.6465,106.7185 5.4175,109.3405 7.6945,111.4795 C9.9715,113.6185 12.72,115.24 15.94,116.344 C19.16,117.448 22.702,118 26.566,118 L26.566,118 L56.305,118 Z M26.911,107.926 C24.887,107.926 23.0355,107.5695 21.3565,106.8565 C19.6775,106.1435 18.2285,105.1315 17.0095,103.8205 C15.7905,102.5095 14.8475,100.9455 14.1805,99.1285 C13.5135,97.3115 13.18,95.299 13.18,93.091 C13.18,90.975 13.525,89.02 14.215,87.226 C14.905,85.432 15.871,83.891 17.113,82.603 C18.355,81.315 19.8155,80.3145 21.4945,79.6015 C23.1735,78.8885 25.002,78.532 26.98,78.532 C29.004,78.532 30.867,78.8885 32.569,79.6015 C34.271,80.3145 35.7315,81.315 36.9505,82.603 C38.1695,83.891 39.1125,85.432 39.7795,87.226 C40.4465,89.02 40.78,90.975 40.78,93.091 C40.78,95.299 40.435,97.3115 39.745,99.1285 C39.055,100.9455 38.089,102.5095 36.847,103.8205 C35.605,105.1315 34.133,106.1435 32.431,106.8565 C30.729,107.5695 28.889,107.926 26.911,107.926 Z M77.3250834,118.966 C78.5210834,118.966 79.6595834,118.805 80.7405834,118.483 C81.8215834,118.161 82.8105834,117.747 83.7075834,117.241 C84.6045834,116.735 85.3865834,116.137 86.0535834,115.447 C86.7205834,114.757 87.2610834,114.021 87.6750834,113.239 L87.6750834,113.239 L87.8130834,113.239 L87.8130834,118 L98.7150834,118 L98.7150834,83.638 L87.3990834,83.638 L87.3990834,102.199 C87.3990834,104.177 86.8815834,105.902 85.8465834,107.374 C84.8115834,108.846 83.3050834,109.582 81.3270834,109.582 C80.2690834,109.582 79.4180834,109.3865 78.7740834,108.9955 C78.1300834,108.6045 77.6125834,108.064 77.2215834,107.374 C76.8305834,106.684 76.5660834,105.902 76.4280834,105.028 C76.2900834,104.154 76.2210834,103.234 76.2210834,102.268 L76.2210834,102.268 L76.2210834,83.638 L64.8360834,83.638 L64.8360834,104.89 C64.8360834,106.638 65.0545834,108.3515 65.4915834,110.0305 C65.9285834,111.7095 66.6415834,113.2045 67.6305834,114.5155 C68.6195834,115.8265 69.9075834,116.896 71.4945834,117.724 C73.0815834,118.552 75.0250834,118.966 77.3250834,118.966 Z M128.360167,119.104 C131.856167,119.104 134.926667,118.4715 137.571667,117.2065 C140.216667,115.9415 142.344167,114.136 143.954167,111.79 L143.954167,111.79 L136.088167,106.822 C135.306167,107.88 134.294167,108.7425 133.052167,109.4095 C131.810167,110.0765 130.292167,110.41 128.498167,110.41 C127.486167,110.41 126.508667,110.249 125.565667,109.927 C124.622667,109.605 123.771667,109.1565 123.012667,108.5815 C122.253667,108.0065 121.632667,107.328 121.149667,106.546 C120.666667,105.764 120.379167,104.89 120.287167,103.924 L120.287167,103.924 L145.196167,103.924 C145.242167,103.51 145.265167,103.073 145.265167,102.613 L145.265167,102.613 L145.265167,101.233 C145.265167,98.289 144.839667,95.667 143.988667,93.367 C143.137667,91.067 141.953167,89.112 140.435167,87.502 C138.917167,85.892 137.100167,84.6615 134.984167,83.8105 C132.868167,82.9595 130.545167,82.534 128.015167,82.534 C125.393167,82.534 122.955167,82.971 120.701167,83.845 C118.447167,84.719 116.492167,85.9495 114.836167,87.5365 C113.180167,89.1235 111.869167,91.0555 110.903167,93.3325 C109.937167,95.6095 109.454167,98.151 109.454167,100.957 C109.454167,103.855 109.948667,106.431 110.937667,108.685 C111.926667,110.939 113.283667,112.8365 115.008667,114.3775 C116.733667,115.9185 118.746167,117.0915 121.046167,117.8965 C123.346167,118.7015 125.784167,119.104 128.360167,119.104 Z M134.846167,96.886 L120.287167,96.886 C120.333167,96.012 120.563167,95.1725 120.977167,94.3675 C121.391167,93.5625 121.943167,92.861 122.633167,92.263 C123.323167,91.665 124.128167,91.1935 125.048167,90.8485 C125.968167,90.5035 126.980167,90.331 128.084167,90.331 C130.338167,90.331 132.028667,90.975 133.155667,92.263 C134.282667,93.551 134.846167,95.092 134.846167,96.886 L134.846167,96.886 Z M168.07925,118.966 C169.27525,118.966 170.41375,118.805 171.49475,118.483 C172.57575,118.161 173.56475,117.747 174.46175,117.241 C175.35875,116.735 176.14075,116.137 176.80775,115.447 C177.47475,114.757 178.01525,114.021 178.42925,113.239 L178.42925,113.239 L178.56725,113.239 L178.56725,118 L189.46925,118 L189.46925,83.638 L178.15325,83.638 L178.15325,102.199 C178.15325,104.177 177.63575,105.902 176.60075,107.374 C175.56575,108.846 174.05925,109.582 172.08125,109.582 C171.02325,109.582 170.17225,109.3865 169.52825,108.9955 C168.88425,108.6045 168.36675,108.064 167.97575,107.374 C167.58475,106.684 167.32025,105.902 167.18225,105.028 C167.04425,104.154 166.97525,103.234 166.97525,102.268 L166.97525,102.268 L166.97525,83.638 L155.59025,83.638 L155.59025,104.89 C155.59025,106.638 155.80875,108.3515 156.24575,110.0305 C156.68275,111.7095 157.39575,113.2045 158.38475,114.5155 C159.37375,115.8265 160.66175,116.896 162.24875,117.724 C163.83575,118.552 165.77925,118.966 168.07925,118.966 Z M219.114334,119.104 C222.610334,119.104 225.680834,118.4715 228.325834,117.2065 C230.970834,115.9415 233.098334,114.136 234.708334,111.79 L234.708334,111.79 L226.842334,106.822 C226.060334,107.88 225.048334,108.7425 223.806334,109.4095 C222.564334,110.0765 221.046334,110.41 219.252334,110.41 C218.240334,110.41 217.262834,110.249 216.319834,109.927 C215.376834,109.605 214.525834,109.1565 213.766834,108.5815 C213.007834,108.0065 212.386834,107.328 211.903834,106.546 C211.420834,105.764 211.133334,104.89 211.041334,103.924 L211.041334,103.924 L235.950334,103.924 C235.996334,103.51 236.019334,103.073 236.019334,102.613 L236.019334,102.613 L236.019334,101.233 C236.019334,98.289 235.593834,95.667 234.742834,93.367 C233.891834,91.067 232.707334,89.112 231.189334,87.502 C229.671334,85.892 227.854334,84.6615 225.738334,83.8105 C223.622334,82.9595 221.299334,82.534 218.769334,82.534 C216.147334,82.534 213.709334,82.971 211.455334,83.845 C209.201334,84.719 207.246334,85.9495 205.590334,87.5365 C203.934334,89.1235 202.623334,91.0555 201.657334,93.3325 C200.691334,95.6095 200.208334,98.151 200.208334,100.957 C200.208334,103.855 200.702834,106.431 201.691834,108.685 C202.680834,110.939 204.037834,112.8365 205.762834,114.3775 C207.487834,115.9185 209.500334,117.0915 211.800334,117.8965 C214.100334,118.7015 216.538334,119.104 219.114334,119.104 Z M225.600334,96.886 L211.041334,96.886 C211.087334,96.012 211.317334,95.1725 211.731334,94.3675 C212.145334,93.5625 212.697334,92.861 213.387334,92.263 C214.077334,91.665 214.882334,91.1935 215.802334,90.8485 C216.722334,90.5035 217.734334,90.331 218.838334,90.331 C221.092334,90.331 222.782834,90.975 223.909834,92.263 C225.036834,93.551 225.600334,95.092 225.600334,96.886 L225.600334,96.886 Z M258.005417,118 L258.005417,100.336 C258.005417,99.646 258.143417,98.841 258.419417,97.921 C258.695417,97.001 259.143917,96.15 259.764917,95.368 C260.385917,94.586 261.213917,93.919 262.248917,93.367 C263.283917,92.815 264.560417,92.539 266.078417,92.539 C266.538417,92.539 267.009917,92.562 267.492917,92.608 C267.975917,92.654 268.470417,92.746 268.976417,92.884 L268.976417,92.884 L269.459417,82.948 C269.183417,82.856 268.826917,82.787 268.389917,82.741 C267.952917,82.695 267.504417,82.672 267.044417,82.672 C264.928417,82.672 263.065417,83.224 261.455417,84.328 C259.845417,85.432 258.603417,86.858 257.729417,88.606 L257.729417,88.606 L257.591417,88.606 L257.591417,83.638 L246.689417,83.638 L246.689417,118 L258.005417,118 Z" id="Queuer" fill="#E160AA"></path>
            <g id="placeholder-qrcode" transform="translate(280.000000, 0.000000)" fill="#B3B3B3">
                <g id="g30" transform="translate(57.000000, 60.500000) scale(-1, 1) rotate(-180.000000) translate(-57.000000, -60.500000) translate(0.000000, -0.000000)">
                    <path d="M0,100.833333 L0,80.6666667 L19,80.6666667 L38,80.6666667 L38,100.833333 L38,121 L19,121 L0,121 L0,100.833333 Z M32.5714286,100.833333 L32.5714286,86.4285714 L19,86.4285714 L5.42857143,86.4285714 L5.42857143,100.833333 L5.42857143,115.238095 L19,115.238095 L32.5714286,115.238095 L32.5714286,100.833333 Z" id="path2"></path>
                    <polygon id="path4" points="10.8571429 100.833333 10.8571429 92.1904762 19 92.1904762 27.1428571 92.1904762 27.1428571 100.833333 27.1428571 109.47619 19 109.47619 10.8571429 109.47619"></polygon>
                    <path d="M54.2857143,112.357143 L54.2857143,103.714286 L59.7142857,103.714286 L65.1428571,103.714286 L65.1428571,100.833333 L65.1428571,97.952381 L54.2857143,97.952381 L43.4285714,97.952381 L43.4285714,86.4285714 L43.4285714,74.9047619 L38,74.9047619 L32.5714286,74.9047619 L32.5714286,72.0238095 L32.5714286,69.1428571 L29.8571429,69.1428571 L27.1428571,69.1428571 L27.1428571,63.3809524 L27.1428571,57.6190476 L24.4285714,57.6190476 L21.7142857,57.6190476 L21.7142857,66.2619048 L21.7142857,74.9047619 L19,74.9047619 L16.2857143,74.9047619 L16.2857143,72.0238095 L16.2857143,69.1428571 L13.5714286,69.1428571 L10.8571429,69.1428571 L10.8571429,72.0238095 L10.8571429,74.9047619 L5.42857143,74.9047619 L0,74.9047619 L0,72.0238095 L0,69.1428571 L5.42857143,69.1428571 L10.8571429,69.1428571 L10.8571429,66.2619048 L10.8571429,63.3809524 L13.5714286,63.3809524 L16.2857143,63.3809524 L16.2857143,60.5 L16.2857143,57.6190476 L13.5714286,57.6190476 L10.8571429,57.6190476 L10.8571429,54.7380952 L10.8571429,51.8571429 L13.5714286,51.8571429 L16.2857143,51.8571429 L16.2857143,48.9761905 L16.2857143,46.0952381 L21.7142857,46.0952381 L27.1428571,46.0952381 L27.1428571,48.9761905 L27.1428571,51.8571429 L29.8571429,51.8571429 L32.5714286,51.8571429 L32.5714286,48.9761905 L32.5714286,46.0952381 L35.2857143,46.0952381 L38,46.0952381 L38,48.9761905 L38,51.8571429 L35.2857143,51.8571429 L32.5714286,51.8571429 L32.5714286,54.7380952 L32.5714286,57.6190476 L35.2857143,57.6190476 L38,57.6190476 L38,60.5 L38,63.3809524 L40.7142857,63.3809524 L43.4285714,63.3809524 L43.4285714,60.5 L43.4285714,57.6190476 L48.8571429,57.6190476 L54.2857143,57.6190476 L54.2857143,54.7380952 L54.2857143,51.8571429 L48.8571429,51.8571429 L43.4285714,51.8571429 L43.4285714,43.2142857 L43.4285714,34.5714286 L46.1428571,34.5714286 L48.8571429,34.5714286 L48.8571429,37.452381 L48.8571429,40.3333333 L51.5714286,40.3333333 L54.2857143,40.3333333 L54.2857143,37.452381 L54.2857143,34.5714286 L62.4285714,34.5714286 L70.5714286,34.5714286 L70.5714286,28.8095238 L70.5714286,23.047619 L67.8571429,23.047619 L65.1428571,23.047619 L65.1428571,17.2857143 L65.1428571,11.5238095 L62.4285714,11.5238095 L59.7142857,11.5238095 L59.7142857,14.4047619 L59.7142857,17.2857143 L57,17.2857143 L54.2857143,17.2857143 L54.2857143,14.4047619 L54.2857143,11.5238095 L48.8571429,11.5238095 L43.4285714,11.5238095 L43.4285714,5.76190476 L43.4285714,0 L48.8571429,0 L54.2857143,0 L54.2857143,5.76190476 L54.2857143,11.5238095 L57,11.5238095 L59.7142857,11.5238095 L59.7142857,5.76190476 L59.7142857,0 L62.4285714,0 L65.1428571,0 L65.1428571,2.88095238 L65.1428571,5.76190476 L67.8571429,5.76190476 L70.5714286,5.76190476 L70.5714286,2.88095238 L70.5714286,0 L81.4285714,0 L92.2857143,0 L92.2857143,14.4047619 L92.2857143,28.8095238 L95,28.8095238 L97.7142857,28.8095238 L97.7142857,31.6904762 L97.7142857,34.5714286 L100.428571,34.5714286 L103.142857,34.5714286 L103.142857,31.6904762 L103.142857,28.8095238 L105.857143,28.8095238 L108.571429,28.8095238 L108.571429,34.5714286 L108.571429,40.3333333 L105.857143,40.3333333 L103.142857,40.3333333 L103.142857,43.2142857 L103.142857,46.0952381 L100.428571,46.0952381 L97.7142857,46.0952381 L97.7142857,43.2142857 L97.7142857,40.3333333 L92.2857143,40.3333333 L86.8571429,40.3333333 L86.8571429,43.2142857 L86.8571429,46.0952381 L89.5714286,46.0952381 L92.2857143,46.0952381 L92.2857143,48.9761905 L92.2857143,51.8571429 L86.8571429,51.8571429 L81.4285714,51.8571429 L81.4285714,54.7380952 L81.4285714,57.6190476 L84.1428571,57.6190476 L86.8571429,57.6190476 L86.8571429,60.5 L86.8571429,63.3809524 L89.5714286,63.3809524 L92.2857143,63.3809524 L92.2857143,60.5 L92.2857143,57.6190476 L97.7142857,57.6190476 L103.142857,57.6190476 L103.142857,54.7380952 L103.142857,51.8571429 L108.571429,51.8571429 L114,51.8571429 L114,60.5 L114,69.1428571 L111.285714,69.1428571 L108.571429,69.1428571 L108.571429,72.0238095 L108.571429,74.9047619 L103.142857,74.9047619 L97.7142857,74.9047619 L97.7142857,72.0238095 L97.7142857,69.1428571 L95,69.1428571 L92.2857143,69.1428571 L92.2857143,72.0238095 L92.2857143,74.9047619 L84.1428571,74.9047619 L76,74.9047619 L76,72.0238095 L76,69.1428571 L73.2857143,69.1428571 L70.5714286,69.1428571 L70.5714286,72.0238095 L70.5714286,74.9047619 L62.4285714,74.9047619 L54.2857143,74.9047619 L54.2857143,69.1428571 L54.2857143,63.3809524 L51.5714286,63.3809524 L48.8571429,63.3809524 L48.8571429,66.2619048 L48.8571429,69.1428571 L46.1428571,69.1428571 L43.4285714,69.1428571 L43.4285714,72.0238095 L43.4285714,74.9047619 L46.1428571,74.9047619 L48.8571429,74.9047619 L48.8571429,80.6666667 L48.8571429,86.4285714 L51.5714286,86.4285714 L54.2857143,86.4285714 L54.2857143,83.547619 L54.2857143,80.6666667 L57,80.6666667 L59.7142857,80.6666667 L59.7142857,86.4285714 L59.7142857,92.1904762 L65.1428571,92.1904762 L70.5714286,92.1904762 L70.5714286,97.952381 L70.5714286,103.714286 L67.8571429,103.714286 L65.1428571,103.714286 L65.1428571,106.595238 L65.1428571,109.47619 L67.8571429,109.47619 L70.5714286,109.47619 L70.5714286,115.238095 L70.5714286,121 L67.8571429,121 L65.1428571,121 L65.1428571,115.238095 L65.1428571,109.47619 L62.4285714,109.47619 L59.7142857,109.47619 L59.7142857,115.238095 L59.7142857,121 L57,121 L54.2857143,121 L54.2857143,112.357143 Z M38,66.2619048 L38,63.3809524 L35.2857143,63.3809524 L32.5714286,63.3809524 L32.5714286,66.2619048 L32.5714286,69.1428571 L35.2857143,69.1428571 L38,69.1428571 L38,66.2619048 Z M70.5714286,63.3809524 L70.5714286,57.6190476 L73.2857143,57.6190476 L76,57.6190476 L76,63.3809524 L76,69.1428571 L81.4285714,69.1428571 L86.8571429,69.1428571 L86.8571429,66.2619048 L86.8571429,63.3809524 L84.1428571,63.3809524 L81.4285714,63.3809524 L81.4285714,60.5 L81.4285714,57.6190476 L78.7142857,57.6190476 L76,57.6190476 L76,54.7380952 L76,51.8571429 L78.7142857,51.8571429 L81.4285714,51.8571429 L81.4285714,40.3333333 L81.4285714,28.8095238 L84.1428571,28.8095238 L86.8571429,28.8095238 L86.8571429,31.6904762 L86.8571429,34.5714286 L89.5714286,34.5714286 L92.2857143,34.5714286 L92.2857143,31.6904762 L92.2857143,28.8095238 L89.5714286,28.8095238 L86.8571429,28.8095238 L86.8571429,25.9285714 L86.8571429,23.047619 L81.4285714,23.047619 L76,23.047619 L76,34.5714286 L76,46.0952381 L73.2857143,46.0952381 L70.5714286,46.0952381 L70.5714286,43.2142857 L70.5714286,40.3333333 L67.8571429,40.3333333 L65.1428571,40.3333333 L65.1428571,46.0952381 L65.1428571,51.8571429 L62.4285714,51.8571429 L59.7142857,51.8571429 L59.7142857,46.0952381 L59.7142857,40.3333333 L57,40.3333333 L54.2857143,40.3333333 L54.2857143,46.0952381 L54.2857143,51.8571429 L57,51.8571429 L59.7142857,51.8571429 L59.7142857,54.7380952 L59.7142857,57.6190476 L57,57.6190476 L54.2857143,57.6190476 L54.2857143,60.5 L54.2857143,63.3809524 L57,63.3809524 L59.7142857,63.3809524 L59.7142857,60.5 L59.7142857,57.6190476 L62.4285714,57.6190476 L65.1428571,57.6190476 L65.1428571,63.3809524 L65.1428571,69.1428571 L67.8571429,69.1428571 L70.5714286,69.1428571 L70.5714286,63.3809524 Z M108.571429,60.5 L108.571429,57.6190476 L105.857143,57.6190476 L103.142857,57.6190476 L103.142857,60.5 L103.142857,63.3809524 L105.857143,63.3809524 L108.571429,63.3809524 L108.571429,60.5 Z M76,14.4047619 L76,11.5238095 L78.7142857,11.5238095 L81.4285714,11.5238095 L81.4285714,8.64285714 L81.4285714,5.76190476 L76,5.76190476 L70.5714286,5.76190476 L70.5714286,11.5238095 L70.5714286,17.2857143 L73.2857143,17.2857143 L76,17.2857143 L76,14.4047619 Z" id="path6"></path>
                    <polygon id="path8" points="65.1428571 54.7380952 65.1428571 51.8571429 67.8571429 51.8571429 70.5714286 51.8571429 70.5714286 54.7380952 70.5714286 57.6190476 67.8571429 57.6190476 65.1428571 57.6190476"></polygon>
                    <path d="M76,100.833333 L76,80.6666667 L95,80.6666667 L114,80.6666667 L114,100.833333 L114,121 L95,121 L76,121 L76,100.833333 Z M108.571429,100.833333 L108.571429,86.4285714 L95,86.4285714 L81.4285714,86.4285714 L81.4285714,100.833333 L81.4285714,115.238095 L95,115.238095 L108.571429,115.238095 L108.571429,100.833333 Z" id="path10"></path>
                    <polygon id="path12" points="86.8571429 100.833333 86.8571429 92.1904762 95 92.1904762 103.142857 92.1904762 103.142857 100.833333 103.142857 109.47619 95 109.47619 86.8571429 109.47619"></polygon>
                    <polygon id="path14" points="43.4285714 109.47619 43.4285714 103.714286 46.1428571 103.714286 48.8571429 103.714286 48.8571429 109.47619 48.8571429 115.238095 46.1428571 115.238095 43.4285714 115.238095"></polygon>
                    <polygon id="path16" points="65.1428571 83.547619 65.1428571 80.6666667 67.8571429 80.6666667 70.5714286 80.6666667 70.5714286 83.547619 70.5714286 86.4285714 67.8571429 86.4285714 65.1428571 86.4285714"></polygon>
                    <polygon id="path18" points="0 57.6190476 0 51.8571429 2.71428571 51.8571429 5.42857143 51.8571429 5.42857143 57.6190476 5.42857143 63.3809524 2.71428571 63.3809524 0 63.3809524"></polygon>
                    <path d="M0,20.1666667 L0,0 L19,0 L38,0 L38,20.1666667 L38,40.3333333 L19,40.3333333 L0,40.3333333 L0,20.1666667 Z M32.5714286,20.1666667 L32.5714286,5.76190476 L19,5.76190476 L5.42857143,5.76190476 L5.42857143,20.1666667 L5.42857143,34.5714286 L19,34.5714286 L32.5714286,34.5714286 L32.5714286,20.1666667 Z" id="path20"></path>
                    <polygon id="path22" points="10.8571429 20.1666667 10.8571429 11.5238095 19 11.5238095 27.1428571 11.5238095 27.1428571 20.1666667 27.1428571 28.8095238 19 28.8095238 10.8571429 28.8095238"></polygon>
                    <polygon id="path24" points="48.8571429 25.9285714 48.8571429 23.047619 46.1428571 23.047619 43.4285714 23.047619 43.4285714 20.1666667 43.4285714 17.2857143 46.1428571 17.2857143 48.8571429 17.2857143 48.8571429 20.1666667 48.8571429 23.047619 51.5714286 23.047619 54.2857143 23.047619 54.2857143 25.9285714 54.2857143 28.8095238 51.5714286 28.8095238 48.8571429 28.8095238"></polygon>
                    <polygon id="path26" points="103.142857 20.1666667 103.142857 17.2857143 100.428571 17.2857143 97.7142857 17.2857143 97.7142857 14.4047619 97.7142857 11.5238095 100.428571 11.5238095 103.142857 11.5238095 103.142857 14.4047619 103.142857 17.2857143 105.857143 17.2857143 108.571429 17.2857143 108.571429 14.4047619 108.571429 11.5238095 111.285714 11.5238095 114 11.5238095 114 17.2857143 114 23.047619 108.571429 23.047619 103.142857 23.047619"></polygon>
                    <polygon id="path28" points="103.142857 2.88095238 103.142857 0 105.857143 0 108.571429 0 108.571429 2.88095238 108.571429 5.76190476 105.857143 5.76190476 103.142857 5.76190476"></polygon>
                </g>
            </g>
        </g>
    </g>
</svg>