<?xml version="1.0" encoding="UTF-8"?>
<svg width="165px" height="304px" viewBox="0 0 165 304" version="1.1" xmlns="http://www.w3.org/2000/svg" xmlns:xlink="http://www.w3.org/1999/xlink">
    <title>game</title>
    <g id="game" stroke="none" stroke-width="1" fill="none" fill-rule="evenodd">
        <g id="Group" transform="translate(82.500000, 152.000000) rotate(-90.000000) translate(-82.500000, -152.000000) translate(-66.000000, 85.000000)">
            <path d="M45.0713659,131.851811 L45.0713659,8.05373398 C48.1080744,7.23722195 50.3857025,5.35494296 53.4537597,0.851811067 L243.782271,0.851811067 C245.495248,3.22340906 247.003343,6.81150338 252.071366,8.14159818 L252.071366,131.851811 L45.0713659,131.851811 Z" id="Path" stroke="#FFFFFF" stroke-width="1.5" fill-rule="nonzero"></path>
            <path d="M33.2525519,35.8709563 C33.2525519,41.116684 28.9982799,45.3709563 23.7525519,45.3709563 C18.5068239,45.3709563 14.2525519,41.116684 14.2525519,35.8709563 C14.2525519,30.6237792 18.5068239,26.3709563 23.7525519,26.3709563 C28.9982799,26.3709563 33.2525519,30.6237792 33.2525519,35.8709563 L33.2525519,35.8709563 Z" id="Path" stroke="#FFFFFF" fill-rule="nonzero"></path>
            <path d="M263.72762,8.7696773 C264.364872,8.7696773 264.881467,9.28627182 264.881467,9.92352346 L264.88062,12.6156773 L267.573774,12.6158311 C268.211026,12.6158311 268.72762,13.1324257 268.72762,13.7696773 C268.72762,14.4069289 268.211026,14.9235235 267.573774,14.9235235 L264.88062,14.9226773 L264.881467,17.6158311 C264.881467,18.2530828 264.364872,18.7696773 263.72762,18.7696773 C263.090369,18.7696773 262.573774,18.2530828 262.573774,17.6158311 L262.57362,14.9226773 L259.881467,14.9235235 C259.244215,14.9235235 258.72762,14.4069289 258.72762,13.7696773 C258.72762,13.1324257 259.244215,12.6158311 259.881467,12.6158311 L262.57362,12.6156773 L262.573774,9.92352346 C262.573774,9.28627182 263.090369,8.7696773 263.72762,8.7696773 Z" id="Combined-Shape" stroke="#FFFFFF"></path>
            <path d="M28.1647001,65.0968768 C28.1647001,67.8585489 25.9263723,70.0968768 23.1647001,70.0968768 C20.403028,70.0968768 18.1647001,67.8585489 18.1647001,65.0968768 C18.1647001,62.3352047 20.403028,60.0968768 23.1647001,60.0968768 C25.9263723,60.0968768 28.1647001,62.3352047 28.1647001,65.0968768 Z" id="Path" stroke="#FFFFFF" fill-rule="nonzero"></path>
            <path d="M28.1751327,81.590059 C28.1751327,84.3506266 25.9368048,86.589296 23.1751327,86.589296 C20.4134606,86.589296 18.1751327,84.3506266 18.1751327,81.590059 C18.1751327,78.8279651 20.4134606,76.589296 23.1751327,76.589296 C25.9368048,76.589296 28.1751327,78.8279651 28.1751327,81.590059 L28.1751327,81.590059 Z" id="Path" stroke="#FFFFFF" fill-rule="nonzero"></path>
            <path d="M36.416126,73.3371072 C36.416126,76.0992011 34.177457,78.3378701 31.4153631,78.3378701 C28.6547955,78.3378701 26.416126,76.0992011 26.416126,73.3371072 C26.416126,70.5765396 28.6547955,68.3378701 31.4153631,68.3378701 C34.177457,68.3378701 36.416126,70.5765396 36.416126,73.3371072 L36.416126,73.3371072 Z" id="Path" stroke="#FFFFFF" fill-rule="nonzero"></path>
            <path d="M19.9237068,73.3475397 C19.9237068,76.1096337 17.6850374,78.3483027 14.9244698,78.3483027 C12.1623759,78.3483027 9.92370682,76.1096337 9.92370682,73.3475397 C9.92370682,70.5869721 12.1623759,68.3483027 14.9244698,68.3483027 C17.6850374,68.3483027 19.9237068,70.5869721 19.9237068,73.3475397 L19.9237068,73.3475397 Z" id="Path" stroke="#FFFFFF" fill-rule="nonzero"></path>
            <path d="M22.8600901,102.023986 L28.8594036,102.023986 C30.5168016,102.023986 31.8597469,103.367085 31.8597469,105.024673 L31.8597469,111.024673 C31.8597469,112.680887 30.5168016,114.023986 28.8594036,114.023986 L22.8600901,114.023986 C21.2040652,114.023986 19.8597469,112.680887 19.8597469,111.024673 L19.8597469,105.024673 C19.8597469,103.367085 21.2040652,102.023986 22.8600901,102.023986 L22.8600901,102.023986 Z" id="Path" stroke="#FFFFFF" fill-rule="nonzero"></path>
            <path d="M274.190249,132.878371 L255.333723,132.878371 C253.59726,132.878371 252.190249,131.47133 252.190249,129.736268 L252.190249,4.02191363 C252.190249,2.28541254 253.59726,0.878371489 255.333723,0.878371489 L274.190249,0.878371489 C280.025457,0.878371489 285.620409,3.19610455 289.746488,7.32227348 C293.872567,11.4484424 296.190249,17.0435159 296.190249,22.878851 L296.190249,110.879331 C296.190249,123.029085 286.339739,132.878371 274.190249,132.878371 L274.190249,132.878371 Z" id="Path" stroke="#F95148" stroke-width="2" fill-rule="nonzero"></path>
            <path d="M283.5732,73.5474516 C283.5732,78.7950292 279.318928,83.0481766 274.0732,83.0481766 C268.827472,83.0481766 264.5732,78.7950292 264.5732,73.5474516 C264.5732,68.3013235 268.827472,64.0481766 274.0732,64.0481766 C279.318928,64.0481766 283.5732,68.3013235 283.5732,73.5474516 L283.5732,73.5474516 Z" id="Path" stroke="#FFFFFF" fill-rule="nonzero"></path>
            <path d="M277.063522,108.35395 C277.063522,111.667751 274.376258,114.35395 271.062835,114.35395 C267.749412,114.35395 265.063522,111.667751 265.063522,108.35395 C265.063522,105.040148 267.749412,102.35395 271.062835,102.35395 C274.376258,102.35395 277.063522,105.040148 277.063522,108.35395 L277.063522,108.35395 Z" id="Path" stroke="#FFFFFF" fill-rule="nonzero"></path>
            <path d="M279.408698,28.8008953 C279.408698,31.5614632 277.17037,33.8001326 274.408698,33.8001326 C271.647026,33.8001326 269.408698,31.5614632 269.408698,28.8008953 C269.408698,26.0388019 271.647026,23.8001326 274.408698,23.8001326 C277.17037,23.8001326 279.408698,26.0388019 279.408698,28.8008953 L279.408698,28.8008953 Z" id="Path" stroke="#FFFFFF" fill-rule="nonzero"></path>
            <path d="M278.690757,44.0803341 C278.690757,46.8420066 276.452429,49.0803341 273.690757,49.0803341 C270.929084,49.0803341 268.690757,46.8420066 268.690757,44.0803341 C268.690757,41.3201877 270.929084,39.0803341 273.690757,39.0803341 C276.452429,39.0803341 278.690757,41.3201877 278.690757,44.0803341 L278.690757,44.0803341 Z" id="Path" stroke="#FFFFFF" fill-rule="nonzero"></path>
            <path d="M287.902046,36.0708301 C287.902046,38.8325024 285.663377,41.0708301 282.901283,41.0708301 C280.140715,41.0708301 277.902046,38.8325024 277.902046,36.0708301 C277.902046,33.3091579 280.140715,31.0708301 282.901283,31.0708301 C285.663377,31.0708301 287.902046,33.3091579 287.902046,36.0708301 L287.902046,36.0708301 Z" id="Path" stroke="#FFFFFF" fill-rule="nonzero"></path>
            <path d="M271.409626,36.0812627 C271.409626,38.8429349 269.170957,41.0812627 266.410389,41.0812627 C263.648295,41.0812627 261.409626,38.8429349 261.409626,36.0812627 C261.409626,33.3195905 263.648295,31.0812627 266.410389,31.0812627 C269.170957,31.0812627 271.409626,33.3195905 271.409626,36.0812627 L271.409626,36.0812627 Z" id="Path" stroke="#FFFFFF" fill-rule="nonzero"></path>
            <rect id="Rectangle" stroke="#FFFFFF" x="29.0459692" y="12.1873595" width="10" height="2" rx="1"></rect>
            <rect id="Rectangle" stroke="#FFFFFF" stroke-width="2" x="61.6936309" y="14.9282156" width="173" height="106"></rect>
            <path d="M22.6808563,1.03746827 L41.5373827,1.03746827 C43.273846,1.03746827 44.6808563,2.44450932 44.6808563,4.1810104 L44.6808563,129.895365 C44.6808563,131.630427 43.273846,133.037468 41.5373827,133.037468 L22.6808563,133.037468 C16.8456484,133.037468 11.2506969,130.719735 7.12461788,126.595005 C2.99853889,122.468836 0.680856345,116.872324 0.680856345,111.038427 L0.680856345,23.0379478 C0.680856345,10.8867545 10.5313665,1.03746827 22.6808563,1.03746827 Z" id="Path" stroke="#00BAE2" stroke-width="2" fill-rule="nonzero"></path>
        </g>
    </g>
</svg>