<?xml version="1.0" encoding="UTF-8"?>
<svg width="200px" height="562px" viewBox="0 0 200 562" version="1.1" xmlns="http://www.w3.org/2000/svg" xmlns:xlink="http://www.w3.org/1999/xlink">
    <title>music</title>
    <defs>
        <linearGradient x1="55.4756539%" y1="100%" x2="50%" y2="7.95551263%" id="linearGradient-1">
            <stop stop-color="#F98B1F" offset="0%"></stop>
            <stop stop-color="#FF00C1" offset="100%"></stop>
        </linearGradient>
        <linearGradient x1="55.8486784%" y1="85.901662%" x2="65.5570228%" y2="6.77284773%" id="linearGradient-2">
            <stop stop-color="#9600FF" offset="0%"></stop>
            <stop stop-color="#00B8FF" offset="100%"></stop>
        </linearGradient>
        <linearGradient x1="39.299426%" y1="108.874306%" x2="50%" y2="1.42108547e-12%" id="linearGradient-3">
            <stop stop-color="#FF00C1" offset="0%"></stop>
            <stop stop-color="#9600FF" offset="100%"></stop>
        </linearGradient>
        <linearGradient x1="45.2715218%" y1="7.04583494%" x2="71.5744161%" y2="141.729124%" id="linearGradient-4">
            <stop stop-color="#00B8FF" offset="0%"></stop>
            <stop stop-color="#9600FF" offset="100%"></stop>
            <stop stop-color="#9600FF" offset="100%"></stop>
            <stop stop-color="#9600FF" offset="100%"></stop>
        </linearGradient>
        <linearGradient x1="63.4453037%" y1="45.9042309%" x2="50%" y2="6.35780979%" id="linearGradient-5">
            <stop stop-color="#00B8FF" offset="0%"></stop>
            <stop stop-color="#00FFF9" offset="100%"></stop>
        </linearGradient>
        <linearGradient x1="82.5819485%" y1="7.06258304%" x2="82.5819485%" y2="100%" id="linearGradient-6">
            <stop stop-color="#9600FF" offset="0%"></stop>
            <stop stop-color="#FF00C1" offset="100%"></stop>
        </linearGradient>
    </defs>
    <g id="music" stroke="none" stroke-width="1" fill="none" fill-rule="evenodd">
        <path d="M146.223372,486.353182 L114.338757,500.762454 C113.367644,501.201409 112.811204,502.214535 112.976417,503.243318 C113.153693,504.347218 117.745711,532.941767 118.000313,534.527176 C116.484175,533.958962 114.799827,533.758655 113.080597,534.027213 C107.874282,534.840484 104.301229,539.628306 105.115699,544.700021 C105.930169,549.771737 110.828473,553.236261 116.034788,552.42299 C121.241103,551.609719 124.814156,546.821898 123.999686,541.750182 L120.192326,518.041705 L147.564953,505.671395 L149.884928,520.117905 C148.368789,519.549691 146.684442,519.349384 144.965212,519.617942 C139.758897,520.431213 136.185844,525.219034 137.000314,530.29075 C137.814784,535.362466 142.713087,538.826989 147.919403,538.013719 C153.125718,537.200448 156.698771,532.412626 155.884301,527.340911 C155.610152,525.633783 149.858122,489.815826 149.582028,488.096587 C149.337101,486.571424 147.661229,485.70366 146.223372,486.353182 Z" id="Path" stroke="url(#linearGradient-1)" stroke-width="2" fill-rule="nonzero"></path>
        <path d="M51.4582697,137.628891 L85.1485375,139.795304 C86.1746777,139.86137 87.0290098,140.60492 87.2403563,141.616132 C87.4671341,142.701177 93.3414076,170.807316 93.6671035,172.365646 C94.830747,171.307293 96.27421,170.530828 97.9129969,170.176571 C102.875708,169.10378 107.760853,172.28669 108.802752,177.271778 C109.844652,182.256867 106.654814,187.185348 101.692103,188.258139 C96.729391,189.33093 91.8442468,186.14802 90.8023474,181.162932 L85.9318359,157.859407 L57.009041,155.999477 L59.9768357,170.199233 C61.1404792,169.14088 62.5839422,168.364415 64.222729,168.010158 C69.1854406,166.937367 74.0705848,170.120277 75.1124843,175.105365 C76.1543837,180.090454 72.9645464,185.018935 68.0018348,186.091726 C63.0391232,187.164517 58.153979,183.981607 57.1120796,178.996519 C56.7613786,177.318549 49.4031762,142.11238 49.0499873,140.422507 C48.7366679,138.923394 49.9390816,137.531448 51.4582697,137.628891 Z" id="Path" stroke="url(#linearGradient-2)" stroke-width="2" fill-rule="nonzero"></path>
        <path d="M54.0804073,435.644624 C58.377525,432.456532 61.7717272,429.93847 61.1717611,423.153752 C61.0599122,421.888908 62.0060683,420.773728 63.2849746,420.663028 C64.5638808,420.552328 65.6913931,421.488015 65.803242,422.752859 C67.1264185,437.716005 68.0038871,447.638861 69.3686896,463.072736 C70.6631822,462.172493 72.204553,461.58536 73.891184,461.439368 C78.9987811,460.997263 83.5175602,464.747256 83.9642538,469.798692 C84.4109474,474.850128 80.6189972,479.319483 75.5114001,479.761588 C70.403803,480.203693 65.8850238,476.4537 65.4383302,471.402264 C65.4232082,471.231257 63.505993,449.550421 63.505993,449.550421 C62.0974145,450.881021 60.471712,452.013328 58.9210627,453.091904 C54.3197036,456.292792 50.3458592,459.057036 50.9363065,465.734111 C51.0481554,466.998955 50.1019993,468.114135 48.8230931,468.224835 C47.5441868,468.335535 46.4166745,467.399848 46.3048256,466.135004 L45.0896635,452.393339 C44.2985525,443.447057 48.8614983,439.516227 54.0804073,435.644624 Z" id="Path" stroke="url(#linearGradient-3)" stroke-width="2" fill-rule="nonzero"></path>
        <path d="M154.56017,64.6080517 C150.632338,60.8827448 147.529809,57.9403494 148.981534,51.2010064 C149.252172,49.9446215 148.438955,48.7094618 147.165236,48.4423114 C145.891516,48.1751609 144.639475,48.9771525 144.368837,50.2335373 C141.167175,65.0966126 139.043982,74.9531065 135.741598,90.283762 C134.550835,89.221932 133.072404,88.4443808 131.392614,88.0920609 C126.305732,87.025136 121.287874,90.2393119 120.207019,95.2569648 C119.126164,100.274618 122.385329,105.22482 127.472211,106.291745 C132.559093,107.35867 137.576951,104.144494 138.657806,99.126841 C138.694396,98.9569772 143.333442,77.4211395 143.333442,77.4211395 C144.585292,78.9290068 146.080509,80.2642515 147.506878,81.5363917 C151.73941,85.3116568 155.39474,88.5719467 153.966047,95.2043666 C153.695409,96.4607514 154.508626,97.6959112 155.782345,97.9630616 C157.056065,98.2302121 158.308106,97.4282205 158.578744,96.1718356 L161.519046,82.5220726 C163.433281,73.6356219 159.330624,69.1321082 154.56017,64.6080517 Z" id="Path" stroke="url(#linearGradient-4)" stroke-width="2" fill-rule="nonzero"></path>
        <path d="M71.3400443,27.6760271 L75.7036305,26.4991856 L82.1202314,50.6023764 C82.4043864,51.6697703 83.5000332,52.3047109 84.5674271,52.020556 C84.5695201,52.0199988 84.5716123,52.0194382 84.5737035,52.0188742 L85.0752577,51.8836071 C86.1392735,51.5966463 86.7706632,50.5030358 86.4871608,49.4380932 L77.7562889,16.6416215 L77.7562889,16.6416215 C76.4818123,11.854203 71.5312243,9.01652572 66.7181887,10.3145819 C61.9051531,11.6126381 59.0274674,16.561569 60.3019441,21.3489875 C61.5764207,26.136406 66.5270087,28.9740833 71.3400443,27.6760271 Z" id="Path" stroke="url(#linearGradient-5)" stroke-width="2" stroke-linejoin="round" fill-rule="nonzero"></path>
        <path d="M158.001671,420.419319 C162.840206,419.301201 165.87733,414.499652 164.773408,409.713524 L157.216221,376.948833 C156.968776,375.872336 155.895006,375.201062 154.818696,375.449313 C154.818427,375.449375 154.818158,375.449437 154.818075,375.450306 L154.328665,375.563401 C153.252959,375.812832 152.582145,376.886358 152.829517,377.96254 L158.385033,402.04885 L158.385033,402.04885 L153.998329,403.062557 C149.159794,404.180676 146.12267,408.982225 147.226592,413.768352 C148.330514,418.55448 153.163137,421.537438 158.001671,420.419319 Z" id="Path" stroke="url(#linearGradient-6)" stroke-width="2" stroke-linejoin="round" fill-rule="nonzero"></path>
        <g id="sound-2" transform="translate(86.702467, 297.407637) rotate(-46.000000) translate(-86.702467, -297.407637) translate(56.202467, 229.407637)">
            <g id="sound">
                <path d="M59.3951306,15.5030707 C59.1792882,15.111284 57.0907458,11.4310064 52.9062269,7.74900168 C41.4152792,-2.36170819 24.229163,-2.81739451 13.5299681,7.79439761 C0.912228548,19.039759 0.871587715,40.2988705 0.876048294,41.1900124 L0.876048294,100.581518 C0.876048294,101.262951 0.875965691,111.494794 0.875800484,131.277049 C-6.62137012e-13,136.770023 24.5101449,136.770023 23.845801,131.23634 L23.845801,50.3740531 C32.287695,53.8034196 44.0363651,52.1299381 52.9062269,44.3250454 C57.0895068,40.6442743 59.1780491,36.9647368 59.3948828,36.5712232 C60.0265504,35.6943909 60.4,34.6211719 60.4,33.4623421 L60.4,18.6114583 C60.4,17.4528752 60.0265504,16.3799029 59.3951306,15.5030707 Z" id="Path" stroke="#FFFFFF" stroke-width="2" fill-rule="nonzero"></path>
                <path d="M0.875362319,127.375666 C5.73848631,127.666048 9.38582931,127.81124 11.8173913,127.81124 C14.2489533,127.81124 17.8962963,127.666048 22.7594203,127.375666" id="Line" stroke="#FFFFFF" stroke-width="2" stroke-linecap="square"></path>
                <path d="M56.5531319,31.9652072 C56.5330431,31.9879539 56.5055188,32.0163872 56.475255,32.0436831 C56.4520355,32.0645342 56.4366427,32.0793195 56.3864206,32.113629 C56.3729846,32.1227276 56.3429818,32.1473698 56.272149,32.1786464 C56.2611915,32.1835748 56.2040557,32.2046155 56.1764009,32.2118186 C56.1597037,32.2163679 56.1152212,32.2256561 56.0768698,32.2294472 C56.0439972,32.2326696 56.0207776,32.2336174 55.9759038,32.2305845 C55.9322041,32.2275516 55.9515102,32.2305845 55.9066364,32.2220545 C55.8688068,32.215041 55.8369777,32.2078379 55.7806246,32.1845226 C55.4148512,32.0268127 55.1478261,31.5032612 55.1478261,30.8934622 L55.1478261,19.6338833 C55.1478261,18.7787998 55.6620483,18.1164939 56.2400591,18.3367571 C56.6212253,18.4827146 56.889033,18.9861732 56.889033,19.5586299 C56.8182003,31.545532 57.0952698,31.3451722 56.5531319,31.9652072 Z" id="Path" fill="#FFFFFF" fill-rule="nonzero"></path>
            </g>
        </g>
        <g id="sound-2" transform="translate(143.459942, 230.485823) rotate(181.000000) translate(-143.459942, -230.485823) translate(112.959942, 162.485823)">
            <g id="sound">
                <path d="M59.3951306,15.5030707 C59.1792882,15.111284 57.0907458,11.4310064 52.9062269,7.74900168 C41.4152792,-2.36170819 24.229163,-2.81739451 13.5299681,7.79439761 C0.912228548,19.039759 0.871587715,40.2988705 0.876048294,41.1900124 L0.876048294,100.581518 C0.876048294,101.262951 0.875965691,111.494794 0.875800484,131.277049 C-6.6202599e-13,136.770023 24.5101449,136.770023 23.845801,131.23634 L23.845801,50.3740531 C32.287695,53.8034196 44.0363651,52.1299381 52.9062269,44.3250454 C57.0895068,40.6442743 59.1780491,36.9647368 59.3948828,36.5712232 C60.0265504,35.6943909 60.4,34.6211719 60.4,33.4623421 L60.4,18.6114583 C60.4,17.4528752 60.0265504,16.3799029 59.3951306,15.5030707 Z" id="Path" stroke="#FFFFFF" stroke-width="2" fill-rule="nonzero"></path>
                <path d="M0.875362319,127.375666 C5.73848631,127.666048 9.38582931,127.81124 11.8173913,127.81124 C14.2489533,127.81124 17.8962963,127.666048 22.7594203,127.375666" id="Line" stroke="#FFFFFF" stroke-width="2" stroke-linecap="square"></path>
                <path d="M56.5531319,31.9652072 C56.5330431,31.9879539 56.5055188,32.0163872 56.475255,32.0436831 C56.4520355,32.0645342 56.4366427,32.0793195 56.3864206,32.113629 C56.3729846,32.1227276 56.3429818,32.1473698 56.272149,32.1786464 C56.2611915,32.1835748 56.2040557,32.2046155 56.1764009,32.2118186 C56.1597037,32.2163679 56.1152212,32.2256561 56.0768698,32.2294472 C56.0439972,32.2326696 56.0207776,32.2336174 55.9759038,32.2305845 C55.9322041,32.2275516 55.9515102,32.2305845 55.9066364,32.2220545 C55.8688068,32.215041 55.8369777,32.2078379 55.7806246,32.1845226 C55.4148512,32.0268127 55.1478261,31.5032612 55.1478261,30.8934622 L55.1478261,19.6338833 C55.1478261,18.7787998 55.6620483,18.1164939 56.2400591,18.3367571 C56.6212253,18.4827146 56.889033,18.9861732 56.889033,19.5586299 C56.8182003,31.545532 57.0952698,31.3451722 56.5531319,31.9652072 Z" id="Path" fill="#FFFFFF" fill-rule="nonzero"></path>
            </g>
        </g>
    </g>
</svg>