<?xml version="1.0" encoding="UTF-8"?>
<svg width="323px" height="322px" viewBox="0 0 323 322" version="1.1" xmlns="http://www.w3.org/2000/svg" xmlns:xlink="http://www.w3.org/1999/xlink">
    <title>music</title>
    <defs>
        <linearGradient x1="56.8604551%" y1="100%" x2="50%" y2="7.95551263%" id="linearGradient-1">
            <stop stop-color="#9600FF" offset="0%"></stop>
            <stop stop-color="#FF00C1" offset="100%"></stop>
        </linearGradient>
        <linearGradient x1="63.0362521%" y1="134.43288%" x2="63.0362521%" y2="0%" id="linearGradient-2">
            <stop stop-color="#9600FF" offset="0%"></stop>
            <stop stop-color="#00B8FF" offset="100%"></stop>
        </linearGradient>
        <linearGradient x1="40.7216909%" y1="108.874306%" x2="50%" y2="7.10542736e-13%" id="linearGradient-3">
            <stop stop-color="#FF00C1" offset="0%"></stop>
            <stop stop-color="#F98B1F" offset="100%"></stop>
        </linearGradient>
        <linearGradient x1="50%" y1="0%" x2="57.9262414%" y2="156.523479%" id="linearGradient-4">
            <stop stop-color="#00B8FF" offset="0%"></stop>
            <stop stop-color="#9600FF" offset="100%"></stop>
            <stop stop-color="#9600FF" offset="100%"></stop>
        </linearGradient>
        <linearGradient x1="46.686988%" y1="100%" x2="58.19161%" y2="0%" id="linearGradient-5">
            <stop stop-color="#9600FF" offset="0%"></stop>
            <stop stop-color="#FF00C1" offset="100%"></stop>
        </linearGradient>
        <linearGradient x1="50%" y1="-27.4296217%" x2="50%" y2="100%" id="linearGradient-6">
            <stop stop-color="#F98B1F" offset="0%"></stop>
            <stop stop-color="#9600FF" offset="100%"></stop>
        </linearGradient>
    </defs>
    <g id="music" stroke="none" stroke-width="1" fill="none" fill-rule="evenodd">
        <path d="M138.600584,37.1150074 L107.311427,45.8616526 C106.358436,46.1281337 105.700478,46.9873458 105.700478,47.9656581 C105.700478,49.0154013 105.700478,76.2071174 105.700478,77.7147475 C104.396813,76.9679298 102.885192,76.5380322 101.272768,76.5380322 C96.3898881,76.5380322 92.4173459,80.4617772 92.4173459,85.2846773 C92.4173459,90.1075774 96.3898881,94.0313224 101.272768,94.0313224 C106.155647,94.0313224 110.128189,90.1075774 110.128189,85.2846773 L110.128189,62.7393248 L136.989635,55.23033 L136.989635,68.9681024 C135.685969,68.2212846 134.174349,67.791387 132.561924,67.791387 C127.679045,67.791387 123.706503,71.715132 123.706503,76.5380322 C123.706503,81.3609323 127.679045,85.2846773 132.561924,85.2846773 C137.444804,85.2846773 141.417346,81.3609323 141.417346,76.5380322 C141.417346,74.9146548 141.417346,40.8539067 141.417346,39.2190129 C141.417346,37.7686734 140.011548,36.7208253 138.600584,37.1150074 Z" id="Path" stroke="url(#linearGradient-1)" stroke-width="2" fill-rule="nonzero" transform="translate(116.917346, 65.531322) rotate(-9.000000) translate(-116.917346, -65.531322) "></path>
        <path d="M293.600584,237.083685 L262.311427,245.83033 C261.358436,246.096811 260.700478,246.956023 260.700478,247.934336 C260.700478,248.984079 260.700478,276.175795 260.700478,277.683425 C259.396813,276.936607 257.885192,276.50671 256.272768,276.50671 C251.389888,276.50671 247.417346,280.430455 247.417346,285.253355 C247.417346,290.076255 251.389888,294 256.272768,294 C261.155647,294 265.128189,290.076255 265.128189,285.253355 L265.128189,262.708002 L291.989635,255.199008 L291.989635,268.93678 C290.685969,268.189962 289.174349,267.760065 287.561924,267.760065 C282.679045,267.760065 278.706503,271.68381 278.706503,276.50671 C278.706503,281.32961 282.679045,285.253355 287.561924,285.253355 C292.444804,285.253355 296.417346,281.32961 296.417346,276.50671 C296.417346,274.883332 296.417346,240.822584 296.417346,239.187691 C296.417346,237.737351 295.011548,236.689503 293.600584,237.083685 Z" id="Path" stroke="url(#linearGradient-2)" stroke-width="2" fill-rule="nonzero" transform="translate(271.917346, 265.500000) scale(-1, 1) translate(-271.917346, -265.500000) "></path>
        <path d="M53.6005751,164.440483 C49.3079709,161.772125 45.9173459,159.664583 45.9173459,153.186701 C45.9173459,151.979059 44.9379292,151 43.7298459,151 C42.5217626,151 41.5423459,151.979059 41.5423459,153.186701 C41.5423459,167.473146 41.5423459,176.947246 41.5423459,191.68313 C40.2542001,190.936299 38.7605751,190.506394 37.1673459,190.506394 C32.3425959,190.506394 28.4173459,194.43021 28.4173459,199.253197 C28.4173459,204.076184 32.3425959,208 37.1673459,208 C41.9920959,208 45.9173459,204.076184 45.9173459,199.253197 C45.9173459,199.089923 45.9173459,178.389593 45.9173459,178.389593 C47.3481167,179.534841 48.9659917,180.474394 50.5090542,181.369192 C55.0879292,184.024721 59.0423459,186.317987 59.0423459,192.693095 C59.0423459,193.900737 60.0217626,194.879795 61.2298459,194.879795 C62.4379292,194.879795 63.4173459,193.900737 63.4173459,192.693095 L63.4173459,179.57289 C63.4173459,171.031199 58.8139709,167.680882 53.6005751,164.440483 Z" id="Path" stroke="url(#linearGradient-3)" stroke-width="2" fill-rule="nonzero" transform="translate(45.917346, 179.500000) scale(-1, 1) rotate(5.000000) translate(-45.917346, -179.500000) "></path>
        <path d="M256.600575,22.4561446 C252.307971,19.7877865 248.917346,17.6802443 248.917346,11.202362 C248.917346,9.99472003 247.937929,9.01566121 246.729846,9.01566121 C245.521763,9.01566121 244.542346,9.99472003 244.542346,11.202362 C244.542346,25.488807 244.542346,34.9629067 244.542346,49.6987916 C243.2542,48.9519604 241.760575,48.5220551 240.167346,48.5220551 C235.342596,48.5220551 231.417346,52.4458709 231.417346,57.2688581 C231.417346,62.0918454 235.342596,66.0156612 240.167346,66.0156612 C244.992096,66.0156612 248.917346,62.0918454 248.917346,57.2688581 C248.917346,57.1055845 248.917346,36.4052546 248.917346,36.4052546 C250.348117,37.5505026 251.965992,38.4900551 253.509054,39.384853 C258.087929,42.0403824 262.042346,44.3336484 262.042346,50.7087558 C262.042346,51.9163978 263.021763,52.8954566 264.229846,52.8954566 C265.437929,52.8954566 266.417346,51.9163978 266.417346,50.7087558 L266.417346,37.5885512 C266.417346,29.0468607 261.813971,25.6965436 256.600575,22.4561446 Z" id="Path" stroke="url(#linearGradient-4)" stroke-width="2" fill-rule="nonzero" transform="translate(248.917346, 37.515661) rotate(12.000000) translate(-248.917346, -37.515661) "></path>
        <path d="M276.917346,145.8 L281.167346,145.8 L281.167346,169 C281.167346,170.104569 282.062776,171 283.167346,171 L283.417346,171 C284.521915,171 285.417346,170.104569 285.417346,169 L285.417346,137.4 L285.417346,137.4 C285.417346,132.7674 281.605096,129 276.917346,129 C272.229596,129 268.417346,132.7674 268.417346,137.4 C268.417346,142.0326 272.229596,145.8 276.917346,145.8 Z" id="Path" stroke="url(#linearGradient-5)" stroke-width="2" stroke-linejoin="round" fill-rule="nonzero" transform="translate(276.917346, 150.000000) rotate(8.000000) translate(-276.917346, -150.000000) "></path>
        <path d="M103.917346,315 C108.605096,315 112.417346,311.2326 112.417346,306.6 L112.417346,275 C112.417346,273.895431 111.521915,273 110.417346,273 L110.167346,273 C109.062776,273 108.167346,273.895431 108.167346,275 L108.167346,298.2 L108.167346,298.2 L103.917346,298.2 C99.2295959,298.2 95.4173459,301.9674 95.4173459,306.6 C95.4173459,311.2326 99.2295959,315 103.917346,315 Z" id="Path" stroke="url(#linearGradient-6)" stroke-width="2" stroke-linejoin="round" fill-rule="nonzero" transform="translate(103.917346, 294.000000) rotate(-13.000000) translate(-103.917346, -294.000000) "></path>
        <g id="Group" transform="translate(159.917346, 166.015661) rotate(-73.000000) translate(-159.917346, -166.015661) translate(69.417346, 101.015661)">
            <g id="sound-2" transform="translate(50.000000, 65.000000) rotate(27.000000) translate(-50.000000, -65.000000) translate(24.000000, 6.000000)">
                <g id="sound">
                    <path d="M51.1348807,13.4612028 C50.949056,13.1210174 49.1509732,9.92545919 45.5484073,6.72840146 C35.6555384,-2.05065394 20.8595443,-2.44632304 11.6483169,6.76781842 C0.785362326,16.5320834 0.750373529,34.9912144 0.754213763,35.7649863 L0.754213763,87.3341964 C0.754213763,87.9258791 0.754142648,96.8101139 0.754000417,113.986901 C-5.69988501e-13,118.75641 21.1014493,118.75641 20.5294976,113.951554 L20.5294976,43.7394217 C27.7973533,46.7171156 37.9121024,45.2640438 45.5484073,38.4871126 C49.1499065,35.291126 50.9479893,32.0962105 51.1346673,31.7545255 C51.6784871,30.9931785 52,30.0613102 52,29.0551068 L52,16.1601931 C52,15.1542038 51.6784871,14.2225498 51.1348807,13.4612028 Z" id="Path" stroke="#FFFFFF" stroke-width="2" fill-rule="nonzero"></path>
                    <path d="M0.753623188,110.599359 C4.94041868,110.851496 8.0805153,110.977564 10.173913,110.977564 C12.2673108,110.977564 15.4074074,110.851496 19.5942029,110.599359" id="Line" stroke="#FFFFFF" stroke-width="2" stroke-linecap="square"></path>
                    <path d="M48.6881268,27.7551556 C48.6708318,27.7749063 48.6471354,27.7995947 48.6210805,27.8232956 C48.6010901,27.8414004 48.5878381,27.8542384 48.5446005,27.8840291 C48.5330331,27.8919293 48.5072028,27.913326 48.446221,27.9404832 C48.4367874,27.9447625 48.3875976,27.963032 48.3637889,27.9692864 C48.3494138,27.9732365 48.3111176,27.9813014 48.2780998,27.9845932 C48.2497989,27.9873912 48.2298085,27.9882141 48.1911755,27.9855807 C48.1535532,27.9829473 48.1701744,27.9855807 48.1315413,27.9781742 C48.0989728,27.9720844 48.0715702,27.96583 48.0230543,27.9455855 C47.70815,27.8086471 47.4782609,27.3540512 47.4782609,26.8245671 L47.4782609,17.0479572 C47.4782609,16.3054944 47.9209687,15.7304191 48.4185939,15.921672 C48.7467502,16.0484058 48.9773132,16.4855552 48.9773132,16.9826152 C48.9163314,27.3907546 49.154868,27.2167837 48.6881268,27.7551556 Z" id="Path" fill="#FFFFFF" fill-rule="nonzero"></path>
                </g>
            </g>
            <g id="sound-2" transform="translate(117.000000, 88.000000) rotate(254.000000) translate(-117.000000, -88.000000) translate(91.000000, 29.000000)">
                <g id="sound">
                    <path d="M51.1348807,13.4612028 C50.949056,13.1210174 49.1509732,9.92545919 45.5484073,6.72840146 C35.6555384,-2.05065394 20.8595443,-2.44632304 11.6483169,6.76781842 C0.785362326,16.5320834 0.750373529,34.9912144 0.754213763,35.7649863 L0.754213763,87.3341964 C0.754213763,87.9258791 0.754142648,96.8101139 0.754000417,113.986901 C-5.69988501e-13,118.75641 21.1014493,118.75641 20.5294976,113.951554 L20.5294976,43.7394217 C27.7973533,46.7171156 37.9121024,45.2640438 45.5484073,38.4871126 C49.1499065,35.291126 50.9479893,32.0962105 51.1346673,31.7545255 C51.6784871,30.9931785 52,30.0613102 52,29.0551068 L52,16.1601931 C52,15.1542038 51.6784871,14.2225498 51.1348807,13.4612028 Z" id="Path" stroke="#FFFFFF" stroke-width="2" fill-rule="nonzero"></path>
                    <path d="M0.753623188,110.599359 C4.94041868,110.851496 8.0805153,110.977564 10.173913,110.977564 C12.2673108,110.977564 15.4074074,110.851496 19.5942029,110.599359" id="Line" stroke="#FFFFFF" stroke-width="2" stroke-linecap="square"></path>
                    <path d="M48.6881268,27.7551556 C48.6708318,27.7749063 48.6471354,27.7995947 48.6210805,27.8232956 C48.6010901,27.8414004 48.5878381,27.8542384 48.5446005,27.8840291 C48.5330331,27.8919293 48.5072028,27.913326 48.446221,27.9404832 C48.4367874,27.9447625 48.3875976,27.963032 48.3637889,27.9692864 C48.3494138,27.9732365 48.3111176,27.9813014 48.2780998,27.9845932 C48.2497989,27.9873912 48.2298085,27.9882141 48.1911755,27.9855807 C48.1535532,27.9829473 48.1701744,27.9855807 48.1315413,27.9781742 C48.0989728,27.9720844 48.0715702,27.96583 48.0230543,27.9455855 C47.70815,27.8086471 47.4782609,27.3540512 47.4782609,26.8245671 L47.4782609,17.0479572 C47.4782609,16.3054944 47.9209687,15.7304191 48.4185939,15.921672 C48.7467502,16.0484058 48.9773132,16.4855552 48.9773132,16.9826152 C48.9163314,27.3907546 49.154868,27.2167837 48.6881268,27.7551556 Z" id="Path" fill="#FFFFFF" fill-rule="nonzero"></path>
                </g>
            </g>
        </g>
    </g>
</svg>