<?xml version="1.0" encoding="UTF-8"?>
<svg width="1180px" height="214px" viewBox="0 0 1180 214" version="1.1" xmlns="http://www.w3.org/2000/svg" xmlns:xlink="http://www.w3.org/1999/xlink">
    <title>plane</title>
    <defs>
        <linearGradient x1="4.51893763%" y1="50%" x2="102.999212%" y2="51.1341881%" id="linearGradient-1">
            <stop stop-color="#00B8FF" offset="0%"></stop>
            <stop stop-color="#00FFF9" offset="100%"></stop>
            <stop stop-color="#00FFF9" offset="100%"></stop>
        </linearGradient>
        <linearGradient x1="100%" y1="53.2559632%" x2="0%" y2="45.5115966%" id="linearGradient-2">
            <stop stop-color="#00B8FF" offset="0%"></stop>
            <stop stop-color="#00FFF9" offset="100%"></stop>
        </linearGradient>
        <linearGradient x1="-57.4820556%" y1="67.4320127%" x2="100%" y2="67.4320127%" id="linearGradient-3">
            <stop stop-color="#9600FF" offset="0%"></stop>
            <stop stop-color="#FF00C1" offset="100%"></stop>
        </linearGradient>
        <linearGradient x1="0%" y1="50%" x2="90.9752389%" y2="50%" id="linearGradient-4">
            <stop stop-color="#00B8FF" offset="0%"></stop>
            <stop stop-color="#00FFF9" offset="100%"></stop>
        </linearGradient>
        <linearGradient x1="89.2257758%" y1="50%" x2="0%" y2="50%" id="linearGradient-5">
            <stop stop-color="#00B8FF" offset="0%"></stop>
            <stop stop-color="#00FFF9" offset="100%"></stop>
        </linearGradient>
        <linearGradient x1="100%" y1="52.4434466%" x2="0%" y2="45.0612245%" id="linearGradient-6">
            <stop stop-color="#9600FF" offset="0%"></stop>
            <stop stop-color="#FF00C1" offset="100%"></stop>
        </linearGradient>
        <linearGradient x1="0%" y1="47.9358536%" x2="108.220569%" y2="53.0132757%" id="linearGradient-7">
            <stop stop-color="#00B8FF" offset="0%"></stop>
            <stop stop-color="#00FFF9" offset="100%"></stop>
        </linearGradient>
        <linearGradient x1="100%" y1="50%" x2="-248.400333%" y2="22.3549437%" id="linearGradient-8">
            <stop stop-color="#9600FF" offset="0%"></stop>
            <stop stop-color="#FF00C1" offset="100%"></stop>
        </linearGradient>
        <linearGradient x1="204.088892%" y1="62.8267836%" x2="0%" y2="46.0465937%" id="linearGradient-9">
            <stop stop-color="#9600FF" offset="0%"></stop>
            <stop stop-color="#FF00C1" offset="100%"></stop>
        </linearGradient>
        <linearGradient x1="-54.2513006%" y1="35.6475914%" x2="95.9340394%" y2="66.1073488%" id="linearGradient-10">
            <stop stop-color="#00B8FF" offset="0%"></stop>
            <stop stop-color="#00FFF9" offset="100%"></stop>
        </linearGradient>
        <linearGradient x1="6.80362916%" y1="55.6042058%" x2="404.596685%" y2="128.584048%" id="linearGradient-11">
            <stop stop-color="#00B8FF" offset="0%"></stop>
            <stop stop-color="#00FFF9" offset="100%"></stop>
        </linearGradient>
        <linearGradient x1="92.4848311%" y1="58.5592878%" x2="-74.4146388%" y2="58.5592878%" id="linearGradient-12">
            <stop stop-color="#9600FF" offset="0%"></stop>
            <stop stop-color="#FF00C1" offset="100%"></stop>
        </linearGradient>
        <linearGradient x1="89.2257758%" y1="50%" x2="0%" y2="50%" id="linearGradient-13">
            <stop stop-color="#00B8FF" offset="0%"></stop>
            <stop stop-color="#00FFF9" offset="100%"></stop>
        </linearGradient>
        <linearGradient x1="18.3258483%" y1="46.8703355%" x2="105.439223%" y2="55.2541026%" id="linearGradient-14">
            <stop stop-color="#FF00C1" offset="0%"></stop>
            <stop stop-color="#9600FF" offset="100%"></stop>
        </linearGradient>
        <linearGradient x1="89.2257758%" y1="50%" x2="0%" y2="50%" id="linearGradient-15">
            <stop stop-color="#00B8FF" offset="0%"></stop>
            <stop stop-color="#00FFF9" offset="100%"></stop>
        </linearGradient>
        <linearGradient x1="89.2257758%" y1="50%" x2="0%" y2="50%" id="linearGradient-16">
            <stop stop-color="#00B8FF" offset="0%"></stop>
            <stop stop-color="#00FFF9" offset="100%"></stop>
        </linearGradient>
        <linearGradient x1="89.2257758%" y1="50%" x2="0%" y2="50%" id="linearGradient-17">
            <stop stop-color="#00B8FF" offset="0%"></stop>
            <stop stop-color="#00FFF9" offset="100%"></stop>
        </linearGradient>
        <linearGradient x1="0%" y1="45.406055%" x2="100%" y2="53.768014%" id="linearGradient-18">
            <stop stop-color="#00B8FF" offset="0%"></stop>
            <stop stop-color="#00FFF9" offset="100%"></stop>
        </linearGradient>
        <linearGradient x1="0%" y1="45.410708%" x2="119.478022%" y2="52.9959691%" id="linearGradient-19">
            <stop stop-color="#9600FF" offset="0%"></stop>
            <stop stop-color="#FF00C1" offset="100%"></stop>
        </linearGradient>
        <linearGradient x1="86.3754325%" y1="50%" x2="-7.00281223%" y2="9.63270018%" id="linearGradient-20">
            <stop stop-color="#9600FF" offset="0%"></stop>
            <stop stop-color="#FF00C1" offset="100%"></stop>
        </linearGradient>
        <linearGradient x1="128.391976%" y1="57.6002319%" x2="0%" y2="44.9380165%" id="linearGradient-21">
            <stop stop-color="#9600FF" offset="0%"></stop>
            <stop stop-color="#FF00C1" offset="100%"></stop>
        </linearGradient>
        <linearGradient x1="0%" y1="47.714652%" x2="119.478022%" y2="51.4919146%" id="linearGradient-22">
            <stop stop-color="#9600FF" offset="0%"></stop>
            <stop stop-color="#FF00C1" offset="100%"></stop>
        </linearGradient>
        <linearGradient x1="9.8331966%" y1="38.4143665%" x2="110.351206%" y2="38.4143665%" id="linearGradient-23">
            <stop stop-color="#00B8FF" offset="0%"></stop>
            <stop stop-color="#00FFF9" offset="100%"></stop>
        </linearGradient>
        <linearGradient x1="0%" y1="37.5981783%" x2="119.478022%" y2="58.0961234%" id="linearGradient-24">
            <stop stop-color="#9600FF" offset="0%"></stop>
            <stop stop-color="#FF00C1" offset="100%"></stop>
        </linearGradient>
        <linearGradient x1="-273.102002%" y1="-11.7681869%" x2="100%" y2="50%" id="linearGradient-25">
            <stop stop-color="#9600FF" offset="0%"></stop>
            <stop stop-color="#FF00C1" offset="100%"></stop>
        </linearGradient>
        <linearGradient x1="0%" y1="33.7974052%" x2="266.656678%" y2="33.7974052%" id="linearGradient-26">
            <stop stop-color="#00B8FF" offset="0%"></stop>
            <stop stop-color="#00FFF9" offset="100%"></stop>
        </linearGradient>
        <linearGradient x1="263.327291%" y1="28.1744905%" x2="0%" y2="28.1744905%" id="linearGradient-27">
            <stop stop-color="#00B8FF" offset="0%"></stop>
            <stop stop-color="#00FFF9" offset="100%"></stop>
        </linearGradient>
    </defs>
    <g id="plane" stroke="none" stroke-width="1" fill="none" fill-rule="evenodd">
        <path d="M638,120 L598.574519,120 C595.609711,120 593.206731,117.537833 593.206731,114.5 C593.206731,111.462167 590.803751,109 587.838942,109 L566.367788,109 C563.40298,109 561,106.537833 561,103.5 C561,100.462167 563.40298,98 566.367788,98 L609.310096,98 C612.274905,98 614.677885,100.462167 614.677885,103.5 C614.677885,106.537833 617.080865,109 620.045673,109 L638,109.37931 L638,120 Z" id="Path" stroke="url(#linearGradient-1)" stroke-width="2" fill-rule="nonzero"></path>
        <path d="M503,51 C503,54.8663333 500.582668,58 497.600152,58 L454.401369,58 C451.418853,58 449.001521,54.8663333 449.001521,51 C449.001521,47.1336667 446.584189,44 443.601673,44 L422.002281,44 C421.910624,44.1862552 424.593738,40.300789 427.774532,36.8108108 C431.055538,33.2108802 434.84442,30 435.222598,30 C441.88448,30 451.877302,30 465.201065,30 C468.183581,30 470.600912,33.1336667 470.600912,37 C470.600912,40.8663333 473.018244,44 476.00076,44 L497.600152,44 C500.582668,44 503,47.1336667 503,51 Z" id="Path" stroke="url(#linearGradient-2)" stroke-width="2" fill-rule="nonzero" transform="translate(462.500000, 44.000000) scale(-1, 1) translate(-462.500000, -44.000000) "></path>
        <path d="M722,63 C722,66.8663333 719.601091,70 716.641304,70 L679.869565,70 C677.405797,65.963964 675.434783,61.9279279 673.956522,57.8918919 C672.478261,53.8558559 671.492754,48.5585586 671,42 L684.48913,42 C687.448917,42 689.847826,45.1336667 689.847826,49 C689.847826,52.8663333 692.246736,56 695.206522,56 L716.641304,56 C719.601091,56 722,59.1336667 722,63 Z" id="Path" stroke="url(#linearGradient-3)" stroke-width="2" fill-rule="nonzero" transform="translate(696.500000, 56.000000) scale(1, -1) translate(-696.500000, -56.000000) "></path>
        <path d="M483,100.25 C483,101.768917 482.020729,103 480.8125,103 L463.3125,103 C462.104271,103 461.125,101.768917 461.125,100.25 C461.125,98.7310833 460.145729,97.5 458.9375,97.5 L450.1875,97.5 C448.979271,97.5 448,96.2689167 448,94.75 C448,93.2310833 448.979271,92 450.1875,92 L467.6875,92 C468.895729,92 469.875,93.2310833 469.875,94.75 C469.875,96.2689167 470.854271,97.5 472.0625,97.5 L480.8125,97.5 C482.020729,97.5 483,98.7310833 483,100.25 Z" id="Path" stroke="url(#linearGradient-4)" stroke-width="2" fill-rule="nonzero"></path>
        <path d="M851.125,37 C852.851042,37 854.25,38.7906667 854.25,41 C854.25,43.2093333 855.648958,45 857.375,45 L869.875,45 C871.601042,45 873,46.7906667 873,49 C873,49.1653713 872.992162,49.328397 872.976936,49.4885016 C872.992149,49.6474241 873,49.8091276 873,49.9731544 C873,52.16766 871.594696,53.9463087 869.860825,53.9463087 L869.860825,53.9463087 L857.304124,53.9463087 C855.570253,53.9463087 854.164948,55.7249575 854.164948,57.9194631 C854.164948,60.1139687 852.759644,61.8926174 851.025773,61.8926174 L851.025773,61.8926174 L834.139175,62 C832.405304,62 831,60.2213512 831,58.0268456 C831,55.83234 832.405304,54.0536913 834.139175,54.0536913 L834.139175,54.0536913 L838.469072,53.9463087 C840.202943,53.9463087 841,52 841.608247,49.9731544 C841.651197,49.6471913 841.701621,49.3449455 841.759649,49.0651344 C841.755634,49.0441915 841.752762,49.0220957 841.75,49 C842,47 840.351042,45 838.625,45 L826.125,45 C824.398958,45 823,43.2093333 823,41 C823,38.7906667 824.398958,37 826.125,37 L851.125,37 Z" id="Combined-Shape" stroke="url(#linearGradient-5)" stroke-width="2" fill-rule="nonzero" transform="translate(848.000000, 49.500000) scale(-1, 1) translate(-848.000000, -49.500000) "></path>
        <path d="M722,158.25 C722,159.768917 721.020729,161 719.8125,161 L702.3125,161 C701.104271,161 700.125,159.768917 700.125,158.25 C700.125,156.731083 699.145729,155.5 697.9375,155.5 L689.1875,155.5 C687.979271,155.5 687,154.268917 687,152.75 C687,151.231083 687.979271,150 689.1875,150 L706.6875,150 C707.895729,150 708.875,151.231083 708.875,152.75 C708.875,154.268917 709.854271,155.5 711.0625,155.5 L719.8125,155.5 C721.020729,155.5 722,156.731083 722,158.25 Z" id="Path" stroke="url(#linearGradient-6)" stroke-width="2" fill-rule="nonzero" transform="translate(704.500000, 155.500000) scale(-1, 1) translate(-704.500000, -155.500000) "></path>
        <path d="M1128,39 C1128,40.657 1127.02073,42 1125.8125,42 L1108.3125,42 C1107.10427,42 1106.125,40.657 1106.125,39 C1106.125,37.343 1105.14573,36 1103.9375,36 L1095.1875,36 C1093.97927,36 1093,34.657 1093,33 C1093,31.343 1093.97927,30 1095.1875,30 L1112.6875,30 C1113.89573,30 1114.875,31.343 1114.875,33 C1114.875,34.657 1115.85427,36 1117.0625,36 L1125.8125,36 C1127.02073,36 1128,37.343 1128,39 Z" id="Path" stroke="url(#linearGradient-7)" stroke-width="2" fill-rule="nonzero"></path>
        <path d="M375,184.652177 C375,186.437431 374.209115,188.886705 372.627345,192 C359.687045,191.98551 349.711568,189.780439 342.700913,185.384786 C335.01279,180.564363 330.112486,175.436101 328,170 L357.375,170 C367.109875,170 375,176.559291 375,184.652177 Z" id="Path" stroke="url(#linearGradient-8)" stroke-width="2" fill-rule="nonzero" transform="translate(351.500000, 181.000000) scale(-1, 1) translate(-351.500000, -181.000000) "></path>
        <path d="M476.782951,178.921478 C474.03811,173.692576 467.904216,170.052147 460.776699,170.052147 L431.541262,170.052147 C421.852638,170.052147 414,163.325475 414,155.026074 C414,146.726672 421.852638,140 431.541262,140 L491,140 C490.745766,149.376748 489.998193,155.888047 488.757282,159.533896 C484.145384,173.083841 477.25141,179.813889 476.782951,178.921478 Z" id="Path" stroke="url(#linearGradient-9)" stroke-width="2" fill-rule="nonzero" transform="translate(452.500000, 159.500000) scale(-1, 1) translate(-452.500000, -159.500000) "></path>
        <path d="M874,139.75 C874,147.068417 867.273009,153 858.973214,153 L803.875,153 C802.91819,153 801.538888,152.830467 799.737094,152.491402 L799,100 L803.875,100 C812.174795,100 818.901786,105.931583 818.901786,113.25 C818.901786,120.568417 825.628777,126.5 833.928571,126.5 L858.973214,126.5 C867.273009,126.5 874,132.431583 874,139.75 Z" id="Path" stroke="url(#linearGradient-10)" stroke-width="2" fill-rule="nonzero"></path>
        <path d="M767,126 L749.026786,126 C740.726991,126 734,120.180333 734,113 C734,105.819667 740.726991,100 749.026786,100 L767,100 L767,126 Z" id="Path" stroke="url(#linearGradient-11)" stroke-width="2" fill-rule="nonzero"></path>
        <path d="M638,63 C638,66.8663333 635.580565,70 632.595455,70 L605.945455,70 C604.650054,67.7729175 602.91066,64.241386 600.727273,59.4054054 C598.543885,54.5694248 597.301461,48.767623 597,42 L600.168182,42 C603.153292,42 605.572727,45.1336667 605.572727,49 C605.572727,52.8663333 607.992162,56 610.977273,56 L632.595455,56 C635.580565,56 638,59.1336667 638,63 Z" id="Path" stroke="url(#linearGradient-12)" stroke-width="2" fill-rule="nonzero" transform="translate(617.500000, 56.000000) scale(-1, -1) translate(-617.500000, -56.000000) "></path>
        <path d="M1013,175.25 C1013,177.32125 1011.74094,179 1010.1875,179 L987.6875,179 C986.134063,179 984.875,177.32125 984.875,175.25 C984.875,173.17875 983.615937,171.5 982.0625,171.5 L970.8125,171.5 C969.259063,171.5 968,169.82125 968,167.75 C968,165.67875 969.259063,164 970.8125,164 L993.3125,164 C994.865937,164 996.125,165.67875 996.125,167.75 C996.125,169.82125 997.384063,171.5 998.9375,171.5 L1010.1875,171.5 C1011.74094,171.5 1013,173.17875 1013,175.25 Z" id="Path" stroke="url(#linearGradient-13)" stroke-width="2" fill-rule="nonzero" transform="translate(990.500000, 171.500000) scale(-1, 1) translate(-990.500000, -171.500000) "></path>
        <path d="M241,43.9139394 C241,47.8278069 238.600583,51 235.640171,51 L192.761538,51 C189.801125,51 187.401708,47.8278069 187.401708,43.9139394 C187.401708,40.0000719 180.378484,40.2751515 184.074918,35.6787878 C196.642793,25.7199999 201.372954,25.1086399 204.774948,24.1878787 C208.176942,23.2671176 208.841025,25.8279506 208.841025,29.7418181 C208.841025,33.6556856 211.240442,36.8278788 214.200854,36.8278788 L235.640171,36.8278788 C238.600583,36.8278788 241,40.0000719 241,43.9139394 Z" id="Path" stroke="url(#linearGradient-14)" stroke-width="2" fill-rule="nonzero" transform="translate(212.000000, 37.500000) scale(-1, 1) translate(-212.000000, -37.500000) "></path>
        <path d="M1108,84 L1092.8838,84 C1089.89459,84 1087.47183,80.97825 1087.47183,77.25 C1087.47183,73.52175 1085.04907,70.5 1082.05986,70.5 L1060.41197,70.5 C1057.42276,70.5 1055,67.47825 1055,63.75 C1055,60.02175 1057.42276,57 1060.41197,57 L1103.70775,57 C1104.51737,57 1105.28544,57.221672 1105.97507,57.619014 C1107.21278,58.3321378 1107.88775,67.1257999 1108,84 Z" id="Path" stroke="url(#linearGradient-15)" stroke-width="2" fill-rule="nonzero" transform="translate(1081.500000, 70.500000) scale(-1, 1) translate(-1081.500000, -70.500000) "></path>
        <path d="M78,45.25 C78,46.7689167 77.0207292,48 75.8125,48 L58.3125,48 C57.1042708,48 56.125,46.7689167 56.125,45.25 C56.125,43.7310833 55.1457292,42.5 53.9375,42.5 L45.1875,42.5 C43.9792708,42.5 43,41.2689167 43,39.75 C43,38.2310833 43.9792708,37 45.1875,37 L62.6875,37 C63.8957292,37 64.875,38.2310833 64.875,39.75 C64.875,41.2689167 65.8542708,42.5 67.0625,42.5 L75.8125,42.5 C77.0207292,42.5 78,43.7310833 78,45.25 Z" id="Path" stroke="url(#linearGradient-16)" stroke-width="2" fill-rule="nonzero" transform="translate(60.500000, 42.500000) scale(-1, 1) translate(-60.500000, -42.500000) "></path>
        <path d="M999,42 L964.526914,42 C961.542166,42 959.123025,38.9747158 959.123025,35.2421052 C959.123025,31.5094946 956.703884,28.4842104 953.719136,28.4842104 L936.575763,28.4842104 C934.585931,28.4842104 937.753728,27.1448078 946.079155,24.4660027 C949.152685,23.432533 952.382596,22.9454775 955.768887,23.0048362 C960.241071,23.0048362 970.676167,23.7354195 975.148351,24.4660027 C984.589629,27.8753911 992.540178,33.7200568 999,42 Z" id="Path" stroke="url(#linearGradient-17)" stroke-width="2" fill-rule="nonzero" transform="translate(967.500000, 32.500000) scale(-1, 1) translate(-967.500000, -32.500000) "></path>
        <path d="M1140.58065,174 L1116.65323,174 C1113.68221,174 1111.27419,170.97825 1111.27419,167.25 C1111.27419,163.52175 1108.86618,160.5 1105.89516,160.5 L1084.37903,160.5 C1081.40801,160.5 1079,157.47825 1079,153.75 C1079,150.02175 1081.40801,147 1084.37903,147 L1127.41129,147 C1130.38231,147 1132.79032,150.02175 1132.79032,153.75 C1132.79032,157.47825 1135.19834,160.5 1138.16935,160.5 L1148,160.5 C1146.88164,163.556545 1145.8924,165.867356 1145.03226,167.432432 C1144.17212,168.997509 1142.68825,171.186699 1140.58065,174 Z" id="Path" stroke="url(#linearGradient-18)" stroke-width="2" fill-rule="nonzero"></path>
        <path d="M1023,129 L984.823529,129 C980.892216,129 977.705882,124.859083 977.705882,119.75 C977.705882,114.640917 974.519549,110.5 970.588235,110.5 L942.117647,110.5 C938.186333,110.5 935,106.359083 935,101.25 C935,96.1409167 938.186333,92 942.117647,92 L999.058824,92 C1002.99014,92 1006.17647,96.1409167 1006.17647,101.25 C1006.17647,106.359083 1009.3628,110.5 1013.29412,110.5 L1023,110.5 L1023,129 Z" id="Path" stroke="url(#linearGradient-19)" stroke-width="2" fill-rule="nonzero"></path>
        <path d="M1151,106 C1151,115.389667 1145.17459,123 1137.98718,123 L1122,123 L1122,89 L1137.98718,89 C1145.17459,89 1151,96.6103333 1151,106 Z" id="Path" stroke="url(#linearGradient-20)" stroke-width="2" fill-rule="nonzero" transform="translate(1136.500000, 106.000000) scale(-1, 1) translate(-1136.500000, -106.000000) "></path>
        <path d="M866.706998,192 C863.706509,192 848.723917,192 840.481671,188.25 C836.735196,186 838.233786,188.25 830.740836,182.25 C825.745535,178.25 822.49859,174.5 821,171 L851.908421,171 C854.908911,171 857.34081,174.105687 857.34081,177.9375 C857.34081,181.769312 859.77271,184.875 862.773199,184.875 L884.502756,184.875 C885.354789,184.875 886.160972,185.12543 886.878642,185.571802 C888.688294,186.697361 869.707488,192 866.706998,192 Z" id="Path" stroke="url(#linearGradient-21)" stroke-width="2" fill-rule="nonzero" transform="translate(854.000000, 181.500000) scale(-1, 1) translate(-854.000000, -181.500000) "></path>
        <path d="M382,92 L339.297131,92 C335.486258,92 332.397541,88.97825 332.397541,85.25 C332.397541,81.52175 329.308824,78.5 325.497951,78.5 L297.89959,78.5 C294.088717,78.5 291,75.47825 291,71.75 C291,68.02175 294.088717,65 297.89959,65 L353.096311,65 C356.907185,65 359.995902,68.02175 359.995902,71.75 C359.995902,75.47825 363.084618,78.5 366.895492,78.5 L382,78.5 L382,92 Z" id="Path" stroke="url(#linearGradient-22)" stroke-width="2" fill-rule="nonzero"></path>
        <path d="M117.981768,135 C120.987797,135 123.424187,138.133667 123.424187,142 C123.424187,143.675536 124.282791,145.659401 126,147.951596 L122.977,160.238 L123,160.244304 C122.979219,160.296431 122.958554,160.348224 122.938006,160.399682 L122.298169,163 L121.8792,163.00219 C121.391539,164.172037 121.010422,165.034675 120.735849,165.590105 C119.88665,167.307937 119.131933,168.835309 118.471698,170.17222 L118.471698,170.17222 L112.433962,177.809079 L88.4716981,178 C85.4494969,178 83,174.837641 83,170.935906 C83,167.034171 85.4494969,163.871812 88.4716981,163.871812 L88.4716981,163.871812 L96.0188679,163.680891 C99.0410692,163.680891 101.490566,160.518531 101.490566,156.616797 C101.490566,156.485144 101.546552,156.374567 101.658524,156.285066 C101.656006,156.191007 101.654512,156.095728 101.654512,156 C101.654512,152.133667 99.2181227,149 96.2120934,149 L74.4424187,149 C71.4363894,149 69,145.866333 69,142 C69,138.133667 71.4363894,135 74.4424187,135 L117.981768,135 Z" id="Combined-Shape" stroke="url(#linearGradient-23)" stroke-width="2" fill-rule="nonzero"></path>
        <path d="M126,116 L122.730769,116 C117.623203,116 113.483516,110.739917 113.483516,104.25 C113.483516,97.7600833 109.34383,92.5 104.236264,92.5 L67.2472527,92.5 C62.1396868,92.5 58,87.2399167 58,80.75 C58,74.2600833 62.1396868,69 67.2472527,69 L126,69 L126,116 Z" id="Path" stroke="url(#linearGradient-24)" stroke-width="2" fill-rule="nonzero"></path>
        <path d="M191,104 C191,110.628 186.845094,116 181.71875,116 L158,116 L158,92 L181.71875,92 C186.845094,92 191,97.372 191,104 Z" id="Path" stroke="url(#linearGradient-25)" stroke-width="2" fill-rule="nonzero"></path>
        <path d="M254,149 L249.394737,149 C246.444114,149 244.052632,145.866333 244.052632,142 C244.052632,138.133667 241.661149,135 238.710526,135 L217.342105,135 C214.391482,135 212,131.866333 212,128 C212,124.133667 214.391482,121 217.342105,121 L254,121 L254,149 Z" id="Path" stroke="url(#linearGradient-26)" stroke-width="2" fill-rule="nonzero" transform="translate(233.000000, 135.000000) scale(1, -1) translate(-233.000000, -135.000000) "></path>
        <path d="M328,149 L324.0625,149 C321.059188,149 318.625,145.866333 318.625,142 C318.625,138.133667 316.190812,135 313.1875,135 L291.4375,135 C288.434188,135 286,131.866333 286,128 C286,124.133667 288.434188,121 291.4375,121 L328,121 L328,149 Z" id="Path" stroke="url(#linearGradient-27)" stroke-width="2" fill-rule="nonzero" transform="translate(307.000000, 135.000000) scale(-1, -1) translate(-307.000000, -135.000000) "></path>
        <path d="M575,146.900231 L575,142.054022 C594.747547,125.052314 608.055285,114.880364 614.923215,111.538174 C625.225111,106.524889 640.287612,102.106521 637.707595,111.538174 C635.987584,117.825943 625.460828,138.745814 606.127329,174.297788 L606.115196,174.321899 L599.737673,187 C584.56789,179.309715 575.013546,163.822123 575,146.900231 Z" id="Path" stroke="#FFFFFF" stroke-width="3" fill="#1D1D1B" fill-rule="nonzero" transform="translate(606.500000, 146.500000) scale(-1, 1) translate(-606.500000, -146.500000) "></path>
        <path d="M594.253004,157 L598.650564,157 C600.499354,157.002272 601.997463,158.344088 602,160 L602,163 C601.997463,164.655912 600.499354,165.997728 598.650564,166 L589,166 L594.253004,157 Z" id="Path" stroke="#FFFFFF" stroke-width="3" fill-rule="nonzero" transform="translate(595.500000, 161.500000) scale(-1, 1) translate(-595.500000, -161.500000) "></path>
        <path d="M721.823629,23 L716.176583,23 C693.782515,23 675.147262,40.5035714 671.60727,63.3827009 C671.653272,63.5041322 671,69.6485268 671,71.2857143 L671,143.714286 C671.028221,170.369339 691.237973,191.970064 716.176583,192 L721.823629,192 C746.762239,191.970064 766.971991,170.369339 767,143.714286 L767,71.2857143 C766.971991,44.6306606 746.762239,23.0299364 721.823629,23 Z" id="Shape" stroke="#FFFFFF" stroke-width="3" fill-rule="nonzero" transform="translate(719.000000, 107.500000) scale(-1, 1) translate(-719.000000, -107.500000) "></path>
        <path d="M849.823629,23 L844.176583,23 C821.782515,23 803.147262,40.5035714 799.60727,63.3827009 C799.653272,63.5041322 799,69.6485268 799,71.2857143 L799,143.714286 C799.028221,170.369339 819.237973,191.970064 844.176583,192 L849.823629,192 C874.762239,191.970064 894.971991,170.369339 895,143.714286 L895,71.2857143 C894.971991,44.6306606 874.762239,23.0299364 849.823629,23 Z" id="Shape" stroke="#FFFFFF" stroke-width="3" fill-rule="nonzero" transform="translate(847.000000, 107.500000) scale(-1, 1) translate(-847.000000, -107.500000) "></path>
        <path d="M977.823629,23 L972.176583,23 C949.782515,23 931.147262,40.5035714 927.60727,63.3827009 C927.653272,63.5041322 927,69.6485268 927,71.2857143 L927,143.714286 C927.028221,170.369339 947.237973,191.970064 972.176583,192 L977.823629,192 C1002.76224,191.970064 1022.97199,170.369339 1023,143.714286 L1023,71.2857143 C1022.97199,44.6306606 1002.76224,23.0299364 977.823629,23 Z" id="Shape" stroke="#FFFFFF" stroke-width="3" fill-rule="nonzero" transform="translate(975.000000, 107.500000) scale(-1, 1) translate(-975.000000, -107.500000) "></path>
        <path d="M1105.82363,23 L1100.17658,23 C1077.78251,23 1059.14726,40.5035714 1055.60727,63.3827009 C1055.65327,63.5041322 1055,69.6485268 1055,71.2857143 L1055,143.714286 C1055.02822,170.369339 1075.23797,191.970064 1100.17658,192 L1105.82363,192 C1130.76224,191.970064 1150.97199,170.369339 1151,143.714286 L1151,71.2857143 C1150.97199,44.6306606 1130.76224,23.0299364 1105.82363,23 Z" id="Shape" stroke="#FFFFFF" stroke-width="3" fill-rule="nonzero" transform="translate(1103.000000, 107.500000) scale(-1, 1) translate(-1103.000000, -107.500000) "></path>
        <path d="M80.8236294,23 L75.1765831,23 C52.782515,23 34.1472621,40.5035714 30.6072699,63.3827009 C30.6532722,63.5041322 30,69.6485268 30,71.2857143 L30,143.714286 C30.0282212,170.369339 50.2379733,191.970064 75.1765831,192 L80.8236294,192 C105.762239,191.970064 125.971991,170.369339 126,143.714286 L126,71.2857143 C125.971991,44.6306606 105.762239,23.0299364 80.8236294,23 Z" id="Shape" stroke="#FFFFFF" stroke-width="3" fill-rule="nonzero" transform="translate(78.000000, 107.500000) scale(-1, 1) translate(-78.000000, -107.500000) "></path>
        <path d="M208.823629,23 L203.176583,23 C180.782515,23 162.147262,40.5035714 158.60727,63.3827009 C158.653272,63.5041322 158,69.6485268 158,71.2857143 L158,143.714286 C158.028221,170.369339 178.237973,191.970064 203.176583,192 L208.823629,192 C233.762239,191.970064 253.971991,170.369339 254,143.714286 L254,71.2857143 C253.971991,44.6306606 233.762239,23.0299364 208.823629,23 Z" id="Shape" stroke="#FFFFFF" stroke-width="3" fill-rule="nonzero" transform="translate(206.000000, 107.500000) scale(-1, 1) translate(-206.000000, -107.500000) "></path>
        <path d="M336.823629,23 L331.176583,23 C308.782515,23 290.147262,40.5035714 286.60727,63.3827009 C286.653272,63.5041322 286,69.6485268 286,71.2857143 L286,143.714286 C286.028221,170.369339 306.237973,191.970064 331.176583,192 L336.823629,192 C361.762239,191.970064 381.971991,170.369339 382,143.714286 L382,71.2857143 C381.971991,44.6306606 361.762239,23.0299364 336.823629,23 Z" id="Shape" stroke="#FFFFFF" stroke-width="3" fill-rule="nonzero" transform="translate(334.000000, 107.500000) scale(-1, 1) translate(-334.000000, -107.500000) "></path>
        <path d="M464.823629,23 L459.176583,23 C436.782515,23 418.147262,40.5035714 414.60727,63.3827009 C414.653272,63.5041322 414,69.6485268 414,71.2857143 L414,143.714286 C414.028221,170.369339 434.237973,191.970064 459.176583,192 L464.823629,192 C489.762239,191.970064 509.971991,170.369339 510,143.714286 L510,71.2857143 C509.971991,44.6306606 489.762239,23.0299364 464.823629,23 Z" id="Shape" stroke="#FFFFFF" stroke-width="3" fill-rule="nonzero" transform="translate(462.000000, 107.500000) scale(-1, 1) translate(-462.000000, -107.500000) "></path>
        <path d="M592.823629,23 L587.176583,23 C564.782515,23 546.147262,40.5035714 542.60727,63.3827009 C542.653272,63.5041322 542,69.6485268 542,71.2857143 L542,143.714286 C542.028221,170.369339 562.237973,191.970064 587.176583,192 L592.823629,192 C617.762239,191.970064 637.971991,170.369339 638,143.714286 L638,71.2857143 C637.971991,44.6306606 617.762239,23.0299364 592.823629,23 Z" id="Path" stroke="#FFFFFF" stroke-width="3" fill-rule="nonzero" transform="translate(590.000000, 107.500000) scale(-1, 1) translate(-590.000000, -107.500000) "></path>
    </g>
</svg>