<?xml version="1.0" encoding="UTF-8"?>
<svg width="276px" height="167px" viewBox="0 0 276 167" version="1.1" xmlns="http://www.w3.org/2000/svg" xmlns:xlink="http://www.w3.org/1999/xlink">
    <title>skateboard</title>
    <defs>
        <linearGradient x1="50%" y1="0%" x2="50%" y2="100%" id="linearGradient-1">
            <stop stop-color="#00B8FF" offset="0%"></stop>
            <stop stop-color="#00FFF9" offset="100%"></stop>
        </linearGradient>
    </defs>
    <g id="skateboard" stroke="none" stroke-width="1" fill="none" fill-rule="evenodd">
        <g id="Group-2" transform="translate(138.000000, 83.500000) rotate(45.000000) translate(-138.000000, -83.500000) translate(16.000000, -39.000000)">
            <path d="M121.856071,-9.68926554 C144.025467,-9.68926554 161.997314,8.28258109 161.997314,30.4519774 L161.997314,214.548023 C161.997314,236.717419 144.025467,254.689266 121.856071,254.689266 C99.6866748,254.689266 81.7148282,236.717419 81.7148282,214.548023 L81.7148282,30.4519774 C81.7148282,8.28258109 99.6866748,-9.68926554 121.856071,-9.68926554 Z" id="Rectangle" stroke="url(#linearGradient-1)" stroke-width="2" transform="translate(121.856071, 122.500000) rotate(45.000000) translate(-121.856071, -122.500000) "></path>
            <g id="Group" transform="translate(79.159380, 166.074639) scale(-1, -1) translate(-79.159380, -166.074639) translate(36.659380, 123.574639)" stroke-width="2">
                <polygon id="Rectangle" stroke="#FFFFFF" stroke-linejoin="round" transform="translate(41.548296, 43.601513) rotate(45.000000) translate(-41.548296, -43.601513) " points="32.5321673 30.637437 50.5644253 30.637437 46.8586952 56.5655883 34.8508006 56.5655883"></polygon>
                <polygon id="Rectangle" stroke="#FFFFFF" fill="#202124" transform="translate(42.203489, 42.554184) rotate(45.000000) translate(-42.203489, -42.554184) " points="8.91316669 37.6993456 75.4938119 37.6993456 75.4938119 47.409023 8.91316669 47.409023"></polygon>
                <path d="M2.05277266,11.4681263 L11.4532696,2.06595855 C14.2138131,-0.68865285 18.6832471,-0.68865285 21.4437906,2.06595855 L23.6925304,4.31303843 C26.4489697,7.07282717 26.4489697,11.5437801 23.6925304,14.3035688 L14.2887094,23.7107228 C12.9644747,25.0360266 11.1677859,25.7806644 9.29427991,25.7806644 C7.42077394,25.7806644 5.62408516,25.0360266 4.29985042,23.7107228 L3.19293194,22.6038032 L2.06939306,21.4819253 C0.744396995,20.1571892 -4.95259747e-13,18.3603046 -4.95259747e-13,16.4866601 C-4.95259747e-13,14.6130156 0.744396995,12.8161311 2.06939306,11.4913949 L2.05277266,11.4681263 Z" id="Path" stroke="#FF00C1" fill="#202124"></path>
                <path d="M82.7032521,73.3143462 L73.3010932,82.7131899 C70.5403636,85.4657822 66.0729638,85.4657822 63.3122342,82.7131899 L62.21695,81.6195667 L62.2036537,81.6012843 L62.1853713,81.5863259 L61.0634944,80.464448 C59.7385994,79.1399956 58.9942439,77.3433862 58.9942439,75.4700138 C58.9942439,73.5966414 59.7385994,71.800032 61.0634944,70.4755796 L70.4656534,61.0734118 C71.7903883,59.7484145 73.5872711,59.0040168 75.4609139,59.0040168 C77.3345566,59.0040168 79.1314395,59.7484145 80.4561744,61.0734118 L82.7032521,63.3221537 C84.0281471,64.6466061 84.7725027,66.4432155 84.7725027,68.3165879 C84.7725027,70.1899603 84.0281471,71.9865697 82.7032521,73.3110221 L82.7032521,73.3143462 Z" id="Path" stroke="#FF00C1" fill="#202124"></path>
            </g>
            <g id="Group" transform="translate(120.512193, 36.307612)" stroke-width="2">
                <polygon id="Rectangle" stroke="#FFFFFF" stroke-linejoin="round" transform="translate(41.548296, 43.601513) rotate(45.000000) translate(-41.548296, -43.601513) " points="32.5321673 30.637437 50.5644253 30.637437 46.8586952 56.5655883 34.8508006 56.5655883"></polygon>
                <polygon id="Rectangle" stroke="#FFFFFF" fill="#202124" transform="translate(42.203489, 42.554184) rotate(45.000000) translate(-42.203489, -42.554184) " points="8.91316669 37.6993456 75.4938119 37.6993456 75.4938119 47.409023 8.91316669 47.409023"></polygon>
                <path d="M2.05277266,11.4681263 L11.4532696,2.06595855 C14.2138131,-0.68865285 18.6832471,-0.68865285 21.4437906,2.06595855 L23.6925304,4.31303843 C26.4489697,7.07282717 26.4489697,11.5437801 23.6925304,14.3035688 L14.2887094,23.7107228 C12.9644747,25.0360266 11.1677859,25.7806644 9.29427991,25.7806644 C7.42077394,25.7806644 5.62408516,25.0360266 4.29985042,23.7107228 L3.19293194,22.6038032 L2.06939306,21.4819253 C0.744396995,20.1571892 -4.95259747e-13,18.3603046 -4.95259747e-13,16.4866601 C-4.95259747e-13,14.6130156 0.744396995,12.8161311 2.06939306,11.4913949 L2.05277266,11.4681263 Z" id="Path" stroke="#FF00C1" fill="#202124"></path>
                <path d="M82.7032521,73.3143462 L73.3010932,82.7131899 C70.5403636,85.4657822 66.0729638,85.4657822 63.3122342,82.7131899 L62.21695,81.6195667 L62.2036537,81.6012843 L62.1853713,81.5863259 L61.0634944,80.464448 C59.7385994,79.1399956 58.9942439,77.3433862 58.9942439,75.4700138 C58.9942439,73.5966414 59.7385994,71.800032 61.0634944,70.4755796 L70.4656534,61.0734118 C71.7903883,59.7484145 73.5872711,59.0040168 75.4609139,59.0040168 C77.3345566,59.0040168 79.1314395,59.7484145 80.4561744,61.0734118 L82.7032521,63.3221537 C84.0281471,64.6466061 84.7725027,66.4432155 84.7725027,68.3165879 C84.7725027,70.1899603 84.0281471,71.9865697 82.7032521,73.3110221 L82.7032521,73.3143462 Z" id="Path" stroke="#FF00C1" fill="#202124"></path>
            </g>
            <path d="M116.910039,141.83037 C117.9285,141.83037 119.016401,140.825088 120.173743,138.814524 C120.312624,138.584307 120.51323,138.238982 120.775561,137.778547 C121.037892,137.318113 121.261644,136.926744 121.446819,136.60444 C121.631994,136.282136 121.824884,135.906114 122.02549,135.476375 L122.02549,135.476375 L121.261644,134.900832 C122.712179,131.815922 125.428075,127.058101 129.409331,120.627367 C129.748817,120.090194 130.277337,119.345825 130.994889,118.394261 C131.712441,117.442696 132.20624,116.729023 132.476286,116.253241 C132.746333,115.777459 132.881356,115.240285 132.881356,114.641721 C132.881356,114.564982 132.869783,114.480569 132.846636,114.388482 C132.823489,114.296395 132.796484,114.208145 132.765622,114.123732 C132.734759,114.039319 132.696181,113.928047 132.649888,113.789917 L132.649888,113.789917 L131.932336,111.671919 C131.716299,111.011963 131.542697,110.547692 131.411532,110.279105 C131.280366,110.010518 130.971742,109.738095 130.485658,109.461834 C129.999575,109.185573 129.239587,108.974541 128.205695,108.828737 C127.171803,108.682933 125.759846,108.610031 123.969824,108.610031 C121.547122,108.610031 118.484024,108.924661 114.78053,109.553921 C112.573865,109.922268 110.84171,110.417235 109.584066,111.038822 C108.326421,111.660408 107.392832,112.462331 106.783298,113.444591 C106.173765,114.426851 105.722402,115.731415 105.429208,117.358283 C105.274896,118.233109 105.19774,118.800978 105.19774,119.06189 C105.19774,119.460934 105.263323,119.756379 105.394488,119.948227 C105.525654,120.140074 105.787984,120.270531 106.181481,120.339596 C106.574977,120.408661 107.211515,120.443194 108.091095,120.443194 C109.202143,120.443194 110.151163,120.447031 110.938155,120.454704 C111.725148,120.462378 112.118644,120.389476 112.118644,120.235998 C112.118644,119.929042 111.215917,119.652781 109.410464,119.407216 C109.132702,119.376521 108.905092,119.349662 108.727633,119.32664 C108.550174,119.303619 108.422866,119.272923 108.34571,119.234553 C108.268554,119.196184 108.229976,119.123282 108.229976,119.015847 C108.229976,118.724239 109.206001,118.267641 111.15805,117.646055 C113.1101,117.024468 115.401637,116.475784 118.032661,116.000002 C120.663684,115.52422 123.051666,115.286329 125.196606,115.286329 C127.063784,115.286329 128.676347,115.38609 130.034295,115.585611 C127.673318,118.547739 125.551525,121.364062 123.668915,124.034582 C121.786306,126.705101 120.223894,129.095523 118.981681,131.205847 C117.739467,133.316171 116.82131,135.09268 116.227207,136.535374 C115.633105,137.978069 115.336054,139.113807 115.336054,139.942589 C115.336054,140.525806 115.490367,140.98624 115.798991,141.323892 C116.107615,141.661544 116.477965,141.83037 116.910039,141.83037 Z" id="T" fill="#FFFFFF" fill-rule="nonzero" transform="translate(119.039548, 125.220200) rotate(-45.000000) translate(-119.039548, -125.220200) "></path>
        </g>
    </g>
</svg>