<!--?xml version="1.0" encoding="UTF-8"?-->
<svg width="1000px" height="654px" viewBox="0 0 1000 654" version="1.1" xmlns="http://www.w3.org/2000/svg" xmlns:xlink="http://www.w3.org/1999/xlink" style="">
    <g id="Artboard" stroke="none" stroke-width="1" fill="none" fill-rule="evenodd">
        <path id="Rectangle" stroke="#FFFFFF" width="64" height="64" d="M 67,379 L 123,379 A 4,4,0,0,1,127,383 L 127,439 A 4,4,0,0,1,123,443 L 67,443 A 4,4,0,0,1,63,439 L 63,383 A 4,4,0,0,1,67,379" class="cCCgiVwX_0"></path>
        <path id="Rectangle" stroke="#FFFFFF" width="64" height="64" d="M 143,379 L 199,379 A 4,4,0,0,1,203,383 L 203,439 A 4,4,0,0,1,199,443 L 143,443 A 4,4,0,0,1,139,439 L 139,383 A 4,4,0,0,1,143,379" class="cCCgiVwX_1"></path>
        <path id="Rectangle" stroke="#FFFFFF" width="64" height="64" d="M 218,379 L 274,379 A 4,4,0,0,1,278,383 L 278,439 A 4,4,0,0,1,274,443 L 218,443 A 4,4,0,0,1,214,439 L 214,383 A 4,4,0,0,1,218,379" class="cCCgiVwX_2"></path>
        <path id="Rectangle" stroke="#FFFFFF" width="64" height="64" d="M 143,304 L 199,304 A 4,4,0,0,1,203,308 L 203,364 A 4,4,0,0,1,199,368 L 143,368 A 4,4,0,0,1,139,364 L 139,308 A 4,4,0,0,1,143,304" class="cCCgiVwX_3"></path>
        <g class="shortDelayAnimated animatedFadeInUp fadeIn">
        <text id="W" font-family="AvenirNext-Regular, Avenir Next" font-size="20" font-weight="normal" fill="#FFFFFF">
            <tspan x="160.78" y="342">W</tspan>
        </text>
        <text id="A" font-family="AvenirNext-Regular, Avenir Next" font-size="20" font-weight="normal" fill="#FFFFFF">
            <tspan x="87.5" y="417">A</tspan>
        </text>
        <text id="S" font-family="AvenirNext-Regular, Avenir Next" font-size="20" font-weight="normal" fill="#FFFFFF">
            <tspan x="165.36" y="417">S</tspan>
        </text>
        <text id="D" font-family="AvenirNext-Regular, Avenir Next" font-size="20" font-weight="normal" fill="#FFFFFF">
            <tspan x="238.43" y="417">D</tspan>
        </text>
        <text id="O" font-family="AvenirNext-Regular, Avenir Next" font-size="20" font-weight="normal" fill="#FFFFFF">
            <tspan x="806.5" y="342">O</tspan>
        </text>
        <text id="P" font-family="AvenirNext-Regular, Avenir Next" font-size="20" font-weight="normal" fill="#FFFFFF">
            <tspan x="884.2" y="342">P</tspan>
        </text>
        <text id="L" font-family="AvenirNext-Regular, Avenir Next" font-size="20" font-weight="normal" fill="#FFFFFF">
            <tspan x="847.4" y="417">L</tspan>
        </text>
        <text id="Move" font-family="AvenirNext-Regular, Avenir Next" font-size="12" font-weight="normal" fill="#FFFFFF">
            <tspan x="177" y="479">Move</tspan>
        </text>
        <text id="Restart" font-family="AvenirNext-Regular, Avenir Next" font-size="12" font-weight="normal" fill="#FFFFFF">
            <tspan x="858" y="479">Restart</tspan>
        </text>
        <text id="Dash" font-family="AvenirNext-Regular, Avenir Next" font-size="12" font-weight="normal" fill="#FFFFFF">
            <tspan x="782.184" y="274">Dash</tspan>
        </text>
        <text id="Punch" font-family="AvenirNext-Regular, Avenir Next" font-size="12" font-weight="normal" fill="#FFFFFF">
            <tspan x="895" y="274">Punch</tspan>
        </text>
        </g>

        <text id="Click-to-enter" class="delayAnimated animatedFadeInUp fadeInUp" font-family="AvenirNext-Regular, Avenir Next" font-size="24" font-weight="normal" fill="#94999D">
            <tspan x="427.256" y="163">Click to enter</tspan>
        </text>
        <text id="I'm-Tony-Chan,-a-mul" class="animated animatedFadeInUp fadeInUp" font-family="AvenirNext-DemiBold, Avenir Next" font-size="30" font-weight="500" fill="#FFFFFF">
            <tspan x="197.265" y="126"> I'm Tony Chan, a multidisciplinary designer</tspan>
        </text>
        <path d="M171,452 L171,488 C200.333333,488 215,488 215,488" id="Line-5" stroke="#979797" stroke-linecap="square" class="cCCgiVwX_4"></path>
        <path id="Rectangle" stroke="#FFFFFF" width="64" height="64" d="M 825,379 L 881,379 A 4,4,0,0,1,885,383 L 885,439 A 4,4,0,0,1,881,443 L 825,443 A 4,4,0,0,1,821,439 L 821,383 A 4,4,0,0,1,825,379" class="cCCgiVwX_5"></path>
        <path id="Rectangle" stroke="#FFFFFF" width="64" height="64" d="M 787,304 L 843,304 A 4,4,0,0,1,847,308 L 847,364 A 4,4,0,0,1,843,368 L 787,368 A 4,4,0,0,1,783,364 L 783,308 A 4,4,0,0,1,787,304" class="cCCgiVwX_6"></path>
        <path id="Rectangle" stroke="#FFFFFF" width="64" height="64" d="M 862,304 L 918,304 A 4,4,0,0,1,922,308 L 922,364 A 4,4,0,0,1,918,368 L 862,368 A 4,4,0,0,1,858,364 L 858,308 A 4,4,0,0,1,862,304" class="cCCgiVwX_7"></path>
        <path d="M853,452 L853,488 C887,488 904,488 904,488" id="Line-5" stroke="#979797" stroke-linecap="square" class="cCCgiVwX_8"></path>
        <path id="Line-6" stroke="#979797" stroke-linecap="square" d="M815,296L815,260L775,260" class="cCCgiVwX_9"></path>
        <path id="Line-6" stroke="#979797" stroke-linecap="square" transform="translate(913.000000, 278.000000) scale(-1, 1) translate(-913.000000, -278.000000) " d="M936,296L936,260L890,260" class="cCCgiVwX_10"></path>

    </g>
<style data-made-with="vivus-instant">.cCCgiVwX_0{stroke-dasharray:250 252;stroke-dashoffset:251;animation:cCCgiVwX_draw 2000ms ease-in-out 0ms forwards;}.cCCgiVwX_1{stroke-dasharray:250 252;stroke-dashoffset:251;animation:cCCgiVwX_draw 2000ms ease-in-out 83ms forwards;}.cCCgiVwX_2{stroke-dasharray:250 252;stroke-dashoffset:251;animation:cCCgiVwX_draw 2000ms ease-in-out 166ms forwards;}.cCCgiVwX_3{stroke-dasharray:250 252;stroke-dashoffset:251;animation:cCCgiVwX_draw 2000ms ease-in-out 250ms forwards;}.cCCgiVwX_4{stroke-dasharray:80 82;stroke-dashoffset:81;animation:cCCgiVwX_draw 2000ms ease-in-out 333ms forwards;}.cCCgiVwX_5{stroke-dasharray:250 252;stroke-dashoffset:251;animation:cCCgiVwX_draw 2000ms ease-in-out 416ms forwards;}.cCCgiVwX_6{stroke-dasharray:250 252;stroke-dashoffset:251;animation:cCCgiVwX_draw 2000ms ease-in-out 500ms forwards;}.cCCgiVwX_7{stroke-dasharray:250 252;stroke-dashoffset:251;animation:cCCgiVwX_draw 2000ms ease-in-out 583ms forwards;}.cCCgiVwX_8{stroke-dasharray:87 89;stroke-dashoffset:88;animation:cCCgiVwX_draw 2000ms ease-in-out 666ms forwards;}.cCCgiVwX_9{stroke-dasharray:76 78;stroke-dashoffset:77;animation:cCCgiVwX_draw 2000ms ease-in-out 750ms forwards;}.cCCgiVwX_10{stroke-dasharray:82 84;stroke-dashoffset:83;animation:cCCgiVwX_draw 2000ms ease-in-out 833ms forwards;}.cCCgiVwX_11{stroke-dasharray:21 23;stroke-dashoffset:22;animation:cCCgiVwX_draw 1000ms ease-in-out 700ms forwards;animation-delay: 3s;}.cCCgiVwX_12{stroke-dasharray:21 23;stroke-dashoffset:22;animation:cCCgiVwX_draw 1000ms ease-in-out 700ms forwards;animation-delay: 3s;}@keyframes cCCgiVwX_draw{100%{stroke-dashoffset:0;}}@keyframes cCCgiVwX_fade{0%{stroke-opacity:1;}94.44444444444444%{stroke-opacity:1;}100%{stroke-opacity:0;}}
@keyframes fadeInUp {
    from {
        transform: translateY(20px);
    }

    to {
        transform: translateY(0px);
        opacity: 1;
    }
}

@-webkit-keyframes fadeInUp {
    from {
    }

    to {
        opacity: 1;
    }
}

@keyframes fadeIn {
    from {
        opacity: 0;
    }

    to {
        opacity: 1;
    }
}

@-webkit-keyframes fadeIn {
    from {
        opacity: 0;
    }

    to {
        opacity: 1;
    }
}

.animated {
    animation-duration: 400ms;
    animation-fill-mode: both;
    -webkit-animation-duration: 1s;
    -webkit-animation-fill-mode: both;
}
.shortDelayAnimated {
    animation-duration: 400ms;
    animation-delay: 2s;
    animation-fill-mode: both;
    -webkit-animation-duration: 1s;
    -webkit-animation-fill-mode: both;
}
.delayAnimated {
    animation-duration: 400ms;
    animation-delay: 2.5s;
    animation-fill-mode: both;
    -webkit-animation-duration: 1s;
    -webkit-animation-fill-mode: both;
}
.delayAnimated2 {
    animation-duration: 400ms;
    animation-delay: 3s;
    animation-fill-mode: both;
    -webkit-animation-duration: 1s;
    -webkit-animation-fill-mode: both;
}

.animatedFadeInUp {
    opacity: 0
}

.fadeInUp {
    opacity: 0;
    animation-name: fadeInUp;
    -webkit-animation-name: fadeInUp;
}
.fadeIn {
    opacity: 0;
    animation-name: fadeIn;
    -webkit-animation-name: fadeIn;
}

</style></svg>