<?xml version="1.0" encoding="UTF-8"?>
<svg width="161px" height="167px" viewBox="0 0 161 167" version="1.1" xmlns="http://www.w3.org/2000/svg" xmlns:xlink="http://www.w3.org/1999/xlink">
    <title>volleyball</title>
    <g id="volleyball" stroke="none" stroke-width="1" fill="none" fill-rule="evenodd">
        <path d="M136.917985,91.7833174 C136.575287,91.534638 136.231521,91.2913412 135.884552,91.0512744 C134.453972,90.0597866 133.004176,89.1049014 131.511675,88.2339853 C130.669341,87.731244 129.805655,87.2704878 128.927023,86.803272 C128.190381,86.4189495 127.450537,86.0572342 126.692543,85.6890595 C125.874764,85.2993544 125.054849,84.9333329 124.318208,84.6243677 L124.289382,84.6114493 L124.258422,84.5985309 C123.626405,84.3250914 122.968765,84.0516517 122.321801,83.7932836 C121.254204,83.3809711 120.187675,82.993419 119.181999,82.6715356 C118.489128,82.4239327 117.795191,82.212932 117.118334,82.0094672 L116.837556,81.9233445 C116.267459,81.7629408 115.692025,81.6014609 115.034385,81.4389042 C114.544358,81.3021846 114.07248,81.174077 113.722309,81.1148676 C113.098832,80.9555406 112.476423,80.820974 111.809175,80.6734889 C110.934813,80.490478 110.073263,80.3300746 109.05691,80.1750537 C109.02168,80.1750537 108.977908,80.1750537 108.925596,80.1599821 C108.374716,80.0695532 107.832377,79.9834305 107.333809,79.9242214 C106.568342,79.806879 105.781523,79.7142972 105.013921,79.6443223 C103.997569,79.5538938 103.002569,79.4828424 102.02465,79.4408575 C100.357064,79.3353574 98.6905449,79.3159796 97.0261614,79.3536584 C96.9279427,79.3536584 96.8297235,79.3536584 96.73364,79.3536584 C95.1130278,79.3967197 93.4998892,79.516215 91.8910206,79.6906134 C91.7618415,79.7035318 91.630527,79.712144 91.5013479,79.7282921 C89.9159666,79.9091498 88.3401934,80.1556759 86.7718937,80.4527993 L86.3085568,80.5410752 C84.7840285,80.8349688 83.2712438,81.1902251 81.7702025,81.6068435 C81.6687807,81.6326803 81.5684268,81.6509813 81.4680725,81.6768181 C80.9748429,81.1826893 80.4912213,80.6842541 80.0161408,80.1804363 C79.719349,79.8628588 79.4129487,79.5538938 79.1236298,79.234163 C78.225781,78.2351397 77.3556895,77.2188918 76.5283018,76.1757307 C76.252862,75.8409286 75.9977063,75.5147391 75.7115903,75.1045795 C75.2407802,74.478037 74.7902544,73.8525709 74.3557424,73.2464824 C73.8571746,72.5359701 73.3607422,71.80608 72.8771209,71.0105218 C72.2653877,70.0513301 71.6963586,69.0964446 71.1454786,68.1135694 C70.6447758,67.2318881 70.1643571,66.3232936 69.7159664,65.3974746 C69.2675757,64.4716556 68.819185,63.5060048 68.4038899,62.5769561 C68.0697322,61.8190764 67.7590614,61.0342833 67.4377148,60.1956634 C67.2850484,59.8296419 67.1494636,59.4614675 67,59.0782212 C67.6426934,58.7100468 68.2992656,58.377398 68.9526346,58.0329072 C69.5472862,57.7185593 70.1355322,57.3848337 70.7387243,57.0920165 C71.4828392,56.7324544 72.2408329,56.4170298 72.9956239,56.088687 C73.596681,55.8260128 74.1913324,55.5418079 74.8019978,55.2995879 C75.5685325,54.9927758 76.3521484,54.7354842 77.1304267,54.4620444 C77.7421597,54.2413551 78.3474869,54.0077473 78.9666933,53.7999764 C79.7513768,53.5534502 80.5499392,53.3596739 81.3431638,53.1389845 C81.9687754,52.9688923 82.586914,52.7751162 83.2189314,52.6276309 C84.0110884,52.438161 84.8149887,52.3014414 85.6135512,52.1464205 C86.2690558,52.0204661 86.8968024,51.8708279 87.5437663,51.7653274 C88.3380583,51.6372198 89.1398236,51.5618626 89.9490619,51.4671276 C90.605634,51.3885407 91.2611384,51.2819638 91.934792,51.2249076 C92.750436,51.1549327 93.5703504,51.1387849 94.3902648,51.1011062 C95.0457694,51.0709632 95.7012737,51.013907 96.3578459,51.0042183 C97.8332649,50.9869937 99.312954,51.0225193 100.797981,51.1107949 C102.63318,51.2206015 104.449162,51.4165305 106.249131,51.687817 L106.336674,51.687817 C108.109952,51.9601802 109.862946,52.3079004 111.594588,52.7309781 L111.758998,52.7686569 C113.468221,53.1895817 115.151821,53.6880169 116.814069,54.2521206 L117.032927,54.3231717 C118.67062,54.8872754 120.279489,55.5267365 121.862735,56.2275598 L122.136039,56.342749 C123.693663,57.0435726 125.220327,57.8100646 126.71603,58.6422251 C126.821722,58.7014346 126.934887,58.7541846 127.033106,58.8112409 C128.502119,59.6380188 129.93697,60.5336949 131.336589,61.4810446 C131.45616,61.5628615 131.581069,61.6403719 131.701707,61.7221882 C133.074637,62.667385 134.408065,63.6771735 135.70733,64.7375595 C135.838645,64.8462893 135.97423,64.9474836 136.102341,65.0551367 C137.374917,66.1133695 138.605856,67.227582 139.795159,68.3977743 C139.889108,68.490356 139.986259,68.5786319 140.078072,68.6712137 C141.368797,73.7287695 142.014693,78.9327336 142,84.154999 C142,87.7915299 141.68267,91.4205253 141.052788,95 L141.035706,94.9870819 C139.707616,93.8556448 138.32401,92.7995653 136.917985,91.7833174 L136.917985,91.7833174 Z" id="Path" stroke="#FFFFFF" stroke-width="1.5" fill-rule="nonzero"></path>
        <path d="M136.991463,60 C136.939172,59.9591336 136.879411,59.922459 136.824986,59.8826404 C135.68526,59.0234005 134.519923,58.205027 133.327906,57.4275196 C133.092064,57.2724375 132.854087,57.1204986 132.613977,56.9675121 C131.400617,56.1931483 130.168049,55.4481244 128.89813,54.7554933 C128.793548,54.6978613 128.679362,54.6454687 128.579049,54.5878367 C127.367824,53.9308325 126.133121,53.3199339 124.883478,52.7404709 C124.66471,52.639877 124.445943,52.525661 124.228242,52.4355458 C122.938047,51.8634176 121.626509,51.3258689 120.293627,50.823947 C120.022569,50.723353 119.751511,50.6259027 119.478318,50.5274044 C118.116623,50.038057 116.744257,49.579097 115.350547,49.177769 C115.273712,49.1547164 115.194742,49.1369027 115.117907,49.1159459 C113.770085,48.7334792 112.406256,48.4034055 111.031755,48.1047671 C110.762831,48.0450395 110.496041,47.9821683 110.224983,47.9287277 C108.834475,47.6426637 107.432228,47.4027054 106.018243,47.2099003 C105.733311,47.169034 105.447313,47.1365504 105.163448,47.1009235 C103.692903,46.9165013 102.212754,46.7635146 100.724067,46.6713035 C99.4039916,46.5916666 98.0881848,46.5518483 96.7777137,46.5528961 C96.63258,46.5528961 96.490648,46.5665181 96.3401784,46.568614 C95.752174,46.568614 95.168438,46.6021453 94.5921722,46.6220543 C93.6978932,46.6524422 92.8057481,46.6859736 91.9168048,46.7509403 C91.260502,46.8001895 90.6052665,46.8662044 89.9500311,46.9353626 C89.1325873,47.0191908 88.3194123,47.1155934 87.5083715,47.2319052 C86.8349942,47.3262118 86.162684,47.4289016 85.4935755,47.547309 C84.691072,47.6845779 83.8939043,47.8448994 83.0892663,48.012556 C82.4340309,48.1519207 81.7777281,48.2849979 81.1374327,48.442176 C80.2805041,48.6559381 79.4353142,48.8906573 78.5890573,49.1327115 C78.0213287,49.2940809 77.4482645,49.4418281 76.8848046,49.6199634 C75.5508558,50.0401525 74.2307803,50.5022559 72.9245778,51.0062733 C72.7058103,51.0942933 72.4763711,51.1906956 72.2512005,51.2808111 C71.0421095,51.7659673 69.8468915,52.2815112 68.6602108,52.8368735 C68.2237429,53.0516834 67.7862076,53.2790678 67.3486726,53.4980691 C66.6731608,53.8323344 65.989112,54.141451 65.3232049,54.5123913 L65.2506381,54.2682415 C65.0169302,53.46349 64.7917599,52.6461643 64.5954026,51.7554887 C64.4598734,51.2472798 64.3382174,50.7191616 64.2304341,50.1711342 C64.0639574,49.3904834 63.9198911,48.6108804 63.7928991,47.8113681 C63.6883174,47.1931347 63.6050792,46.574901 63.5218406,45.9503803 L63.4546096,45.3939703 C63.3521623,44.6175106 63.268924,43.8190464 63.2048945,42.9996248 C63.201693,42.940945 63.1942231,42.883313 63.1835513,42.8256813 L63.1835513,42.7869107 C63.1419321,42.2252613 63.1024473,41.6437025 63.0789696,40.9992725 C63.0192087,40.0142903 63,39.029308 63,38.0443257 C63,36.9000697 63.0373506,35.7589573 63.1024473,34.6105098 C63.1248575,34.2228039 63.1675439,33.8340504 63.1984914,33.4452967 C63.2571852,32.699225 63.3148119,31.9437225 63.4023188,31.2049858 C63.4546096,30.7460261 63.5261093,30.289162 63.5922733,29.8312498 C63.6861832,29.1574802 63.7800932,28.4879017 63.8953464,27.8183233 C63.9785846,27.3446935 64.0767633,26.8742074 64.1717403,26.4026731 C64.2581804,25.9730533 64.3552919,25.5287635 64.4513361,25.0928564 L64.6583648,25.0415117 C94.2805618,17.2842521 125.182282,32.213021 137,59.9895216 L136.991463,60 Z" id="Path" stroke="#FFFFFF" stroke-width="1.5" fill-rule="nonzero"></path>
        <path d="M60.3737759,26.0245849 C60.3532063,26.135751 60.340215,26.2426416 60.3196455,26.3612901 C60.1356027,27.4034726 59.9807901,28.4520686 59.8476296,29.5049405 C59.8032428,29.8555414 59.7653516,30.2050732 59.7285431,30.5556742 C59.6354389,31.4140052 59.5607392,32.273405 59.5066088,33.133874 C59.4817091,33.4780614 59.4557266,33.8222487 59.435157,34.1653675 C59.3647877,35.3347498 59.3225661,36.5030634 59.3225661,37.6767213 C59.3225661,38.7712803 59.3463835,39.8658393 59.4135049,40.9037464 C59.435157,41.5493652 59.4795438,42.194984 59.5217654,42.7112653 C59.5239305,42.8363272 59.5336742,42.9603202 59.5509958,43.0843132 C59.6213651,43.9971582 59.714469,44.8875562 59.8259775,45.7309227 L59.8941817,46.2974423 C59.9872859,47.0029198 60.0803898,47.6859504 60.1940633,48.3529473 C60.3315542,49.2283808 60.4906972,50.0888495 60.6682445,50.916182 C60.7905788,51.5361473 60.9367306,52.1796282 61.0807171,52.7001851 C61.3243032,53.8086398 61.6415068,54.9887113 62.071301,56.3932529 C62.2531787,57.0174936 62.4350564,57.6417343 62.6569904,58.2456657 C62.6786425,58.3290402 62.7035425,58.410277 62.7306075,58.4883073 L62.7306075,58.5086163 L62.8431985,58.8324947 C62.9124852,59.0355868 62.9785241,59.2354719 63.0315717,59.3626717 C63.291397,60.1087674 63.5501397,60.8292097 63.829452,61.4833798 C64.1553161,62.3331595 64.495254,63.1775946 64.8828269,64.020961 C65.3266949,65.0075604 65.7922153,65.9909533 66.2848008,66.9625884 C66.7763035,67.9352921 67.3024498,68.9325806 67.8545784,69.8828373 C68.4521765,70.927158 69.0714267,71.9479626 69.710164,72.9238731 C70.2222362,73.7533436 70.7830256,74.561436 71.3589719,75.3641836 C71.8342354,76.0215604 72.3062514,76.6607659 72.7717718,77.2668353 C73.0911404,77.7050863 73.4061783,78.1102015 73.727712,78.4928695 C74.6143659,79.5874285 75.5454064,80.6488514 76.5100078,81.6995853 C76.8337069,82.0501862 77.1747273,82.3847535 77.5049221,82.7310791 C78.0018381,83.2494981 78.4857624,83.7775372 79,84.2852673 C78.8159572,84.9704355 78.6427404,85.655604 78.4294669,86.3386342 C78.2086155,87.0569386 77.9866814,87.796621 77.7474257,88.4839272 C77.343614,89.6682743 76.8932502,90.8312432 76.4169039,91.9867298 C76.0823786,92.8183382 75.7186233,93.6499464 75.3083161,94.4954505 C74.8319697,95.5023592 74.3307234,96.5049925 73.8760292,97.3932528 L73.4992825,98.0634565 C73.2221356,98.5604974 72.9471537,99.0554006 72.6234549,99.5823708 C71.9576526,100.722893 71.2572069,101.820658 70.5437699,102.866048 C70.0999019,103.490289 69.6744378,104.114529 69.1796872,104.791146 C69.0400312,104.979274 68.9047056,105.156712 68.6340542,105.489141 C68.288703,105.968011 67.9054609,106.469328 67.4150407,107.054019 C67.2093456,107.334072 66.9711724,107.594885 66.6918604,107.929452 L66.632317,108 C66.0358015,107.653674 65.4598554,107.27742 64.8763311,106.905441 C64.2559983,106.518497 63.6237568,106.145449 63.0185807,105.738196 C62.3776784,105.301014 61.7638411,104.837109 61.1402604,104.381755 C60.5643144,103.958469 59.9721292,103.554423 59.4113396,103.111896 C58.7942547,102.627682 58.2096478,102.109263 57.6131322,101.603671 C57.0783253,101.150455 56.5305269,100.714342 56.0141243,100.244023 C55.4262695,99.7095704 54.8719756,99.1494643 54.3068558,98.5850823 C53.8196832,98.1051436 53.3141065,97.6412388 52.8410081,97.1463356 C52.2823837,96.5595067 51.7616506,95.9384725 51.2279263,95.3291966 C50.784058,94.8278801 50.3271987,94.3447349 49.8974045,93.8273848 C49.3582669,93.1710768 48.8591859,92.4837706 48.3449483,91.805016 C47.9660366,91.3036992 47.566555,90.8173475 47.2027996,90.3053418 C46.6582494,89.5325232 46.1570031,88.7265688 45.6514263,87.9302344 C45.3634532,87.4791562 45.0505803,87.0441117 44.7647725,86.5812758 C43.9972054,85.3103475 43.2740251,84.0084207 42.5963143,82.6765649 C42.171933,81.8417499 41.768121,80.9994523 41.3848789,80.1496728 C41.2484705,79.8461037 41.1283012,79.5371899 40.995141,79.2304142 C40.7580504,78.6831347 40.5166293,78.1358552 40.2968604,77.5821622 C40.1485435,77.2101831 40.0175483,76.8317908 39.8778923,76.456605 C39.6938493,75.9649085 39.5011457,75.4764189 39.3300939,74.9793777 C39.1882725,74.5699872 39.0637731,74.1541831 38.9306126,73.7405167 C38.7801304,73.2766117 38.6231527,72.8116381 38.4878271,72.3434574 C38.3611624,71.9062752 38.2658931,71.4851264 38.137063,71.0543575 C38.0082329,70.6225201 37.8804853,70.1415126 37.7646468,69.6818834 C37.6498905,69.222254 37.5632821,68.7861407 37.4636824,68.3393384 C37.3630001,67.8936047 37.2547396,67.4468024 37.1659661,66.9957242 C37.0771923,66.5446463 37.0024926,66.0828793 36.9223797,65.6253878 C36.8422671,65.1678963 36.7556586,64.7339207 36.6896198,64.2881872 C36.6224981,63.841385 36.5651201,63.3635842 36.5055767,62.9018171 C36.4460334,62.4400501 36.3832424,62.0135568 36.3345252,61.5667545 C36.2858078,61.119952 36.252247,60.6186355 36.2121906,60.1461792 C36.1775473,59.7079282 36.1331605,59.2707457 36.1060955,58.8324947 C36.0779476,58.3525563 36.0638738,57.8715487 36.0465521,57.3916103 C36.0313958,56.9544282 36.0086608,56.5161768 36,56.0789947 C36,55.5969183 36,55.1127043 36,54.631697 C36,54.1934457 36,53.7562635 36.0129913,53.3329771 C36.0292304,52.8412806 36.0595434,52.350653 36.0887738,51.8578878 C36.1104259,51.4356701 36.126665,51.0155904 36.159143,50.5944416 C36.1970343,50.0931251 36.2500819,49.5939462 36.3009644,49.0947674 C36.3431861,48.6811013 36.378912,48.2674349 36.4276292,47.8537684 C36.4893376,47.3524519 36.5672852,46.8511354 36.6495632,46.3519566 C36.7112716,45.9425658 36.7643195,45.5310373 36.8336062,45.1237845 C36.9180493,44.62033 37.0198143,44.1190135 37.1172487,43.617697 C37.1973616,43.2157886 37.2698962,42.8106735 37.3565046,42.407696 C37.4658477,41.9021038 37.5914299,41.3986494 37.7137643,40.8951952 C37.7917118,40.5713168 37.8685769,40.2378184 37.95302,39.9224912 C44.3209045,33.7367363 51.9716759,28.9865215 60.3781063,26 L60.3737759,26.0245849 Z" id="Path" stroke="#FFFFFF" stroke-width="1.5" fill-rule="nonzero"></path>
        <path d="M20.0004357,84.3583782 C19.9519628,70.8490824 24.3176737,57.7066131 32.4115728,47 C32.4115728,47.0858074 32.398928,47.1705422 32.3873366,47.2542045 C32.203983,48.6753888 32.0722636,50.110517 31.9816404,51.5274109 C31.9626729,51.8105752 31.9500279,52.0937394 31.9342215,52.3769037 C31.8615124,53.8399192 31.8225235,55.3029346 31.8435986,56.7702404 L31.8435986,57.0008477 C31.8720498,58.4284674 31.9521355,59.8571599 32.0596185,61.2804895 C32.0785862,61.5153872 32.0943924,61.75243 32.1175751,61.9873277 C32.2492945,63.4203106 32.4326482,64.8436402 32.6570982,66.2669695 C32.6981944,66.5276094 32.7456137,66.7871765 32.790925,67.0488892 C33.0396116,68.5076143 33.3220179,69.9609762 33.6697575,71.4046851 L33.6887253,71.4819118 C34.0322496,72.9052411 34.4358382,74.3156996 34.8742006,75.7186499 C34.9490171,75.9632008 35.0227801,76.2066793 35.1007579,76.4480124 C35.5454431,77.8155672 36.0343858,79.1713235 36.5675862,80.5142086 C36.6676931,80.7673403 36.7836063,81.0193995 36.8784442,81.2703859 C37.4464188,82.6518843 38.0460058,84.024802 38.7109259,85.370905 C39.4085121,86.7888715 40.1545716,88.1735878 40.9491034,89.5271989 C41.2072736,89.9669615 41.4991639,90.3927805 41.7689254,90.8293255 C42.3210938,91.7260123 42.8669392,92.6248445 43.4591502,93.488281 C43.8037282,93.9934719 44.1820266,94.4697027 44.5381962,94.9641675 C45.0945794,95.7310709 45.6404248,96.5011918 46.2273668,97.2402075 C46.6351704,97.7539792 47.0735329,98.2387907 47.4939815,98.7396912 C48.0724935,99.4229323 48.644683,100.114754 49.2505927,100.774398 C49.7089764,101.273153 50.1915967,101.745094 50.664733,102.228833 C51.2748578,102.852009 51.8797136,103.482693 52.5140748,104.082272 C53.0167163,104.556358 53.5435942,105.002556 54.0609884,105.461625 C54.7090481,106.031172 55.3434093,106.603936 56.0041144,107.148812 C56.5457448,107.588575 57.1084506,108.007958 57.6658874,108.433778 C58.3455599,108.951839 59.0210176,109.473119 59.7217653,109.971874 C60.3002772,110.378387 60.8956492,110.760229 61.4899676,111.148508 C61.9926091,111.478866 62.4783908,111.831749 63,112.150309 C62.8840867,112.273657 62.7839798,112.39486 62.6554217,112.517135 C61.2929151,113.944755 59.851377,115.29193 58.3392375,116.553299 C57.9071974,116.924415 57.4751576,117.275153 57.003075,117.651633 C56.5710349,118.000225 56.1400488,118.352035 55.6089558,118.749967 C55.3265492,118.968776 55.0241212,119.188657 54.6637368,119.441789 C53.9724729,119.959851 53.2611876,120.456461 52.5203972,120.930546 C51.6247048,121.52369 50.7290121,122.097526 49.7943305,122.648839 C48.8016926,123.230183 47.7921945,123.779351 46.7732125,124.304921 C46.4412793,124.476535 46.097755,124.627771 45.7616068,124.79295 C45.0661279,125.135107 44.3695953,125.472973 43.6614713,125.787243 C43.2578827,125.965293 42.8500791,126.128327 42.4422755,126.296724 C41.7952695,126.571308 41.1303495,126.843746 40.4654294,127.094732 C40.0333896,127.256694 39.6024032,127.406857 39.159826,127.560237 C38.7172483,127.713618 38.2967998,127.8552 37.8647598,128 L37.6856214,127.805861 C26.3103262,116.320546 19.939318,100.668212 20.0004357,84.3583782 L20.0004357,84.3583782 Z" id="Path" stroke="#FFFFFF" stroke-width="1.5" fill-rule="nonzero"></path>
        <path d="M41.0238892,130.910741 C42.6744251,130.326067 44.2934705,129.656505 45.8951416,128.954048 C46.294745,128.775781 46.6932626,128.594331 47.0906944,128.408636 C48.6836785,127.66798 50.258203,126.888062 51.7860346,126.01901 C52.8197913,125.434337 53.8133705,124.825258 54.7722013,124.215118 C55.5931258,123.707906 56.4205656,123.15825 57.1589632,122.626632 C57.5585666,122.35711 57.9614275,122.085465 58.2546149,121.849897 C58.772579,121.48063 59.2959728,121.090141 59.7563854,120.725118 C60.2721777,120.333567 60.7662526,119.942017 61.2255795,119.557894 C62.895661,118.220891 64.4886453,116.794756 65.9958452,115.284792 C66.4410557,114.850797 66.8971248,114.383907 67.2370048,114.007212 C67.5779706,113.631578 67.9493413,113.287777 68.2935649,112.903655 C68.3315707,112.862271 68.3674046,112.820888 68.3999811,112.777382 L68.3999811,112.764649 C68.8451913,112.277598 69.2784571,111.773569 69.6661157,111.313046 C69.9994806,110.938473 70.3013551,110.589367 70.5022426,110.317722 C70.9822009,109.750027 71.4404419,109.161109 71.7401445,108.735603 C71.9627496,108.476691 72.1451772,108.240063 72.4481375,107.844268 C72.8922619,107.224578 73.3526745,106.581544 73.8217742,105.919409 C74.6046928,104.769163 75.3637222,103.597694 76.0456541,102.426226 C76.3746755,101.894608 76.6841509,101.351318 76.9914546,100.803784 L77.3932297,100.090716 C77.9166234,99.0911477 78.441103,98.0480739 78.933006,97.0134888 C79.3771304,96.1030537 79.7734761,95.1904966 80.1383314,94.2991618 C80.6476088,93.0841876 81.1297388,91.8458687 81.567348,90.5789001 C81.8214438,89.8371821 82.0766251,89.057264 82.2970586,88.3102405 C82.5196637,87.6141504 82.7238092,86.9021439 82.9181813,86.1869536 C83.5208441,86.0256645 84.1256786,85.8749866 84.7326849,85.7349194 C85.3288324,85.5937915 85.9217224,85.4431136 86.5113547,85.3200245 C87.3561683,85.1460019 88.2085831,85.0112405 89.0599121,84.8722347 C89.6289126,84.7788567 90.1946557,84.6695623 90.7658279,84.5910398 C91.7127142,84.4637063 92.6650299,84.3745728 93.6173459,84.2918058 C94.0973042,84.2483003 94.5750909,84.1825114 95.0583069,84.1506779 C96.4949247,84.0530555 97.9337141,84.0031831 99.3768474,84 C100.399745,84 101.398754,84.0222833 102.4564,84.084889 C103.423918,84.1262725 104.37189,84.1920614 105.348095,84.273767 C106.0398,84.3353117 106.748879,84.4180784 107.504651,84.526312 C108.032388,84.5889175 108.561211,84.6716844 109.239885,84.7714292 C109.277891,84.7714292 109.324583,84.7831012 109.377791,84.7873456 C109.581937,84.8202402 109.793683,84.8658681 110,84.8998237 C110,85.5980359 109.951136,86.2909428 109.921817,86.9859716 C109.893584,87.6820617 109.882725,88.3834572 109.828431,89.0774252 C109.768708,89.8530988 109.66012,90.6202835 109.571078,91.3917124 C109.488551,92.082497 109.430999,92.7754036 109.326755,93.4598214 C109.208394,94.2270061 109.044427,94.9814575 108.896747,95.7443977 C108.766442,96.4224487 108.656768,97.1047443 108.503659,97.776429 C108.327747,98.5414913 108.105141,99.2970037 107.900996,100.04721 C107.722912,100.698734 107.569803,101.351318 107.368916,102.002842 C107.131108,102.776393 106.842264,103.524478 106.572966,104.295907 C106.350361,104.910291 106.161418,105.532103 105.923611,106.137999 C105.615221,106.933833 105.256881,107.707385 104.907228,108.487303 C104.660734,109.046509 104.4403,109.615266 104.175346,110.167044 C103.752939,111.037157 103.286011,111.906208 102.81474,112.758282 C102.581276,113.192277 102.369529,113.637945 102.125207,114.061329 C101.391152,115.342092 100.60932,116.597389 99.7797082,117.82828 C98.7307494,119.379627 97.6188094,120.875796 96.4438883,122.317848 C96.0725179,122.772004 95.6566262,123.1869 95.2711392,123.621956 C94.4415277,124.582263 93.6216891,125.551059 92.7366981,126.446639 C92.244795,126.948545 91.7061991,127.402702 91.1990936,127.88763 C90.3694822,128.680281 89.5539871,129.488849 88.6820263,130.232689 C88.1086822,130.722924 87.4919031,131.160102 86.9033569,131.626992 C86.0465982,132.307165 85.2039562,133.005378 84.3146217,133.637801 C83.665266,134.096201 82.9800763,134.506852 82.3133469,134.941909 C81.4229262,135.517032 80.5629101,136.115499 79.6442565,136.647117 C78.9308341,137.064135 78.1826637,137.420668 77.4540389,137.807975 C76.5440726,138.290781 75.6503942,138.796932 74.7165384,139.233049 C73.9423068,139.598072 73.1344129,139.900489 72.3449789,140.232618 C71.4176383,140.622046 70.5022426,141.036941 69.5520985,141.382864 C68.7224871,141.685281 67.8646426,141.924032 67.0187432,142.193554 C66.1739293,142.463077 65.2997969,142.762311 64.4191491,143 C55.8113876,140.675102 47.820405,136.553739 41,130.91923 L41.0238892,130.910741 Z" id="Path" stroke="#FFFFFF" stroke-width="1.5" fill-rule="nonzero"></path>
        <path d="M80.8852371,145 C78.2482981,145 75.6145564,144.833586 73,144.499705 C73.0724788,144.471268 73.1396278,144.434404 73.2185016,144.404913 C74.5284443,143.867754 75.822399,143.2832 77.0929049,142.663888 C77.3636336,142.532231 77.6322305,142.396362 77.9008274,142.260492 C79.1798601,141.613796 80.4439707,140.940768 81.6750398,140.216131 C81.789087,140.146616 81.8935412,140.072888 82.0161152,140.000214 C83.1832327,139.300855 84.3226376,138.563579 85.4449891,137.795758 L86.0759786,137.363925 C87.2271081,136.556081 88.3494593,135.709267 89.4419663,134.825589 C89.6604677,134.644429 89.8789693,134.458004 90.1145245,134.274738 C91.2251511,133.356302 92.3165924,132.409429 93.3685969,131.419373 C93.4186925,131.36987 93.4666561,131.31826 93.5199493,131.270864 C94.5367802,130.301873 95.5195036,129.289698 96.4755808,128.250138 C96.6546454,128.054234 96.8379734,127.862542 97.017038,127.663477 C97.9635222,126.612332 98.8780305,125.529589 99.7584315,124.415249 C99.9311008,124.199332 100.098441,123.983416 100.268979,123.750647 C101.166433,122.583644 102.039373,121.39347 102.860086,120.159059 C103.733026,118.865666 104.547343,117.544888 105.303038,116.198833 C105.549252,115.768053 105.759227,115.319367 105.99265,114.883321 C106.490407,113.959619 106.992428,113.036971 107.442221,112.092204 C107.696962,111.557152 107.913331,111.013674 108.151018,110.465984 C108.535794,109.602317 108.925899,108.739704 109.269106,107.858132 C109.500398,107.261992 109.706109,106.656372 109.908622,106.056019 C110.208129,105.211311 110.517229,104.369763 110.781562,103.511363 C110.978746,102.863613 111.139691,102.216916 111.314492,101.57022 C111.545784,100.732885 111.78134,99.8997625 111.968931,99.0550545 C112.122415,98.3862399 112.241791,97.708999 112.375024,97.0338647 C112.539166,96.1986359 112.709704,95.3665672 112.839739,94.5229127 C112.949523,93.8298729 113.024133,93.131567 113.108336,92.4322079 C113.211724,91.5980325 113.326837,90.7606977 113.38546,89.9191495 C113.445148,89.2124175 113.47286,88.5004194 113.508034,87.7905279 C113.538944,87.1933341 113.597566,86.6003533 113.610356,86 C113.713745,86.0284376 113.818199,86.0473963 113.922653,86.0758341 L114.141155,86.133763 C114.661295,86.2569934 115.178237,86.4012888 115.669599,86.5350519 L115.909418,86.606673 C116.522288,86.7878323 117.149014,86.9753109 117.842889,87.2143991 C118.821349,87.5230018 119.808336,87.862149 120.787862,88.247639 C121.379415,88.4761948 121.989087,88.7268686 122.597693,88.983862 C123.353388,89.2935181 124.108018,89.6305587 124.845593,89.9686524 C125.549061,90.3056929 126.251464,90.6416803 126.942141,90.9934662 C127.738339,91.4084475 128.533471,91.8223754 129.342459,92.2879125 C130.344368,92.862988 131.328158,93.4633414 132.295959,94.088973 C132.61252,94.2943569 132.918422,94.5208061 133.230719,94.7367229 C133.885157,95.1675027 134.518279,95.5993358 135.145005,96.0648732 C135.509529,96.3302926 135.863395,96.6104574 136.219392,96.8843029 C136.780035,97.3161362 137.338546,97.7479692 137.882135,98.1787491 C138.257318,98.4873521 138.621842,98.8064874 138.988498,99.1235161 C139.35622,99.4405448 139.66532,99.7164969 140,100.01878 L139.9563,100.174661 C132.804375,126.607066 108.574165,144.994734 80.8852371,145 L80.8852371,145 Z" id="Path" stroke="#FFFFFF" stroke-width="1.5" fill-rule="nonzero"></path>
    </g>
</svg>