<?xml version="1.0" encoding="UTF-8"?>
<svg width="1370px" height="486px" viewBox="0 0 1370 486" version="1.1" xmlns="http://www.w3.org/2000/svg" xmlns:xlink="http://www.w3.org/1999/xlink">
    <title>indexHeader</title>
    <g id="indexHeader" stroke="none" stroke-width="1" fill="none" fill-rule="evenodd">
        <g id="Intuit_Logo" transform="translate(229.000000, 48.000000)" fill="#365EBF" fill-rule="nonzero">
            <g id="Group">
                <path d="M612.248714,261.954385 L588.167124,261.954385 C583.274661,261.954385 579.52438,259.320897 579.157331,254.432744 L578.774324,245.007872 C561.456918,258.960333 540.7654,266.479692 518.943098,266.479692 C476.812285,266.479692 459.515397,239.761436 459.515397,199.070179 L459.515397,87.6855385 C459.515397,81.2798205 463.274797,79.0183077 469.275247,79.0183077 L495.622963,79.0183077 C501.64849,79.0183077 505.038562,80.8918718 505.038562,87.6855385 L505.038562,191.156026 C505.038562,211.877051 510.302634,226.178667 532.884111,226.178667 C547.157976,226.178667 565.229997,218.280487 576.517316,208.111667 L576.517316,87.6855385 C576.517316,81.2798205 579.909667,79.0183077 585.910116,79.0183077 L612.622602,79.0183077 C618.650409,79.0183077 622.04276,80.8918718 622.04276,87.6855385 L622.04276,251.418154 C622.0382,259.320897 619.765234,261.954385 612.248714,261.954385 Z" id="Path"></path>
                <path d="M0,86.5308205 C0,82.0237692 2.26156745,79.0091795 6.76874372,79.0091795 L38.5948341,79.0091795 C43.10657,79.0091795 45.7397458,81.6472308 45.7397458,86.5308205 L45.7397458,252.540923 C45.7397458,259.320897 42.7167232,261.954385 36.3355464,261.954385 L9.78492692,261.954385 C3.03442165,261.954385 0,259.320897 0,252.540923 L0,86.5308205 Z" id="Path"></path>
                <path d="M669.109353,86.5308205 C669.109353,82.0237692 671.382319,79.0091795 675.884936,79.0091795 L707.708747,79.0091795 C712.229602,79.0091795 714.862778,81.6472308 714.862778,86.5308205 L714.862778,252.540923 C714.862778,259.320897 711.848874,261.954385 705.444899,261.954385 L678.89428,261.954385 C672.141495,261.954385 669.109353,259.320897 669.109353,252.540923 L669.109353,86.5308205 Z" id="Path"></path>
                <path d="M247.404536,261.954385 L220.320442,261.954385 C213.551698,261.954385 211.29697,258.570103 211.29697,252.159821 L211.29697,149.725385 C211.29697,129.024897 205.66357,114.333051 182.701365,114.333051 C168.023975,114.333051 149.974751,122.256333 138.313544,132.409179 L138.313544,252.538641 C138.313544,258.958051 135.678089,261.952103 129.294632,261.952103 L101.820691,261.952103 C96.1758917,261.952103 92.7858203,258.958051 92.7858203,252.917462 L92.7858203,88.4682821 C92.7858203,82.4391026 95.4372346,79.0548205 102.199139,79.0548205 L126.640938,79.0548205 C131.90501,79.0548205 135.31104,80.5541282 135.675809,86.2022051 L136.047417,96.254641 C153.367103,82.3318462 175.187125,74.4291026 197.009427,74.4291026 C239.1448,74.4291026 256.446247,100.784513 256.446247,141.831769 L256.446247,252.159821 C256.443967,258.570103 254.193798,261.954385 247.404536,261.954385 Z" id="Path"></path>
                <g transform="translate(279.136320, 0.000000)" id="Path">
                    <path d="M102.350441,27.6242308 C102.350441,12.3687179 90.0052919,0 74.7625097,0 C59.5288467,0 47.1654593,12.3687179 47.1654593,27.6242308 C47.1654593,42.8797436 59.5311265,55.2347692 74.7625097,55.2347692 C90.0052919,55.2347692 102.350441,42.8797436 102.350441,27.6242308 Z"></path>
                    <path d="M141.615538,79.0091795 C146.127274,79.0091795 148.762729,80.5084872 148.762729,85.4103333 L148.762729,111.930051 C148.762729,116.446231 145.757945,119.084282 141.23481,119.084282 L97.6335225,119.084282 L97.6335225,252.538641 C97.6335225,259.318615 94.6264585,261.952103 87.8485955,261.952103 L61.6695844,261.952103 C54.8962811,261.952103 51.8937767,259.318615 51.8937767,252.538641 L51.8937767,119.084282 L8.28108982,119.084282 C3.76935394,119.084282 0.760010155,116.446231 0.760010155,111.930051 L0.760010155,85.4103333 C0.760010155,80.5084872 3.39090616,79.0091795 7.90948146,79.0091795 L141.615538,79.0091795 Z"></path>
                </g>
                <g transform="translate(746.496529, 0.000000)" id="Path">
                    <path d="M101.851163,27.6242308 C101.851163,12.3687179 89.4946154,0 74.254113,0 C59.0204499,0 46.663902,12.3687179 46.663902,27.6242308 C46.663902,42.8797436 59.0204499,55.2347692 74.254113,55.2347692 C89.4946154,55.2347692 101.851163,42.8797436 101.851163,27.6242308 Z"></path>
                    <path d="M141.113981,79.0091795 C145.616597,79.0091795 148.247493,80.5084872 148.247493,85.4103333 L148.247493,111.930051 C148.247493,116.446231 145.249549,119.084282 140.721854,119.084282 L97.1205661,119.084282 L97.1205661,252.538641 C97.1205661,259.318615 94.1226214,261.952103 87.3447584,261.952103 L61.1589079,261.952103 C54.3833247,261.952103 51.3831002,259.318615 51.3831002,252.538641 L51.3739809,119.084282 L7.78409213,119.084282 C3.26095723,119.084282 0.249333633,116.446231 0.249333633,111.930051 L0.249333633,85.4103333 C0.249333633,80.5084872 2.89162867,79.0091795 7.39196552,79.0091795 L141.113981,79.0091795 Z"></path>
                </g>
            </g>
            <path d="M899.534903,237 C906.322413,237 912,242.377023 912,249.431004 C912,256.608944 906.322413,262 899.534903,262 C892.717144,262 887,256.608944 887,249.431004 C887.002327,242.377023 892.719471,237 899.534903,237 Z M899.534903,260.166339 C905.293931,260.166339 909.745253,255.55646 909.745253,249.431004 C909.745253,243.452896 905.293931,238.833661 899.534903,238.833661 C893.713049,238.833661 889.254747,243.455234 889.254747,249.431004 C889.254747,255.558799 893.713049,260.166339 899.534903,260.166339 Z M894.681031,242.178221 L900.293466,242.178221 C903.755864,242.178221 905.389334,243.548788 905.389334,246.362429 C905.389334,248.988961 903.734922,250.109271 901.561616,250.33614 L905.724404,256.791374 L903.290488,256.791374 L899.337118,250.497521 L896.938105,250.497521 L896.938105,256.791374 L894.678704,256.791374 L894.678704,242.178221 L894.681031,242.178221 Z M896.938105,248.661521 L899.304542,248.661521 C901.301005,248.661521 903.125279,248.567967 903.125279,246.261858 C903.125279,244.318271 901.470867,244.023576 899.937453,244.023576 L896.940432,244.023576 L896.940432,248.661521 L896.938105,248.661521 Z" id="Shape"></path>
        </g>
        <text id="Project-Index" font-family="AvenirNext-DemiBold, Avenir Next" font-size="71" font-weight="500" letter-spacing="-0.468403032" fill="#989BA0">
            <tspan x="474.16012" y="415">Project Index</tspan>
        </text>
    </g>
</svg>