<?xml version="1.0" encoding="UTF-8"?>
<svg width="1928px" height="486px" viewBox="0 0 1928 486" version="1.1" xmlns="http://www.w3.org/2000/svg" xmlns:xlink="http://www.w3.org/1999/xlink">
    <title>prototypesHeader</title>
    <g id="prototypesHeader" stroke="none" stroke-width="1" fill="none" fill-rule="evenodd">
        <text id="PROTOTYPES" font-family="AvenirNext-Bold, Avenir Next" font-size="250" font-weight="bold" line-spacing="250" letter-spacing="-1.64930645" fill="#365EBF">
            <tspan x="151" y="407">PROTOTYPES</tspan>
        </text>
        <g id="Intuit_Logo" transform="translate(858.000000, 80.000000)" fill="#000000" fill-rule="nonzero">
            <g id="Group">
                <path d="M142.19955,60.828359 L136.606412,60.828359 C135.4701,60.828359 134.599068,60.2168376 134.513818,59.0817607 L134.424861,56.8932137 C130.402758,60.1331111 125.596991,61.8791795 120.528591,61.8791795 C110.743381,61.8791795 106.726043,55.6749402 106.726043,46.2260342 L106.726043,20.3614359 C106.726043,18.8739658 107.599193,18.3488205 108.992844,18.3488205 L115.112308,18.3488205 C116.511783,18.3488205 117.299154,18.7838803 117.299154,20.3614359 L117.299154,44.3882906 C117.299154,49.1999145 118.521776,52.5208889 123.7665,52.5208889 C127.081717,52.5208889 131.279085,50.6868547 133.900653,48.3255556 L133.900653,20.3614359 C133.900653,18.8739658 134.688554,18.3488205 136.082205,18.3488205 L142.286388,18.3488205 C143.686394,18.3488205 144.474294,18.7838803 144.474294,20.3614359 L144.474294,58.3817436 C144.473235,60.2168376 143.94532,60.828359 142.19955,60.828359 Z" id="Path"></path>
                <path d="M0,20.0932991 C0,19.0467179 0.52526672,18.3467009 1.57209364,18.3467009 L8.96395192,18.3467009 C10.0118379,18.3467009 10.6234135,18.9592821 10.6234135,20.0932991 L10.6234135,58.6424615 C10.6234135,60.2168376 9.92129288,60.828359 8.43921471,60.828359 L2.27262577,60.828359 C0.70476815,60.828359 0,60.2168376 0,58.6424615 L0,20.0932991 Z" id="Path"></path>
                <path d="M155.405878,20.0932991 C155.405878,19.0467179 155.933792,18.3467009 156.97956,18.3467009 L164.370889,18.3467009 C165.420893,18.3467009 166.032468,18.9592821 166.032468,20.0932991 L166.032468,58.6424615 C166.032468,60.2168376 165.332466,60.828359 163.845093,60.828359 L157.678504,60.828359 C156.110116,60.828359 155.405878,60.2168376 155.405878,58.6424615 L155.405878,20.0932991 Z" id="Path"></path>
                <path d="M57.4616376,60.828359 L51.171145,60.828359 C49.5990514,60.828359 49.0753732,60.0424957 49.0753732,58.5539658 L49.0753732,34.7676923 C49.0753732,29.9608376 47.7669719,26.5492479 42.4338203,26.5492479 C39.0248816,26.5492479 34.8328084,28.3891111 32.1244019,30.7467009 L32.1244019,58.6419316 C32.1244019,60.1325812 31.5122967,60.8278291 30.029689,60.8278291 L23.6486515,60.8278291 C22.3376027,60.8278291 21.5502321,60.1325812 21.5502321,58.7298974 L21.5502321,20.5431966 C21.5502321,19.1431624 22.1660438,18.3572991 23.7365489,18.3572991 L29.4133478,18.3572991 C30.6359697,18.3572991 31.4270468,18.705453 31.5117672,20.0169915 L31.5980761,22.351265 C35.6207085,19.1182564 40.6885792,17.2831624 45.7569795,17.2831624 C55.5432492,17.2831624 59.5616455,23.4031453 59.5616455,32.9347179 L59.5616455,58.5539658 C59.561116,60.0424957 59.0384968,60.828359 57.4616376,60.828359 Z" id="Path"></path>
                <path d="M88.6032824,6.41461538 C88.6032824,2.87213675 85.736025,0 82.1957697,0 C78.6576324,0 75.786139,2.87213675 75.786139,6.41461538 C75.786139,9.95709402 78.6581619,12.8260513 82.1957697,12.8260513 C85.736025,12.8260513 88.6032824,9.95709402 88.6032824,6.41461538 Z" id="Path"></path>
                <path d="M97.7229081,18.3467009 C98.770794,18.3467009 99.3828992,18.6948547 99.3828992,19.8331111 L99.3828992,25.9912479 C99.3828992,27.0399487 98.6850146,27.6525299 97.6344811,27.6525299 L87.5077412,27.6525299 L87.5077412,58.6419316 C87.5077412,60.2163077 86.8093271,60.8278291 85.2351154,60.8278291 L79.1548354,60.8278291 C77.5816828,60.8278291 76.8843277,60.2163077 76.8843277,58.6419316 L76.8843277,27.6525299 L66.7549402,27.6525299 C65.7070543,27.6525299 65.0081107,27.0399487 65.0081107,25.9912479 L65.0081107,19.8331111 C65.0081107,18.6948547 65.6191568,18.3467009 66.6686313,18.3467009 L97.7229081,18.3467009 Z" id="Path"></path>
                <path d="M197.035383,6.41461538 C197.035383,2.87213675 194.165479,0 190.625753,0 C187.087615,0 184.217711,2.87213675 184.217711,6.41461538 C184.217711,9.95709402 187.087615,12.8260513 190.625753,12.8260513 C194.165479,12.8260513 197.035383,9.95709402 197.035383,6.41461538 Z" id="Path"></path>
                <path d="M206.15448,18.3467009 C207.200248,18.3467009 207.811294,18.6948547 207.811294,19.8331111 L207.811294,25.9912479 C207.811294,27.0399487 207.114998,27.6525299 206.063405,27.6525299 L195.936665,27.6525299 L195.936665,58.6419316 C195.936665,60.2163077 195.240369,60.8278291 193.666157,60.8278291 L187.584289,60.8278291 C186.010607,60.8278291 185.313781,60.2163077 185.313781,58.6419316 L185.311663,27.6525299 L175.187571,27.6525299 C174.137037,27.6525299 173.437564,27.0399487 173.437564,25.9912479 L173.437564,19.8331111 C173.437564,18.6948547 174.051258,18.3467009 175.096496,18.3467009 L206.15448,18.3467009 Z" id="Path"></path>
            </g>
            <path d="M209.506981,55 C210.864483,55 212,56.0754046 212,57.4862008 C212,58.9217888 210.864483,60 209.506981,60 C208.143429,60 207,58.9217888 207,57.4862008 C207.000465,56.0754046 208.143894,55 209.506981,55 Z M209.506981,59.6332678 C210.658786,59.6332678 211.549051,58.711292 211.549051,57.4862008 C211.549051,56.2905791 210.658786,55.3667322 209.506981,55.3667322 C208.34261,55.3667322 207.450949,56.2910469 207.450949,57.4862008 C207.450949,58.7117598 208.34261,59.6332678 209.506981,59.6332678 Z M208.536206,56.0356441 L209.658693,56.0356441 C210.351173,56.0356441 210.677867,56.3097577 210.677867,56.8724857 C210.677867,57.3977921 210.346984,57.6218542 209.912323,57.667228 L210.744881,58.9582749 L210.258098,58.9582749 L209.467424,57.6995042 L208.987621,57.6995042 L208.987621,58.9582749 L208.535741,58.9582749 L208.535741,56.0356441 L208.536206,56.0356441 Z M208.987621,57.3323042 L209.460908,57.3323042 C209.860201,57.3323042 210.225056,57.3135934 210.225056,56.8523716 C210.225056,56.4636542 209.894173,56.4047151 209.587491,56.4047151 L208.988086,56.4047151 L208.988086,57.3323042 L208.987621,57.3323042 Z" id="Shape"></path>
        </g>
    </g>
</svg>