<?xml version="1.0" encoding="UTF-8"?>
<svg width="910px" height="333px" viewBox="0 0 910 333" version="1.1" xmlns="http://www.w3.org/2000/svg" xmlns:xlink="http://www.w3.org/1999/xlink">
    <title>skills</title>
    <g id="skills" stroke="none" stroke-width="1" fill="none" fill-rule="evenodd">
        <rect fill="#FFFFFF" x="0" y="0" width="910" height="333"></rect>
        <text id="Prototyping" font-family="AvenirNext-Medium, Avenir Next" font-size="14" font-weight="400" letter-spacing="-0.0923611613" fill="#000000">
            <tspan x="633.333986" y="266">Prototyping</tspan>
        </text>
        <text id="Research" font-family="AvenirNext-Medium, Avenir Next" font-size="14" font-weight="400" letter-spacing="-0.0923611613" fill="#000000">
            <tspan x="187.319445" y="266">Research</tspan>
        </text>
        <text id="Product-Design" font-family="AvenirNext-Medium, Avenir Next" font-size="14" font-weight="400" letter-spacing="-0.0923611613" fill="#000000">
            <tspan x="337.022264" y="266">Product </tspan>
            <tspan x="339.020083" y="285">Design</tspan>
        </text>
        <text id="Visual-Design" font-family="AvenirNext-Medium, Avenir Next" font-size="14" font-weight="400" letter-spacing="-0.0923611613" fill="#000000">
            <tspan x="92.8000835" y="266">Visual </tspan>
            <tspan x="89.0200835" y="285">Design</tspan>
        </text>
        <text id="Delivery" font-family="AvenirNext-Medium, Avenir Next" font-size="14" font-weight="400" letter-spacing="-0.0923611613" fill="#000000">
            <tspan x="773.797445" y="266">Delivery</tspan>
        </text>
        <text id="Motion-Design" font-family="AvenirNext-Medium, Avenir Next" font-size="14" font-weight="400" letter-spacing="-0.0923611613" fill="#000000">
            <tspan x="492.226083" y="266">Motion </tspan>
            <tspan x="492.520083" y="285">Design</tspan>
        </text>
        <path d="M111,190 C141.375661,190 166,165.375661 166,135 C166,104.624339 141.375661,80 111,80 C80.6243388,80 56,104.624339 56,135 C56,165.375661 80.6243388,190 111,190 Z" id="Oval" fill-opacity="0.3" fill="#FCFF59"></path>
        <path d="M800,190 C830.375661,190 855,165.375661 855,135 C855,104.624339 830.375661,80 800,80 C769.624339,80 745,104.624339 745,135 C745,165.375661 769.624339,190 800,190 Z" id="Oval" fill-opacity="0.3" fill="#4EFF98"></path>
        <path d="M216,203 C254.659932,203 286,171.659932 286,133 C286,94.3400675 254.659932,63 216,63 C177.340068,63 146,94.3400675 146,133 C146,171.659932 177.340068,203 216,203 Z" id="Oval" fill-opacity="0.3" fill="#FF4949"></path>
        <path d="M361,230 C413.467051,230 456,187.467051 456,135 C456,82.5329488 413.467051,40 361,40 C308.532949,40 266,82.5329488 266,135 C266,187.467051 308.532949,230 361,230 Z" id="Oval" fill-opacity="0.3" fill="#FF4ADF"></path>
        <path d="M670,230 C722.467051,230 765,187.467051 765,135 C765,82.5329488 722.467051,40 670,40 C617.532949,40 575,82.5329488 575,135 C575,187.467051 617.532949,230 670,230 Z" id="Oval" fill-opacity="0.3" fill="#4CF7FF"></path>
        <path d="M515,215 C559.18278,215 595,179.18278 595,135 C595,90.81722 559.18278,55 515,55 C470.81722,55 435,90.81722 435,135 C435,179.18278 470.81722,215 515,215 Z" id="Oval" fill-opacity="0.3" fill="#3B6AFF"></path>
        <path d="M111,190 C141.375661,190 166,165.375661 166,135 C166,104.624339 141.375661,80 111,80 C80.6243388,80 56,104.624339 56,135 C56,165.375661 80.6243388,190 111,190 Z" id="Oval" stroke="#000000" stroke-width="2" stroke-dasharray="5.01,2.0086"></path>
        <path d="M800,190 C830.375661,190 855,165.375661 855,135 C855,104.624339 830.375661,80 800,80 C769.624339,80 745,104.624339 745,135 C745,165.375661 769.624339,190 800,190 Z" id="Oval" stroke="#000000" stroke-width="2" stroke-dasharray="5.01,2.0086"></path>
        <path d="M216,203 C254.659932,203 286,171.659932 286,133 C286,94.3400675 254.659932,63 216,63 C177.340068,63 146,94.3400675 146,133 C146,171.659932 177.340068,203 216,203 Z" id="Oval" stroke="#000000" stroke-width="2" stroke-dasharray="5.01,2.0086"></path>
        <path d="M361,230 C413.467051,230 456,187.467051 456,135 C456,82.5329488 413.467051,40 361,40 C308.532949,40 266,82.5329488 266,135 C266,187.467051 308.532949,230 361,230 Z" id="Oval" stroke="#000000" stroke-width="2" stroke-dasharray="5.01,2.0086"></path>
        <path d="M670,230 C722.467051,230 765,187.467051 765,135 C765,82.5329488 722.467051,40 670,40 C617.532949,40 575,82.5329488 575,135 C575,187.467051 617.532949,230 670,230 Z" id="Oval" stroke="#000000" stroke-width="2" stroke-dasharray="5.01,2.0086"></path>
        <path d="M515,215 C559.18278,215 595,179.18278 595,135 C595,90.81722 559.18278,55 515,55 C470.81722,55 435,90.81722 435,135 C435,179.18278 470.81722,215 515,215 Z" id="Oval" stroke="#000000" stroke-width="2" stroke-dasharray="5.01,2.0086"></path>
        <path d="M670,40 C709.869977,40 744.00345,64.5608924 758.095671,99.3779295 C768.182522,87.5207353 783.21298,80 800,80 C830.375661,80 855,104.624339 855,135 C855,165.375661 830.375661,190 800,190 C783.21298,190 768.182522,182.479265 758.09418,170.623348 C744.00345,205.439108 709.869977,230 670,230 C632.004194,230 599.218255,207.693907 584.022999,175.462537 C570.130717,199.119328 544.419923,215 515,215 C485.967638,215 460.547325,199.534978 446.527612,176.393484 C431.147999,208.122669 398.628862,230 361,230 C321.956864,230 288.414767,206.447253 273.806811,172.774862 C261.17785,191.03626 240.086066,203 216.2,203 C190.114611,203 167.361763,188.731695 155.32025,167.573879 C145.308825,181.174419 129.185075,190 111,190 C80.6243388,190 56,165.375661 56,135 C56,104.624339 80.6243388,80 111,80 C128.432968,80 143.971592,88.1106521 154.048256,100.76434 C165.70834,78.3268777 189.164278,63 216.2,63 C240.779668,63 262.400419,75.6686337 274.888893,94.8325434 C290.018371,62.4423254 322.888342,40 361,40 C398.628862,40 431.147999,61.8773314 446.531847,93.6064287 C460.547325,70.4650221 485.967638,55 515,55 C544.419923,55 570.130717,70.8806719 584.027734,94.5373686 C599.218255,62.3060926 632.004194,40 670,40 Z" id="Combined-Shape" stroke="#000000" stroke-width="2"></path>
    </g>
</svg>