<?xml version="1.0" encoding="UTF-8"?>
<svg width="910px" height="333px" viewBox="0 0 910 333" version="1.1" xmlns="http://www.w3.org/2000/svg" xmlns:xlink="http://www.w3.org/1999/xlink">
    <title>skills</title>
    <g id="skills" stroke="none" stroke-width="1" fill="none" fill-rule="evenodd">
        <rect fill="#FFFFFF" x="0" y="0" width="910" height="333"></rect>
        <text id="Prototyping" font-family="AvenirNext-DemiBold, Avenir Next" font-size="16" font-weight="500" letter-spacing="-0.105555613" fill="#000000">
            <tspan x="627.576556" y="287">Prototyping</tspan>
        </text>
        <text id="Research" font-family="AvenirNext-DemiBold, Avenir Next" font-size="16" font-weight="500" letter-spacing="-0.105555613" fill="#000000">
            <tspan x="183.054222" y="287">Research</tspan>
        </text>
        <text id="Interaction" font-family="AvenirNext-DemiBold, Avenir Next" font-size="16" font-weight="500" letter-spacing="-0.105555613" fill="#000000">
            <tspan x="321.844556" y="287">Interaction</tspan>
        </text>
        <text id="Visual" font-family="AvenirNext-DemiBold, Avenir Next" font-size="16" font-weight="500" letter-spacing="-0.105555613" fill="#000000">
            <tspan x="89.8406668" y="287">Visual </tspan>
        </text>
        <text id="Delivery" font-family="AvenirNext-DemiBold, Avenir Next" font-size="16" font-weight="500" letter-spacing="-0.105555613" fill="#000000">
            <tspan x="770.218222" y="287">Delivery</tspan>
        </text>
        <text id="Motion" font-family="AvenirNext-DemiBold, Avenir Next" font-size="16" font-weight="500" letter-spacing="-0.105555613" fill="#000000">
            <tspan x="488.676667" y="287">Motion</tspan>
        </text>
        <path d="M111,191 C141.375661,191 166,166.375661 166,136 C166,105.624339 141.375661,81 111,81 C80.6243388,81 56,105.624339 56,136 C56,166.375661 80.6243388,191 111,191 Z" id="Oval" stroke="#6B6C72" stroke-width="2" stroke-dasharray="5.01,2.0086"></path>
        <path d="M800,191 C830.375661,191 855,166.375661 855,136 C855,105.624339 830.375661,81 800,81 C769.624339,81 745,105.624339 745,136 C745,166.375661 769.624339,191 800,191 Z" id="Oval" stroke="#6B6C72" stroke-width="2" stroke-dasharray="5.01,2.0086"></path>
        <path d="M216,204 C254.659932,204 286,172.659932 286,134 C286,95.3400675 254.659932,64 216,64 C177.340068,64 146,95.3400675 146,134 C146,172.659932 177.340068,204 216,204 Z" id="Oval" stroke="#6B6C72" stroke-width="2" stroke-dasharray="5.01,2.0086"></path>
        <path d="M361,231 C413.467051,231 456,188.467051 456,136 C456,83.5329488 413.467051,41 361,41 C308.532949,41 266,83.5329488 266,136 C266,188.467051 308.532949,231 361,231 Z" id="Oval" stroke="#6B6C72" stroke-width="2" stroke-dasharray="5.01,2.0086"></path>
        <path d="M670,231 C722.467051,231 765,188.467051 765,136 C765,83.5329488 722.467051,41 670,41 C617.532949,41 575,83.5329488 575,136 C575,188.467051 617.532949,231 670,231 Z" id="Oval" stroke="#6B6C72" stroke-width="2" stroke-dasharray="5.01,2.0086"></path>
        <path d="M515,216 C559.18278,216 595,180.18278 595,136 C595,91.81722 559.18278,56 515,56 C470.81722,56 435,91.81722 435,136 C435,180.18278 470.81722,216 515,216 Z" id="Oval" stroke="#6B6C72" stroke-width="2" stroke-dasharray="5.01,2.0086"></path>
        <path d="M670,41 C709.869977,41 744.00345,65.5608924 758.095671,100.377929 C768.182522,88.5207353 783.21298,81 800,81 C830.375661,81 855,105.624339 855,136 C855,166.375661 830.375661,191 800,191 C783.21298,191 768.182522,183.479265 758.09418,171.623348 C744.00345,206.439108 709.869977,231 670,231 C632.004194,231 599.218255,208.693907 584.022999,176.462537 C570.130717,200.119328 544.419923,216 515,216 C485.967638,216 460.547325,200.534978 446.527612,177.393484 C431.147999,209.122669 398.628862,231 361,231 C321.956864,231 288.414767,207.447253 273.806811,173.774862 C261.17785,192.03626 240.086066,204 216.2,204 C190.114611,204 167.361763,189.731695 155.32025,168.573879 C145.308825,182.174419 129.185075,191 111,191 C80.6243388,191 56,166.375661 56,136 C56,105.624339 80.6243388,81 111,81 C128.432968,81 143.971592,89.1106521 154.048256,101.76434 C165.70834,79.3268777 189.164278,64 216.2,64 C240.779668,64 262.400419,76.6686337 274.888893,95.8325434 C290.018371,63.4423254 322.888342,41 361,41 C398.628862,41 431.147999,62.8773314 446.531847,94.6064287 C460.547325,71.4650221 485.967638,56 515,56 C544.419923,56 570.130717,71.8806719 584.027734,95.5373686 C599.218255,63.3060926 632.004194,41 670,41 Z" id="Combined-Shape" stroke="#6B6C72" stroke-width="2"></path>
    </g>
</svg>