<?xml version="1.0" encoding="UTF-8"?>
<svg width="910px" height="333px" viewBox="0 0 910 333" version="1.1" xmlns="http://www.w3.org/2000/svg" xmlns:xlink="http://www.w3.org/1999/xlink">
    <title>skills</title>
    <defs>
        <path d="M630.536556,288 L630.536556,283.024 L632.328556,283.024 C632.915223,283.024 633.461889,282.962667 633.968556,282.84 C634.475223,282.717333 634.912556,282.528 635.280556,282.272 C635.648556,282.016 635.936556,281.685333 636.144556,281.28 C636.352556,280.874667 636.456556,280.389333 636.456556,279.824 C636.456556,279.269333 636.360556,278.794667 636.168556,278.4 C635.976556,278.005333 635.704556,277.68 635.352556,277.424 C635.000556,277.168 634.573889,276.978667 634.072556,276.856 C633.571223,276.733333 633.016556,276.672 632.408556,276.672 L632.408556,276.672 L628.952556,276.672 L628.952556,288 L630.536556,288 Z M632.216556,281.68 L630.536556,281.68 L630.536556,278.016 L632.248556,278.016 C632.621889,278.016 632.968556,278.045333 633.288556,278.104 C633.608556,278.162667 633.883223,278.264 634.112556,278.408 C634.341889,278.552 634.523223,278.738667 634.656556,278.968 C634.789889,279.197333 634.856556,279.482667 634.856556,279.824 C634.856556,280.165333 634.792556,280.453333 634.664556,280.688 C634.536556,280.922667 634.355223,281.112 634.120556,281.256 C633.885889,281.4 633.605889,281.506667 633.280556,281.576 C632.955223,281.645333 632.600556,281.68 632.216556,281.68 L632.216556,281.68 Z M639.160556,288 L639.160556,284.016 C639.160556,283.696 639.203223,283.389333 639.288556,283.096 C639.373889,282.802667 639.504556,282.544 639.680556,282.32 C639.856556,282.096 640.077889,281.917333 640.344556,281.784 C640.611223,281.650667 640.925889,281.584 641.288556,281.584 C641.533889,281.584 641.763223,281.610667 641.976556,281.664 L641.976556,281.664 L642.040556,280.272 C641.880556,280.229333 641.683223,280.208 641.448556,280.208 C640.936556,280.208 640.475223,280.344 640.064556,280.616 C639.653889,280.888 639.341889,281.248 639.128556,281.696 L639.128556,281.696 L639.080556,281.696 C639.080556,281.536 639.075223,281.330667 639.064556,281.08 C639.053889,280.829333 639.037889,280.608 639.016556,280.416 L639.016556,280.416 L637.592556,280.416 C637.613889,280.661333 637.629889,280.944 637.640556,281.264 C637.651223,281.584 637.656556,281.845333 637.656556,282.048 L637.656556,288 L639.160556,288 Z M646.744556,288.208 C647.320556,288.208 647.859223,288.109333 648.360556,287.912 C648.861889,287.714667 649.296556,287.437333 649.664556,287.08 C650.032556,286.722667 650.320556,286.298667 650.528556,285.808 C650.736556,285.317333 650.840556,284.778667 650.840556,284.192 C650.840556,283.605333 650.736556,283.069333 650.528556,282.584 C650.320556,282.098667 650.032556,281.68 649.664556,281.328 C649.296556,280.976 648.861889,280.701333 648.360556,280.504 C647.859223,280.306667 647.320556,280.208 646.744556,280.208 C646.168556,280.208 645.629889,280.306667 645.128556,280.504 C644.627223,280.701333 644.195223,280.976 643.832556,281.328 C643.469889,281.68 643.184556,282.098667 642.976556,282.584 C642.768556,283.069333 642.664556,283.605333 642.664556,284.192 C642.664556,284.778667 642.768556,285.317333 642.976556,285.808 C643.184556,286.298667 643.469889,286.722667 643.832556,287.08 C644.195223,287.437333 644.627223,287.714667 645.128556,287.912 C645.629889,288.109333 646.168556,288.208 646.744556,288.208 Z M646.744556,286.944 C646.339223,286.944 645.979223,286.869333 645.664556,286.72 C645.349889,286.570667 645.085889,286.368 644.872556,286.112 C644.659223,285.856 644.496556,285.562667 644.384556,285.232 C644.272556,284.901333 644.216556,284.554667 644.216556,284.192 C644.216556,283.829333 644.272556,283.482667 644.384556,283.152 C644.496556,282.821333 644.659223,282.530667 644.872556,282.28 C645.085889,282.029333 645.349889,281.829333 645.664556,281.68 C645.979223,281.530667 646.339223,281.456 646.744556,281.456 C647.149889,281.456 647.509889,281.530667 647.824556,281.68 C648.139223,281.829333 648.403223,282.029333 648.616556,282.28 C648.829889,282.530667 648.992556,282.821333 649.104556,283.152 C649.216556,283.482667 649.272556,283.829333 649.272556,284.192 C649.272556,284.554667 649.216556,284.901333 649.104556,285.232 C648.992556,285.562667 648.829889,285.856 648.616556,286.112 C648.403223,286.368 648.139223,286.570667 647.824556,286.72 C647.509889,286.869333 647.149889,286.944 646.744556,286.944 Z M655.336556,288.128 C655.571223,288.128 655.797889,288.109333 656.016556,288.072 C656.235223,288.034667 656.435223,287.984 656.616556,287.92 L656.616556,287.92 L656.568556,286.688 C656.440556,286.752 656.296556,286.8 656.136556,286.832 C655.976556,286.864 655.827223,286.88 655.688556,286.88 C655.315223,286.88 655.043223,286.781333 654.872556,286.584 C654.701889,286.386667 654.616556,286.058667 654.616556,285.6 L654.616556,285.6 L654.616556,281.648 L656.632556,281.648 L656.632556,280.416 L654.616556,280.416 L654.616556,278.24 L653.128556,278.24 L653.128556,280.416 L651.672556,280.416 L651.672556,281.648 L653.128556,281.648 L653.128556,285.76 C653.128556,286.549333 653.317889,287.141333 653.696556,287.536 C654.075223,287.930667 654.621889,288.128 655.336556,288.128 Z M661.768556,288.208 C662.344556,288.208 662.883223,288.109333 663.384556,287.912 C663.885889,287.714667 664.320556,287.437333 664.688556,287.08 C665.056556,286.722667 665.344556,286.298667 665.552556,285.808 C665.760556,285.317333 665.864556,284.778667 665.864556,284.192 C665.864556,283.605333 665.760556,283.069333 665.552556,282.584 C665.344556,282.098667 665.056556,281.68 664.688556,281.328 C664.320556,280.976 663.885889,280.701333 663.384556,280.504 C662.883223,280.306667 662.344556,280.208 661.768556,280.208 C661.192556,280.208 660.653889,280.306667 660.152556,280.504 C659.651223,280.701333 659.219223,280.976 658.856556,281.328 C658.493889,281.68 658.208556,282.098667 658.000556,282.584 C657.792556,283.069333 657.688556,283.605333 657.688556,284.192 C657.688556,284.778667 657.792556,285.317333 658.000556,285.808 C658.208556,286.298667 658.493889,286.722667 658.856556,287.08 C659.219223,287.437333 659.651223,287.714667 660.152556,287.912 C660.653889,288.109333 661.192556,288.208 661.768556,288.208 Z M661.768556,286.944 C661.363223,286.944 661.003223,286.869333 660.688556,286.72 C660.373889,286.570667 660.109889,286.368 659.896556,286.112 C659.683223,285.856 659.520556,285.562667 659.408556,285.232 C659.296556,284.901333 659.240556,284.554667 659.240556,284.192 C659.240556,283.829333 659.296556,283.482667 659.408556,283.152 C659.520556,282.821333 659.683223,282.530667 659.896556,282.28 C660.109889,282.029333 660.373889,281.829333 660.688556,281.68 C661.003223,281.530667 661.363223,281.456 661.768556,281.456 C662.173889,281.456 662.533889,281.530667 662.848556,281.68 C663.163223,281.829333 663.427223,282.029333 663.640556,282.28 C663.853889,282.530667 664.016556,282.821333 664.128556,283.152 C664.240556,283.482667 664.296556,283.829333 664.296556,284.192 C664.296556,284.554667 664.240556,284.901333 664.128556,285.232 C664.016556,285.562667 663.853889,285.856 663.640556,286.112 C663.427223,286.368 663.163223,286.570667 662.848556,286.72 C662.533889,286.869333 662.173889,286.944 661.768556,286.944 Z M670.360556,288.128 C670.595223,288.128 670.821889,288.109333 671.040556,288.072 C671.259223,288.034667 671.459223,287.984 671.640556,287.92 L671.640556,287.92 L671.592556,286.688 C671.464556,286.752 671.320556,286.8 671.160556,286.832 C671.000556,286.864 670.851223,286.88 670.712556,286.88 C670.339223,286.88 670.067223,286.781333 669.896556,286.584 C669.725889,286.386667 669.640556,286.058667 669.640556,285.6 L669.640556,285.6 L669.640556,281.648 L671.656556,281.648 L671.656556,280.416 L669.640556,280.416 L669.640556,278.24 L668.152556,278.24 L668.152556,280.416 L666.696556,280.416 L666.696556,281.648 L668.152556,281.648 L668.152556,285.76 C668.152556,286.549333 668.341889,287.141333 668.720556,287.536 C669.099223,287.930667 669.645889,288.128 670.360556,288.128 Z M673.512556,291.84 C673.885889,291.84 674.208556,291.792 674.480556,291.696 C674.752556,291.6 674.989889,291.464 675.192556,291.288 C675.395223,291.112 675.571223,290.898667 675.720556,290.648 C675.869889,290.397333 676.008556,290.112 676.136556,289.792 L676.136556,289.792 L679.816556,280.416 L678.216556,280.416 L676.120556,286.368 L676.088556,286.368 L673.736556,280.416 L672.056556,280.416 L675.304556,288 L674.824556,289.264 C674.664556,289.669333 674.488556,289.981333 674.296556,290.2 C674.104556,290.418667 673.811223,290.528 673.416556,290.528 C673.171223,290.528 672.920556,290.485333 672.664556,290.4 L672.664556,290.4 L672.520556,291.728 C672.691223,291.770667 672.859223,291.8 673.024556,291.816 C673.189889,291.832 673.352556,291.84 673.512556,291.84 Z M682.776556,291.84 L682.776556,286.864 L682.824556,286.864 C683.101889,287.290667 683.480556,287.621333 683.960556,287.856 C684.440556,288.090667 684.952556,288.208 685.496556,288.208 C686.083223,288.208 686.611223,288.104 687.080556,287.896 C687.549889,287.688 687.949889,287.402667 688.280556,287.04 C688.611223,286.677333 688.867223,286.250667 689.048556,285.76 C689.229889,285.269333 689.320556,284.746667 689.320556,284.192 C689.320556,283.637333 689.229889,283.117333 689.048556,282.632 C688.867223,282.146667 688.608556,281.722667 688.272556,281.36 C687.936556,280.997333 687.536556,280.714667 687.072556,280.512 C686.608556,280.309333 686.093889,280.208 685.528556,280.208 C684.899223,280.208 684.347223,280.338667 683.872556,280.6 C683.397889,280.861333 683.037889,281.194667 682.792556,281.6 L682.792556,281.6 L682.744556,281.6 L682.744556,280.416 L681.272556,280.416 L681.272556,291.84 L682.776556,291.84 Z M685.240556,286.944 C684.856556,286.944 684.507223,286.869333 684.192556,286.72 C683.877889,286.570667 683.608556,286.370667 683.384556,286.12 C683.160556,285.869333 682.987223,285.578667 682.864556,285.248 C682.741889,284.917333 682.680556,284.570667 682.680556,284.208 C682.680556,283.845333 682.741889,283.498667 682.864556,283.168 C682.987223,282.837333 683.160556,282.544 683.384556,282.288 C683.608556,282.032 683.877889,281.829333 684.192556,281.68 C684.507223,281.530667 684.856556,281.456 685.240556,281.456 C685.656556,281.456 686.021889,281.530667 686.336556,281.68 C686.651223,281.829333 686.915223,282.032 687.128556,282.288 C687.341889,282.544 687.501889,282.837333 687.608556,283.168 C687.715223,283.498667 687.768556,283.84 687.768556,284.192 C687.768556,284.544 687.715223,284.885333 687.608556,285.216 C687.501889,285.546667 687.341889,285.84 687.128556,286.096 C686.915223,286.352 686.651223,286.557333 686.336556,286.712 C686.021889,286.866667 685.656556,286.944 685.240556,286.944 Z M692.184556,278.64 C692.461889,278.64 692.699223,278.549333 692.896556,278.368 C693.093889,278.186667 693.192556,277.957333 693.192556,277.68 C693.192556,277.402667 693.093889,277.170667 692.896556,276.984 C692.699223,276.797333 692.461889,276.704 692.184556,276.704 C691.907223,276.704 691.672556,276.797333 691.480556,276.984 C691.288556,277.170667 691.192556,277.402667 691.192556,277.68 C691.192556,277.946667 691.288556,278.173333 691.480556,278.36 C691.672556,278.546667 691.907223,278.64 692.184556,278.64 Z M692.936556,288 L692.936556,280.416 L691.432556,280.416 L691.432556,288 L692.936556,288 Z M697.064556,288 L697.064556,283.968 C697.064556,283.210667 697.253889,282.605333 697.632556,282.152 C698.011223,281.698667 698.499223,281.472 699.096556,281.472 C699.448556,281.472 699.736556,281.536 699.960556,281.664 C700.184556,281.792 700.360556,281.962667 700.488556,282.176 C700.616556,282.389333 700.704556,282.634667 700.752556,282.912 C700.800556,283.189333 700.824556,283.482667 700.824556,283.792 L700.824556,283.792 L700.824556,288 L702.328556,288 L702.328556,283.296 C702.328556,282.869333 702.272556,282.469333 702.160556,282.096 C702.048556,281.722667 701.875223,281.397333 701.640556,281.12 C701.405889,280.842667 701.112556,280.621333 700.760556,280.456 C700.408556,280.290667 699.987223,280.208 699.496556,280.208 C699.219223,280.208 698.952556,280.245333 698.696556,280.32 C698.440556,280.394667 698.205889,280.498667 697.992556,280.632 C697.779223,280.765333 697.589889,280.92 697.424556,281.096 C697.259223,281.272 697.128556,281.461333 697.032556,281.664 L697.032556,281.664 L696.984556,281.664 C696.984556,281.504 696.979223,281.304 696.968556,281.064 C696.957889,280.824 696.941889,280.608 696.920556,280.416 L696.920556,280.416 L695.496556,280.416 C695.517889,280.661333 695.533889,280.944 695.544556,281.264 C695.555223,281.584 695.560556,281.845333 695.560556,282.048 L695.560556,282.048 L695.560556,288 L697.064556,288 Z M708.216556,291.84 C709.005889,291.84 709.667223,291.722667 710.200556,291.488 C710.733889,291.253333 711.165889,290.941333 711.496556,290.552 C711.827223,290.162667 712.061889,289.714667 712.200556,289.208 C712.339223,288.701333 712.408556,288.170667 712.408556,287.616 L712.408556,287.616 L712.408556,280.416 L710.952556,280.416 L710.952556,281.632 L710.920556,281.632 C710.632556,281.152 710.240556,280.794667 709.744556,280.56 C709.248556,280.325333 708.728556,280.208 708.184556,280.208 C707.608556,280.208 707.085889,280.312 706.616556,280.52 C706.147223,280.728 705.747223,281.010667 705.416556,281.368 C705.085889,281.725333 704.829889,282.144 704.648556,282.624 C704.467223,283.104 704.376556,283.616 704.376556,284.16 C704.376556,284.704 704.467223,285.213333 704.648556,285.688 C704.829889,286.162667 705.085889,286.576 705.416556,286.928 C705.747223,287.28 706.149889,287.557333 706.624556,287.76 C707.099223,287.962667 707.624556,288.064 708.200556,288.064 C708.744556,288.064 709.256556,287.952 709.736556,287.728 C710.216556,287.504 710.595223,287.178667 710.872556,286.752 L710.872556,286.752 L710.904556,286.752 L710.904556,287.728 C710.904556,288.122667 710.859223,288.490667 710.768556,288.832 C710.677889,289.173333 710.528556,289.469333 710.320556,289.72 C710.112556,289.970667 709.837889,290.168 709.496556,290.312 C709.155223,290.456 708.733889,290.528 708.232556,290.528 C707.709889,290.528 707.200556,290.416 706.704556,290.192 C706.208556,289.968 705.795223,289.669333 705.464556,289.296 L705.464556,289.296 L704.504556,290.464 C704.984556,290.901333 705.557889,291.24 706.224556,291.48 C706.891223,291.72 707.555223,291.84 708.216556,291.84 Z M708.440556,286.8 C708.045889,286.8 707.693889,286.725333 707.384556,286.576 C707.075223,286.426667 706.811223,286.229333 706.592556,285.984 C706.373889,285.738667 706.208556,285.456 706.096556,285.136 C705.984556,284.816 705.928556,284.48 705.928556,284.128 C705.928556,283.765333 705.984556,283.421333 706.096556,283.096 C706.208556,282.770667 706.373889,282.488 706.592556,282.248 C706.811223,282.008 707.075223,281.816 707.384556,281.672 C707.693889,281.528 708.045889,281.456 708.440556,281.456 C708.824556,281.456 709.173889,281.528 709.488556,281.672 C709.803223,281.816 710.075223,282.010667 710.304556,282.256 C710.533889,282.501333 710.709889,282.784 710.832556,283.104 C710.955223,283.424 711.016556,283.765333 711.016556,284.128 C711.016556,284.501333 710.955223,284.850667 710.832556,285.176 C710.709889,285.501333 710.536556,285.784 710.312556,286.024 C710.088556,286.264 709.816556,286.453333 709.496556,286.592 C709.176556,286.730667 708.824556,286.8 708.440556,286.8 Z" id="path-1"></path>
        <path d="M186.014222,288 L186.014222,282.96 L187.710222,282.96 L190.590222,288 L192.510222,288 L189.342222,282.8 C190.152889,282.661333 190.814222,282.336 191.326222,281.824 C191.838222,281.312 192.094222,280.64 192.094222,279.808 C192.094222,279.232 191.987555,278.744 191.774222,278.344 C191.560889,277.944 191.270222,277.621333 190.902222,277.376 C190.534222,277.130667 190.104889,276.952 189.614222,276.84 C189.123555,276.728 188.606222,276.672 188.062222,276.672 L188.062222,276.672 L184.430222,276.672 L184.430222,288 L186.014222,288 Z M187.838222,281.632 L186.014222,281.632 L186.014222,278.016 L187.950222,278.016 C188.291555,278.016 188.616889,278.045333 188.926222,278.104 C189.235555,278.162667 189.504889,278.261333 189.734222,278.4 C189.963555,278.538667 190.147555,278.722667 190.286222,278.952 C190.424889,279.181333 190.494222,279.466667 190.494222,279.808 C190.494222,280.149333 190.424889,280.434667 190.286222,280.664 C190.147555,280.893333 189.958222,281.08 189.718222,281.224 C189.478222,281.368 189.198222,281.472 188.878222,281.536 C188.558222,281.6 188.211555,281.632 187.838222,281.632 L187.838222,281.632 Z M197.486222,288.208 C198.158222,288.208 198.768889,288.082667 199.318222,287.832 C199.867555,287.581333 200.344889,287.189333 200.750222,286.656 L200.750222,286.656 L199.694222,285.808 C199.480889,286.128 199.187555,286.4 198.814222,286.624 C198.440889,286.848 197.998222,286.96 197.486222,286.96 C197.155555,286.96 196.843555,286.901333 196.550222,286.784 C196.256889,286.666667 195.998222,286.504 195.774222,286.296 C195.550222,286.088 195.371555,285.842667 195.238222,285.56 C195.104889,285.277333 195.032889,284.976 195.022222,284.656 L195.022222,284.656 L201.038222,284.656 C201.048889,284.570667 201.054222,284.485333 201.054222,284.4 L201.054222,284.4 L201.054222,284.144 C201.054222,283.536 200.968889,282.989333 200.798222,282.504 C200.627555,282.018667 200.384889,281.605333 200.070222,281.264 C199.755555,280.922667 199.371555,280.661333 198.918222,280.48 C198.464889,280.298667 197.960889,280.208 197.406222,280.208 C196.851555,280.208 196.334222,280.306667 195.854222,280.504 C195.374222,280.701333 194.958222,280.976 194.606222,281.328 C194.254222,281.68 193.979555,282.104 193.782222,282.6 C193.584889,283.096 193.486222,283.637333 193.486222,284.224 C193.486222,284.821333 193.587555,285.365333 193.790222,285.856 C193.992889,286.346667 194.270222,286.765333 194.622222,287.112 C194.974222,287.458667 195.395555,287.728 195.886222,287.92 C196.376889,288.112 196.910222,288.208 197.486222,288.208 Z M199.534222,283.536 L195.022222,283.536 C195.043555,283.237333 195.120889,282.957333 195.254222,282.696 C195.387555,282.434667 195.558222,282.208 195.766222,282.016 C195.974222,281.824 196.219555,281.672 196.502222,281.56 C196.784889,281.448 197.086222,281.392 197.406222,281.392 C197.758222,281.392 198.064889,281.448 198.326222,281.56 C198.587555,281.672 198.806222,281.824 198.982222,282.016 C199.158222,282.208 199.291555,282.434667 199.382222,282.696 C199.472889,282.957333 199.523555,283.237333 199.534222,283.536 L199.534222,283.536 Z M205.326222,288.208 C205.710222,288.208 206.083555,288.165333 206.446222,288.08 C206.808889,287.994667 207.131555,287.853333 207.414222,287.656 C207.696889,287.458667 207.923555,287.205333 208.094222,286.896 C208.264889,286.586667 208.350222,286.208 208.350222,285.76 C208.350222,285.429333 208.286222,285.141333 208.158222,284.896 C208.030222,284.650667 207.851555,284.44 207.622222,284.264 C207.392889,284.088 207.123555,283.941333 206.814222,283.824 C206.504889,283.706667 206.168889,283.605333 205.806222,283.52 C205.230222,283.392 204.798222,283.250667 204.510222,283.096 C204.222222,282.941333 204.078222,282.704 204.078222,282.384 C204.078222,282.202667 204.118222,282.050667 204.198222,281.928 C204.278222,281.805333 204.384889,281.704 204.518222,281.624 C204.651555,281.544 204.803555,281.485333 204.974222,281.448 C205.144889,281.410667 205.315555,281.392 205.486222,281.392 C205.870222,281.392 206.216889,281.48 206.526222,281.656 C206.835555,281.832 207.075555,282.058667 207.246222,282.336 L207.246222,282.336 L208.286222,281.456 C208.008889,281.050667 207.616889,280.741333 207.110222,280.528 C206.603555,280.314667 206.078222,280.208 205.534222,280.208 C205.171555,280.208 204.819555,280.253333 204.478222,280.344 C204.136889,280.434667 203.832889,280.573333 203.566222,280.76 C203.299555,280.946667 203.083555,281.186667 202.918222,281.48 C202.752889,281.773333 202.670222,282.122667 202.670222,282.528 C202.670222,282.88 202.736889,283.176 202.870222,283.416 C203.003555,283.656 203.176889,283.856 203.390222,284.016 C203.603555,284.176 203.840889,284.301333 204.102222,284.392 C204.363555,284.482667 204.622222,284.56 204.878222,284.624 C205.528889,284.773333 206.022222,284.933333 206.358222,285.104 C206.694222,285.274667 206.862222,285.536 206.862222,285.888 C206.862222,286.101333 206.819555,286.277333 206.734222,286.416 C206.648889,286.554667 206.534222,286.666667 206.390222,286.752 C206.246222,286.837333 206.086222,286.898667 205.910222,286.936 C205.734222,286.973333 205.550222,286.992 205.358222,286.992 C204.931555,286.992 204.539555,286.890667 204.182222,286.688 C203.824889,286.485333 203.544889,286.234667 203.342222,285.936 L203.342222,285.936 L202.270222,286.848 C202.632889,287.306667 203.088889,287.648 203.638222,287.872 C204.187555,288.096 204.750222,288.208 205.326222,288.208 Z M213.758222,288.208 C214.430222,288.208 215.040889,288.082667 215.590222,287.832 C216.139555,287.581333 216.616889,287.189333 217.022222,286.656 L217.022222,286.656 L215.966222,285.808 C215.752889,286.128 215.459555,286.4 215.086222,286.624 C214.712889,286.848 214.270222,286.96 213.758222,286.96 C213.427555,286.96 213.115555,286.901333 212.822222,286.784 C212.528889,286.666667 212.270222,286.504 212.046222,286.296 C211.822222,286.088 211.643555,285.842667 211.510222,285.56 C211.376889,285.277333 211.304889,284.976 211.294222,284.656 L211.294222,284.656 L217.310222,284.656 C217.320889,284.570667 217.326222,284.485333 217.326222,284.4 L217.326222,284.4 L217.326222,284.144 C217.326222,283.536 217.240889,282.989333 217.070222,282.504 C216.899555,282.018667 216.656889,281.605333 216.342222,281.264 C216.027555,280.922667 215.643555,280.661333 215.190222,280.48 C214.736889,280.298667 214.232889,280.208 213.678222,280.208 C213.123555,280.208 212.606222,280.306667 212.126222,280.504 C211.646222,280.701333 211.230222,280.976 210.878222,281.328 C210.526222,281.68 210.251555,282.104 210.054222,282.6 C209.856889,283.096 209.758222,283.637333 209.758222,284.224 C209.758222,284.821333 209.859555,285.365333 210.062222,285.856 C210.264889,286.346667 210.542222,286.765333 210.894222,287.112 C211.246222,287.458667 211.667555,287.728 212.158222,287.92 C212.648889,288.112 213.182222,288.208 213.758222,288.208 Z M215.806222,283.536 L211.294222,283.536 C211.315555,283.237333 211.392889,282.957333 211.526222,282.696 C211.659555,282.434667 211.830222,282.208 212.038222,282.016 C212.246222,281.824 212.491555,281.672 212.774222,281.56 C213.056889,281.448 213.358222,281.392 213.678222,281.392 C214.030222,281.392 214.336889,281.448 214.598222,281.56 C214.859555,281.672 215.078222,281.824 215.254222,282.016 C215.430222,282.208 215.563555,282.434667 215.654222,282.696 C215.744889,282.957333 215.795555,283.237333 215.806222,283.536 L215.806222,283.536 Z M221.518222,288.192 C222.094222,288.192 222.592889,288.08 223.014222,287.856 C223.435555,287.632 223.784889,287.317333 224.062222,286.912 L224.062222,286.912 L224.110222,286.912 C224.110222,287.274667 224.152889,287.637333 224.238222,288 L224.238222,288 L225.598222,288 C225.555555,287.818667 225.526222,287.586667 225.510222,287.304 C225.494222,287.021333 225.486222,286.752 225.486222,286.496 L225.486222,286.496 L225.486222,283.184 C225.486222,282.768 225.422222,282.378667 225.294222,282.016 C225.166222,281.653333 224.974222,281.338667 224.718222,281.072 C224.462222,280.805333 224.134222,280.594667 223.734222,280.44 C223.334222,280.285333 222.862222,280.208 222.318222,280.208 C221.699555,280.208 221.120889,280.309333 220.582222,280.512 C220.043555,280.714667 219.587555,280.992 219.214222,281.344 L219.214222,281.344 L220.014222,282.304 C220.270222,282.048 220.587555,281.837333 220.966222,281.672 C221.344889,281.506667 221.747555,281.424 222.174222,281.424 C222.739555,281.424 223.192889,281.56 223.534222,281.832 C223.875555,282.104 224.046222,282.522667 224.046222,283.088 L224.046222,283.088 L224.046222,283.296 C223.406222,283.296 222.771555,283.322667 222.142222,283.376 C221.512889,283.429333 220.947555,283.544 220.446222,283.72 C219.944889,283.896 219.539555,284.152 219.230222,284.488 C218.920889,284.824 218.766222,285.28 218.766222,285.856 C218.766222,286.293333 218.854222,286.661333 219.030222,286.96 C219.206222,287.258667 219.427555,287.498667 219.694222,287.68 C219.960889,287.861333 220.256889,287.992 220.582222,288.072 C220.907555,288.152 221.219555,288.192 221.518222,288.192 Z M221.854222,287.008 C221.662222,287.008 221.475555,286.989333 221.294222,286.952 C221.112889,286.914667 220.947555,286.848 220.798222,286.752 C220.648889,286.656 220.528889,286.533333 220.438222,286.384 C220.347555,286.234667 220.302222,286.048 220.302222,285.824 C220.302222,285.504 220.408889,285.248 220.622222,285.056 C220.835555,284.864 221.104889,284.72 221.430222,284.624 C221.755555,284.528 222.118222,284.464 222.518222,284.432 C222.918222,284.4 223.304889,284.384 223.678222,284.384 L223.678222,284.384 L224.046222,284.384 L224.046222,284.784 C224.046222,285.424 223.856889,285.954667 223.478222,286.376 C223.099555,286.797333 222.558222,287.008 221.854222,287.008 Z M229.502222,288 L229.502222,284.016 C229.502222,283.696 229.544889,283.389333 229.630222,283.096 C229.715555,282.802667 229.846222,282.544 230.022222,282.32 C230.198222,282.096 230.419555,281.917333 230.686222,281.784 C230.952889,281.650667 231.267555,281.584 231.630222,281.584 C231.875555,281.584 232.104889,281.610667 232.318222,281.664 L232.318222,281.664 L232.382222,280.272 C232.222222,280.229333 232.024889,280.208 231.790222,280.208 C231.278222,280.208 230.816889,280.344 230.406222,280.616 C229.995555,280.888 229.683555,281.248 229.470222,281.696 L229.470222,281.696 L229.422222,281.696 C229.422222,281.536 229.416889,281.330667 229.406222,281.08 C229.395555,280.829333 229.379555,280.608 229.358222,280.416 L229.358222,280.416 L227.934222,280.416 C227.955555,280.661333 227.971555,280.944 227.982222,281.264 C227.992889,281.584 227.998222,281.845333 227.998222,282.048 L227.998222,288 L229.502222,288 Z M237.086222,288.208 C237.694222,288.208 238.238222,288.104 238.718222,287.896 C239.198222,287.688 239.598222,287.397333 239.918222,287.024 L239.918222,287.024 L238.910222,286.112 C238.707555,286.368 238.448889,286.570667 238.134222,286.72 C237.819555,286.869333 237.470222,286.944 237.086222,286.944 C236.691555,286.944 236.339555,286.869333 236.030222,286.72 C235.720889,286.570667 235.459555,286.370667 235.246222,286.12 C235.032889,285.869333 234.870222,285.578667 234.758222,285.248 C234.646222,284.917333 234.590222,284.570667 234.590222,284.208 C234.590222,283.845333 234.646222,283.498667 234.758222,283.168 C234.870222,282.837333 235.032889,282.546667 235.246222,282.296 C235.459555,282.045333 235.718222,281.845333 236.022222,281.696 C236.326222,281.546667 236.675555,281.472 237.070222,281.472 C237.432889,281.472 237.774222,281.554667 238.094222,281.72 C238.414222,281.885333 238.654222,282.090667 238.814222,282.336 L238.814222,282.336 L239.902222,281.456 C239.592889,281.050667 239.174222,280.741333 238.646222,280.528 C238.118222,280.314667 237.587555,280.208 237.054222,280.208 C236.478222,280.208 235.942222,280.304 235.446222,280.496 C234.950222,280.688 234.520889,280.96 234.158222,281.312 C233.795555,281.664 233.512889,282.085333 233.310222,282.576 C233.107555,283.066667 233.006222,283.610667 233.006222,284.208 C233.006222,284.816 233.110222,285.365333 233.318222,285.856 C233.526222,286.346667 233.811555,286.765333 234.174222,287.112 C234.536889,287.458667 234.966222,287.728 235.462222,287.92 C235.958222,288.112 236.499555,288.208 237.086222,288.208 Z M242.942222,288 L242.942222,283.984 C242.942222,283.226667 243.134222,282.621333 243.518222,282.168 C243.902222,281.714667 244.392889,281.488 244.990222,281.488 C245.342222,281.488 245.627555,281.552 245.846222,281.68 C246.064889,281.808 246.238222,281.978667 246.366222,282.192 C246.494222,282.405333 246.582222,282.650667 246.630222,282.928 C246.678222,283.205333 246.702222,283.498667 246.702222,283.808 L246.702222,283.808 L246.702222,288 L248.206222,288 L248.206222,283.296 C248.206222,282.869333 248.150222,282.469333 248.038222,282.096 C247.926222,281.722667 247.752889,281.397333 247.518222,281.12 C247.283555,280.842667 246.990222,280.621333 246.638222,280.456 C246.286222,280.290667 245.864889,280.208 245.374222,280.208 C244.830222,280.208 244.339555,280.341333 243.902222,280.608 C243.464889,280.874667 243.155555,281.194667 242.974222,281.568 L242.974222,281.568 L242.942222,281.568 L242.942222,275.904 L241.438222,275.904 L241.438222,288 L242.942222,288 Z" id="path-2"></path>
        <path d="M324.804556,288 L324.804556,276.672 L323.220556,276.672 L323.220556,288 L324.804556,288 Z M328.980556,288 L328.980556,283.968 C328.980556,283.210667 329.169889,282.605333 329.548556,282.152 C329.927223,281.698667 330.415223,281.472 331.012556,281.472 C331.364556,281.472 331.652556,281.536 331.876556,281.664 C332.100556,281.792 332.276556,281.962667 332.404556,282.176 C332.532556,282.389333 332.620556,282.634667 332.668556,282.912 C332.716556,283.189333 332.740556,283.482667 332.740556,283.792 L332.740556,283.792 L332.740556,288 L334.244556,288 L334.244556,283.296 C334.244556,282.869333 334.188556,282.469333 334.076556,282.096 C333.964556,281.722667 333.791223,281.397333 333.556556,281.12 C333.321889,280.842667 333.028556,280.621333 332.676556,280.456 C332.324556,280.290667 331.903223,280.208 331.412556,280.208 C331.135223,280.208 330.868556,280.245333 330.612556,280.32 C330.356556,280.394667 330.121889,280.498667 329.908556,280.632 C329.695223,280.765333 329.505889,280.92 329.340556,281.096 C329.175223,281.272 329.044556,281.461333 328.948556,281.664 L328.948556,281.664 L328.900556,281.664 C328.900556,281.504 328.895223,281.304 328.884556,281.064 C328.873889,280.824 328.857889,280.608 328.836556,280.416 L328.836556,280.416 L327.412556,280.416 C327.433889,280.661333 327.449889,280.944 327.460556,281.264 C327.471223,281.584 327.476556,281.845333 327.476556,282.048 L327.476556,282.048 L327.476556,288 L328.980556,288 Z M339.204556,288.128 C339.439223,288.128 339.665889,288.109333 339.884556,288.072 C340.103223,288.034667 340.303223,287.984 340.484556,287.92 L340.484556,287.92 L340.436556,286.688 C340.308556,286.752 340.164556,286.8 340.004556,286.832 C339.844556,286.864 339.695223,286.88 339.556556,286.88 C339.183223,286.88 338.911223,286.781333 338.740556,286.584 C338.569889,286.386667 338.484556,286.058667 338.484556,285.6 L338.484556,285.6 L338.484556,281.648 L340.500556,281.648 L340.500556,280.416 L338.484556,280.416 L338.484556,278.24 L336.996556,278.24 L336.996556,280.416 L335.540556,280.416 L335.540556,281.648 L336.996556,281.648 L336.996556,285.76 C336.996556,286.549333 337.185889,287.141333 337.564556,287.536 C337.943223,287.930667 338.489889,288.128 339.204556,288.128 Z M345.556556,288.208 C346.228556,288.208 346.839223,288.082667 347.388556,287.832 C347.937889,287.581333 348.415223,287.189333 348.820556,286.656 L348.820556,286.656 L347.764556,285.808 C347.551223,286.128 347.257889,286.4 346.884556,286.624 C346.511223,286.848 346.068556,286.96 345.556556,286.96 C345.225889,286.96 344.913889,286.901333 344.620556,286.784 C344.327223,286.666667 344.068556,286.504 343.844556,286.296 C343.620556,286.088 343.441889,285.842667 343.308556,285.56 C343.175223,285.277333 343.103223,284.976 343.092556,284.656 L343.092556,284.656 L349.108556,284.656 C349.119223,284.570667 349.124556,284.485333 349.124556,284.4 L349.124556,284.4 L349.124556,284.144 C349.124556,283.536 349.039223,282.989333 348.868556,282.504 C348.697889,282.018667 348.455223,281.605333 348.140556,281.264 C347.825889,280.922667 347.441889,280.661333 346.988556,280.48 C346.535223,280.298667 346.031223,280.208 345.476556,280.208 C344.921889,280.208 344.404556,280.306667 343.924556,280.504 C343.444556,280.701333 343.028556,280.976 342.676556,281.328 C342.324556,281.68 342.049889,282.104 341.852556,282.6 C341.655223,283.096 341.556556,283.637333 341.556556,284.224 C341.556556,284.821333 341.657889,285.365333 341.860556,285.856 C342.063223,286.346667 342.340556,286.765333 342.692556,287.112 C343.044556,287.458667 343.465889,287.728 343.956556,287.92 C344.447223,288.112 344.980556,288.208 345.556556,288.208 Z M347.604556,283.536 L343.092556,283.536 C343.113889,283.237333 343.191223,282.957333 343.324556,282.696 C343.457889,282.434667 343.628556,282.208 343.836556,282.016 C344.044556,281.824 344.289889,281.672 344.572556,281.56 C344.855223,281.448 345.156556,281.392 345.476556,281.392 C345.828556,281.392 346.135223,281.448 346.396556,281.56 C346.657889,281.672 346.876556,281.824 347.052556,282.016 C347.228556,282.208 347.361889,282.434667 347.452556,282.696 C347.543223,282.957333 347.593889,283.237333 347.604556,283.536 L347.604556,283.536 Z M352.724556,288 L352.724556,284.016 C352.724556,283.696 352.767223,283.389333 352.852556,283.096 C352.937889,282.802667 353.068556,282.544 353.244556,282.32 C353.420556,282.096 353.641889,281.917333 353.908556,281.784 C354.175223,281.650667 354.489889,281.584 354.852556,281.584 C355.097889,281.584 355.327223,281.610667 355.540556,281.664 L355.540556,281.664 L355.604556,280.272 C355.444556,280.229333 355.247223,280.208 355.012556,280.208 C354.500556,280.208 354.039223,280.344 353.628556,280.616 C353.217889,280.888 352.905889,281.248 352.692556,281.696 L352.692556,281.696 L352.644556,281.696 C352.644556,281.536 352.639223,281.330667 352.628556,281.08 C352.617889,280.829333 352.601889,280.608 352.580556,280.416 L352.580556,280.416 L351.156556,280.416 C351.177889,280.661333 351.193889,280.944 351.204556,281.264 C351.215223,281.584 351.220556,281.845333 351.220556,282.048 L351.220556,288 L352.724556,288 Z M358.996556,288.192 C359.572556,288.192 360.071223,288.08 360.492556,287.856 C360.913889,287.632 361.263223,287.317333 361.540556,286.912 L361.540556,286.912 L361.588556,286.912 C361.588556,287.274667 361.631223,287.637333 361.716556,288 L361.716556,288 L363.076556,288 C363.033889,287.818667 363.004556,287.586667 362.988556,287.304 C362.972556,287.021333 362.964556,286.752 362.964556,286.496 L362.964556,286.496 L362.964556,283.184 C362.964556,282.768 362.900556,282.378667 362.772556,282.016 C362.644556,281.653333 362.452556,281.338667 362.196556,281.072 C361.940556,280.805333 361.612556,280.594667 361.212556,280.44 C360.812556,280.285333 360.340556,280.208 359.796556,280.208 C359.177889,280.208 358.599223,280.309333 358.060556,280.512 C357.521889,280.714667 357.065889,280.992 356.692556,281.344 L356.692556,281.344 L357.492556,282.304 C357.748556,282.048 358.065889,281.837333 358.444556,281.672 C358.823223,281.506667 359.225889,281.424 359.652556,281.424 C360.217889,281.424 360.671223,281.56 361.012556,281.832 C361.353889,282.104 361.524556,282.522667 361.524556,283.088 L361.524556,283.088 L361.524556,283.296 C360.884556,283.296 360.249889,283.322667 359.620556,283.376 C358.991223,283.429333 358.425889,283.544 357.924556,283.72 C357.423223,283.896 357.017889,284.152 356.708556,284.488 C356.399223,284.824 356.244556,285.28 356.244556,285.856 C356.244556,286.293333 356.332556,286.661333 356.508556,286.96 C356.684556,287.258667 356.905889,287.498667 357.172556,287.68 C357.439223,287.861333 357.735223,287.992 358.060556,288.072 C358.385889,288.152 358.697889,288.192 358.996556,288.192 Z M359.332556,287.008 C359.140556,287.008 358.953889,286.989333 358.772556,286.952 C358.591223,286.914667 358.425889,286.848 358.276556,286.752 C358.127223,286.656 358.007223,286.533333 357.916556,286.384 C357.825889,286.234667 357.780556,286.048 357.780556,285.824 C357.780556,285.504 357.887223,285.248 358.100556,285.056 C358.313889,284.864 358.583223,284.72 358.908556,284.624 C359.233889,284.528 359.596556,284.464 359.996556,284.432 C360.396556,284.4 360.783223,284.384 361.156556,284.384 L361.156556,284.384 L361.524556,284.384 L361.524556,284.784 C361.524556,285.424 361.335223,285.954667 360.956556,286.376 C360.577889,286.797333 360.036556,287.008 359.332556,287.008 Z M369.060556,288.208 C369.668556,288.208 370.212556,288.104 370.692556,287.896 C371.172556,287.688 371.572556,287.397333 371.892556,287.024 L371.892556,287.024 L370.884556,286.112 C370.681889,286.368 370.423223,286.570667 370.108556,286.72 C369.793889,286.869333 369.444556,286.944 369.060556,286.944 C368.665889,286.944 368.313889,286.869333 368.004556,286.72 C367.695223,286.570667 367.433889,286.370667 367.220556,286.12 C367.007223,285.869333 366.844556,285.578667 366.732556,285.248 C366.620556,284.917333 366.564556,284.570667 366.564556,284.208 C366.564556,283.845333 366.620556,283.498667 366.732556,283.168 C366.844556,282.837333 367.007223,282.546667 367.220556,282.296 C367.433889,282.045333 367.692556,281.845333 367.996556,281.696 C368.300556,281.546667 368.649889,281.472 369.044556,281.472 C369.407223,281.472 369.748556,281.554667 370.068556,281.72 C370.388556,281.885333 370.628556,282.090667 370.788556,282.336 L370.788556,282.336 L371.876556,281.456 C371.567223,281.050667 371.148556,280.741333 370.620556,280.528 C370.092556,280.314667 369.561889,280.208 369.028556,280.208 C368.452556,280.208 367.916556,280.304 367.420556,280.496 C366.924556,280.688 366.495223,280.96 366.132556,281.312 C365.769889,281.664 365.487223,282.085333 365.284556,282.576 C365.081889,283.066667 364.980556,283.610667 364.980556,284.208 C364.980556,284.816 365.084556,285.365333 365.292556,285.856 C365.500556,286.346667 365.785889,286.765333 366.148556,287.112 C366.511223,287.458667 366.940556,287.728 367.436556,287.92 C367.932556,288.112 368.473889,288.208 369.060556,288.208 Z M375.796556,288.128 C376.031223,288.128 376.257889,288.109333 376.476556,288.072 C376.695223,288.034667 376.895223,287.984 377.076556,287.92 L377.076556,287.92 L377.028556,286.688 C376.900556,286.752 376.756556,286.8 376.596556,286.832 C376.436556,286.864 376.287223,286.88 376.148556,286.88 C375.775223,286.88 375.503223,286.781333 375.332556,286.584 C375.161889,286.386667 375.076556,286.058667 375.076556,285.6 L375.076556,285.6 L375.076556,281.648 L377.092556,281.648 L377.092556,280.416 L375.076556,280.416 L375.076556,278.24 L373.588556,278.24 L373.588556,280.416 L372.132556,280.416 L372.132556,281.648 L373.588556,281.648 L373.588556,285.76 C373.588556,286.549333 373.777889,287.141333 374.156556,287.536 C374.535223,287.930667 375.081889,288.128 375.796556,288.128 Z M379.412556,278.64 C379.689889,278.64 379.927223,278.549333 380.124556,278.368 C380.321889,278.186667 380.420556,277.957333 380.420556,277.68 C380.420556,277.402667 380.321889,277.170667 380.124556,276.984 C379.927223,276.797333 379.689889,276.704 379.412556,276.704 C379.135223,276.704 378.900556,276.797333 378.708556,276.984 C378.516556,277.170667 378.420556,277.402667 378.420556,277.68 C378.420556,277.946667 378.516556,278.173333 378.708556,278.36 C378.900556,278.546667 379.135223,278.64 379.412556,278.64 Z M380.164556,288 L380.164556,280.416 L378.660556,280.416 L378.660556,288 L380.164556,288 Z M386.372556,288.208 C386.948556,288.208 387.487223,288.109333 387.988556,287.912 C388.489889,287.714667 388.924556,287.437333 389.292556,287.08 C389.660556,286.722667 389.948556,286.298667 390.156556,285.808 C390.364556,285.317333 390.468556,284.778667 390.468556,284.192 C390.468556,283.605333 390.364556,283.069333 390.156556,282.584 C389.948556,282.098667 389.660556,281.68 389.292556,281.328 C388.924556,280.976 388.489889,280.701333 387.988556,280.504 C387.487223,280.306667 386.948556,280.208 386.372556,280.208 C385.796556,280.208 385.257889,280.306667 384.756556,280.504 C384.255223,280.701333 383.823223,280.976 383.460556,281.328 C383.097889,281.68 382.812556,282.098667 382.604556,282.584 C382.396556,283.069333 382.292556,283.605333 382.292556,284.192 C382.292556,284.778667 382.396556,285.317333 382.604556,285.808 C382.812556,286.298667 383.097889,286.722667 383.460556,287.08 C383.823223,287.437333 384.255223,287.714667 384.756556,287.912 C385.257889,288.109333 385.796556,288.208 386.372556,288.208 Z M386.372556,286.944 C385.967223,286.944 385.607223,286.869333 385.292556,286.72 C384.977889,286.570667 384.713889,286.368 384.500556,286.112 C384.287223,285.856 384.124556,285.562667 384.012556,285.232 C383.900556,284.901333 383.844556,284.554667 383.844556,284.192 C383.844556,283.829333 383.900556,283.482667 384.012556,283.152 C384.124556,282.821333 384.287223,282.530667 384.500556,282.28 C384.713889,282.029333 384.977889,281.829333 385.292556,281.68 C385.607223,281.530667 385.967223,281.456 386.372556,281.456 C386.777889,281.456 387.137889,281.530667 387.452556,281.68 C387.767223,281.829333 388.031223,282.029333 388.244556,282.28 C388.457889,282.530667 388.620556,282.821333 388.732556,283.152 C388.844556,283.482667 388.900556,283.829333 388.900556,284.192 C388.900556,284.554667 388.844556,284.901333 388.732556,285.232 C388.620556,285.562667 388.457889,285.856 388.244556,286.112 C388.031223,286.368 387.767223,286.570667 387.452556,286.72 C387.137889,286.869333 386.777889,286.944 386.372556,286.944 Z M394.052556,288 L394.052556,283.968 C394.052556,283.210667 394.241889,282.605333 394.620556,282.152 C394.999223,281.698667 395.487223,281.472 396.084556,281.472 C396.436556,281.472 396.724556,281.536 396.948556,281.664 C397.172556,281.792 397.348556,281.962667 397.476556,282.176 C397.604556,282.389333 397.692556,282.634667 397.740556,282.912 C397.788556,283.189333 397.812556,283.482667 397.812556,283.792 L397.812556,283.792 L397.812556,288 L399.316556,288 L399.316556,283.296 C399.316556,282.869333 399.260556,282.469333 399.148556,282.096 C399.036556,281.722667 398.863223,281.397333 398.628556,281.12 C398.393889,280.842667 398.100556,280.621333 397.748556,280.456 C397.396556,280.290667 396.975223,280.208 396.484556,280.208 C396.207223,280.208 395.940556,280.245333 395.684556,280.32 C395.428556,280.394667 395.193889,280.498667 394.980556,280.632 C394.767223,280.765333 394.577889,280.92 394.412556,281.096 C394.247223,281.272 394.116556,281.461333 394.020556,281.664 L394.020556,281.664 L393.972556,281.664 C393.972556,281.504 393.967223,281.304 393.956556,281.064 C393.945889,280.824 393.929889,280.608 393.908556,280.416 L393.908556,280.416 L392.484556,280.416 C392.505889,280.661333 392.521889,280.944 392.532556,281.264 C392.543223,281.584 392.548556,281.845333 392.548556,282.048 L392.548556,282.048 L392.548556,288 L394.052556,288 Z" id="path-3"></path>
        <path d="M95.6966668,288 L100.144667,276.672 L98.4326668,276.672 L95.0246668,285.952 L94.9766668,285.952 L91.5686668,276.672 L89.8086668,276.672 L94.2246668,288 L95.6966668,288 Z M101.888667,278.64 C102.166,278.64 102.403333,278.549333 102.600667,278.368 C102.798,278.186667 102.896667,277.957333 102.896667,277.68 C102.896667,277.402667 102.798,277.170667 102.600667,276.984 C102.403333,276.797333 102.166,276.704 101.888667,276.704 C101.611333,276.704 101.376667,276.797333 101.184667,276.984 C100.992667,277.170667 100.896667,277.402667 100.896667,277.68 C100.896667,277.946667 100.992667,278.173333 101.184667,278.36 C101.376667,278.546667 101.611333,278.64 101.888667,278.64 Z M102.640667,288 L102.640667,280.416 L101.136667,280.416 L101.136667,288 L102.640667,288 Z M107.440667,288.208 C107.824667,288.208 108.198,288.165333 108.560667,288.08 C108.923333,287.994667 109.246,287.853333 109.528667,287.656 C109.811333,287.458667 110.038,287.205333 110.208667,286.896 C110.379333,286.586667 110.464667,286.208 110.464667,285.76 C110.464667,285.429333 110.400667,285.141333 110.272667,284.896 C110.144667,284.650667 109.966,284.44 109.736667,284.264 C109.507333,284.088 109.238,283.941333 108.928667,283.824 C108.619333,283.706667 108.283333,283.605333 107.920667,283.52 C107.344667,283.392 106.912667,283.250667 106.624667,283.096 C106.336667,282.941333 106.192667,282.704 106.192667,282.384 C106.192667,282.202667 106.232667,282.050667 106.312667,281.928 C106.392667,281.805333 106.499333,281.704 106.632667,281.624 C106.766,281.544 106.918,281.485333 107.088667,281.448 C107.259333,281.410667 107.43,281.392 107.600667,281.392 C107.984667,281.392 108.331333,281.48 108.640667,281.656 C108.95,281.832 109.19,282.058667 109.360667,282.336 L109.360667,282.336 L110.400667,281.456 C110.123333,281.050667 109.731333,280.741333 109.224667,280.528 C108.718,280.314667 108.192667,280.208 107.648667,280.208 C107.286,280.208 106.934,280.253333 106.592667,280.344 C106.251333,280.434667 105.947333,280.573333 105.680667,280.76 C105.414,280.946667 105.198,281.186667 105.032667,281.48 C104.867333,281.773333 104.784667,282.122667 104.784667,282.528 C104.784667,282.88 104.851333,283.176 104.984667,283.416 C105.118,283.656 105.291333,283.856 105.504667,284.016 C105.718,284.176 105.955333,284.301333 106.216667,284.392 C106.478,284.482667 106.736667,284.56 106.992667,284.624 C107.643333,284.773333 108.136667,284.933333 108.472667,285.104 C108.808667,285.274667 108.976667,285.536 108.976667,285.888 C108.976667,286.101333 108.934,286.277333 108.848667,286.416 C108.763333,286.554667 108.648667,286.666667 108.504667,286.752 C108.360667,286.837333 108.200667,286.898667 108.024667,286.936 C107.848667,286.973333 107.664667,286.992 107.472667,286.992 C107.046,286.992 106.654,286.890667 106.296667,286.688 C105.939333,286.485333 105.659333,286.234667 105.456667,285.936 L105.456667,285.936 L104.384667,286.848 C104.747333,287.306667 105.203333,287.648 105.752667,287.872 C106.302,288.096 106.864667,288.208 107.440667,288.208 Z M115.136667,288.208 C115.691333,288.208 116.195333,288.066667 116.648667,287.784 C117.102,287.501333 117.424667,287.157333 117.616667,286.752 L117.616667,286.752 L117.648667,286.752 C117.648667,286.912 117.654,287.112 117.664667,287.352 C117.675333,287.592 117.691333,287.808 117.712667,288 L117.712667,288 L119.136667,288 C119.115333,287.754667 119.099333,287.472 119.088667,287.152 C119.078,286.832 119.072667,286.570667 119.072667,286.368 L119.072667,280.416 L117.568667,280.416 L117.568667,284.448 C117.568667,285.205333 117.382,285.810667 117.008667,286.264 C116.635333,286.717333 116.144667,286.944 115.536667,286.944 C115.184667,286.944 114.896667,286.88 114.672667,286.752 C114.448667,286.624 114.272667,286.453333 114.144667,286.24 C114.016667,286.026667 113.928667,285.778667 113.880667,285.496 C113.832667,285.213333 113.808667,284.917333 113.808667,284.608 L113.808667,284.608 L113.808667,280.416 L112.304667,280.416 L112.304667,285.12 C112.304667,285.546667 112.360667,285.946667 112.472667,286.32 C112.584667,286.693333 112.755333,287.021333 112.984667,287.304 C113.214,287.586667 113.507333,287.808 113.864667,287.968 C114.222,288.128 114.646,288.208 115.136667,288.208 Z M123.872667,288.192 C124.448667,288.192 124.947333,288.08 125.368667,287.856 C125.79,287.632 126.139333,287.317333 126.416667,286.912 L126.416667,286.912 L126.464667,286.912 C126.464667,287.274667 126.507333,287.637333 126.592667,288 L126.592667,288 L127.952667,288 C127.91,287.818667 127.880667,287.586667 127.864667,287.304 C127.848667,287.021333 127.840667,286.752 127.840667,286.496 L127.840667,286.496 L127.840667,283.184 C127.840667,282.768 127.776667,282.378667 127.648667,282.016 C127.520667,281.653333 127.328667,281.338667 127.072667,281.072 C126.816667,280.805333 126.488667,280.594667 126.088667,280.44 C125.688667,280.285333 125.216667,280.208 124.672667,280.208 C124.054,280.208 123.475333,280.309333 122.936667,280.512 C122.398,280.714667 121.942,280.992 121.568667,281.344 L121.568667,281.344 L122.368667,282.304 C122.624667,282.048 122.942,281.837333 123.320667,281.672 C123.699333,281.506667 124.102,281.424 124.528667,281.424 C125.094,281.424 125.547333,281.56 125.888667,281.832 C126.23,282.104 126.400667,282.522667 126.400667,283.088 L126.400667,283.088 L126.400667,283.296 C125.760667,283.296 125.126,283.322667 124.496667,283.376 C123.867333,283.429333 123.302,283.544 122.800667,283.72 C122.299333,283.896 121.894,284.152 121.584667,284.488 C121.275333,284.824 121.120667,285.28 121.120667,285.856 C121.120667,286.293333 121.208667,286.661333 121.384667,286.96 C121.560667,287.258667 121.782,287.498667 122.048667,287.68 C122.315333,287.861333 122.611333,287.992 122.936667,288.072 C123.262,288.152 123.574,288.192 123.872667,288.192 Z M124.208667,287.008 C124.016667,287.008 123.83,286.989333 123.648667,286.952 C123.467333,286.914667 123.302,286.848 123.152667,286.752 C123.003333,286.656 122.883333,286.533333 122.792667,286.384 C122.702,286.234667 122.656667,286.048 122.656667,285.824 C122.656667,285.504 122.763333,285.248 122.976667,285.056 C123.19,284.864 123.459333,284.72 123.784667,284.624 C124.11,284.528 124.472667,284.464 124.872667,284.432 C125.272667,284.4 125.659333,284.384 126.032667,284.384 L126.032667,284.384 L126.400667,284.384 L126.400667,284.784 C126.400667,285.424 126.211333,285.954667 125.832667,286.376 C125.454,286.797333 124.912667,287.008 124.208667,287.008 Z M131.888667,288 L131.888667,275.904 L130.384667,275.904 L130.384667,288 L131.888667,288 Z" id="path-4"></path>
        <path d="M775.482222,288 C776.207555,288 776.932889,287.885333 777.658222,287.656 C778.383555,287.426667 779.039555,287.08 779.626222,286.616 C780.212889,286.152 780.687555,285.565333 781.050222,284.856 C781.412889,284.146667 781.594222,283.306667 781.594222,282.336 C781.594222,281.333333 781.412889,280.474667 781.050222,279.76 C780.687555,279.045333 780.212889,278.458667 779.626222,278 C779.039555,277.541333 778.383555,277.205333 777.658222,276.992 C776.932889,276.778667 776.207555,276.672 775.482222,276.672 L775.482222,276.672 L771.594222,276.672 L771.594222,288 L775.482222,288 Z M775.162222,286.608 L773.178222,286.608 L773.178222,278.048 L775.162222,278.048 C775.844889,278.048 776.476889,278.141333 777.058222,278.328 C777.639555,278.514667 778.140889,278.786667 778.562222,279.144 C778.983555,279.501333 779.311555,279.946667 779.546222,280.48 C779.780889,281.013333 779.898222,281.632 779.898222,282.336 C779.898222,283.008 779.780889,283.610667 779.546222,284.144 C779.311555,284.677333 778.983555,285.125333 778.562222,285.488 C778.140889,285.850667 777.639555,286.128 777.058222,286.32 C776.476889,286.512 775.844889,286.608 775.162222,286.608 L775.162222,286.608 Z M787.194222,288.208 C787.866222,288.208 788.476889,288.082667 789.026222,287.832 C789.575555,287.581333 790.052889,287.189333 790.458222,286.656 L790.458222,286.656 L789.402222,285.808 C789.188889,286.128 788.895555,286.4 788.522222,286.624 C788.148889,286.848 787.706222,286.96 787.194222,286.96 C786.863555,286.96 786.551555,286.901333 786.258222,286.784 C785.964889,286.666667 785.706222,286.504 785.482222,286.296 C785.258222,286.088 785.079555,285.842667 784.946222,285.56 C784.812889,285.277333 784.740889,284.976 784.730222,284.656 L784.730222,284.656 L790.746222,284.656 C790.756889,284.570667 790.762222,284.485333 790.762222,284.4 L790.762222,284.4 L790.762222,284.144 C790.762222,283.536 790.676889,282.989333 790.506222,282.504 C790.335555,282.018667 790.092889,281.605333 789.778222,281.264 C789.463555,280.922667 789.079555,280.661333 788.626222,280.48 C788.172889,280.298667 787.668889,280.208 787.114222,280.208 C786.559555,280.208 786.042222,280.306667 785.562222,280.504 C785.082222,280.701333 784.666222,280.976 784.314222,281.328 C783.962222,281.68 783.687555,282.104 783.490222,282.6 C783.292889,283.096 783.194222,283.637333 783.194222,284.224 C783.194222,284.821333 783.295555,285.365333 783.498222,285.856 C783.700889,286.346667 783.978222,286.765333 784.330222,287.112 C784.682222,287.458667 785.103555,287.728 785.594222,287.92 C786.084889,288.112 786.618222,288.208 787.194222,288.208 Z M789.242222,283.536 L784.730222,283.536 C784.751555,283.237333 784.828889,282.957333 784.962222,282.696 C785.095555,282.434667 785.266222,282.208 785.474222,282.016 C785.682222,281.824 785.927555,281.672 786.210222,281.56 C786.492889,281.448 786.794222,281.392 787.114222,281.392 C787.466222,281.392 787.772889,281.448 788.034222,281.56 C788.295555,281.672 788.514222,281.824 788.690222,282.016 C788.866222,282.208 788.999555,282.434667 789.090222,282.696 C789.180889,282.957333 789.231555,283.237333 789.242222,283.536 L789.242222,283.536 Z M794.394222,288 L794.394222,275.904 L792.890222,275.904 L792.890222,288 L794.394222,288 Z M797.786222,278.64 C798.063555,278.64 798.300889,278.549333 798.498222,278.368 C798.695555,278.186667 798.794222,277.957333 798.794222,277.68 C798.794222,277.402667 798.695555,277.170667 798.498222,276.984 C798.300889,276.797333 798.063555,276.704 797.786222,276.704 C797.508889,276.704 797.274222,276.797333 797.082222,276.984 C796.890222,277.170667 796.794222,277.402667 796.794222,277.68 C796.794222,277.946667 796.890222,278.173333 797.082222,278.36 C797.274222,278.546667 797.508889,278.64 797.786222,278.64 Z M798.538222,288 L798.538222,280.416 L797.034222,280.416 L797.034222,288 L798.538222,288 Z M804.730222,288 L807.770222,280.416 L806.170222,280.416 L803.930222,286.384 L803.898222,286.384 L801.674222,280.416 L800.010222,280.416 L803.098222,288 L804.730222,288 Z M812.730222,288.208 C813.402222,288.208 814.012889,288.082667 814.562222,287.832 C815.111555,287.581333 815.588889,287.189333 815.994222,286.656 L815.994222,286.656 L814.938222,285.808 C814.724889,286.128 814.431555,286.4 814.058222,286.624 C813.684889,286.848 813.242222,286.96 812.730222,286.96 C812.399555,286.96 812.087555,286.901333 811.794222,286.784 C811.500889,286.666667 811.242222,286.504 811.018222,286.296 C810.794222,286.088 810.615555,285.842667 810.482222,285.56 C810.348889,285.277333 810.276889,284.976 810.266222,284.656 L810.266222,284.656 L816.282222,284.656 C816.292889,284.570667 816.298222,284.485333 816.298222,284.4 L816.298222,284.4 L816.298222,284.144 C816.298222,283.536 816.212889,282.989333 816.042222,282.504 C815.871555,282.018667 815.628889,281.605333 815.314222,281.264 C814.999555,280.922667 814.615555,280.661333 814.162222,280.48 C813.708889,280.298667 813.204889,280.208 812.650222,280.208 C812.095555,280.208 811.578222,280.306667 811.098222,280.504 C810.618222,280.701333 810.202222,280.976 809.850222,281.328 C809.498222,281.68 809.223555,282.104 809.026222,282.6 C808.828889,283.096 808.730222,283.637333 808.730222,284.224 C808.730222,284.821333 808.831555,285.365333 809.034222,285.856 C809.236889,286.346667 809.514222,286.765333 809.866222,287.112 C810.218222,287.458667 810.639555,287.728 811.130222,287.92 C811.620889,288.112 812.154222,288.208 812.730222,288.208 Z M814.778222,283.536 L810.266222,283.536 C810.287555,283.237333 810.364889,282.957333 810.498222,282.696 C810.631555,282.434667 810.802222,282.208 811.010222,282.016 C811.218222,281.824 811.463555,281.672 811.746222,281.56 C812.028889,281.448 812.330222,281.392 812.650222,281.392 C813.002222,281.392 813.308889,281.448 813.570222,281.56 C813.831555,281.672 814.050222,281.824 814.226222,282.016 C814.402222,282.208 814.535555,282.434667 814.626222,282.696 C814.716889,282.957333 814.767555,283.237333 814.778222,283.536 L814.778222,283.536 Z M819.898222,288 L819.898222,284.016 C819.898222,283.696 819.940889,283.389333 820.026222,283.096 C820.111555,282.802667 820.242222,282.544 820.418222,282.32 C820.594222,282.096 820.815555,281.917333 821.082222,281.784 C821.348889,281.650667 821.663555,281.584 822.026222,281.584 C822.271555,281.584 822.500889,281.610667 822.714222,281.664 L822.714222,281.664 L822.778222,280.272 C822.618222,280.229333 822.420889,280.208 822.186222,280.208 C821.674222,280.208 821.212889,280.344 820.802222,280.616 C820.391555,280.888 820.079555,281.248 819.866222,281.696 L819.866222,281.696 L819.818222,281.696 C819.818222,281.536 819.812889,281.330667 819.802222,281.08 C819.791555,280.829333 819.775555,280.608 819.754222,280.416 L819.754222,280.416 L818.330222,280.416 C818.351555,280.661333 818.367555,280.944 818.378222,281.264 C818.388889,281.584 818.394222,281.845333 818.394222,282.048 L818.394222,282.048 L818.394222,288 L819.898222,288 Z M824.490222,291.84 C824.863555,291.84 825.186222,291.792 825.458222,291.696 C825.730222,291.6 825.967555,291.464 826.170222,291.288 C826.372889,291.112 826.548889,290.898667 826.698222,290.648 C826.847555,290.397333 826.986222,290.112 827.114222,289.792 L827.114222,289.792 L830.794222,280.416 L829.194222,280.416 L827.098222,286.368 L827.066222,286.368 L824.714222,280.416 L823.034222,280.416 L826.282222,288 L825.802222,289.264 C825.642222,289.669333 825.466222,289.981333 825.274222,290.2 C825.082222,290.418667 824.788889,290.528 824.394222,290.528 C824.148889,290.528 823.898222,290.485333 823.642222,290.4 L823.642222,290.4 L823.498222,291.728 C823.668889,291.770667 823.836889,291.8 824.002222,291.816 C824.167555,291.832 824.330222,291.84 824.490222,291.84 Z" id="path-5"></path>
        <path d="M491.588667,288 L491.588667,278.528 L491.620667,278.528 L495.364667,288 L496.372667,288 L500.132667,278.528 L500.164667,278.528 L500.164667,288 L501.748667,288 L501.748667,276.672 L499.284667,276.672 L495.940667,285.376 L495.908667,285.376 L492.516667,276.672 L490.052667,276.672 L490.052667,288 L491.588667,288 Z M508.004667,288.208 C508.580667,288.208 509.119334,288.109333 509.620667,287.912 C510.122,287.714667 510.556667,287.437333 510.924667,287.08 C511.292667,286.722667 511.580667,286.298667 511.788667,285.808 C511.996667,285.317333 512.100667,284.778667 512.100667,284.192 C512.100667,283.605333 511.996667,283.069333 511.788667,282.584 C511.580667,282.098667 511.292667,281.68 510.924667,281.328 C510.556667,280.976 510.122,280.701333 509.620667,280.504 C509.119334,280.306667 508.580667,280.208 508.004667,280.208 C507.428667,280.208 506.89,280.306667 506.388667,280.504 C505.887334,280.701333 505.455334,280.976 505.092667,281.328 C504.73,281.68 504.444667,282.098667 504.236667,282.584 C504.028667,283.069333 503.924667,283.605333 503.924667,284.192 C503.924667,284.778667 504.028667,285.317333 504.236667,285.808 C504.444667,286.298667 504.73,286.722667 505.092667,287.08 C505.455334,287.437333 505.887334,287.714667 506.388667,287.912 C506.89,288.109333 507.428667,288.208 508.004667,288.208 Z M508.004667,286.944 C507.599334,286.944 507.239334,286.869333 506.924667,286.72 C506.61,286.570667 506.346,286.368 506.132667,286.112 C505.919334,285.856 505.756667,285.562667 505.644667,285.232 C505.532667,284.901333 505.476667,284.554667 505.476667,284.192 C505.476667,283.829333 505.532667,283.482667 505.644667,283.152 C505.756667,282.821333 505.919334,282.530667 506.132667,282.28 C506.346,282.029333 506.61,281.829333 506.924667,281.68 C507.239334,281.530667 507.599334,281.456 508.004667,281.456 C508.41,281.456 508.77,281.530667 509.084667,281.68 C509.399334,281.829333 509.663334,282.029333 509.876667,282.28 C510.09,282.530667 510.252667,282.821333 510.364667,283.152 C510.476667,283.482667 510.532667,283.829333 510.532667,284.192 C510.532667,284.554667 510.476667,284.901333 510.364667,285.232 C510.252667,285.562667 510.09,285.856 509.876667,286.112 C509.663334,286.368 509.399334,286.570667 509.084667,286.72 C508.77,286.869333 508.41,286.944 508.004667,286.944 Z M516.596667,288.128 C516.831334,288.128 517.058,288.109333 517.276667,288.072 C517.495334,288.034667 517.695334,287.984 517.876667,287.92 L517.876667,287.92 L517.828667,286.688 C517.700667,286.752 517.556667,286.8 517.396667,286.832 C517.236667,286.864 517.087334,286.88 516.948667,286.88 C516.575334,286.88 516.303334,286.781333 516.132667,286.584 C515.962,286.386667 515.876667,286.058667 515.876667,285.6 L515.876667,285.6 L515.876667,281.648 L517.892667,281.648 L517.892667,280.416 L515.876667,280.416 L515.876667,278.24 L514.388667,278.24 L514.388667,280.416 L512.932667,280.416 L512.932667,281.648 L514.388667,281.648 L514.388667,285.76 C514.388667,286.549333 514.578,287.141333 514.956667,287.536 C515.335334,287.930667 515.882,288.128 516.596667,288.128 Z M520.212667,278.64 C520.49,278.64 520.727334,278.549333 520.924667,278.368 C521.122,278.186667 521.220667,277.957333 521.220667,277.68 C521.220667,277.402667 521.122,277.170667 520.924667,276.984 C520.727334,276.797333 520.49,276.704 520.212667,276.704 C519.935334,276.704 519.700667,276.797333 519.508667,276.984 C519.316667,277.170667 519.220667,277.402667 519.220667,277.68 C519.220667,277.946667 519.316667,278.173333 519.508667,278.36 C519.700667,278.546667 519.935334,278.64 520.212667,278.64 Z M520.964667,288 L520.964667,280.416 L519.460667,280.416 L519.460667,288 L520.964667,288 Z M527.172667,288.208 C527.748667,288.208 528.287334,288.109333 528.788667,287.912 C529.29,287.714667 529.724667,287.437333 530.092667,287.08 C530.460667,286.722667 530.748667,286.298667 530.956667,285.808 C531.164667,285.317333 531.268667,284.778667 531.268667,284.192 C531.268667,283.605333 531.164667,283.069333 530.956667,282.584 C530.748667,282.098667 530.460667,281.68 530.092667,281.328 C529.724667,280.976 529.29,280.701333 528.788667,280.504 C528.287334,280.306667 527.748667,280.208 527.172667,280.208 C526.596667,280.208 526.058,280.306667 525.556667,280.504 C525.055334,280.701333 524.623334,280.976 524.260667,281.328 C523.898,281.68 523.612667,282.098667 523.404667,282.584 C523.196667,283.069333 523.092667,283.605333 523.092667,284.192 C523.092667,284.778667 523.196667,285.317333 523.404667,285.808 C523.612667,286.298667 523.898,286.722667 524.260667,287.08 C524.623334,287.437333 525.055334,287.714667 525.556667,287.912 C526.058,288.109333 526.596667,288.208 527.172667,288.208 Z M527.172667,286.944 C526.767334,286.944 526.407334,286.869333 526.092667,286.72 C525.778,286.570667 525.514,286.368 525.300667,286.112 C525.087334,285.856 524.924667,285.562667 524.812667,285.232 C524.700667,284.901333 524.644667,284.554667 524.644667,284.192 C524.644667,283.829333 524.700667,283.482667 524.812667,283.152 C524.924667,282.821333 525.087334,282.530667 525.300667,282.28 C525.514,282.029333 525.778,281.829333 526.092667,281.68 C526.407334,281.530667 526.767334,281.456 527.172667,281.456 C527.578,281.456 527.938,281.530667 528.252667,281.68 C528.567334,281.829333 528.831334,282.029333 529.044667,282.28 C529.258,282.530667 529.420667,282.821333 529.532667,283.152 C529.644667,283.482667 529.700667,283.829333 529.700667,284.192 C529.700667,284.554667 529.644667,284.901333 529.532667,285.232 C529.420667,285.562667 529.258,285.856 529.044667,286.112 C528.831334,286.368 528.567334,286.570667 528.252667,286.72 C527.938,286.869333 527.578,286.944 527.172667,286.944 Z M534.852667,288 L534.852667,283.968 C534.852667,283.210667 535.042,282.605333 535.420667,282.152 C535.799334,281.698667 536.287334,281.472 536.884667,281.472 C537.236667,281.472 537.524667,281.536 537.748667,281.664 C537.972667,281.792 538.148667,281.962667 538.276667,282.176 C538.404667,282.389333 538.492667,282.634667 538.540667,282.912 C538.588667,283.189333 538.612667,283.482667 538.612667,283.792 L538.612667,283.792 L538.612667,288 L540.116667,288 L540.116667,283.296 C540.116667,282.869333 540.060667,282.469333 539.948667,282.096 C539.836667,281.722667 539.663334,281.397333 539.428667,281.12 C539.194,280.842667 538.900667,280.621333 538.548667,280.456 C538.196667,280.290667 537.775334,280.208 537.284667,280.208 C537.007334,280.208 536.740667,280.245333 536.484667,280.32 C536.228667,280.394667 535.994,280.498667 535.780667,280.632 C535.567334,280.765333 535.378,280.92 535.212667,281.096 C535.047334,281.272 534.916667,281.461333 534.820667,281.664 L534.820667,281.664 L534.772667,281.664 C534.772667,281.504 534.767334,281.304 534.756667,281.064 C534.746,280.824 534.73,280.608 534.708667,280.416 L534.708667,280.416 L533.284667,280.416 C533.306,280.661333 533.322,280.944 533.332667,281.264 C533.343334,281.584 533.348667,281.845333 533.348667,282.048 L533.348667,282.048 L533.348667,288 L534.852667,288 Z" id="path-6"></path>
    </defs>
    <g id="skills" stroke="none" stroke-width="1" fill="none" fill-rule="evenodd">
        <rect fill="#FFFFFF" x="0" y="0" width="910" height="333"></rect>
        <g id="Prototyping" fill-rule="nonzero" fill="#000000">
            <use xlink:href="#path-1"></use>
            <use xlink:href="#path-1"></use>
        </g>
        <g id="Research" fill-rule="nonzero" fill="#000000">
            <use xlink:href="#path-2"></use>
            <use xlink:href="#path-2"></use>
        </g>
        <g id="Interaction" fill-rule="nonzero" fill="#000000">
            <use xlink:href="#path-3"></use>
            <use xlink:href="#path-3"></use>
        </g>
        <g id="Visual" fill-rule="nonzero" fill="#000000">
            <use xlink:href="#path-4"></use>
            <use xlink:href="#path-4"></use>
        </g>
        <g id="Delivery" fill-rule="nonzero" fill="#000000">
            <use xlink:href="#path-5"></use>
            <use xlink:href="#path-5"></use>
        </g>
        <g id="Motion" fill-rule="nonzero" fill="#000000">
            <use xlink:href="#path-6"></use>
            <use xlink:href="#path-6"></use>
        </g>
        <path d="M111,192 C141.375661,192 166,167.375661 166,137 C166,106.624339 141.375661,82 111,82 C80.6243388,82 56,106.624339 56,137 C56,167.375661 80.6243388,192 111,192 Z" id="Oval" stroke="#6B6C72" stroke-width="2" stroke-dasharray="5.01,2.0086"></path>
        <path d="M800,192 C830.375661,192 855,167.375661 855,137 C855,106.624339 830.375661,82 800,82 C769.624339,82 745,106.624339 745,137 C745,167.375661 769.624339,192 800,192 Z" id="Oval" stroke="#6B6C72" stroke-width="2" stroke-dasharray="5.01,2.0086"></path>
        <path d="M216,205 C254.659932,205 286,173.659932 286,135 C286,96.3400675 254.659932,65 216,65 C177.340068,65 146,96.3400675 146,135 C146,173.659932 177.340068,205 216,205 Z" id="Oval" stroke="#6B6C72" stroke-width="2" stroke-dasharray="5.01,2.0086"></path>
        <path d="M361,232 C413.467051,232 456,189.467051 456,137 C456,84.5329488 413.467051,42 361,42 C308.532949,42 266,84.5329488 266,137 C266,189.467051 308.532949,232 361,232 Z" id="Oval" stroke="#6B6C72" stroke-width="2" stroke-dasharray="5.01,2.0086"></path>
        <path d="M670,232 C722.467051,232 765,189.467051 765,137 C765,84.5329488 722.467051,42 670,42 C617.532949,42 575,84.5329488 575,137 C575,189.467051 617.532949,232 670,232 Z" id="Oval" stroke="#6B6C72" stroke-width="2" stroke-dasharray="5.01,2.0086"></path>
        <path d="M515,217 C559.18278,217 595,181.18278 595,137 C595,92.81722 559.18278,57 515,57 C470.81722,57 435,92.81722 435,137 C435,181.18278 470.81722,217 515,217 Z" id="Oval" stroke="#6B6C72" stroke-width="2" stroke-dasharray="5.01,2.0086"></path>
        <path d="M670,42 C709.869977,42 744.00345,66.5608924 758.095671,101.377929 C768.182522,89.5207353 783.21298,82 800,82 C830.375661,82 855,106.624339 855,137 C855,167.375661 830.375661,192 800,192 C783.21298,192 768.182522,184.479265 758.09418,172.623348 C744.00345,207.439108 709.869977,232 670,232 C632.004194,232 599.218255,209.693907 584.022999,177.462537 C570.130717,201.119328 544.419923,217 515,217 C485.967638,217 460.547325,201.534978 446.527612,178.393484 C431.147999,210.122669 398.628862,232 361,232 C321.956864,232 288.414767,208.447253 273.806811,174.774862 C261.17785,193.03626 240.086066,205 216.2,205 C190.114611,205 167.361763,190.731695 155.32025,169.573879 C145.308825,183.174419 129.185075,192 111,192 C80.6243388,192 56,167.375661 56,137 C56,106.624339 80.6243388,82 111,82 C128.432968,82 143.971592,90.1106521 154.048256,102.76434 C165.70834,80.3268777 189.164278,65 216.2,65 C240.779668,65 262.400419,77.6686337 274.888893,96.8325434 C290.018371,64.4423254 322.888342,42 361,42 C398.628862,42 431.147999,63.8773314 446.531847,95.6064287 C460.547325,72.4650221 485.967638,57 515,57 C544.419923,57 570.130717,72.8806719 584.027734,96.5373686 C599.218255,64.3060926 632.004194,42 670,42 Z" id="Combined-Shape" stroke="#6B6C72" stroke-width="2"></path>
    </g>
</svg>