<?xml version="1.0" encoding="UTF-8"?>
<svg width="300px" height="300px" viewBox="0 0 300 300" version="1.1" xmlns="http://www.w3.org/2000/svg" xmlns:xlink="http://www.w3.org/1999/xlink">
    <title>pre_conc</title>
    <g id="pre_conc" stroke="none" stroke-width="1" fill="none" fill-rule="evenodd">
        <g id="computer" transform="translate(8.000000, 8.000000)">
            <path d="M276.553965,57 L244.289385,57 L242.871401,71.1526105 L268.044884,71.1526105 L268.044884,216.924968 L229.398493,216.924968 L54.2471579,216.924968 L15.6007669,216.924968 L15.6007669,71.1526105 L40.77425,71.1526105 L39.356266,57 L7.09109713,57 C3.19090542,57 0,59.8306396 0,63.3690859 L0,240.631501 C0,244.169948 3.19090542,247 7.09109713,247 L276.908903,247 C280.809095,247 284,244.16936 284,240.631501 L284,63.3690859 C283.645063,60.1842493 280.454157,57 276.553965,57 Z" id="Path" fill="#3A556A"></path>
            <polygon id="Path" fill="#3A556A" points="244.572066 71 246 57 39 57 40.427341 71"></polygon>
            <polygon id="Path" fill="#FFFFFF" points="268 217 268 70 242.954156 70 229 217"></polygon>
            <polygon id="Path" fill="#FFFFFF" points="53.841043 216 229.158957 216 243 70 40 70"></polygon>
            <g id="Group" transform="translate(15.000000, 0.000000)">
                <rect id="Rectangle" fill="#EBF0F3" x="39" y="0" width="175" height="217"></rect>
                <polygon id="Path" fill="#FFFFFF" points="0 70 0 217 39 217 25.0456318 70"></polygon>
            </g>
            <path d="M90.4844302,29 L68.4230661,29 C67.7112377,29 67,29.6830789 67,30.7074139 L67,41.2925861 C67,42.3169211 67.7118284,43 68.4230661,43 L90.4844302,43 C91.1962586,43 91.9074963,42.3169211 91.9074963,41.2925861 L91.9074963,30.365591 C92.2631151,29.682512 91.5518775,29 90.4844302,29 Z" id="Path" fill="#FCD462"></path>
            <path d="M121.571649,29 L99.4283512,29 C98.7138791,29 98,29.6830789 98,30.7074139 L98,41.2925861 C98,42.3169211 98.7144721,43 99.4283512,43 L121.571649,43 C122.286121,43 123,42.3169211 123,41.2925861 L123,30.365591 C123,29.682512 122.286121,29 121.571649,29 Z" id="Path" fill="#E56353"></path>
            <path d="M152.571648,29 L130.428351,29 C129.713879,29 129,29.6830789 129,30.7074139 L129,41.2925861 C129,42.3169211 129.714472,43 130.428351,43 L152.571648,43 C153.286121,43 154,42.3169211 154,41.2925861 L154,30.365591 C154.000593,29.682512 153.286121,29 152.571648,29 Z" id="Path" fill="#FFA126"></path>
            <path d="M184.571649,29 L162.428351,29 C161.713879,29 161,29.6830789 161,30.7074139 L161,41.2925861 C161,42.3169211 161.714472,43 162.428351,43 L184.571649,43 C185.286121,43 186,42.3169211 186,41.2925861 L186,30.365591 C186,29.682512 185.285528,29 184.571649,29 Z" id="Path" fill="#27A2DB"></path>
            <g id="Group" transform="translate(53.000000, 29.000000)">
                <path d="M161.961933,0.0538857143 L139.905235,0.0538857143 C139.193557,0.0538857143 138.48247,0.759671429 138.48247,1.81805714 L138.48247,12.7551 C138.48247,13.8134857 139.194148,14.5192714 139.905235,14.5192714 L161.961933,14.5192714 C162.673611,14.5192714 163.384698,13.8134857 163.384698,12.7551 L163.384698,1.46487143 C163.384698,0.759085714 162.67302,0.0538857143 161.961933,0.0538857143 Z" id="Path" fill="#64798A"></path>
                <rect id="Rectangle" fill="#0875E1" x="0.0944966443" y="19.8112" width="175.741315" height="61.7413143"></rect>
            </g>
            <rect id="Rectangle" fill="#FCD462" x="67" y="117" width="44" height="44"></rect>
            <rect id="Rectangle" fill="#A6CDFF" x="120" y="117" width="44" height="44"></rect>
            <rect id="Rectangle" fill="#1894C9" x="172" y="117" width="44" height="44"></rect>
            <rect id="Rectangle" fill="#F6C358" x="67" y="155" width="44" height="6"></rect>
            <rect id="Rectangle" fill="#3881E1" x="120" y="155" width="44" height="6"></rect>
            <rect id="Rectangle" fill="#0271A1" x="172" y="155" width="44" height="6"></rect>
            <g id="Group" transform="translate(66.000000, 175.000000)" fill="#E1E6E9">
                <rect id="Rectangle" x="0.141796875" y="0.152780488" width="43.7648437" height="5.99414634"></rect>
                <rect id="Rectangle" x="53.0830078" y="0.152780488" width="43.7648437" height="5.99414634"></rect>
                <rect id="Rectangle" x="106.024219" y="0.152780488" width="43.7648438" height="5.99414634"></rect>
                <rect id="Rectangle" x="0.141796875" y="17.7828293" width="21.8824219" height="5.99414634"></rect>
                <rect id="Rectangle" x="53.0830078" y="17.7828293" width="17.2939453" height="5.99414634"></rect>
                <rect id="Rectangle" x="106.024219" y="17.7828293" width="21.8824219" height="5.99414634"></rect>
            </g>
            <rect id="Rectangle" fill="#0875E1" x="54" y="0" width="175" height="24"></rect>
            <rect id="Rectangle" fill="#EBF0F3" x="65" y="5" width="102" height="12"></rect>
            <circle id="Oval" fill="#FCD462" cx="178.5" cy="11.5" r="6.5"></circle>
            <circle id="Oval" fill="#44C4A1" cx="194.5" cy="11.5" r="6.5"></circle>
            <circle id="Oval" fill="#E56353" cx="212.5" cy="11.5" r="6.5"></circle>
            <g id="Group" transform="translate(87.000000, 221.000000)" fill="#2F4859">
                <ellipse id="Oval" cx="54.4654247" cy="10.0080625" rx="10.9427796" ry="9.908775"></ellipse>
                <rect id="Rectangle" x="0.104897849" y="25.9328375" width="108.368269" height="20.8791625"></rect>
            </g>
            <path d="M218.332397,267 L65.3130098,267 C62.4792086,267 60,269.133255 60,271.977791 L60,283 L224,283 L224,271.977791 C224,269.133255 221.520791,267 218.332397,267 Z" id="Path" fill="#3A556A"></path>
        </g>
    </g>
</svg>