<?xml version="1.0" encoding="UTF-8"?>
<svg width="1060px" height="662px" viewBox="0 0 1060 662" version="1.1" xmlns="http://www.w3.org/2000/svg" xmlns:xlink="http://www.w3.org/1999/xlink">
    <title>comp_designPatterns</title>
    <g id="comp_designPatterns" stroke="none" stroke-width="1" fill="none" fill-rule="evenodd">
        <rect fill="#FFFFFF" x="0" y="0" width="1060" height="662"></rect>
        <g id="Group" transform="translate(40.000000, 77.000000)" stroke-width="3">
            <rect id="Rectangle" stroke="#A1AEC6" fill="#D9E0EA" x="0" y="0" width="979" height="511" rx="4"></rect>
            <rect id="Rectangle" stroke="#4ACC6B" fill="#C7F7D3" x="17" y="71" width="172" height="428" rx="4"></rect>
            <rect id="Rectangle" stroke="#60B5E2" fill="#C3E5F7" x="203" y="71" width="572" height="428" rx="4"></rect>
            <rect id="Rectangle" stroke="#D64FC9" fill="#E8C1E4" x="789" y="71" width="172" height="428" rx="4"></rect>
            <rect id="Rectangle" stroke="#C2B83F" fill="#FCF9D5" x="17" y="12" width="943" height="45" rx="4"></rect>
        </g>
        <circle id="Oval" fill="#063763" cx="76" cy="166" r="10"></circle>
        <circle id="Oval" fill="#063763" cx="261" cy="559" r="10"></circle>
        <circle id="Oval" fill="#063763" cx="985" cy="559" r="10"></circle>
        <circle id="Oval" fill="#063763" cx="984" cy="105" r="10"></circle>
        <line x1="985" y1="105" x2="929" y2="58" id="Line" stroke="#063763" stroke-width="2" stroke-linecap="round" stroke-linejoin="round"></line>
        <line x1="929" y1="57.5" x2="793" y2="57.5" id="Line" stroke="#063763" stroke-width="2" stroke-linecap="round" stroke-linejoin="round"></line>
        <path d="M811.012615,50 L812.148615,47.216 L817.524615,47.216 L818.676615,50 L820.468615,50 L815.604615,38.672 L814.164615,38.672 L809.252615,50 L811.012615,50 Z M816.948615,45.824 L812.708615,45.824 L814.836615,40.512 L816.948615,45.824 Z M825.379385,50.208 C826.595385,50.208 827.571385,49.76 828.211385,49.024 L827.203385,48.112 C826.803385,48.624 826.147385,48.944 825.379385,48.944 C823.795385,48.944 822.883385,47.648 822.883385,46.208 C822.883385,44.752 823.795385,43.472 825.363385,43.472 C826.083385,43.472 826.787385,43.84 827.107385,44.336 L828.195385,43.456 C827.571385,42.64 826.419385,42.208 825.347385,42.208 C823.027385,42.208 821.299385,43.824 821.299385,46.208 C821.299385,48.624 823.043385,50.208 825.379385,50.208 Z M832.066154,50.128 C832.530154,50.128 832.994154,50.048 833.346154,49.92 L833.298154,48.688 C833.042154,48.816 832.690154,48.88 832.418154,48.88 C831.666154,48.88 831.346154,48.512 831.346154,47.6 L831.346154,43.648 L833.362154,43.648 L833.362154,42.416 L831.346154,42.416 L831.346154,40.24 L829.858154,40.24 L829.858154,42.416 L828.402154,42.416 L828.402154,43.648 L829.858154,43.648 L829.858154,47.76 C829.858154,49.328 830.642154,50.128 832.066154,50.128 Z M835.632923,40.64 C836.176923,40.64 836.640923,40.224 836.640923,39.68 C836.640923,39.12 836.176923,38.704 835.632923,38.704 C835.088923,38.704 834.640923,39.136 834.640923,39.68 C834.640923,40.208 835.088923,40.64 835.632923,40.64 Z M836.384923,50 L836.384923,42.416 L834.880923,42.416 L834.880923,50 L836.384923,50 Z M842.543692,50.208 C844.863692,50.208 846.639692,48.528 846.639692,46.192 C846.639692,43.856 844.863692,42.208 842.543692,42.208 C840.223692,42.208 838.463692,43.856 838.463692,46.192 C838.463692,48.528 840.223692,50.208 842.543692,50.208 Z M842.543692,48.944 C840.927692,48.944 840.015692,47.632 840.015692,46.192 C840.015692,44.752 840.927692,43.456 842.543692,43.456 C844.175692,43.456 845.071692,44.752 845.071692,46.192 C845.071692,47.632 844.175692,48.944 842.543692,48.944 Z M850.174462,50 L850.174462,45.968 C850.174462,44.464 851.022462,43.472 852.206462,43.472 C853.598462,43.472 853.934462,44.56 853.934462,45.792 L853.934462,50 L855.438462,50 L855.438462,45.296 C855.438462,43.6 854.558462,42.208 852.606462,42.208 C851.518462,42.208 850.510462,42.848 850.142462,43.664 L850.094462,43.664 C850.094462,43.344 850.062462,42.8 850.030462,42.416 L848.606462,42.416 C848.654462,42.912 848.670462,43.648 848.670462,44.048 L848.670462,50 L850.174462,50 Z M864.3,50.128 C864.764,50.128 865.228,50.048 865.58,49.92 L865.532,48.688 C865.276,48.816 864.924,48.88 864.652,48.88 C863.9,48.88 863.58,48.512 863.58,47.6 L863.58,43.648 L865.596,43.648 L865.596,42.416 L863.58,42.416 L863.58,40.24 L862.092,40.24 L862.092,42.416 L860.636,42.416 L860.636,43.648 L862.092,43.648 L862.092,47.76 C862.092,49.328 862.876,50.128 864.3,50.128 Z M870.682769,50.208 C873.002769,50.208 874.778769,48.528 874.778769,46.192 C874.778769,43.856 873.002769,42.208 870.682769,42.208 C868.362769,42.208 866.602769,43.856 866.602769,46.192 C866.602769,48.528 868.362769,50.208 870.682769,50.208 Z M870.682769,48.944 C869.066769,48.944 868.154769,47.632 868.154769,46.192 C868.154769,44.752 869.066769,43.456 870.682769,43.456 C872.314769,43.456 873.210769,44.752 873.210769,46.192 C873.210769,47.632 872.314769,48.944 870.682769,48.944 Z M880.393538,50.208 C882.713538,50.208 884.489538,48.528 884.489538,46.192 C884.489538,43.856 882.713538,42.208 880.393538,42.208 C878.073538,42.208 876.313538,43.856 876.313538,46.192 C876.313538,48.528 878.073538,50.208 880.393538,50.208 Z M880.393538,48.944 C878.777538,48.944 877.865538,47.632 877.865538,46.192 C877.865538,44.752 878.777538,43.456 880.393538,43.456 C882.025538,43.456 882.921538,44.752 882.921538,46.192 C882.921538,47.632 882.025538,48.944 880.393538,48.944 Z M888.056308,50 L888.056308,37.904 L886.552308,37.904 L886.552308,50 L888.056308,50 Z M894.887077,50.208 C897.223077,50.208 898.711077,48.416 898.711077,46.192 C898.711077,43.952 897.175077,42.208 894.919077,42.208 C893.671077,42.208 892.727077,42.816 892.215077,43.552 L892.167077,43.552 L892.167077,37.904 L890.663077,37.904 L890.663077,50 L892.119077,50 L892.119077,48.8 L892.151077,48.8 C892.743077,49.712 893.815077,50.208 894.887077,50.208 Z M894.631077,48.944 C893.095077,48.944 892.071077,47.664 892.071077,46.208 C892.071077,44.752 893.095077,43.456 894.631077,43.456 C896.279077,43.456 897.159077,44.768 897.159077,46.192 C897.159077,47.616 896.279077,48.944 894.631077,48.944 Z M902.949846,50.192 C904.085846,50.192 904.949846,49.728 905.493846,48.912 L905.541846,48.912 C905.541846,49.264 905.589846,49.664 905.669846,50 L907.029846,50 C906.949846,49.632 906.917846,49.008 906.917846,48.496 L906.917846,45.184 C906.917846,43.504 905.925846,42.208 903.749846,42.208 C902.517846,42.208 901.381846,42.64 900.645846,43.344 L901.445846,44.304 C901.957846,43.792 902.757846,43.424 903.605846,43.424 C904.725846,43.424 905.477846,43.968 905.477846,45.088 L905.477846,45.296 C902.917846,45.296 900.197846,45.568 900.197846,47.856 C900.197846,49.6 901.749846,50.192 902.949846,50.192 Z M903.285846,49.008 C902.533846,49.008 901.733846,48.72 901.733846,47.824 C901.733846,46.544 903.621846,46.384 905.109846,46.384 L905.477846,46.384 L905.477846,46.784 C905.477846,48.064 904.693846,49.008 903.285846,49.008 Z M910.884615,50 L910.884615,46.016 C910.884615,44.752 911.572615,43.584 913.012615,43.584 C913.252615,43.584 913.508615,43.616 913.700615,43.664 L913.764615,42.272 C913.588615,42.224 913.380615,42.208 913.172615,42.208 C912.148615,42.208 911.268615,42.816 910.852615,43.696 L910.804615,43.696 C910.804615,43.376 910.772615,42.8 910.740615,42.416 L909.316615,42.416 C909.364615,42.912 909.380615,43.648 909.380615,44.048 L909.380615,50 L910.884615,50 Z" id="Actiontoolbar" fill="#000000" fill-rule="nonzero"></path>
        <line x1="261" y1="559" x2="302" y2="626" id="Line" stroke="#063763" stroke-width="2" stroke-linecap="round" stroke-linejoin="round"></line>
        <line x1="430" y1="626.5" x2="302" y2="626.5" id="Line" stroke="#063763" stroke-width="2" stroke-linecap="round" stroke-linejoin="round"></line>
        <path d="M321.984615,618 L321.984615,616.592 L316.064615,616.592 L316.064615,612.816 L321.408615,612.816 L321.408615,611.456 L316.064615,611.456 L316.064615,608.064 L321.744615,608.064 L321.744615,606.672 L314.480615,606.672 L314.480615,618 L321.984615,618 Z M327.279385,618.208 C328.351385,618.208 329.439385,617.712 330.015385,616.8 L330.047385,616.8 L330.047385,618 L331.503385,618 L331.503385,605.904 L329.999385,605.904 L329.999385,611.552 L329.967385,611.552 C329.439385,610.816 328.495385,610.208 327.263385,610.208 C324.991385,610.208 323.455385,611.952 323.455385,614.192 C323.455385,616.416 324.943385,618.208 327.279385,618.208 Z M327.535385,616.944 C325.887385,616.944 325.023385,615.616 325.023385,614.192 C325.023385,612.768 325.887385,611.456 327.535385,611.456 C329.071385,611.456 330.095385,612.752 330.095385,614.208 C330.095385,615.664 329.071385,616.944 327.535385,616.944 Z M334.846154,608.64 C335.390154,608.64 335.854154,608.224 335.854154,607.68 C335.854154,607.12 335.390154,606.704 334.846154,606.704 C334.302154,606.704 333.854154,607.136 333.854154,607.68 C333.854154,608.208 334.302154,608.64 334.846154,608.64 Z M335.598154,618 L335.598154,610.416 L334.094154,610.416 L334.094154,618 L335.598154,618 Z M340.588923,618.128 C341.052923,618.128 341.516923,618.048 341.868923,617.92 L341.820923,616.688 C341.564923,616.816 341.212923,616.88 340.940923,616.88 C340.188923,616.88 339.868923,616.512 339.868923,615.6 L339.868923,611.648 L341.884923,611.648 L341.884923,610.416 L339.868923,610.416 L339.868923,608.24 L338.380923,608.24 L338.380923,610.416 L336.924923,610.416 L336.924923,611.648 L338.380923,611.648 L338.380923,615.76 C338.380923,617.328 339.164923,618.128 340.588923,618.128 Z M344.155692,608.64 C344.699692,608.64 345.163692,608.224 345.163692,607.68 C345.163692,607.12 344.699692,606.704 344.155692,606.704 C343.611692,606.704 343.163692,607.136 343.163692,607.68 C343.163692,608.208 343.611692,608.64 344.155692,608.64 Z M344.907692,618 L344.907692,610.416 L343.403692,610.416 L343.403692,618 L344.907692,618 Z M348.986462,618 L348.986462,613.968 C348.986462,612.464 349.834462,611.472 351.018462,611.472 C352.410462,611.472 352.746462,612.56 352.746462,613.792 L352.746462,618 L354.250462,618 L354.250462,613.296 C354.250462,611.6 353.370462,610.208 351.418462,610.208 C350.330462,610.208 349.322462,610.848 348.954462,611.664 L348.906462,611.664 C348.906462,611.344 348.874462,610.8 348.842462,610.416 L347.418462,610.416 C347.466462,610.912 347.482462,611.648 347.482462,612.048 L347.482462,618 L348.986462,618 Z M360.089231,621.84 C363.241231,621.84 364.281231,619.824 364.281231,617.616 L364.281231,610.416 L362.825231,610.416 L362.825231,611.632 L362.793231,611.632 C362.217231,610.688 361.145231,610.208 360.057231,610.208 C357.737231,610.208 356.249231,611.984 356.249231,614.16 C356.249231,616.336 357.753231,618.064 360.073231,618.064 C361.145231,618.064 362.185231,617.6 362.745231,616.752 L362.777231,616.752 L362.777231,617.728 C362.777231,619.296 362.105231,620.528 360.105231,620.528 C359.065231,620.528 357.993231,620.032 357.337231,619.296 L356.377231,620.464 C357.321231,621.328 358.777231,621.84 360.089231,621.84 Z M360.313231,616.8 C358.729231,616.8 357.801231,615.52 357.801231,614.128 C357.801231,612.672 358.729231,611.456 360.313231,611.456 C361.849231,611.456 362.889231,612.688 362.889231,614.128 C362.889231,615.632 361.865231,616.8 360.313231,616.8 Z M374.342769,618.208 C375.558769,618.208 376.534769,617.76 377.174769,617.024 L376.166769,616.112 C375.766769,616.624 375.110769,616.944 374.342769,616.944 C372.758769,616.944 371.846769,615.648 371.846769,614.208 C371.846769,612.752 372.758769,611.472 374.326769,611.472 C375.046769,611.472 375.750769,611.84 376.070769,612.336 L377.158769,611.456 C376.534769,610.64 375.382769,610.208 374.310769,610.208 C371.990769,610.208 370.262769,611.824 370.262769,614.208 C370.262769,616.624 372.006769,618.208 374.342769,618.208 Z M380.805538,618.192 C381.941538,618.192 382.805538,617.728 383.349538,616.912 L383.397538,616.912 C383.397538,617.264 383.445538,617.664 383.525538,618 L384.885538,618 C384.805538,617.632 384.773538,617.008 384.773538,616.496 L384.773538,613.184 C384.773538,611.504 383.781538,610.208 381.605538,610.208 C380.373538,610.208 379.237538,610.64 378.501538,611.344 L379.301538,612.304 C379.813538,611.792 380.613538,611.424 381.461538,611.424 C382.581538,611.424 383.333538,611.968 383.333538,613.088 L383.333538,613.296 C380.773538,613.296 378.053538,613.568 378.053538,615.856 C378.053538,617.6 379.605538,618.192 380.805538,618.192 Z M381.141538,617.008 C380.389538,617.008 379.589538,616.72 379.589538,615.824 C379.589538,614.544 381.477538,614.384 382.965538,614.384 L383.333538,614.384 L383.333538,614.784 C383.333538,616.064 382.549538,617.008 381.141538,617.008 Z M388.740308,618 L388.740308,613.968 C388.740308,612.464 389.588308,611.472 390.772308,611.472 C392.164308,611.472 392.500308,612.56 392.500308,613.792 L392.500308,618 L394.004308,618 L394.004308,613.296 C394.004308,611.6 393.124308,610.208 391.172308,610.208 C390.084308,610.208 389.076308,610.848 388.708308,611.664 L388.660308,611.664 C388.660308,611.344 388.628308,610.8 388.596308,610.416 L387.172308,610.416 C387.220308,610.912 387.236308,611.648 387.236308,612.048 L387.236308,618 L388.740308,618 Z M400.067077,618 L403.107077,610.416 L401.507077,610.416 L399.267077,616.384 L399.235077,616.384 L397.011077,610.416 L395.347077,610.416 L398.435077,618 L400.067077,618 Z M406.705846,618.192 C407.841846,618.192 408.705846,617.728 409.249846,616.912 L409.297846,616.912 C409.297846,617.264 409.345846,617.664 409.425846,618 L410.785846,618 C410.705846,617.632 410.673846,617.008 410.673846,616.496 L410.673846,613.184 C410.673846,611.504 409.681846,610.208 407.505846,610.208 C406.273846,610.208 405.137846,610.64 404.401846,611.344 L405.201846,612.304 C405.713846,611.792 406.513846,611.424 407.361846,611.424 C408.481846,611.424 409.233846,611.968 409.233846,613.088 L409.233846,613.296 C406.673846,613.296 403.953846,613.568 403.953846,615.856 C403.953846,617.6 405.505846,618.192 406.705846,618.192 Z M407.041846,617.008 C406.289846,617.008 405.489846,616.72 405.489846,615.824 C405.489846,614.544 407.377846,614.384 408.865846,614.384 L409.233846,614.384 L409.233846,614.784 C409.233846,616.064 408.449846,617.008 407.041846,617.008 Z M415.312615,618.208 C416.848615,618.208 418.336615,617.552 418.336615,615.76 C418.336615,614.432 417.232615,613.84 415.792615,613.52 C414.640615,613.264 414.064615,613.024 414.064615,612.384 C414.064615,611.664 414.784615,611.392 415.472615,611.392 C416.240615,611.392 416.896615,611.792 417.232615,612.336 L418.272615,611.456 C417.728615,610.64 416.592615,610.208 415.520615,610.208 C414.080615,610.208 412.656615,610.896 412.656615,612.528 C412.656615,613.952 413.856615,614.384 414.864615,614.624 C416.160615,614.928 416.848615,615.184 416.848615,615.888 C416.848615,616.72 416.096615,616.992 415.344615,616.992 C414.496615,616.992 413.728615,616.528 413.328615,615.936 L412.256615,616.848 C412.976615,617.76 414.160615,618.208 415.312615,618.208 Z" id="Editingcanvas" fill="#000000" fill-rule="nonzero"></path>
        <line x1="957" y1="626" x2="986" y2="559" id="Line" stroke="#063763" stroke-width="2" stroke-linecap="round" stroke-linejoin="round"></line>
        <line x1="957" y1="626.5" x2="784" y2="626.5" id="Line" stroke="#063763" stroke-width="2" stroke-linecap="round" stroke-linejoin="round"></line>
        <path d="M800.32,618.288 C802.336,618.288 804.24,617.2 804.24,614.848 C804.24,612.592 802.432,612.016 800.912,611.536 C799.632,611.12 798.592,610.784 798.592,609.552 C798.592,608.272 799.776,607.712 800.8,607.712 C801.744,607.712 802.56,608.144 803.008,608.768 L804.128,607.68 C803.424,606.896 802.192,606.384 800.88,606.384 C799.008,606.384 796.992,607.36 796.992,609.616 C796.992,611.696 798.496,612.352 799.936,612.8 C801.376,613.248 802.624,613.616 802.624,614.992 C802.624,616.336 801.408,616.928 800.352,616.928 C799.312,616.928 798.352,616.384 797.824,615.6 L796.592,616.64 C797.456,617.728 798.896,618.288 800.32,618.288 Z M809.854769,618.208 C811.198769,618.208 812.302769,617.712 813.118769,616.656 L812.062769,615.808 C811.630769,616.448 810.878769,616.96 809.854769,616.96 C808.526769,616.96 807.438769,615.952 807.390769,614.656 L813.406769,614.656 C813.422769,614.48 813.422769,614.304 813.422769,614.144 C813.422769,611.728 812.014769,610.208 809.774769,610.208 C807.550769,610.208 805.854769,611.856 805.854769,614.224 C805.854769,616.608 807.550769,618.208 809.854769,618.208 Z M811.902769,613.536 L807.390769,613.536 C807.486769,612.352 808.478769,611.392 809.774769,611.392 C811.166769,611.392 811.870769,612.336 811.902769,613.536 Z M817.005538,618 L817.005538,605.904 L815.501538,605.904 L815.501538,618 L817.005538,618 Z M823.084308,618.208 C824.428308,618.208 825.532308,617.712 826.348308,616.656 L825.292308,615.808 C824.860308,616.448 824.108308,616.96 823.084308,616.96 C821.756308,616.96 820.668308,615.952 820.620308,614.656 L826.636308,614.656 C826.652308,614.48 826.652308,614.304 826.652308,614.144 C826.652308,611.728 825.244308,610.208 823.004308,610.208 C820.780308,610.208 819.084308,611.856 819.084308,614.224 C819.084308,616.608 820.780308,618.208 823.084308,618.208 Z M825.132308,613.536 L820.620308,613.536 C820.716308,612.352 821.708308,611.392 823.004308,611.392 C824.396308,611.392 825.100308,612.336 825.132308,613.536 Z M832.283077,618.208 C833.499077,618.208 834.475077,617.76 835.115077,617.024 L834.107077,616.112 C833.707077,616.624 833.051077,616.944 832.283077,616.944 C830.699077,616.944 829.787077,615.648 829.787077,614.208 C829.787077,612.752 830.699077,611.472 832.267077,611.472 C832.987077,611.472 833.691077,611.84 834.011077,612.336 L835.099077,611.456 C834.475077,610.64 833.323077,610.208 832.251077,610.208 C829.931077,610.208 828.203077,611.824 828.203077,614.208 C828.203077,616.624 829.947077,618.208 832.283077,618.208 Z M838.969846,618.128 C839.433846,618.128 839.897846,618.048 840.249846,617.92 L840.201846,616.688 C839.945846,616.816 839.593846,616.88 839.321846,616.88 C838.569846,616.88 838.249846,616.512 838.249846,615.6 L838.249846,611.648 L840.265846,611.648 L840.265846,610.416 L838.249846,610.416 L838.249846,608.24 L836.761846,608.24 L836.761846,610.416 L835.305846,610.416 L835.305846,611.648 L836.761846,611.648 L836.761846,615.76 C836.761846,617.328 837.545846,618.128 838.969846,618.128 Z M842.536615,608.64 C843.080615,608.64 843.544615,608.224 843.544615,607.68 C843.544615,607.12 843.080615,606.704 842.536615,606.704 C841.992615,606.704 841.544615,607.136 841.544615,607.68 C841.544615,608.208 841.992615,608.64 842.536615,608.64 Z M843.288615,618 L843.288615,610.416 L841.784615,610.416 L841.784615,618 L843.288615,618 Z M849.447385,618.208 C851.767385,618.208 853.543385,616.528 853.543385,614.192 C853.543385,611.856 851.767385,610.208 849.447385,610.208 C847.127385,610.208 845.367385,611.856 845.367385,614.192 C845.367385,616.528 847.127385,618.208 849.447385,618.208 Z M849.447385,616.944 C847.831385,616.944 846.919385,615.632 846.919385,614.192 C846.919385,612.752 847.831385,611.456 849.447385,611.456 C851.079385,611.456 851.975385,612.752 851.975385,614.192 C851.975385,615.632 851.079385,616.944 849.447385,616.944 Z M857.078154,618 L857.078154,613.968 C857.078154,612.464 857.926154,611.472 859.110154,611.472 C860.502154,611.472 860.838154,612.56 860.838154,613.792 L860.838154,618 L862.342154,618 L862.342154,613.296 C862.342154,611.6 861.462154,610.208 859.510154,610.208 C858.422154,610.208 857.414154,610.848 857.046154,611.664 L856.998154,611.664 C856.998154,611.344 856.966154,610.8 856.934154,610.416 L855.510154,610.416 C855.558154,610.912 855.574154,611.648 855.574154,612.048 L855.574154,618 L857.078154,618 Z M870.291692,621.84 L870.291692,616.864 L870.339692,616.864 C870.899692,617.712 871.939692,618.208 873.011692,618.208 C875.347692,618.208 876.835692,616.416 876.835692,614.192 C876.835692,611.952 875.299692,610.208 873.043692,610.208 C871.795692,610.208 870.803692,610.8 870.307692,611.6 L870.259692,611.6 L870.259692,610.416 L868.787692,610.416 L868.787692,621.84 L870.291692,621.84 Z M872.755692,616.944 C871.219692,616.944 870.195692,615.664 870.195692,614.208 C870.195692,612.752 871.219692,611.456 872.755692,611.456 C874.403692,611.456 875.283692,612.768 875.283692,614.192 C875.283692,615.616 874.403692,616.944 872.755692,616.944 Z M880.386461,618 L880.386461,614.016 C880.386461,612.752 881.074461,611.584 882.514461,611.584 C882.754461,611.584 883.010461,611.616 883.202461,611.664 L883.266461,610.272 C883.090461,610.224 882.882461,610.208 882.674461,610.208 C881.650461,610.208 880.770461,610.816 880.354461,611.696 L880.306461,611.696 C880.306461,611.376 880.274461,610.8 880.242461,610.416 L878.818461,610.416 C878.866461,610.912 878.882461,611.648 878.882461,612.048 L878.882461,618 L880.386461,618 Z M887.921231,618.208 C890.241231,618.208 892.017231,616.528 892.017231,614.192 C892.017231,611.856 890.241231,610.208 887.921231,610.208 C885.601231,610.208 883.841231,611.856 883.841231,614.192 C883.841231,616.528 885.601231,618.208 887.921231,618.208 Z M887.921231,616.944 C886.305231,616.944 885.393231,615.632 885.393231,614.192 C885.393231,612.752 886.305231,611.456 887.921231,611.456 C889.553231,611.456 890.449231,612.752 890.449231,614.192 C890.449231,615.632 889.553231,616.944 887.921231,616.944 Z M895.552,621.84 L895.552,616.864 L895.6,616.864 C896.16,617.712 897.2,618.208 898.272,618.208 C900.608,618.208 902.096,616.416 902.096,614.192 C902.096,611.952 900.56,610.208 898.304,610.208 C897.056,610.208 896.064,610.8 895.568,611.6 L895.52,611.6 L895.52,610.416 L894.048,610.416 L894.048,621.84 L895.552,621.84 Z M898.016,616.944 C896.48,616.944 895.456,615.664 895.456,614.208 C895.456,612.752 896.48,611.456 898.016,611.456 C899.664,611.456 900.544,612.768 900.544,614.192 C900.544,615.616 899.664,616.944 898.016,616.944 Z M907.646769,618.208 C908.990769,618.208 910.094769,617.712 910.910769,616.656 L909.854769,615.808 C909.422769,616.448 908.670769,616.96 907.646769,616.96 C906.318769,616.96 905.230769,615.952 905.182769,614.656 L911.198769,614.656 C911.214769,614.48 911.214769,614.304 911.214769,614.144 C911.214769,611.728 909.806769,610.208 907.566769,610.208 C905.342769,610.208 903.646769,611.856 903.646769,614.224 C903.646769,616.608 905.342769,618.208 907.646769,618.208 Z M909.694769,613.536 L905.182769,613.536 C905.278769,612.352 906.270769,611.392 907.566769,611.392 C908.958769,611.392 909.662769,612.336 909.694769,613.536 Z M914.765538,618 L914.765538,614.016 C914.765538,612.752 915.453538,611.584 916.893538,611.584 C917.133538,611.584 917.389538,611.616 917.581538,611.664 L917.645538,610.272 C917.469538,610.224 917.261538,610.208 917.053538,610.208 C916.029538,610.208 915.149538,610.816 914.733538,611.696 L914.685538,611.696 C914.685538,611.376 914.653538,610.8 914.621538,610.416 L913.197538,610.416 C913.245538,610.912 913.261538,611.648 913.261538,612.048 L913.261538,618 L914.765538,618 Z M921.228307,618.128 C921.692307,618.128 922.156307,618.048 922.508307,617.92 L922.460307,616.688 C922.204307,616.816 921.852307,616.88 921.580307,616.88 C920.828307,616.88 920.508307,616.512 920.508307,615.6 L920.508307,611.648 L922.524307,611.648 L922.524307,610.416 L920.508307,610.416 L920.508307,608.24 L919.020307,608.24 L919.020307,610.416 L917.564307,610.416 L917.564307,611.648 L919.020307,611.648 L919.020307,615.76 C919.020307,617.328 919.804307,618.128 921.228307,618.128 Z M924.795077,608.64 C925.339077,608.64 925.803077,608.224 925.803077,607.68 C925.803077,607.12 925.339077,606.704 924.795077,606.704 C924.251077,606.704 923.803077,607.136 923.803077,607.68 C923.803077,608.208 924.251077,608.64 924.795077,608.64 Z M925.547077,618 L925.547077,610.416 L924.043077,610.416 L924.043077,618 L925.547077,618 Z M931.625846,618.208 C932.969846,618.208 934.073846,617.712 934.889846,616.656 L933.833846,615.808 C933.401846,616.448 932.649846,616.96 931.625846,616.96 C930.297846,616.96 929.209846,615.952 929.161846,614.656 L935.177846,614.656 C935.193846,614.48 935.193846,614.304 935.193846,614.144 C935.193846,611.728 933.785846,610.208 931.545846,610.208 C929.321846,610.208 927.625846,611.856 927.625846,614.224 C927.625846,616.608 929.321846,618.208 931.625846,618.208 Z M933.673846,613.536 L929.161846,613.536 C929.257846,612.352 930.249846,611.392 931.545846,611.392 C932.937846,611.392 933.641846,612.336 933.673846,613.536 Z M939.416615,618.208 C940.952615,618.208 942.440615,617.552 942.440615,615.76 C942.440615,614.432 941.336615,613.84 939.896615,613.52 C938.744615,613.264 938.168615,613.024 938.168615,612.384 C938.168615,611.664 938.888615,611.392 939.576615,611.392 C940.344615,611.392 941.000615,611.792 941.336615,612.336 L942.376615,611.456 C941.832615,610.64 940.696615,610.208 939.624615,610.208 C938.184615,610.208 936.760615,610.896 936.760615,612.528 C936.760615,613.952 937.960615,614.384 938.968615,614.624 C940.264615,614.928 940.952615,615.184 940.952615,615.888 C940.952615,616.72 940.200615,616.992 939.448615,616.992 C938.600615,616.992 937.832615,616.528 937.432615,615.936 L936.360615,616.848 C937.080615,617.76 938.264615,618.208 939.416615,618.208 Z" id="Selectionproperties" fill="#000000" fill-rule="nonzero"></path>
        <line x1="126" y1="57" x2="76" y2="166" id="Line" stroke="#063763" stroke-width="2" stroke-linecap="round" stroke-linejoin="round"></line>
        <line x1="295.5" y1="57.5" x2="126" y2="57.5" id="Line" stroke="#063763" stroke-width="2" stroke-linecap="round" stroke-linejoin="round"></line>
        <path d="M146.171077,50 L146.171077,48.592 L141.115077,48.592 L141.115077,38.672 L139.531077,38.672 L139.531077,50 L146.171077,50 Z M149.769846,50.192 C150.905846,50.192 151.769846,49.728 152.313846,48.912 L152.361846,48.912 C152.361846,49.264 152.409846,49.664 152.489846,50 L153.849846,50 C153.769846,49.632 153.737846,49.008 153.737846,48.496 L153.737846,45.184 C153.737846,43.504 152.745846,42.208 150.569846,42.208 C149.337846,42.208 148.201846,42.64 147.465846,43.344 L148.265846,44.304 C148.777846,43.792 149.577846,43.424 150.425846,43.424 C151.545846,43.424 152.297846,43.968 152.297846,45.088 L152.297846,45.296 C149.737846,45.296 147.017846,45.568 147.017846,47.856 C147.017846,49.6 148.569846,50.192 149.769846,50.192 Z M150.105846,49.008 C149.353846,49.008 148.553846,48.72 148.553846,47.824 C148.553846,46.544 150.441846,46.384 151.929846,46.384 L152.297846,46.384 L152.297846,46.784 C152.297846,48.064 151.513846,49.008 150.105846,49.008 Z M156.504615,53.84 C157.992615,53.84 158.632615,53.056 159.128615,51.792 L162.808615,42.416 L161.208615,42.416 L159.112615,48.368 L159.080615,48.368 L156.728615,42.416 L155.048615,42.416 L158.296615,50 L157.816615,51.264 C157.496615,52.08 157.192615,52.528 156.408615,52.528 C156.168615,52.528 155.896615,52.48 155.656615,52.4 L155.512615,53.728 C155.848615,53.808 156.184615,53.84 156.504615,53.84 Z M167.719385,50.208 C169.063385,50.208 170.167385,49.712 170.983385,48.656 L169.927385,47.808 C169.495385,48.448 168.743385,48.96 167.719385,48.96 C166.391385,48.96 165.303385,47.952 165.255385,46.656 L171.271385,46.656 C171.287385,46.48 171.287385,46.304 171.287385,46.144 C171.287385,43.728 169.879385,42.208 167.639385,42.208 C165.415385,42.208 163.719385,43.856 163.719385,46.224 C163.719385,48.608 165.415385,50.208 167.719385,50.208 Z M169.767385,45.536 L165.255385,45.536 C165.351385,44.352 166.343385,43.392 167.639385,43.392 C169.031385,43.392 169.735385,44.336 169.767385,45.536 Z M174.838154,50 L174.838154,46.016 C174.838154,44.752 175.526154,43.584 176.966154,43.584 C177.206154,43.584 177.462154,43.616 177.654154,43.664 L177.718154,42.272 C177.542154,42.224 177.334154,42.208 177.126154,42.208 C176.102154,42.208 175.222154,42.816 174.806154,43.696 L174.758154,43.696 C174.758154,43.376 174.726154,42.8 174.694154,42.416 L173.270154,42.416 C173.318154,42.912 173.334154,43.648 173.334154,44.048 L173.334154,50 L174.838154,50 Z M181.252923,50.208 C182.788923,50.208 184.276923,49.552 184.276923,47.76 C184.276923,46.432 183.172923,45.84 181.732923,45.52 C180.580923,45.264 180.004923,45.024 180.004923,44.384 C180.004923,43.664 180.724923,43.392 181.412923,43.392 C182.180923,43.392 182.836923,43.792 183.172923,44.336 L184.212923,43.456 C183.668923,42.64 182.532923,42.208 181.460923,42.208 C180.020923,42.208 178.596923,42.896 178.596923,44.528 C178.596923,45.952 179.796923,46.384 180.804923,46.624 C182.100923,46.928 182.788923,47.184 182.788923,47.888 C182.788923,48.72 182.036923,48.992 181.284923,48.992 C180.436923,48.992 179.668923,48.528 179.268923,47.936 L178.196923,48.848 C178.916923,49.76 180.100923,50.208 181.252923,50.208 Z M186.659692,52.128 L187.987692,48.128 L186.483692,48.128 L185.379692,52.128 L186.659692,52.128 Z M197.297231,50.208 C198.513231,50.208 199.489231,49.76 200.129231,49.024 L199.121231,48.112 C198.721231,48.624 198.065231,48.944 197.297231,48.944 C195.713231,48.944 194.801231,47.648 194.801231,46.208 C194.801231,44.752 195.713231,43.472 197.281231,43.472 C198.001231,43.472 198.705231,43.84 199.025231,44.336 L200.113231,43.456 C199.489231,42.64 198.337231,42.208 197.265231,42.208 C194.945231,42.208 193.217231,43.824 193.217231,46.208 C193.217231,48.624 194.961231,50.208 197.297231,50.208 Z M205.152,50.208 C207.472,50.208 209.248,48.528 209.248,46.192 C209.248,43.856 207.472,42.208 205.152,42.208 C202.832,42.208 201.072,43.856 201.072,46.192 C201.072,48.528 202.832,50.208 205.152,50.208 Z M205.152,48.944 C203.536,48.944 202.624,47.632 202.624,46.192 C202.624,44.752 203.536,43.456 205.152,43.456 C206.784,43.456 207.68,44.752 207.68,46.192 C207.68,47.632 206.784,48.944 205.152,48.944 Z M212.782769,50 L212.782769,45.968 C212.782769,44.464 213.614769,43.472 214.718769,43.472 C215.918769,43.472 216.318769,44.304 216.318769,45.488 L216.318769,50 L217.822769,50 L217.822769,45.904 C217.822769,44.72 218.366769,43.472 219.742769,43.472 C221.054769,43.472 221.422769,44.56 221.422769,45.792 L221.422769,50 L222.926769,50 L222.926769,45.296 C222.926769,43.6 222.046769,42.208 220.094769,42.208 C219.022769,42.208 218.030769,42.752 217.518769,43.728 C217.054769,42.656 216.174769,42.208 215.166769,42.208 C214.014769,42.208 213.134769,42.864 212.750769,43.664 L212.702769,43.664 C212.702769,43.344 212.670769,42.8 212.638769,42.416 L211.214769,42.416 C211.262769,42.912 211.278769,43.648 211.278769,44.048 L211.278769,50 L212.782769,50 Z M226.925538,53.84 L226.925538,48.864 L226.973538,48.864 C227.533538,49.712 228.573538,50.208 229.645538,50.208 C231.981538,50.208 233.469538,48.416 233.469538,46.192 C233.469538,43.952 231.933538,42.208 229.677538,42.208 C228.429538,42.208 227.437538,42.8 226.941538,43.6 L226.893538,43.6 L226.893538,42.416 L225.421538,42.416 L225.421538,53.84 L226.925538,53.84 Z M229.389538,48.944 C227.853538,48.944 226.829538,47.664 226.829538,46.208 C226.829538,44.752 227.853538,43.456 229.389538,43.456 C231.037538,43.456 231.917538,44.768 231.917538,46.192 C231.917538,47.616 231.037538,48.944 229.389538,48.944 Z M239.100308,50.208 C241.420308,50.208 243.196308,48.528 243.196308,46.192 C243.196308,43.856 241.420308,42.208 239.100308,42.208 C236.780308,42.208 235.020308,43.856 235.020308,46.192 C235.020308,48.528 236.780308,50.208 239.100308,50.208 Z M239.100308,48.944 C237.484308,48.944 236.572308,47.632 236.572308,46.192 C236.572308,44.752 237.484308,43.456 239.100308,43.456 C240.732308,43.456 241.628308,44.752 241.628308,46.192 C241.628308,47.632 240.732308,48.944 239.100308,48.944 Z M246.731077,50 L246.731077,45.968 C246.731077,44.464 247.579077,43.472 248.763077,43.472 C250.155077,43.472 250.491077,44.56 250.491077,45.792 L250.491077,50 L251.995077,50 L251.995077,45.296 C251.995077,43.6 251.115077,42.208 249.163077,42.208 C248.075077,42.208 247.067077,42.848 246.699077,43.664 L246.651077,43.664 C246.651077,43.344 246.619077,42.8 246.587077,42.416 L245.163077,42.416 C245.211077,42.912 245.227077,43.648 245.227077,44.048 L245.227077,50 L246.731077,50 Z M257.993846,50.208 C259.337846,50.208 260.441846,49.712 261.257846,48.656 L260.201846,47.808 C259.769846,48.448 259.017846,48.96 257.993846,48.96 C256.665846,48.96 255.577846,47.952 255.529846,46.656 L261.545846,46.656 C261.561846,46.48 261.561846,46.304 261.561846,46.144 C261.561846,43.728 260.153846,42.208 257.913846,42.208 C255.689846,42.208 253.993846,43.856 253.993846,46.224 C253.993846,48.608 255.689846,50.208 257.993846,50.208 Z M260.041846,45.536 L255.529846,45.536 C255.625846,44.352 256.617846,43.392 257.913846,43.392 C259.305846,43.392 260.009846,44.336 260.041846,45.536 Z M265.112615,50 L265.112615,45.968 C265.112615,44.464 265.960615,43.472 267.144615,43.472 C268.536615,43.472 268.872615,44.56 268.872615,45.792 L268.872615,50 L270.376615,50 L270.376615,45.296 C270.376615,43.6 269.496615,42.208 267.544615,42.208 C266.456615,42.208 265.448615,42.848 265.080615,43.664 L265.032615,43.664 C265.032615,43.344 265.000615,42.8 264.968615,42.416 L263.544615,42.416 C263.592615,42.912 263.608615,43.648 263.608615,44.048 L263.608615,50 L265.112615,50 Z M275.287385,50.128 C275.751385,50.128 276.215385,50.048 276.567385,49.92 L276.519385,48.688 C276.263385,48.816 275.911385,48.88 275.639385,48.88 C274.887385,48.88 274.567385,48.512 274.567385,47.6 L274.567385,43.648 L276.583385,43.648 L276.583385,42.416 L274.567385,42.416 L274.567385,40.24 L273.079385,40.24 L273.079385,42.416 L271.623385,42.416 L271.623385,43.648 L273.079385,43.648 L273.079385,47.76 C273.079385,49.328 273.863385,50.128 275.287385,50.128 Z M280.262154,50.208 C281.798154,50.208 283.286154,49.552 283.286154,47.76 C283.286154,46.432 282.182154,45.84 280.742154,45.52 C279.590154,45.264 279.014154,45.024 279.014154,44.384 C279.014154,43.664 279.734154,43.392 280.422154,43.392 C281.190154,43.392 281.846154,43.792 282.182154,44.336 L283.222154,43.456 C282.678154,42.64 281.542154,42.208 280.470154,42.208 C279.030154,42.208 277.606154,42.896 277.606154,44.528 C277.606154,45.952 278.806154,46.384 279.814154,46.624 C281.110154,46.928 281.798154,47.184 281.798154,47.888 C281.798154,48.72 281.046154,48.992 280.294154,48.992 C279.446154,48.992 278.678154,48.528 278.278154,47.936 L277.206154,48.848 C277.926154,49.76 279.110154,50.208 280.262154,50.208 Z" id="Layers,components" fill="#000000" fill-rule="nonzero"></path>
    </g>
</svg>