<?xml version="1.0" encoding="UTF-8"?>
<svg width="1859px" height="640px" viewBox="0 0 1859 640" version="1.1" xmlns="http://www.w3.org/2000/svg" xmlns:xlink="http://www.w3.org/1999/xlink">
    <title>comp_analysis</title>
    <g id="comp_analysis" stroke="none" stroke-width="1" fill="none" fill-rule="evenodd">
        <rect fill="#FFFFFF" x="0" y="0" width="1859" height="640"></rect>
        <rect id="Rectangle" fill-opacity="0.8" fill="#E8ECF0" x="-25" y="136" width="2000" height="72"></rect>
        <rect id="Rectangle" fill-opacity="0.8" fill="#E8ECF0" x="-25" y="280" width="2000" height="72"></rect>
        <rect id="Rectangle" fill-opacity="0.8" fill="#E8ECF0" x="-25" y="424" width="2000" height="72"></rect>
        <rect id="Rectangle" fill-opacity="0.8" fill="#E8ECF0" x="-25" y="568" width="2000" height="72"></rect>
        <g id="Group" transform="translate(1203.000000, 32.000000)">
            <rect id="Rectangle" stroke="#000000" fill="#FFFFFF" x="0" y="0" width="55" height="42"></rect>
            <g id="uxpin-dark" transform="translate(10.000000, 13.000000)" fill="#000000" fill-rule="nonzero">
                <path d="M1.79512195,0 L1.79512195,10.9535452 C1.79512195,11.4229829 1.79512195,11.8924205 1.83414634,12.3227384 C1.87317073,12.7530562 1.95121951,13.1442543 2.06829268,13.4572127 C2.22439024,13.7701711 2.4195122,14.00489 2.73170732,14.200489 C3.00487805,14.396088 3.43414634,14.4743276 3.9804878,14.4743276 C4.83902439,14.4743276 5.46341463,14.200489 5.77560976,13.6919315 C6.08780488,13.1833741 6.28292683,12.2836186 6.28292683,11.0709046 L6.28292683,0 L8,0 L8,10.9535452 C8,11.2273839 8,11.5403423 7.96097561,11.9315403 C7.96097561,12.2836186 7.88292683,12.6748166 7.84390244,13.0268949 C7.76585366,13.3789731 7.64878049,13.7701711 7.49268293,14.1222494 C7.33658537,14.4743276 7.10243902,14.7872861 6.7902439,15.0611247 C6.47804878,15.3349633 6.12682927,15.5696822 5.65853659,15.7261614 C5.1902439,15.8826406 4.64390244,16 3.94146341,16 C2.96585366,16 2.22439024,15.8435208 1.67804878,15.5305623 C1.13170732,15.2176039 0.741463415,14.8264059 0.507317073,14.3569682 C0.273170732,13.8875306 0.117073171,13.3398533 0.0780487805,12.7530562 C0.0390243902,12.1662592 0,11.5794621 0,10.992665 L0,0.0391198044 L1.79512195,0.0391198044 L1.79512195,0 Z" id="Path"></path>
                <polygon id="Path" points="8.39111111 0 10.1333333 0 12.0533333 5.38653367 14.0444444 0 15.6444444 0 12.8355556 6.88279302 16 14.9625935 14.1511111 14.9625935 11.8755556 8.75311721 9.6 15 8 15 11.1288889 7.18204489"></polygon>
                <path d="M17,0 L19.7857143,0 C20.5357143,0 21.1785714,0.075 21.7142857,0.225 C22.2142857,0.375 22.6785714,0.7125 23.0714286,1.2 C23.1785714,1.35 23.2857143,1.5 23.3928571,1.6875 C23.5,1.875 23.6071429,2.1 23.7142857,2.3625 C23.8214286,2.625 23.8928571,2.925 23.9285714,3.2625 C24,3.6 24,4.0125 24,4.4625 C24,5.0625 23.9285714,5.625 23.7857143,6.15 C23.6428571,6.675 23.4285714,7.1625 23.1071429,7.575 C22.7857143,7.9875 22.3928571,8.2875 21.8928571,8.55 C21.3928571,8.775 20.7857143,8.8875 20.0357143,8.8875 L18.6428571,8.8875 L18.6428571,15 L17,15 L17,0 Z M18.6428571,7.4625 L20,7.4625 C20.3214286,7.4625 20.6428571,7.425 20.9285714,7.35 C21.2142857,7.275 21.4642857,7.125 21.6785714,6.9375 C21.8928571,6.7125 22.0714286,6.4125 22.1785714,6.0375 C22.2857143,5.6625 22.3571429,5.1375 22.3571429,4.5375 C22.3571429,3.7875 22.25,3.1875 22.0714286,2.775 C21.8928571,2.3625 21.6428571,2.0625 21.3928571,1.875 C21.1428571,1.6875 20.8571429,1.575 20.5714286,1.5375 C20.2857143,1.5 20.0714286,1.5 19.8571429,1.5 L18.6071429,1.5 L18.6071429,7.4625 L18.6428571,7.4625 Z" id="Shape"></path>
                <path d="M28,0 L28,1.9125 L26,1.9125 L26,0 L28,0 Z M26.0888889,3.9 L27.9111111,3.9 L27.9111111,15 L26.0888889,15 L26.0888889,3.9 Z" id="Shape"></path>
                <path d="M29,3.27722772 L30.3652695,3.27722772 L30.3652695,5.05940594 C30.4011976,4.94059406 30.4730539,4.74257426 30.5808383,4.5049505 C30.6886228,4.26732673 30.8323353,4.02970297 31.011976,3.83168317 C31.1916168,3.59405941 31.4431138,3.3960396 31.6946108,3.23762376 C31.9820359,3.07920792 32.3053892,3 32.7005988,3 C33.1676647,3 33.5628743,3.11881188 33.8862275,3.31683168 C34.2095808,3.55445545 34.497006,3.83168317 34.6407186,4.18811881 C34.8203593,4.54455446 34.9281437,5.01980198 34.9640719,5.65346535 C35,6.24752475 35,6.88118812 35,7.55445545 L35,15 L33.5628743,15 L33.5628743,7.59405941 C33.5628743,7.23762376 33.5628743,6.88118812 33.5269461,6.48514851 C33.5269461,6.12871287 33.4550898,5.81188119 33.3832335,5.4950495 C33.3113772,5.21782178 33.1676647,4.98019802 32.988024,4.78217822 C32.8083832,4.58415842 32.5568862,4.5049505 32.2335329,4.5049505 C31.8383234,4.5049505 31.5508982,4.62376238 31.2994012,4.9009901 C31.0838323,5.17821782 30.9041916,5.4950495 30.7964072,5.85148515 C30.6886228,6.24752475 30.6167665,6.64356436 30.5808383,7.07920792 C30.5449102,7.51485149 30.5449102,7.91089109 30.5449102,8.22772277 L30.5449102,15 L29.0718563,15 L29.0718563,3.27722772 L29,3.27722772 Z" id="Path"></path>
            </g>
        </g>
        <path d="M1210.68778,111 C1213.92084,111 1216.37556,108.810368 1216.37556,105.31105 L1216.37556,96.1432469 L1213.86097,96.1432469 L1213.86097,105.208731 C1213.86097,106.886767 1213.1026,108.687585 1210.68778,108.687585 C1208.27297,108.687585 1207.5146,106.886767 1207.5146,105.208731 L1207.5146,96.1432469 L1205,96.1432469 L1205,105.31105 C1205,108.810368 1207.45473,111 1210.68778,111 Z M1220.86438,110.631651 L1224.17727,104.942701 L1227.62985,110.631651 L1230.80304,110.631651 L1225.73392,102.957708 L1230.04466,96.1432469 L1227.15088,96.1432469 L1224.27705,101.095498 L1221.36331,96.1432469 L1218.32983,96.1432469 L1222.7204,102.896317 L1217.8309,110.631651 L1220.86438,110.631651 Z M1234.89271,110.631651 L1234.89271,104.635744 L1236.82855,104.635744 C1239.82212,104.635744 1242.31677,103.530696 1242.31677,100.338336 C1242.31677,97.3096862 1240.22127,96.1432469 1236.98821,96.1432469 L1232.37811,96.1432469 L1232.37811,110.631651 L1234.89271,110.631651 Z M1236.64894,102.466576 L1234.89271,102.466576 L1234.89271,98.3124147 L1236.72877,98.3124147 C1238.28542,98.3124147 1239.78221,98.6193724 1239.78221,100.338336 C1239.78221,102.057299 1238.28542,102.466576 1236.64894,102.466576 Z M1245.10923,98.946794 C1245.98734,98.946794 1246.66588,98.3124147 1246.66588,97.473397 C1246.66588,96.6343793 1245.98734,96 1245.10923,96 C1244.23111,96 1243.59249,96.6957708 1243.59249,97.473397 C1243.59249,98.2510232 1244.23111,98.946794 1245.10923,98.946794 Z M1246.32661,110.631651 L1246.32661,100.809004 L1243.93176,100.809004 L1243.93176,110.631651 L1246.32661,110.631651 Z M1251.5738,110.631651 L1251.5738,105.229195 C1251.5738,103.919509 1252.29226,102.568895 1253.809,102.568895 C1255.3457,102.568895 1255.60514,104.021828 1255.60514,105.188267 L1255.60514,110.631651 L1258,110.631651 L1258,104.492497 C1258,102.48704 1256.96223,100.52251 1254.46759,100.52251 C1253.05063,100.52251 1251.91307,101.402456 1251.49398,102.38472 L1251.45406,102.38472 L1251.45406,100.809004 L1249.17895,100.809004 L1249.17895,110.631651 L1251.5738,110.631651 Z" id="UXPin" fill="#000000" fill-rule="nonzero"></path>
        <g id="Artboard" transform="translate(673.000000, 32.000000)">
            <path d="M20.8882475,35.1781964 L21,42 C19.9826694,42.0009899 19.0049812,41.6050621 18.2743754,40.8962204 L17.7440245,40.2608844 L4.8186164,24.8724775 L0.420492469,19.636171 C0.408858817,19.6297506 0.39957051,19.6197862 0.393974926,19.6077231 L0.325786958,19.5261725 L0.310634076,19.5091038 C0.22443116,19.395339 0.155498078,19.2694396 0.106070172,19.1354883 C0.0409300104,18.9723699 0.00502365178,18.7990292 0,18.6234264 L0,18.5153245 C0.00946889152,18.1360031 0.159324993,17.773727 0.420492469,17.4987869 C0.715130572,17.1803901 1.12913209,16.999592 1.56264093,17 L5.90204744,17 L20.8844593,35.1819894 L20.8882475,35.1819894 L20.8882475,35.1781964 Z" id="Path" fill="#FCD1CA"></path>
            <path d="M21,26.5752631 L21,35 L0.392345365,10.5990735 C0.147101324,10.3286859 0.00786739976,9.97987217 0,9.61615606 L0,9.51030341 C0.010276812,9.1335186 0.160921351,8.77389012 0.422818792,8.50092276 C0.7170123,8.18024 1.13430454,7.99823586 1.57128605,8 L5.4775984,8 L21,26.5771533 L21,26.5752631 Z" id="Path" fill="#FF9D8D"></path>
            <path d="M1.56176073,0 C1.11227837,0 0.698983156,0.190473298 0.419008977,0.500921167 C0.159621694,0.774203763 0.0103914201,1.13371342 0,1.51035289 L0,1.61510524 C0.00394587977,1.79281531 0.0400827061,1.96833721 0.10665683,2.13315322 C0.108561417,2.14648533 0.114275175,2.15791286 0.119988934,2.17124498 C0.188540735,2.33619381 0.28665036,2.48723114 0.409486045,2.61691861 L0.430436494,2.64358284 L20.9999681,26.9347002 L20.9999681,42 C22.0165906,42.0019886 22.9938223,41.6069952 23.7235264,40.8991405 L23.7273356,40.8972359 L41.6056868,19.6725055 C41.6285418,19.6496505 41.6475877,19.6248908 41.6666336,19.6001312 C41.7631966,19.4809347 41.8403302,19.3472365 41.8951839,19.2039768 C41.9661476,19.0245761 42.0017191,18.8331366 42,18.6402188 L42,1.56177677 C42.0009642,1.16632089 41.8495285,0.785684971 41.577118,0.499016579 C41.2833887,0.179289929 40.8685302,-0.00186511741 40.4343662,0 L1.56176073,0 Z" id="Path" fill="#FF6661"></path>
        </g>
        <path d="M659.517005,109.711934 L659.517005,103.683128 L661.4547,103.683128 C664.451135,103.683128 666.948164,102.572016 666.948164,99.3621399 C666.948164,96.3168724 664.85066,95.1440329 661.61451,95.1440329 L657,95.1440329 L657,109.711934 L659.517005,109.711934 Z M661.274914,101.502058 L659.517005,101.502058 L659.517005,97.3251029 L661.354819,97.3251029 C662.912965,97.3251029 664.411183,97.6337449 664.411183,99.3621399 C664.411183,101.090535 662.912965,101.502058 661.274914,101.502058 Z M670.482421,109.711934 L670.482421,104.423868 C670.482421,103.703704 670.901922,101.769547 673.059355,101.769547 C673.279094,101.769547 673.478856,101.790123 673.798476,101.872428 L673.798476,99.6090535 C673.638666,99.5679012 673.398951,99.5473251 673.219165,99.5473251 C671.960662,99.5473251 670.941874,100.349794 670.422492,101.481481 L670.38254,101.481481 L670.38254,99.8353909 L668.085273,99.8353909 L668.085273,109.711934 L670.482421,109.711934 Z M679.590047,110 C682.486601,110 684.803844,107.839506 684.803844,104.73251 C684.803844,101.625514 682.486601,99.5473251 679.590047,99.5473251 C676.693493,99.5473251 674.37625,101.625514 674.37625,104.73251 C674.37625,107.839506 676.693493,110 679.590047,110 Z M679.590047,107.942387 C677.692305,107.942387 676.81335,106.27572 676.81335,104.73251 C676.81335,103.1893 677.692305,101.563786 679.590047,101.563786 C681.487789,101.563786 682.366743,103.1893 682.366743,104.73251 C682.366743,106.27572 681.487789,107.942387 679.590047,107.942387 Z M690.475557,109.917695 C691.014916,109.917695 691.654155,109.814815 692.073656,109.650206 L691.993751,107.716049 C691.714084,107.860082 691.294583,107.921811 690.974963,107.921811 C689.916223,107.921811 689.71646,107.283951 689.71646,106.399177 L689.71646,101.8107 L692.113608,101.8107 L692.113608,99.8353909 L689.71646,99.8353909 L689.71646,96.9753086 L687.359265,96.9753086 L687.359265,99.8353909 L685.681261,99.8353909 L685.681261,101.8107 L687.359265,101.8107 L687.359265,106.419753 C687.359265,108.312757 687.938576,109.917695 690.475557,109.917695 Z M698.444538,110 C701.341092,110 703.658335,107.839506 703.658335,104.73251 C703.658335,101.625514 701.341092,99.5473251 698.444538,99.5473251 C695.547984,99.5473251 693.230741,101.625514 693.230741,104.73251 C693.230741,107.839506 695.547984,110 698.444538,110 Z M698.444538,107.942387 C696.546796,107.942387 695.667841,106.27572 695.667841,104.73251 C695.667841,103.1893 696.546796,101.563786 698.444538,101.563786 C700.34228,101.563786 701.221234,103.1893 701.221234,104.73251 C701.221234,106.27572 700.34228,107.942387 698.444538,107.942387 Z M708.550975,109.711934 L708.550975,103.683128 L710.48867,103.683128 C713.485105,103.683128 715.982134,102.572016 715.982134,99.3621399 C715.982134,96.3168724 713.88463,95.1440329 710.64848,95.1440329 L706.03397,95.1440329 L706.03397,109.711934 L708.550975,109.711934 Z M710.308884,101.502058 L708.550975,101.502058 L708.550975,97.3251029 L710.388789,97.3251029 C711.946935,97.3251029 713.445152,97.6337449 713.445152,99.3621399 C713.445152,101.090535 711.946935,101.502058 710.308884,101.502058 Z M718.77727,97.962963 C719.656224,97.962963 720.335416,97.3251029 720.335416,96.4814815 C720.335416,95.6378601 719.656224,95 718.77727,95 C717.898316,95 717.259076,95.6995885 717.259076,96.4814815 C717.259076,97.2633745 717.898316,97.962963 718.77727,97.962963 Z M719.99582,109.711934 L719.99582,99.8353909 L717.598672,99.8353909 L717.598672,109.711934 L719.99582,109.711934 Z M727.445419,110 C729.263256,110 730.62164,109.341564 731.560523,108.024691 L729.962424,106.707819 C729.423066,107.489712 728.624017,107.983539 727.425443,107.983539 C726.027106,107.983539 724.78858,106.954733 724.688699,105.555556 L731.980024,105.555556 C732,105.329218 732,105.123457 732,104.897119 C732,101.337449 730.042329,99.5473251 727.365514,99.5473251 C724.46896,99.5473251 722.291551,101.646091 722.291551,104.835391 C722.291551,108.045267 724.488936,110 727.445419,110 Z M729.602852,103.786008 L724.688699,103.786008 C724.78858,102.407407 725.927225,101.399177 727.345538,101.399177 C728.903684,101.399177 729.602852,102.510288 729.602852,103.786008 Z" id="ProtoPie" fill="#000000" fill-rule="nonzero"></path>
        <path d="M928.508423,109.728532 L928.508423,103.950139 L934.719755,103.950139 L934.719755,101.894737 L928.508423,101.894737 L928.508423,98.132964 L935.098009,98.132964 L935.098009,96 L926,96 L926,109.728532 L928.508423,109.728532 Z M938.779479,109.728532 L938.779479,104.745152 C938.779479,104.066482 939.19755,102.243767 941.347626,102.243767 C941.566616,102.243767 941.765697,102.263158 942.084227,102.34072 L942.084227,100.207756 C941.924962,100.168975 941.686064,100.149584 941.506891,100.149584 C940.25268,100.149584 939.237366,100.905817 938.719755,101.972299 L938.679939,101.972299 L938.679939,100.421053 L936.390505,100.421053 L936.390505,109.728532 L938.779479,109.728532 Z M946.223583,109.961219 C947.577335,109.961219 948.712098,109.360111 949.189893,108.545706 L949.249617,108.545706 L949.249617,109.728532 L951.479326,109.728532 L951.479326,104.066482 C951.479326,102.204986 950.643185,100.149584 947.218989,100.149584 C945.765697,100.149584 944.25268,100.65374 943.177642,101.623269 L944.411945,103.038781 C945.029096,102.437673 946.004594,101.972299 947.019908,101.972299 C948.214395,101.972299 949.209801,102.534626 949.209801,103.67867 L949.209801,103.911357 C946.223583,103.911357 942.640123,104.299169 942.640123,107.072022 C942.640123,109.243767 944.690658,109.961219 946.223583,109.961219 Z M946.701378,108.196676 C945.885145,108.196676 945.029096,107.925208 945.029096,107.033241 C945.029096,105.703983 947.01489,105.49546 948.513674,105.482659 L949.209801,105.481994 L949.209801,105.811634 C949.209801,107.285319 948.333844,108.196676 946.701378,108.196676 Z M956.594181,109.728532 L956.594181,104.609418 C956.594181,103.368421 957.251149,102.088643 958.684533,102.088643 C959.898928,102.088643 960.456355,102.961219 960.456355,104.105263 L960.456355,109.728532 L962.845329,109.728532 L962.845329,104.648199 C962.845329,103.445983 963.462481,102.088643 964.95559,102.088643 C966.488515,102.088643 966.74732,103.465374 966.74732,104.570637 L966.74732,109.728532 L969.136294,109.728532 L969.136294,103.911357 C969.136294,102.01108 968.101072,100.149584 965.612557,100.149584 C964.179173,100.149584 963.104135,100.789474 962.467075,101.914127 C961.929556,100.867036 960.954058,100.149584 959.480858,100.149584 C957.947933,100.149584 956.932619,101.00277 956.514548,101.914127 L956.474732,101.914127 L956.474732,100.421053 L954.205207,100.421053 L954.205207,109.728532 L956.594181,109.728532 Z M976.441041,110 C978.25268,110 979.606432,109.379501 980.542113,108.138504 L978.949464,106.897507 C978.411945,107.634349 977.61562,108.099723 976.421133,108.099723 C975.027565,108.099723 973.793262,107.130194 973.693721,105.811634 L980.960184,105.811634 C980.980092,105.598338 980.980092,105.404432 980.980092,105.191136 C980.980092,101.836565 979.029096,100.149584 976.361409,100.149584 C973.474732,100.149584 971.304747,102.127424 971.304747,105.132964 C971.304747,108.157895 973.49464,110 976.441041,110 Z M978.591118,104.144044 L973.693721,104.144044 C973.793262,102.844875 974.928025,101.894737 976.341501,101.894737 C977.894334,101.894737 978.591118,102.941828 978.591118,104.144044 Z M985.617152,109.728532 L985.617152,104.745152 C985.617152,104.066482 986.035222,102.243767 988.185299,102.243767 C988.404288,102.243767 988.603369,102.263158 988.921899,102.34072 L988.921899,100.207756 C988.762634,100.168975 988.523737,100.149584 988.344564,100.149584 C987.090352,100.149584 986.075038,100.905817 985.557427,101.972299 L985.517611,101.972299 L985.517611,100.421053 L983.228178,100.421053 L983.228178,109.728532 L985.617152,109.728532 Z M992.085758,109.728532 L995.390505,104.33795 L998.834609,109.728532 L1002,109.728532 L996.943338,102.457064 L1001.24349,96 L998.356815,96 L995.490046,100.692521 L992.583461,96 L989.557427,96 L993.937213,102.398892 L989.059724,109.728532 L992.085758,109.728532 Z" id="FramerX" fill="#000000" fill-rule="nonzero"></path>
        <g id="Group-2" transform="translate(949.000000, 32.000000)" fill="#000000" fill-rule="nonzero">
            <polygon id="Path" points="0 0 28 0 28 14 14 14"></polygon>
            <path d="M0,14 L14,14 L28,28 L14.1521739,28 L14.1521739,42 L0,28 L0,14 Z" id="Combined-Shape"></path>
        </g>
        <path d="M1467.51751,109.711934 L1467.51751,95.1440329 L1465,95.1440329 L1465,109.711934 L1467.51751,109.711934 Z M1472.8507,109.711934 L1472.8507,104.279835 C1472.8507,102.962963 1473.56999,101.604938 1475.08848,101.604938 C1476.62696,101.604938 1476.88671,103.065844 1476.88671,104.238683 L1476.88671,109.711934 L1479.28433,109.711934 L1479.28433,103.539095 C1479.28433,101.522634 1478.24536,99.5473251 1475.74783,99.5473251 C1474.32923,99.5473251 1473.19036,100.432099 1472.77078,101.419753 L1472.73082,101.419753 L1472.73082,99.8353909 L1470.45307,99.8353909 L1470.45307,109.711934 L1472.8507,109.711934 Z M1488.15402,109.711934 L1493.82841,95.1440329 L1491.1111,95.1440329 L1487.17499,106.358025 L1487.09507,106.358025 L1483.19892,95.1440329 L1480.38171,95.1440329 L1485.97618,109.711934 L1488.15402,109.711934 Z M1495.86486,97.962963 C1496.74399,97.962963 1497.42332,97.3251029 1497.42332,96.4814815 C1497.42332,95.6378601 1496.74399,95 1495.86486,95 C1494.98573,95 1494.34636,95.6995885 1494.34636,96.4814815 C1494.34636,97.2633745 1494.98573,97.962963 1495.86486,97.962963 Z M1497.08365,109.711934 L1497.08365,99.8353909 L1494.68602,99.8353909 L1494.68602,109.711934 L1497.08365,109.711934 Z M1502.73652,110 C1504.83445,110 1506.73257,109.115226 1506.73257,106.707819 C1506.73257,104.773663 1505.05423,104.115226 1503.63564,103.765432 C1502.29696,103.436214 1501.55769,103.230453 1501.55769,102.469136 C1501.55769,101.687243 1502.33692,101.399177 1503.09617,101.399177 C1503.9753,101.399177 1504.77451,101.893004 1505.19409,102.469136 L1506.75255,101.049383 C1505.97332,100.041152 1504.53475,99.5473251 1503.15611,99.5473251 C1501.25799,99.5473251 1499.33988,100.493827 1499.33988,102.695473 C1499.33988,104.547325 1500.75848,105.144033 1502.17708,105.493827 C1503.63564,105.843621 1504.3749,106.090535 1504.3749,106.91358 C1504.3749,107.798354 1503.53573,108.08642 1502.83643,108.08642 C1501.79745,108.08642 1500.89834,107.55144 1500.37886,106.851852 L1498.80042,108.374486 C1499.71951,109.423868 1501.25799,110 1502.73652,110 Z M1509.96783,97.962963 C1510.84696,97.962963 1511.52629,97.3251029 1511.52629,96.4814815 C1511.52629,95.6378601 1510.84696,95 1509.96783,95 C1509.0887,95 1508.44934,95.6995885 1508.44934,96.4814815 C1508.44934,97.2633745 1509.0887,97.962963 1509.96783,97.962963 Z M1511.18663,109.711934 L1511.18663,99.8353909 L1508.789,99.8353909 L1508.789,109.711934 L1511.18663,109.711934 Z M1518.69766,110 C1521.5948,110 1523.9125,107.839506 1523.9125,104.73251 C1523.9125,101.625514 1521.5948,99.5473251 1518.69766,99.5473251 C1515.80053,99.5473251 1513.48282,101.625514 1513.48282,104.73251 C1513.48282,107.839506 1515.80053,110 1518.69766,110 Z M1518.69766,107.942387 C1516.79954,107.942387 1515.92041,106.27572 1515.92041,104.73251 C1515.92041,103.1893 1516.79954,101.563786 1518.69766,101.563786 C1520.59578,101.563786 1521.47491,103.1893 1521.47491,104.73251 C1521.47491,106.27572 1520.59578,107.942387 1518.69766,107.942387 Z M1528.56636,109.711934 L1528.56636,104.279835 C1528.56636,102.962963 1529.28565,101.604938 1530.80415,101.604938 C1532.34263,101.604938 1532.60237,103.065844 1532.60237,104.238683 L1532.60237,109.711934 L1535,109.711934 L1535,103.539095 C1535,101.522634 1533.96103,99.5473251 1531.4635,99.5473251 C1530.0449,99.5473251 1528.90603,100.432099 1528.48644,101.419753 L1528.44648,101.419753 L1528.44648,99.8353909 L1526.16873,99.8353909 L1526.16873,109.711934 L1528.56636,109.711934 Z" id="InVision" fill="#000000" fill-rule="nonzero"></path>
        <g id="invision" transform="translate(1479.000000, 32.000000)" fill-rule="nonzero">
            <path d="M38.1926016,0 L3.80739844,0 C1.70460937,0 0,1.70460937 0,3.80739844 L0,38.1926016 C0,40.2953906 1.70460937,42 3.80739844,42 L38.1926016,42 C40.2953906,42 42,40.2953906 42,38.1926016 L42,3.80739844 C42,1.70460937 40.2953906,0 38.1926016,0" id="Path" fill="#DC395F"></path>
            <path d="M14.2596421,13.0145295 C15.6302726,13.0145295 16.7784776,11.9291899 16.7784776,10.5066952 C16.7784776,9.08517692 15.6302726,8 14.2596421,8 C12.8890116,8 11.7411287,9.08517692 11.7411287,10.5066952 C11.7411287,11.9290271 12.8890116,13.0145295 14.2596421,13.0145295 M9.03707283,26.4421498 C8.88905762,27.0783834 8.81480842,27.7653855 8.81480842,28.3257917 C8.81480842,30.5340592 10.0000575,32 12.518893,32 C14.6078563,32 16.3014145,30.7467337 17.5208085,28.7229902 L16.7762228,31.7419267 L20.924353,31.7419267 L23.2951733,22.1351251 C23.8878784,19.7027927 25.0360835,18.4402514 26.7771546,18.4402514 C28.1476241,18.4402514 28.9994766,19.3013635 28.9994766,20.7228818 C28.9994766,21.134725 28.9624325,21.5833429 28.8142562,22.0700372 L27.591802,26.4857586 C27.4065816,27.1219922 27.3328156,27.7585513 27.3328156,28.3568712 C27.3328156,30.4531876 28.5547867,31.9864943 31.1106663,31.9864943 C33.2961052,31.9864943 35.0368542,30.5651387 36,27.1595805 L34.3703832,26.5239977 C33.5554137,28.8054891 32.8515764,29.2179832 32.2959154,29.2179832 C31.7402544,29.2179832 31.4439018,28.8440536 31.4439018,28.0960317 C31.4439018,27.7592021 31.5183121,27.3854352 31.6291222,26.9353529 L32.8146934,22.6333724 C33.1108849,21.6232092 33.2221781,20.7274379 33.2221781,19.9044022 C33.2221781,16.6861343 31.2958866,15.0065427 28.9624325,15.0065427 C26.7771546,15.0065427 24.5545106,16.9980677 23.4435107,19.0940587 L24.258158,15.3319819 L17.9245889,15.3319819 L17.0355312,18.6456035 L19.9988956,18.6456035 L18.1740726,26.026564 C16.7411114,29.244832 14.1088889,29.2970649 13.7785524,29.2223767 C13.2360984,29.0987098 12.8891727,28.8905914 12.8891727,28.1785305 C12.8891727,27.7676636 12.9632608,27.1774796 13.1484811,26.4659069 L15.9267862,15.3319819 L8.88905762,15.3319819 L8,18.6456035 L10.9259981,18.6456035 L9.03723389,26.4421498" id="Shape" fill="#FFFFFF"></path>
        </g>
        <path d="M1728.82912,109.728532 L1730.11326,106.587258 L1736.27311,106.587258 L1737.59738,109.728532 L1740.4867,109.728532 L1734.36697,96 L1732.17992,96 L1726,109.728532 L1728.82912,109.728532 Z M1735.39027,104.493075 L1730.97604,104.493075 L1733.20322,98.9085873 L1735.39027,104.493075 Z M1743.09356,109.728532 L1745.62171,106.33518 L1748.1298,109.728532 L1751.05924,109.728532 L1747.12656,104.783934 L1750.57769,100.421053 L1747.80876,100.421053 L1745.66184,103.310249 L1743.57511,100.421053 L1740.6858,100.421053 L1744.15699,104.783934 L1740.24438,109.728532 L1743.09356,109.728532 Z M1755.89328,110 C1757.31787,110 1758.46156,109.166205 1758.88292,108.235457 L1758.92305,108.235457 L1758.92305,109.728532 L1761.21042,109.728532 L1761.21042,100.421053 L1758.80266,100.421053 L1758.80266,105.540166 C1758.80266,106.781163 1758.08033,108.060942 1756.55542,108.060942 C1755.01044,108.060942 1754.7496,106.684211 1754.7496,105.578947 L1754.7496,100.421053 L1752.34183,100.421053 L1752.34183,106.238227 C1752.34183,108.138504 1753.3852,110 1755.89328,110 Z M1766.44576,109.728532 L1766.44576,104.745152 C1766.44576,104.066482 1766.86712,102.243767 1769.0341,102.243767 C1769.25481,102.243767 1769.45546,102.263158 1769.7765,102.34072 L1769.7765,100.207756 C1769.61598,100.168975 1769.3752,100.149584 1769.19462,100.149584 C1767.93055,100.149584 1766.90725,100.905817 1766.38557,101.972299 L1766.34544,101.972299 L1766.34544,100.421053 L1764.038,100.421053 L1764.038,109.728532 L1766.44576,109.728532 Z M1775.53351,110 C1777.3594,110 1778.7238,109.379501 1779.66684,108.138504 L1778.06166,106.897507 C1777.51992,107.634349 1776.71733,108.099723 1775.51345,108.099723 C1774.10892,108.099723 1772.86491,107.130194 1772.76459,105.811634 L1780.0882,105.811634 C1780.10826,105.598338 1780.10826,105.404432 1780.10826,105.191136 C1780.10826,101.836565 1778.14192,100.149584 1775.45326,100.149584 C1772.54388,100.149584 1770.35683,102.127424 1770.35683,105.132964 C1770.35683,108.157895 1772.56394,110 1775.53351,110 Z M1777.7005,104.144044 L1772.76459,104.144044 C1772.86491,102.844875 1774.0086,101.894737 1775.43319,101.894737 C1776.99824,101.894737 1777.7005,102.941828 1777.7005,104.144044 Z M1789.977,109.728532 L1789.977,103.911357 L1791.82295,103.911357 L1795.11355,109.728532 L1798.16338,109.728532 L1794.37116,103.639889 C1796.35756,103.213296 1797.62164,101.914127 1797.62164,99.9362881 C1797.62164,97.0277008 1795.05336,96 1792.38476,96 L1787.44885,96 L1787.44885,109.728532 L1789.977,109.728532 Z M1792.04366,101.914127 L1789.977,101.914127 L1789.977,98.0554017 L1792.26437,98.0554017 C1793.56857,98.0554017 1795.09349,98.4238227 1795.09349,99.9168975 C1795.09349,101.584488 1793.46825,101.914127 1792.04366,101.914127 Z M1802.53594,109.728532 L1802.53594,104.047091 L1804.48221,104.047091 C1807.49192,104.047091 1810,103 1810,99.9750693 C1810,97.1052632 1807.89321,96 1804.64273,96 L1800.00779,96 L1800.00779,109.728532 L1802.53594,109.728532 Z M1804.30163,101.99169 L1802.53594,101.99169 L1802.53594,98.0554017 L1804.38189,98.0554017 C1805.94694,98.0554017 1807.45179,98.3462604 1807.45179,99.9750693 C1807.45179,101.603878 1805.94694,101.99169 1804.30163,101.99169 Z" id="AxureRP" fill="#000000" fill-rule="nonzero"></path>
        <g id="Axure-01" transform="translate(1749.000000, 32.000000)" fill-rule="nonzero">
            <path d="M34.830073,1.13380282 L34.830073,1.13380282 C34.4920709,0.443661972 33.8160667,0 32.9952045,0 L29.7600417,0 C28.8426075,0 28.1183173,0.394366197 27.7803152,1.08450704 L23,8.18309859 L27.152597,14 L34.4437849,3.35211268 C35.2646471,2.36619718 34.974931,1.47887324 34.830073,1.13380282" id="XMLID_7_" fill="#74BB11"></path>
            <path d="M9.25557766,0.985915493 L9.25557766,0.985915493 C8.50314578,0 7.49990328,0 7.1487684,0 L3.88823025,0 C3.03547412,0 2.38336649,0.394366197 2.03223162,1.03521127 C1.68109674,1.72535211 1.73125886,2.51408451 2.23288012,3.25352113 L14.3219523,19.7183099 L0.427043606,38.7957746 C-0.0745776474,39.5352113 -0.124739773,40.3239437 0.226395105,40.9647887 C0.577529982,41.6056338 1.27979974,42 2.08239374,42 L5.44325614,42 C6.29601227,42 7.04844415,41.556338 7.44974115,40.8661972 L23,19.7676056 L9.25557766,0.985915493 Z" id="XMLID_8_" fill="#009CD9"></path>
            <path d="M36.7110113,39.0152905 L27.1771898,26 L23,31.7247706 L30.5189417,41.706422 L30.7155153,41.8042813 C31.0595192,41.9510703 31.3543796,42 31.6492401,42 L34.8435617,42 C35.6298563,42 36.2687206,41.6574924 36.6618679,41.0703364 C37.1041586,40.5321101 37.1041586,39.7492355 36.7110113,39.0152905" id="XMLID_9_" fill="#EB2084"></path>
        </g>
        <path d="M396.57685,110.63354 C400.995012,110.63354 404.213674,107.624224 404.213674,103.277433 C404.213674,98.8126294 400.995012,96 396.57685,96 C392.218662,96 389,98.8126294 389,103.277433 C389,107.624224 392.218662,110.63354 396.57685,110.63354 Z M396.596841,108.410973 C393.718038,108.410973 391.738861,106.247412 391.738861,103.277433 C391.738861,100.405797 393.678055,98.1832298 396.596841,98.1832298 C399.535619,98.1832298 401.474813,100.405797 401.474813,103.277433 C401.474813,106.247412 399.495636,108.410973 396.596841,108.410973 Z M408.8702,110.279503 L408.8702,105.224638 C408.8702,104.536232 409.290025,102.687371 411.449127,102.687371 C411.669036,102.687371 411.868953,102.707039 412.18882,102.785714 L412.18882,100.622153 C412.028886,100.582816 411.788986,100.563147 411.609061,100.563147 C410.349584,100.563147 409.330008,101.330228 408.810224,102.412008 L408.770241,102.412008 L408.770241,100.838509 L406.471197,100.838509 L406.471197,110.279503 L408.8702,110.279503 Z M414.906151,99.0486542 C415.785786,99.0486542 416.465503,98.4389234 416.465503,97.6325052 C416.465503,96.826087 415.785786,96.2163561 414.906151,96.2163561 C414.026517,96.2163561 413.386783,96.8850932 413.386783,97.6325052 C413.386783,98.3799172 414.026517,99.0486542 414.906151,99.0486542 Z M416.125644,110.279503 L416.125644,100.838509 L413.726642,100.838509 L413.726642,110.279503 L416.125644,110.279503 Z M423.321114,115 C427.059559,115 428.738861,112.836439 428.738861,109.433747 L428.738861,100.838509 L426.459809,100.838509 L426.459809,102.254658 L426.419825,102.254658 C425.720116,101.113872 424.46064,100.563147 423.121197,100.563147 C420.222402,100.563147 418.42315,102.785714 418.42315,105.519669 C418.42315,108.194617 420.282377,110.436853 423.16118,110.436853 C424.480632,110.436853 425.600166,109.945135 426.299875,109.020704 L426.339859,109.020704 L426.339859,109.70911 C426.339859,111.57764 425.620158,112.954451 423.301122,112.954451 C422.101621,112.954451 420.862136,112.482402 419.942519,111.616977 L418.563092,113.44617 C419.802577,114.449275 421.761762,115 423.321114,115 Z M423.600998,108.489648 C421.881712,108.489648 420.862136,106.994824 420.862136,105.5 C420.862136,103.828157 421.881712,102.490683 423.620989,102.490683 C425.360266,102.490683 426.459809,103.867495 426.459809,105.5 C426.459809,107.073499 425.380258,108.489648 423.600998,108.489648 Z M434.474938,110.515528 C435.834372,110.515528 436.973899,109.905797 437.453699,109.07971 L437.513674,109.07971 L437.513674,110.279503 L439.752743,110.279503 L439.752743,104.536232 C439.752743,102.648033 438.913092,100.563147 435.474522,100.563147 C434.015129,100.563147 432.495761,101.074534 431.416209,102.057971 L432.655694,103.493789 C433.275436,102.884058 434.255029,102.412008 435.274605,102.412008 C436.474106,102.412008 437.473691,102.982402 437.473691,104.142857 L437.473691,104.378882 C434.474938,104.378882 430.876434,104.772257 430.876434,107.584886 C430.876434,109.787785 432.935578,110.515528 434.474938,110.515528 Z M434.954738,108.725673 C434.135079,108.725673 433.275436,108.450311 433.275436,107.545549 C433.275436,106.197223 435.269566,105.985708 436.774642,105.972724 L437.473691,105.97205 L437.473691,106.306418 C437.473691,107.801242 436.594057,108.725673 434.954738,108.725673 Z M444.889069,110.279503 L444.889069,105.086957 C444.889069,103.828157 445.548795,102.530021 446.988196,102.530021 C448.207689,102.530021 448.767456,103.415114 448.767456,104.575569 L448.767456,110.279503 L451.166459,110.279503 L451.166459,105.126294 C451.166459,103.906832 451.786201,102.530021 453.285578,102.530021 C454.824938,102.530021 455.08483,103.926501 455.08483,105.047619 L455.08483,110.279503 L457.483832,110.279503 L457.483832,104.378882 C457.483832,102.451346 456.444264,100.563147 453.945303,100.563147 C452.505902,100.563147 451.426351,101.212215 450.786617,102.353002 C450.246841,101.29089 449.267249,100.563147 447.787864,100.563147 C446.248504,100.563147 445.228928,101.428571 444.809102,102.353002 L444.769119,102.353002 L444.769119,100.838509 L442.490066,100.838509 L442.490066,110.279503 L444.889069,110.279503 Z M461.440648,99.0486542 C462.320283,99.0486542 463,98.4389234 463,97.6325052 C463,96.826087 462.320283,96.2163561 461.440648,96.2163561 C460.561014,96.2163561 459.92128,96.8850932 459.92128,97.6325052 C459.92128,98.3799172 460.561014,99.0486542 461.440648,99.0486542 Z M462.660141,110.279503 L462.660141,100.838509 L460.261139,100.838509 L460.261139,110.279503 L462.660141,110.279503 Z" id="Origami" fill="#000000" fill-rule="nonzero"></path>
        <g id="origami" transform="translate(406.000000, 32.000000)" fill-rule="nonzero">
            <path d="M14.8144531,14.8424684 L14.8144531,0 L0,0 L14.8144531,14.8424684 Z M41,11.4135684 L35.6667969,6.13338444 L28.2515625,13.5385205 L14.8144531,0 L14.8144531,42 L35.6667969,20.9919509 L35.6667969,11.4135684 L41,11.4135684 Z" id="Shape" fill="#0991FF"></path>
            <polyline id="Path" fill="#62CCFD" points="0 0 15 15 15 0 0 0"></polyline>
            <polyline id="Path" fill="#0991FF" points="15 42 15 0 36 20.9919509 15 42"></polyline>
            <polygon id="Path" fill="#62CCFD" points="35 6 35 21 28 13.475623"></polygon>
            <polygon id="Path" fill="#0991FF" points="36 6 36 11 41 11"></polygon>
        </g>
        <path d="M44.0255466,179.637097 C47.7296347,179.637097 51.8541869,177.5 51.8541869,172.5 C51.8541869,167.137097 47.7296347,165.362903 44.0255466,165.362903 L39,165.362903 L39,179.637097 L44.0255466,179.637097 Z M43.6251046,177.419355 L41.5227843,177.419355 L41.5227843,167.540323 L43.6251046,167.540323 C46.2279774,167.540323 49.1512037,168.407258 49.1512037,172.5 C49.1512037,176.350806 46.2279774,177.419355 43.6251046,177.419355 Z M54.8559614,179.637097 L56.1373757,176.370968 L62.2841598,176.370968 L63.6056183,179.637097 L66.4888004,179.637097 L60.3820605,165.362903 L58.1996518,165.362903 L52.0328456,179.637097 L54.8559614,179.637097 Z M61.4031875,174.193548 L56.9983259,174.193548 L59.2207788,168.387097 L61.4031875,174.193548 Z M72.0133592,179.637097 L72.0133592,167.580645 L76.3581545,167.580645 L76.3581545,165.362903 L65.1457796,165.362903 L65.1457796,167.580645 L69.4905749,167.580645 L69.4905749,179.637097 L72.0133592,179.637097 Z M77.8382496,179.637097 L79.1196638,176.370968 L85.2664479,176.370968 L86.5879064,179.637097 L89.4710885,179.637097 L83.3643486,165.362903 L81.1819399,165.362903 L75.0151338,179.637097 L77.8382496,179.637097 Z M84.3854756,174.193548 L79.9806141,174.193548 L82.2030669,168.387097 L84.3854756,174.193548 Z M97.9173335,179.637097 L97.9173335,173.729839 L99.859477,173.729839 C102.862792,173.729839 105.365554,172.641129 105.365554,169.495968 C105.365554,166.512097 103.263234,165.362903 100.019654,165.362903 L95.3945492,165.362903 L95.3945492,179.637097 L97.9173335,179.637097 Z M99.6792781,171.592742 L97.9173335,171.592742 L97.9173335,167.5 L99.7593665,167.5 C101.32109,167.5 102.822748,167.802419 102.822748,169.495968 C102.822748,171.189516 101.32109,171.592742 99.6792781,171.592742 Z M117.297184,179.637097 L117.297184,177.379032 L110.069207,177.379032 L110.069207,173.346774 L116.576389,173.346774 L116.576389,171.209677 L110.069207,171.209677 L110.069207,167.580645 L116.936786,167.580645 L116.936786,165.362903 L107.546422,165.362903 L107.546422,179.637097 L117.297184,179.637097 Z M122.22108,179.637097 L122.22108,173.58871 L124.063113,173.58871 L127.346737,179.637097 L130.390096,179.637097 L126.60592,173.306452 C128.588107,172.862903 129.849499,171.512097 129.849499,169.455645 C129.849499,166.431452 127.286671,165.362903 124.623732,165.362903 L119.698296,165.362903 L119.698296,179.637097 L122.22108,179.637097 Z M124.283356,171.512097 L122.22108,171.512097 L122.22108,167.5 L124.503599,167.5 C125.805036,167.5 127.326715,167.883065 127.326715,169.435484 C127.326715,171.169355 125.704925,171.512097 124.283356,171.512097 Z M136.034788,180 C138.817859,180 141.200489,178.508065 141.200489,175.443548 C141.200489,172.641129 138.877925,171.834677 137.055915,171.270161 C135.454147,170.766129 134.352931,170.383065 134.352931,169.072581 C134.352931,167.681452 135.694412,167.116935 136.855694,167.116935 C137.856798,167.116935 138.91797,167.641129 139.458566,168.346774 L141.100378,166.532258 C140.019185,165.504032 138.397395,165 136.975826,165 C134.412998,165 131.790103,166.290323 131.790103,169.193548 C131.790103,171.854839 133.652158,172.701613 135.374058,173.245968 C137.156025,173.810484 138.63766,174.233871 138.63766,175.725806 C138.63766,177.258065 137.256136,177.842742 136.074832,177.842742 C134.953594,177.842742 133.67218,177.237903 132.971407,176.270161 L131.169418,177.96371 C132.290655,179.294355 134.192755,180 136.034788,180 Z M146.184451,179.637097 L146.184451,165.362903 L143.661667,165.362903 L143.661667,179.637097 L146.184451,179.637097 Z M153.05049,180 C155.833562,180 158.216192,178.508065 158.216192,175.443548 C158.216192,172.641129 155.893628,171.834677 154.071617,171.270161 C152.46985,170.766129 151.368634,170.383065 151.368634,169.072581 C151.368634,167.681452 152.710115,167.116935 153.871397,167.116935 C154.872501,167.116935 155.933673,167.641129 156.474269,168.346774 L158.116081,166.532258 C157.034888,165.504032 155.413098,165 153.991529,165 C151.428701,165 148.805806,166.290323 148.805806,169.193548 C148.805806,171.854839 150.667861,172.701613 152.389761,173.245968 C154.171728,173.810484 155.653363,174.233871 155.653363,175.725806 C155.653363,177.258065 154.271838,177.842742 153.090535,177.842742 C151.969297,177.842742 150.687883,177.237903 149.98711,176.270161 L148.185121,177.96371 C149.306358,179.294355 151.208457,180 153.05049,180 Z M165.74296,179.637097 L165.74296,167.580645 L170.087756,167.580645 L170.087756,165.362903 L158.875381,165.362903 L158.875381,167.580645 L163.220176,167.580645 L163.220176,179.637097 L165.74296,179.637097 Z M181.418723,179.637097 L181.418723,177.379032 L174.190746,177.379032 L174.190746,173.346774 L180.697927,173.346774 L180.697927,171.209677 L174.190746,171.209677 L174.190746,167.580645 L181.058325,167.580645 L181.058325,165.362903 L171.667961,165.362903 L171.667961,179.637097 L181.418723,179.637097 Z M186.342619,179.637097 L186.342619,168.608871 L186.382663,168.608871 L193.110088,179.637097 L196.313624,179.637097 L196.313624,165.362903 L193.790839,165.362903 L193.790839,176.048387 L193.750795,176.048387 L187.163525,165.362903 L183.819835,165.362903 L183.819835,179.637097 L186.342619,179.637097 Z M206.263066,180 C208.665718,180 210.507751,179.072581 211.749121,177.5 L209.726889,176.068548 C209.006094,177.056452 207.804768,177.721774 206.283088,177.721774 C203.359862,177.721774 201.477785,175.564516 201.477785,172.459677 C201.477785,169.516129 203.459973,167.237903 206.383199,167.237903 C207.524458,167.237903 208.865939,167.681452 209.606757,168.709677 L211.528878,167.177419 C210.407641,165.685484 208.225232,165 206.383199,165 C202.018381,165 198.694713,167.883065 198.694713,172.459677 C198.694713,176.915323 201.838183,180 206.263066,180 Z M223,179.637097 L223,177.379032 L215.772023,177.379032 L215.772023,173.346774 L222.279204,173.346774 L222.279204,171.209677 L215.772023,171.209677 L215.772023,167.580645 L222.639602,167.580645 L222.639602,165.362903 L213.249238,165.362903 L213.249238,179.637097 L223,179.637097 Z" id="DATAPERSISTENCE" fill="#000000" fill-rule="nonzero"></path>
        <path d="M47.5458916,251.637097 L47.5458916,249.379032 L41.5217385,249.379032 L41.5217385,237.362903 L39,237.362903 L39,251.637097 L47.5458916,251.637097 Z M55.4698159,252 C59.8928652,252 63.1150866,248.915323 63.1150866,244.459677 C63.1150866,239.883065 59.8928652,237 55.4698159,237 C51.106808,237 47.8845866,239.883065 47.8845866,244.459677 C47.8845866,248.915323 51.106808,252 55.4698159,252 Z M55.4898297,249.721774 C52.6078429,249.721774 50.6264769,247.504032 50.6264769,244.459677 C50.6264769,241.516129 52.5678153,239.237903 55.4898297,239.237903 C58.431858,239.237903 60.3731963,241.516129 60.3731963,244.459677 C60.3731963,247.504032 58.3918304,249.721774 55.4898297,249.721774 Z M72.5600596,252 C74.7815911,252 76.4827639,251.576613 77.9037435,250.891129 L77.9037435,243.491935 L72.4800044,243.491935 L72.4800044,245.58871 L75.4620602,245.58871 L75.4620602,249.217742 C74.6414945,249.560484 73.700846,249.721774 72.6401147,249.721774 C69.5179623,249.721774 67.5966377,247.504032 67.5966377,244.459677 C67.5966377,241.516129 69.5379761,239.237903 72.520032,239.237903 C74.0410806,239.237903 75.4220326,239.883065 76.1425293,240.689516 L77.8837297,238.794355 C76.7429433,237.725806 74.7415635,237 72.5000182,237 C68.1370103,237 64.8147199,239.883065 64.8147199,244.459677 C64.8147199,248.915323 67.9969137,252 72.5600596,252 Z M83.4260121,251.637097 L83.4260121,237.362903 L80.9042736,237.362903 L80.9042736,251.637097 L83.4260121,251.637097 Z M93.37133,252 C95.7729857,252 97.6142551,251.072581 98.8551106,249.5 L96.833717,248.068548 C96.1132203,249.056452 94.9123924,249.721774 93.3913438,249.721774 C90.4693294,249.721774 88.5880324,247.564516 88.5880324,244.459677 C88.5880324,241.516129 90.5693984,239.237903 93.4914128,239.237903 C94.6321993,239.237903 95.9731237,239.681452 96.7136342,240.709677 L98.6349588,239.177419 C97.5141861,237.685484 95.3326822,237 93.4914128,237 C89.1284049,237 85.8061145,239.883065 85.8061145,244.459677 C85.8061145,248.915323 88.9482807,252 93.37133,252 Z M101.215199,251.637097 L102.496082,248.370968 L108.640318,248.370968 L109.961229,251.637097 L112.843216,251.637097 L106.739007,237.362903 L104.557503,237.362903 L98.3932537,251.637097 L101.215199,251.637097 Z M107.759711,246.193548 L103.356676,246.193548 L105.578207,240.387097 L107.759711,246.193548 Z M122.728492,251.637097 L122.728492,249.379032 L116.704339,249.379032 L116.704339,237.362903 L114.1826,237.362903 L114.1826,251.637097 L122.728492,251.637097 Z M131.331346,251.637097 L131.331346,240.608871 L131.371374,240.608871 L138.09601,251.637097 L141.298217,251.637097 L141.298217,237.362903 L138.776479,237.362903 L138.776479,248.048387 L138.736451,248.048387 L132.151912,237.362903 L128.809607,237.362903 L128.809607,251.637097 L131.331346,251.637097 Z M145.459548,251.637097 L146.740431,248.370968 L152.884666,248.370968 L154.205577,251.637097 L157.087564,251.637097 L150.983356,237.362903 L148.801852,237.362903 L142.637602,251.637097 L145.459548,251.637097 Z M152.004059,246.193548 L147.601024,246.193548 L149.822555,240.387097 L152.004059,246.193548 Z M163.850688,251.637097 L169.534607,237.362903 L166.81273,237.362903 L162.870012,248.350806 L162.789957,248.350806 L158.887266,237.362903 L156.065321,237.362903 L161.669184,251.637097 L163.850688,251.637097 Z M173.355702,251.637097 L173.355702,237.362903 L170.833964,237.362903 L170.833964,251.637097 L173.355702,251.637097 Z M183.481144,252 C185.702676,252 187.403849,251.576613 188.824828,250.891129 L188.824828,243.491935 L183.401089,243.491935 L183.401089,245.58871 L186.383145,245.58871 L186.383145,249.217742 C185.562579,249.560484 184.621931,249.721774 183.5612,249.721774 C180.439047,249.721774 178.517723,247.504032 178.517723,244.459677 C178.517723,241.516129 180.459061,239.237903 183.441117,239.237903 C184.962165,239.237903 186.343118,239.883065 187.063614,240.689516 L188.804815,238.794355 C187.664028,237.725806 185.662648,237 183.421103,237 C179.058095,237 175.735805,239.883065 175.735805,244.459677 C175.735805,248.915323 178.917999,252 183.481144,252 Z M192.926117,251.637097 L194.207,248.370968 L200.351236,248.370968 L201.672147,251.637097 L204.554134,251.637097 L198.449926,237.362903 L196.268422,237.362903 L190.104172,251.637097 L192.926117,251.637097 Z M199.470629,246.193548 L195.067594,246.193548 L197.289125,240.387097 L199.470629,246.193548 Z M210.076402,251.637097 L210.076402,239.580645 L214.419397,239.580645 L214.419397,237.362903 L203.21167,237.362903 L203.21167,239.580645 L207.554664,239.580645 L207.554664,251.637097 L210.076402,251.637097 Z M218.520686,251.637097 L218.520686,237.362903 L215.998947,237.362903 L215.998947,251.637097 L218.520686,251.637097 Z M228.486017,252 C232.909066,252 236.131288,248.915323 236.131288,244.459677 C236.131288,239.883065 232.909066,237 228.486017,237 C224.123009,237 220.900788,239.883065 220.900788,244.459677 C220.900788,248.915323 224.123009,252 228.486017,252 Z M228.506031,249.721774 C225.624044,249.721774 223.642678,247.504032 223.642678,244.459677 C223.642678,241.516129 225.584017,239.237903 228.506031,239.237903 C231.448059,239.237903 233.389398,241.516129 233.389398,244.459677 C233.389398,247.504032 231.408032,249.721774 228.506031,249.721774 Z M241.033129,251.637097 L241.033129,240.608871 L241.073156,240.608871 L247.797792,251.637097 L251,251.637097 L251,237.362903 L248.478261,237.362903 L248.478261,248.048387 L248.438234,248.048387 L241.853694,237.362903 L238.51139,237.362903 L238.51139,251.637097 L241.033129,251.637097 Z" id="LOGICALNAVIGATION" fill="#000000" fill-rule="nonzero"></path>
        <path d="M44.8592832,324.047146 L44.8592832,312.176179 L49.1988297,312.176179 L49.1988297,309.992556 L38,309.992556 L38,312.176179 L42.3395465,312.176179 L42.3395465,324.047146 L44.8592832,324.047146 Z M53.296863,324.047146 L53.296863,318.091811 L55.1366708,318.091811 L58.4163281,324.047146 L61.4560104,324.047146 L57.6764054,317.813896 C59.6561985,317.377171 60.9160668,316.047146 60.9160668,314.022333 C60.9160668,311.044665 58.3563343,309.992556 55.6966123,309.992556 L50.7771263,309.992556 L50.7771263,324.047146 L53.296863,324.047146 Z M55.3566478,316.047146 L53.296863,316.047146 L53.296863,312.096774 L55.5766248,312.096774 C56.876489,312.096774 58.3963301,312.473945 58.3963301,314.002481 C58.3963301,315.709677 56.7764994,316.047146 55.3566478,316.047146 Z M64.3941649,324.047146 L65.6740312,320.831266 L71.8133896,320.831266 L73.1332517,324.047146 L76.0129508,324.047146 L69.9135881,309.992556 L67.7338159,309.992556 L61.5744596,324.047146 L64.3941649,324.047146 Z M70.9334816,318.687345 L66.5339413,318.687345 L68.7537093,312.970223 L70.9334816,318.687345 Z M79.8710091,324.047146 L79.8710091,313.188586 L79.911005,313.188586 L86.6303028,324.047146 L89.8299684,324.047146 L89.8299684,309.992556 L87.3102317,309.992556 L87.3102317,320.513648 L87.2702359,320.513648 L80.6909235,309.992556 L77.3512724,309.992556 L77.3512724,324.047146 L79.8710091,324.047146 Z M96.6877133,324.404467 C99.4674229,324.404467 101.847174,322.935484 101.847174,319.918114 C101.847174,317.158809 99.5274166,316.364764 97.7076068,315.808933 C96.1077739,315.312655 95.0078889,314.935484 95.0078889,313.645161 C95.0078889,312.275434 96.3477489,311.719603 97.5076277,311.719603 C98.5075232,311.719603 99.5674124,312.235732 100.107356,312.930521 L101.747185,311.143921 C100.667297,310.131514 99.0474668,309.635236 97.6276151,309.635236 C95.0678826,309.635236 92.4481564,310.905707 92.4481564,313.764268 C92.4481564,316.384615 94.307962,317.218362 96.0277823,317.754342 C97.8075963,318.310174 99.2874417,318.727047 99.2874417,320.19603 C99.2874417,321.704715 97.9075859,322.280397 96.7277092,322.280397 C95.6078262,322.280397 94.3279599,321.684864 93.6280331,320.73201 L91.8282211,322.399504 C92.9481041,323.709677 94.8479056,324.404467 96.6877133,324.404467 Z M106.825116,324.047146 L106.825116,309.992556 L104.305379,309.992556 L104.305379,324.047146 L106.825116,324.047146 Z M115.262695,324.047146 L115.262695,312.176179 L119.602242,312.176179 L119.602242,309.992556 L108.403412,309.992556 L108.403412,312.176179 L112.742959,312.176179 L112.742959,324.047146 L115.262695,324.047146 Z M123.700275,324.047146 L123.700275,309.992556 L121.180538,309.992556 L121.180538,324.047146 L123.700275,324.047146 Z M133.657696,324.404467 C138.077234,324.404467 141.296898,321.367246 141.296898,316.980149 C141.296898,312.473945 138.077234,309.635236 133.657696,309.635236 C129.298152,309.635236 126.078488,312.473945 126.078488,316.980149 C126.078488,321.367246 129.298152,324.404467 133.657696,324.404467 Z M133.677694,322.16129 C130.797995,322.16129 128.818202,319.977667 128.818202,316.980149 C128.818202,314.081886 130.757999,311.83871 133.677694,311.83871 C136.617387,311.83871 138.557184,314.081886 138.557184,316.980149 C138.557184,319.977667 136.577391,322.16129 133.677694,322.16129 Z M146.194848,324.047146 L146.194848,313.188586 L146.234843,313.188586 L152.954141,324.047146 L156.153807,324.047146 L156.153807,309.992556 L153.63407,309.992556 L153.63407,320.513648 L153.594074,320.513648 L147.014762,309.992556 L143.675111,309.992556 L143.675111,324.047146 L146.194848,324.047146 Z M163.011552,324.404467 C165.791261,324.404467 168.171013,322.935484 168.171013,319.918114 C168.171013,317.158809 165.851255,316.364764 164.031445,315.808933 C162.431612,315.312655 161.331727,314.935484 161.331727,313.645161 C161.331727,312.275434 162.671587,311.719603 163.831466,311.719603 C164.831362,311.719603 165.891251,312.235732 166.431194,312.930521 L168.071023,311.143921 C166.991136,310.131514 165.371305,309.635236 163.951454,309.635236 C161.391721,309.635236 158.771995,310.905707 158.771995,313.764268 C158.771995,316.384615 160.6318,317.218362 162.351621,317.754342 C164.131435,318.310174 165.61128,318.727047 165.61128,320.19603 C165.61128,321.704715 164.231424,322.280397 163.051548,322.280397 C161.931665,322.280397 160.651798,321.684864 159.951871,320.73201 L158.15206,322.399504 C159.271943,323.709677 161.171744,324.404467 163.011552,324.404467 Z M170.549226,325 L176.788574,309.635236 L175.128747,309 L168.889399,324.404467 L170.549226,325 Z M179.446757,324.047146 L180.726624,320.831266 L186.865982,320.831266 L188.185844,324.047146 L191.065543,324.047146 L184.966181,309.992556 L182.786408,309.992556 L176.627052,324.047146 L179.446757,324.047146 Z M185.986074,318.687345 L181.586534,318.687345 L183.806302,312.970223 L185.986074,318.687345 Z M194.923602,324.047146 L194.923602,313.188586 L194.963597,313.188586 L201.682895,324.047146 L204.882561,324.047146 L204.882561,309.992556 L202.362824,309.992556 L202.362824,320.513648 L202.322828,320.513648 L195.743516,309.992556 L192.403865,309.992556 L192.403865,324.047146 L194.923602,324.047146 Z M210.46044,324.047146 L210.46044,309.992556 L207.940703,309.992556 L207.940703,324.047146 L210.46044,324.047146 Z M215.918331,324.047146 L215.918331,312.751861 L215.958327,312.751861 L220.197884,324.047146 L221.9577,324.047146 L226.25725,312.751861 L226.297246,312.751861 L226.297246,324.047146 L228.796985,324.047146 L228.796985,309.992556 L224.837399,309.992556 L221.197779,319.977667 L221.137785,319.977667 L217.45817,309.992556 L213.518581,309.992556 L213.518581,324.047146 L215.918331,324.047146 Z M232.955012,324.047146 L234.234878,320.831266 L240.374237,320.831266 L241.694099,324.047146 L244.573798,324.047146 L238.474435,309.992556 L236.294663,309.992556 L230.135307,324.047146 L232.955012,324.047146 Z M239.494329,318.687345 L235.094788,318.687345 L237.314556,312.970223 L239.494329,318.687345 Z M250.091683,324.047146 L250.091683,312.176179 L254.431229,312.176179 L254.431229,309.992556 L243.2324,309.992556 L243.2324,312.176179 L247.571946,312.176179 L247.571946,324.047146 L250.091683,324.047146 Z M258.529263,324.047146 L258.529263,309.992556 L256.009526,309.992556 L256.009526,324.047146 L258.529263,324.047146 Z M268.486684,324.404467 C272.906222,324.404467 276.125885,321.367246 276.125885,316.980149 C276.125885,312.473945 272.906222,309.635236 268.486684,309.635236 C264.127139,309.635236 260.907476,312.473945 260.907476,316.980149 C260.907476,321.367246 264.127139,324.404467 268.486684,324.404467 Z M268.506681,322.16129 C265.626982,322.16129 263.647189,319.977667 263.647189,316.980149 C263.647189,314.081886 265.586987,311.83871 268.506681,311.83871 C271.446374,311.83871 273.386172,314.081886 273.386172,316.980149 C273.386172,319.977667 271.406378,322.16129 268.506681,322.16129 Z M281.023835,324.047146 L281.023835,313.188586 L281.063831,313.188586 L287.783129,324.047146 L290.982794,324.047146 L290.982794,309.992556 L288.463058,309.992556 L288.463058,320.513648 L288.423062,320.513648 L281.843749,309.992556 L278.504098,309.992556 L278.504098,324.047146 L281.023835,324.047146 Z M297.840539,324.404467 C300.620249,324.404467 303,322.935484 303,319.918114 C303,317.158809 300.680242,316.364764 298.860433,315.808933 C297.2606,315.312655 296.160715,314.935484 296.160715,313.645161 C296.160715,312.275434 297.500575,311.719603 298.660453,311.719603 C299.660349,311.719603 300.720238,312.235732 301.260182,312.930521 L302.90001,311.143921 C301.820123,310.131514 300.200293,309.635236 298.780441,309.635236 C296.220708,309.635236 293.600982,310.905707 293.600982,313.764268 C293.600982,316.384615 295.460788,317.218362 297.180608,317.754342 C298.960422,318.310174 300.440267,318.727047 300.440267,320.19603 C300.440267,321.704715 299.060412,322.280397 297.880535,322.280397 C296.760652,322.280397 295.480786,321.684864 294.780859,320.73201 L292.981047,322.399504 C294.10093,323.709677 296.000731,324.404467 297.840539,324.404467 Z" id="TRANSITIONS/ANIMATIONS" fill="#000000" fill-rule="nonzero"></path>
        <path d="M46.5552978,396 C48.953805,396 50.7926605,395.072581 52.0318893,393.5 L50.0131457,392.068548 C49.2935935,393.056452 48.0943399,393.721774 46.5752853,393.721774 C43.6571015,393.721774 41.7782709,391.564516 41.7782709,388.459677 C41.7782709,385.516129 43.7570393,383.237903 46.6752231,383.237903 C47.8145141,383.237903 49.1536806,383.681452 49.8932203,384.709677 L51.8120261,383.177419 C50.6927227,381.685484 48.5140787,381 46.6752231,381 C42.317935,381 39,383.883065 39,388.459677 C39,392.915323 42.138047,396 46.5552978,396 Z M60.1852763,396 C64.6025271,396 67.8205243,392.915323 67.8205243,388.459677 C67.8205243,383.883065 64.6025271,381 60.1852763,381 C55.8279882,381 52.609991,383.883065 52.609991,388.459677 C52.609991,392.915323 55.8279882,396 60.1852763,396 Z M60.2052639,393.721774 C57.3270552,393.721774 55.3482867,391.504032 55.3482867,388.459677 C55.3482867,385.516129 57.2870801,383.237903 60.2052639,383.237903 C63.1434352,383.237903 65.0822286,385.516129 65.0822286,388.459677 C65.0822286,391.504032 63.1034601,393.721774 60.2052639,393.721774 Z M75.2143841,395.637097 C78.9120827,395.637097 83.0295201,393.5 83.0295201,388.5 C83.0295201,383.137097 78.9120827,381.362903 75.2143841,381.362903 L70.1975064,381.362903 L70.1975064,395.637097 L75.2143841,395.637097 Z M74.8146329,393.419355 L72.715939,393.419355 L72.715939,383.540323 L74.8146329,383.540323 C77.4130157,383.540323 80.3311995,384.407258 80.3311995,388.5 C80.3311995,392.350806 77.4130157,393.419355 74.8146329,393.419355 Z M95.1404441,395.637097 L95.1404441,393.379032 L87.9249348,393.379032 L87.9249348,389.346774 L94.4208919,389.346774 L94.4208919,387.209677 L87.9249348,387.209677 L87.9249348,383.580645 L94.780668,383.580645 L94.780668,381.362903 L85.4065022,381.362903 L85.4065022,395.637097 L95.1404441,395.637097 Z M102.554291,395.637097 C106.25199,395.637097 110.369427,393.5 110.369427,388.5 C110.369427,383.137097 106.25199,381.362903 102.554291,381.362903 L97.5374138,381.362903 L97.5374138,395.637097 L102.554291,395.637097 Z M102.15454,393.419355 L100.055846,393.419355 L100.055846,383.540323 L102.15454,383.540323 C104.752923,383.540323 107.671107,384.407258 107.671107,388.5 C107.671107,392.350806 104.752923,393.419355 102.15454,393.419355 Z M124.55752,396 C126.956027,396 128.794883,395.072581 130.034112,393.5 L128.015368,392.068548 C127.295816,393.056452 126.096562,393.721774 124.577508,393.721774 C121.659324,393.721774 119.780493,391.564516 119.780493,388.459677 C119.780493,385.516129 121.759262,383.237903 124.677446,383.237903 C125.816736,383.237903 127.155903,383.681452 127.895443,384.709677 L129.814248,383.177419 C128.694945,381.685484 126.516301,381 124.677446,381 C120.320157,381 117.002222,383.883065 117.002222,388.459677 C117.002222,392.915323 120.140269,396 124.55752,396 Z M138.187499,396 C142.604749,396 145.822747,392.915323 145.822747,388.459677 C145.822747,383.883065 142.604749,381 138.187499,381 C133.830211,381 130.612213,383.883065 130.612213,388.459677 C130.612213,392.915323 133.830211,396 138.187499,396 Z M138.207486,393.721774 C135.329278,393.721774 133.350509,391.504032 133.350509,388.459677 C133.350509,385.516129 135.289302,383.237903 138.207486,383.237903 C141.145658,383.237903 143.084451,385.516129 143.084451,388.459677 C143.084451,391.504032 141.105682,393.721774 138.207486,393.721774 Z M150.598236,395.637097 L150.598236,384.165323 L150.638211,384.165323 L154.875574,395.637097 L156.634479,395.637097 L160.931805,384.165323 L160.97178,384.165323 L160.97178,395.637097 L163.470225,395.637097 L163.470225,381.362903 L159.512688,381.362903 L155.874952,391.504032 L155.814989,391.504032 L152.137278,381.362903 L148.199729,381.362903 L148.199729,395.637097 L150.598236,395.637097 Z M169.045217,395.637097 L169.045217,389.729839 L170.98401,389.729839 C173.982144,389.729839 176.480589,388.641129 176.480589,385.495968 C176.480589,382.512097 174.381895,381.362903 171.14391,381.362903 L166.526784,381.362903 L166.526784,395.637097 L169.045217,395.637097 Z M170.804122,387.592742 L169.045217,387.592742 L169.045217,383.5 L170.884072,383.5 C172.443102,383.5 173.942169,383.802419 173.942169,385.495968 C173.942169,387.189516 172.443102,387.592742 170.804122,387.592742 Z M185.553404,396 C189.970655,396 193.188652,392.915323 193.188652,388.459677 C193.188652,383.883065 189.970655,381 185.553404,381 C181.196116,381 177.978119,383.883065 177.978119,388.459677 C177.978119,392.915323 181.196116,396 185.553404,396 Z M185.573391,393.721774 C182.695183,393.721774 180.716414,391.504032 180.716414,388.459677 C180.716414,385.516129 182.655208,383.237903 185.573391,383.237903 C188.511563,383.237903 190.450356,385.516129 190.450356,388.459677 C190.450356,391.504032 188.471588,393.721774 185.573391,393.721774 Z M198.084067,395.637097 L198.084067,384.608871 L198.124042,384.608871 L204.839862,395.637097 L208.037872,395.637097 L208.037872,381.362903 L205.519439,381.362903 L205.519439,392.048387 L205.479464,392.048387 L198.903557,381.362903 L195.565634,381.362903 L195.565634,395.637097 L198.084067,395.637097 Z M220.828373,395.637097 L220.828373,393.379032 L213.612863,393.379032 L213.612863,389.346774 L220.10882,389.346774 L220.10882,387.209677 L213.612863,387.209677 L213.612863,383.580645 L220.468596,383.580645 L220.468596,381.362903 L211.094431,381.362903 L211.094431,395.637097 L220.828373,395.637097 Z M225.743775,395.637097 L225.743775,384.608871 L225.78375,384.608871 L232.49957,395.637097 L235.69758,395.637097 L235.69758,381.362903 L233.179147,381.362903 L233.179147,392.048387 L233.139172,392.048387 L226.563265,381.362903 L223.225342,381.362903 L223.225342,395.637097 L225.743775,395.637097 Z M244.130793,395.637097 L244.130793,383.580645 L248.468093,383.580645 L248.468093,381.362903 L237.27506,381.362903 L237.27506,383.580645 L241.61236,383.580645 L241.61236,395.637097 L244.130793,395.637097 Z M253.843209,396 C256.62148,396 259,394.508065 259,391.443548 C259,388.641129 256.681443,387.834677 254.862575,387.270161 C253.26357,386.766129 252.164254,386.383065 252.164254,385.072581 C252.164254,383.681452 253.503421,383.116935 254.662699,383.116935 C255.662077,383.116935 256.721418,383.641129 257.261082,384.346774 L258.900062,382.532258 C257.820734,381.504032 256.201742,381 254.782625,381 C252.224217,381 249.605847,382.290323 249.605847,385.193548 C249.605847,387.854839 251.46469,388.701613 253.18362,389.245968 C254.962513,389.810484 256.441592,390.233871 256.441592,391.725806 C256.441592,393.258065 255.062451,393.842742 253.883185,393.842742 C252.763881,393.842742 251.484677,393.237903 250.785113,392.270161 L248.986232,393.96371 C250.105536,395.294355 252.004354,396 253.843209,396 Z" id="CODEDCOMPONENTS" fill="#000000" fill-rule="nonzero"></path>
        <path d="M46.568522,468 C48.9712274,468 50.8133015,467.072581 52.0546993,465.5 L50.0324223,464.068548 C49.3116106,465.056452 48.1102579,465.721774 46.5885445,465.721774 C43.665253,465.721774 41.7831337,463.564516 41.7831337,460.459677 C41.7831337,457.516129 43.7653657,455.237903 46.6886572,455.237903 C47.8299423,455.237903 49.1714528,455.681452 49.912287,456.709677 L51.8344513,455.177419 C50.7131888,453.685484 48.5307314,453 46.6886572,453 C42.3237425,453 39,455.883065 39,460.459677 C39,464.915323 42.1435396,468 46.568522,468 Z M62.1044766,467.637097 L62.1044766,465.379032 L56.0776906,465.379032 L56.0776906,453.362903 L53.5548499,453.362903 L53.5548499,467.637097 L62.1044766,467.637097 Z M70.0318642,468 C74.4568466,468 77.6804764,464.915323 77.6804764,460.459677 C77.6804764,455.883065 74.4568466,453 70.0318642,453 C65.6669494,453 62.4433197,455.883065 62.4433197,460.459677 C62.4433197,464.915323 65.6669494,468 70.0318642,468 Z M70.0518867,465.721774 C67.1686403,465.721774 65.1864083,463.504032 65.1864083,460.459677 C65.1864083,457.516129 67.1285952,455.237903 70.0518867,455.237903 C72.9952008,455.237903 74.9373877,457.516129 74.9373877,460.459677 C74.9373877,463.504032 72.9551558,465.721774 70.0518867,465.721774 Z M85.647909,468 C88.8915613,468 91.3543343,465.842742 91.3543343,462.395161 L91.3543343,453.362903 L88.8314937,453.362903 L88.8314937,462.294355 C88.8314937,463.947581 88.070637,465.721774 85.647909,465.721774 C83.2251811,465.721774 82.4643244,463.947581 82.4643244,462.294355 L82.4643244,453.362903 L79.9414837,453.362903 L79.9414837,462.395161 C79.9414837,465.842742 82.4042567,468 85.647909,468 Z M99.321767,467.637097 C103.025938,467.637097 107.150582,465.5 107.150582,460.5 C107.150582,455.137097 103.025938,453.362903 99.321767,453.362903 L94.2961082,453.362903 L94.2961082,467.637097 L99.321767,467.637097 Z M98.9213161,465.419355 L96.8189489,465.419355 L96.8189489,455.540323 L98.9213161,455.540323 C101.524247,455.540323 104.447538,456.407258 104.447538,460.5 C104.447538,464.350806 101.524247,465.419355 98.9213161,465.419355 Z M118.280037,468 C121.06317,468 123.445853,466.508065 123.445853,463.443548 C123.445853,460.641129 121.123238,459.834677 119.301186,459.270161 C117.699383,458.766129 116.598143,458.383065 116.598143,457.072581 C116.598143,455.681452 117.939653,455.116935 119.100961,455.116935 C120.102088,455.116935 121.163283,455.641129 121.703892,456.346774 L123.34574,454.532258 C122.264523,453.504032 120.642697,453 119.221096,453 C116.65821,453 114.035257,454.290323 114.035257,457.193548 C114.035257,459.854839 115.897354,460.701613 117.619293,461.245968 C119.401299,461.810484 120.882967,462.233871 120.882967,463.725806 C120.882967,465.258065 119.501412,465.842742 118.320082,465.842742 C117.198819,465.842742 115.917376,465.237903 115.216587,464.270161 L113.414558,465.96371 C114.535821,467.294355 116.437962,468 118.280037,468 Z M128.429927,467.637097 L128.429927,461.306452 L135.057389,461.306452 L135.057389,467.637097 L137.58023,467.637097 L137.58023,453.362903 L135.057389,453.362903 L135.057389,459.129032 L128.429927,459.129032 L128.429927,453.362903 L125.907086,453.362903 L125.907086,467.637097 L128.429927,467.637097 Z M141.743379,467.637097 L143.024822,464.370968 L149.171743,464.370968 L150.493231,467.637097 L153.376477,467.637097 L147.269601,453.362903 L145.087144,453.362903 L138.9202,467.637097 L141.743379,467.637097 Z M148.290751,462.193548 L143.885791,462.193548 L146.108294,456.387097 L148.290751,462.193548 Z M157.239288,467.637097 L157.239288,461.58871 L159.081363,461.58871 L162.36506,467.637097 L165.408487,467.637097 L161.624226,461.306452 C163.606458,460.862903 164.867878,459.512097 164.867878,457.455645 C164.867878,454.431452 162.304992,453.362903 159.641994,453.362903 L154.716448,453.362903 L154.716448,467.637097 L157.239288,467.637097 Z M159.301611,459.512097 L157.239288,459.512097 L157.239288,455.5 L159.521858,455.5 C160.823324,455.5 162.345037,455.883065 162.345037,457.435484 C162.345037,459.169355 160.723211,459.512097 159.301611,459.512097 Z M177,467.637097 L177,465.379032 L169.771861,465.379032 L169.771861,461.346774 L176.279188,461.346774 L176.279188,459.209677 L169.771861,459.209677 L169.771861,455.580645 L176.639594,455.580645 L176.639594,453.362903 L167.249021,453.362903 L167.249021,467.637097 L177,467.637097 Z" id="CLOUDSHARE" fill="#000000" fill-rule="nonzero"></path>
        <path d="M46.5677458,540 C48.9702047,540 50.8120899,539.072581 52.0533604,537.5 L50.0312908,536.068548 C49.3105531,537.056452 48.1093236,537.721774 46.5877663,537.721774 C43.6647745,537.721774 41.7828483,535.564516 41.7828483,532.459677 C41.7828483,529.516129 43.764877,527.237903 46.6878687,527.237903 C47.8290367,527.237903 49.1704096,527.681452 49.9111678,528.709677 L51.833135,527.177419 C50.7119875,525.685484 48.5297539,525 46.6878687,525 C42.3234016,525 39,527.883065 39,532.459677 C39,536.915323 42.1432172,540 46.5677458,540 Z M62.1021071,539.637097 L62.1021071,537.379032 L56.0759391,537.379032 L56.0759391,525.362903 L53.5533572,525.362903 L53.5533572,539.637097 L62.1021071,539.637097 Z M70.0286816,540 C74.4532102,540 77.6765093,536.915323 77.6765093,532.459677 C77.6765093,527.883065 74.4532102,525 70.0286816,525 C65.6642145,525 62.4409154,527.883065 62.4409154,532.459677 C62.4409154,536.915323 65.6642145,540 70.0286816,540 Z M70.0487021,537.721774 C67.1657513,537.721774 65.1837227,535.504032 65.1837227,532.459677 C65.1837227,529.516129 67.1257104,527.237903 70.0487021,527.237903 C72.9917144,527.237903 74.933702,529.516129 74.933702,532.459677 C74.933702,535.504032 72.9516734,537.721774 70.0487021,537.721774 Z M85.6431249,540 C88.8864445,540 91.3489649,537.842742 91.3489649,534.395161 L91.3489649,525.362903 L88.826383,525.362903 L88.826383,534.294355 C88.826383,535.947581 88.0656043,537.721774 85.6431249,537.721774 C83.2206454,537.721774 82.4598667,535.947581 82.4598667,534.294355 L82.4598667,525.362903 L79.9372848,525.362903 L79.9372848,534.395161 C79.9372848,537.842742 82.3998053,540 85.6431249,540 Z M99.3155805,539.637097 C103.019371,539.637097 107.143593,537.5 107.143593,532.5 C107.143593,527.137097 103.019371,525.362903 99.3155805,525.362903 L94.2904371,525.362903 L94.2904371,539.637097 L99.3155805,539.637097 Z M98.9151707,537.419355 L96.8130191,537.419355 L96.8130191,527.540323 L98.9151707,527.540323 C101.517835,527.540323 104.440826,528.407258 104.440826,532.5 C104.440826,536.350806 101.517835,537.419355 98.9151707,537.419355 Z M121.355061,540 C123.75752,540 125.599406,539.072581 126.840676,537.5 L124.818606,536.068548 C124.097869,537.056452 122.896639,537.721774 121.375082,537.721774 C118.45209,537.721774 116.570164,535.564516 116.570164,532.459677 C116.570164,529.516129 118.552193,527.237903 121.475184,527.237903 C122.616352,527.237903 123.957725,527.681452 124.698484,528.709677 L126.620451,527.177419 C125.499303,525.685484 123.31707,525 121.475184,525 C117.110717,525 113.787316,527.883065 113.787316,532.459677 C113.787316,536.915323 116.930533,540 121.355061,540 Z M135.007497,540 C139.432025,540 142.655324,536.915323 142.655324,532.459677 C142.655324,527.883065 139.432025,525 135.007497,525 C130.643029,525 127.41973,527.883065 127.41973,532.459677 C127.41973,536.915323 130.643029,540 135.007497,540 Z M135.027517,537.721774 C132.144566,537.721774 130.162538,535.504032 130.162538,532.459677 C130.162538,529.516129 132.104525,527.237903 135.027517,527.237903 C137.970529,527.237903 139.912517,529.516129 139.912517,532.459677 C139.912517,535.504032 137.930488,537.721774 135.027517,537.721774 Z M153.584973,539.637097 L153.584973,537.379032 L147.558805,537.379032 L147.558805,525.362903 L145.036223,525.362903 L145.036223,539.637097 L153.584973,539.637097 Z M163.753842,539.637097 L163.753842,537.379032 L157.727674,537.379032 L157.727674,525.362903 L155.205092,525.362903 L155.205092,539.637097 L163.753842,539.637097 Z M166.475089,539.637097 L167.7564,536.370968 L173.902691,536.370968 L175.224044,539.637097 L178.106994,539.637097 L172.000745,525.362903 L169.818511,525.362903 L163.6522,539.637097 L166.475089,539.637097 Z M173.02179,534.193548 L168.617282,534.193548 L170.839556,528.387097 L173.02179,534.193548 Z M184.552053,539.637097 C187.234798,539.637097 189.917544,538.58871 189.917544,535.483871 C189.917544,533.568548 188.636233,532.358871 186.854409,532.116935 L186.854409,532.076613 C188.315905,531.633065 189.31693,530.564516 189.31693,528.951613 C189.31693,526.350806 187.114676,525.362903 184.972483,525.362903 L179.446827,525.362903 L179.446827,539.637097 L184.552053,539.637097 Z M184.211704,531.169355 L181.969409,531.169355 L181.969409,527.459677 L183.991479,527.459677 C185.893426,527.459677 186.794348,527.96371 186.794348,529.233871 C186.794348,530.46371 185.893426,531.169355 184.211704,531.169355 Z M184.368246,537.49901 L181.969409,537.5 L181.969409,533.346774 L184.331827,533.346774 C186.373917,533.346774 187.394962,533.870968 187.394962,535.362903 C187.394962,537.173248 185.65925,537.480007 184.368246,537.49901 Z M199.245553,540 C203.670082,540 206.893381,536.915323 206.893381,532.459677 C206.893381,527.883065 203.670082,525 199.245553,525 C194.881086,525 191.657787,527.883065 191.657787,532.459677 C191.657787,536.915323 194.881086,540 199.245553,540 Z M199.265574,537.721774 C196.382623,537.721774 194.400594,535.504032 194.400594,532.459677 C194.400594,529.516129 196.342582,527.237903 199.265574,527.237903 C202.208586,527.237903 204.150574,529.516129 204.150574,532.459677 C204.150574,535.504032 202.168545,537.721774 199.265574,537.721774 Z M211.796861,539.637097 L211.796861,533.58871 L213.638747,533.58871 L216.922107,539.637097 L219.965222,539.637097 L216.181349,533.306452 C218.163378,532.862903 219.424669,531.512097 219.424669,529.455645 C219.424669,526.431452 216.862046,525.362903 214.19932,525.362903 L209.274279,525.362903 L209.274279,539.637097 L211.796861,539.637097 Z M213.858972,531.512097 L211.796861,531.512097 L211.796861,527.5 L214.079197,527.5 C215.380529,527.5 216.902087,527.883065 216.902087,529.435484 C216.902087,531.169355 215.280427,531.512097 213.858972,531.512097 Z M222.906694,539.637097 L224.188006,536.370968 L230.334296,536.370968 L231.655649,539.637097 L234.5386,539.637097 L228.43235,525.362903 L226.250116,525.362903 L220.083805,539.637097 L222.906694,539.637097 Z M229.453395,534.193548 L225.048887,534.193548 L227.271161,528.387097 L229.453395,534.193548 Z M240.062715,539.637097 L240.062715,527.580645 L244.407162,527.580645 L244.407162,525.362903 L233.195687,525.362903 L233.195687,527.580645 L237.540133,527.580645 L237.540133,539.637097 L240.062715,539.637097 Z M248.509823,539.637097 L248.509823,525.362903 L245.987241,525.362903 L245.987241,539.637097 L248.509823,539.637097 Z M258.478487,540 C262.903016,540 266.126315,536.915323 266.126315,532.459677 C266.126315,527.883065 262.903016,525 258.478487,525 C254.11402,525 250.890721,527.883065 250.890721,532.459677 C250.890721,536.915323 254.11402,540 258.478487,540 Z M258.498508,537.721774 C255.615557,537.721774 253.633528,535.504032 253.633528,532.459677 C253.633528,529.516129 255.575516,527.237903 258.498508,527.237903 C261.44152,527.237903 263.383508,529.516129 263.383508,532.459677 C263.383508,535.504032 261.401479,537.721774 258.498508,537.721774 Z M271.029795,539.637097 L271.029795,528.608871 L271.069836,528.608871 L277.796721,539.637097 L281,539.637097 L281,525.362903 L278.477418,525.362903 L278.477418,536.048387 L278.437377,536.048387 L271.850635,525.362903 L268.507213,525.362903 L268.507213,539.637097 L271.029795,539.637097 Z" id="CLOUDCOLLABORATION" fill="#000000" fill-rule="nonzero"></path>
        <path d="M42.5146068,611.637097 L42.5146068,605.58871 L44.3506689,605.58871 L47.6236492,611.637097 L50.6571431,611.637097 L46.8852329,605.306452 C48.8609954,604.862903 50.1182988,603.512097 50.1182988,601.455645 C50.1182988,598.431452 47.5637776,597.362903 44.9094704,597.362903 L40,597.362903 L40,611.637097 L42.5146068,611.637097 Z M44.5701981,603.512097 L42.5146068,603.512097 L42.5146068,599.5 L44.7897272,599.5 C46.086945,599.5 47.603692,599.883065 47.603692,601.435484 C47.603692,603.169355 45.987159,603.512097 44.5701981,603.512097 Z M62.2108248,611.637097 L62.2108248,609.379032 L55.0062768,609.379032 L55.0062768,605.346774 L61.4923658,605.346774 L61.4923658,603.209677 L55.0062768,603.209677 L55.0062768,599.580645 L61.8515953,599.580645 L61.8515953,597.362903 L52.49167,597.362903 L52.49167,611.637097 L62.2108248,611.637097 Z M68.3960207,612 C71.170071,612 73.5449774,610.508065 73.5449774,607.443548 C73.5449774,604.641129 71.2299426,603.834677 69.4138377,603.270161 C67.817262,602.766129 66.7196161,602.383065 66.7196161,601.072581 C66.7196161,599.681452 68.0567483,599.116935 69.2142657,599.116935 C70.2121256,599.116935 71.269857,599.641129 71.8087013,600.346774 L73.4451915,598.532258 C72.3675028,597.504032 70.7509699,597 69.3340089,597 C66.7794877,597 64.1650949,598.290323 64.1650949,601.193548 C64.1650949,603.854839 66.0211142,604.701613 67.7374332,605.245968 C69.5136237,605.810484 70.9904562,606.233871 70.9904562,607.725806 C70.9904562,609.258065 69.6134097,609.842742 68.4359351,609.842742 C67.318332,609.842742 66.0410714,609.237903 65.3425696,608.270161 L63.5464218,609.96371 C64.6640249,611.294355 66.5599586,612 68.3960207,612 Z M78.5127843,611.637097 L78.5127843,605.729839 L80.4486323,605.729839 C83.4422119,605.729839 85.9368615,604.641129 85.9368615,601.495968 C85.9368615,598.512097 83.8413558,597.362903 80.6082899,597.362903 L75.9981775,597.362903 L75.9981775,611.637097 L78.5127843,611.637097 Z M80.2690176,603.592742 L78.5127843,603.592742 L78.5127843,599.5 L80.3488464,599.5 C81.9055077,599.5 83.4022975,599.802419 83.4022975,601.495968 C83.4022975,603.189516 81.9055077,603.592742 80.2690176,603.592742 Z M94.9958936,612 C99.4064341,612 102.619543,608.915323 102.619543,604.459677 C102.619543,599.883065 99.4064341,597 94.9958936,597 C90.6452247,597 87.432116,599.883065 87.432116,604.459677 C87.432116,608.915323 90.6452247,612 94.9958936,612 Z M95.0158508,609.721774 C92.1420145,609.721774 90.166252,607.504032 90.166252,604.459677 C90.166252,601.516129 92.1021001,599.237903 95.0158508,599.237903 C97.9495587,599.237903 99.8854068,601.516129 99.8854068,604.459677 C99.8854068,607.504032 97.9096443,609.721774 95.0158508,609.721774 Z M107.507521,611.637097 L107.507521,600.608871 L107.547435,600.608871 L114.253053,611.637097 L117.446205,611.637097 L117.446205,597.362903 L114.931598,597.362903 L114.931598,608.048387 L114.891684,608.048387 L108.325766,597.362903 L104.992914,597.362903 L104.992914,611.637097 L107.507521,611.637097 Z M124.289988,612 C127.064038,612 129.438945,610.508065 129.438945,607.443548 C129.438945,604.641129 127.12391,603.834677 125.307805,603.270161 C123.711229,602.766129 122.613584,602.383065 122.613584,601.072581 C122.613584,599.681452 123.950716,599.116935 125.108233,599.116935 C126.106093,599.116935 127.163824,599.641129 127.702669,600.346774 L129.339159,598.532258 C128.26147,597.504032 126.644937,597 125.227976,597 C122.673455,597 120.059062,598.290323 120.059062,601.193548 C120.059062,603.854839 121.915082,604.701613 123.631401,605.245968 C125.407591,605.810484 126.884424,606.233871 126.884424,607.725806 C126.884424,609.258065 125.507377,609.842742 124.329903,609.842742 C123.2123,609.842742 121.935039,609.237903 121.236537,608.270161 L119.440389,609.96371 C120.557992,611.294355 122.453926,612 124.289988,612 Z M134.406752,611.637097 L134.406752,597.362903 L131.892145,597.362903 L131.892145,611.637097 L134.406752,611.637097 Z M143.465784,611.637097 L149.133628,597.362903 L146.419449,597.362903 L142.487881,608.350806 L142.408052,608.350806 L138.516399,597.362903 L135.702434,597.362903 L141.290449,611.637097 L143.465784,611.637097 Z M160.148465,611.637097 L160.148465,609.379032 L152.943917,609.379032 L152.943917,605.346774 L159.430006,605.346774 L159.430006,603.209677 L152.943917,603.209677 L152.943917,599.580645 L159.789236,599.580645 L159.789236,597.362903 L150.42931,597.362903 L150.42931,611.637097 L160.148465,611.637097 Z M175.991409,611.637097 L175.991409,609.379032 L169.984293,609.379032 L169.984293,597.362903 L167.469686,597.362903 L167.469686,611.637097 L175.991409,611.637097 Z M178.704053,611.637097 L179.981313,608.370968 L186.108173,608.370968 L187.425348,611.637097 L190.299184,611.637097 L184.212239,597.362903 L182.036905,597.362903 L175.890088,611.637097 L178.704053,611.637097 Z M185.230056,606.193548 L180.839473,606.193548 L183.054722,600.387097 L185.230056,606.193548 Z M196.364637,611.637097 L196.364637,605.447581 L201.673251,597.362903 L198.7595,597.362903 L195.167205,603.370968 L191.614824,597.362903 L188.541416,597.362903 L193.85003,605.447581 L193.85003,611.637097 L196.364637,611.637097 Z M209.11575,612 C213.526291,612 216.739399,608.915323 216.739399,604.459677 C216.739399,599.883065 213.526291,597 209.11575,597 C204.765081,597 201.551973,599.883065 201.551973,604.459677 C201.551973,608.915323 204.765081,612 209.11575,612 Z M209.135707,609.721774 C206.261871,609.721774 204.286109,607.504032 204.286109,604.459677 C204.286109,601.516129 206.221957,599.237903 209.135707,599.237903 C212.069415,599.237903 214.005263,601.516129 214.005263,604.459677 C214.005263,607.504032 212.029501,609.721774 209.135707,609.721774 Z M224.680829,612 C227.913894,612 230.36863,609.842742 230.36863,606.395161 L230.36863,597.362903 L227.854023,597.362903 L227.854023,606.294355 C227.854023,607.947581 227.095649,609.721774 224.680829,609.721774 C222.266008,609.721774 221.507634,607.947581 221.507634,606.294355 L221.507634,597.362903 L218.993027,597.362903 L218.993027,606.395161 C218.993027,609.842742 221.447763,612 224.680829,612 Z M238.669288,611.637097 L238.669288,599.580645 L243,599.580645 L243,597.362903 L231.82397,597.362903 L231.82397,599.580645 L236.154682,599.580645 L236.154682,611.637097 L238.669288,611.637097 Z" id="RESPONSIVELAYOUT" fill="#000000" fill-rule="nonzero"></path>
        <circle id="Oval" fill="#0991FF" cx="426" cy="245" r="14"></circle>
        <circle id="Oval" fill="#0991FF" cx="426" cy="317" r="14"></circle>
        <circle id="Oval" fill="#0991FF" cx="426" cy="461" r="14"></circle>
        <circle id="Oval" fill="#FF6661" cx="694" cy="245" r="14"></circle>
        <circle id="Oval" fill="#FF6661" cx="694" cy="317" r="14"></circle>
        <circle id="Oval" fill="#FF6661" cx="694" cy="461" r="14"></circle>
        <circle id="Oval" fill="#000000" cx="963" cy="173" r="14"></circle>
        <circle id="Oval" fill="#000000" cx="963" cy="245" r="14"></circle>
        <circle id="Oval" fill="#000000" cx="963" cy="317" r="14"></circle>
        <circle id="Oval" fill="#000000" cx="963" cy="389" r="14"></circle>
        <circle id="Oval" fill="#000000" cx="963" cy="461" r="14"></circle>
        <circle id="Oval" fill="#000000" cx="963" cy="533" r="14"></circle>
        <circle id="Oval" fill="#000000" cx="963" cy="605" r="14"></circle>
        <circle id="Oval" fill="#DBDB00" cx="1231" cy="173" r="14"></circle>
        <circle id="Oval" fill="#DBDB00" cx="1231" cy="245" r="14"></circle>
        <circle id="Oval" fill="#DBDB00" cx="1231" cy="317" r="14"></circle>
        <circle id="Oval" fill="#DBDB00" cx="1231" cy="461" r="14"></circle>
        <circle id="Oval" fill="#DC395F" cx="1500" cy="317" r="14"></circle>
        <circle id="Oval" fill="#DC395F" cx="1500" cy="461" r="14"></circle>
        <circle id="Oval" fill="#74BB11" cx="1768" cy="173" r="14"></circle>
        <circle id="Oval" fill="#74BB11" cx="1768" cy="245" r="14"></circle>
        <circle id="Oval" fill="#74BB11" cx="1768" cy="317" r="14"></circle>
        <circle id="Oval" fill="#74BB11" cx="1768" cy="461" r="14"></circle>
    </g>
</svg>