<?xml version="1.0" encoding="UTF-8"?>
<svg width="1859px" height="635px" viewBox="0 0 1859 635" version="1.1" xmlns="http://www.w3.org/2000/svg" xmlns:xlink="http://www.w3.org/1999/xlink">
    <title>comp_analysis</title>
    <g id="comp_analysis" stroke="none" stroke-width="1" fill="none" fill-rule="evenodd">
        <rect fill="#FFFFFF" x="0" y="0" width="1859" height="635"></rect>
        <rect id="Rectangle" fill-opacity="0.8" fill="#E8ECF0" x="-25" y="131" width="2000" height="72"></rect>
        <rect id="Rectangle" fill-opacity="0.8" fill="#E8ECF0" x="-25" y="275" width="2000" height="72"></rect>
        <rect id="Rectangle" fill-opacity="0.8" fill="#E8ECF0" x="-25" y="419" width="2000" height="72"></rect>
        <rect id="Rectangle" fill-opacity="0.8" fill="#E8ECF0" x="-25" y="563" width="2000" height="72"></rect>
        <g id="Group-6" transform="translate(1179.000000, 27.000000)">
            <g id="Group" transform="translate(24.000000, 0.000000)">
                <rect id="Rectangle" stroke="#000000" fill="#FFFFFF" x="0" y="0" width="55" height="42"></rect>
                <g id="uxpin-dark" transform="translate(10.000000, 13.000000)" fill="#000000" fill-rule="nonzero">
                    <path d="M1.79512195,0 L1.79512195,10.9535452 C1.79512195,11.4229829 1.79512195,11.8924205 1.83414634,12.3227384 C1.87317073,12.7530562 1.95121951,13.1442543 2.06829268,13.4572127 C2.22439024,13.7701711 2.4195122,14.00489 2.73170732,14.200489 C3.00487805,14.396088 3.43414634,14.4743276 3.9804878,14.4743276 C4.83902439,14.4743276 5.46341463,14.200489 5.77560976,13.6919315 C6.08780488,13.1833741 6.28292683,12.2836186 6.28292683,11.0709046 L6.28292683,0 L8,0 L8,10.9535452 C8,11.2273839 8,11.5403423 7.96097561,11.9315403 C7.96097561,12.2836186 7.88292683,12.6748166 7.84390244,13.0268949 C7.76585366,13.3789731 7.64878049,13.7701711 7.49268293,14.1222494 C7.33658537,14.4743276 7.10243902,14.7872861 6.7902439,15.0611247 C6.47804878,15.3349633 6.12682927,15.5696822 5.65853659,15.7261614 C5.1902439,15.8826406 4.64390244,16 3.94146341,16 C2.96585366,16 2.22439024,15.8435208 1.67804878,15.5305623 C1.13170732,15.2176039 0.741463415,14.8264059 0.507317073,14.3569682 C0.273170732,13.8875306 0.117073171,13.3398533 0.0780487805,12.7530562 C0.0390243902,12.1662592 0,11.5794621 0,10.992665 L0,0.0391198044 L1.79512195,0.0391198044 L1.79512195,0 Z" id="Path"></path>
                    <polygon id="Path" points="8.39111111 0 10.1333333 0 12.0533333 5.38653367 14.0444444 0 15.6444444 0 12.8355556 6.88279302 16 14.9625935 14.1511111 14.9625935 11.8755556 8.75311721 9.6 15 8 15 11.1288889 7.18204489"></polygon>
                    <path d="M17,0 L19.7857143,0 C20.5357143,0 21.1785714,0.075 21.7142857,0.225 C22.2142857,0.375 22.6785714,0.7125 23.0714286,1.2 C23.1785714,1.35 23.2857143,1.5 23.3928571,1.6875 C23.5,1.875 23.6071429,2.1 23.7142857,2.3625 C23.8214286,2.625 23.8928571,2.925 23.9285714,3.2625 C24,3.6 24,4.0125 24,4.4625 C24,5.0625 23.9285714,5.625 23.7857143,6.15 C23.6428571,6.675 23.4285714,7.1625 23.1071429,7.575 C22.7857143,7.9875 22.3928571,8.2875 21.8928571,8.55 C21.3928571,8.775 20.7857143,8.8875 20.0357143,8.8875 L18.6428571,8.8875 L18.6428571,15 L17,15 L17,0 Z M18.6428571,7.4625 L20,7.4625 C20.3214286,7.4625 20.6428571,7.425 20.9285714,7.35 C21.2142857,7.275 21.4642857,7.125 21.6785714,6.9375 C21.8928571,6.7125 22.0714286,6.4125 22.1785714,6.0375 C22.2857143,5.6625 22.3571429,5.1375 22.3571429,4.5375 C22.3571429,3.7875 22.25,3.1875 22.0714286,2.775 C21.8928571,2.3625 21.6428571,2.0625 21.3928571,1.875 C21.1428571,1.6875 20.8571429,1.575 20.5714286,1.5375 C20.2857143,1.5 20.0714286,1.5 19.8571429,1.5 L18.6071429,1.5 L18.6071429,7.4625 L18.6428571,7.4625 Z" id="Shape"></path>
                    <path d="M28,0 L28,1.9125 L26,1.9125 L26,0 L28,0 Z M26.0888889,3.9 L27.9111111,3.9 L27.9111111,15 L26.0888889,15 L26.0888889,3.9 Z" id="Shape"></path>
                    <path d="M29,3.27722772 L30.3652695,3.27722772 L30.3652695,5.05940594 C30.4011976,4.94059406 30.4730539,4.74257426 30.5808383,4.5049505 C30.6886228,4.26732673 30.8323353,4.02970297 31.011976,3.83168317 C31.1916168,3.59405941 31.4431138,3.3960396 31.6946108,3.23762376 C31.9820359,3.07920792 32.3053892,3 32.7005988,3 C33.1676647,3 33.5628743,3.11881188 33.8862275,3.31683168 C34.2095808,3.55445545 34.497006,3.83168317 34.6407186,4.18811881 C34.8203593,4.54455446 34.9281437,5.01980198 34.9640719,5.65346535 C35,6.24752475 35,6.88118812 35,7.55445545 L35,15 L33.5628743,15 L33.5628743,7.59405941 C33.5628743,7.23762376 33.5628743,6.88118812 33.5269461,6.48514851 C33.5269461,6.12871287 33.4550898,5.81188119 33.3832335,5.4950495 C33.3113772,5.21782178 33.1676647,4.98019802 32.988024,4.78217822 C32.8083832,4.58415842 32.5568862,4.5049505 32.2335329,4.5049505 C31.8383234,4.5049505 31.5508982,4.62376238 31.2994012,4.9009901 C31.0838323,5.17821782 30.9041916,5.4950495 30.7964072,5.85148515 C30.6886228,6.24752475 30.6167665,6.64356436 30.5808383,7.07920792 C30.5449102,7.51485149 30.5449102,7.91089109 30.5449102,8.22772277 L30.5449102,15 L29.0718563,15 L29.0718563,3.27722772 L29,3.27722772 Z" id="Path"></path>
                </g>
            </g>
            <text id="UXPin" font-family="AvenirNextforINTUIT-Demi, AvenirNext forINTUIT" font-size="20" font-weight="400" letter-spacing="-0.0615384783" fill="#000000">
                <tspan x="24.0738462" y="78">UXPin</tspan>
            </text>
        </g>
        <g id="Group-4" transform="translate(642.000000, 27.000000)">
            <g id="Artboard" transform="translate(31.000000, 0.000000)">
                <path d="M20.8882475,35.1781964 L21,42 C19.9826694,42.0009899 19.0049812,41.6050621 18.2743754,40.8962204 L17.7440245,40.2608844 L4.8186164,24.8724775 L0.420492469,19.636171 C0.408858817,19.6297506 0.39957051,19.6197862 0.393974926,19.6077231 L0.325786958,19.5261725 L0.310634076,19.5091038 C0.22443116,19.395339 0.155498078,19.2694396 0.106070172,19.1354883 C0.0409300104,18.9723699 0.00502365178,18.7990292 0,18.6234264 L0,18.5153245 C0.00946889152,18.1360031 0.159324993,17.773727 0.420492469,17.4987869 C0.715130572,17.1803901 1.12913209,16.999592 1.56264093,17 L5.90204744,17 L20.8844593,35.1819894 L20.8882475,35.1819894 L20.8882475,35.1781964 Z" id="Path" fill="#FCD1CA"></path>
                <path d="M21,26.5752631 L21,35 L0.392345365,10.5990735 C0.147101324,10.3286859 0.00786739976,9.97987217 0,9.61615606 L0,9.51030341 C0.010276812,9.1335186 0.160921351,8.77389012 0.422818792,8.50092276 C0.7170123,8.18024 1.13430454,7.99823586 1.57128605,8 L5.4775984,8 L21,26.5771533 L21,26.5752631 Z" id="Path" fill="#FF9D8D"></path>
                <path d="M1.56176073,0 C1.11227837,0 0.698983156,0.190473298 0.419008977,0.500921167 C0.159621694,0.774203763 0.0103914201,1.13371342 0,1.51035289 L0,1.61510524 C0.00394587977,1.79281531 0.0400827061,1.96833721 0.10665683,2.13315322 C0.108561417,2.14648533 0.114275175,2.15791286 0.119988934,2.17124498 C0.188540735,2.33619381 0.28665036,2.48723114 0.409486045,2.61691861 L0.430436494,2.64358284 L20.9999681,26.9347002 L20.9999681,42 C22.0165906,42.0019886 22.9938223,41.6069952 23.7235264,40.8991405 L23.7273356,40.8972359 L41.6056868,19.6725055 C41.6285418,19.6496505 41.6475877,19.6248908 41.6666336,19.6001312 C41.7631966,19.4809347 41.8403302,19.3472365 41.8951839,19.2039768 C41.9661476,19.0245761 42.0017191,18.8331366 42,18.6402188 L42,1.56177677 C42.0009642,1.16632089 41.8495285,0.785684971 41.577118,0.499016579 C41.2833887,0.179289929 40.8685302,-0.00186511741 40.4343662,0 L1.56176073,0 Z" id="Path" fill="#FF6661"></path>
            </g>
            <text id="ProtoPie" font-family="AvenirNextforINTUIT-Demi, AvenirNext forINTUIT" font-size="20" font-weight="400" letter-spacing="-0.0615384783" fill="#000000">
                <tspan x="13.2661539" y="78">ProtoPie</tspan>
            </text>
        </g>
        <g id="Group-5" transform="translate(911.000000, 27.000000)" fill="#000000">
            <text id="FramerX" font-family="AvenirNextforINTUIT-Demi, AvenirNext forINTUIT" font-size="20" font-weight="400" letter-spacing="-0.0615384783">
                <tspan x="13.0353847" y="78">FramerX</tspan>
            </text>
            <g id="Group-2" transform="translate(38.000000, 0.000000)" fill-rule="nonzero">
                <polygon id="Path" points="0 0 28 0 28 14 14 14"></polygon>
                <path d="M0,14 L14,14 L28,28 L14.1521739,28 L14.1521739,42 L0,28 L0,14 Z" id="Combined-Shape"></path>
            </g>
        </g>
        <g id="Group-7" transform="translate(1448.000000, 27.000000)">
            <text id="InVision" font-family="AvenirNextforINTUIT-Demi, AvenirNext forINTUIT" font-size="20" font-weight="400" letter-spacing="-0.0615384783" fill="#000000">
                <tspan x="15.5361539" y="78">InVision</tspan>
            </text>
            <g id="invision" transform="translate(31.000000, 0.000000)" fill-rule="nonzero">
                <path d="M38.1926016,0 L3.80739844,0 C1.70460937,0 0,1.70460937 0,3.80739844 L0,38.1926016 C0,40.2953906 1.70460937,42 3.80739844,42 L38.1926016,42 C40.2953906,42 42,40.2953906 42,38.1926016 L42,3.80739844 C42,1.70460937 40.2953906,0 38.1926016,0" id="Path" fill="#DC395F"></path>
                <path d="M14.2596421,13.0145295 C15.6302726,13.0145295 16.7784776,11.9291899 16.7784776,10.5066952 C16.7784776,9.08517692 15.6302726,8 14.2596421,8 C12.8890116,8 11.7411287,9.08517692 11.7411287,10.5066952 C11.7411287,11.9290271 12.8890116,13.0145295 14.2596421,13.0145295 M9.03707283,26.4421498 C8.88905762,27.0783834 8.81480842,27.7653855 8.81480842,28.3257917 C8.81480842,30.5340592 10.0000575,32 12.518893,32 C14.6078563,32 16.3014145,30.7467337 17.5208085,28.7229902 L16.7762228,31.7419267 L20.924353,31.7419267 L23.2951733,22.1351251 C23.8878784,19.7027927 25.0360835,18.4402514 26.7771546,18.4402514 C28.1476241,18.4402514 28.9994766,19.3013635 28.9994766,20.7228818 C28.9994766,21.134725 28.9624325,21.5833429 28.8142562,22.0700372 L27.591802,26.4857586 C27.4065816,27.1219922 27.3328156,27.7585513 27.3328156,28.3568712 C27.3328156,30.4531876 28.5547867,31.9864943 31.1106663,31.9864943 C33.2961052,31.9864943 35.0368542,30.5651387 36,27.1595805 L34.3703832,26.5239977 C33.5554137,28.8054891 32.8515764,29.2179832 32.2959154,29.2179832 C31.7402544,29.2179832 31.4439018,28.8440536 31.4439018,28.0960317 C31.4439018,27.7592021 31.5183121,27.3854352 31.6291222,26.9353529 L32.8146934,22.6333724 C33.1108849,21.6232092 33.2221781,20.7274379 33.2221781,19.9044022 C33.2221781,16.6861343 31.2958866,15.0065427 28.9624325,15.0065427 C26.7771546,15.0065427 24.5545106,16.9980677 23.4435107,19.0940587 L24.258158,15.3319819 L17.9245889,15.3319819 L17.0355312,18.6456035 L19.9988956,18.6456035 L18.1740726,26.026564 C16.7411114,29.244832 14.1088889,29.2970649 13.7785524,29.2223767 C13.2360984,29.0987098 12.8891727,28.8905914 12.8891727,28.1785305 C12.8891727,27.7676636 12.9632608,27.1774796 13.1484811,26.4659069 L15.9267862,15.3319819 L8.88905762,15.3319819 L8,18.6456035 L10.9259981,18.6456035 L9.03723389,26.4421498" id="Shape" fill="#FFFFFF"></path>
            </g>
        </g>
        <g id="Group-8" transform="translate(1716.000000, 27.000000)">
            <text id="Axure-RP" font-family="AvenirNextforINTUIT-Demi, AvenirNext forINTUIT" font-size="20" font-weight="400" letter-spacing="-0.0615384783" fill="#000000">
                <tspan x="9.90615391" y="78">Axure RP</tspan>
            </text>
            <g id="Axure-01" transform="translate(33.000000, 0.000000)" fill-rule="nonzero">
                <path d="M34.830073,1.13380282 L34.830073,1.13380282 C34.4920709,0.443661972 33.8160667,0 32.9952045,0 L29.7600417,0 C28.8426075,0 28.1183173,0.394366197 27.7803152,1.08450704 L23,8.18309859 L27.152597,14 L34.4437849,3.35211268 C35.2646471,2.36619718 34.974931,1.47887324 34.830073,1.13380282" id="XMLID_7_" fill="#74BB11"></path>
                <path d="M9.25557766,0.985915493 L9.25557766,0.985915493 C8.50314578,0 7.49990328,0 7.1487684,0 L3.88823025,0 C3.03547412,0 2.38336649,0.394366197 2.03223162,1.03521127 C1.68109674,1.72535211 1.73125886,2.51408451 2.23288012,3.25352113 L14.3219523,19.7183099 L0.427043606,38.7957746 C-0.0745776474,39.5352113 -0.124739773,40.3239437 0.226395105,40.9647887 C0.577529982,41.6056338 1.27979974,42 2.08239374,42 L5.44325614,42 C6.29601227,42 7.04844415,41.556338 7.44974115,40.8661972 L23,19.7676056 L9.25557766,0.985915493 Z" id="XMLID_8_" fill="#009CD9"></path>
                <path d="M36.7110113,39.0152905 L27.1771898,26 L23,31.7247706 L30.5189417,41.706422 L30.7155153,41.8042813 C31.0595192,41.9510703 31.3543796,42 31.6492401,42 L34.8435617,42 C35.6298563,42 36.2687206,41.6574924 36.6618679,41.0703364 C37.1041586,40.5321101 37.1041586,39.7492355 36.7110113,39.0152905" id="XMLID_9_" fill="#EB2084"></path>
            </g>
        </g>
        <g id="Group-3" transform="translate(374.000000, 27.000000)">
            <text id="Origami" font-family="AvenirNextforINTUIT-Demi, AvenirNext forINTUIT" font-size="20" font-weight="400" letter-spacing="-0.0615384783" fill="#000000">
                <tspan x="14.0053847" y="78">Origami</tspan>
            </text>
            <g id="origami" transform="translate(32.000000, 0.000000)" fill-rule="nonzero">
                <path d="M14.8144531,14.8424684 L14.8144531,0 L0,0 L14.8144531,14.8424684 Z M41,11.4135684 L35.6667969,6.13338444 L28.2515625,13.5385205 L14.8144531,0 L14.8144531,42 L35.6667969,20.9919509 L35.6667969,11.4135684 L41,11.4135684 Z" id="Shape" fill="#0991FF"></path>
                <polyline id="Path" fill="#62CCFD" points="0 0 15 15 15 0 0 0"></polyline>
                <polyline id="Path" fill="#0991FF" points="15 42 15 0 36 20.9919509 15 42"></polyline>
                <polygon id="Path" fill="#62CCFD" points="35 6 35 21 28 13.475623"></polygon>
                <polygon id="Path" fill="#0991FF" points="36 6 36 11 41 11"></polygon>
            </g>
        </g>
        <path d="M44.58,175 C48.28,175 52.4,172.88 52.4,167.92 C52.4,162.6 48.28,160.84 44.58,160.84 L39.56,160.84 L39.56,175 L44.58,175 Z M44.18,172.8 L42.08,172.8 L42.08,163 L44.18,163 C46.78,163 49.7,163.86 49.7,167.92 C49.7,171.74 46.78,172.8 44.18,172.8 Z M55.3984615,175 L56.6784615,171.76 L62.8184615,171.76 L64.1384615,175 L67.0184615,175 L60.9184615,160.84 L58.7384615,160.84 L52.5784615,175 L55.3984615,175 Z M61.9384615,169.6 L57.5384615,169.6 L59.7584615,163.84 L61.9384615,169.6 Z M72.536923,175 L72.536923,163.04 L76.876923,163.04 L76.876923,160.84 L65.676923,160.84 L65.676923,163.04 L70.016923,163.04 L70.016923,175 L72.536923,175 Z M78.3553846,175 L79.6353846,171.76 L85.7753846,171.76 L87.0953846,175 L89.9753846,175 L83.8753846,160.84 L81.6953846,160.84 L75.5353846,175 L78.3553846,175 Z M84.8953846,169.6 L80.4953846,169.6 L82.7153846,163.84 L84.8953846,169.6 Z M98.4123076,175 L98.4123076,169.14 L100.352308,169.14 C103.352308,169.14 105.852308,168.06 105.852308,164.94 C105.852308,161.98 103.752308,160.84 100.512308,160.84 L95.8923076,160.84 L95.8923076,175 L98.4123076,175 Z M100.172308,167.02 L98.4123076,167.02 L98.4123076,162.96 L100.252308,162.96 C101.812308,162.96 103.312308,163.26 103.312308,164.94 C103.312308,166.62 101.812308,167.02 100.172308,167.02 Z M117.770769,175 L117.770769,172.76 L110.550769,172.76 L110.550769,168.76 L117.050769,168.76 L117.050769,166.64 L110.550769,166.64 L110.550769,163.04 L117.410769,163.04 L117.410769,160.84 L108.030769,160.84 L108.030769,175 L117.770769,175 Z M122.689231,175 L122.689231,169 L124.529231,169 L127.809231,175 L130.849231,175 L127.069231,168.72 C129.049231,168.28 130.309231,166.94 130.309231,164.9 C130.309231,161.9 127.749231,160.84 125.089231,160.84 L120.169231,160.84 L120.169231,175 L122.689231,175 Z M124.749231,166.94 L122.689231,166.94 L122.689231,162.96 L124.969231,162.96 C126.269231,162.96 127.789231,163.34 127.789231,164.88 C127.789231,166.6 126.169231,166.94 124.749231,166.94 Z M136.487692,175.36 C139.267692,175.36 141.647692,173.88 141.647692,170.84 C141.647692,168.06 139.327692,167.26 137.507692,166.7 C135.907692,166.2 134.807692,165.82 134.807692,164.52 C134.807692,163.14 136.147692,162.58 137.307692,162.58 C138.307692,162.58 139.367692,163.1 139.907692,163.8 L141.547692,162 C140.467692,160.98 138.847692,160.48 137.427692,160.48 C134.867692,160.48 132.247692,161.76 132.247692,164.64 C132.247692,167.28 134.107692,168.12 135.827692,168.66 C137.607692,169.22 139.087692,169.64 139.087692,171.12 C139.087692,172.64 137.707692,173.22 136.527692,173.22 C135.407692,173.22 134.127692,172.62 133.427692,171.66 L131.627692,173.34 C132.747692,174.66 134.647692,175.36 136.487692,175.36 Z M146.626154,175 L146.626154,160.84 L144.106154,160.84 L144.106154,175 L146.626154,175 Z M153.484615,175.36 C156.264615,175.36 158.644615,173.88 158.644615,170.84 C158.644615,168.06 156.324615,167.26 154.504615,166.7 C152.904615,166.2 151.804615,165.82 151.804615,164.52 C151.804615,163.14 153.144615,162.58 154.304615,162.58 C155.304615,162.58 156.364615,163.1 156.904615,163.8 L158.544615,162 C157.464615,160.98 155.844615,160.48 154.424615,160.48 C151.864615,160.48 149.244615,161.76 149.244615,164.64 C149.244615,167.28 151.104615,168.12 152.824615,168.66 C154.604615,169.22 156.084615,169.64 156.084615,171.12 C156.084615,172.64 154.704615,173.22 153.524615,173.22 C152.404615,173.22 151.124615,172.62 150.424615,171.66 L148.624615,173.34 C149.744615,174.66 151.644615,175.36 153.484615,175.36 Z M166.163077,175 L166.163077,163.04 L170.503077,163.04 L170.503077,160.84 L159.303077,160.84 L159.303077,163.04 L163.643077,163.04 L163.643077,175 L166.163077,175 Z M181.821538,175 L181.821538,172.76 L174.601538,172.76 L174.601538,168.76 L181.101538,168.76 L181.101538,166.64 L174.601538,166.64 L174.601538,163.04 L181.461538,163.04 L181.461538,160.84 L172.081538,160.84 L172.081538,175 L181.821538,175 Z M186.74,175 L186.74,164.06 L186.78,164.06 L193.5,175 L196.7,175 L196.7,160.84 L194.18,160.84 L194.18,171.44 L194.14,171.44 L187.56,160.84 L184.22,160.84 L184.22,175 L186.74,175 Z M206.638461,175.36 C209.038461,175.36 210.878461,174.44 212.118461,172.88 L210.098461,171.46 C209.378461,172.44 208.178461,173.1 206.658461,173.1 C203.738461,173.1 201.858461,170.96 201.858461,167.88 C201.858461,164.96 203.838461,162.7 206.758461,162.7 C207.898461,162.7 209.238461,163.14 209.978461,164.16 L211.898461,162.64 C210.778461,161.16 208.598461,160.48 206.758461,160.48 C202.398461,160.48 199.078461,163.34 199.078461,167.88 C199.078461,172.3 202.218461,175.36 206.638461,175.36 Z M223.356923,175 L223.356923,172.76 L216.136923,172.76 L216.136923,168.76 L222.636923,168.76 L222.636923,166.64 L216.136923,166.64 L216.136923,163.04 L222.996923,163.04 L222.996923,160.84 L213.616923,160.84 L213.616923,175 L223.356923,175 Z" id="DATAPERSISTENCE" fill="#000000" fill-rule="nonzero"></path>
        <path d="M48.1,247 L48.1,244.76 L42.08,244.76 L42.08,232.84 L39.56,232.84 L39.56,247 L48.1,247 Z M56.0184615,247.36 C60.4384615,247.36 63.6584615,244.3 63.6584615,239.88 C63.6584615,235.34 60.4384615,232.48 56.0184615,232.48 C51.6584615,232.48 48.4384615,235.34 48.4384615,239.88 C48.4384615,244.3 51.6584615,247.36 56.0184615,247.36 Z M56.0384615,245.1 C53.1584615,245.1 51.1784615,242.9 51.1784615,239.88 C51.1784615,236.96 53.1184615,234.7 56.0384615,234.7 C58.9784615,234.7 60.9184615,236.96 60.9184615,239.88 C60.9184615,242.9 58.9384615,245.1 56.0384615,245.1 Z M73.096923,247.36 C75.316923,247.36 77.016923,246.94 78.436923,246.26 L78.436923,238.92 L73.016923,238.92 L73.016923,241 L75.996923,241 L75.996923,244.6 C75.176923,244.94 74.236923,245.1 73.176923,245.1 C70.056923,245.1 68.136923,242.9 68.136923,239.88 C68.136923,236.96 70.076923,234.7 73.056923,234.7 C74.576923,234.7 75.956923,235.34 76.676923,236.14 L78.416923,234.26 C77.276923,233.2 75.276923,232.48 73.036923,232.48 C68.676923,232.48 65.356923,235.34 65.356923,239.88 C65.356923,244.3 68.536923,247.36 73.096923,247.36 Z M83.9553846,247 L83.9553846,232.84 L81.4353846,232.84 L81.4353846,247 L83.9553846,247 Z M93.8938461,247.36 C96.2938461,247.36 98.1338461,246.44 99.3738461,244.88 L97.3538461,243.46 C96.6338461,244.44 95.4338461,245.1 93.9138461,245.1 C90.9938461,245.1 89.1138461,242.96 89.1138461,239.88 C89.1138461,236.96 91.0938461,234.7 94.0138461,234.7 C95.1538461,234.7 96.4938461,235.14 97.2338461,236.16 L99.1538461,234.64 C98.0338461,233.16 95.8538461,232.48 94.0138461,232.48 C89.6538461,232.48 86.3338461,235.34 86.3338461,239.88 C86.3338461,244.3 89.4738461,247.36 93.8938461,247.36 Z M101.732308,247 L103.012308,243.76 L109.152308,243.76 L110.472308,247 L113.352308,247 L107.252308,232.84 L105.072308,232.84 L98.9123076,247 L101.732308,247 Z M108.272308,241.6 L103.872308,241.6 L106.092308,235.84 L108.272308,241.6 Z M123.230769,247 L123.230769,244.76 L117.210769,244.76 L117.210769,232.84 L114.690769,232.84 L114.690769,247 L123.230769,247 Z M131.827692,247 L131.827692,236.06 L131.867692,236.06 L138.587692,247 L141.787692,247 L141.787692,232.84 L139.267692,232.84 L139.267692,243.44 L139.227692,243.44 L132.647692,232.84 L129.307692,232.84 L129.307692,247 L131.827692,247 Z M145.946154,247 L147.226154,243.76 L153.366154,243.76 L154.686154,247 L157.566154,247 L151.466154,232.84 L149.286154,232.84 L143.126154,247 L145.946154,247 Z M152.486154,241.6 L148.086154,241.6 L150.306154,235.84 L152.486154,241.6 Z M164.324615,247 L170.004615,232.84 L167.284615,232.84 L163.344615,243.74 L163.264615,243.74 L159.364615,232.84 L156.544615,232.84 L162.144615,247 L164.324615,247 Z M173.823077,247 L173.823077,232.84 L171.303077,232.84 L171.303077,247 L173.823077,247 Z M183.941538,247.36 C186.161538,247.36 187.861538,246.94 189.281538,246.26 L189.281538,238.92 L183.861538,238.92 L183.861538,241 L186.841538,241 L186.841538,244.6 C186.021538,244.94 185.081538,245.1 184.021538,245.1 C180.901538,245.1 178.981538,242.9 178.981538,239.88 C178.981538,236.96 180.921538,234.7 183.901538,234.7 C185.421538,234.7 186.801538,235.34 187.521538,236.14 L189.261538,234.26 C188.121538,233.2 186.121538,232.48 183.881538,232.48 C179.521538,232.48 176.201538,235.34 176.201538,239.88 C176.201538,244.3 179.381538,247.36 183.941538,247.36 Z M193.38,247 L194.66,243.76 L200.8,243.76 L202.12,247 L205,247 L198.9,232.84 L196.72,232.84 L190.56,247 L193.38,247 Z M199.92,241.6 L195.52,241.6 L197.74,235.84 L199.92,241.6 Z M210.518461,247 L210.518461,235.04 L214.858461,235.04 L214.858461,232.84 L203.658461,232.84 L203.658461,235.04 L207.998461,235.04 L207.998461,247 L210.518461,247 Z M218.956923,247 L218.956923,232.84 L216.436923,232.84 L216.436923,247 L218.956923,247 Z M228.915384,247.36 C233.335384,247.36 236.555384,244.3 236.555384,239.88 C236.555384,235.34 233.335384,232.48 228.915384,232.48 C224.555384,232.48 221.335384,235.34 221.335384,239.88 C221.335384,244.3 224.555384,247.36 228.915384,247.36 Z M228.935384,245.1 C226.055384,245.1 224.075384,242.9 224.075384,239.88 C224.075384,236.96 226.015384,234.7 228.935384,234.7 C231.875384,234.7 233.815384,236.96 233.815384,239.88 C233.815384,242.9 231.835384,245.1 228.935384,245.1 Z M241.453846,247 L241.453846,236.06 L241.493846,236.06 L248.213846,247 L251.413846,247 L251.413846,232.84 L248.893846,232.84 L248.893846,243.44 L248.853846,243.44 L242.273846,232.84 L238.933846,232.84 L238.933846,247 L241.453846,247 Z" id="LOGICALNAVIGATION" fill="#000000" fill-rule="nonzero"></path>
        <path d="M44.94,319 L44.94,307.04 L49.28,307.04 L49.28,304.84 L38.08,304.84 L38.08,307.04 L42.42,307.04 L42.42,319 L44.94,319 Z M53.3784615,319 L53.3784615,313 L55.2184615,313 L58.4984615,319 L61.5384615,319 L57.7584615,312.72 C59.7384615,312.28 60.9984615,310.94 60.9984615,308.9 C60.9984615,305.9 58.4384615,304.84 55.7784615,304.84 L50.8584615,304.84 L50.8584615,319 L53.3784615,319 Z M55.4384615,310.94 L53.3784615,310.94 L53.3784615,306.96 L55.6584615,306.96 C56.9584615,306.96 58.4784615,307.34 58.4784615,308.88 C58.4784615,310.6 56.8584615,310.94 55.4384615,310.94 Z M64.476923,319 L65.756923,315.76 L71.896923,315.76 L73.216923,319 L76.096923,319 L69.996923,304.84 L67.816923,304.84 L61.656923,319 L64.476923,319 Z M71.016923,313.6 L66.616923,313.6 L68.836923,307.84 L71.016923,313.6 Z M79.9553846,319 L79.9553846,308.06 L79.9953846,308.06 L86.7153846,319 L89.9153846,319 L89.9153846,304.84 L87.3953846,304.84 L87.3953846,315.44 L87.3553846,315.44 L80.7753846,304.84 L77.4353846,304.84 L77.4353846,319 L79.9553846,319 Z M96.7738461,319.36 C99.5538461,319.36 101.933846,317.88 101.933846,314.84 C101.933846,312.06 99.6138461,311.26 97.7938461,310.7 C96.1938461,310.2 95.0938461,309.82 95.0938461,308.52 C95.0938461,307.14 96.4338461,306.58 97.5938461,306.58 C98.5938461,306.58 99.6538461,307.1 100.193846,307.8 L101.833846,306 C100.753846,304.98 99.1338461,304.48 97.7138461,304.48 C95.1538461,304.48 92.5338461,305.76 92.5338461,308.64 C92.5338461,311.28 94.3938461,312.12 96.1138461,312.66 C97.8938461,313.22 99.3738461,313.64 99.3738461,315.12 C99.3738461,316.64 97.9938461,317.22 96.8138461,317.22 C95.6938461,317.22 94.4138461,316.62 93.7138461,315.66 L91.9138461,317.34 C93.0338461,318.66 94.9338461,319.36 96.7738461,319.36 Z M106.912308,319 L106.912308,304.84 L104.392308,304.84 L104.392308,319 L106.912308,319 Z M115.350769,319 L115.350769,307.04 L119.690769,307.04 L119.690769,304.84 L108.490769,304.84 L108.490769,307.04 L112.830769,307.04 L112.830769,319 L115.350769,319 Z M123.789231,319 L123.789231,304.84 L121.269231,304.84 L121.269231,319 L123.789231,319 Z M133.747692,319.36 C138.167692,319.36 141.387692,316.3 141.387692,311.88 C141.387692,307.34 138.167692,304.48 133.747692,304.48 C129.387692,304.48 126.167692,307.34 126.167692,311.88 C126.167692,316.3 129.387692,319.36 133.747692,319.36 Z M133.767692,317.1 C130.887692,317.1 128.907692,314.9 128.907692,311.88 C128.907692,308.96 130.847692,306.7 133.767692,306.7 C136.707692,306.7 138.647692,308.96 138.647692,311.88 C138.647692,314.9 136.667692,317.1 133.767692,317.1 Z M146.286154,319 L146.286154,308.06 L146.326154,308.06 L153.046154,319 L156.246154,319 L156.246154,304.84 L153.726154,304.84 L153.726154,315.44 L153.686154,315.44 L147.106154,304.84 L143.766154,304.84 L143.766154,319 L146.286154,319 Z M163.104615,319.36 C165.884615,319.36 168.264615,317.88 168.264615,314.84 C168.264615,312.06 165.944615,311.26 164.124615,310.7 C162.524615,310.2 161.424615,309.82 161.424615,308.52 C161.424615,307.14 162.764615,306.58 163.924615,306.58 C164.924615,306.58 165.984615,307.1 166.524615,307.8 L168.164615,306 C167.084615,304.98 165.464615,304.48 164.044615,304.48 C161.484615,304.48 158.864615,305.76 158.864615,308.64 C158.864615,311.28 160.724615,312.12 162.444615,312.66 C164.224615,313.22 165.704615,313.64 165.704615,315.12 C165.704615,316.64 164.324615,317.22 163.144615,317.22 C162.024615,317.22 160.744615,316.62 160.044615,315.66 L158.244615,317.34 C159.364615,318.66 161.264615,319.36 163.104615,319.36 Z M170.643077,319.96 L176.883077,304.48 L175.223077,303.84 L168.983077,319.36 L170.643077,319.96 Z M179.541538,319 L180.821538,315.76 L186.961538,315.76 L188.281538,319 L191.161538,319 L185.061538,304.84 L182.881538,304.84 L176.721538,319 L179.541538,319 Z M186.081538,313.6 L181.681538,313.6 L183.901538,307.84 L186.081538,313.6 Z M195.02,319 L195.02,308.06 L195.06,308.06 L201.78,319 L204.98,319 L204.98,304.84 L202.46,304.84 L202.46,315.44 L202.42,315.44 L195.84,304.84 L192.5,304.84 L192.5,319 L195.02,319 Z M210.558461,319 L210.558461,304.84 L208.038461,304.84 L208.038461,319 L210.558461,319 Z M216.016923,319 L216.016923,307.62 L216.056923,307.62 L220.296923,319 L222.056923,319 L226.356923,307.62 L226.396923,307.62 L226.396923,319 L228.896923,319 L228.896923,304.84 L224.936923,304.84 L221.296923,314.9 L221.236923,314.9 L217.556923,304.84 L213.616923,304.84 L213.616923,319 L216.016923,319 Z M233.055384,319 L234.335384,315.76 L240.475384,315.76 L241.795384,319 L244.675384,319 L238.575384,304.84 L236.395384,304.84 L230.235384,319 L233.055384,319 Z M239.595384,313.6 L235.195384,313.6 L237.415384,307.84 L239.595384,313.6 Z M250.193846,319 L250.193846,307.04 L254.533846,307.04 L254.533846,304.84 L243.333846,304.84 L243.333846,307.04 L247.673846,307.04 L247.673846,319 L250.193846,319 Z M258.632307,319 L258.632307,304.84 L256.112307,304.84 L256.112307,319 L258.632307,319 Z M268.590769,319.36 C273.010769,319.36 276.230769,316.3 276.230769,311.88 C276.230769,307.34 273.010769,304.48 268.590769,304.48 C264.230769,304.48 261.010769,307.34 261.010769,311.88 C261.010769,316.3 264.230769,319.36 268.590769,319.36 Z M268.610769,317.1 C265.730769,317.1 263.750769,314.9 263.750769,311.88 C263.750769,308.96 265.690769,306.7 268.610769,306.7 C271.550769,306.7 273.490769,308.96 273.490769,311.88 C273.490769,314.9 271.510769,317.1 268.610769,317.1 Z M281.12923,319 L281.12923,308.06 L281.16923,308.06 L287.88923,319 L291.08923,319 L291.08923,304.84 L288.56923,304.84 L288.56923,315.44 L288.52923,315.44 L281.94923,304.84 L278.60923,304.84 L278.60923,319 L281.12923,319 Z M297.947692,319.36 C300.727692,319.36 303.107692,317.88 303.107692,314.84 C303.107692,312.06 300.787692,311.26 298.967692,310.7 C297.367692,310.2 296.267692,309.82 296.267692,308.52 C296.267692,307.14 297.607692,306.58 298.767692,306.58 C299.767692,306.58 300.827692,307.1 301.367692,307.8 L303.007692,306 C301.927692,304.98 300.307692,304.48 298.887692,304.48 C296.327692,304.48 293.707692,305.76 293.707692,308.64 C293.707692,311.28 295.567692,312.12 297.287692,312.66 C299.067692,313.22 300.547692,313.64 300.547692,315.12 C300.547692,316.64 299.167692,317.22 297.987692,317.22 C296.867692,317.22 295.587692,316.62 294.887692,315.66 L293.087692,317.34 C294.207692,318.66 296.107692,319.36 297.947692,319.36 Z" id="TRANSITIONS/ANIMATIONS" fill="#000000" fill-rule="nonzero"></path>
        <path d="M46.44,391.36 C48.84,391.36 50.68,390.44 51.92,388.88 L49.9,387.46 C49.18,388.44 47.98,389.1 46.46,389.1 C43.54,389.1 41.66,386.96 41.66,383.88 C41.66,380.96 43.64,378.7 46.56,378.7 C47.7,378.7 49.04,379.14 49.78,380.16 L51.7,378.64 C50.58,377.16 48.4,376.48 46.56,376.48 C42.2,376.48 38.88,379.34 38.88,383.88 C38.88,388.3 42.02,391.36 46.44,391.36 Z M60.0784615,391.36 C64.4984615,391.36 67.7184615,388.3 67.7184615,383.88 C67.7184615,379.34 64.4984615,376.48 60.0784615,376.48 C55.7184615,376.48 52.4984615,379.34 52.4984615,383.88 C52.4984615,388.3 55.7184615,391.36 60.0784615,391.36 Z M60.0984615,389.1 C57.2184615,389.1 55.2384615,386.9 55.2384615,383.88 C55.2384615,380.96 57.1784615,378.7 60.0984615,378.7 C63.0384615,378.7 64.9784615,380.96 64.9784615,383.88 C64.9784615,386.9 62.9984615,389.1 60.0984615,389.1 Z M75.116923,391 C78.816923,391 82.936923,388.88 82.936923,383.92 C82.936923,378.6 78.816923,376.84 75.116923,376.84 L70.096923,376.84 L70.096923,391 L75.116923,391 Z M74.716923,388.8 L72.616923,388.8 L72.616923,379 L74.716923,379 C77.316923,379 80.236923,379.86 80.236923,383.92 C80.236923,387.74 77.316923,388.8 74.716923,388.8 Z M95.0553846,391 L95.0553846,388.76 L87.8353846,388.76 L87.8353846,384.76 L94.3353846,384.76 L94.3353846,382.64 L87.8353846,382.64 L87.8353846,379.04 L94.6953846,379.04 L94.6953846,376.84 L85.3153846,376.84 L85.3153846,391 L95.0553846,391 Z M102.473846,391 C106.173846,391 110.293846,388.88 110.293846,383.92 C110.293846,378.6 106.173846,376.84 102.473846,376.84 L97.4538461,376.84 L97.4538461,391 L102.473846,391 Z M102.073846,388.8 L99.9738461,388.8 L99.9738461,379 L102.073846,379 C104.673846,379 107.593846,379.86 107.593846,383.92 C107.593846,387.74 104.673846,388.8 102.073846,388.8 Z M124.490769,391.36 C126.890769,391.36 128.730769,390.44 129.970769,388.88 L127.950769,387.46 C127.230769,388.44 126.030769,389.1 124.510769,389.1 C121.590769,389.1 119.710769,386.96 119.710769,383.88 C119.710769,380.96 121.690769,378.7 124.610769,378.7 C125.750769,378.7 127.090769,379.14 127.830769,380.16 L129.750769,378.64 C128.630769,377.16 126.450769,376.48 124.610769,376.48 C120.250769,376.48 116.930769,379.34 116.930769,383.88 C116.930769,388.3 120.070769,391.36 124.490769,391.36 Z M138.129231,391.36 C142.549231,391.36 145.769231,388.3 145.769231,383.88 C145.769231,379.34 142.549231,376.48 138.129231,376.48 C133.769231,376.48 130.549231,379.34 130.549231,383.88 C130.549231,388.3 133.769231,391.36 138.129231,391.36 Z M138.149231,389.1 C135.269231,389.1 133.289231,386.9 133.289231,383.88 C133.289231,380.96 135.229231,378.7 138.149231,378.7 C141.089231,378.7 143.029231,380.96 143.029231,383.88 C143.029231,386.9 141.049231,389.1 138.149231,389.1 Z M150.547692,391 L150.547692,379.62 L150.587692,379.62 L154.827692,391 L156.587692,391 L160.887692,379.62 L160.927692,379.62 L160.927692,391 L163.427692,391 L163.427692,376.84 L159.467692,376.84 L155.827692,386.9 L155.767692,386.9 L152.087692,376.84 L148.147692,376.84 L148.147692,391 L150.547692,391 Z M169.006154,391 L169.006154,385.14 L170.946154,385.14 C173.946154,385.14 176.446154,384.06 176.446154,380.94 C176.446154,377.98 174.346154,376.84 171.106154,376.84 L166.486154,376.84 L166.486154,391 L169.006154,391 Z M170.766154,383.02 L169.006154,383.02 L169.006154,378.96 L170.846154,378.96 C172.406154,378.96 173.906154,379.26 173.906154,380.94 C173.906154,382.62 172.406154,383.02 170.766154,383.02 Z M185.524615,391.36 C189.944615,391.36 193.164615,388.3 193.164615,383.88 C193.164615,379.34 189.944615,376.48 185.524615,376.48 C181.164615,376.48 177.944615,379.34 177.944615,383.88 C177.944615,388.3 181.164615,391.36 185.524615,391.36 Z M185.544615,389.1 C182.664615,389.1 180.684615,386.9 180.684615,383.88 C180.684615,380.96 182.624615,378.7 185.544615,378.7 C188.484615,378.7 190.424615,380.96 190.424615,383.88 C190.424615,386.9 188.444615,389.1 185.544615,389.1 Z M198.063077,391 L198.063077,380.06 L198.103077,380.06 L204.823077,391 L208.023077,391 L208.023077,376.84 L205.503077,376.84 L205.503077,387.44 L205.463077,387.44 L198.883077,376.84 L195.543077,376.84 L195.543077,391 L198.063077,391 Z M220.821538,391 L220.821538,388.76 L213.601538,388.76 L213.601538,384.76 L220.101538,384.76 L220.101538,382.64 L213.601538,382.64 L213.601538,379.04 L220.461538,379.04 L220.461538,376.84 L211.081538,376.84 L211.081538,391 L220.821538,391 Z M225.74,391 L225.74,380.06 L225.78,380.06 L232.5,391 L235.7,391 L235.7,376.84 L233.18,376.84 L233.18,387.44 L233.14,387.44 L226.56,376.84 L223.22,376.84 L223.22,391 L225.74,391 Z M244.138461,391 L244.138461,379.04 L248.478461,379.04 L248.478461,376.84 L237.278461,376.84 L237.278461,379.04 L241.618461,379.04 L241.618461,391 L244.138461,391 Z M253.856923,391.36 C256.636923,391.36 259.016923,389.88 259.016923,386.84 C259.016923,384.06 256.696923,383.26 254.876923,382.7 C253.276923,382.2 252.176923,381.82 252.176923,380.52 C252.176923,379.14 253.516923,378.58 254.676923,378.58 C255.676923,378.58 256.736923,379.1 257.276923,379.8 L258.916923,378 C257.836923,376.98 256.216923,376.48 254.796923,376.48 C252.236923,376.48 249.616923,377.76 249.616923,380.64 C249.616923,383.28 251.476923,384.12 253.196923,384.66 C254.976923,385.22 256.456923,385.64 256.456923,387.12 C256.456923,388.64 255.076923,389.22 253.896923,389.22 C252.776923,389.22 251.496923,388.62 250.796923,387.66 L248.996923,389.34 C250.116923,390.66 252.016923,391.36 253.856923,391.36 Z" id="CODEDCOMPONENTS" fill="#000000" fill-rule="nonzero"></path>
        <path d="M46.44,463.36 C48.84,463.36 50.68,462.44 51.92,460.88 L49.9,459.46 C49.18,460.44 47.98,461.1 46.46,461.1 C43.54,461.1 41.66,458.96 41.66,455.88 C41.66,452.96 43.64,450.7 46.56,450.7 C47.7,450.7 49.04,451.14 49.78,452.16 L51.7,450.64 C50.58,449.16 48.4,448.48 46.56,448.48 C42.2,448.48 38.88,451.34 38.88,455.88 C38.88,460.3 42.02,463.36 46.44,463.36 Z M61.9584615,463 L61.9584615,460.76 L55.9384615,460.76 L55.9384615,448.84 L53.4184615,448.84 L53.4184615,463 L61.9584615,463 Z M69.876923,463.36 C74.296923,463.36 77.516923,460.3 77.516923,455.88 C77.516923,451.34 74.296923,448.48 69.876923,448.48 C65.516923,448.48 62.296923,451.34 62.296923,455.88 C62.296923,460.3 65.516923,463.36 69.876923,463.36 Z M69.896923,461.1 C67.016923,461.1 65.036923,458.9 65.036923,455.88 C65.036923,452.96 66.976923,450.7 69.896923,450.7 C72.836923,450.7 74.776923,452.96 74.776923,455.88 C74.776923,458.9 72.796923,461.1 69.896923,461.1 Z M85.4753846,463.36 C88.7153846,463.36 91.1753846,461.22 91.1753846,457.8 L91.1753846,448.84 L88.6553846,448.84 L88.6553846,457.7 C88.6553846,459.34 87.8953846,461.1 85.4753846,461.1 C83.0553846,461.1 82.2953846,459.34 82.2953846,457.7 L82.2953846,448.84 L79.7753846,448.84 L79.7753846,457.8 C79.7753846,461.22 82.2353846,463.36 85.4753846,463.36 Z M99.1338461,463 C102.833846,463 106.953846,460.88 106.953846,455.92 C106.953846,450.6 102.833846,448.84 99.1338461,448.84 L94.1138461,448.84 L94.1138461,463 L99.1338461,463 Z M98.7338461,460.8 L96.6338461,460.8 L96.6338461,451 L98.7338461,451 C101.333846,451 104.253846,451.86 104.253846,455.92 C104.253846,459.74 101.333846,460.8 98.7338461,460.8 Z M118.070769,463.36 C120.850769,463.36 123.230769,461.88 123.230769,458.84 C123.230769,456.06 120.910769,455.26 119.090769,454.7 C117.490769,454.2 116.390769,453.82 116.390769,452.52 C116.390769,451.14 117.730769,450.58 118.890769,450.58 C119.890769,450.58 120.950769,451.1 121.490769,451.8 L123.130769,450 C122.050769,448.98 120.430769,448.48 119.010769,448.48 C116.450769,448.48 113.830769,449.76 113.830769,452.64 C113.830769,455.28 115.690769,456.12 117.410769,456.66 C119.190769,457.22 120.670769,457.64 120.670769,459.12 C120.670769,460.64 119.290769,461.22 118.110769,461.22 C116.990769,461.22 115.710769,460.62 115.010769,459.66 L113.210769,461.34 C114.330769,462.66 116.230769,463.36 118.070769,463.36 Z M128.209231,463 L128.209231,456.72 L134.829231,456.72 L134.829231,463 L137.349231,463 L137.349231,448.84 L134.829231,448.84 L134.829231,454.56 L128.209231,454.56 L128.209231,448.84 L125.689231,448.84 L125.689231,463 L128.209231,463 Z M141.507692,463 L142.787692,459.76 L148.927692,459.76 L150.247692,463 L153.127692,463 L147.027692,448.84 L144.847692,448.84 L138.687692,463 L141.507692,463 Z M148.047692,457.6 L143.647692,457.6 L145.867692,451.84 L148.047692,457.6 Z M156.986154,463 L156.986154,457 L158.826154,457 L162.106154,463 L165.146154,463 L161.366154,456.72 C163.346154,456.28 164.606154,454.94 164.606154,452.9 C164.606154,449.9 162.046154,448.84 159.386154,448.84 L154.466154,448.84 L154.466154,463 L156.986154,463 Z M159.046154,454.94 L156.986154,454.94 L156.986154,450.96 L159.266154,450.96 C160.566154,450.96 162.086154,451.34 162.086154,452.88 C162.086154,454.6 160.466154,454.94 159.046154,454.94 Z M176.724615,463 L176.724615,460.76 L169.504615,460.76 L169.504615,456.76 L176.004615,456.76 L176.004615,454.64 L169.504615,454.64 L169.504615,451.04 L176.364615,451.04 L176.364615,448.84 L166.984615,448.84 L166.984615,463 L176.724615,463 Z" id="CLOUDSHARE" fill="#000000" fill-rule="nonzero"></path>
        <path d="M46.44,535.36 C48.84,535.36 50.68,534.44 51.92,532.88 L49.9,531.46 C49.18,532.44 47.98,533.1 46.46,533.1 C43.54,533.1 41.66,530.96 41.66,527.88 C41.66,524.96 43.64,522.7 46.56,522.7 C47.7,522.7 49.04,523.14 49.78,524.16 L51.7,522.64 C50.58,521.16 48.4,520.48 46.56,520.48 C42.2,520.48 38.88,523.34 38.88,527.88 C38.88,532.3 42.02,535.36 46.44,535.36 Z M61.9584615,535 L61.9584615,532.76 L55.9384615,532.76 L55.9384615,520.84 L53.4184615,520.84 L53.4184615,535 L61.9584615,535 Z M69.876923,535.36 C74.296923,535.36 77.516923,532.3 77.516923,527.88 C77.516923,523.34 74.296923,520.48 69.876923,520.48 C65.516923,520.48 62.296923,523.34 62.296923,527.88 C62.296923,532.3 65.516923,535.36 69.876923,535.36 Z M69.896923,533.1 C67.016923,533.1 65.036923,530.9 65.036923,527.88 C65.036923,524.96 66.976923,522.7 69.896923,522.7 C72.836923,522.7 74.776923,524.96 74.776923,527.88 C74.776923,530.9 72.796923,533.1 69.896923,533.1 Z M85.4753846,535.36 C88.7153846,535.36 91.1753846,533.22 91.1753846,529.8 L91.1753846,520.84 L88.6553846,520.84 L88.6553846,529.7 C88.6553846,531.34 87.8953846,533.1 85.4753846,533.1 C83.0553846,533.1 82.2953846,531.34 82.2953846,529.7 L82.2953846,520.84 L79.7753846,520.84 L79.7753846,529.8 C79.7753846,533.22 82.2353846,535.36 85.4753846,535.36 Z M99.1338461,535 C102.833846,535 106.953846,532.88 106.953846,527.92 C106.953846,522.6 102.833846,520.84 99.1338461,520.84 L94.1138461,520.84 L94.1138461,535 L99.1338461,535 Z M98.7338461,532.8 L96.6338461,532.8 L96.6338461,523 L98.7338461,523 C101.333846,523 104.253846,523.86 104.253846,527.92 C104.253846,531.74 101.333846,532.8 98.7338461,532.8 Z M121.150769,535.36 C123.550769,535.36 125.390769,534.44 126.630769,532.88 L124.610769,531.46 C123.890769,532.44 122.690769,533.1 121.170769,533.1 C118.250769,533.1 116.370769,530.96 116.370769,527.88 C116.370769,524.96 118.350769,522.7 121.270769,522.7 C122.410769,522.7 123.750769,523.14 124.490769,524.16 L126.410769,522.64 C125.290769,521.16 123.110769,520.48 121.270769,520.48 C116.910769,520.48 113.590769,523.34 113.590769,527.88 C113.590769,532.3 116.730769,535.36 121.150769,535.36 Z M134.789231,535.36 C139.209231,535.36 142.429231,532.3 142.429231,527.88 C142.429231,523.34 139.209231,520.48 134.789231,520.48 C130.429231,520.48 127.209231,523.34 127.209231,527.88 C127.209231,532.3 130.429231,535.36 134.789231,535.36 Z M134.809231,533.1 C131.929231,533.1 129.949231,530.9 129.949231,527.88 C129.949231,524.96 131.889231,522.7 134.809231,522.7 C137.749231,522.7 139.689231,524.96 139.689231,527.88 C139.689231,530.9 137.709231,533.1 134.809231,533.1 Z M153.347692,535 L153.347692,532.76 L147.327692,532.76 L147.327692,520.84 L144.807692,520.84 L144.807692,535 L153.347692,535 Z M163.506154,535 L163.506154,532.76 L157.486154,532.76 L157.486154,520.84 L154.966154,520.84 L154.966154,535 L163.506154,535 Z M166.224615,535 L167.504615,531.76 L173.644615,531.76 L174.964615,535 L177.844615,535 L171.744615,520.84 L169.564615,520.84 L163.404615,535 L166.224615,535 Z M172.764615,529.6 L168.364615,529.6 L170.584615,523.84 L172.764615,529.6 Z M184.283077,535 C186.963077,535 189.643077,533.96 189.643077,530.88 C189.643077,528.98 188.363077,527.78 186.583077,527.54 L186.583077,527.5 C188.043077,527.06 189.043077,526 189.043077,524.4 C189.043077,521.82 186.843077,520.84 184.703077,520.84 L179.183077,520.84 L179.183077,535 L184.283077,535 Z M183.943077,526.6 L181.703077,526.6 L181.703077,522.92 L183.723077,522.92 C185.623077,522.92 186.523077,523.42 186.523077,524.68 C186.523077,525.9 185.623077,526.6 183.943077,526.6 Z M184.099458,532.879018 L181.703077,532.88 L181.703077,528.76 L184.063077,528.76 C186.103077,528.76 187.123077,529.28 187.123077,530.76 C187.123077,532.555862 185.389141,532.860166 184.099458,532.879018 Z M198.961538,535.36 C203.381538,535.36 206.601538,532.3 206.601538,527.88 C206.601538,523.34 203.381538,520.48 198.961538,520.48 C194.601538,520.48 191.381538,523.34 191.381538,527.88 C191.381538,532.3 194.601538,535.36 198.961538,535.36 Z M198.981538,533.1 C196.101538,533.1 194.121538,530.9 194.121538,527.88 C194.121538,524.96 196.061538,522.7 198.981538,522.7 C201.921538,522.7 203.861538,524.96 203.861538,527.88 C203.861538,530.9 201.881538,533.1 198.981538,533.1 Z M211.5,535 L211.5,529 L213.34,529 L216.62,535 L219.66,535 L215.88,528.72 C217.86,528.28 219.12,526.94 219.12,524.9 C219.12,521.9 216.56,520.84 213.9,520.84 L208.98,520.84 L208.98,535 L211.5,535 Z M213.56,526.94 L211.5,526.94 L211.5,522.96 L213.78,522.96 C215.08,522.96 216.6,523.34 216.6,524.88 C216.6,526.6 214.98,526.94 213.56,526.94 Z M222.598461,535 L223.878461,531.76 L230.018461,531.76 L231.338461,535 L234.218461,535 L228.118461,520.84 L225.938461,520.84 L219.778461,535 L222.598461,535 Z M229.138461,529.6 L224.738461,529.6 L226.958461,523.84 L229.138461,529.6 Z M239.736923,535 L239.736923,523.04 L244.076923,523.04 L244.076923,520.84 L232.876923,520.84 L232.876923,523.04 L237.216923,523.04 L237.216923,535 L239.736923,535 Z M248.175384,535 L248.175384,520.84 L245.655384,520.84 L245.655384,535 L248.175384,535 Z M258.133846,535.36 C262.553846,535.36 265.773846,532.3 265.773846,527.88 C265.773846,523.34 262.553846,520.48 258.133846,520.48 C253.773846,520.48 250.553846,523.34 250.553846,527.88 C250.553846,532.3 253.773846,535.36 258.133846,535.36 Z M258.153846,533.1 C255.273846,533.1 253.293846,530.9 253.293846,527.88 C253.293846,524.96 255.233846,522.7 258.153846,522.7 C261.093846,522.7 263.033846,524.96 263.033846,527.88 C263.033846,530.9 261.053846,533.1 258.153846,533.1 Z M270.672307,535 L270.672307,524.06 L270.712307,524.06 L277.432307,535 L280.632307,535 L280.632307,520.84 L278.112307,520.84 L278.112307,531.44 L278.072307,531.44 L271.492307,520.84 L268.152307,520.84 L268.152307,535 L270.672307,535 Z" id="CLOUDCOLLABORATION" fill="#000000" fill-rule="nonzero"></path>
        <path d="M42.08,607 L42.08,601 L43.92,601 L47.2,607 L50.24,607 L46.46,600.72 C48.44,600.28 49.7,598.94 49.7,596.9 C49.7,593.9 47.14,592.84 44.48,592.84 L39.56,592.84 L39.56,607 L42.08,607 Z M44.14,598.94 L42.08,598.94 L42.08,594.96 L44.36,594.96 C45.66,594.96 47.18,595.34 47.18,596.88 C47.18,598.6 45.56,598.94 44.14,598.94 Z M61.8184615,607 L61.8184615,604.76 L54.5984615,604.76 L54.5984615,600.76 L61.0984615,600.76 L61.0984615,598.64 L54.5984615,598.64 L54.5984615,595.04 L61.4584615,595.04 L61.4584615,592.84 L52.0784615,592.84 L52.0784615,607 L61.8184615,607 Z M68.016923,607.36 C70.796923,607.36 73.176923,605.88 73.176923,602.84 C73.176923,600.06 70.856923,599.26 69.036923,598.7 C67.436923,598.2 66.336923,597.82 66.336923,596.52 C66.336923,595.14 67.676923,594.58 68.836923,594.58 C69.836923,594.58 70.896923,595.1 71.436923,595.8 L73.076923,594 C71.996923,592.98 70.376923,592.48 68.956923,592.48 C66.396923,592.48 63.776923,593.76 63.776923,596.64 C63.776923,599.28 65.636923,600.12 67.356923,600.66 C69.136923,601.22 70.616923,601.64 70.616923,603.12 C70.616923,604.64 69.236923,605.22 68.056923,605.22 C66.936923,605.22 65.656923,604.62 64.956923,603.66 L63.156923,605.34 C64.276923,606.66 66.176923,607.36 68.016923,607.36 Z M78.1553846,607 L78.1553846,601.14 L80.0953846,601.14 C83.0953846,601.14 85.5953846,600.06 85.5953846,596.94 C85.5953846,593.98 83.4953846,592.84 80.2553846,592.84 L75.6353846,592.84 L75.6353846,607 L78.1553846,607 Z M79.9153846,599.02 L78.1553846,599.02 L78.1553846,594.96 L79.9953846,594.96 C81.5553846,594.96 83.0553846,595.26 83.0553846,596.94 C83.0553846,598.62 81.5553846,599.02 79.9153846,599.02 Z M94.6738461,607.36 C99.0938461,607.36 102.313846,604.3 102.313846,599.88 C102.313846,595.34 99.0938461,592.48 94.6738461,592.48 C90.3138461,592.48 87.0938461,595.34 87.0938461,599.88 C87.0938461,604.3 90.3138461,607.36 94.6738461,607.36 Z M94.6938461,605.1 C91.8138461,605.1 89.8338461,602.9 89.8338461,599.88 C89.8338461,596.96 91.7738461,594.7 94.6938461,594.7 C97.6338461,594.7 99.5738461,596.96 99.5738461,599.88 C99.5738461,602.9 97.5938461,605.1 94.6938461,605.1 Z M107.212308,607 L107.212308,596.06 L107.252308,596.06 L113.972308,607 L117.172308,607 L117.172308,592.84 L114.652308,592.84 L114.652308,603.44 L114.612308,603.44 L108.032308,592.84 L104.692308,592.84 L104.692308,607 L107.212308,607 Z M124.030769,607.36 C126.810769,607.36 129.190769,605.88 129.190769,602.84 C129.190769,600.06 126.870769,599.26 125.050769,598.7 C123.450769,598.2 122.350769,597.82 122.350769,596.52 C122.350769,595.14 123.690769,594.58 124.850769,594.58 C125.850769,594.58 126.910769,595.1 127.450769,595.8 L129.090769,594 C128.010769,592.98 126.390769,592.48 124.970769,592.48 C122.410769,592.48 119.790769,593.76 119.790769,596.64 C119.790769,599.28 121.650769,600.12 123.370769,600.66 C125.150769,601.22 126.630769,601.64 126.630769,603.12 C126.630769,604.64 125.250769,605.22 124.070769,605.22 C122.950769,605.22 121.670769,604.62 120.970769,603.66 L119.170769,605.34 C120.290769,606.66 122.190769,607.36 124.030769,607.36 Z M134.169231,607 L134.169231,592.84 L131.649231,592.84 L131.649231,607 L134.169231,607 Z M143.247692,607 L148.927692,592.84 L146.207692,592.84 L142.267692,603.74 L142.187692,603.74 L138.287692,592.84 L135.467692,592.84 L141.067692,607 L143.247692,607 Z M159.966154,607 L159.966154,604.76 L152.746154,604.76 L152.746154,600.76 L159.246154,600.76 L159.246154,598.64 L152.746154,598.64 L152.746154,595.04 L159.606154,595.04 L159.606154,592.84 L150.226154,592.84 L150.226154,607 L159.966154,607 Z M175.843077,607 L175.843077,604.76 L169.823077,604.76 L169.823077,592.84 L167.303077,592.84 L167.303077,607 L175.843077,607 Z M178.561538,607 L179.841538,603.76 L185.981538,603.76 L187.301538,607 L190.181538,607 L184.081538,592.84 L181.901538,592.84 L175.741538,607 L178.561538,607 Z M185.101538,601.6 L180.701538,601.6 L182.921538,595.84 L185.101538,601.6 Z M196.26,607 L196.26,600.86 L201.58,592.84 L198.66,592.84 L195.06,598.8 L191.5,592.84 L188.42,592.84 L193.74,600.86 L193.74,607 L196.26,607 Z M209.038461,607.36 C213.458461,607.36 216.678461,604.3 216.678461,599.88 C216.678461,595.34 213.458461,592.48 209.038461,592.48 C204.678461,592.48 201.458461,595.34 201.458461,599.88 C201.458461,604.3 204.678461,607.36 209.038461,607.36 Z M209.058461,605.1 C206.178461,605.1 204.198461,602.9 204.198461,599.88 C204.198461,596.96 206.138461,594.7 209.058461,594.7 C211.998461,594.7 213.938461,596.96 213.938461,599.88 C213.938461,602.9 211.958461,605.1 209.058461,605.1 Z M224.636923,607.36 C227.876923,607.36 230.336923,605.22 230.336923,601.8 L230.336923,592.84 L227.816923,592.84 L227.816923,601.7 C227.816923,603.34 227.056923,605.1 224.636923,605.1 C222.216923,605.1 221.456923,603.34 221.456923,601.7 L221.456923,592.84 L218.936923,592.84 L218.936923,601.8 C218.936923,605.22 221.396923,607.36 224.636923,607.36 Z M238.655384,607 L238.655384,595.04 L242.995384,595.04 L242.995384,592.84 L231.795384,592.84 L231.795384,595.04 L236.135384,595.04 L236.135384,607 L238.655384,607 Z" id="RESPONSIVELAYOUT" fill="#000000" fill-rule="nonzero"></path>
        <circle id="Oval" fill="#0991FF" cx="426" cy="240" r="14"></circle>
        <circle id="Oval" fill="#0991FF" cx="426" cy="312" r="14"></circle>
        <circle id="Oval" fill="#0991FF" cx="426" cy="456" r="14"></circle>
        <circle id="Oval" fill="#FF6661" cx="694" cy="240" r="14"></circle>
        <circle id="Oval" fill="#FF6661" cx="694" cy="312" r="14"></circle>
        <circle id="Oval" fill="#FF6661" cx="694" cy="456" r="14"></circle>
        <circle id="Oval" fill="#000000" cx="963" cy="168" r="14"></circle>
        <circle id="Oval" fill="#000000" cx="963" cy="240" r="14"></circle>
        <circle id="Oval" fill="#000000" cx="963" cy="312" r="14"></circle>
        <circle id="Oval" fill="#000000" cx="963" cy="384" r="14"></circle>
        <circle id="Oval" fill="#000000" cx="963" cy="456" r="14"></circle>
        <circle id="Oval" fill="#000000" cx="963" cy="528" r="14"></circle>
        <circle id="Oval" fill="#000000" cx="963" cy="600" r="14"></circle>
        <circle id="Oval" fill="#DBDB00" cx="1231" cy="168" r="14"></circle>
        <circle id="Oval" fill="#DBDB00" cx="1231" cy="240" r="14"></circle>
        <circle id="Oval" fill="#DBDB00" cx="1231" cy="312" r="14"></circle>
        <circle id="Oval" fill="#DBDB00" cx="1231" cy="456" r="14"></circle>
        <circle id="Oval" fill="#DC395F" cx="1500" cy="312" r="14"></circle>
        <circle id="Oval" fill="#DC395F" cx="1500" cy="456" r="14"></circle>
        <circle id="Oval" fill="#74BB11" cx="1768" cy="168" r="14"></circle>
        <circle id="Oval" fill="#74BB11" cx="1768" cy="240" r="14"></circle>
        <circle id="Oval" fill="#74BB11" cx="1768" cy="312" r="14"></circle>
        <circle id="Oval" fill="#74BB11" cx="1768" cy="456" r="14"></circle>
    </g>
</svg>