<?xml version="1.0" encoding="UTF-8"?>
<svg width="1859px" height="635px" viewBox="0 0 1859 635" version="1.1" xmlns="http://www.w3.org/2000/svg" xmlns:xlink="http://www.w3.org/1999/xlink">
    <title>comp_analysis</title>
    <g id="comp_analysis" stroke="none" stroke-width="1" fill="none" fill-rule="evenodd">
        <rect fill="#FFFFFF" x="0" y="0" width="1859" height="635"></rect>
        <rect id="Rectangle" fill-opacity="0.8" fill="#E8ECF0" x="-25" y="131" width="2000" height="72"></rect>
        <rect id="Rectangle" fill-opacity="0.8" fill="#E8ECF0" x="-25" y="275" width="2000" height="72"></rect>
        <rect id="Rectangle" fill-opacity="0.8" fill="#E8ECF0" x="-25" y="419" width="2000" height="72"></rect>
        <rect id="Rectangle" fill-opacity="0.8" fill="#E8ECF0" x="-25" y="563" width="2000" height="72"></rect>
        <g id="Group-6" transform="translate(1179.000000, 27.000000)">
            <g id="Group" transform="translate(24.000000, 0.000000)">
                <rect id="Rectangle" stroke="#000000" fill="#FFFFFF" x="0" y="0" width="55" height="42"></rect>
                <g id="uxpin-dark" transform="translate(10.000000, 13.000000)" fill="#000000" fill-rule="nonzero">
                    <path d="M1.79512195,0 L1.79512195,10.9535452 C1.79512195,11.4229829 1.79512195,11.8924205 1.83414634,12.3227384 C1.87317073,12.7530562 1.95121951,13.1442543 2.06829268,13.4572127 C2.22439024,13.7701711 2.4195122,14.00489 2.73170732,14.200489 C3.00487805,14.396088 3.43414634,14.4743276 3.9804878,14.4743276 C4.83902439,14.4743276 5.46341463,14.200489 5.77560976,13.6919315 C6.08780488,13.1833741 6.28292683,12.2836186 6.28292683,11.0709046 L6.28292683,0 L8,0 L8,10.9535452 C8,11.2273839 8,11.5403423 7.96097561,11.9315403 C7.96097561,12.2836186 7.88292683,12.6748166 7.84390244,13.0268949 C7.76585366,13.3789731 7.64878049,13.7701711 7.49268293,14.1222494 C7.33658537,14.4743276 7.10243902,14.7872861 6.7902439,15.0611247 C6.47804878,15.3349633 6.12682927,15.5696822 5.65853659,15.7261614 C5.1902439,15.8826406 4.64390244,16 3.94146341,16 C2.96585366,16 2.22439024,15.8435208 1.67804878,15.5305623 C1.13170732,15.2176039 0.741463415,14.8264059 0.507317073,14.3569682 C0.273170732,13.8875306 0.117073171,13.3398533 0.0780487805,12.7530562 C0.0390243902,12.1662592 0,11.5794621 0,10.992665 L0,0.0391198044 L1.79512195,0.0391198044 L1.79512195,0 Z" id="Path"></path>
                    <polygon id="Path" points="8.39111111 0 10.1333333 0 12.0533333 5.38653367 14.0444444 0 15.6444444 0 12.8355556 6.88279302 16 14.9625935 14.1511111 14.9625935 11.8755556 8.75311721 9.6 15 8 15 11.1288889 7.18204489"></polygon>
                    <path d="M17,0 L19.7857143,0 C20.5357143,0 21.1785714,0.075 21.7142857,0.225 C22.2142857,0.375 22.6785714,0.7125 23.0714286,1.2 C23.1785714,1.35 23.2857143,1.5 23.3928571,1.6875 C23.5,1.875 23.6071429,2.1 23.7142857,2.3625 C23.8214286,2.625 23.8928571,2.925 23.9285714,3.2625 C24,3.6 24,4.0125 24,4.4625 C24,5.0625 23.9285714,5.625 23.7857143,6.15 C23.6428571,6.675 23.4285714,7.1625 23.1071429,7.575 C22.7857143,7.9875 22.3928571,8.2875 21.8928571,8.55 C21.3928571,8.775 20.7857143,8.8875 20.0357143,8.8875 L18.6428571,8.8875 L18.6428571,15 L17,15 L17,0 Z M18.6428571,7.4625 L20,7.4625 C20.3214286,7.4625 20.6428571,7.425 20.9285714,7.35 C21.2142857,7.275 21.4642857,7.125 21.6785714,6.9375 C21.8928571,6.7125 22.0714286,6.4125 22.1785714,6.0375 C22.2857143,5.6625 22.3571429,5.1375 22.3571429,4.5375 C22.3571429,3.7875 22.25,3.1875 22.0714286,2.775 C21.8928571,2.3625 21.6428571,2.0625 21.3928571,1.875 C21.1428571,1.6875 20.8571429,1.575 20.5714286,1.5375 C20.2857143,1.5 20.0714286,1.5 19.8571429,1.5 L18.6071429,1.5 L18.6071429,7.4625 L18.6428571,7.4625 Z" id="Shape"></path>
                    <path d="M28,0 L28,1.9125 L26,1.9125 L26,0 L28,0 Z M26.0888889,3.9 L27.9111111,3.9 L27.9111111,15 L26.0888889,15 L26.0888889,3.9 Z" id="Shape"></path>
                    <path d="M29,3.27722772 L30.3652695,3.27722772 L30.3652695,5.05940594 C30.4011976,4.94059406 30.4730539,4.74257426 30.5808383,4.5049505 C30.6886228,4.26732673 30.8323353,4.02970297 31.011976,3.83168317 C31.1916168,3.59405941 31.4431138,3.3960396 31.6946108,3.23762376 C31.9820359,3.07920792 32.3053892,3 32.7005988,3 C33.1676647,3 33.5628743,3.11881188 33.8862275,3.31683168 C34.2095808,3.55445545 34.497006,3.83168317 34.6407186,4.18811881 C34.8203593,4.54455446 34.9281437,5.01980198 34.9640719,5.65346535 C35,6.24752475 35,6.88118812 35,7.55445545 L35,15 L33.5628743,15 L33.5628743,7.59405941 C33.5628743,7.23762376 33.5628743,6.88118812 33.5269461,6.48514851 C33.5269461,6.12871287 33.4550898,5.81188119 33.3832335,5.4950495 C33.3113772,5.21782178 33.1676647,4.98019802 32.988024,4.78217822 C32.8083832,4.58415842 32.5568862,4.5049505 32.2335329,4.5049505 C31.8383234,4.5049505 31.5508982,4.62376238 31.2994012,4.9009901 C31.0838323,5.17821782 30.9041916,5.4950495 30.7964072,5.85148515 C30.6886228,6.24752475 30.6167665,6.64356436 30.5808383,7.07920792 C30.5449102,7.51485149 30.5449102,7.91089109 30.5449102,8.22772277 L30.5449102,15 L29.0718563,15 L29.0718563,3.27722772 L29,3.27722772 Z" id="Path"></path>
                </g>
            </g>
            <text id="UXPin" font-family="AvenirNextforINTUIT-Demi, AvenirNext forINTUIT" font-size="20" font-weight="400" letter-spacing="-0.0615384783" fill="#000000">
                <tspan x="24.0738462" y="78">UXPin</tspan>
            </text>
        </g>
        <g id="Group-4" transform="translate(642.000000, 27.000000)">
            <g id="Artboard" transform="translate(31.000000, 0.000000)">
                <path d="M20.8882475,35.1781964 L21,42 C19.9826694,42.0009899 19.0049812,41.6050621 18.2743754,40.8962204 L17.7440245,40.2608844 L4.8186164,24.8724775 L0.420492469,19.636171 C0.408858817,19.6297506 0.39957051,19.6197862 0.393974926,19.6077231 L0.325786958,19.5261725 L0.310634076,19.5091038 C0.22443116,19.395339 0.155498078,19.2694396 0.106070172,19.1354883 C0.0409300104,18.9723699 0.00502365178,18.7990292 0,18.6234264 L0,18.5153245 C0.00946889152,18.1360031 0.159324993,17.773727 0.420492469,17.4987869 C0.715130572,17.1803901 1.12913209,16.999592 1.56264093,17 L5.90204744,17 L20.8844593,35.1819894 L20.8882475,35.1819894 L20.8882475,35.1781964 Z" id="Path" fill="#FCD1CA"></path>
                <path d="M21,26.5752631 L21,35 L0.392345365,10.5990735 C0.147101324,10.3286859 0.00786739976,9.97987217 0,9.61615606 L0,9.51030341 C0.010276812,9.1335186 0.160921351,8.77389012 0.422818792,8.50092276 C0.7170123,8.18024 1.13430454,7.99823586 1.57128605,8 L5.4775984,8 L21,26.5771533 L21,26.5752631 Z" id="Path" fill="#FF9D8D"></path>
                <path d="M1.56176073,0 C1.11227837,0 0.698983156,0.190473298 0.419008977,0.500921167 C0.159621694,0.774203763 0.0103914201,1.13371342 0,1.51035289 L0,1.61510524 C0.00394587977,1.79281531 0.0400827061,1.96833721 0.10665683,2.13315322 C0.108561417,2.14648533 0.114275175,2.15791286 0.119988934,2.17124498 C0.188540735,2.33619381 0.28665036,2.48723114 0.409486045,2.61691861 L0.430436494,2.64358284 L20.9999681,26.9347002 L20.9999681,42 C22.0165906,42.0019886 22.9938223,41.6069952 23.7235264,40.8991405 L23.7273356,40.8972359 L41.6056868,19.6725055 C41.6285418,19.6496505 41.6475877,19.6248908 41.6666336,19.6001312 C41.7631966,19.4809347 41.8403302,19.3472365 41.8951839,19.2039768 C41.9661476,19.0245761 42.0017191,18.8331366 42,18.6402188 L42,1.56177677 C42.0009642,1.16632089 41.8495285,0.785684971 41.577118,0.499016579 C41.2833887,0.179289929 40.8685302,-0.00186511741 40.4343662,0 L1.56176073,0 Z" id="Path" fill="#FF6661"></path>
            </g>
            <text id="ProtoPie" font-family="AvenirNextforINTUIT-Demi, AvenirNext forINTUIT" font-size="20" font-weight="400" letter-spacing="-0.0615384783" fill="#000000">
                <tspan x="13.2661539" y="78">ProtoPie</tspan>
            </text>
        </g>
        <g id="Group-5" transform="translate(911.000000, 27.000000)" fill="#000000">
            <text id="FramerX" font-family="AvenirNextforINTUIT-Demi, AvenirNext forINTUIT" font-size="20" font-weight="400" letter-spacing="-0.0615384783">
                <tspan x="13.0353847" y="78">FramerX</tspan>
            </text>
            <g id="Group-2" transform="translate(38.000000, 0.000000)" fill-rule="nonzero">
                <polygon id="Path" points="0 0 28 0 28 14 14 14"></polygon>
                <path d="M0,14 L14,14 L28,28 L14.1521739,28 L14.1521739,42 L0,28 L0,14 Z" id="Combined-Shape"></path>
            </g>
        </g>
        <g id="Group-7" transform="translate(1448.000000, 27.000000)">
            <text id="InVision" font-family="AvenirNextforINTUIT-Demi, AvenirNext forINTUIT" font-size="20" font-weight="400" letter-spacing="-0.0615384783" fill="#000000">
                <tspan x="15.5361539" y="78">InVision</tspan>
            </text>
            <g id="invision" transform="translate(31.000000, 0.000000)" fill-rule="nonzero">
                <path d="M38.1926016,0 L3.80739844,0 C1.70460937,0 0,1.70460937 0,3.80739844 L0,38.1926016 C0,40.2953906 1.70460937,42 3.80739844,42 L38.1926016,42 C40.2953906,42 42,40.2953906 42,38.1926016 L42,3.80739844 C42,1.70460937 40.2953906,0 38.1926016,0" id="Path" fill="#DC395F"></path>
                <path d="M14.2596421,13.0145295 C15.6302726,13.0145295 16.7784776,11.9291899 16.7784776,10.5066952 C16.7784776,9.08517692 15.6302726,8 14.2596421,8 C12.8890116,8 11.7411287,9.08517692 11.7411287,10.5066952 C11.7411287,11.9290271 12.8890116,13.0145295 14.2596421,13.0145295 M9.03707283,26.4421498 C8.88905762,27.0783834 8.81480842,27.7653855 8.81480842,28.3257917 C8.81480842,30.5340592 10.0000575,32 12.518893,32 C14.6078563,32 16.3014145,30.7467337 17.5208085,28.7229902 L16.7762228,31.7419267 L20.924353,31.7419267 L23.2951733,22.1351251 C23.8878784,19.7027927 25.0360835,18.4402514 26.7771546,18.4402514 C28.1476241,18.4402514 28.9994766,19.3013635 28.9994766,20.7228818 C28.9994766,21.134725 28.9624325,21.5833429 28.8142562,22.0700372 L27.591802,26.4857586 C27.4065816,27.1219922 27.3328156,27.7585513 27.3328156,28.3568712 C27.3328156,30.4531876 28.5547867,31.9864943 31.1106663,31.9864943 C33.2961052,31.9864943 35.0368542,30.5651387 36,27.1595805 L34.3703832,26.5239977 C33.5554137,28.8054891 32.8515764,29.2179832 32.2959154,29.2179832 C31.7402544,29.2179832 31.4439018,28.8440536 31.4439018,28.0960317 C31.4439018,27.7592021 31.5183121,27.3854352 31.6291222,26.9353529 L32.8146934,22.6333724 C33.1108849,21.6232092 33.2221781,20.7274379 33.2221781,19.9044022 C33.2221781,16.6861343 31.2958866,15.0065427 28.9624325,15.0065427 C26.7771546,15.0065427 24.5545106,16.9980677 23.4435107,19.0940587 L24.258158,15.3319819 L17.9245889,15.3319819 L17.0355312,18.6456035 L19.9988956,18.6456035 L18.1740726,26.026564 C16.7411114,29.244832 14.1088889,29.2970649 13.7785524,29.2223767 C13.2360984,29.0987098 12.8891727,28.8905914 12.8891727,28.1785305 C12.8891727,27.7676636 12.9632608,27.1774796 13.1484811,26.4659069 L15.9267862,15.3319819 L8.88905762,15.3319819 L8,18.6456035 L10.9259981,18.6456035 L9.03723389,26.4421498" id="Shape" fill="#FFFFFF"></path>
            </g>
        </g>
        <g id="Group-8" transform="translate(1716.000000, 27.000000)">
            <text id="Axure-RP" font-family="AvenirNextforINTUIT-Demi, AvenirNext forINTUIT" font-size="20" font-weight="400" letter-spacing="-0.0615384783" fill="#000000">
                <tspan x="9.90615391" y="78">Axure RP</tspan>
            </text>
            <g id="Axure-01" transform="translate(33.000000, 0.000000)" fill-rule="nonzero">
                <path d="M34.830073,1.13380282 L34.830073,1.13380282 C34.4920709,0.443661972 33.8160667,0 32.9952045,0 L29.7600417,0 C28.8426075,0 28.1183173,0.394366197 27.7803152,1.08450704 L23,8.18309859 L27.152597,14 L34.4437849,3.35211268 C35.2646471,2.36619718 34.974931,1.47887324 34.830073,1.13380282" id="XMLID_7_" fill="#74BB11"></path>
                <path d="M9.25557766,0.985915493 L9.25557766,0.985915493 C8.50314578,0 7.49990328,0 7.1487684,0 L3.88823025,0 C3.03547412,0 2.38336649,0.394366197 2.03223162,1.03521127 C1.68109674,1.72535211 1.73125886,2.51408451 2.23288012,3.25352113 L14.3219523,19.7183099 L0.427043606,38.7957746 C-0.0745776474,39.5352113 -0.124739773,40.3239437 0.226395105,40.9647887 C0.577529982,41.6056338 1.27979974,42 2.08239374,42 L5.44325614,42 C6.29601227,42 7.04844415,41.556338 7.44974115,40.8661972 L23,19.7676056 L9.25557766,0.985915493 Z" id="XMLID_8_" fill="#009CD9"></path>
                <path d="M36.7110113,39.0152905 L27.1771898,26 L23,31.7247706 L30.5189417,41.706422 L30.7155153,41.8042813 C31.0595192,41.9510703 31.3543796,42 31.6492401,42 L34.8435617,42 C35.6298563,42 36.2687206,41.6574924 36.6618679,41.0703364 C37.1041586,40.5321101 37.1041586,39.7492355 36.7110113,39.0152905" id="XMLID_9_" fill="#EB2084"></path>
            </g>
        </g>
        <g id="Group-3" transform="translate(374.000000, 27.000000)">
            <text id="Origami" font-family="AvenirNextforINTUIT-Demi, AvenirNext forINTUIT" font-size="20" font-weight="400" letter-spacing="-0.0615384783" fill="#000000">
                <tspan x="14.0053847" y="78">Origami</tspan>
            </text>
            <g id="origami" transform="translate(32.000000, 0.000000)" fill-rule="nonzero">
                <path d="M14.8144531,14.8424684 L14.8144531,0 L0,0 L14.8144531,14.8424684 Z M41,11.4135684 L35.6667969,6.13338444 L28.2515625,13.5385205 L14.8144531,0 L14.8144531,42 L35.6667969,20.9919509 L35.6667969,11.4135684 L41,11.4135684 Z" id="Shape" fill="#0991FF"></path>
                <polyline id="Path" fill="#62CCFD" points="0 0 15 15 15 0 0 0"></polyline>
                <polyline id="Path" fill="#0991FF" points="15 42 15 0 36 20.9919509 15 42"></polyline>
                <polygon id="Path" fill="#62CCFD" points="35 6 35 21 28 13.475623"></polygon>
                <polygon id="Path" fill="#0991FF" points="36 6 36 11 41 11"></polygon>
            </g>
        </g>
        <text id="DATA-PERSISTENCE" font-family="AvenirNextforINTUIT-Demi, AvenirNext forINTUIT" font-size="20" font-weight="400" letter-spacing="-0.0615384783" fill="#000000">
            <tspan x="38" y="175">DATA PERSISTENCE</tspan>
        </text>
        <text id="LOGICAL-NAVIGATION" font-family="AvenirNextforINTUIT-Demi, AvenirNext forINTUIT" font-size="20" font-weight="400" letter-spacing="-0.0615384783" fill="#000000">
            <tspan x="38" y="247">LOGICAL NAVIGATION</tspan>
        </text>
        <text id="TRANSITIONS/ANIMATIO" font-family="AvenirNextforINTUIT-Demi, AvenirNext forINTUIT" font-size="20" font-weight="400" letter-spacing="-0.0615384783" fill="#000000">
            <tspan x="38" y="319">TRANSITIONS/ANIMATIONS</tspan>
        </text>
        <text id="CODED-COMPONENTS" font-family="AvenirNextforINTUIT-Demi, AvenirNext forINTUIT" font-size="20" font-weight="400" letter-spacing="-0.0615384783" fill="#000000">
            <tspan x="38" y="391">CODED COMPONENTS</tspan>
        </text>
        <text id="CLOUD-SHARE" font-family="AvenirNextforINTUIT-Demi, AvenirNext forINTUIT" font-size="20" font-weight="400" letter-spacing="-0.0615384783" fill="#000000">
            <tspan x="38" y="463">CLOUD SHARE</tspan>
        </text>
        <text id="CLOUD-COLLABORATION" font-family="AvenirNextforINTUIT-Demi, AvenirNext forINTUIT" font-size="20" font-weight="400" letter-spacing="-0.0615384783" fill="#000000">
            <tspan x="38" y="535">CLOUD COLLABORATION</tspan>
        </text>
        <text id="RESPONSIVE-LAYOUT" font-family="AvenirNextforINTUIT-Demi, AvenirNext forINTUIT" font-size="20" font-weight="400" letter-spacing="-0.0615384783" fill="#000000">
            <tspan x="38" y="607">RESPONSIVE LAYOUT</tspan>
        </text>
        <circle id="Oval" fill="#0991FF" cx="426" cy="240" r="14"></circle>
        <circle id="Oval" fill="#0991FF" cx="426" cy="312" r="14"></circle>
        <circle id="Oval" fill="#0991FF" cx="426" cy="456" r="14"></circle>
        <circle id="Oval" fill="#FF6661" cx="694" cy="240" r="14"></circle>
        <circle id="Oval" fill="#FF6661" cx="694" cy="312" r="14"></circle>
        <circle id="Oval" fill="#FF6661" cx="694" cy="456" r="14"></circle>
        <circle id="Oval" fill="#000000" cx="963" cy="168" r="14"></circle>
        <circle id="Oval" fill="#000000" cx="963" cy="240" r="14"></circle>
        <circle id="Oval" fill="#000000" cx="963" cy="312" r="14"></circle>
        <circle id="Oval" fill="#000000" cx="963" cy="384" r="14"></circle>
        <circle id="Oval" fill="#000000" cx="963" cy="456" r="14"></circle>
        <circle id="Oval" fill="#000000" cx="963" cy="528" r="14"></circle>
        <circle id="Oval" fill="#000000" cx="963" cy="600" r="14"></circle>
        <circle id="Oval" fill="#DBDB00" cx="1231" cy="168" r="14"></circle>
        <circle id="Oval" fill="#DBDB00" cx="1231" cy="240" r="14"></circle>
        <circle id="Oval" fill="#DBDB00" cx="1231" cy="312" r="14"></circle>
        <circle id="Oval" fill="#DBDB00" cx="1231" cy="456" r="14"></circle>
        <circle id="Oval" fill="#DC395F" cx="1500" cy="312" r="14"></circle>
        <circle id="Oval" fill="#DC395F" cx="1500" cy="456" r="14"></circle>
        <circle id="Oval" fill="#74BB11" cx="1768" cy="168" r="14"></circle>
        <circle id="Oval" fill="#74BB11" cx="1768" cy="240" r="14"></circle>
        <circle id="Oval" fill="#74BB11" cx="1768" cy="312" r="14"></circle>
        <circle id="Oval" fill="#74BB11" cx="1768" cy="456" r="14"></circle>
    </g>
</svg>