<?xml version="1.0" encoding="UTF-8"?>
<svg width="1540px" height="642px" viewBox="0 0 1540 642" version="1.1" xmlns="http://www.w3.org/2000/svg" xmlns:xlink="http://www.w3.org/1999/xlink">
    <title>imgManager_finalStates</title>
    <g id="imgManager_finalStates" stroke="none" stroke-width="1" fill="none" fill-rule="evenodd">
        <rect fill="#FFFFFF" x="0" y="0" width="1540" height="642"></rect>
        <g id="Group-6" transform="translate(595.000000, 255.500000)">
            <rect id="Rectangle" stroke="#979797" fill="#ECEEF0" x="1" y="0" width="159" height="159"></rect>
            <rect id="Rectangle" fill="#99BAFB" x="33" y="99" width="92" height="25"></rect>
            <g id="Group-5" transform="translate(150.000000, 20.500000) scale(-1, 1) translate(-150.000000, -20.500000) translate(147.000000, 8.000000)" fill="#000000">
                <circle id="Oval" cx="3" cy="3" r="3"></circle>
                <circle id="Oval" cx="3" cy="12" r="3"></circle>
                <circle id="Oval" cx="3" cy="22" r="3"></circle>
            </g>
            <text id="asset-name" font-family="AvenirNextforINTUIT-Demi, AvenirNext forINTUIT" font-size="16" font-weight="400" fill="#000000">
                <tspan x="36.416" y="117">asset name</tspan>
            </text>
            <line x1="0.5" y1="129.5" x2="159.5" y2="129.5" id="Line" stroke="#979797" stroke-linecap="square"></line>
            <line x1="79.5" y1="129.5" x2="79.5" y2="159.5" id="Line" stroke="#979797" stroke-linecap="square"></line>
            <line x1="34.5" y1="137.5" x2="50.5" y2="152.5" id="Line-2" stroke="#979797" stroke-linecap="square"></line>
            <line x1="50.5" y1="137.5" x2="34.5" y2="152.5" id="Line-3" stroke="#979797" stroke-linecap="square"></line>
            <line x1="108.5" y1="143.5" x2="115.5" y2="150.5" id="Line-5" stroke="#979797" stroke-linecap="square"></line>
            <line x1="130.5" y1="135.5" x2="115.5" y2="150.5" id="Line-5" stroke="#979797" stroke-linecap="square"></line>
        </g>
        <g id="Group-7" transform="translate(297.000000, 256.500000)">
            <rect id="Rectangle" stroke="#979797" fill="#ECEEF0" x="0.5" y="0" width="159" height="159"></rect>
            <text id="Copy" font-family="AvenirNextforINTUIT-Medium, AvenirNext forINTUIT" font-size="15" font-weight="400" letter-spacing="1.07142857" fill="#000000">
                <tspan x="19.5" y="148">Copy</tspan>
            </text>
            <text id="Insert" font-family="AvenirNextforINTUIT-Medium, AvenirNext forINTUIT" font-size="15" font-weight="400" letter-spacing="1.07142857" fill="#000000">
                <tspan x="98.5" y="148">Insert</tspan>
            </text>
            <line x1="0.5" y1="126" x2="159.5" y2="126" id="Line" stroke="#979797" stroke-linecap="square"></line>
            <line x1="80" y1="158.5" x2="80" y2="125.5" id="Line" stroke="#979797" stroke-linecap="square"></line>
        </g>
        <g id="Group-6" transform="translate(356.500000, 264.500000)">
            <rect id="Rectangle" stroke="#979797" fill="#FFFFFF" x="1" y="0" width="89" height="72"></rect>
            <text id="Delete" font-family="AvenirNextforINTUIT-Medium, AvenirNext forINTUIT" font-size="15" font-weight="400" letter-spacing="1.07142857" fill="#000000">
                <tspan x="19" y="25">Delete</tspan>
            </text>
            <text id="Rename" font-family="AvenirNextforINTUIT-Medium, AvenirNext forINTUIT" font-size="15" font-weight="400" letter-spacing="1.07142857" fill="#000000">
                <tspan x="14" y="60">Rename</tspan>
            </text>
            <line x1="0.5" y1="37.5" x2="89.5" y2="37.5" id="Line-2" stroke="#979797" stroke-linecap="square"></line>
        </g>
        <g id="Group-7" transform="translate(90.000000, 256.500000)">
            <rect id="Rectangle" stroke="#979797" fill="#ECEEF0" x="0.5" y="0" width="159" height="159"></rect>
            <text id="Copy" font-family="AvenirNextforINTUIT-Medium, AvenirNext forINTUIT" font-size="15" font-weight="400" letter-spacing="1.07142857" fill="#000000">
                <tspan x="19.5" y="148">Copy</tspan>
            </text>
            <text id="Insert" font-family="AvenirNextforINTUIT-Medium, AvenirNext forINTUIT" font-size="15" font-weight="400" letter-spacing="1.07142857" fill="#000000">
                <tspan x="98.5" y="148">Insert</tspan>
            </text>
            <line x1="0.5" y1="126" x2="159.5" y2="126" id="Line" stroke="#979797" stroke-linecap="square"></line>
            <line x1="80" y1="158.5" x2="80" y2="125.5" id="Line" stroke="#979797" stroke-linecap="square"></line>
        </g>
        <g id="Group-5" transform="translate(236.000000, 276.000000) scale(-1, 1) translate(-236.000000, -276.000000) translate(233.000000, 263.500000)" fill="#000000">
            <circle id="Oval" cx="3" cy="3" r="3"></circle>
            <circle id="Oval" cx="3" cy="12" r="3"></circle>
            <circle id="Oval" cx="3" cy="22" r="3"></circle>
        </g>
        <g id="Group-7" transform="translate(802.000000, 255.500000)" fill="#ECEEF0" stroke="#979797">
            <rect id="Rectangle" x="0.5" y="0" width="159" height="159"></rect>
        </g>
        <path d="M827.968,374.788 C829.888,374.788 831.36,374.052 832.352,372.804 L830.736,371.668 C830.16,372.452 829.2,372.98 827.984,372.98 C825.648,372.98 824.144,371.268 824.144,368.804 C824.144,366.468 825.728,364.66 828.064,364.66 C828.976,364.66 830.048,365.012 830.64,365.828 L832.176,364.612 C831.28,363.428 829.536,362.884 828.064,362.884 C824.576,362.884 821.92,365.172 821.92,368.804 C821.92,372.34 824.432,374.788 827.968,374.788 Z M837.232,374.724 C839.552,374.724 841.408,373.044 841.408,370.628 C841.408,368.212 839.552,366.596 837.232,366.596 C834.912,366.596 833.056,368.212 833.056,370.628 C833.056,373.044 834.912,374.724 837.232,374.724 Z M837.232,373.124 C835.712,373.124 835.008,371.828 835.008,370.628 C835.008,369.428 835.712,368.164 837.232,368.164 C838.752,368.164 839.456,369.428 839.456,370.628 C839.456,371.828 838.752,373.124 837.232,373.124 Z M845.184,374.5 L845.184,370.276 C845.184,369.252 845.76,368.196 846.976,368.196 C848.208,368.196 848.416,369.332 848.416,370.244 L848.416,374.5 L850.336,374.5 L850.336,369.7 C850.336,368.132 849.504,366.596 847.504,366.596 C846.368,366.596 845.456,367.284 845.12,368.052 L845.088,368.052 L845.088,366.82 L843.264,366.82 L843.264,374.5 L845.184,374.5 Z M854.8,374.5 L854.8,368.356 L856.576,368.356 L856.576,366.82 L854.8,366.82 L854.8,365.572 C854.8,364.804 854.992,363.844 856.096,363.844 C856.368,363.844 856.624,363.892 856.832,363.956 L856.96,362.324 C856.672,362.244 856.4,362.212 855.984,362.212 C853.6,362.212 852.88,363.844 852.88,365.684 L852.88,366.82 L851.424,366.82 L851.424,368.356 L852.88,368.356 L852.88,374.5 L854.8,374.5 Z M858.928,365.364 C859.632,365.364 860.176,364.868 860.176,364.212 C860.176,363.556 859.632,363.06 858.928,363.06 C858.224,363.06 857.712,363.604 857.712,364.212 C857.712,364.82 858.224,365.364 858.928,365.364 Z M859.904,374.5 L859.904,366.82 L857.984,366.82 L857.984,374.5 L859.904,374.5 Z M863.984,374.5 L863.984,370.388 C863.984,369.828 864.32,368.324 866.048,368.324 C866.224,368.324 866.384,368.34 866.64,368.404 L866.64,366.644 C866.512,366.612 866.32,366.596 866.176,366.596 C865.168,366.596 864.352,367.22 863.936,368.1 L863.904,368.1 L863.904,366.82 L862.064,366.82 L862.064,374.5 L863.984,374.5 Z M869.808,374.5 L869.808,370.276 C869.808,369.252 870.336,368.196 871.488,368.196 C872.464,368.196 872.912,368.916 872.912,369.86 L872.912,374.5 L874.832,374.5 L874.832,370.308 C874.832,369.316 875.328,368.196 876.528,368.196 C877.76,368.196 877.968,369.332 877.968,370.244 L877.968,374.5 L879.888,374.5 L879.888,369.7 C879.888,368.132 879.056,366.596 877.056,366.596 C875.904,366.596 875.04,367.124 874.528,368.052 C874.096,367.188 873.312,366.596 872.128,366.596 C870.896,366.596 870.08,367.3 869.744,368.052 L869.712,368.052 L869.712,366.82 L867.888,366.82 L867.888,374.5 L869.808,374.5 Z M890.24,374.5 C893.2,374.5 896.496,372.804 896.496,368.836 C896.496,364.58 893.2,363.172 890.24,363.172 L886.224,363.172 L886.224,374.5 L890.24,374.5 Z M889.92,372.74 L888.24,372.74 L888.24,364.9 L889.92,364.9 C892,364.9 894.336,365.588 894.336,368.836 C894.336,371.892 892,372.74 889.92,372.74 Z M902.032,374.724 C903.488,374.724 904.576,374.212 905.328,373.188 L904.048,372.164 C903.616,372.772 902.976,373.156 902.016,373.156 C900.896,373.156 899.904,372.356 899.824,371.268 L905.664,371.268 C905.68,371.092 905.68,370.932 905.68,370.756 C905.68,367.988 904.112,366.596 901.968,366.596 C899.648,366.596 897.904,368.228 897.904,370.708 C897.904,373.204 899.664,374.724 902.032,374.724 Z M903.76,369.892 L899.824,369.892 C899.904,368.82 900.816,368.036 901.952,368.036 C903.2,368.036 903.76,368.9 903.76,369.892 Z M909.488,374.5 L909.488,362.404 L907.568,362.404 L907.568,374.5 L909.488,374.5 Z M915.504,374.724 C916.96,374.724 918.048,374.212 918.8,373.188 L917.52,372.164 C917.088,372.772 916.448,373.156 915.488,373.156 C914.368,373.156 913.376,372.356 913.296,371.268 L919.136,371.268 C919.152,371.092 919.152,370.932 919.152,370.756 C919.152,367.988 917.584,366.596 915.44,366.596 C913.12,366.596 911.376,368.228 911.376,370.708 C911.376,373.204 913.136,374.724 915.504,374.724 Z M917.232,369.892 L913.296,369.892 C913.376,368.82 914.288,368.036 915.424,368.036 C916.672,368.036 917.232,368.9 917.232,369.892 Z M923.744,374.66 C924.176,374.66 924.688,374.58 925.024,374.452 L924.96,372.948 C924.736,373.06 924.4,373.108 924.144,373.108 C923.296,373.108 923.136,372.612 923.136,371.924 L923.136,368.356 L925.056,368.356 L925.056,366.82 L923.136,366.82 L923.136,364.596 L921.248,364.596 L921.248,366.82 L919.904,366.82 L919.904,368.356 L921.248,368.356 L921.248,371.94 C921.248,373.412 921.712,374.66 923.744,374.66 Z M930.128,374.724 C931.584,374.724 932.672,374.212 933.424,373.188 L932.144,372.164 C931.712,372.772 931.072,373.156 930.112,373.156 C928.992,373.156 928,372.356 927.92,371.268 L933.76,371.268 C933.776,371.092 933.776,370.932 933.776,370.756 C933.776,367.988 932.208,366.596 930.064,366.596 C927.744,366.596 926,368.228 926,370.708 C926,373.204 927.76,374.724 930.128,374.724 Z M931.856,369.892 L927.92,369.892 C928,368.82 928.912,368.036 930.048,368.036 C931.296,368.036 931.856,368.9 931.856,369.892 Z M939.728,371.156 L939.728,370.74 C939.728,369.812 939.952,369.54 940.784,368.804 C941.776,367.94 942.384,367.332 942.384,365.972 C942.384,363.956 940.816,362.884 938.976,362.884 C937.008,362.884 935.488,364.084 935.248,366.116 L937.216,366.292 C937.248,365.428 937.856,364.628 938.848,364.628 C939.792,364.628 940.352,365.268 940.352,366.1 C940.352,366.74 940.016,367.156 939.616,367.524 L938.896,368.212 C938.096,368.98 937.84,369.524 937.84,370.548 L937.84,371.156 L939.728,371.156 Z M938.8,374.596 C939.504,374.596 940.08,374.036 940.08,373.348 C940.08,372.66 939.488,372.132 938.8,372.132 C938.096,372.132 937.52,372.692 937.52,373.38 C937.52,374.068 938.128,374.596 938.8,374.596 Z" id="ConfrmDelete?" fill="#000000" fill-rule="nonzero"></path>
        <polygon id="Line" fill="#979797" fill-rule="nonzero" points="962 384.5 962 385.5 802 385.5 802 384.5"></polygon>
        <polygon id="Line" fill="#979797" fill-rule="nonzero" points="882 384.5 882 415.5 881 415.5 881 384.5"></polygon>
        <polygon id="Line-2" fill="#979797" fill-rule="nonzero" points="835.793261 393.022798 836.477202 392.293261 853.206739 407.977202 852.522798 408.706739"></polygon>
        <polygon id="Line-3" fill="#979797" fill-rule="nonzero" points="852.522798 392.293261 853.206739 393.022798 836.477202 408.706739 835.793261 407.977202"></polygon>
        <polygon id="Line-5" fill="#979797" fill-rule="nonzero" points="909.792893 399 910.5 398.292893 918.207107 406 917.5 406.707107"></polygon>
        <polygon id="Line-5" fill="#979797" fill-rule="nonzero" points="932.5 390.292893 933.207107 391 917.5 406.707107 916.792893 406"></polygon>
        <g id="Group-5" transform="translate(950.000000, 275.000000) scale(-1, 1) translate(-950.000000, -275.000000) translate(947.000000, 262.500000)" fill="#000000">
            <circle id="Oval" cx="3" cy="3" r="3"></circle>
            <circle id="Oval" cx="3" cy="12" r="3"></circle>
            <circle id="Oval" cx="3" cy="22" r="3"></circle>
        </g>
        <g id="Group-7" transform="translate(1083.000000, 256.500000)" fill="#ECEEF0" stroke="#979797">
            <rect id="Rectangle" x="0.5" y="0" width="159" height="159"></rect>
        </g>
        <g id="Group-5" transform="translate(1228.000000, 276.000000) scale(-1, 1) translate(-1228.000000, -276.000000) translate(1225.000000, 263.500000)" fill="#000000">
            <circle id="Oval" cx="3" cy="3" r="3"></circle>
            <circle id="Oval" cx="3" cy="12" r="3"></circle>
            <circle id="Oval" cx="3" cy="22" r="3"></circle>
        </g>
        <path d="M1162.5,291.5 C1137.92333,291.5 1118,311.423329 1118,336 C1118,360.576671 1137.92333,380.5 1162.5,380.5 C1187.07667,380.5 1207,360.576671 1207,336 C1207,311.423329 1187.07667,291.5 1162.5,291.5 Z M1162.5,293.5 C1185.9721,293.5 1205,312.527898 1205,336 C1205,359.472102 1185.9721,378.5 1162.5,378.5 C1139.0279,378.5 1120,359.472102 1120,336 C1120,312.527898 1139.0279,293.5 1162.5,293.5 Z" id="Oval" fill="#979797" fill-rule="nonzero"></path>
        <g id="Group-8" transform="translate(1136.000000, 313.500000)" stroke="#979797" stroke-linecap="square" stroke-width="4">
            <line x1="0.5" y1="31.5" x2="22.5" y2="45.5" id="Line-11"></line>
            <line x1="53.5" y1="0.5" x2="22.5" y2="45.5" id="Line-11"></line>
        </g>
        <g id="Group-7" transform="translate(1290.000000, 256.500000)" fill="#ECEEF0" stroke="#979797">
            <rect id="Rectangle" x="0.5" y="0" width="159" height="159"></rect>
        </g>
        <g id="Group-5" transform="translate(1438.000000, 276.000000) scale(-1, 1) translate(-1438.000000, -276.000000) translate(1435.000000, 263.500000)" fill="#000000">
            <circle id="Oval" cx="3" cy="3" r="3"></circle>
            <circle id="Oval" cx="3" cy="12" r="3"></circle>
            <circle id="Oval" cx="3" cy="22" r="3"></circle>
        </g>
        <path d="M1381,288.5 L1361,288.5 L1361,297.5 L1381,297.5 L1381,288.5 Z M1379,290.5 L1379,295.5 L1363,295.5 L1363,290.5 L1379,290.5 Z" id="Rectangle" fill="#979797" fill-rule="nonzero"></path>
        <path d="M1401.22686,313.5 L1337.79071,313.5 L1351.17307,383.5 L1386.81509,383.5 L1401.22686,313.5 Z M1398.773,315.5 L1385.184,381.5 L1352.827,381.5 L1340.209,315.5 L1398.773,315.5 Z" id="Rectangle" fill="#979797" fill-rule="nonzero"></path>
        <path d="M1401,301.5 L1338,301.5 L1338,309.5 L1401,309.5 L1401,301.5 Z M1399,303.5 L1399,307.5 L1340,307.5 L1340,303.5 L1399,303.5 Z" id="Rectangle" fill="#979797" fill-rule="nonzero"></path>
        <polygon id="Line-12" fill="#979797" fill-rule="nonzero" points="1360.60223 348.715041 1361.78496 347.102231 1370.89777 353.784959 1369.71504 355.397769"></polygon>
        <polygon id="Line-12" fill="#979797" fill-rule="nonzero" points="1381.7675 335.105028 1383.39497 336.267505 1369.7325 355.394972 1368.10503 354.232495"></polygon>
        <path d="M1019.5,85.5 C1021.36856,85.5 1022.89513,86.9642776 1022.99482,88.8079648 L1023,89 L1023,554 C1023,555.932997 1021.433,557.5 1019.5,557.5 C1017.63144,557.5 1016.10487,556.035722 1016.00518,554.192035 L1016,554 L1016,89 C1016,87.0670034 1017.567,85.5 1019.5,85.5 Z" id="Line-13" fill="#FF00AF" fill-rule="nonzero"></path>
        <path d="M530,85 C531.868563,85 533.395126,86.4642776 533.494821,88.3079648 L533.5,88.5 L533.5,553.5 C533.5,555.432997 531.932997,557 530,557 C528.131437,557 526.604874,555.535722 526.505179,553.692035 L526.5,553.5 L526.5,88.5 C526.5,86.5670034 528.067003,85 530,85 Z" id="Line-13" fill="#FF00AF" fill-rule="nonzero"></path>
        <path d="M246.755,185.49 C250.43,185.49 253.755,183.985 253.755,179.89 C253.755,176.6 250.815,175.48 248.33,174.885 C245.985,174.325 244.69,173.975 244.69,172.68 C244.69,171.35 246.055,170.86 247.385,170.86 C248.925,170.86 250.325,171.7 251.06,172.68 L253.79,170.265 C252.425,168.55 249.905,167.71 247.49,167.71 C244.165,167.71 240.805,169.32 240.805,173.065 C240.805,176.215 243.29,177.23 245.775,177.825 C248.33,178.42 249.625,178.84 249.625,180.24 C249.625,181.745 248.155,182.235 246.93,182.235 C245.11,182.235 243.535,181.325 242.625,180.135 L239.86,182.725 C241.47,184.51 244.165,185.49 246.755,185.49 Z M263.38,185.35 C264.325,185.35 265.445,185.175 266.18,184.895 L266.04,181.605 C265.55,181.85 264.815,181.955 264.255,181.955 C262.4,181.955 262.05,180.87 262.05,179.365 L262.05,171.56 L266.25,171.56 L266.25,168.2 L262.05,168.2 L262.05,163.335 L257.92,163.335 L257.92,168.2 L254.98,168.2 L254.98,171.56 L257.92,171.56 L257.92,179.4 C257.92,182.62 258.935,185.35 263.38,185.35 Z M274.405,185.42 C276.785,185.42 278.78,184.335 279.62,182.865 L279.725,182.865 L279.725,185 L283.645,185 L283.645,174.78 C283.645,171.42 282.175,167.71 276.155,167.71 C273.6,167.71 270.94,168.62 269.05,170.37 L271.22,172.925 C272.305,171.84 274.02,171 275.805,171 C277.905,171 279.655,172.015 279.655,174.08 L279.655,174.5 C274.405,174.5 268.105,175.2 268.105,180.205 C268.105,184.125 271.71,185.42 274.405,185.42 Z M275.245,182.235 C273.81,182.235 272.305,181.745 272.305,180.135 C272.305,177.65 276.05,177.335 278.71,177.335 L279.655,177.335 L279.655,177.93 C279.655,180.59 278.115,182.235 275.245,182.235 Z M292.745,185 L292.745,176.005 C292.745,174.78 293.48,171.49 297.26,171.49 C297.645,171.49 297.995,171.525 298.555,171.665 L298.555,167.815 C298.275,167.745 297.855,167.71 297.54,167.71 C295.335,167.71 293.55,169.075 292.64,171 L292.57,171 L292.57,168.2 L288.545,168.2 L288.545,185 L292.745,185 Z M307.27,185.35 C308.215,185.35 309.335,185.175 310.07,184.895 L309.93,181.605 C309.44,181.85 308.705,181.955 308.145,181.955 C306.29,181.955 305.94,180.87 305.94,179.365 L305.94,171.56 L310.14,171.56 L310.14,168.2 L305.94,168.2 L305.94,163.335 L301.81,163.335 L301.81,168.2 L298.87,168.2 L298.87,171.56 L301.81,171.56 L301.81,179.4 C301.81,182.62 302.825,185.35 307.27,185.35 Z" id="start" fill="#FF00BE" fill-rule="nonzero"></path>
        <path d="M633.8075,185.49 C636.2925,185.49 638.6025,184.65 640.0025,183.145 L637.3775,180.485 C636.5725,181.465 635.1375,181.99 633.8425,181.99 C630.6575,181.99 629.0825,179.225 629.0825,176.6 C629.0825,173.975 630.6225,171.21 633.7025,171.21 C635.0675,171.21 636.5025,171.91 637.1675,172.855 L640.0375,170.335 C638.7075,168.69 636.1525,167.71 633.7025,167.71 C628.7675,167.71 624.7075,171.14 624.7075,176.6 C624.7075,182.2 628.8375,185.49 633.8075,185.49 Z M650.9225,185.49 C655.9975,185.49 660.0575,181.815 660.0575,176.53 C660.0575,171.245 655.9975,167.71 650.9225,167.71 C645.8475,167.71 641.7875,171.245 641.7875,176.53 C641.7875,181.815 645.8475,185.49 650.9225,185.49 Z M650.9225,181.99 C647.5975,181.99 646.0575,179.155 646.0575,176.53 C646.0575,173.905 647.5975,171.14 650.9225,171.14 C654.2475,171.14 655.7875,173.905 655.7875,176.53 C655.7875,179.155 654.2475,181.99 650.9225,181.99 Z M668.3175,185 L668.3175,175.76 C668.3175,173.52 669.5775,171.21 672.2375,171.21 C674.9325,171.21 675.3875,173.695 675.3875,175.69 L675.3875,185 L679.5875,185 L679.5875,174.5 C679.5875,171.07 677.7675,167.71 673.3925,167.71 C670.9075,167.71 668.9125,169.215 668.1775,170.895 L668.1075,170.895 L668.1075,168.2 L664.1175,168.2 L664.1175,185 L668.3175,185 Z M689.3525,185 L689.3525,171.56 L693.2375,171.56 L693.2375,168.2 L689.3525,168.2 L689.3525,165.47 C689.3525,163.79 689.7725,161.69 692.1875,161.69 C692.7825,161.69 693.3425,161.795 693.7975,161.935 L694.0775,158.365 C693.4475,158.19 692.8525,158.12 691.9425,158.12 C686.7275,158.12 685.1525,161.69 685.1525,165.715 L685.1525,168.2 L681.9675,168.2 L681.9675,171.56 L685.1525,171.56 L685.1525,185 L689.3525,185 Z M698.3825,165.015 C699.9225,165.015 701.1125,163.93 701.1125,162.495 C701.1125,161.06 699.9225,159.975 698.3825,159.975 C696.8425,159.975 695.7225,161.165 695.7225,162.495 C695.7225,163.825 696.8425,165.015 698.3825,165.015 Z M700.5175,185 L700.5175,168.2 L696.3175,168.2 L696.3175,185 L700.5175,185 Z M709.4425,185 L709.4425,176.005 C709.4425,174.78 710.1775,171.49 713.9575,171.49 C714.3425,171.49 714.6925,171.525 715.2525,171.665 L715.2525,167.815 C714.9725,167.745 714.5525,167.71 714.2375,167.71 C712.0325,167.71 710.2475,169.075 709.3375,171 L709.2675,171 L709.2675,168.2 L705.2425,168.2 L705.2425,185 L709.4425,185 Z M722.1825,185 L722.1825,175.76 C722.1825,173.52 723.3375,171.21 725.8575,171.21 C727.9925,171.21 728.9725,172.785 728.9725,174.85 L728.9725,185 L733.1725,185 L733.1725,175.83 C733.1725,173.66 734.2575,171.21 736.8825,171.21 C739.5775,171.21 740.0325,173.695 740.0325,175.69 L740.0325,185 L744.2325,185 L744.2325,174.5 C744.2325,171.07 742.4125,167.71 738.0375,167.71 C735.5175,167.71 733.6275,168.865 732.5075,170.895 C731.5625,169.005 729.8475,167.71 727.2575,167.71 C724.5625,167.71 722.7775,169.25 722.0425,170.895 L721.9725,170.895 L721.9725,168.2 L717.9825,168.2 L717.9825,185 L722.1825,185 Z M754.2425,185.42 C756.6225,185.42 758.6175,184.335 759.4575,182.865 L759.5625,182.865 L759.5625,185 L763.4825,185 L763.4825,174.78 C763.4825,171.42 762.0125,167.71 755.9925,167.71 C753.4375,167.71 750.7775,168.62 748.8875,170.37 L751.0575,172.925 C752.1425,171.84 753.8575,171 755.6425,171 C757.7425,171 759.4925,172.015 759.4925,174.08 L759.4925,174.5 C754.2425,174.5 747.9425,175.2 747.9425,180.205 C747.9425,184.125 751.5475,185.42 754.2425,185.42 Z M755.0825,182.235 C753.6475,182.235 752.1425,181.745 752.1425,180.135 C752.1425,177.65 755.8875,177.335 758.5475,177.335 L759.4925,177.335 L759.4925,177.93 C759.4925,180.59 757.9525,182.235 755.0825,182.235 Z M774.3675,185.35 C775.3125,185.35 776.4325,185.175 777.1675,184.895 L777.0275,181.605 C776.5375,181.85 775.8025,181.955 775.2425,181.955 C773.3875,181.955 773.0375,180.87 773.0375,179.365 L773.0375,171.56 L777.2375,171.56 L777.2375,168.2 L773.0375,168.2 L773.0375,163.335 L768.9075,163.335 L768.9075,168.2 L765.9675,168.2 L765.9675,171.56 L768.9075,171.56 L768.9075,179.4 C768.9075,182.62 769.9225,185.35 774.3675,185.35 Z M782.4175,165.015 C783.9575,165.015 785.1475,163.93 785.1475,162.495 C785.1475,161.06 783.9575,159.975 782.4175,159.975 C780.8775,159.975 779.7575,161.165 779.7575,162.495 C779.7575,163.825 780.8775,165.015 782.4175,165.015 Z M784.5525,185 L784.5525,168.2 L780.3525,168.2 L780.3525,185 L784.5525,185 Z M797.8175,185.49 C802.8925,185.49 806.9525,181.815 806.9525,176.53 C806.9525,171.245 802.8925,167.71 797.8175,167.71 C792.7425,167.71 788.6825,171.245 788.6825,176.53 C788.6825,181.815 792.7425,185.49 797.8175,185.49 Z M797.8175,181.99 C794.4925,181.99 792.9525,179.155 792.9525,176.53 C792.9525,173.905 794.4925,171.14 797.8175,171.14 C801.1425,171.14 802.6825,173.905 802.6825,176.53 C802.6825,179.155 801.1425,181.99 797.8175,181.99 Z M815.2125,185 L815.2125,175.76 C815.2125,173.52 816.4725,171.21 819.1325,171.21 C821.8275,171.21 822.2825,173.695 822.2825,175.69 L822.2825,185 L826.4825,185 L826.4825,174.5 C826.4825,171.07 824.6625,167.71 820.2875,167.71 C817.8025,167.71 815.8075,169.215 815.0725,170.895 L815.0025,170.895 L815.0025,168.2 L811.0125,168.2 L811.0125,185 L815.2125,185 Z M845.0325,185.49 C848.7075,185.49 852.0325,183.985 852.0325,179.89 C852.0325,176.6 849.0925,175.48 846.6075,174.885 C844.2625,174.325 842.9675,173.975 842.9675,172.68 C842.9675,171.35 844.3325,170.86 845.6625,170.86 C847.2025,170.86 848.6025,171.7 849.3375,172.68 L852.0675,170.265 C850.7025,168.55 848.1825,167.71 845.7675,167.71 C842.4425,167.71 839.0825,169.32 839.0825,173.065 C839.0825,176.215 841.5675,177.23 844.0525,177.825 C846.6075,178.42 847.9025,178.84 847.9025,180.24 C847.9025,181.745 846.4325,182.235 845.2075,182.235 C843.3875,182.235 841.8125,181.325 840.9025,180.135 L838.1375,182.725 C839.7475,184.51 842.4425,185.49 845.0325,185.49 Z M861.6575,185.35 C862.6025,185.35 863.7225,185.175 864.4575,184.895 L864.3175,181.605 C863.8275,181.85 863.0925,181.955 862.5325,181.955 C860.6775,181.955 860.3275,180.87 860.3275,179.365 L860.3275,171.56 L864.5275,171.56 L864.5275,168.2 L860.3275,168.2 L860.3275,163.335 L856.1975,163.335 L856.1975,168.2 L853.2575,168.2 L853.2575,171.56 L856.1975,171.56 L856.1975,179.4 C856.1975,182.62 857.2125,185.35 861.6575,185.35 Z M872.6825,185.42 C875.0625,185.42 877.0575,184.335 877.8975,182.865 L878.0025,182.865 L878.0025,185 L881.9225,185 L881.9225,174.78 C881.9225,171.42 880.4525,167.71 874.4325,167.71 C871.8775,167.71 869.2175,168.62 867.3275,170.37 L869.4975,172.925 C870.5825,171.84 872.2975,171 874.0825,171 C876.1825,171 877.9325,172.015 877.9325,174.08 L877.9325,174.5 C872.6825,174.5 866.3825,175.2 866.3825,180.205 C866.3825,184.125 869.9875,185.42 872.6825,185.42 Z M873.5225,182.235 C872.0875,182.235 870.5825,181.745 870.5825,180.135 C870.5825,177.65 874.3275,177.335 876.9875,177.335 L877.9325,177.335 L877.9325,177.93 C877.9325,180.59 876.3925,182.235 873.5225,182.235 Z M892.8075,185.35 C893.7525,185.35 894.8725,185.175 895.6075,184.895 L895.4675,181.605 C894.9775,181.85 894.2425,181.955 893.6825,181.955 C891.8275,181.955 891.4775,180.87 891.4775,179.365 L891.4775,171.56 L895.6775,171.56 L895.6775,168.2 L891.4775,168.2 L891.4775,163.335 L887.3475,163.335 L887.3475,168.2 L884.4075,168.2 L884.4075,171.56 L887.3475,171.56 L887.3475,179.4 C887.3475,182.62 888.3625,185.35 892.8075,185.35 Z M906.7725,185.49 C909.9575,185.49 912.3375,184.37 913.9825,182.13 L911.1825,179.89 C910.2375,181.22 908.8375,182.06 906.7375,182.06 C904.2875,182.06 902.1175,180.31 901.9425,177.93 L914.7175,177.93 C914.7525,177.545 914.7525,177.195 914.7525,176.81 C914.7525,170.755 911.3225,167.71 906.6325,167.71 C901.5575,167.71 897.7425,171.28 897.7425,176.705 C897.7425,182.165 901.5925,185.49 906.7725,185.49 Z M910.5525,174.92 L901.9425,174.92 C902.1175,172.575 904.1125,170.86 906.5975,170.86 C909.3275,170.86 910.5525,172.75 910.5525,174.92 Z M923.7125,185.49 C927.3875,185.49 930.7125,183.985 930.7125,179.89 C930.7125,176.6 927.7725,175.48 925.2875,174.885 C922.9425,174.325 921.6475,173.975 921.6475,172.68 C921.6475,171.35 923.0125,170.86 924.3425,170.86 C925.8825,170.86 927.2825,171.7 928.0175,172.68 L930.7475,170.265 C929.3825,168.55 926.8625,167.71 924.4475,167.71 C921.1225,167.71 917.7625,169.32 917.7625,173.065 C917.7625,176.215 920.2475,177.23 922.7325,177.825 C925.2875,178.42 926.5825,178.84 926.5825,180.24 C926.5825,181.745 925.1125,182.235 923.8875,182.235 C922.0675,182.235 920.4925,181.325 919.5825,180.135 L916.8175,182.725 C918.4275,184.51 921.1225,185.49 923.7125,185.49 Z" id="confrmationstates" fill="#FF00C5" fill-rule="nonzero"></path>
        <path d="M1218.73,193.4 L1218.73,182.76 L1218.8,182.76 C1219.885,184.44 1222.02,185.49 1224.365,185.49 C1229.475,185.49 1232.625,181.43 1232.625,176.53 C1232.625,171.56 1229.265,167.71 1224.47,167.71 C1221.39,167.71 1219.5,169.215 1218.66,170.545 L1218.555,170.545 L1218.555,168.2 L1214.53,168.2 L1214.53,193.4 L1218.73,193.4 Z M1223.525,181.99 C1220.445,181.99 1218.59,179.225 1218.59,176.6 C1218.59,173.975 1220.445,171.14 1223.525,171.14 C1226.78,171.14 1228.355,173.905 1228.355,176.53 C1228.355,179.155 1226.78,181.99 1223.525,181.99 Z M1241.795,185.42 C1244.175,185.42 1246.17,184.335 1247.01,182.865 L1247.115,182.865 L1247.115,185 L1251.035,185 L1251.035,174.78 C1251.035,171.42 1249.565,167.71 1243.545,167.71 C1240.99,167.71 1238.33,168.62 1236.44,170.37 L1238.61,172.925 C1239.695,171.84 1241.41,171 1243.195,171 C1245.295,171 1247.045,172.015 1247.045,174.08 L1247.045,174.5 C1241.795,174.5 1235.495,175.2 1235.495,180.205 C1235.495,184.125 1239.1,185.42 1241.795,185.42 Z M1242.635,182.235 C1241.2,182.235 1239.695,181.745 1239.695,180.135 C1239.695,177.65 1243.44,177.335 1246.1,177.335 L1247.045,177.335 L1247.045,177.93 C1247.045,180.59 1245.505,182.235 1242.635,182.235 Z M1257.055,193.4 C1260.765,193.4 1262.235,191.65 1263.425,188.605 L1271.37,168.2 L1266.995,168.2 L1262.83,180.415 L1262.76,180.415 L1258.07,168.2 L1253.415,168.2 L1260.625,185 L1259.785,187.135 C1259.085,188.885 1258.595,189.76 1256.81,189.76 C1256.355,189.76 1255.795,189.69 1255.235,189.515 L1254.885,193.155 C1255.62,193.33 1256.355,193.4 1257.055,193.4 Z M1282.045,185.49 C1287.12,185.49 1291.18,181.815 1291.18,176.53 C1291.18,171.245 1287.12,167.71 1282.045,167.71 C1276.97,167.71 1272.91,171.245 1272.91,176.53 C1272.91,181.815 1276.97,185.49 1282.045,185.49 Z M1282.045,181.99 C1278.72,181.99 1277.18,179.155 1277.18,176.53 C1277.18,173.905 1278.72,171.14 1282.045,171.14 C1285.37,171.14 1286.91,173.905 1286.91,176.53 C1286.91,179.155 1285.37,181.99 1282.045,181.99 Z M1301.295,185.49 C1303.78,185.49 1305.775,183.985 1306.51,182.305 L1306.58,182.305 L1306.58,185 L1310.57,185 L1310.57,168.2 L1306.37,168.2 L1306.37,177.44 C1306.37,179.68 1305.11,181.99 1302.45,181.99 C1299.755,181.99 1299.3,179.505 1299.3,177.51 L1299.3,168.2 L1295.1,168.2 L1295.1,178.7 C1295.1,182.13 1296.92,185.49 1301.295,185.49 Z M1321.595,185.35 C1322.54,185.35 1323.66,185.175 1324.395,184.895 L1324.255,181.605 C1323.765,181.85 1323.03,181.955 1322.47,181.955 C1320.615,181.955 1320.265,180.87 1320.265,179.365 L1320.265,171.56 L1324.465,171.56 L1324.465,168.2 L1320.265,168.2 L1320.265,163.335 L1316.135,163.335 L1316.135,168.2 L1313.195,168.2 L1313.195,171.56 L1316.135,171.56 L1316.135,179.4 C1316.135,182.62 1317.15,185.35 1321.595,185.35 Z" id="payout" fill="#FF00BE" fill-rule="nonzero"></path>
        <path d="M612.85,443.252 C614.488,443.252 615.712,442.676 616.558,441.524 L615.118,440.372 C614.632,441.056 613.912,441.488 612.832,441.488 C611.572,441.488 610.456,440.588 610.366,439.364 L616.936,439.364 C616.954,439.166 616.954,438.986 616.954,438.788 C616.954,435.674 615.19,434.108 612.778,434.108 C610.168,434.108 608.206,435.944 608.206,438.734 C608.206,441.542 610.186,443.252 612.85,443.252 Z M614.794,437.816 L610.366,437.816 C610.456,436.61 611.482,435.728 612.76,435.728 C614.164,435.728 614.794,436.7 614.794,437.816 Z M622.768,443.252 C623.974,443.252 625.144,442.694 625.738,441.704 L625.774,441.704 L625.774,443 L627.826,443 L627.826,429.392 L625.666,429.392 L625.666,435.458 L625.612,435.458 C625.162,434.9 624.298,434.108 622.714,434.108 C620.248,434.108 618.52,436.088 618.52,438.644 C618.52,441.164 620.14,443.252 622.768,443.252 Z M623.2,441.452 C621.526,441.452 620.716,439.994 620.716,438.644 C620.716,437.294 621.526,435.872 623.2,435.872 C624.784,435.872 625.738,437.33 625.738,438.68 C625.738,440.03 624.784,441.452 623.2,441.452 Z M631.552,432.722 C632.344,432.722 632.956,432.164 632.956,431.426 C632.956,430.688 632.344,430.13 631.552,430.13 C630.76,430.13 630.184,430.742 630.184,431.426 C630.184,432.11 630.76,432.722 631.552,432.722 Z M632.65,443 L632.65,434.36 L630.49,434.36 L630.49,443 L632.65,443 Z M638.356,443.18 C638.842,443.18 639.418,443.09 639.796,442.946 L639.724,441.254 C639.472,441.38 639.094,441.434 638.806,441.434 C637.852,441.434 637.672,440.876 637.672,440.102 L637.672,436.088 L639.832,436.088 L639.832,434.36 L637.672,434.36 L637.672,431.858 L635.548,431.858 L635.548,434.36 L634.036,434.36 L634.036,436.088 L635.548,436.088 L635.548,440.12 C635.548,441.776 636.07,443.18 638.356,443.18 Z M648.058,443 L648.058,438.248 C648.058,437.096 648.706,435.908 650.074,435.908 C651.46,435.908 651.694,437.186 651.694,438.212 L651.694,443 L653.854,443 L653.854,437.6 C653.854,435.836 652.918,434.108 650.668,434.108 C649.39,434.108 648.364,434.882 647.986,435.746 L647.95,435.746 L647.95,434.36 L645.898,434.36 L645.898,443 L648.058,443 Z M659.002,443.216 C660.226,443.216 661.252,442.658 661.684,441.902 L661.738,441.902 L661.738,443 L663.754,443 L663.754,437.744 C663.754,436.016 662.998,434.108 659.902,434.108 C658.588,434.108 657.22,434.576 656.248,435.476 L657.364,436.79 C657.922,436.232 658.804,435.8 659.722,435.8 C660.802,435.8 661.702,436.322 661.702,437.384 L661.702,437.6 C659.002,437.6 655.762,437.96 655.762,440.534 C655.762,442.55 657.616,443.216 659.002,443.216 Z M659.434,441.578 C658.696,441.578 657.922,441.326 657.922,440.498 C657.922,439.22 659.848,439.058 661.216,439.058 L661.702,439.058 L661.702,439.364 C661.702,440.732 660.91,441.578 659.434,441.578 Z M668.434,443 L668.434,438.248 C668.434,437.096 669.028,435.908 670.324,435.908 C671.422,435.908 671.926,436.718 671.926,437.78 L671.926,443 L674.086,443 L674.086,438.284 C674.086,437.168 674.644,435.908 675.994,435.908 C677.38,435.908 677.614,437.186 677.614,438.212 L677.614,443 L679.774,443 L679.774,437.6 C679.774,435.836 678.838,434.108 676.588,434.108 C675.292,434.108 674.32,434.702 673.744,435.746 C673.258,434.774 672.376,434.108 671.044,434.108 C669.658,434.108 668.74,434.9 668.362,435.746 L668.326,435.746 L668.326,434.36 L666.274,434.36 L666.274,443 L668.434,443 Z M686.434,443.252 C688.072,443.252 689.296,442.676 690.142,441.524 L688.702,440.372 C688.216,441.056 687.496,441.488 686.416,441.488 C685.156,441.488 684.04,440.588 683.95,439.364 L690.52,439.364 C690.538,439.166 690.538,438.986 690.538,438.788 C690.538,435.674 688.774,434.108 686.362,434.108 C683.752,434.108 681.79,435.944 681.79,438.734 C681.79,441.542 683.77,443.252 686.434,443.252 Z M688.378,437.816 L683.95,437.816 C684.04,436.61 685.066,435.728 686.344,435.728 C687.748,435.728 688.378,436.7 688.378,437.816 Z M698.224,432.722 C699.016,432.722 699.628,432.164 699.628,431.426 C699.628,430.688 699.016,430.13 698.224,430.13 C697.432,430.13 696.856,430.742 696.856,431.426 C696.856,432.11 697.432,432.722 698.224,432.722 Z M699.322,443 L699.322,434.36 L697.162,434.36 L697.162,443 L699.322,443 Z M704.11,443 L704.11,438.248 C704.11,437.096 704.758,435.908 706.126,435.908 C707.512,435.908 707.746,437.186 707.746,438.212 L707.746,443 L709.906,443 L709.906,437.6 C709.906,435.836 708.97,434.108 706.72,434.108 C705.442,434.108 704.416,434.882 704.038,435.746 L704.002,435.746 L704.002,434.36 L701.95,434.36 L701.95,443 L704.11,443 Z M714.622,443 L714.622,429.392 L712.462,429.392 L712.462,443 L714.622,443 Z M718.348,432.722 C719.14,432.722 719.752,432.164 719.752,431.426 C719.752,430.688 719.14,430.13 718.348,430.13 C717.556,430.13 716.98,430.742 716.98,431.426 C716.98,432.11 717.556,432.722 718.348,432.722 Z M719.446,443 L719.446,434.36 L717.286,434.36 L717.286,443 L719.446,443 Z M724.234,443 L724.234,438.248 C724.234,437.096 724.882,435.908 726.25,435.908 C727.636,435.908 727.87,437.186 727.87,438.212 L727.87,443 L730.03,443 L730.03,437.6 C730.03,435.836 729.094,434.108 726.844,434.108 C725.566,434.108 724.54,434.882 724.162,435.746 L724.126,435.746 L724.126,434.36 L722.074,434.36 L722.074,443 L724.234,443 Z M736.69,443.252 C738.328,443.252 739.552,442.676 740.398,441.524 L738.958,440.372 C738.472,441.056 737.752,441.488 736.672,441.488 C735.412,441.488 734.296,440.588 734.206,439.364 L740.776,439.364 C740.794,439.166 740.794,438.986 740.794,438.788 C740.794,435.674 739.03,434.108 736.618,434.108 C734.008,434.108 732.046,435.944 732.046,438.734 C732.046,441.542 734.026,443.252 736.69,443.252 Z M738.634,437.816 L734.206,437.816 C734.296,436.61 735.322,435.728 736.6,435.728 C738.004,435.728 738.634,436.7 738.634,437.816 Z" id="editnameinline" fill="#FF00BE" fill-rule="nonzero"></path>
        <path d="M1088.713,454.252 C1091.323,454.252 1093.411,452.362 1093.411,449.644 C1093.411,446.926 1091.323,445.108 1088.713,445.108 C1086.103,445.108 1084.015,446.926 1084.015,449.644 C1084.015,452.362 1086.103,454.252 1088.713,454.252 Z M1088.713,452.452 C1087.003,452.452 1086.211,450.994 1086.211,449.644 C1086.211,448.294 1087.003,446.872 1088.713,446.872 C1090.423,446.872 1091.215,448.294 1091.215,449.644 C1091.215,450.994 1090.423,452.452 1088.713,452.452 Z M1097.659,454 L1097.659,449.374 C1097.659,448.744 1098.037,447.052 1099.981,447.052 C1100.179,447.052 1100.359,447.07 1100.647,447.142 L1100.647,445.162 C1100.503,445.126 1100.287,445.108 1100.125,445.108 C1098.991,445.108 1098.073,445.81 1097.605,446.8 L1097.569,446.8 L1097.569,445.36 L1095.499,445.36 L1095.499,454 L1097.659,454 Z M1109.665,454.252 C1110.943,454.252 1111.969,453.478 1112.347,452.614 L1112.383,452.614 L1112.383,454 L1114.435,454 L1114.435,445.36 L1112.275,445.36 L1112.275,450.112 C1112.275,451.264 1111.627,452.452 1110.259,452.452 C1108.873,452.452 1108.639,451.174 1108.639,450.148 L1108.639,445.36 L1106.479,445.36 L1106.479,450.76 C1106.479,452.524 1107.415,454.252 1109.665,454.252 Z M1119.547,454.252 C1121.437,454.252 1123.147,453.478 1123.147,451.372 C1123.147,449.68 1121.635,449.104 1120.357,448.798 C1119.151,448.51 1118.485,448.33 1118.485,447.664 C1118.485,446.98 1119.187,446.728 1119.871,446.728 C1120.663,446.728 1121.383,447.16 1121.761,447.664 L1123.165,446.422 C1122.463,445.54 1121.167,445.108 1119.925,445.108 C1118.215,445.108 1116.487,445.936 1116.487,447.862 C1116.487,449.482 1117.765,450.004 1119.043,450.31 C1120.357,450.616 1121.023,450.832 1121.023,451.552 C1121.023,452.326 1120.267,452.578 1119.637,452.578 C1118.701,452.578 1117.891,452.11 1117.423,451.498 L1116.001,452.83 C1116.829,453.748 1118.215,454.252 1119.547,454.252 Z M1129.159,454.252 C1130.797,454.252 1132.021,453.676 1132.867,452.524 L1131.427,451.372 C1130.941,452.056 1130.221,452.488 1129.141,452.488 C1127.881,452.488 1126.765,451.588 1126.675,450.364 L1133.245,450.364 C1133.263,450.166 1133.263,449.986 1133.263,449.788 C1133.263,446.674 1131.499,445.108 1129.087,445.108 C1126.477,445.108 1124.515,446.944 1124.515,449.734 C1124.515,452.542 1126.495,454.252 1129.159,454.252 Z M1131.103,448.816 L1126.675,448.816 C1126.765,447.61 1127.791,446.728 1129.069,446.728 C1130.473,446.728 1131.103,447.7 1131.103,448.816 Z M1143.991,454.252 C1145.629,454.252 1146.853,453.676 1147.699,452.524 L1146.259,451.372 C1145.773,452.056 1145.053,452.488 1143.973,452.488 C1142.713,452.488 1141.597,451.588 1141.507,450.364 L1148.077,450.364 C1148.095,450.166 1148.095,449.986 1148.095,449.788 C1148.095,446.674 1146.331,445.108 1143.919,445.108 C1141.309,445.108 1139.347,446.944 1139.347,449.734 C1139.347,452.542 1141.327,454.252 1143.991,454.252 Z M1145.935,448.816 L1141.507,448.816 C1141.597,447.61 1142.623,446.728 1143.901,446.728 C1145.305,446.728 1145.935,447.7 1145.935,448.816 Z M1151.425,454 L1153.693,450.85 L1155.943,454 L1158.571,454 L1155.043,449.41 L1158.139,445.36 L1155.655,445.36 L1153.729,448.042 L1151.857,445.36 L1149.265,445.36 L1152.379,449.41 L1148.869,454 L1151.425,454 Z M1160.947,443.722 C1161.739,443.722 1162.351,443.164 1162.351,442.426 C1162.351,441.688 1161.739,441.13 1160.947,441.13 C1160.155,441.13 1159.579,441.742 1159.579,442.426 C1159.579,443.11 1160.155,443.722 1160.947,443.722 Z M1162.045,454 L1162.045,445.36 L1159.885,445.36 L1159.885,454 L1162.045,454 Z M1167.193,454.252 C1169.083,454.252 1170.793,453.478 1170.793,451.372 C1170.793,449.68 1169.281,449.104 1168.003,448.798 C1166.797,448.51 1166.131,448.33 1166.131,447.664 C1166.131,446.98 1166.833,446.728 1167.517,446.728 C1168.309,446.728 1169.029,447.16 1169.407,447.664 L1170.811,446.422 C1170.109,445.54 1168.813,445.108 1167.571,445.108 C1165.861,445.108 1164.133,445.936 1164.133,447.862 C1164.133,449.482 1165.411,450.004 1166.689,450.31 C1168.003,450.616 1168.669,450.832 1168.669,451.552 C1168.669,452.326 1167.913,452.578 1167.283,452.578 C1166.347,452.578 1165.537,452.11 1165.069,451.498 L1163.647,452.83 C1164.475,453.748 1165.861,454.252 1167.193,454.252 Z M1175.743,454.18 C1176.229,454.18 1176.805,454.09 1177.183,453.946 L1177.111,452.254 C1176.859,452.38 1176.481,452.434 1176.193,452.434 C1175.239,452.434 1175.059,451.876 1175.059,451.102 L1175.059,447.088 L1177.219,447.088 L1177.219,445.36 L1175.059,445.36 L1175.059,442.858 L1172.935,442.858 L1172.935,445.36 L1171.423,445.36 L1171.423,447.088 L1172.935,447.088 L1172.935,451.12 C1172.935,452.776 1173.457,454.18 1175.743,454.18 Z M1179.883,443.722 C1180.675,443.722 1181.287,443.164 1181.287,442.426 C1181.287,441.688 1180.675,441.13 1179.883,441.13 C1179.091,441.13 1178.515,441.742 1178.515,442.426 C1178.515,443.11 1179.091,443.722 1179.883,443.722 Z M1180.981,454 L1180.981,445.36 L1178.821,445.36 L1178.821,454 L1180.981,454 Z M1185.769,454 L1185.769,449.248 C1185.769,448.096 1186.417,446.908 1187.785,446.908 C1189.171,446.908 1189.405,448.186 1189.405,449.212 L1189.405,454 L1191.565,454 L1191.565,448.6 C1191.565,446.836 1190.629,445.108 1188.379,445.108 C1187.101,445.108 1186.075,445.882 1185.697,446.746 L1185.661,446.746 L1185.661,445.36 L1183.609,445.36 L1183.609,454 L1185.769,454 Z M1197.991,458.32 C1201.357,458.32 1202.869,456.34 1202.869,453.226 L1202.869,445.36 L1200.817,445.36 L1200.817,446.656 L1200.781,446.656 C1200.151,445.612 1199.017,445.108 1197.811,445.108 C1195.201,445.108 1193.581,447.142 1193.581,449.644 C1193.581,452.092 1195.255,454.144 1197.847,454.144 C1199.035,454.144 1200.043,453.694 1200.673,452.848 L1200.709,452.848 L1200.709,453.478 C1200.709,455.188 1200.061,456.448 1197.973,456.448 C1196.893,456.448 1195.777,456.016 1194.949,455.224 L1193.707,456.898 C1194.823,457.816 1196.587,458.32 1197.991,458.32 Z M1198.243,452.362 C1196.695,452.362 1195.777,450.994 1195.777,449.626 C1195.777,448.096 1196.695,446.872 1198.261,446.872 C1199.827,446.872 1200.817,448.132 1200.817,449.626 C1200.817,451.066 1199.845,452.362 1198.243,452.362 Z M1213.039,454.18 C1213.525,454.18 1214.101,454.09 1214.479,453.946 L1214.407,452.254 C1214.155,452.38 1213.777,452.434 1213.489,452.434 C1212.535,452.434 1212.355,451.876 1212.355,451.102 L1212.355,447.088 L1214.515,447.088 L1214.515,445.36 L1212.355,445.36 L1212.355,442.858 L1210.231,442.858 L1210.231,445.36 L1208.719,445.36 L1208.719,447.088 L1210.231,447.088 L1210.231,451.12 C1210.231,452.776 1210.753,454.18 1213.039,454.18 Z M1220.275,454.252 C1222.885,454.252 1224.973,452.362 1224.973,449.644 C1224.973,446.926 1222.885,445.108 1220.275,445.108 C1217.665,445.108 1215.577,446.926 1215.577,449.644 C1215.577,452.362 1217.665,454.252 1220.275,454.252 Z M1220.275,452.452 C1218.565,452.452 1217.773,450.994 1217.773,449.644 C1217.773,448.294 1218.565,446.872 1220.275,446.872 C1221.985,446.872 1222.777,448.294 1222.777,449.644 C1222.777,450.994 1221.985,452.452 1220.275,452.452 Z M1229.689,454.216 C1230.913,454.216 1231.939,453.658 1232.371,452.902 L1232.425,452.902 L1232.425,454 L1234.441,454 L1234.441,448.744 C1234.441,447.016 1233.685,445.108 1230.589,445.108 C1229.275,445.108 1227.907,445.576 1226.935,446.476 L1228.051,447.79 C1228.609,447.232 1229.491,446.8 1230.409,446.8 C1231.489,446.8 1232.389,447.322 1232.389,448.384 L1232.389,448.6 C1229.689,448.6 1226.449,448.96 1226.449,451.534 C1226.449,453.55 1228.303,454.216 1229.689,454.216 Z M1230.121,452.578 C1229.383,452.578 1228.609,452.326 1228.609,451.498 C1228.609,450.22 1230.535,450.058 1231.903,450.058 L1232.389,450.058 L1232.389,450.364 C1232.389,451.732 1231.597,452.578 1230.121,452.578 Z M1239.481,454.252 C1241.371,454.252 1243.081,453.478 1243.081,451.372 C1243.081,449.68 1241.569,449.104 1240.291,448.798 C1239.085,448.51 1238.419,448.33 1238.419,447.664 C1238.419,446.98 1239.121,446.728 1239.805,446.728 C1240.597,446.728 1241.317,447.16 1241.695,447.664 L1243.099,446.422 C1242.397,445.54 1241.101,445.108 1239.859,445.108 C1238.149,445.108 1236.421,445.936 1236.421,447.862 C1236.421,449.482 1237.699,450.004 1238.977,450.31 C1240.291,450.616 1240.957,450.832 1240.957,451.552 C1240.957,452.326 1240.201,452.578 1239.571,452.578 C1238.635,452.578 1237.825,452.11 1237.357,451.498 L1235.935,452.83 C1236.763,453.748 1238.149,454.252 1239.481,454.252 Z M1248.031,454.18 C1248.517,454.18 1249.093,454.09 1249.471,453.946 L1249.399,452.254 C1249.147,452.38 1248.769,452.434 1248.481,452.434 C1247.527,452.434 1247.347,451.876 1247.347,451.102 L1247.347,447.088 L1249.507,447.088 L1249.507,445.36 L1247.347,445.36 L1247.347,442.858 L1245.223,442.858 L1245.223,445.36 L1243.711,445.36 L1243.711,447.088 L1245.223,447.088 L1245.223,451.12 C1245.223,452.776 1245.745,454.18 1248.031,454.18 Z" id="oruseexistingtoast" fill="#FF00BE" fill-rule="nonzero"></path>
    </g>
</svg>