<?xml version="1.0" encoding="UTF-8"?>
<svg width="1540px" height="642px" viewBox="0 0 1540 642" version="1.1" xmlns="http://www.w3.org/2000/svg" xmlns:xlink="http://www.w3.org/1999/xlink">
    <title>imgManager_finalStates</title>
    <g id="imgManager_finalStates" stroke="none" stroke-width="1" fill="none" fill-rule="evenodd">
        <rect fill="#FFFFFF" x="0" y="0" width="1540" height="642"></rect>
        <rect id="Rectangle" stroke="#979797" fill="#ECEEF0" x="596" y="255.5" width="159" height="159"></rect>
        <rect id="Rectangle" fill="#99BAFB" x="628" y="354.5" width="92" height="25"></rect>
        <g id="Group-5" transform="translate(745.000000, 276.000000) scale(-1, 1) translate(-745.000000, -276.000000) translate(742.000000, 263.500000)" fill="#000000">
            <circle id="Oval" cx="3" cy="3" r="3"></circle>
            <circle id="Oval" cx="3" cy="12" r="3"></circle>
            <circle id="Oval" cx="3" cy="22" r="3"></circle>
        </g>
        <path d="M634.904,372.692 C635.992,372.692 636.904,372.196 637.288,371.524 L637.336,371.524 L637.336,372.5 L639.128,372.5 L639.128,367.828 C639.128,366.292 638.456,364.596 635.704,364.596 C634.536,364.596 633.32,365.012 632.456,365.812 L633.448,366.98 C633.944,366.484 634.728,366.1 635.544,366.1 C636.504,366.1 637.304,366.564 637.304,367.508 L637.304,367.7 C634.904,367.7 632.024,368.02 632.024,370.308 C632.024,372.1 633.672,372.692 634.904,372.692 Z M635.288,371.236 C634.632,371.236 633.944,371.012 633.944,370.276 C633.944,369.14 635.656,368.996 636.872,368.996 L637.304,368.996 L637.304,369.268 C637.304,370.484 636.6,371.236 635.288,371.236 Z M643.608,372.724 C645.288,372.724 646.808,372.036 646.808,370.164 C646.808,368.66 645.464,368.148 644.328,367.876 C643.256,367.62 642.664,367.46 642.664,366.868 C642.664,366.26 643.288,366.036 643.896,366.036 C644.6,366.036 645.24,366.42 645.576,366.868 L646.824,365.764 C646.2,364.98 645.048,364.596 643.944,364.596 C642.424,364.596 640.888,365.332 640.888,367.044 C640.888,368.484 642.024,368.948 643.16,369.22 C644.328,369.492 644.92,369.684 644.92,370.324 C644.92,371.012 644.248,371.236 643.688,371.236 C642.856,371.236 642.136,370.82 641.72,370.276 L640.456,371.46 C641.192,372.276 642.424,372.724 643.608,372.724 Z M650.712,372.724 C652.392,372.724 653.912,372.036 653.912,370.164 C653.912,368.66 652.568,368.148 651.432,367.876 C650.36,367.62 649.768,367.46 649.768,366.868 C649.768,366.26 650.392,366.036 651,366.036 C651.704,366.036 652.344,366.42 652.68,366.868 L653.928,365.764 C653.304,364.98 652.152,364.596 651.048,364.596 C649.528,364.596 647.992,365.332 647.992,367.044 C647.992,368.484 649.128,368.948 650.264,369.22 C651.432,369.492 652.024,369.684 652.024,370.324 C652.024,371.012 651.352,371.236 650.792,371.236 C649.96,371.236 649.24,370.82 648.824,370.276 L647.56,371.46 C648.296,372.276 649.528,372.724 650.712,372.724 Z M659.256,372.724 C660.712,372.724 661.8,372.212 662.552,371.188 L661.272,370.164 C660.84,370.772 660.2,371.156 659.24,371.156 C658.12,371.156 657.128,370.356 657.048,369.268 L662.888,369.268 C662.904,369.092 662.904,368.932 662.904,368.756 C662.904,365.988 661.336,364.596 659.192,364.596 C656.872,364.596 655.128,366.228 655.128,368.708 C655.128,371.204 656.888,372.724 659.256,372.724 Z M660.984,367.892 L657.048,367.892 C657.128,366.82 658.04,366.036 659.176,366.036 C660.424,366.036 660.984,366.9 660.984,367.892 Z M667.496,372.66 C667.928,372.66 668.44,372.58 668.776,372.452 L668.712,370.948 C668.488,371.06 668.152,371.108 667.896,371.108 C667.048,371.108 666.888,370.612 666.888,369.924 L666.888,366.356 L668.808,366.356 L668.808,364.82 L666.888,364.82 L666.888,362.596 L665,362.596 L665,364.82 L663.656,364.82 L663.656,366.356 L665,366.356 L665,369.94 C665,371.412 665.464,372.66 667.496,372.66 Z M676.12,372.5 L676.12,368.276 C676.12,367.252 676.696,366.196 677.912,366.196 C679.144,366.196 679.352,367.332 679.352,368.244 L679.352,372.5 L681.272,372.5 L681.272,367.7 C681.272,366.132 680.44,364.596 678.44,364.596 C677.304,364.596 676.392,365.284 676.056,366.052 L676.024,366.052 L676.024,364.82 L674.2,364.82 L674.2,372.5 L676.12,372.5 Z M685.848,372.692 C686.936,372.692 687.848,372.196 688.232,371.524 L688.28,371.524 L688.28,372.5 L690.072,372.5 L690.072,367.828 C690.072,366.292 689.4,364.596 686.648,364.596 C685.48,364.596 684.264,365.012 683.4,365.812 L684.392,366.98 C684.888,366.484 685.672,366.1 686.488,366.1 C687.448,366.1 688.248,366.564 688.248,367.508 L688.248,367.7 C685.848,367.7 682.968,368.02 682.968,370.308 C682.968,372.1 684.616,372.692 685.848,372.692 Z M686.232,371.236 C685.576,371.236 684.888,371.012 684.888,370.276 C684.888,369.14 686.6,368.996 687.816,368.996 L688.248,368.996 L688.248,369.268 C688.248,370.484 687.544,371.236 686.232,371.236 Z M694.232,372.5 L694.232,368.276 C694.232,367.252 694.76,366.196 695.912,366.196 C696.888,366.196 697.336,366.916 697.336,367.86 L697.336,372.5 L699.256,372.5 L699.256,368.308 C699.256,367.316 699.752,366.196 700.952,366.196 C702.184,366.196 702.392,367.332 702.392,368.244 L702.392,372.5 L704.312,372.5 L704.312,367.7 C704.312,366.132 703.48,364.596 701.48,364.596 C700.328,364.596 699.464,365.124 698.952,366.052 C698.52,365.188 697.736,364.596 696.552,364.596 C695.32,364.596 694.504,365.3 694.168,366.052 L694.136,366.052 L694.136,364.82 L692.312,364.82 L692.312,372.5 L694.232,372.5 Z M710.232,372.724 C711.688,372.724 712.776,372.212 713.528,371.188 L712.248,370.164 C711.816,370.772 711.176,371.156 710.216,371.156 C709.096,371.156 708.104,370.356 708.024,369.268 L713.864,369.268 C713.88,369.092 713.88,368.932 713.88,368.756 C713.88,365.988 712.312,364.596 710.168,364.596 C707.848,364.596 706.104,366.228 706.104,368.708 C706.104,371.204 707.864,372.724 710.232,372.724 Z M711.96,367.892 L708.024,367.892 C708.104,366.82 709.016,366.036 710.152,366.036 C711.4,366.036 711.96,366.9 711.96,367.892 Z" id="assetname" fill="#000000" fill-rule="nonzero"></path>
        <line x1="595.5" y1="385" x2="754.5" y2="385" id="Line" stroke="#979797" stroke-linecap="square"></line>
        <line x1="674.5" y1="385" x2="674.5" y2="415" id="Line" stroke="#979797" stroke-linecap="square"></line>
        <line x1="629.5" y1="393" x2="645.5" y2="408" id="Line-2" stroke="#979797" stroke-linecap="square"></line>
        <line x1="645.5" y1="393" x2="629.5" y2="408" id="Line-3" stroke="#979797" stroke-linecap="square"></line>
        <line x1="703.5" y1="399" x2="710.5" y2="406" id="Line-5" stroke="#979797" stroke-linecap="square"></line>
        <line x1="725.5" y1="391" x2="710.5" y2="406" id="Line-5" stroke="#979797" stroke-linecap="square"></line>
        <rect id="Rectangle" stroke="#979797" fill="#ECEEF0" x="297.5" y="256.5" width="159" height="159"></rect>
        <path d="M322.845,404.77 C324.705,404.77 326.07,403.975 326.895,402.85 L325.71,402.04 C325.08,402.955 324.045,403.45 322.86,403.45 C320.415,403.45 318.87,401.56 318.87,399.175 C318.87,396.85 320.445,394.915 322.905,394.915 C324,394.915 325.035,395.44 325.545,396.16 L326.715,395.26 C325.935,394.18 324.36,393.61 322.905,393.61 C319.68,393.61 317.25,395.86 317.25,399.175 C317.25,402.445 319.59,404.77 322.845,404.77 Z M332.586429,404.695 C334.761429,404.695 336.426429,403.12 336.426429,400.93 C336.426429,398.74 334.761429,397.195 332.586429,397.195 C330.411429,397.195 328.761429,398.74 328.761429,400.93 C328.761429,403.12 330.411429,404.695 332.586429,404.695 Z M332.586429,403.51 C331.071429,403.51 330.216429,402.28 330.216429,400.93 C330.216429,399.58 331.071429,398.365 332.586429,398.365 C334.116429,398.365 334.956429,399.58 334.956429,400.93 C334.956429,402.28 334.116429,403.51 332.586429,403.51 Z M340.857857,408.1 L340.857857,403.435 L340.902857,403.435 C341.427857,404.23 342.402857,404.695 343.407857,404.695 C345.597857,404.695 346.992857,403.015 346.992857,400.93 C346.992857,398.83 345.552857,397.195 343.437857,397.195 C342.267857,397.195 341.337857,397.75 340.872857,398.5 L340.827857,398.5 L340.827857,397.39 L339.447857,397.39 L339.447857,408.1 L340.857857,408.1 Z M343.167857,403.51 C341.727857,403.51 340.767857,402.31 340.767857,400.945 C340.767857,399.58 341.727857,398.365 343.167857,398.365 C344.712857,398.365 345.537857,399.595 345.537857,400.93 C345.537857,402.265 344.712857,403.51 343.167857,403.51 Z M350.314286,408.1 C351.709286,408.1 352.309286,407.365 352.774286,406.18 L356.224286,397.39 L354.724286,397.39 L352.759286,402.97 L352.729286,402.97 L350.524286,397.39 L348.949286,397.39 L351.994286,404.5 L351.544286,405.685 C351.244286,406.45 350.959286,406.87 350.224286,406.87 C349.999286,406.87 349.744286,406.825 349.519286,406.75 L349.384286,407.995 C349.699286,408.07 350.014286,408.1 350.314286,408.1 Z" id="Copy" fill="#000000" fill-rule="nonzero"></path>
        <path d="M398.275,404.5 L398.275,393.88 L396.79,393.88 L396.79,404.5 L398.275,404.5 Z M403.261429,404.5 L403.261429,400.72 C403.261429,399.31 404.056429,398.38 405.166429,398.38 C406.471429,398.38 406.786429,399.4 406.786429,400.555 L406.786429,404.5 L408.196429,404.5 L408.196429,400.09 C408.196429,398.5 407.371429,397.195 405.541429,397.195 C404.521429,397.195 403.576429,397.795 403.231429,398.56 L403.186429,398.56 C403.186429,398.26 403.156429,397.75 403.126429,397.39 L401.791429,397.39 C401.836429,397.855 401.851429,398.545 401.851429,398.92 L401.851429,404.5 L403.261429,404.5 Z M413.692857,404.695 C415.132857,404.695 416.527857,404.08 416.527857,402.4 C416.527857,401.155 415.492857,400.6 414.142857,400.3 C413.062857,400.06 412.522857,399.835 412.522857,399.235 C412.522857,398.56 413.197857,398.305 413.842857,398.305 C414.562857,398.305 415.177857,398.68 415.492857,399.19 L416.467857,398.365 C415.957857,397.6 414.892857,397.195 413.887857,397.195 C412.537857,397.195 411.202857,397.84 411.202857,399.37 C411.202857,400.705 412.327857,401.11 413.272857,401.335 C414.487857,401.62 415.132857,401.86 415.132857,402.52 C415.132857,403.3 414.427857,403.555 413.722857,403.555 C412.927857,403.555 412.207857,403.12 411.832857,402.565 L410.827857,403.42 C411.502857,404.275 412.612857,404.695 413.692857,404.695 Z M422.669286,404.695 C423.929286,404.695 424.964286,404.23 425.729286,403.24 L424.739286,402.445 C424.334286,403.045 423.629286,403.525 422.669286,403.525 C421.424286,403.525 420.404286,402.58 420.359286,401.365 L425.999286,401.365 C426.014286,401.2 426.014286,401.035 426.014286,400.885 C426.014286,398.62 424.694286,397.195 422.594286,397.195 C420.509286,397.195 418.919286,398.74 418.919286,400.96 C418.919286,403.195 420.509286,404.695 422.669286,404.695 Z M424.589286,400.315 L420.359286,400.315 C420.449286,399.205 421.379286,398.305 422.594286,398.305 C423.899286,398.305 424.559286,399.19 424.589286,400.315 Z M430.460714,404.5 L430.460714,400.765 C430.460714,399.58 431.105714,398.485 432.455714,398.485 C432.680714,398.485 432.920714,398.515 433.100714,398.56 L433.160714,397.255 C432.995714,397.21 432.800714,397.195 432.605714,397.195 C431.645714,397.195 430.820714,397.765 430.430714,398.59 L430.385714,398.59 C430.385714,398.29 430.355714,397.75 430.325714,397.39 L428.990714,397.39 C429.035714,397.855 429.050714,398.545 429.050714,398.92 L429.050714,404.5 L430.460714,404.5 Z M437.637143,404.62 C438.072143,404.62 438.507143,404.545 438.837143,404.425 L438.792143,403.27 C438.552143,403.39 438.222143,403.45 437.967143,403.45 C437.262143,403.45 436.962143,403.105 436.962143,402.25 L436.962143,398.545 L438.852143,398.545 L438.852143,397.39 L436.962143,397.39 L436.962143,395.35 L435.567143,395.35 L435.567143,397.39 L434.202143,397.39 L434.202143,398.545 L435.567143,398.545 L435.567143,402.4 C435.567143,403.87 436.302143,404.62 437.637143,404.62 Z" id="Insert" fill="#000000" fill-rule="nonzero"></path>
        <line x1="297.5" y1="382.5" x2="456.5" y2="382.5" id="Line" stroke="#979797" stroke-linecap="square"></line>
        <line x1="377" y1="415" x2="377" y2="382" id="Line" stroke="#979797" stroke-linecap="square"></line>
        <rect id="Rectangle" stroke="#979797" fill="#FFFFFF" x="357.5" y="264.5" width="89" height="72"></rect>
        <path d="M380.435,289.5 C383.15,289.5 386.165,287.82 386.165,284.19 C386.165,280.425 383.15,278.88 380.435,278.88 L376.79,278.88 L376.79,289.5 L380.435,289.5 Z M380.135,288.195 L378.275,288.195 L378.275,280.17 L380.135,280.17 C382.7,280.17 384.575,281.565 384.575,284.19 C384.575,286.725 382.7,288.195 380.135,288.195 Z M392.486429,289.695 C393.746429,289.695 394.781429,289.23 395.546429,288.24 L394.556429,287.445 C394.151429,288.045 393.446429,288.525 392.486429,288.525 C391.241429,288.525 390.221429,287.58 390.176429,286.365 L395.816429,286.365 C395.831429,286.2 395.831429,286.035 395.831429,285.885 C395.831429,283.62 394.511429,282.195 392.411429,282.195 C390.326429,282.195 388.736429,283.74 388.736429,285.96 C388.736429,288.195 390.326429,289.695 392.486429,289.695 Z M394.406429,285.315 L390.176429,285.315 C390.266429,284.205 391.196429,283.305 392.411429,283.305 C393.716429,283.305 394.376429,284.19 394.406429,285.315 Z M400.307857,289.5 L400.307857,278.16 L398.897857,278.16 L398.897857,289.5 L400.307857,289.5 Z M407.124286,289.695 C408.384286,289.695 409.419286,289.23 410.184286,288.24 L409.194286,287.445 C408.789286,288.045 408.084286,288.525 407.124286,288.525 C405.879286,288.525 404.859286,287.58 404.814286,286.365 L410.454286,286.365 C410.469286,286.2 410.469286,286.035 410.469286,285.885 C410.469286,283.62 409.149286,282.195 407.049286,282.195 C404.964286,282.195 403.374286,283.74 403.374286,285.96 C403.374286,288.195 404.964286,289.695 407.124286,289.695 Z M409.044286,285.315 L404.814286,285.315 C404.904286,284.205 405.834286,283.305 407.049286,283.305 C408.354286,283.305 409.014286,284.19 409.044286,285.315 Z M415.770714,289.62 C416.205714,289.62 416.640714,289.545 416.970714,289.425 L416.925714,288.27 C416.685714,288.39 416.355714,288.45 416.100714,288.45 C415.395714,288.45 415.095714,288.105 415.095714,287.25 L415.095714,283.545 L416.985714,283.545 L416.985714,282.39 L415.095714,282.39 L415.095714,280.35 L413.700714,280.35 L413.700714,282.39 L412.335714,282.39 L412.335714,283.545 L413.700714,283.545 L413.700714,287.4 C413.700714,288.87 414.435714,289.62 415.770714,289.62 Z M422.797143,289.695 C424.057143,289.695 425.092143,289.23 425.857143,288.24 L424.867143,287.445 C424.462143,288.045 423.757143,288.525 422.797143,288.525 C421.552143,288.525 420.532143,287.58 420.487143,286.365 L426.127143,286.365 C426.142143,286.2 426.142143,286.035 426.142143,285.885 C426.142143,283.62 424.822143,282.195 422.722143,282.195 C420.637143,282.195 419.047143,283.74 419.047143,285.96 C419.047143,288.195 420.637143,289.695 422.797143,289.695 Z M424.717143,285.315 L420.487143,285.315 C420.577143,284.205 421.507143,283.305 422.722143,283.305 C424.027143,283.305 424.687143,284.19 424.717143,285.315 Z" id="Delete" fill="#000000" fill-rule="nonzero"></path>
        <path d="M373.275,324.5 L373.275,319.775 L374.865,319.775 L377.565,324.5 L379.365,324.5 L376.395,319.625 C377.91,319.37 378.975,318.38 378.975,316.82 C378.975,314.66 377.25,313.88 375.195,313.88 L371.79,313.88 L371.79,324.5 L373.275,324.5 Z M374.985,318.53 L373.275,318.53 L373.275,315.14 L375.09,315.14 C376.38,315.14 377.475,315.545 377.475,316.82 C377.475,318.095 376.38,318.53 374.985,318.53 Z M385.101429,324.695 C386.361429,324.695 387.396429,324.23 388.161429,323.24 L387.171429,322.445 C386.766429,323.045 386.061429,323.525 385.101429,323.525 C383.856429,323.525 382.836429,322.58 382.791429,321.365 L388.431429,321.365 C388.446429,321.2 388.446429,321.035 388.446429,320.885 C388.446429,318.62 387.126429,317.195 385.026429,317.195 C382.941429,317.195 381.351429,318.74 381.351429,320.96 C381.351429,323.195 382.941429,324.695 385.101429,324.695 Z M387.021429,320.315 L382.791429,320.315 C382.881429,319.205 383.811429,318.305 385.026429,318.305 C386.331429,318.305 386.991429,319.19 387.021429,320.315 Z M392.892857,324.5 L392.892857,320.72 C392.892857,319.31 393.687857,318.38 394.797857,318.38 C396.102857,318.38 396.417857,319.4 396.417857,320.555 L396.417857,324.5 L397.827857,324.5 L397.827857,320.09 C397.827857,318.5 397.002857,317.195 395.172857,317.195 C394.152857,317.195 393.207857,317.795 392.862857,318.56 L392.817857,318.56 C392.817857,318.26 392.787857,317.75 392.757857,317.39 L391.422857,317.39 C391.467857,317.855 391.482857,318.545 391.482857,318.92 L391.482857,324.5 L392.892857,324.5 Z M403.339286,324.68 C404.404286,324.68 405.214286,324.245 405.724286,323.48 L405.769286,323.48 C405.769286,323.81 405.814286,324.185 405.889286,324.5 L407.164286,324.5 C407.089286,324.155 407.059286,323.57 407.059286,323.09 L407.059286,319.985 C407.059286,318.41 406.129286,317.195 404.089286,317.195 C402.934286,317.195 401.869286,317.6 401.179286,318.26 L401.929286,319.16 C402.409286,318.68 403.159286,318.335 403.954286,318.335 C405.004286,318.335 405.709286,318.845 405.709286,319.895 L405.709286,320.09 C403.309286,320.09 400.759286,320.345 400.759286,322.49 C400.759286,324.125 402.214286,324.68 403.339286,324.68 Z M403.654286,323.57 C402.949286,323.57 402.199286,323.3 402.199286,322.46 C402.199286,321.26 403.969286,321.11 405.364286,321.11 L405.709286,321.11 L405.709286,321.485 C405.709286,322.685 404.974286,323.57 403.654286,323.57 Z M411.895714,324.5 L411.895714,320.72 C411.895714,319.31 412.675714,318.38 413.710714,318.38 C414.835714,318.38 415.210714,319.16 415.210714,320.27 L415.210714,324.5 L416.620714,324.5 L416.620714,320.66 C416.620714,319.55 417.130714,318.38 418.420714,318.38 C419.650714,318.38 419.995714,319.4 419.995714,320.555 L419.995714,324.5 L421.405714,324.5 L421.405714,320.09 C421.405714,318.5 420.580714,317.195 418.750714,317.195 C417.745714,317.195 416.815714,317.705 416.335714,318.62 C415.900714,317.615 415.075714,317.195 414.130714,317.195 C413.050714,317.195 412.225714,317.81 411.865714,318.56 L411.820714,318.56 C411.820714,318.26 411.790714,317.75 411.760714,317.39 L410.425714,317.39 C410.470714,317.855 410.485714,318.545 410.485714,318.92 L410.485714,324.5 L411.895714,324.5 Z M428.147143,324.695 C429.407143,324.695 430.442143,324.23 431.207143,323.24 L430.217143,322.445 C429.812143,323.045 429.107143,323.525 428.147143,323.525 C426.902143,323.525 425.882143,322.58 425.837143,321.365 L431.477143,321.365 C431.492143,321.2 431.492143,321.035 431.492143,320.885 C431.492143,318.62 430.172143,317.195 428.072143,317.195 C425.987143,317.195 424.397143,318.74 424.397143,320.96 C424.397143,323.195 425.987143,324.695 428.147143,324.695 Z M430.067143,320.315 L425.837143,320.315 C425.927143,319.205 426.857143,318.305 428.072143,318.305 C429.377143,318.305 430.037143,319.19 430.067143,320.315 Z" id="Rename" fill="#000000" fill-rule="nonzero"></path>
        <line x1="357" y1="302" x2="446" y2="302" id="Line-2" stroke="#979797" stroke-linecap="square"></line>
        <rect id="Rectangle" stroke="#979797" fill="#ECEEF0" x="90.5" y="256.5" width="159" height="159"></rect>
        <path d="M115.845,404.77 C117.705,404.77 119.07,403.975 119.895,402.85 L118.71,402.04 C118.08,402.955 117.045,403.45 115.86,403.45 C113.415,403.45 111.87,401.56 111.87,399.175 C111.87,396.85 113.445,394.915 115.905,394.915 C117,394.915 118.035,395.44 118.545,396.16 L119.715,395.26 C118.935,394.18 117.36,393.61 115.905,393.61 C112.68,393.61 110.25,395.86 110.25,399.175 C110.25,402.445 112.59,404.77 115.845,404.77 Z M125.586429,404.695 C127.761429,404.695 129.426429,403.12 129.426429,400.93 C129.426429,398.74 127.761429,397.195 125.586429,397.195 C123.411429,397.195 121.761429,398.74 121.761429,400.93 C121.761429,403.12 123.411429,404.695 125.586429,404.695 Z M125.586429,403.51 C124.071429,403.51 123.216429,402.28 123.216429,400.93 C123.216429,399.58 124.071429,398.365 125.586429,398.365 C127.116429,398.365 127.956429,399.58 127.956429,400.93 C127.956429,402.28 127.116429,403.51 125.586429,403.51 Z M133.857857,408.1 L133.857857,403.435 L133.902857,403.435 C134.427857,404.23 135.402857,404.695 136.407857,404.695 C138.597857,404.695 139.992857,403.015 139.992857,400.93 C139.992857,398.83 138.552857,397.195 136.437857,397.195 C135.267857,397.195 134.337857,397.75 133.872857,398.5 L133.827857,398.5 L133.827857,397.39 L132.447857,397.39 L132.447857,408.1 L133.857857,408.1 Z M136.167857,403.51 C134.727857,403.51 133.767857,402.31 133.767857,400.945 C133.767857,399.58 134.727857,398.365 136.167857,398.365 C137.712857,398.365 138.537857,399.595 138.537857,400.93 C138.537857,402.265 137.712857,403.51 136.167857,403.51 Z M143.314286,408.1 C144.709286,408.1 145.309286,407.365 145.774286,406.18 L149.224286,397.39 L147.724286,397.39 L145.759286,402.97 L145.729286,402.97 L143.524286,397.39 L141.949286,397.39 L144.994286,404.5 L144.544286,405.685 C144.244286,406.45 143.959286,406.87 143.224286,406.87 C142.999286,406.87 142.744286,406.825 142.519286,406.75 L142.384286,407.995 C142.699286,408.07 143.014286,408.1 143.314286,408.1 Z" id="Copy" fill="#000000" fill-rule="nonzero"></path>
        <path d="M191.275,404.5 L191.275,393.88 L189.79,393.88 L189.79,404.5 L191.275,404.5 Z M196.261429,404.5 L196.261429,400.72 C196.261429,399.31 197.056429,398.38 198.166429,398.38 C199.471429,398.38 199.786429,399.4 199.786429,400.555 L199.786429,404.5 L201.196429,404.5 L201.196429,400.09 C201.196429,398.5 200.371429,397.195 198.541429,397.195 C197.521429,397.195 196.576429,397.795 196.231429,398.56 L196.186429,398.56 C196.186429,398.26 196.156429,397.75 196.126429,397.39 L194.791429,397.39 C194.836429,397.855 194.851429,398.545 194.851429,398.92 L194.851429,404.5 L196.261429,404.5 Z M206.692857,404.695 C208.132857,404.695 209.527857,404.08 209.527857,402.4 C209.527857,401.155 208.492857,400.6 207.142857,400.3 C206.062857,400.06 205.522857,399.835 205.522857,399.235 C205.522857,398.56 206.197857,398.305 206.842857,398.305 C207.562857,398.305 208.177857,398.68 208.492857,399.19 L209.467857,398.365 C208.957857,397.6 207.892857,397.195 206.887857,397.195 C205.537857,397.195 204.202857,397.84 204.202857,399.37 C204.202857,400.705 205.327857,401.11 206.272857,401.335 C207.487857,401.62 208.132857,401.86 208.132857,402.52 C208.132857,403.3 207.427857,403.555 206.722857,403.555 C205.927857,403.555 205.207857,403.12 204.832857,402.565 L203.827857,403.42 C204.502857,404.275 205.612857,404.695 206.692857,404.695 Z M215.669286,404.695 C216.929286,404.695 217.964286,404.23 218.729286,403.24 L217.739286,402.445 C217.334286,403.045 216.629286,403.525 215.669286,403.525 C214.424286,403.525 213.404286,402.58 213.359286,401.365 L218.999286,401.365 C219.014286,401.2 219.014286,401.035 219.014286,400.885 C219.014286,398.62 217.694286,397.195 215.594286,397.195 C213.509286,397.195 211.919286,398.74 211.919286,400.96 C211.919286,403.195 213.509286,404.695 215.669286,404.695 Z M217.589286,400.315 L213.359286,400.315 C213.449286,399.205 214.379286,398.305 215.594286,398.305 C216.899286,398.305 217.559286,399.19 217.589286,400.315 Z M223.460714,404.5 L223.460714,400.765 C223.460714,399.58 224.105714,398.485 225.455714,398.485 C225.680714,398.485 225.920714,398.515 226.100714,398.56 L226.160714,397.255 C225.995714,397.21 225.800714,397.195 225.605714,397.195 C224.645714,397.195 223.820714,397.765 223.430714,398.59 L223.385714,398.59 C223.385714,398.29 223.355714,397.75 223.325714,397.39 L221.990714,397.39 C222.035714,397.855 222.050714,398.545 222.050714,398.92 L222.050714,404.5 L223.460714,404.5 Z M230.637143,404.62 C231.072143,404.62 231.507143,404.545 231.837143,404.425 L231.792143,403.27 C231.552143,403.39 231.222143,403.45 230.967143,403.45 C230.262143,403.45 229.962143,403.105 229.962143,402.25 L229.962143,398.545 L231.852143,398.545 L231.852143,397.39 L229.962143,397.39 L229.962143,395.35 L228.567143,395.35 L228.567143,397.39 L227.202143,397.39 L227.202143,398.545 L228.567143,398.545 L228.567143,402.4 C228.567143,403.87 229.302143,404.62 230.637143,404.62 Z" id="Insert" fill="#000000" fill-rule="nonzero"></path>
        <line x1="90.5" y1="382.5" x2="249.5" y2="382.5" id="Line" stroke="#979797" stroke-linecap="square"></line>
        <line x1="170" y1="415" x2="170" y2="382" id="Line" stroke="#979797" stroke-linecap="square"></line>
        <circle id="Oval" fill="#000000" transform="translate(236.000000, 266.500000) scale(-1, 1) translate(-236.000000, -266.500000) " cx="236" cy="266.5" r="3"></circle>
        <circle id="Oval" fill="#000000" transform="translate(236.000000, 275.500000) scale(-1, 1) translate(-236.000000, -275.500000) " cx="236" cy="275.5" r="3"></circle>
        <circle id="Oval" fill="#000000" transform="translate(236.000000, 285.500000) scale(-1, 1) translate(-236.000000, -285.500000) " cx="236" cy="285.5" r="3"></circle>
        <rect id="Rectangle" stroke="#979797" fill="#ECEEF0" x="802.5" y="255.5" width="159" height="159"></rect>
        <polygon id="Path" fill="#979797" fill-rule="nonzero" points="962 384.5 962 385.5 802 385.5 802 384.5"></polygon>
        <polygon id="Path" fill="#979797" fill-rule="nonzero" points="882 384.5 882 415.5 881 415.5 881 384.5"></polygon>
        <polygon id="Path" fill="#979797" fill-rule="nonzero" points="835.793261 393.022798 836.477202 392.293261 853.206739 407.977202 852.522798 408.706739"></polygon>
        <polygon id="Path" fill="#979797" fill-rule="nonzero" points="852.522798 392.293261 853.206739 393.022798 836.477202 408.706739 835.793261 407.977202"></polygon>
        <polygon id="Path" fill="#979797" fill-rule="nonzero" points="909.792893 399 910.5 398.292893 918.207107 406 917.5 406.707107"></polygon>
        <polygon id="Path" fill="#979797" fill-rule="nonzero" points="932.5 390.292893 933.207107 391 917.5 406.707107 916.792893 406"></polygon>
        <circle id="Oval" fill="#000000" transform="translate(950.000000, 265.500000) scale(-1, 1) translate(-950.000000, -265.500000) " cx="950" cy="265.5" r="3"></circle>
        <circle id="Oval" fill="#000000" transform="translate(950.000000, 274.500000) scale(-1, 1) translate(-950.000000, -274.500000) " cx="950" cy="274.5" r="3"></circle>
        <circle id="Oval" fill="#000000" transform="translate(950.000000, 284.500000) scale(-1, 1) translate(-950.000000, -284.500000) " cx="950" cy="284.5" r="3"></circle>
        <g id="Group-7" transform="translate(1083.000000, 256.500000)" fill="#ECEEF0" stroke="#979797">
            <rect id="Rectangle" x="0.5" y="0" width="159" height="159"></rect>
        </g>
        <g id="Group-5" transform="translate(1228.000000, 276.000000) scale(-1, 1) translate(-1228.000000, -276.000000) translate(1225.000000, 263.500000)" fill="#000000">
            <circle id="Oval" cx="3" cy="3" r="3"></circle>
            <circle id="Oval" cx="3" cy="12" r="3"></circle>
            <circle id="Oval" cx="3" cy="22" r="3"></circle>
        </g>
        <path d="M1162.5,291.5 C1137.92333,291.5 1118,311.423329 1118,336 C1118,360.576671 1137.92333,380.5 1162.5,380.5 C1187.07667,380.5 1207,360.576671 1207,336 C1207,311.423329 1187.07667,291.5 1162.5,291.5 Z M1162.5,293.5 C1185.9721,293.5 1205,312.527898 1205,336 C1205,359.472102 1185.9721,378.5 1162.5,378.5 C1139.0279,378.5 1120,359.472102 1120,336 C1120,312.527898 1139.0279,293.5 1162.5,293.5 Z" id="Oval" fill="#979797" fill-rule="nonzero"></path>
        <g id="Group-8" transform="translate(1136.000000, 313.500000)" stroke="#979797" stroke-linecap="square" stroke-width="4">
            <line x1="0.5" y1="31.5" x2="22.5" y2="45.5" id="Line-11"></line>
            <line x1="53.5" y1="0.5" x2="22.5" y2="45.5" id="Line-11"></line>
        </g>
        <g id="Group-7" transform="translate(1290.000000, 256.500000)" fill="#ECEEF0" stroke="#979797">
            <rect id="Rectangle" x="0.5" y="0" width="159" height="159"></rect>
        </g>
        <g id="Group-5" transform="translate(1438.000000, 276.000000) scale(-1, 1) translate(-1438.000000, -276.000000) translate(1435.000000, 263.500000)" fill="#000000">
            <circle id="Oval" cx="3" cy="3" r="3"></circle>
            <circle id="Oval" cx="3" cy="12" r="3"></circle>
            <circle id="Oval" cx="3" cy="22" r="3"></circle>
        </g>
        <path d="M1381,288.5 L1361,288.5 L1361,297.5 L1381,297.5 L1381,288.5 Z M1379,290.5 L1379,295.5 L1363,295.5 L1363,290.5 L1379,290.5 Z" id="Rectangle" fill="#979797" fill-rule="nonzero"></path>
        <path d="M1401.22686,313.5 L1337.79071,313.5 L1351.17307,383.5 L1386.81509,383.5 L1401.22686,313.5 Z M1398.773,315.5 L1385.184,381.5 L1352.827,381.5 L1340.209,315.5 L1398.773,315.5 Z" id="Rectangle" fill="#979797" fill-rule="nonzero"></path>
        <path d="M1401,301.5 L1338,301.5 L1338,309.5 L1401,309.5 L1401,301.5 Z M1399,303.5 L1399,307.5 L1340,307.5 L1340,303.5 L1399,303.5 Z" id="Rectangle" fill="#979797" fill-rule="nonzero"></path>
        <polygon id="Line-12" fill="#979797" fill-rule="nonzero" points="1360.60223 348.715041 1361.78496 347.102231 1370.89777 353.784959 1369.71504 355.397769"></polygon>
        <polygon id="Line-12" fill="#979797" fill-rule="nonzero" points="1381.7675 335.105028 1383.39497 336.267505 1369.7325 355.394972 1368.10503 354.232495"></polygon>
        <path d="M1019.5,85.5 C1021.36856,85.5 1022.89513,86.9642776 1022.99482,88.8079648 L1023,89 L1023,554 C1023,555.932997 1021.433,557.5 1019.5,557.5 C1017.63144,557.5 1016.10487,556.035722 1016.00518,554.192035 L1016,554 L1016,89 C1016,87.0670034 1017.567,85.5 1019.5,85.5 Z" id="Line-13" fill="#FF00AF" fill-rule="nonzero"></path>
        <path d="M530,85 C531.868563,85 533.395126,86.4642776 533.494821,88.3079648 L533.5,88.5 L533.5,553.5 C533.5,555.432997 531.932997,557 530,557 C528.131437,557 526.604874,555.535722 526.505179,553.692035 L526.5,553.5 L526.5,88.5 C526.5,86.5670034 528.067003,85 530,85 Z" id="Line-13" fill="#FF00AF" fill-rule="nonzero"></path>
        <path d="M246.755,185.49 C250.43,185.49 253.755,183.985 253.755,179.89 C253.755,176.6 250.815,175.48 248.33,174.885 C245.985,174.325 244.69,173.975 244.69,172.68 C244.69,171.35 246.055,170.86 247.385,170.86 C248.925,170.86 250.325,171.7 251.06,172.68 L253.79,170.265 C252.425,168.55 249.905,167.71 247.49,167.71 C244.165,167.71 240.805,169.32 240.805,173.065 C240.805,176.215 243.29,177.23 245.775,177.825 C248.33,178.42 249.625,178.84 249.625,180.24 C249.625,181.745 248.155,182.235 246.93,182.235 C245.11,182.235 243.535,181.325 242.625,180.135 L239.86,182.725 C241.47,184.51 244.165,185.49 246.755,185.49 Z M263.38,185.35 C264.325,185.35 265.445,185.175 266.18,184.895 L266.04,181.605 C265.55,181.85 264.815,181.955 264.255,181.955 C262.4,181.955 262.05,180.87 262.05,179.365 L262.05,171.56 L266.25,171.56 L266.25,168.2 L262.05,168.2 L262.05,163.335 L257.92,163.335 L257.92,168.2 L254.98,168.2 L254.98,171.56 L257.92,171.56 L257.92,179.4 C257.92,182.62 258.935,185.35 263.38,185.35 Z M274.405,185.42 C276.785,185.42 278.78,184.335 279.62,182.865 L279.725,182.865 L279.725,185 L283.645,185 L283.645,174.78 C283.645,171.42 282.175,167.71 276.155,167.71 C273.6,167.71 270.94,168.62 269.05,170.37 L271.22,172.925 C272.305,171.84 274.02,171 275.805,171 C277.905,171 279.655,172.015 279.655,174.08 L279.655,174.5 C274.405,174.5 268.105,175.2 268.105,180.205 C268.105,184.125 271.71,185.42 274.405,185.42 Z M275.245,182.235 C273.81,182.235 272.305,181.745 272.305,180.135 C272.305,177.65 276.05,177.335 278.71,177.335 L279.655,177.335 L279.655,177.93 C279.655,180.59 278.115,182.235 275.245,182.235 Z M292.745,185 L292.745,176.005 C292.745,174.78 293.48,171.49 297.26,171.49 C297.645,171.49 297.995,171.525 298.555,171.665 L298.555,167.815 C298.275,167.745 297.855,167.71 297.54,167.71 C295.335,167.71 293.55,169.075 292.64,171 L292.57,171 L292.57,168.2 L288.545,168.2 L288.545,185 L292.745,185 Z M307.27,185.35 C308.215,185.35 309.335,185.175 310.07,184.895 L309.93,181.605 C309.44,181.85 308.705,181.955 308.145,181.955 C306.29,181.955 305.94,180.87 305.94,179.365 L305.94,171.56 L310.14,171.56 L310.14,168.2 L305.94,168.2 L305.94,163.335 L301.81,163.335 L301.81,168.2 L298.87,168.2 L298.87,171.56 L301.81,171.56 L301.81,179.4 C301.81,182.62 302.825,185.35 307.27,185.35 Z" id="start" fill="#FF00BE" fill-rule="nonzero"></path>
        <path d="M633.8075,185.49 C636.2925,185.49 638.6025,184.65 640.0025,183.145 L637.3775,180.485 C636.5725,181.465 635.1375,181.99 633.8425,181.99 C630.6575,181.99 629.0825,179.225 629.0825,176.6 C629.0825,173.975 630.6225,171.21 633.7025,171.21 C635.0675,171.21 636.5025,171.91 637.1675,172.855 L640.0375,170.335 C638.7075,168.69 636.1525,167.71 633.7025,167.71 C628.7675,167.71 624.7075,171.14 624.7075,176.6 C624.7075,182.2 628.8375,185.49 633.8075,185.49 Z M650.9225,185.49 C655.9975,185.49 660.0575,181.815 660.0575,176.53 C660.0575,171.245 655.9975,167.71 650.9225,167.71 C645.8475,167.71 641.7875,171.245 641.7875,176.53 C641.7875,181.815 645.8475,185.49 650.9225,185.49 Z M650.9225,181.99 C647.5975,181.99 646.0575,179.155 646.0575,176.53 C646.0575,173.905 647.5975,171.14 650.9225,171.14 C654.2475,171.14 655.7875,173.905 655.7875,176.53 C655.7875,179.155 654.2475,181.99 650.9225,181.99 Z M668.3175,185 L668.3175,175.76 C668.3175,173.52 669.5775,171.21 672.2375,171.21 C674.9325,171.21 675.3875,173.695 675.3875,175.69 L675.3875,185 L679.5875,185 L679.5875,174.5 C679.5875,171.07 677.7675,167.71 673.3925,167.71 C670.9075,167.71 668.9125,169.215 668.1775,170.895 L668.1075,170.895 L668.1075,168.2 L664.1175,168.2 L664.1175,185 L668.3175,185 Z M689.3525,185 L689.3525,171.56 L693.2375,171.56 L693.2375,168.2 L689.3525,168.2 L689.3525,165.47 C689.3525,163.79 689.7725,161.69 692.1875,161.69 C692.7825,161.69 693.3425,161.795 693.7975,161.935 L694.0775,158.365 C693.4475,158.19 692.8525,158.12 691.9425,158.12 C686.7275,158.12 685.1525,161.69 685.1525,165.715 L685.1525,168.2 L681.9675,168.2 L681.9675,171.56 L685.1525,171.56 L685.1525,185 L689.3525,185 Z M698.3825,165.015 C699.9225,165.015 701.1125,163.93 701.1125,162.495 C701.1125,161.06 699.9225,159.975 698.3825,159.975 C696.8425,159.975 695.7225,161.165 695.7225,162.495 C695.7225,163.825 696.8425,165.015 698.3825,165.015 Z M700.5175,185 L700.5175,168.2 L696.3175,168.2 L696.3175,185 L700.5175,185 Z M709.4425,185 L709.4425,176.005 C709.4425,174.78 710.1775,171.49 713.9575,171.49 C714.3425,171.49 714.6925,171.525 715.2525,171.665 L715.2525,167.815 C714.9725,167.745 714.5525,167.71 714.2375,167.71 C712.0325,167.71 710.2475,169.075 709.3375,171 L709.2675,171 L709.2675,168.2 L705.2425,168.2 L705.2425,185 L709.4425,185 Z M722.1825,185 L722.1825,175.76 C722.1825,173.52 723.3375,171.21 725.8575,171.21 C727.9925,171.21 728.9725,172.785 728.9725,174.85 L728.9725,185 L733.1725,185 L733.1725,175.83 C733.1725,173.66 734.2575,171.21 736.8825,171.21 C739.5775,171.21 740.0325,173.695 740.0325,175.69 L740.0325,185 L744.2325,185 L744.2325,174.5 C744.2325,171.07 742.4125,167.71 738.0375,167.71 C735.5175,167.71 733.6275,168.865 732.5075,170.895 C731.5625,169.005 729.8475,167.71 727.2575,167.71 C724.5625,167.71 722.7775,169.25 722.0425,170.895 L721.9725,170.895 L721.9725,168.2 L717.9825,168.2 L717.9825,185 L722.1825,185 Z M754.2425,185.42 C756.6225,185.42 758.6175,184.335 759.4575,182.865 L759.5625,182.865 L759.5625,185 L763.4825,185 L763.4825,174.78 C763.4825,171.42 762.0125,167.71 755.9925,167.71 C753.4375,167.71 750.7775,168.62 748.8875,170.37 L751.0575,172.925 C752.1425,171.84 753.8575,171 755.6425,171 C757.7425,171 759.4925,172.015 759.4925,174.08 L759.4925,174.5 C754.2425,174.5 747.9425,175.2 747.9425,180.205 C747.9425,184.125 751.5475,185.42 754.2425,185.42 Z M755.0825,182.235 C753.6475,182.235 752.1425,181.745 752.1425,180.135 C752.1425,177.65 755.8875,177.335 758.5475,177.335 L759.4925,177.335 L759.4925,177.93 C759.4925,180.59 757.9525,182.235 755.0825,182.235 Z M774.3675,185.35 C775.3125,185.35 776.4325,185.175 777.1675,184.895 L777.0275,181.605 C776.5375,181.85 775.8025,181.955 775.2425,181.955 C773.3875,181.955 773.0375,180.87 773.0375,179.365 L773.0375,171.56 L777.2375,171.56 L777.2375,168.2 L773.0375,168.2 L773.0375,163.335 L768.9075,163.335 L768.9075,168.2 L765.9675,168.2 L765.9675,171.56 L768.9075,171.56 L768.9075,179.4 C768.9075,182.62 769.9225,185.35 774.3675,185.35 Z M782.4175,165.015 C783.9575,165.015 785.1475,163.93 785.1475,162.495 C785.1475,161.06 783.9575,159.975 782.4175,159.975 C780.8775,159.975 779.7575,161.165 779.7575,162.495 C779.7575,163.825 780.8775,165.015 782.4175,165.015 Z M784.5525,185 L784.5525,168.2 L780.3525,168.2 L780.3525,185 L784.5525,185 Z M797.8175,185.49 C802.8925,185.49 806.9525,181.815 806.9525,176.53 C806.9525,171.245 802.8925,167.71 797.8175,167.71 C792.7425,167.71 788.6825,171.245 788.6825,176.53 C788.6825,181.815 792.7425,185.49 797.8175,185.49 Z M797.8175,181.99 C794.4925,181.99 792.9525,179.155 792.9525,176.53 C792.9525,173.905 794.4925,171.14 797.8175,171.14 C801.1425,171.14 802.6825,173.905 802.6825,176.53 C802.6825,179.155 801.1425,181.99 797.8175,181.99 Z M815.2125,185 L815.2125,175.76 C815.2125,173.52 816.4725,171.21 819.1325,171.21 C821.8275,171.21 822.2825,173.695 822.2825,175.69 L822.2825,185 L826.4825,185 L826.4825,174.5 C826.4825,171.07 824.6625,167.71 820.2875,167.71 C817.8025,167.71 815.8075,169.215 815.0725,170.895 L815.0025,170.895 L815.0025,168.2 L811.0125,168.2 L811.0125,185 L815.2125,185 Z M845.0325,185.49 C848.7075,185.49 852.0325,183.985 852.0325,179.89 C852.0325,176.6 849.0925,175.48 846.6075,174.885 C844.2625,174.325 842.9675,173.975 842.9675,172.68 C842.9675,171.35 844.3325,170.86 845.6625,170.86 C847.2025,170.86 848.6025,171.7 849.3375,172.68 L852.0675,170.265 C850.7025,168.55 848.1825,167.71 845.7675,167.71 C842.4425,167.71 839.0825,169.32 839.0825,173.065 C839.0825,176.215 841.5675,177.23 844.0525,177.825 C846.6075,178.42 847.9025,178.84 847.9025,180.24 C847.9025,181.745 846.4325,182.235 845.2075,182.235 C843.3875,182.235 841.8125,181.325 840.9025,180.135 L838.1375,182.725 C839.7475,184.51 842.4425,185.49 845.0325,185.49 Z M861.6575,185.35 C862.6025,185.35 863.7225,185.175 864.4575,184.895 L864.3175,181.605 C863.8275,181.85 863.0925,181.955 862.5325,181.955 C860.6775,181.955 860.3275,180.87 860.3275,179.365 L860.3275,171.56 L864.5275,171.56 L864.5275,168.2 L860.3275,168.2 L860.3275,163.335 L856.1975,163.335 L856.1975,168.2 L853.2575,168.2 L853.2575,171.56 L856.1975,171.56 L856.1975,179.4 C856.1975,182.62 857.2125,185.35 861.6575,185.35 Z M872.6825,185.42 C875.0625,185.42 877.0575,184.335 877.8975,182.865 L878.0025,182.865 L878.0025,185 L881.9225,185 L881.9225,174.78 C881.9225,171.42 880.4525,167.71 874.4325,167.71 C871.8775,167.71 869.2175,168.62 867.3275,170.37 L869.4975,172.925 C870.5825,171.84 872.2975,171 874.0825,171 C876.1825,171 877.9325,172.015 877.9325,174.08 L877.9325,174.5 C872.6825,174.5 866.3825,175.2 866.3825,180.205 C866.3825,184.125 869.9875,185.42 872.6825,185.42 Z M873.5225,182.235 C872.0875,182.235 870.5825,181.745 870.5825,180.135 C870.5825,177.65 874.3275,177.335 876.9875,177.335 L877.9325,177.335 L877.9325,177.93 C877.9325,180.59 876.3925,182.235 873.5225,182.235 Z M892.8075,185.35 C893.7525,185.35 894.8725,185.175 895.6075,184.895 L895.4675,181.605 C894.9775,181.85 894.2425,181.955 893.6825,181.955 C891.8275,181.955 891.4775,180.87 891.4775,179.365 L891.4775,171.56 L895.6775,171.56 L895.6775,168.2 L891.4775,168.2 L891.4775,163.335 L887.3475,163.335 L887.3475,168.2 L884.4075,168.2 L884.4075,171.56 L887.3475,171.56 L887.3475,179.4 C887.3475,182.62 888.3625,185.35 892.8075,185.35 Z M906.7725,185.49 C909.9575,185.49 912.3375,184.37 913.9825,182.13 L911.1825,179.89 C910.2375,181.22 908.8375,182.06 906.7375,182.06 C904.2875,182.06 902.1175,180.31 901.9425,177.93 L914.7175,177.93 C914.7525,177.545 914.7525,177.195 914.7525,176.81 C914.7525,170.755 911.3225,167.71 906.6325,167.71 C901.5575,167.71 897.7425,171.28 897.7425,176.705 C897.7425,182.165 901.5925,185.49 906.7725,185.49 Z M910.5525,174.92 L901.9425,174.92 C902.1175,172.575 904.1125,170.86 906.5975,170.86 C909.3275,170.86 910.5525,172.75 910.5525,174.92 Z M923.7125,185.49 C927.3875,185.49 930.7125,183.985 930.7125,179.89 C930.7125,176.6 927.7725,175.48 925.2875,174.885 C922.9425,174.325 921.6475,173.975 921.6475,172.68 C921.6475,171.35 923.0125,170.86 924.3425,170.86 C925.8825,170.86 927.2825,171.7 928.0175,172.68 L930.7475,170.265 C929.3825,168.55 926.8625,167.71 924.4475,167.71 C921.1225,167.71 917.7625,169.32 917.7625,173.065 C917.7625,176.215 920.2475,177.23 922.7325,177.825 C925.2875,178.42 926.5825,178.84 926.5825,180.24 C926.5825,181.745 925.1125,182.235 923.8875,182.235 C922.0675,182.235 920.4925,181.325 919.5825,180.135 L916.8175,182.725 C918.4275,184.51 921.1225,185.49 923.7125,185.49 Z" id="confrmationstates" fill="#FF00C5" fill-rule="nonzero"></path>
        <path d="M1218.73,193.4 L1218.73,182.76 L1218.8,182.76 C1219.885,184.44 1222.02,185.49 1224.365,185.49 C1229.475,185.49 1232.625,181.43 1232.625,176.53 C1232.625,171.56 1229.265,167.71 1224.47,167.71 C1221.39,167.71 1219.5,169.215 1218.66,170.545 L1218.555,170.545 L1218.555,168.2 L1214.53,168.2 L1214.53,193.4 L1218.73,193.4 Z M1223.525,181.99 C1220.445,181.99 1218.59,179.225 1218.59,176.6 C1218.59,173.975 1220.445,171.14 1223.525,171.14 C1226.78,171.14 1228.355,173.905 1228.355,176.53 C1228.355,179.155 1226.78,181.99 1223.525,181.99 Z M1241.795,185.42 C1244.175,185.42 1246.17,184.335 1247.01,182.865 L1247.115,182.865 L1247.115,185 L1251.035,185 L1251.035,174.78 C1251.035,171.42 1249.565,167.71 1243.545,167.71 C1240.99,167.71 1238.33,168.62 1236.44,170.37 L1238.61,172.925 C1239.695,171.84 1241.41,171 1243.195,171 C1245.295,171 1247.045,172.015 1247.045,174.08 L1247.045,174.5 C1241.795,174.5 1235.495,175.2 1235.495,180.205 C1235.495,184.125 1239.1,185.42 1241.795,185.42 Z M1242.635,182.235 C1241.2,182.235 1239.695,181.745 1239.695,180.135 C1239.695,177.65 1243.44,177.335 1246.1,177.335 L1247.045,177.335 L1247.045,177.93 C1247.045,180.59 1245.505,182.235 1242.635,182.235 Z M1257.055,193.4 C1260.765,193.4 1262.235,191.65 1263.425,188.605 L1271.37,168.2 L1266.995,168.2 L1262.83,180.415 L1262.76,180.415 L1258.07,168.2 L1253.415,168.2 L1260.625,185 L1259.785,187.135 C1259.085,188.885 1258.595,189.76 1256.81,189.76 C1256.355,189.76 1255.795,189.69 1255.235,189.515 L1254.885,193.155 C1255.62,193.33 1256.355,193.4 1257.055,193.4 Z M1282.045,185.49 C1287.12,185.49 1291.18,181.815 1291.18,176.53 C1291.18,171.245 1287.12,167.71 1282.045,167.71 C1276.97,167.71 1272.91,171.245 1272.91,176.53 C1272.91,181.815 1276.97,185.49 1282.045,185.49 Z M1282.045,181.99 C1278.72,181.99 1277.18,179.155 1277.18,176.53 C1277.18,173.905 1278.72,171.14 1282.045,171.14 C1285.37,171.14 1286.91,173.905 1286.91,176.53 C1286.91,179.155 1285.37,181.99 1282.045,181.99 Z M1301.295,185.49 C1303.78,185.49 1305.775,183.985 1306.51,182.305 L1306.58,182.305 L1306.58,185 L1310.57,185 L1310.57,168.2 L1306.37,168.2 L1306.37,177.44 C1306.37,179.68 1305.11,181.99 1302.45,181.99 C1299.755,181.99 1299.3,179.505 1299.3,177.51 L1299.3,168.2 L1295.1,168.2 L1295.1,178.7 C1295.1,182.13 1296.92,185.49 1301.295,185.49 Z M1321.595,185.35 C1322.54,185.35 1323.66,185.175 1324.395,184.895 L1324.255,181.605 C1323.765,181.85 1323.03,181.955 1322.47,181.955 C1320.615,181.955 1320.265,180.87 1320.265,179.365 L1320.265,171.56 L1324.465,171.56 L1324.465,168.2 L1320.265,168.2 L1320.265,163.335 L1316.135,163.335 L1316.135,168.2 L1313.195,168.2 L1313.195,171.56 L1316.135,171.56 L1316.135,179.4 C1316.135,182.62 1317.15,185.35 1321.595,185.35 Z" id="payout" fill="#FF00BE" fill-rule="nonzero"></path>
        <path d="M1088.713,454.252 C1091.323,454.252 1093.411,452.362 1093.411,449.644 C1093.411,446.926 1091.323,445.108 1088.713,445.108 C1086.103,445.108 1084.015,446.926 1084.015,449.644 C1084.015,452.362 1086.103,454.252 1088.713,454.252 Z M1088.713,452.452 C1087.003,452.452 1086.211,450.994 1086.211,449.644 C1086.211,448.294 1087.003,446.872 1088.713,446.872 C1090.423,446.872 1091.215,448.294 1091.215,449.644 C1091.215,450.994 1090.423,452.452 1088.713,452.452 Z M1097.659,454 L1097.659,449.374 C1097.659,448.744 1098.037,447.052 1099.981,447.052 C1100.179,447.052 1100.359,447.07 1100.647,447.142 L1100.647,445.162 C1100.503,445.126 1100.287,445.108 1100.125,445.108 C1098.991,445.108 1098.073,445.81 1097.605,446.8 L1097.569,446.8 L1097.569,445.36 L1095.499,445.36 L1095.499,454 L1097.659,454 Z M1109.665,454.252 C1110.943,454.252 1111.969,453.478 1112.347,452.614 L1112.383,452.614 L1112.383,454 L1114.435,454 L1114.435,445.36 L1112.275,445.36 L1112.275,450.112 C1112.275,451.264 1111.627,452.452 1110.259,452.452 C1108.873,452.452 1108.639,451.174 1108.639,450.148 L1108.639,445.36 L1106.479,445.36 L1106.479,450.76 C1106.479,452.524 1107.415,454.252 1109.665,454.252 Z M1119.547,454.252 C1121.437,454.252 1123.147,453.478 1123.147,451.372 C1123.147,449.68 1121.635,449.104 1120.357,448.798 C1119.151,448.51 1118.485,448.33 1118.485,447.664 C1118.485,446.98 1119.187,446.728 1119.871,446.728 C1120.663,446.728 1121.383,447.16 1121.761,447.664 L1123.165,446.422 C1122.463,445.54 1121.167,445.108 1119.925,445.108 C1118.215,445.108 1116.487,445.936 1116.487,447.862 C1116.487,449.482 1117.765,450.004 1119.043,450.31 C1120.357,450.616 1121.023,450.832 1121.023,451.552 C1121.023,452.326 1120.267,452.578 1119.637,452.578 C1118.701,452.578 1117.891,452.11 1117.423,451.498 L1116.001,452.83 C1116.829,453.748 1118.215,454.252 1119.547,454.252 Z M1129.159,454.252 C1130.797,454.252 1132.021,453.676 1132.867,452.524 L1131.427,451.372 C1130.941,452.056 1130.221,452.488 1129.141,452.488 C1127.881,452.488 1126.765,451.588 1126.675,450.364 L1133.245,450.364 C1133.263,450.166 1133.263,449.986 1133.263,449.788 C1133.263,446.674 1131.499,445.108 1129.087,445.108 C1126.477,445.108 1124.515,446.944 1124.515,449.734 C1124.515,452.542 1126.495,454.252 1129.159,454.252 Z M1131.103,448.816 L1126.675,448.816 C1126.765,447.61 1127.791,446.728 1129.069,446.728 C1130.473,446.728 1131.103,447.7 1131.103,448.816 Z M1143.991,454.252 C1145.629,454.252 1146.853,453.676 1147.699,452.524 L1146.259,451.372 C1145.773,452.056 1145.053,452.488 1143.973,452.488 C1142.713,452.488 1141.597,451.588 1141.507,450.364 L1148.077,450.364 C1148.095,450.166 1148.095,449.986 1148.095,449.788 C1148.095,446.674 1146.331,445.108 1143.919,445.108 C1141.309,445.108 1139.347,446.944 1139.347,449.734 C1139.347,452.542 1141.327,454.252 1143.991,454.252 Z M1145.935,448.816 L1141.507,448.816 C1141.597,447.61 1142.623,446.728 1143.901,446.728 C1145.305,446.728 1145.935,447.7 1145.935,448.816 Z M1151.425,454 L1153.693,450.85 L1155.943,454 L1158.571,454 L1155.043,449.41 L1158.139,445.36 L1155.655,445.36 L1153.729,448.042 L1151.857,445.36 L1149.265,445.36 L1152.379,449.41 L1148.869,454 L1151.425,454 Z M1160.947,443.722 C1161.739,443.722 1162.351,443.164 1162.351,442.426 C1162.351,441.688 1161.739,441.13 1160.947,441.13 C1160.155,441.13 1159.579,441.742 1159.579,442.426 C1159.579,443.11 1160.155,443.722 1160.947,443.722 Z M1162.045,454 L1162.045,445.36 L1159.885,445.36 L1159.885,454 L1162.045,454 Z M1167.193,454.252 C1169.083,454.252 1170.793,453.478 1170.793,451.372 C1170.793,449.68 1169.281,449.104 1168.003,448.798 C1166.797,448.51 1166.131,448.33 1166.131,447.664 C1166.131,446.98 1166.833,446.728 1167.517,446.728 C1168.309,446.728 1169.029,447.16 1169.407,447.664 L1170.811,446.422 C1170.109,445.54 1168.813,445.108 1167.571,445.108 C1165.861,445.108 1164.133,445.936 1164.133,447.862 C1164.133,449.482 1165.411,450.004 1166.689,450.31 C1168.003,450.616 1168.669,450.832 1168.669,451.552 C1168.669,452.326 1167.913,452.578 1167.283,452.578 C1166.347,452.578 1165.537,452.11 1165.069,451.498 L1163.647,452.83 C1164.475,453.748 1165.861,454.252 1167.193,454.252 Z M1175.743,454.18 C1176.229,454.18 1176.805,454.09 1177.183,453.946 L1177.111,452.254 C1176.859,452.38 1176.481,452.434 1176.193,452.434 C1175.239,452.434 1175.059,451.876 1175.059,451.102 L1175.059,447.088 L1177.219,447.088 L1177.219,445.36 L1175.059,445.36 L1175.059,442.858 L1172.935,442.858 L1172.935,445.36 L1171.423,445.36 L1171.423,447.088 L1172.935,447.088 L1172.935,451.12 C1172.935,452.776 1173.457,454.18 1175.743,454.18 Z M1179.883,443.722 C1180.675,443.722 1181.287,443.164 1181.287,442.426 C1181.287,441.688 1180.675,441.13 1179.883,441.13 C1179.091,441.13 1178.515,441.742 1178.515,442.426 C1178.515,443.11 1179.091,443.722 1179.883,443.722 Z M1180.981,454 L1180.981,445.36 L1178.821,445.36 L1178.821,454 L1180.981,454 Z M1185.769,454 L1185.769,449.248 C1185.769,448.096 1186.417,446.908 1187.785,446.908 C1189.171,446.908 1189.405,448.186 1189.405,449.212 L1189.405,454 L1191.565,454 L1191.565,448.6 C1191.565,446.836 1190.629,445.108 1188.379,445.108 C1187.101,445.108 1186.075,445.882 1185.697,446.746 L1185.661,446.746 L1185.661,445.36 L1183.609,445.36 L1183.609,454 L1185.769,454 Z M1197.991,458.32 C1201.357,458.32 1202.869,456.34 1202.869,453.226 L1202.869,445.36 L1200.817,445.36 L1200.817,446.656 L1200.781,446.656 C1200.151,445.612 1199.017,445.108 1197.811,445.108 C1195.201,445.108 1193.581,447.142 1193.581,449.644 C1193.581,452.092 1195.255,454.144 1197.847,454.144 C1199.035,454.144 1200.043,453.694 1200.673,452.848 L1200.709,452.848 L1200.709,453.478 C1200.709,455.188 1200.061,456.448 1197.973,456.448 C1196.893,456.448 1195.777,456.016 1194.949,455.224 L1193.707,456.898 C1194.823,457.816 1196.587,458.32 1197.991,458.32 Z M1198.243,452.362 C1196.695,452.362 1195.777,450.994 1195.777,449.626 C1195.777,448.096 1196.695,446.872 1198.261,446.872 C1199.827,446.872 1200.817,448.132 1200.817,449.626 C1200.817,451.066 1199.845,452.362 1198.243,452.362 Z M1213.039,454.18 C1213.525,454.18 1214.101,454.09 1214.479,453.946 L1214.407,452.254 C1214.155,452.38 1213.777,452.434 1213.489,452.434 C1212.535,452.434 1212.355,451.876 1212.355,451.102 L1212.355,447.088 L1214.515,447.088 L1214.515,445.36 L1212.355,445.36 L1212.355,442.858 L1210.231,442.858 L1210.231,445.36 L1208.719,445.36 L1208.719,447.088 L1210.231,447.088 L1210.231,451.12 C1210.231,452.776 1210.753,454.18 1213.039,454.18 Z M1220.275,454.252 C1222.885,454.252 1224.973,452.362 1224.973,449.644 C1224.973,446.926 1222.885,445.108 1220.275,445.108 C1217.665,445.108 1215.577,446.926 1215.577,449.644 C1215.577,452.362 1217.665,454.252 1220.275,454.252 Z M1220.275,452.452 C1218.565,452.452 1217.773,450.994 1217.773,449.644 C1217.773,448.294 1218.565,446.872 1220.275,446.872 C1221.985,446.872 1222.777,448.294 1222.777,449.644 C1222.777,450.994 1221.985,452.452 1220.275,452.452 Z M1229.689,454.216 C1230.913,454.216 1231.939,453.658 1232.371,452.902 L1232.425,452.902 L1232.425,454 L1234.441,454 L1234.441,448.744 C1234.441,447.016 1233.685,445.108 1230.589,445.108 C1229.275,445.108 1227.907,445.576 1226.935,446.476 L1228.051,447.79 C1228.609,447.232 1229.491,446.8 1230.409,446.8 C1231.489,446.8 1232.389,447.322 1232.389,448.384 L1232.389,448.6 C1229.689,448.6 1226.449,448.96 1226.449,451.534 C1226.449,453.55 1228.303,454.216 1229.689,454.216 Z M1230.121,452.578 C1229.383,452.578 1228.609,452.326 1228.609,451.498 C1228.609,450.22 1230.535,450.058 1231.903,450.058 L1232.389,450.058 L1232.389,450.364 C1232.389,451.732 1231.597,452.578 1230.121,452.578 Z M1239.481,454.252 C1241.371,454.252 1243.081,453.478 1243.081,451.372 C1243.081,449.68 1241.569,449.104 1240.291,448.798 C1239.085,448.51 1238.419,448.33 1238.419,447.664 C1238.419,446.98 1239.121,446.728 1239.805,446.728 C1240.597,446.728 1241.317,447.16 1241.695,447.664 L1243.099,446.422 C1242.397,445.54 1241.101,445.108 1239.859,445.108 C1238.149,445.108 1236.421,445.936 1236.421,447.862 C1236.421,449.482 1237.699,450.004 1238.977,450.31 C1240.291,450.616 1240.957,450.832 1240.957,451.552 C1240.957,452.326 1240.201,452.578 1239.571,452.578 C1238.635,452.578 1237.825,452.11 1237.357,451.498 L1235.935,452.83 C1236.763,453.748 1238.149,454.252 1239.481,454.252 Z M1248.031,454.18 C1248.517,454.18 1249.093,454.09 1249.471,453.946 L1249.399,452.254 C1249.147,452.38 1248.769,452.434 1248.481,452.434 C1247.527,452.434 1247.347,451.876 1247.347,451.102 L1247.347,447.088 L1249.507,447.088 L1249.507,445.36 L1247.347,445.36 L1247.347,442.858 L1245.223,442.858 L1245.223,445.36 L1243.711,445.36 L1243.711,447.088 L1245.223,447.088 L1245.223,451.12 C1245.223,452.776 1245.745,454.18 1248.031,454.18 Z" id="oruseexistingtoast" fill="#FF00BE" fill-rule="nonzero"></path>
        <path d="M623.17,450 L623.17,447.984 L616.672,447.984 L616.672,444.384 L622.522,444.384 L622.522,442.476 L616.672,442.476 L616.672,439.236 L622.846,439.236 L622.846,437.256 L614.404,437.256 L614.404,450 L623.17,450 Z M628.946615,450.252 C630.152615,450.252 631.322615,449.694 631.916615,448.704 L631.952615,448.704 L631.952615,450 L634.004615,450 L634.004615,436.392 L631.844615,436.392 L631.844615,442.458 L631.790615,442.458 C631.340615,441.9 630.476615,441.108 628.892615,441.108 C626.426615,441.108 624.698615,443.088 624.698615,445.644 C624.698615,448.164 626.318615,450.252 628.946615,450.252 Z M629.378615,448.452 C627.704615,448.452 626.894615,446.994 626.894615,445.644 C626.894615,444.294 627.704615,442.872 629.378615,442.872 C630.962615,442.872 631.916615,444.33 631.916615,445.68 C631.916615,447.03 630.962615,448.452 629.378615,448.452 Z M637.675231,439.722 C638.467231,439.722 639.079231,439.164 639.079231,438.426 C639.079231,437.688 638.467231,437.13 637.675231,437.13 C636.883231,437.13 636.307231,437.742 636.307231,438.426 C636.307231,439.11 636.883231,439.722 637.675231,439.722 Z M638.773231,450 L638.773231,441.36 L636.613231,441.36 L636.613231,450 L638.773231,450 Z M644.423846,450.18 C644.909846,450.18 645.485846,450.09 645.863846,449.946 L645.791846,448.254 C645.539846,448.38 645.161846,448.434 644.873846,448.434 C643.919846,448.434 643.739846,447.876 643.739846,447.102 L643.739846,443.088 L645.899846,443.088 L645.899846,441.36 L643.739846,441.36 L643.739846,438.858 L641.615846,438.858 L641.615846,441.36 L640.103846,441.36 L640.103846,443.088 L641.615846,443.088 L641.615846,447.12 C641.615846,448.776 642.137846,450.18 644.423846,450.18 Z M654.015077,450 L654.015077,445.248 C654.015077,444.096 654.663077,442.908 656.031077,442.908 C657.417077,442.908 657.651077,444.186 657.651077,445.212 L657.651077,450 L659.811077,450 L659.811077,444.6 C659.811077,442.836 658.875077,441.108 656.625077,441.108 C655.347077,441.108 654.321077,441.882 653.943077,442.746 L653.907077,442.746 L653.907077,441.36 L651.855077,441.36 L651.855077,450 L654.015077,450 Z M664.903692,450.216 C666.127692,450.216 667.153692,449.658 667.585692,448.902 L667.639692,448.902 L667.639692,450 L669.655692,450 L669.655692,444.744 C669.655692,443.016 668.899692,441.108 665.803692,441.108 C664.489692,441.108 663.121692,441.576 662.149692,442.476 L663.265692,443.79 C663.823692,443.232 664.705692,442.8 665.623692,442.8 C666.703692,442.8 667.603692,443.322 667.603692,444.384 L667.603692,444.6 C664.903692,444.6 661.663692,444.96 661.663692,447.534 C661.663692,449.55 663.517692,450.216 664.903692,450.216 Z M665.335692,448.578 C664.597692,448.578 663.823692,448.326 663.823692,447.498 C663.823692,446.22 665.749692,446.058 667.117692,446.058 L667.603692,446.058 L667.603692,446.364 C667.603692,447.732 666.811692,448.578 665.335692,448.578 Z M674.280308,450 L674.280308,445.248 C674.280308,444.096 674.874308,442.908 676.170308,442.908 C677.268308,442.908 677.772308,443.718 677.772308,444.78 L677.772308,450 L679.932308,450 L679.932308,445.284 C679.932308,444.168 680.490308,442.908 681.840308,442.908 C683.226308,442.908 683.460308,444.186 683.460308,445.212 L683.460308,450 L685.620308,450 L685.620308,444.6 C685.620308,442.836 684.684308,441.108 682.434308,441.108 C681.138308,441.108 680.166308,441.702 679.590308,442.746 C679.104308,441.774 678.222308,441.108 676.890308,441.108 C675.504308,441.108 674.586308,441.9 674.208308,442.746 L674.172308,442.746 L674.172308,441.36 L672.120308,441.36 L672.120308,450 L674.280308,450 Z M692.224923,450.252 C693.862923,450.252 695.086923,449.676 695.932923,448.524 L694.492923,447.372 C694.006923,448.056 693.286923,448.488 692.206923,448.488 C690.946923,448.488 689.830923,447.588 689.740923,446.364 L696.310923,446.364 C696.328923,446.166 696.328923,445.986 696.328923,445.788 C696.328923,442.674 694.564923,441.108 692.152923,441.108 C689.542923,441.108 687.580923,442.944 687.580923,445.734 C687.580923,448.542 689.560923,450.252 692.224923,450.252 Z M694.168923,444.816 L689.740923,444.816 C689.830923,443.61 690.856923,442.728 692.134923,442.728 C693.538923,442.728 694.168923,443.7 694.168923,444.816 Z M703.904154,439.722 C704.696154,439.722 705.308154,439.164 705.308154,438.426 C705.308154,437.688 704.696154,437.13 703.904154,437.13 C703.112154,437.13 702.536154,437.742 702.536154,438.426 C702.536154,439.11 703.112154,439.722 703.904154,439.722 Z M705.002154,450 L705.002154,441.36 L702.842154,441.36 L702.842154,450 L705.002154,450 Z M709.734769,450 L709.734769,445.248 C709.734769,444.096 710.382769,442.908 711.750769,442.908 C713.136769,442.908 713.370769,444.186 713.370769,445.212 L713.370769,450 L715.530769,450 L715.530769,444.6 C715.530769,442.836 714.594769,441.108 712.344769,441.108 C711.066769,441.108 710.040769,441.882 709.662769,442.746 L709.626769,442.746 L709.626769,441.36 L707.574769,441.36 L707.574769,450 L709.734769,450 Z M720.191384,450 L720.191384,436.392 L718.031384,436.392 L718.031384,450 L720.191384,450 Z M723.862,439.722 C724.654,439.722 725.266,439.164 725.266,438.426 C725.266,437.688 724.654,437.13 723.862,437.13 C723.07,437.13 722.494,437.742 722.494,438.426 C722.494,439.11 723.07,439.722 723.862,439.722 Z M724.96,450 L724.96,441.36 L722.8,441.36 L722.8,450 L724.96,450 Z M729.692615,450 L729.692615,445.248 C729.692615,444.096 730.340615,442.908 731.708615,442.908 C733.094615,442.908 733.328615,444.186 733.328615,445.212 L733.328615,450 L735.488615,450 L735.488615,444.6 C735.488615,442.836 734.552615,441.108 732.302615,441.108 C731.024615,441.108 729.998615,441.882 729.620615,442.746 L729.584615,442.746 L729.584615,441.36 L727.532615,441.36 L727.532615,450 L729.692615,450 Z M742.093231,450.252 C743.731231,450.252 744.955231,449.676 745.801231,448.524 L744.361231,447.372 C743.875231,448.056 743.155231,448.488 742.075231,448.488 C740.815231,448.488 739.699231,447.588 739.609231,446.364 L746.179231,446.364 C746.197231,446.166 746.197231,445.986 746.197231,445.788 C746.197231,442.674 744.433231,441.108 742.021231,441.108 C739.411231,441.108 737.449231,442.944 737.449231,445.734 C737.449231,448.542 739.429231,450.252 742.093231,450.252 Z M744.037231,444.816 L739.609231,444.816 C739.699231,443.61 740.725231,442.728 742.003231,442.728 C743.407231,442.728 744.037231,443.7 744.037231,444.816 Z" id="Editnameinline" fill="#FF00AF" fill-rule="nonzero"></path>
        <path d="M828.752,375.288 C830.672,375.288 832.144,374.552 833.136,373.304 L831.52,372.168 C830.944,372.952 829.984,373.48 828.768,373.48 C826.432,373.48 824.928,371.768 824.928,369.304 C824.928,366.968 826.512,365.16 828.848,365.16 C829.76,365.16 830.832,365.512 831.424,366.328 L832.96,365.112 C832.064,363.928 830.32,363.384 828.848,363.384 C825.36,363.384 822.704,365.672 822.704,369.304 C822.704,372.84 825.216,375.288 828.752,375.288 Z M837.774769,375.224 C840.094769,375.224 841.950769,373.544 841.950769,371.128 C841.950769,368.712 840.094769,367.096 837.774769,367.096 C835.454769,367.096 833.598769,368.712 833.598769,371.128 C833.598769,373.544 835.454769,375.224 837.774769,375.224 Z M837.774769,373.624 C836.254769,373.624 835.550769,372.328 835.550769,371.128 C835.550769,369.928 836.254769,368.664 837.774769,368.664 C839.294769,368.664 839.998769,369.928 839.998769,371.128 C839.998769,372.328 839.294769,373.624 837.774769,373.624 Z M845.677538,375 L845.677538,370.776 C845.677538,369.752 846.253538,368.696 847.469538,368.696 C848.701538,368.696 848.909538,369.832 848.909538,370.744 L848.909538,375 L850.829538,375 L850.829538,370.2 C850.829538,368.632 849.997538,367.096 847.997538,367.096 C846.861538,367.096 845.949538,367.784 845.613538,368.552 L845.581538,368.552 L845.581538,367.32 L843.757538,367.32 L843.757538,375 L845.677538,375 Z M855.244308,375 L855.244308,368.856 L857.020308,368.856 L857.020308,367.32 L855.244308,367.32 L855.244308,366.072 C855.244308,365.304 855.436308,364.344 856.540308,364.344 C856.812308,364.344 857.068308,364.392 857.276308,364.456 L857.404308,362.824 C857.116308,362.744 856.844308,362.712 856.428308,362.712 C854.044308,362.712 853.324308,364.344 853.324308,366.184 L853.324308,367.32 L851.868308,367.32 L851.868308,368.856 L853.324308,368.856 L853.324308,375 L855.244308,375 Z M859.372308,365.864 C860.076308,365.864 860.620308,365.368 860.620308,364.712 C860.620308,364.056 860.076308,363.56 859.372308,363.56 C858.668308,363.56 858.156308,364.104 858.156308,364.712 C858.156308,365.32 858.668308,365.864 859.372308,365.864 Z M860.348308,375 L860.348308,367.32 L858.428308,367.32 L858.428308,375 L860.348308,375 Z M864.379077,375 L864.379077,370.888 C864.379077,370.328 864.715077,368.824 866.443077,368.824 C866.619077,368.824 866.779077,368.84 867.035077,368.904 L867.035077,367.144 C866.907077,367.112 866.715077,367.096 866.571077,367.096 C865.563077,367.096 864.747077,367.72 864.331077,368.6 L864.299077,368.6 L864.299077,367.32 L862.459077,367.32 L862.459077,375 L864.379077,375 Z M870.153846,375 L870.153846,370.776 C870.153846,369.752 870.681846,368.696 871.833846,368.696 C872.809846,368.696 873.257846,369.416 873.257846,370.36 L873.257846,375 L875.177846,375 L875.177846,370.808 C875.177846,369.816 875.673846,368.696 876.873846,368.696 C878.105846,368.696 878.313846,369.832 878.313846,370.744 L878.313846,375 L880.233846,375 L880.233846,370.2 C880.233846,368.632 879.401846,367.096 877.401846,367.096 C876.249846,367.096 875.385846,367.624 874.873846,368.552 C874.441846,367.688 873.657846,367.096 872.473846,367.096 C871.241846,367.096 870.425846,367.8 870.089846,368.552 L870.057846,368.552 L870.057846,367.32 L868.233846,367.32 L868.233846,375 L870.153846,375 Z M889.687385,375.224 C890.759385,375.224 891.799385,374.728 892.327385,373.848 L892.359385,373.848 L892.359385,375 L894.183385,375 L894.183385,362.904 L892.263385,362.904 L892.263385,368.296 L892.215385,368.296 C891.815385,367.8 891.047385,367.096 889.639385,367.096 C887.447385,367.096 885.911385,368.856 885.911385,371.128 C885.911385,373.368 887.351385,375.224 889.687385,375.224 Z M890.071385,373.624 C888.583385,373.624 887.863385,372.328 887.863385,371.128 C887.863385,369.928 888.583385,368.664 890.071385,368.664 C891.479385,368.664 892.327385,369.96 892.327385,371.16 C892.327385,372.36 891.479385,373.624 890.071385,373.624 Z M900.150154,375.224 C901.606154,375.224 902.694154,374.712 903.446154,373.688 L902.166154,372.664 C901.734154,373.272 901.094154,373.656 900.134154,373.656 C899.014154,373.656 898.022154,372.856 897.942154,371.768 L903.782154,371.768 C903.798154,371.592 903.798154,371.432 903.798154,371.256 C903.798154,368.488 902.230154,367.096 900.086154,367.096 C897.766154,367.096 896.022154,368.728 896.022154,371.208 C896.022154,373.704 897.782154,375.224 900.150154,375.224 Z M901.878154,370.392 L897.942154,370.392 C898.022154,369.32 898.934154,368.536 900.070154,368.536 C901.318154,368.536 901.878154,369.4 901.878154,370.392 Z M907.556923,375 L907.556923,362.904 L905.636923,362.904 L905.636923,375 L907.556923,375 Z M913.523692,375.224 C914.979692,375.224 916.067692,374.712 916.819692,373.688 L915.539692,372.664 C915.107692,373.272 914.467692,373.656 913.507692,373.656 C912.387692,373.656 911.395692,372.856 911.315692,371.768 L917.155692,371.768 C917.171692,371.592 917.171692,371.432 917.171692,371.256 C917.171692,368.488 915.603692,367.096 913.459692,367.096 C911.139692,367.096 909.395692,368.728 909.395692,371.208 C909.395692,373.704 911.155692,375.224 913.523692,375.224 Z M915.251692,370.392 L911.315692,370.392 C911.395692,369.32 912.307692,368.536 913.443692,368.536 C914.691692,368.536 915.251692,369.4 915.251692,370.392 Z M921.714461,375.16 C922.146461,375.16 922.658461,375.08 922.994461,374.952 L922.930461,373.448 C922.706461,373.56 922.370461,373.608 922.114461,373.608 C921.266461,373.608 921.106461,373.112 921.106461,372.424 L921.106461,368.856 L923.026461,368.856 L923.026461,367.32 L921.106461,367.32 L921.106461,365.096 L919.218461,365.096 L919.218461,367.32 L917.874461,367.32 L917.874461,368.856 L919.218461,368.856 L919.218461,372.44 C919.218461,373.912 919.682461,375.16 921.714461,375.16 Z M928.049231,375.224 C929.505231,375.224 930.593231,374.712 931.345231,373.688 L930.065231,372.664 C929.633231,373.272 928.993231,373.656 928.033231,373.656 C926.913231,373.656 925.921231,372.856 925.841231,371.768 L931.681231,371.768 C931.697231,371.592 931.697231,371.432 931.697231,371.256 C931.697231,368.488 930.129231,367.096 927.985231,367.096 C925.665231,367.096 923.921231,368.728 923.921231,371.208 C923.921231,373.704 925.681231,375.224 928.049231,375.224 Z M929.777231,370.392 L925.841231,370.392 C925.921231,369.32 926.833231,368.536 927.969231,368.536 C929.217231,368.536 929.777231,369.4 929.777231,370.392 Z M937.6,371.656 L937.6,371.24 C937.6,370.312 937.824,370.04 938.656,369.304 C939.648,368.44 940.256,367.832 940.256,366.472 C940.256,364.456 938.688,363.384 936.848,363.384 C934.88,363.384 933.36,364.584 933.12,366.616 L935.088,366.792 C935.12,365.928 935.728,365.128 936.72,365.128 C937.664,365.128 938.224,365.768 938.224,366.6 C938.224,367.24 937.888,367.656 937.488,368.024 L936.768,368.712 C935.968,369.48 935.712,370.024 935.712,371.048 L935.712,371.656 L937.6,371.656 Z M936.672,375.096 C937.376,375.096 937.952,374.536 937.952,373.848 C937.952,373.16 937.36,372.632 936.672,372.632 C935.968,372.632 935.392,373.192 935.392,373.88 C935.392,374.568 936,375.096 936.672,375.096 Z" id="Confrmdelete?" fill="#000000" fill-rule="nonzero"></path>
    </g>
</svg>