<?xml version="1.0" encoding="UTF-8"?>
<svg width="1440px" height="1024px" viewBox="0 0 1440 1024" version="1.1" xmlns="http://www.w3.org/2000/svg" xmlns:xlink="http://www.w3.org/1999/xlink">
    <title>lofi_wireframes_filter</title>
    <g id="lofi_wireframes_filter" stroke="none" stroke-width="1" fill="none" fill-rule="evenodd">
        <rect fill="#FFFFFF" x="0" y="0" width="1440" height="1024"></rect>
        <rect id="Rectangle" stroke="#979797" fill="#F3F3F3" x="0" y="0" width="1440" height="50"></rect>
        <rect id="Rectangle" stroke="#979797" fill="#E9E9E9" x="0" y="50" width="458" height="974"></rect>
        <rect id="Rectangle" stroke="#979797" fill="#D8D8D8" x="35" y="576" width="160" height="29"></rect>
        <rect id="Rectangle" stroke="#979797" fill="#D8D8D8" x="35" y="851" width="382" height="37" rx="5"></rect>
        <text id="Enter-a-tag" font-family="AvenirNextforINTUIT-Medium, AvenirNext forINTUIT" font-size="20" font-weight="400" letter-spacing="1.8103609" fill="#000000">
            <tspan x="49" y="877">Enter a tag</tspan>
        </text>
        <rect id="Rectangle" stroke="#979797" fill="#D8D8D8" x="35" y="710" width="382" height="39"></rect>
        <rect id="Rectangle" stroke="#979797" fill="#D8D8D8" x="257" y="576" width="160" height="29"></rect>
        <text id="My-Prototypes" font-family="AvenirNextforINTUIT-Medium, AvenirNext forINTUIT" font-size="20" font-weight="400" letter-spacing="1.8103609" fill="#000000">
            <tspan x="76" y="223">My Prototypes</tspan>
        </text>
        <text id="All-Prototypes" font-family="AvenirNextforINTUIT-Medium, AvenirNext forINTUIT" font-size="20" font-weight="400" letter-spacing="1.8103609" fill="#000000">
            <tspan x="76" y="260">All Prototypes</tspan>
        </text>
        <circle id="Oval" stroke="#979797" fill="#D8D8D8" cx="49.5" cy="253.5" r="14.5"></circle>
        <circle id="Oval" stroke="#979797" fill="#D8D8D8" cx="49.5" cy="216.5" r="14.5"></circle>
        <circle id="Oval" fill="#000000" cx="49.5" cy="216.5" r="11.5"></circle>
        <g id="Group-7" transform="translate(434.000000, 70.000000)">
            <circle id="Oval" fill="#EFEFEF" transform="translate(24.000000, 24.000000) scale(-1, 1) translate(-24.000000, -24.000000) " cx="24" cy="24" r="24"></circle>
            <g id="Group-3" transform="translate(26.000000, 24.500000) scale(-1, 1) translate(-26.000000, -24.500000) translate(19.500000, 13.000000)" stroke="#000000" stroke-linecap="square">
                <line x1="1" y1="0.5" x2="12" y2="11.5" id="Line-2"></line>
                <line x1="0.5" y1="22" x2="11.5" y2="12" id="Line-2"></line>
            </g>
        </g>
        <text id="Level-of-visibility" font-family="AvenirNextforINTUIT-Medium, AvenirNext forINTUIT" font-size="27" font-weight="400" letter-spacing="2.44398721" fill="#000000">
            <tspan x="35" y="182">Level of visibility</tspan>
        </text>
        <text id="Segment" font-family="AvenirNextforINTUIT-Medium, AvenirNext forINTUIT" font-size="27" font-weight="400" letter-spacing="2.44398721" fill="#000000">
            <tspan x="35" y="346">Segment</tspan>
        </text>
        <text id="My-Prototypes" font-family="AvenirNextforINTUIT-Medium, AvenirNext forINTUIT" font-size="40" font-weight="400" letter-spacing="2.85714286" fill="#000000">
            <tspan x="563" y="156">My Prototypes</tspan>
        </text>
        <g id="Group" transform="translate(563.000000, 211.000000)">
            <g id="Group-2" fill="#F3F3F3" stroke="#979797">
                <rect id="Rectangle" x="0" y="0" width="346" height="230"></rect>
            </g>
            <rect id="Rectangle" stroke="#979797" fill="#D8D8D8" x="0" y="168" width="346" height="62"></rect>
            <text id="Prototype-name" font-family="AvenirNextforINTUIT-Medium, AvenirNext forINTUIT" font-size="16" font-weight="400" letter-spacing="1.14285714" fill="#000000">
                <tspan x="20" y="194">Prototype name</tspan>
            </text>
            <text id="Dec-5,-2019" font-family="AvenirNextforINTUIT-Medium, AvenirNext forINTUIT" font-size="13" font-weight="400" letter-spacing="0.928571429" fill="#7F7F7F">
                <tspan x="20" y="215">Dec 5, 2019</tspan>
            </text>
            <g id="Group-5" transform="translate(209.000000, 136.000000)">
                <rect id="Rectangle" stroke="#979797" fill="#D8D8D8" x="0" y="0" width="85" height="23" rx="11.5"></rect>
                <text id="GTKM" font-family="AvenirNextforINTUIT-Medium, AvenirNext forINTUIT" font-size="15" font-weight="400" letter-spacing="1.07142857" fill="#000000">
                    <tspan x="18" y="17">GTKM</tspan>
                </text>
            </g>
            <rect id="Rectangle" stroke="#979797" fill="#D8D8D8" x="306" y="136" width="39" height="23" rx="11.5"></rect>
            <g id="Group-6" transform="translate(112.000000, 136.000000)" stroke="#979797">
                <rect id="Rectangle" fill="#D8D8D8" x="0" y="0" width="85" height="23" rx="11.5"></rect>
                <line x1="9.5" y1="22.5" x2="75.5" y2="0.5" id="Line-8" stroke-linecap="square"></line>
                <line x1="9.5" y1="0.5" x2="75.5" y2="22.5" id="Line" stroke-linecap="square"></line>
            </g>
            <g id="Group-6" transform="translate(15.000000, 136.000000)" stroke="#979797">
                <rect id="Rectangle" fill="#D8D8D8" x="0" y="0" width="85" height="23" rx="11.5"></rect>
                <line x1="9.5" y1="22.5" x2="75.5" y2="0.5" id="Line-8" stroke-linecap="square"></line>
                <line x1="9.5" y1="0.5" x2="75.5" y2="22.5" id="Line" stroke-linecap="square"></line>
            </g>
            <rect id="Rectangle" fill="#F3F3F3" x="330" y="114" width="15.5" height="53"></rect>
            <g id="account" transform="translate(303.000000, 9.000000)" fill="#000000" fill-rule="nonzero">
                <path d="M15.5020981,0 C6.94062037,0 0,6.93968099 0,15.5 C0,24.060319 6.94062037,31 15.5020981,31 C15.9691291,31 16.4343939,30.9790609 16.8973879,30.9374349 C17.3278335,30.8988363 17.7544945,30.839803 18.1778753,30.7658854 L18.3406171,30.7371257 C26.2120194,29.2683594 31.6697975,22.0473877 30.9335487,14.0748779 C30.1972999,6.10236815 23.509497,0.00252278646 15.5020981,0 Z M14.2566822,29.9119222 L14.2200968,29.9119222 C13.8181626,29.8763509 13.419256,29.8226155 13.0238818,29.7537435 C13.0011737,29.749707 12.9784656,29.7471842 12.9562621,29.7428955 C12.5697188,29.6737712 12.1872127,29.5879964 11.8084911,29.4878418 L11.7169016,29.4643799 C11.3475157,29.3642253 10.9821668,29.2479248 10.6221164,29.1187582 C10.5847741,29.1053873 10.5471794,29.0935303 10.5098372,29.0796549 C10.1568516,28.9499837 9.81017378,28.8046712 9.46879458,28.6475016 C9.42640603,28.6285807 9.38401748,28.6104167 9.34162894,28.5902344 C9.00680984,28.4353353 8.67855091,28.2607585 8.35659978,28.0770996 C8.31118348,28.0513672 8.26526258,28.0256347 8.21984621,28.0001546 C7.90294134,27.8152344 7.59335359,27.6169434 7.28956899,27.4075521 C7.24364803,27.3755127 7.19722247,27.3444825 7.15155387,27.312443 C6.85306782,27.1007812 6.56215118,26.876001 6.2788039,26.6408773 L6.20083926,26.5727621 L6.20083926,22.2166667 C6.20462397,19.0793294 8.74717999,16.5371175 11.8849419,16.5333333 L19.1192544,16.5333333 C22.2570163,16.5371175 24.7995723,19.0793294 24.803357,22.2166667 L24.803357,26.5732666 L24.734728,26.6305339 C24.4458298,26.8717122 24.1493623,27.0997721 23.8448207,27.3152181 C23.8044507,27.3434733 23.763576,27.3704671 23.7234583,27.3982178 C23.4161413,27.6116455 23.1012549,27.8124593 22.7787992,28.0011637 C22.7384291,28.0246257 22.6970498,28.0468262 22.6569321,28.0700358 C22.330187,28.2559652 21.997891,28.4315511 21.6590349,28.5897298 C21.6201788,28.6078939 21.5810703,28.6247965 21.5417095,28.641447 C21.1975549,28.8001302 20.8478494,28.9461996 20.4923406,29.0768799 C20.4570169,29.0899984 20.4214407,29.1013509 20.3888924,29.1137126 C20.0270759,29.2433838 19.660213,29.3606934 19.2888086,29.4613525 L19.1997422,29.483553 C18.820516,29.5837076 18.4377575,29.669987 18.0507097,29.7393636 C18.0285062,29.7434001 18.0063026,29.7461752 17.9840991,29.749707 C17.5882203,29.8188314 17.1888092,29.8725667 16.7866226,29.9083903 L16.7500372,29.9083903 C16.3367489,29.9439616 15.9232082,29.9631347 15.5046212,29.9631347 C15.0860344,29.9631347 14.6692136,29.9474935 14.2566822,29.9119222 L14.2566822,29.9119222 Z M25.8368302,25.6153646 L25.8368302,22.2166667 C25.8325409,18.5089274 22.8274955,15.5042887 19.1192544,15.5 L11.8849419,15.5 C8.17670078,15.5042887 5.17165535,18.5089274 5.16736605,22.2166667 L5.16736605,25.6148601 C-0.398149559,19.9353109 -0.336080643,10.8293132 5.30613812,5.22595216 C10.9483568,-0.377156592 20.0558395,-0.377156592 25.6980582,5.22595216 C31.3402769,10.8293132 31.4023459,19.9353109 25.8368302,25.6148601 L25.8368302,25.6153646 Z" id="Shape"></path>
                <path d="M15.5,4 C12.4623779,4 10,6.46237791 10,9.5 C10,12.5376221 12.4623779,15 15.5,15 C18.5376221,15 21,12.5376221 21,9.5 C20.9967773,6.46372074 18.5362793,4.00322266 15.5,4 Z M15.5,13.9 C13.0698487,13.9 11.1,11.9301513 11.1,9.5 C11.1,7.06984865 13.0698487,5.1 15.5,5.1 C17.9301514,5.1 19.9,7.06984865 19.9,9.5 C19.8973145,11.9288086 17.9288086,13.8973145 15.5,13.9 Z" id="Shape"></path>
            </g>
        </g>
        <g id="Group" transform="translate(975.000000, 211.000000)">
            <g id="Group-2" fill="#F3F3F3" stroke="#979797">
                <rect id="Rectangle" x="0" y="0" width="346" height="230"></rect>
            </g>
            <rect id="Rectangle" stroke="#979797" fill="#D8D8D8" x="0" y="168" width="346" height="62"></rect>
            <text id="Prototype-name" font-family="AvenirNextforINTUIT-Medium, AvenirNext forINTUIT" font-size="16" font-weight="400" letter-spacing="1.14285714" fill="#000000">
                <tspan x="20" y="194">Prototype name</tspan>
            </text>
            <text id="Dec-5,-2019" font-family="AvenirNextforINTUIT-Medium, AvenirNext forINTUIT" font-size="13" font-weight="400" letter-spacing="0.928571429" fill="#7F7F7F">
                <tspan x="20" y="215">Dec 5, 2019</tspan>
            </text>
            <g id="Group-5" transform="translate(209.000000, 136.000000)">
                <rect id="Rectangle" stroke="#979797" fill="#D8D8D8" x="0" y="0" width="85" height="23" rx="11.5"></rect>
                <text id="GTKM" font-family="AvenirNextforINTUIT-Medium, AvenirNext forINTUIT" font-size="15" font-weight="400" letter-spacing="1.07142857" fill="#000000">
                    <tspan x="18" y="17">GTKM</tspan>
                </text>
            </g>
            <rect id="Rectangle" stroke="#979797" fill="#D8D8D8" x="306" y="136" width="39" height="23" rx="11.5"></rect>
            <g id="Group-6" transform="translate(112.000000, 136.000000)" stroke="#979797">
                <rect id="Rectangle" fill="#D8D8D8" x="0" y="0" width="85" height="23" rx="11.5"></rect>
                <line x1="9.5" y1="22.5" x2="75.5" y2="0.5" id="Line-8" stroke-linecap="square"></line>
                <line x1="9.5" y1="0.5" x2="75.5" y2="22.5" id="Line" stroke-linecap="square"></line>
            </g>
            <g id="Group-6" transform="translate(15.000000, 136.000000)" stroke="#979797">
                <rect id="Rectangle" fill="#D8D8D8" x="0" y="0" width="85" height="23" rx="11.5"></rect>
                <line x1="9.5" y1="22.5" x2="75.5" y2="0.5" id="Line-8" stroke-linecap="square"></line>
                <line x1="9.5" y1="0.5" x2="75.5" y2="22.5" id="Line" stroke-linecap="square"></line>
            </g>
            <rect id="Rectangle" fill="#F3F3F3" x="330" y="114" width="15.5" height="53"></rect>
            <g id="account" transform="translate(303.000000, 9.000000)" fill="#000000" fill-rule="nonzero">
                <path d="M15.5020981,0 C6.94062037,0 0,6.93968099 0,15.5 C0,24.060319 6.94062037,31 15.5020981,31 C15.9691291,31 16.4343939,30.9790609 16.8973879,30.9374349 C17.3278335,30.8988363 17.7544945,30.839803 18.1778753,30.7658854 L18.3406171,30.7371257 C26.2120194,29.2683594 31.6697975,22.0473877 30.9335487,14.0748779 C30.1972999,6.10236815 23.509497,0.00252278646 15.5020981,0 Z M14.2566822,29.9119222 L14.2200968,29.9119222 C13.8181626,29.8763509 13.419256,29.8226155 13.0238818,29.7537435 C13.0011737,29.749707 12.9784656,29.7471842 12.9562621,29.7428955 C12.5697188,29.6737712 12.1872127,29.5879964 11.8084911,29.4878418 L11.7169016,29.4643799 C11.3475157,29.3642253 10.9821668,29.2479248 10.6221164,29.1187582 C10.5847741,29.1053873 10.5471794,29.0935303 10.5098372,29.0796549 C10.1568516,28.9499837 9.81017378,28.8046712 9.46879458,28.6475016 C9.42640603,28.6285807 9.38401748,28.6104167 9.34162894,28.5902344 C9.00680984,28.4353353 8.67855091,28.2607585 8.35659978,28.0770996 C8.31118348,28.0513672 8.26526258,28.0256347 8.21984621,28.0001546 C7.90294134,27.8152344 7.59335359,27.6169434 7.28956899,27.4075521 C7.24364803,27.3755127 7.19722247,27.3444825 7.15155387,27.312443 C6.85306782,27.1007812 6.56215118,26.876001 6.2788039,26.6408773 L6.20083926,26.5727621 L6.20083926,22.2166667 C6.20462397,19.0793294 8.74717999,16.5371175 11.8849419,16.5333333 L19.1192544,16.5333333 C22.2570163,16.5371175 24.7995723,19.0793294 24.803357,22.2166667 L24.803357,26.5732666 L24.734728,26.6305339 C24.4458298,26.8717122 24.1493623,27.0997721 23.8448207,27.3152181 C23.8044507,27.3434733 23.763576,27.3704671 23.7234583,27.3982178 C23.4161413,27.6116455 23.1012549,27.8124593 22.7787992,28.0011637 C22.7384291,28.0246257 22.6970498,28.0468262 22.6569321,28.0700358 C22.330187,28.2559652 21.997891,28.4315511 21.6590349,28.5897298 C21.6201788,28.6078939 21.5810703,28.6247965 21.5417095,28.641447 C21.1975549,28.8001302 20.8478494,28.9461996 20.4923406,29.0768799 C20.4570169,29.0899984 20.4214407,29.1013509 20.3888924,29.1137126 C20.0270759,29.2433838 19.660213,29.3606934 19.2888086,29.4613525 L19.1997422,29.483553 C18.820516,29.5837076 18.4377575,29.669987 18.0507097,29.7393636 C18.0285062,29.7434001 18.0063026,29.7461752 17.9840991,29.749707 C17.5882203,29.8188314 17.1888092,29.8725667 16.7866226,29.9083903 L16.7500372,29.9083903 C16.3367489,29.9439616 15.9232082,29.9631347 15.5046212,29.9631347 C15.0860344,29.9631347 14.6692136,29.9474935 14.2566822,29.9119222 L14.2566822,29.9119222 Z M25.8368302,25.6153646 L25.8368302,22.2166667 C25.8325409,18.5089274 22.8274955,15.5042887 19.1192544,15.5 L11.8849419,15.5 C8.17670078,15.5042887 5.17165535,18.5089274 5.16736605,22.2166667 L5.16736605,25.6148601 C-0.398149559,19.9353109 -0.336080643,10.8293132 5.30613812,5.22595216 C10.9483568,-0.377156592 20.0558395,-0.377156592 25.6980582,5.22595216 C31.3402769,10.8293132 31.4023459,19.9353109 25.8368302,25.6148601 L25.8368302,25.6153646 Z" id="Shape"></path>
                <path d="M15.5,4 C12.4623779,4 10,6.46237791 10,9.5 C10,12.5376221 12.4623779,15 15.5,15 C18.5376221,15 21,12.5376221 21,9.5 C20.9967773,6.46372074 18.5362793,4.00322266 15.5,4 Z M15.5,13.9 C13.0698487,13.9 11.1,11.9301513 11.1,9.5 C11.1,7.06984865 13.0698487,5.1 15.5,5.1 C17.9301514,5.1 19.9,7.06984865 19.9,9.5 C19.8973145,11.9288086 17.9288086,13.8973145 15.5,13.9 Z" id="Shape"></path>
            </g>
        </g>
        <g id="Group" transform="translate(563.000000, 495.000000)">
            <g id="Group-2" fill="#F3F3F3" stroke="#979797">
                <rect id="Rectangle" x="0" y="0" width="346" height="230"></rect>
            </g>
            <rect id="Rectangle" stroke="#979797" fill="#D8D8D8" x="0" y="168" width="346" height="62"></rect>
            <text id="Prototype-name" font-family="AvenirNextforINTUIT-Medium, AvenirNext forINTUIT" font-size="16" font-weight="400" letter-spacing="1.14285714" fill="#000000">
                <tspan x="20" y="194">Prototype name</tspan>
            </text>
            <text id="Dec-5,-2019" font-family="AvenirNextforINTUIT-Medium, AvenirNext forINTUIT" font-size="13" font-weight="400" letter-spacing="0.928571429" fill="#7F7F7F">
                <tspan x="20" y="215">Dec 5, 2019</tspan>
            </text>
            <g id="Group-5" transform="translate(209.000000, 136.000000)">
                <rect id="Rectangle" stroke="#979797" fill="#D8D8D8" x="0" y="0" width="85" height="23" rx="11.5"></rect>
                <text id="GTKM" font-family="AvenirNextforINTUIT-Medium, AvenirNext forINTUIT" font-size="15" font-weight="400" letter-spacing="1.07142857" fill="#000000">
                    <tspan x="18" y="17">GTKM</tspan>
                </text>
            </g>
            <rect id="Rectangle" stroke="#979797" fill="#D8D8D8" x="306" y="136" width="39" height="23" rx="11.5"></rect>
            <g id="Group-6" transform="translate(112.000000, 136.000000)" stroke="#979797">
                <rect id="Rectangle" fill="#D8D8D8" x="0" y="0" width="85" height="23" rx="11.5"></rect>
                <line x1="9.5" y1="22.5" x2="75.5" y2="0.5" id="Line-8" stroke-linecap="square"></line>
                <line x1="9.5" y1="0.5" x2="75.5" y2="22.5" id="Line" stroke-linecap="square"></line>
            </g>
            <g id="Group-6" transform="translate(15.000000, 136.000000)" stroke="#979797">
                <rect id="Rectangle" fill="#D8D8D8" x="0" y="0" width="85" height="23" rx="11.5"></rect>
                <line x1="9.5" y1="22.5" x2="75.5" y2="0.5" id="Line-8" stroke-linecap="square"></line>
                <line x1="9.5" y1="0.5" x2="75.5" y2="22.5" id="Line" stroke-linecap="square"></line>
            </g>
            <rect id="Rectangle" fill="#F3F3F3" x="330" y="114" width="15.5" height="53"></rect>
            <g id="account" transform="translate(303.000000, 9.000000)" fill="#000000" fill-rule="nonzero">
                <path d="M15.5020981,0 C6.94062037,0 0,6.93968099 0,15.5 C0,24.060319 6.94062037,31 15.5020981,31 C15.9691291,31 16.4343939,30.9790609 16.8973879,30.9374349 C17.3278335,30.8988363 17.7544945,30.839803 18.1778753,30.7658854 L18.3406171,30.7371257 C26.2120194,29.2683594 31.6697975,22.0473877 30.9335487,14.0748779 C30.1972999,6.10236815 23.509497,0.00252278646 15.5020981,0 Z M14.2566822,29.9119222 L14.2200968,29.9119222 C13.8181626,29.8763509 13.419256,29.8226155 13.0238818,29.7537435 C13.0011737,29.749707 12.9784656,29.7471842 12.9562621,29.7428955 C12.5697188,29.6737712 12.1872127,29.5879964 11.8084911,29.4878418 L11.7169016,29.4643799 C11.3475157,29.3642253 10.9821668,29.2479248 10.6221164,29.1187582 C10.5847741,29.1053873 10.5471794,29.0935303 10.5098372,29.0796549 C10.1568516,28.9499837 9.81017378,28.8046712 9.46879458,28.6475016 C9.42640603,28.6285807 9.38401748,28.6104167 9.34162894,28.5902344 C9.00680984,28.4353353 8.67855091,28.2607585 8.35659978,28.0770996 C8.31118348,28.0513672 8.26526258,28.0256347 8.21984621,28.0001546 C7.90294134,27.8152344 7.59335359,27.6169434 7.28956899,27.4075521 C7.24364803,27.3755127 7.19722247,27.3444825 7.15155387,27.312443 C6.85306782,27.1007812 6.56215118,26.876001 6.2788039,26.6408773 L6.20083926,26.5727621 L6.20083926,22.2166667 C6.20462397,19.0793294 8.74717999,16.5371175 11.8849419,16.5333333 L19.1192544,16.5333333 C22.2570163,16.5371175 24.7995723,19.0793294 24.803357,22.2166667 L24.803357,26.5732666 L24.734728,26.6305339 C24.4458298,26.8717122 24.1493623,27.0997721 23.8448207,27.3152181 C23.8044507,27.3434733 23.763576,27.3704671 23.7234583,27.3982178 C23.4161413,27.6116455 23.1012549,27.8124593 22.7787992,28.0011637 C22.7384291,28.0246257 22.6970498,28.0468262 22.6569321,28.0700358 C22.330187,28.2559652 21.997891,28.4315511 21.6590349,28.5897298 C21.6201788,28.6078939 21.5810703,28.6247965 21.5417095,28.641447 C21.1975549,28.8001302 20.8478494,28.9461996 20.4923406,29.0768799 C20.4570169,29.0899984 20.4214407,29.1013509 20.3888924,29.1137126 C20.0270759,29.2433838 19.660213,29.3606934 19.2888086,29.4613525 L19.1997422,29.483553 C18.820516,29.5837076 18.4377575,29.669987 18.0507097,29.7393636 C18.0285062,29.7434001 18.0063026,29.7461752 17.9840991,29.749707 C17.5882203,29.8188314 17.1888092,29.8725667 16.7866226,29.9083903 L16.7500372,29.9083903 C16.3367489,29.9439616 15.9232082,29.9631347 15.5046212,29.9631347 C15.0860344,29.9631347 14.6692136,29.9474935 14.2566822,29.9119222 L14.2566822,29.9119222 Z M25.8368302,25.6153646 L25.8368302,22.2166667 C25.8325409,18.5089274 22.8274955,15.5042887 19.1192544,15.5 L11.8849419,15.5 C8.17670078,15.5042887 5.17165535,18.5089274 5.16736605,22.2166667 L5.16736605,25.6148601 C-0.398149559,19.9353109 -0.336080643,10.8293132 5.30613812,5.22595216 C10.9483568,-0.377156592 20.0558395,-0.377156592 25.6980582,5.22595216 C31.3402769,10.8293132 31.4023459,19.9353109 25.8368302,25.6148601 L25.8368302,25.6153646 Z" id="Shape"></path>
                <path d="M15.5,4 C12.4623779,4 10,6.46237791 10,9.5 C10,12.5376221 12.4623779,15 15.5,15 C18.5376221,15 21,12.5376221 21,9.5 C20.9967773,6.46372074 18.5362793,4.00322266 15.5,4 Z M15.5,13.9 C13.0698487,13.9 11.1,11.9301513 11.1,9.5 C11.1,7.06984865 13.0698487,5.1 15.5,5.1 C17.9301514,5.1 19.9,7.06984865 19.9,9.5 C19.8973145,11.9288086 17.9288086,13.8973145 15.5,13.9 Z" id="Shape"></path>
            </g>
        </g>
        <g id="Group" transform="translate(975.000000, 495.000000)">
            <g id="Group-2" fill="#F3F3F3" stroke="#979797">
                <rect id="Rectangle" x="0" y="0" width="346" height="230"></rect>
            </g>
            <rect id="Rectangle" stroke="#979797" fill="#D8D8D8" x="0" y="168" width="346" height="62"></rect>
            <text id="Prototype-name" font-family="AvenirNextforINTUIT-Medium, AvenirNext forINTUIT" font-size="16" font-weight="400" letter-spacing="1.14285714" fill="#000000">
                <tspan x="20" y="194">Prototype name</tspan>
            </text>
            <text id="Dec-5,-2019" font-family="AvenirNextforINTUIT-Medium, AvenirNext forINTUIT" font-size="13" font-weight="400" letter-spacing="0.928571429" fill="#7F7F7F">
                <tspan x="20" y="215">Dec 5, 2019</tspan>
            </text>
            <g id="Group-5" transform="translate(209.000000, 136.000000)">
                <rect id="Rectangle" stroke="#979797" fill="#D8D8D8" x="0" y="0" width="85" height="23" rx="11.5"></rect>
                <text id="GTKM" font-family="AvenirNextforINTUIT-Medium, AvenirNext forINTUIT" font-size="15" font-weight="400" letter-spacing="1.07142857" fill="#000000">
                    <tspan x="18" y="17">GTKM</tspan>
                </text>
            </g>
            <rect id="Rectangle" stroke="#979797" fill="#D8D8D8" x="306" y="136" width="39" height="23" rx="11.5"></rect>
            <g id="Group-6" transform="translate(112.000000, 136.000000)" stroke="#979797">
                <rect id="Rectangle" fill="#D8D8D8" x="0" y="0" width="85" height="23" rx="11.5"></rect>
                <line x1="9.5" y1="22.5" x2="75.5" y2="0.5" id="Line-8" stroke-linecap="square"></line>
                <line x1="9.5" y1="0.5" x2="75.5" y2="22.5" id="Line" stroke-linecap="square"></line>
            </g>
            <g id="Group-6" transform="translate(15.000000, 136.000000)" stroke="#979797">
                <rect id="Rectangle" fill="#D8D8D8" x="0" y="0" width="85" height="23" rx="11.5"></rect>
                <line x1="9.5" y1="22.5" x2="75.5" y2="0.5" id="Line-8" stroke-linecap="square"></line>
                <line x1="9.5" y1="0.5" x2="75.5" y2="22.5" id="Line" stroke-linecap="square"></line>
            </g>
            <rect id="Rectangle" fill="#F3F3F3" x="330" y="114" width="15.5" height="53"></rect>
            <g id="account" transform="translate(303.000000, 9.000000)" fill="#000000" fill-rule="nonzero">
                <path d="M15.5020981,0 C6.94062037,0 0,6.93968099 0,15.5 C0,24.060319 6.94062037,31 15.5020981,31 C15.9691291,31 16.4343939,30.9790609 16.8973879,30.9374349 C17.3278335,30.8988363 17.7544945,30.839803 18.1778753,30.7658854 L18.3406171,30.7371257 C26.2120194,29.2683594 31.6697975,22.0473877 30.9335487,14.0748779 C30.1972999,6.10236815 23.509497,0.00252278646 15.5020981,0 Z M14.2566822,29.9119222 L14.2200968,29.9119222 C13.8181626,29.8763509 13.419256,29.8226155 13.0238818,29.7537435 C13.0011737,29.749707 12.9784656,29.7471842 12.9562621,29.7428955 C12.5697188,29.6737712 12.1872127,29.5879964 11.8084911,29.4878418 L11.7169016,29.4643799 C11.3475157,29.3642253 10.9821668,29.2479248 10.6221164,29.1187582 C10.5847741,29.1053873 10.5471794,29.0935303 10.5098372,29.0796549 C10.1568516,28.9499837 9.81017378,28.8046712 9.46879458,28.6475016 C9.42640603,28.6285807 9.38401748,28.6104167 9.34162894,28.5902344 C9.00680984,28.4353353 8.67855091,28.2607585 8.35659978,28.0770996 C8.31118348,28.0513672 8.26526258,28.0256347 8.21984621,28.0001546 C7.90294134,27.8152344 7.59335359,27.6169434 7.28956899,27.4075521 C7.24364803,27.3755127 7.19722247,27.3444825 7.15155387,27.312443 C6.85306782,27.1007812 6.56215118,26.876001 6.2788039,26.6408773 L6.20083926,26.5727621 L6.20083926,22.2166667 C6.20462397,19.0793294 8.74717999,16.5371175 11.8849419,16.5333333 L19.1192544,16.5333333 C22.2570163,16.5371175 24.7995723,19.0793294 24.803357,22.2166667 L24.803357,26.5732666 L24.734728,26.6305339 C24.4458298,26.8717122 24.1493623,27.0997721 23.8448207,27.3152181 C23.8044507,27.3434733 23.763576,27.3704671 23.7234583,27.3982178 C23.4161413,27.6116455 23.1012549,27.8124593 22.7787992,28.0011637 C22.7384291,28.0246257 22.6970498,28.0468262 22.6569321,28.0700358 C22.330187,28.2559652 21.997891,28.4315511 21.6590349,28.5897298 C21.6201788,28.6078939 21.5810703,28.6247965 21.5417095,28.641447 C21.1975549,28.8001302 20.8478494,28.9461996 20.4923406,29.0768799 C20.4570169,29.0899984 20.4214407,29.1013509 20.3888924,29.1137126 C20.0270759,29.2433838 19.660213,29.3606934 19.2888086,29.4613525 L19.1997422,29.483553 C18.820516,29.5837076 18.4377575,29.669987 18.0507097,29.7393636 C18.0285062,29.7434001 18.0063026,29.7461752 17.9840991,29.749707 C17.5882203,29.8188314 17.1888092,29.8725667 16.7866226,29.9083903 L16.7500372,29.9083903 C16.3367489,29.9439616 15.9232082,29.9631347 15.5046212,29.9631347 C15.0860344,29.9631347 14.6692136,29.9474935 14.2566822,29.9119222 L14.2566822,29.9119222 Z M25.8368302,25.6153646 L25.8368302,22.2166667 C25.8325409,18.5089274 22.8274955,15.5042887 19.1192544,15.5 L11.8849419,15.5 C8.17670078,15.5042887 5.17165535,18.5089274 5.16736605,22.2166667 L5.16736605,25.6148601 C-0.398149559,19.9353109 -0.336080643,10.8293132 5.30613812,5.22595216 C10.9483568,-0.377156592 20.0558395,-0.377156592 25.6980582,5.22595216 C31.3402769,10.8293132 31.4023459,19.9353109 25.8368302,25.6148601 L25.8368302,25.6153646 Z" id="Shape"></path>
                <path d="M15.5,4 C12.4623779,4 10,6.46237791 10,9.5 C10,12.5376221 12.4623779,15 15.5,15 C18.5376221,15 21,12.5376221 21,9.5 C20.9967773,6.46372074 18.5362793,4.00322266 15.5,4 Z M15.5,13.9 C13.0698487,13.9 11.1,11.9301513 11.1,9.5 C11.1,7.06984865 13.0698487,5.1 15.5,5.1 C17.9301514,5.1 19.9,7.06984865 19.9,9.5 C19.8973145,11.9288086 17.9288086,13.8973145 15.5,13.9 Z" id="Shape"></path>
            </g>
        </g>
        <text id="Filters" font-family="AvenirNextforINTUIT-Medium, AvenirNext forINTUIT" font-size="40" font-weight="400" letter-spacing="2.85714286" fill="#000000">
            <tspan x="35" y="114">Filters</tspan>
        </text>
        <g id="Group-4" transform="translate(911.000000, 128.000000)" stroke="#000000" stroke-width="2">
            <circle id="Oval" cx="16.5" cy="16.5" r="16.5"></circle>
            <line x1="27" y1="30" x2="35" y2="38" id="Line" stroke-linecap="square"></line>
        </g>
        <g id="Group" transform="translate(563.000000, 779.000000)">
            <g id="Group-2" fill="#F3F3F3" stroke="#979797">
                <rect id="Rectangle" x="0" y="0" width="346" height="230"></rect>
            </g>
            <rect id="Rectangle" stroke="#979797" fill="#D8D8D8" x="0" y="168" width="346" height="62"></rect>
            <text id="Prototype-name" font-family="AvenirNextforINTUIT-Medium, AvenirNext forINTUIT" font-size="16" font-weight="400" letter-spacing="1.14285714" fill="#000000">
                <tspan x="20" y="194">Prototype name</tspan>
            </text>
            <text id="Dec-5,-2019" font-family="AvenirNextforINTUIT-Medium, AvenirNext forINTUIT" font-size="13" font-weight="400" letter-spacing="0.928571429" fill="#7F7F7F">
                <tspan x="20" y="215">Dec 5, 2019</tspan>
            </text>
            <g id="Group-5" transform="translate(209.000000, 136.000000)">
                <rect id="Rectangle" stroke="#979797" fill="#D8D8D8" x="0" y="0" width="85" height="23" rx="11.5"></rect>
                <text id="GTKM" font-family="AvenirNextforINTUIT-Medium, AvenirNext forINTUIT" font-size="15" font-weight="400" letter-spacing="1.07142857" fill="#000000">
                    <tspan x="18" y="17">GTKM</tspan>
                </text>
            </g>
            <rect id="Rectangle" stroke="#979797" fill="#D8D8D8" x="306" y="136" width="39" height="23" rx="11.5"></rect>
            <g id="Group-6" transform="translate(112.000000, 136.000000)" stroke="#979797">
                <rect id="Rectangle" fill="#D8D8D8" x="0" y="0" width="85" height="23" rx="11.5"></rect>
                <line x1="9.5" y1="22.5" x2="75.5" y2="0.5" id="Line-8" stroke-linecap="square"></line>
                <line x1="9.5" y1="0.5" x2="75.5" y2="22.5" id="Line" stroke-linecap="square"></line>
            </g>
            <g id="Group-6" transform="translate(15.000000, 136.000000)" stroke="#979797">
                <rect id="Rectangle" fill="#D8D8D8" x="0" y="0" width="85" height="23" rx="11.5"></rect>
                <line x1="9.5" y1="22.5" x2="75.5" y2="0.5" id="Line-8" stroke-linecap="square"></line>
                <line x1="9.5" y1="0.5" x2="75.5" y2="22.5" id="Line" stroke-linecap="square"></line>
            </g>
            <rect id="Rectangle" fill="#F3F3F3" x="330" y="114" width="15.5" height="53"></rect>
            <g id="account" transform="translate(303.000000, 9.000000)" fill="#000000" fill-rule="nonzero">
                <path d="M15.5020981,0 C6.94062037,0 0,6.93968099 0,15.5 C0,24.060319 6.94062037,31 15.5020981,31 C15.9691291,31 16.4343939,30.9790609 16.8973879,30.9374349 C17.3278335,30.8988363 17.7544945,30.839803 18.1778753,30.7658854 L18.3406171,30.7371257 C26.2120194,29.2683594 31.6697975,22.0473877 30.9335487,14.0748779 C30.1972999,6.10236815 23.509497,0.00252278646 15.5020981,0 Z M14.2566822,29.9119222 L14.2200968,29.9119222 C13.8181626,29.8763509 13.419256,29.8226155 13.0238818,29.7537435 C13.0011737,29.749707 12.9784656,29.7471842 12.9562621,29.7428955 C12.5697188,29.6737712 12.1872127,29.5879964 11.8084911,29.4878418 L11.7169016,29.4643799 C11.3475157,29.3642253 10.9821668,29.2479248 10.6221164,29.1187582 C10.5847741,29.1053873 10.5471794,29.0935303 10.5098372,29.0796549 C10.1568516,28.9499837 9.81017378,28.8046712 9.46879458,28.6475016 C9.42640603,28.6285807 9.38401748,28.6104167 9.34162894,28.5902344 C9.00680984,28.4353353 8.67855091,28.2607585 8.35659978,28.0770996 C8.31118348,28.0513672 8.26526258,28.0256347 8.21984621,28.0001546 C7.90294134,27.8152344 7.59335359,27.6169434 7.28956899,27.4075521 C7.24364803,27.3755127 7.19722247,27.3444825 7.15155387,27.312443 C6.85306782,27.1007812 6.56215118,26.876001 6.2788039,26.6408773 L6.20083926,26.5727621 L6.20083926,22.2166667 C6.20462397,19.0793294 8.74717999,16.5371175 11.8849419,16.5333333 L19.1192544,16.5333333 C22.2570163,16.5371175 24.7995723,19.0793294 24.803357,22.2166667 L24.803357,26.5732666 L24.734728,26.6305339 C24.4458298,26.8717122 24.1493623,27.0997721 23.8448207,27.3152181 C23.8044507,27.3434733 23.763576,27.3704671 23.7234583,27.3982178 C23.4161413,27.6116455 23.1012549,27.8124593 22.7787992,28.0011637 C22.7384291,28.0246257 22.6970498,28.0468262 22.6569321,28.0700358 C22.330187,28.2559652 21.997891,28.4315511 21.6590349,28.5897298 C21.6201788,28.6078939 21.5810703,28.6247965 21.5417095,28.641447 C21.1975549,28.8001302 20.8478494,28.9461996 20.4923406,29.0768799 C20.4570169,29.0899984 20.4214407,29.1013509 20.3888924,29.1137126 C20.0270759,29.2433838 19.660213,29.3606934 19.2888086,29.4613525 L19.1997422,29.483553 C18.820516,29.5837076 18.4377575,29.669987 18.0507097,29.7393636 C18.0285062,29.7434001 18.0063026,29.7461752 17.9840991,29.749707 C17.5882203,29.8188314 17.1888092,29.8725667 16.7866226,29.9083903 L16.7500372,29.9083903 C16.3367489,29.9439616 15.9232082,29.9631347 15.5046212,29.9631347 C15.0860344,29.9631347 14.6692136,29.9474935 14.2566822,29.9119222 L14.2566822,29.9119222 Z M25.8368302,25.6153646 L25.8368302,22.2166667 C25.8325409,18.5089274 22.8274955,15.5042887 19.1192544,15.5 L11.8849419,15.5 C8.17670078,15.5042887 5.17165535,18.5089274 5.16736605,22.2166667 L5.16736605,25.6148601 C-0.398149559,19.9353109 -0.336080643,10.8293132 5.30613812,5.22595216 C10.9483568,-0.377156592 20.0558395,-0.377156592 25.6980582,5.22595216 C31.3402769,10.8293132 31.4023459,19.9353109 25.8368302,25.6148601 L25.8368302,25.6153646 Z" id="Shape"></path>
                <path d="M15.5,4 C12.4623779,4 10,6.46237791 10,9.5 C10,12.5376221 12.4623779,15 15.5,15 C18.5376221,15 21,12.5376221 21,9.5 C20.9967773,6.46372074 18.5362793,4.00322266 15.5,4 Z M15.5,13.9 C13.0698487,13.9 11.1,11.9301513 11.1,9.5 C11.1,7.06984865 13.0698487,5.1 15.5,5.1 C17.9301514,5.1 19.9,7.06984865 19.9,9.5 C19.8973145,11.9288086 17.9288086,13.8973145 15.5,13.9 Z" id="Shape"></path>
            </g>
        </g>
        <g id="Group" transform="translate(975.000000, 779.000000)">
            <g id="Group-2" fill="#F3F3F3" stroke="#979797">
                <rect id="Rectangle" x="0" y="0" width="346" height="230"></rect>
            </g>
            <rect id="Rectangle" stroke="#979797" fill="#D8D8D8" x="0" y="168" width="346" height="62"></rect>
            <text id="Prototype-name" font-family="AvenirNextforINTUIT-Medium, AvenirNext forINTUIT" font-size="16" font-weight="400" letter-spacing="1.14285714" fill="#000000">
                <tspan x="20" y="194">Prototype name</tspan>
            </text>
            <text id="Dec-5,-2019" font-family="AvenirNextforINTUIT-Medium, AvenirNext forINTUIT" font-size="13" font-weight="400" letter-spacing="0.928571429" fill="#7F7F7F">
                <tspan x="20" y="215">Dec 5, 2019</tspan>
            </text>
            <g id="Group-5" transform="translate(209.000000, 136.000000)">
                <rect id="Rectangle" stroke="#979797" fill="#D8D8D8" x="0" y="0" width="85" height="23" rx="11.5"></rect>
                <text id="GTKM" font-family="AvenirNextforINTUIT-Medium, AvenirNext forINTUIT" font-size="15" font-weight="400" letter-spacing="1.07142857" fill="#000000">
                    <tspan x="18" y="17">GTKM</tspan>
                </text>
            </g>
            <rect id="Rectangle" stroke="#979797" fill="#D8D8D8" x="306" y="136" width="39" height="23" rx="11.5"></rect>
            <g id="Group-6" transform="translate(112.000000, 136.000000)" stroke="#979797">
                <rect id="Rectangle" fill="#D8D8D8" x="0" y="0" width="85" height="23" rx="11.5"></rect>
                <line x1="9.5" y1="22.5" x2="75.5" y2="0.5" id="Line-8" stroke-linecap="square"></line>
                <line x1="9.5" y1="0.5" x2="75.5" y2="22.5" id="Line" stroke-linecap="square"></line>
            </g>
            <g id="Group-6" transform="translate(15.000000, 136.000000)" stroke="#979797">
                <rect id="Rectangle" fill="#D8D8D8" x="0" y="0" width="85" height="23" rx="11.5"></rect>
                <line x1="9.5" y1="22.5" x2="75.5" y2="0.5" id="Line-8" stroke-linecap="square"></line>
                <line x1="9.5" y1="0.5" x2="75.5" y2="22.5" id="Line" stroke-linecap="square"></line>
            </g>
            <rect id="Rectangle" fill="#F3F3F3" x="330" y="114" width="15.5" height="53"></rect>
            <g id="account" transform="translate(303.000000, 9.000000)" fill="#000000" fill-rule="nonzero">
                <path d="M15.5020981,0 C6.94062037,0 0,6.93968099 0,15.5 C0,24.060319 6.94062037,31 15.5020981,31 C15.9691291,31 16.4343939,30.9790609 16.8973879,30.9374349 C17.3278335,30.8988363 17.7544945,30.839803 18.1778753,30.7658854 L18.3406171,30.7371257 C26.2120194,29.2683594 31.6697975,22.0473877 30.9335487,14.0748779 C30.1972999,6.10236815 23.509497,0.00252278646 15.5020981,0 Z M14.2566822,29.9119222 L14.2200968,29.9119222 C13.8181626,29.8763509 13.419256,29.8226155 13.0238818,29.7537435 C13.0011737,29.749707 12.9784656,29.7471842 12.9562621,29.7428955 C12.5697188,29.6737712 12.1872127,29.5879964 11.8084911,29.4878418 L11.7169016,29.4643799 C11.3475157,29.3642253 10.9821668,29.2479248 10.6221164,29.1187582 C10.5847741,29.1053873 10.5471794,29.0935303 10.5098372,29.0796549 C10.1568516,28.9499837 9.81017378,28.8046712 9.46879458,28.6475016 C9.42640603,28.6285807 9.38401748,28.6104167 9.34162894,28.5902344 C9.00680984,28.4353353 8.67855091,28.2607585 8.35659978,28.0770996 C8.31118348,28.0513672 8.26526258,28.0256347 8.21984621,28.0001546 C7.90294134,27.8152344 7.59335359,27.6169434 7.28956899,27.4075521 C7.24364803,27.3755127 7.19722247,27.3444825 7.15155387,27.312443 C6.85306782,27.1007812 6.56215118,26.876001 6.2788039,26.6408773 L6.20083926,26.5727621 L6.20083926,22.2166667 C6.20462397,19.0793294 8.74717999,16.5371175 11.8849419,16.5333333 L19.1192544,16.5333333 C22.2570163,16.5371175 24.7995723,19.0793294 24.803357,22.2166667 L24.803357,26.5732666 L24.734728,26.6305339 C24.4458298,26.8717122 24.1493623,27.0997721 23.8448207,27.3152181 C23.8044507,27.3434733 23.763576,27.3704671 23.7234583,27.3982178 C23.4161413,27.6116455 23.1012549,27.8124593 22.7787992,28.0011637 C22.7384291,28.0246257 22.6970498,28.0468262 22.6569321,28.0700358 C22.330187,28.2559652 21.997891,28.4315511 21.6590349,28.5897298 C21.6201788,28.6078939 21.5810703,28.6247965 21.5417095,28.641447 C21.1975549,28.8001302 20.8478494,28.9461996 20.4923406,29.0768799 C20.4570169,29.0899984 20.4214407,29.1013509 20.3888924,29.1137126 C20.0270759,29.2433838 19.660213,29.3606934 19.2888086,29.4613525 L19.1997422,29.483553 C18.820516,29.5837076 18.4377575,29.669987 18.0507097,29.7393636 C18.0285062,29.7434001 18.0063026,29.7461752 17.9840991,29.749707 C17.5882203,29.8188314 17.1888092,29.8725667 16.7866226,29.9083903 L16.7500372,29.9083903 C16.3367489,29.9439616 15.9232082,29.9631347 15.5046212,29.9631347 C15.0860344,29.9631347 14.6692136,29.9474935 14.2566822,29.9119222 L14.2566822,29.9119222 Z M25.8368302,25.6153646 L25.8368302,22.2166667 C25.8325409,18.5089274 22.8274955,15.5042887 19.1192544,15.5 L11.8849419,15.5 C8.17670078,15.5042887 5.17165535,18.5089274 5.16736605,22.2166667 L5.16736605,25.6148601 C-0.398149559,19.9353109 -0.336080643,10.8293132 5.30613812,5.22595216 C10.9483568,-0.377156592 20.0558395,-0.377156592 25.6980582,5.22595216 C31.3402769,10.8293132 31.4023459,19.9353109 25.8368302,25.6148601 L25.8368302,25.6153646 Z" id="Shape"></path>
                <path d="M15.5,4 C12.4623779,4 10,6.46237791 10,9.5 C10,12.5376221 12.4623779,15 15.5,15 C18.5376221,15 21,12.5376221 21,9.5 C20.9967773,6.46372074 18.5362793,4.00322266 15.5,4 Z M15.5,13.9 C13.0698487,13.9 11.1,11.9301513 11.1,9.5 C11.1,7.06984865 13.0698487,5.1 15.5,5.1 C17.9301514,5.1 19.9,7.06984865 19.9,9.5 C19.8973145,11.9288086 17.9288086,13.8973145 15.5,13.9 Z" id="Shape"></path>
            </g>
        </g>
        <rect id="Rectangle" stroke="#979797" fill="#D8D8D8" x="1197" y="128" width="126" height="37"></rect>
        <text id="New" font-family="AvenirNextforINTUIT-Medium, AvenirNext forINTUIT" font-size="25" font-weight="400" letter-spacing="1.78571429" fill="#000000">
            <tspan x="1230" y="156">New</tspan>
        </text>
        <line x1="21" y1="294" x2="437" y2="294" id="Line-3" stroke="#979797" stroke-linecap="square"></line>
        <text id="Date-created" font-family="AvenirNextforINTUIT-Medium, AvenirNext forINTUIT" font-size="27" font-weight="400" letter-spacing="2.44398721" fill="#000000">
            <tspan x="35" y="552.5">Date created</tspan>
        </text>
        <text id="to" font-family="AvenirNextforINTUIT-Medium, AvenirNext forINTUIT" font-size="20" font-weight="400" letter-spacing="1.8103609" fill="#000000">
            <tspan x="214" y="598">to</tspan>
        </text>
        <text id="Turbotax-CORE" font-family="AvenirNextforINTUIT-Medium, AvenirNext forINTUIT" font-size="20" font-weight="400" letter-spacing="1.8103609" fill="#000000">
            <tspan x="76" y="387">Turbotax CORE</tspan>
        </text>
        <text id="Turbotax-Live" font-family="AvenirNextforINTUIT-Medium, AvenirNext forINTUIT" font-size="20" font-weight="400" letter-spacing="1.8103609" fill="#000000">
            <tspan x="76" y="424">Turbotax Live</tspan>
        </text>
        <circle id="Oval" stroke="#979797" fill="#D8D8D8" cx="49.5" cy="417.5" r="14.5"></circle>
        <text id="Smartmoney" font-family="AvenirNextforINTUIT-Medium, AvenirNext forINTUIT" font-size="20" font-weight="400" letter-spacing="1.8103609" fill="#000000">
            <tspan x="76" y="461">Smartmoney</tspan>
        </text>
        <circle id="Oval" stroke="#979797" fill="#D8D8D8" cx="49.5" cy="454.5" r="14.5"></circle>
        <circle id="Oval" stroke="#979797" fill="#D8D8D8" cx="49.5" cy="380.5" r="14.5"></circle>
        <circle id="Oval" fill="#000000" cx="49.5" cy="380.5" r="11.5"></circle>
        <line x1="21" y1="500.5" x2="437" y2="500.5" id="Line-3" stroke="#979797" stroke-linecap="square"></line>
        <text id="Initiative" font-family="AvenirNextforINTUIT-Medium, AvenirNext forINTUIT" font-size="27" font-weight="400" letter-spacing="2.44398721" fill="#000000">
            <tspan x="35" y="686.5">Initiative</tspan>
        </text>
        <line x1="21" y1="634.5" x2="437" y2="634.5" id="Line-3" stroke="#979797" stroke-linecap="square"></line>
        <text id="Tags" font-family="AvenirNextforINTUIT-Medium, AvenirNext forINTUIT" font-size="27" font-weight="400" letter-spacing="2.44398721" fill="#000000">
            <tspan x="35" y="827.5">Tags</tspan>
        </text>
        <g id="Group-3" transform="translate(382.000000, 725.000000)" stroke="#000000" stroke-linecap="square" stroke-width="2">
            <line x1="0.24" y1="0.208333333" x2="11.76" y2="9.79166667" id="Line-3"></line>
            <line x1="23" y1="0" x2="12.2391304" y2="9.79166667" id="Line-3"></line>
        </g>
        <text id="Premier" font-family="AvenirNextforINTUIT-Medium, AvenirNext forINTUIT" font-size="20" font-weight="400" letter-spacing="1.8103609" fill="#000000">
            <tspan x="56" y="737">Premier</tspan>
        </text>
        <line x1="21" y1="775.5" x2="437" y2="775.5" id="Line-3" stroke="#979797" stroke-linecap="square"></line>
    </g>
</svg>