<?xml version="1.0" encoding="UTF-8"?>
<svg width="667px" height="1002px" viewBox="0 0 667 1002" version="1.1" xmlns="http://www.w3.org/2000/svg" xmlns:xlink="http://www.w3.org/1999/xlink">
    <title>pyro_research_sample</title>
    <g id="pyro_research_sample" stroke="none" stroke-width="1" fill="none" fill-rule="evenodd">
        <rect fill="#FFFFFF" x="0" y="0" width="667" height="1002"></rect>
        <circle id="Oval" fill-opacity="0.49" fill="#4E2B8F" cx="168.5" cy="291.5" r="112.5"></circle>
        <g id="Group" transform="translate(226.000000, 349.000000)">
            <circle id="Oval" stroke="#FFFFFF" stroke-width="5" fill="#87A2B5" cx="27.5" cy="27.5" r="27.5"></circle>
            <text id="6" font-family="AvenirNextforINTUIT-Bold, AvenirNext forINTUIT" font-size="30" font-weight="bold" letter-spacing="-0.0923077174" fill="#FFFFFF">
                <tspan x="18.3561539" y="38">6</tspan>
            </text>
        </g>
        <rect id="Rectangle" fill="#2485CC" x="37" y="31" width="593" height="101"></rect>
        <path d="M171.236231,96 L171.236231,84.198 L173.672231,84.198 L180.098231,96 L188.498231,96 L180.728231,83.274 C184.550231,82.098 186.902231,79.242 186.902231,75.252 C186.902231,68.448 181.232231,66.264 175.520231,66.264 L164.180231,66.264 L164.180231,96 L171.236231,96 Z M174.596231,78.99 L171.194231,78.99 L171.194231,72.06 L175.016231,72.06 C177.158231,72.06 179.804231,72.606 179.804231,75.378 C179.804231,78.402 176.906231,78.99 174.596231,78.99 Z M201.473,96.672 C205.715,96.672 208.991,95.076 210.965,92.22 L206.177,89.196 C205.253,90.456 203.741,91.38 201.557,91.38 C199.079,91.38 196.769,89.742 196.559,87.432 L211.721,87.432 C211.763,86.928 211.763,86.34 211.763,85.794 C211.763,78.654 207.437,74.412 201.263,74.412 C194.921,74.412 189.965,78.78 189.965,85.626 C189.965,92.682 195.173,96.672 201.473,96.672 Z M205.421,83.148 L196.559,83.148 C196.727,81.006 198.659,79.158 201.305,79.158 C204.035,79.158 205.421,80.964 205.421,83.148 Z M222.805769,96.672 C227.089769,96.672 231.751769,94.824 231.751769,89.532 C231.751769,85.458 228.265769,83.862 225.073769,83.148 C222.385769,82.56 221.251769,82.224 221.251769,81.048 C221.251769,79.83 222.553769,79.368 223.855769,79.368 C225.535769,79.368 227.131769,80.208 228.223769,81.258 L232.003769,77.352 C229.945769,75.42 226.711769,74.412 223.603769,74.412 C219.613769,74.412 214.909769,76.428 214.909769,81.426 C214.909769,85.374 218.101769,86.844 220.999769,87.516 C223.855769,88.188 225.157769,88.608 225.157769,89.91 C225.157769,91.254 223.813769,91.716 222.679769,91.716 C220.663769,91.716 218.773769,90.708 217.555769,89.364 L213.691769,93.438 C215.875769,95.538 219.403769,96.672 222.805769,96.672 Z M246.070539,96.672 C250.312539,96.672 253.588539,95.076 255.562539,92.22 L250.774539,89.196 C249.850539,90.456 248.338539,91.38 246.154539,91.38 C243.676539,91.38 241.366539,89.742 241.156539,87.432 L256.318539,87.432 C256.360539,86.928 256.360539,86.34 256.360539,85.794 C256.360539,78.654 252.034539,74.412 245.860539,74.412 C239.518539,74.412 234.562539,78.78 234.562539,85.626 C234.562539,92.682 239.770539,96.672 246.070539,96.672 Z M250.018539,83.148 L241.156539,83.148 C241.324539,81.006 243.256539,79.158 245.902539,79.158 C248.632539,79.158 250.018539,80.964 250.018539,83.148 Z M266.563308,96.504 C269.041308,96.504 271.435308,95.496 272.485308,93.774 L272.611308,93.774 L272.611308,96 L278.911308,96 L278.911308,85.458 C278.911308,77.856 276.307308,74.412 269.293308,74.412 C265.891308,74.412 262.405308,75.63 259.969308,77.94 L263.455308,81.678 C264.715308,80.502 266.647308,79.536 268.621308,79.536 C270.763308,79.536 272.401308,80.502 272.401308,82.56 L272.401308,82.896 C266.311308,82.896 258.961308,83.904 258.961308,89.952 C258.961308,94.866 263.245308,96.504 266.563308,96.504 Z M268.285308,91.884 C266.899308,91.884 265.303308,91.338 265.303308,89.742 C265.303308,87.264 268.705308,86.886 271.729308,86.886 L272.611308,86.886 L272.611308,87.6 C272.611308,90.204 271.057308,91.884 268.285308,91.884 Z M290.794077,96 L290.794077,85.248 C290.794077,83.526 292.012077,80.502 295.708077,80.502 C296.254077,80.502 296.842077,80.544 297.472077,80.712 L297.766077,74.664 C297.430077,74.538 296.842077,74.496 296.296077,74.496 C293.734077,74.496 291.676077,76.008 290.626077,78.108 L290.542077,78.108 L290.542077,75.084 L283.906077,75.084 L283.906077,96 L290.794077,96 Z M310.320846,96.672 C313.386846,96.672 316.326846,95.664 318.048846,93.984 L314.226846,89.322 C313.386846,90.33 311.874846,90.876 310.488846,90.876 C307.464846,90.876 305.574846,88.44 305.574846,85.542 C305.574846,82.644 307.506846,80.166 310.404846,80.166 C311.790846,80.166 313.302846,80.838 314.058846,81.846 L318.048846,77.226 C316.410846,75.546 313.260846,74.412 310.278846,74.412 C303.768846,74.412 298.602846,78.738 298.602846,85.542 C298.602846,92.472 303.726846,96.672 310.320846,96.672 Z M327.621615,96 L327.621615,84.702 C327.621615,82.224 328.965615,80.25 331.359615,80.25 C333.837615,80.25 334.425615,82.308 334.425615,84.66 L334.425615,96 L341.355615,96 L341.355615,83.064 C341.355615,78.864 339.381615,74.496 333.711615,74.496 C330.813615,74.496 328.629615,76.05 327.705615,77.73 L327.621615,77.73 L327.621615,64.248 L320.733615,64.248 L320.733615,96 L327.621615,96 Z M365.877154,96.756 C371.757154,96.756 377.259154,93.69 377.259154,86.844 C377.259154,80.922 372.051154,79.2 368.019154,77.898 C365.205154,77.016 363.441154,76.386 363.441154,74.412 C363.441154,72.06 365.751154,71.43 367.599154,71.43 C369.447154,71.43 371.673154,72.438 372.891154,73.992 L377.469154,69.162 C374.865154,66.768 371.085154,65.508 367.725154,65.508 C362.181154,65.508 356.217154,68.238 356.217154,74.832 C356.217154,80.208 360.039154,82.14 363.819154,83.358 C367.725154,84.618 369.993154,85.332 369.993154,87.6 C369.993154,89.994 368.061154,90.834 365.877154,90.834 C363.525154,90.834 360.879154,89.49 359.451154,87.684 L354.747154,92.472 C357.351154,95.202 361.635154,96.756 365.877154,96.756 Z M387.797923,96.504 C390.275923,96.504 392.669923,95.496 393.719923,93.774 L393.845923,93.774 L393.845923,96 L400.145923,96 L400.145923,85.458 C400.145923,77.856 397.541923,74.412 390.527923,74.412 C387.125923,74.412 383.639923,75.63 381.203923,77.94 L384.689923,81.678 C385.949923,80.502 387.881923,79.536 389.855923,79.536 C391.997923,79.536 393.635923,80.502 393.635923,82.56 L393.635923,82.896 C387.545923,82.896 380.195923,83.904 380.195923,89.952 C380.195923,94.866 384.479923,96.504 387.797923,96.504 Z M389.519923,91.884 C388.133923,91.884 386.537923,91.338 386.537923,89.742 C386.537923,87.264 389.939923,86.886 392.963923,86.886 L393.845923,86.886 L393.845923,87.6 C393.845923,90.204 392.291923,91.884 389.519923,91.884 Z M412.070692,96 L412.070692,84.66 C412.070692,82.14 413.330692,80.166 415.514692,80.166 C417.572692,80.166 418.496692,81.678 418.496692,84.072 L418.496692,96 L425.384692,96 L425.384692,84.702 C425.384692,82.35 426.518692,80.166 428.870692,80.166 C431.306692,80.166 431.852692,82.182 431.852692,84.576 L431.852692,96 L438.740692,96 L438.740692,83.064 C438.740692,79.116 436.808692,74.496 431.138692,74.496 C428.030692,74.496 425.846692,75.882 424.460692,78.066 C423.284692,75.798 421.184692,74.496 418.160692,74.496 C415.010692,74.496 412.868692,76.218 411.902692,77.982 L411.818692,77.982 L411.818692,75.084 L405.140692,75.084 L405.140692,96 L412.070692,96 Z M450.707461,106.08 L450.707461,93.69 L450.791461,93.69 C452.093461,95.496 454.571461,96.588 457.133461,96.588 C463.433461,96.588 467.087461,91.296 467.087461,85.458 C467.087461,79.62 463.265461,74.496 457.175461,74.496 C454.109461,74.496 451.757461,75.966 450.497461,77.646 L450.371461,77.646 L450.371461,75.084 L443.819461,75.084 L443.819461,106.08 L450.707461,106.08 Z M455.495461,90.876 C452.387461,90.876 450.455461,88.23 450.455461,85.5 C450.455461,82.854 452.387461,80.124 455.495461,80.124 C458.771461,80.124 460.409461,82.77 460.409461,85.458 C460.409461,88.188 458.771461,90.876 455.495461,90.876 Z M478.340231,96 L478.340231,64.248 L471.368231,64.248 L471.368231,96 L478.340231,96 Z M494.129,96.672 C498.371,96.672 501.647,95.076 503.621,92.22 L498.833,89.196 C497.909,90.456 496.397,91.38 494.213,91.38 C491.735,91.38 489.425,89.742 489.215,87.432 L504.377,87.432 C504.419,86.928 504.419,86.34 504.419,85.794 C504.419,78.654 500.093,74.412 493.919,74.412 C487.577,74.412 482.621,78.78 482.621,85.626 C482.621,92.682 487.829,96.672 494.129,96.672 Z M498.077,83.148 L489.215,83.148 C489.383,81.006 491.315,79.158 493.961,79.158 C496.691,79.158 498.077,80.964 498.077,83.148 Z" id="ResearchSample" fill="#FFFFFF" fill-rule="nonzero"></path>
        <path d="M112.435577,286 L112.435577,268.3 L109.285577,268.3 L109.285577,286 L112.435577,286 Z M119.108654,286 L119.108654,279.4 C119.108654,277.8 120.008654,276.15 121.908654,276.15 C123.833654,276.15 124.158654,277.925 124.158654,279.35 L124.158654,286 L127.158654,286 L127.158654,278.5 C127.158654,276.05 125.858654,273.65 122.733654,273.65 C120.958654,273.65 119.533654,274.725 119.008654,275.925 L118.958654,275.925 L118.958654,274 L116.108654,274 L116.108654,286 L119.108654,286 Z M134.856731,286.25 C135.531731,286.25 136.331731,286.125 136.856731,285.925 L136.756731,283.575 C136.406731,283.75 135.881731,283.825 135.481731,283.825 C134.156731,283.825 133.906731,283.05 133.906731,281.975 L133.906731,276.4 L136.906731,276.4 L136.906731,274 L133.906731,274 L133.906731,270.525 L130.956731,270.525 L130.956731,274 L128.856731,274 L128.856731,276.4 L130.956731,276.4 L130.956731,282 C130.956731,284.3 131.681731,286.25 134.856731,286.25 Z M144.754808,286.35 C147.029808,286.35 148.729808,285.55 149.904808,283.95 L147.904808,282.35 C147.229808,283.3 146.229808,283.9 144.729808,283.9 C142.979808,283.9 141.429808,282.65 141.304808,280.95 L150.429808,280.95 C150.454808,280.675 150.454808,280.425 150.454808,280.15 C150.454808,275.825 148.004808,273.65 144.654808,273.65 C141.029808,273.65 138.304808,276.2 138.304808,280.075 C138.304808,283.975 141.054808,286.35 144.754808,286.35 Z M147.454808,278.8 L141.304808,278.8 C141.429808,277.125 142.854808,275.9 144.629808,275.9 C146.579808,275.9 147.454808,277.25 147.454808,278.8 Z M156.277885,286 L156.277885,279.575 C156.277885,278.7 156.802885,276.35 159.502885,276.35 C159.777885,276.35 160.027885,276.375 160.427885,276.475 L160.427885,273.725 C160.227885,273.675 159.927885,273.65 159.702885,273.65 C158.127885,273.65 156.852885,274.625 156.202885,276 L156.152885,276 L156.152885,274 L153.277885,274 L153.277885,286 L156.277885,286 Z M165.625962,286.3 C167.325962,286.3 168.750962,285.525 169.350962,284.475 L169.425962,284.475 L169.425962,286 L172.225962,286 L172.225962,278.7 C172.225962,276.3 171.175962,273.65 166.875962,273.65 C165.050962,273.65 163.150962,274.3 161.800962,275.55 L163.350962,277.375 C164.125962,276.6 165.350962,276 166.625962,276 C168.125962,276 169.375962,276.725 169.375962,278.2 L169.375962,278.5 C165.625962,278.5 161.125962,279 161.125962,282.575 C161.125962,285.375 163.700962,286.3 165.625962,286.3 Z M166.225962,284.025 C165.200962,284.025 164.125962,283.675 164.125962,282.525 C164.125962,280.75 166.800962,280.525 168.700962,280.525 L169.375962,280.525 L169.375962,280.95 C169.375962,282.85 168.275962,284.025 166.225962,284.025 Z M181.449038,286.35 C183.224038,286.35 184.874038,285.75 185.874038,284.675 L183.999038,282.775 C183.424038,283.475 182.399038,283.85 181.474038,283.85 C179.199038,283.85 178.074038,281.875 178.074038,280 C178.074038,278.125 179.174038,276.15 181.374038,276.15 C182.349038,276.15 183.374038,276.65 183.849038,277.325 L185.899038,275.525 C184.949038,274.35 183.124038,273.65 181.374038,273.65 C177.849038,273.65 174.949038,276.1 174.949038,280 C174.949038,284 177.899038,286.35 181.449038,286.35 Z M192.047115,286.25 C192.722115,286.25 193.522115,286.125 194.047115,285.925 L193.947115,283.575 C193.597115,283.75 193.072115,283.825 192.672115,283.825 C191.347115,283.825 191.097115,283.05 191.097115,281.975 L191.097115,276.4 L194.097115,276.4 L194.097115,274 L191.097115,274 L191.097115,270.525 L188.147115,270.525 L188.147115,274 L186.047115,274 L186.047115,276.4 L188.147115,276.4 L188.147115,282 C188.147115,284.3 188.872115,286.25 192.047115,286.25 Z M197.720192,271.725 C198.820192,271.725 199.670192,270.95 199.670192,269.925 C199.670192,268.9 198.820192,268.125 197.720192,268.125 C196.620192,268.125 195.820192,268.975 195.820192,269.925 C195.820192,270.875 196.620192,271.725 197.720192,271.725 Z M199.245192,286 L199.245192,274 L196.245192,274 L196.245192,286 L199.245192,286 Z M208.643269,286.35 C212.268269,286.35 215.168269,283.725 215.168269,279.95 C215.168269,276.175 212.268269,273.65 208.643269,273.65 C205.018269,273.65 202.118269,276.175 202.118269,279.95 C202.118269,283.725 205.018269,286.35 208.643269,286.35 Z M208.643269,283.85 C206.268269,283.85 205.168269,281.825 205.168269,279.95 C205.168269,278.075 206.268269,276.1 208.643269,276.1 C211.018269,276.1 212.118269,278.075 212.118269,279.95 C212.118269,281.825 211.018269,283.85 208.643269,283.85 Z M220.991346,286 L220.991346,279.4 C220.991346,277.8 221.891346,276.15 223.791346,276.15 C225.716346,276.15 226.041346,277.925 226.041346,279.35 L226.041346,286 L229.041346,286 L229.041346,278.5 C229.041346,276.05 227.741346,273.65 224.616346,273.65 C222.841346,273.65 221.416346,274.725 220.891346,275.925 L220.841346,275.925 L220.841346,274 L217.991346,274 L217.991346,286 L220.991346,286 Z M119.871154,316.35 C121.546154,316.35 123.171154,315.575 123.996154,314.2 L124.046154,314.2 L124.046154,316 L126.896154,316 L126.896154,297.1 L123.896154,297.1 L123.896154,305.525 L123.821154,305.525 C123.196154,304.75 121.996154,303.65 119.796154,303.65 C116.371154,303.65 113.971154,306.4 113.971154,309.95 C113.971154,313.45 116.221154,316.35 119.871154,316.35 Z M120.471154,313.85 C118.146154,313.85 117.021154,311.825 117.021154,309.95 C117.021154,308.075 118.146154,306.1 120.471154,306.1 C122.671154,306.1 123.996154,308.125 123.996154,310 C123.996154,311.875 122.671154,313.85 120.471154,313.85 Z M136.219231,316.35 C138.494231,316.35 140.194231,315.55 141.369231,313.95 L139.369231,312.35 C138.694231,313.3 137.694231,313.9 136.194231,313.9 C134.444231,313.9 132.894231,312.65 132.769231,310.95 L141.894231,310.95 C141.919231,310.675 141.919231,310.425 141.919231,310.15 C141.919231,305.825 139.469231,303.65 136.119231,303.65 C132.494231,303.65 129.769231,306.2 129.769231,310.075 C129.769231,313.975 132.519231,316.35 136.219231,316.35 Z M138.919231,308.8 L132.769231,308.8 C132.894231,307.125 134.319231,305.9 136.094231,305.9 C138.044231,305.9 138.919231,307.25 138.919231,308.8 Z M148.242308,316.35 C150.867308,316.35 153.242308,315.275 153.242308,312.35 C153.242308,310 151.142308,309.2 149.367308,308.775 C147.692308,308.375 146.767308,308.125 146.767308,307.2 C146.767308,306.25 147.742308,305.9 148.692308,305.9 C149.792308,305.9 150.792308,306.5 151.317308,307.2 L153.267308,305.475 C152.292308,304.25 150.492308,303.65 148.767308,303.65 C146.392308,303.65 143.992308,304.8 143.992308,307.475 C143.992308,309.725 145.767308,310.45 147.542308,310.875 C149.367308,311.3 150.292308,311.6 150.292308,312.6 C150.292308,313.675 149.242308,314.025 148.367308,314.025 C147.067308,314.025 145.942308,313.375 145.292308,312.525 L143.317308,314.375 C144.467308,315.65 146.392308,316.35 148.242308,316.35 Z M157.290385,301.725 C158.390385,301.725 159.240385,300.95 159.240385,299.925 C159.240385,298.9 158.390385,298.125 157.290385,298.125 C156.190385,298.125 155.390385,298.975 155.390385,299.925 C155.390385,300.875 156.190385,301.725 157.290385,301.725 Z M158.815385,316 L158.815385,304 L155.815385,304 L155.815385,316 L158.815385,316 Z M167.813462,322 C172.488462,322 174.588462,319.25 174.588462,314.925 L174.588462,304 L171.738462,304 L171.738462,305.8 L171.688462,305.8 C170.813462,304.35 169.238462,303.65 167.563462,303.65 C163.938462,303.65 161.688462,306.475 161.688462,309.95 C161.688462,313.35 164.013462,316.2 167.613462,316.2 C169.263462,316.2 170.663462,315.575 171.538462,314.4 L171.588462,314.4 L171.588462,315.275 C171.588462,317.65 170.688462,319.4 167.788462,319.4 C166.288462,319.4 164.738462,318.8 163.588462,317.7 L161.863462,320.025 C163.413462,321.3 165.863462,322 167.813462,322 Z M168.163462,313.725 C166.013462,313.725 164.738462,311.825 164.738462,309.925 C164.738462,307.8 166.013462,306.1 168.188462,306.1 C170.363462,306.1 171.738462,307.85 171.738462,309.925 C171.738462,311.925 170.388462,313.725 168.163462,313.725 Z M181.111538,316 L181.111538,309.4 C181.111538,307.8 182.011538,306.15 183.911538,306.15 C185.836538,306.15 186.161538,307.925 186.161538,309.35 L186.161538,316 L189.161538,316 L189.161538,308.5 C189.161538,306.05 187.861538,303.65 184.736538,303.65 C182.961538,303.65 181.536538,304.725 181.011538,305.925 L180.961538,305.925 L180.961538,304 L178.111538,304 L178.111538,316 L181.111538,316 Z M198.334615,316.35 C200.609615,316.35 202.309615,315.55 203.484615,313.95 L201.484615,312.35 C200.809615,313.3 199.809615,313.9 198.309615,313.9 C196.559615,313.9 195.009615,312.65 194.884615,310.95 L204.009615,310.95 C204.034615,310.675 204.034615,310.425 204.034615,310.15 C204.034615,305.825 201.584615,303.65 198.234615,303.65 C194.609615,303.65 191.884615,306.2 191.884615,310.075 C191.884615,313.975 194.634615,316.35 198.334615,316.35 Z M201.034615,308.8 L194.884615,308.8 C195.009615,307.125 196.434615,305.9 198.209615,305.9 C200.159615,305.9 201.034615,307.25 201.034615,308.8 Z M209.857692,316 L209.857692,309.575 C209.857692,308.7 210.382692,306.35 213.082692,306.35 C213.357692,306.35 213.607692,306.375 214.007692,306.475 L214.007692,303.725 C213.807692,303.675 213.507692,303.65 213.282692,303.65 C211.707692,303.65 210.432692,304.625 209.782692,306 L209.732692,306 L209.732692,304 L206.857692,304 L206.857692,316 L209.857692,316 Z M219.380769,316.35 C222.005769,316.35 224.380769,315.275 224.380769,312.35 C224.380769,310 222.280769,309.2 220.505769,308.775 C218.830769,308.375 217.905769,308.125 217.905769,307.2 C217.905769,306.25 218.880769,305.9 219.830769,305.9 C220.930769,305.9 221.930769,306.5 222.455769,307.2 L224.405769,305.475 C223.430769,304.25 221.630769,303.65 219.905769,303.65 C217.530769,303.65 215.130769,304.8 215.130769,307.475 C215.130769,309.725 216.905769,310.45 218.680769,310.875 C220.505769,311.3 221.430769,311.6 221.430769,312.6 C221.430769,313.675 220.380769,314.025 219.505769,314.025 C218.205769,314.025 217.080769,313.375 216.430769,312.525 L214.455769,314.375 C215.605769,315.65 217.530769,316.35 219.380769,316.35 Z" id="Interactiondesigners" fill="#000000" fill-rule="nonzero"></path>
        <circle id="Oval" fill-opacity="0.812254152" fill="#F25A52" cx="498.5" cy="291.5" r="112.5"></circle>
        <g id="Group" transform="translate(556.000000, 349.000000)">
            <circle id="Oval" stroke="#FFFFFF" stroke-width="5" fill="#87A2B5" cx="27.5" cy="27.5" r="27.5"></circle>
            <text id="4" font-family="AvenirNextforINTUIT-Bold, AvenirNext forINTUIT" font-size="30" font-weight="bold" letter-spacing="-0.0923077174" fill="#FFFFFF">
                <tspan x="18.3561539" y="38">4</tspan>
            </text>
        </g>
        <path d="M459.319231,286 L459.319231,278.675 L461.744231,278.675 C465.494231,278.675 468.619231,277.325 468.619231,273.425 C468.619231,269.725 465.994231,268.3 461.944231,268.3 L456.169231,268.3 L456.169231,286 L459.319231,286 Z M461.519231,276.025 L459.319231,276.025 L459.319231,270.95 L461.619231,270.95 C463.569231,270.95 465.444231,271.325 465.444231,273.425 C465.444231,275.525 463.569231,276.025 461.519231,276.025 Z M473.042308,286 L473.042308,279.575 C473.042308,278.7 473.567308,276.35 476.267308,276.35 C476.542308,276.35 476.792308,276.375 477.192308,276.475 L477.192308,273.725 C476.992308,273.675 476.692308,273.65 476.467308,273.65 C474.892308,273.65 473.617308,274.625 472.967308,276 L472.917308,276 L472.917308,274 L470.042308,274 L470.042308,286 L473.042308,286 Z M484.440385,286.35 C488.065385,286.35 490.965385,283.725 490.965385,279.95 C490.965385,276.175 488.065385,273.65 484.440385,273.65 C480.815385,273.65 477.915385,276.175 477.915385,279.95 C477.915385,283.725 480.815385,286.35 484.440385,286.35 Z M484.440385,283.85 C482.065385,283.85 480.965385,281.825 480.965385,279.95 C480.965385,278.075 482.065385,276.1 484.440385,276.1 C486.815385,276.1 487.915385,278.075 487.915385,279.95 C487.915385,281.825 486.815385,283.85 484.440385,283.85 Z M498.963462,286.35 C500.638462,286.35 502.263462,285.575 503.088462,284.2 L503.138462,284.2 L503.138462,286 L505.988462,286 L505.988462,267.1 L502.988462,267.1 L502.988462,275.525 L502.913462,275.525 C502.288462,274.75 501.088462,273.65 498.888462,273.65 C495.463462,273.65 493.063462,276.4 493.063462,279.95 C493.063462,283.45 495.313462,286.35 498.963462,286.35 Z M499.563462,283.85 C497.238462,283.85 496.113462,281.825 496.113462,279.95 C496.113462,278.075 497.238462,276.1 499.563462,276.1 C501.763462,276.1 503.088462,278.125 503.088462,280 C503.088462,281.875 501.763462,283.85 499.563462,283.85 Z M513.886538,286.35 C515.661538,286.35 517.086538,285.275 517.611538,284.075 L517.661538,284.075 L517.661538,286 L520.511538,286 L520.511538,274 L517.511538,274 L517.511538,280.6 C517.511538,282.2 516.611538,283.85 514.711538,283.85 C512.786538,283.85 512.461538,282.075 512.461538,280.65 L512.461538,274 L509.461538,274 L509.461538,281.5 C509.461538,283.95 510.761538,286.35 513.886538,286.35 Z M529.834615,286.35 C531.609615,286.35 533.259615,285.75 534.259615,284.675 L532.384615,282.775 C531.809615,283.475 530.784615,283.85 529.859615,283.85 C527.584615,283.85 526.459615,281.875 526.459615,280 C526.459615,278.125 527.559615,276.15 529.759615,276.15 C530.734615,276.15 531.759615,276.65 532.234615,277.325 L534.284615,275.525 C533.334615,274.35 531.509615,273.65 529.759615,273.65 C526.234615,273.65 523.334615,276.1 523.334615,280 C523.334615,284 526.284615,286.35 529.834615,286.35 Z M540.432692,286.25 C541.107692,286.25 541.907692,286.125 542.432692,285.925 L542.332692,283.575 C541.982692,283.75 541.457692,283.825 541.057692,283.825 C539.732692,283.825 539.482692,283.05 539.482692,281.975 L539.482692,276.4 L542.482692,276.4 L542.482692,274 L539.482692,274 L539.482692,270.525 L536.532692,270.525 L536.532692,274 L534.432692,274 L534.432692,276.4 L536.532692,276.4 L536.532692,282 C536.532692,284.3 537.257692,286.25 540.432692,286.25 Z M446.282692,316 L446.282692,309.4 C446.282692,307.8 447.107692,306.15 448.907692,306.15 C450.432692,306.15 451.132692,307.275 451.132692,308.75 L451.132692,316 L454.132692,316 L454.132692,309.45 C454.132692,307.9 454.907692,306.15 456.782692,306.15 C458.707692,306.15 459.032692,307.925 459.032692,309.35 L459.032692,316 L462.032692,316 L462.032692,308.5 C462.032692,306.05 460.732692,303.65 457.607692,303.65 C455.807692,303.65 454.457692,304.475 453.657692,305.925 C452.982692,304.575 451.757692,303.65 449.907692,303.65 C447.982692,303.65 446.707692,304.75 446.182692,305.925 L446.132692,305.925 L446.132692,304 L443.282692,304 L443.282692,316 L446.282692,316 Z M469.105769,316.3 C470.805769,316.3 472.230769,315.525 472.830769,314.475 L472.905769,314.475 L472.905769,316 L475.705769,316 L475.705769,308.7 C475.705769,306.3 474.655769,303.65 470.355769,303.65 C468.530769,303.65 466.630769,304.3 465.280769,305.55 L466.830769,307.375 C467.605769,306.6 468.830769,306 470.105769,306 C471.605769,306 472.855769,306.725 472.855769,308.2 L472.855769,308.5 C469.105769,308.5 464.605769,309 464.605769,312.575 C464.605769,315.375 467.180769,316.3 469.105769,316.3 Z M469.705769,314.025 C468.680769,314.025 467.605769,313.675 467.605769,312.525 C467.605769,310.75 470.280769,310.525 472.180769,310.525 L472.855769,310.525 L472.855769,310.95 C472.855769,312.85 471.755769,314.025 469.705769,314.025 Z M482.128846,316 L482.128846,309.4 C482.128846,307.8 483.028846,306.15 484.928846,306.15 C486.853846,306.15 487.178846,307.925 487.178846,309.35 L487.178846,316 L490.178846,316 L490.178846,308.5 C490.178846,306.05 488.878846,303.65 485.753846,303.65 C483.978846,303.65 482.553846,304.725 482.028846,305.925 L481.978846,305.925 L481.978846,304 L479.128846,304 L479.128846,316 L482.128846,316 Z M497.251923,316.3 C498.951923,316.3 500.376923,315.525 500.976923,314.475 L501.051923,314.475 L501.051923,316 L503.851923,316 L503.851923,308.7 C503.851923,306.3 502.801923,303.65 498.501923,303.65 C496.676923,303.65 494.776923,304.3 493.426923,305.55 L494.976923,307.375 C495.751923,306.6 496.976923,306 498.251923,306 C499.751923,306 501.001923,306.725 501.001923,308.2 L501.001923,308.5 C497.251923,308.5 492.751923,309 492.751923,312.575 C492.751923,315.375 495.326923,316.3 497.251923,316.3 Z M497.851923,314.025 C496.826923,314.025 495.751923,313.675 495.751923,312.525 C495.751923,310.75 498.426923,310.525 500.326923,310.525 L501.001923,310.525 L501.001923,310.95 C501.001923,312.85 499.901923,314.025 497.851923,314.025 Z M512.7,322 C517.375,322 519.475,319.25 519.475,314.925 L519.475,304 L516.625,304 L516.625,305.8 L516.575,305.8 C515.7,304.35 514.125,303.65 512.45,303.65 C508.825,303.65 506.575,306.475 506.575,309.95 C506.575,313.35 508.9,316.2 512.5,316.2 C514.15,316.2 515.55,315.575 516.425,314.4 L516.475,314.4 L516.475,315.275 C516.475,317.65 515.575,319.4 512.675,319.4 C511.175,319.4 509.625,318.8 508.475,317.7 L506.75,320.025 C508.3,321.3 510.75,322 512.7,322 Z M513.05,313.725 C510.9,313.725 509.625,311.825 509.625,309.925 C509.625,307.8 510.9,306.1 513.075,306.1 C515.25,306.1 516.625,307.85 516.625,309.925 C516.625,311.925 515.275,313.725 513.05,313.725 Z M528.748077,316.35 C531.023077,316.35 532.723077,315.55 533.898077,313.95 L531.898077,312.35 C531.223077,313.3 530.223077,313.9 528.723077,313.9 C526.973077,313.9 525.423077,312.65 525.298077,310.95 L534.423077,310.95 C534.448077,310.675 534.448077,310.425 534.448077,310.15 C534.448077,305.825 531.998077,303.65 528.648077,303.65 C525.023077,303.65 522.298077,306.2 522.298077,310.075 C522.298077,313.975 525.048077,316.35 528.748077,316.35 Z M531.448077,308.8 L525.298077,308.8 C525.423077,307.125 526.848077,305.9 528.623077,305.9 C530.573077,305.9 531.448077,307.25 531.448077,308.8 Z M540.271154,316 L540.271154,309.575 C540.271154,308.7 540.796154,306.35 543.496154,306.35 C543.771154,306.35 544.021154,306.375 544.421154,306.475 L544.421154,303.725 C544.221154,303.675 543.921154,303.65 543.696154,303.65 C542.121154,303.65 540.846154,304.625 540.196154,306 L540.146154,306 L540.146154,304 L537.271154,304 L537.271154,316 L540.271154,316 Z M549.794231,316.35 C552.419231,316.35 554.794231,315.275 554.794231,312.35 C554.794231,310 552.694231,309.2 550.919231,308.775 C549.244231,308.375 548.319231,308.125 548.319231,307.2 C548.319231,306.25 549.294231,305.9 550.244231,305.9 C551.344231,305.9 552.344231,306.5 552.869231,307.2 L554.819231,305.475 C553.844231,304.25 552.044231,303.65 550.319231,303.65 C547.944231,303.65 545.544231,304.8 545.544231,307.475 C545.544231,309.725 547.319231,310.45 549.094231,310.875 C550.919231,311.3 551.844231,311.6 551.844231,312.6 C551.844231,313.675 550.794231,314.025 549.919231,314.025 C548.619231,314.025 547.494231,313.375 546.844231,312.525 L544.869231,314.375 C546.019231,315.65 547.944231,316.35 549.794231,316.35 Z" id="Productmanagers" fill="#000000" fill-rule="nonzero"></path>
        <circle id="Oval" fill="#FFDC00" cx="168.5" cy="563.5" r="112.5"></circle>
        <g id="Group" transform="translate(226.000000, 621.000000)">
            <circle id="Oval" stroke="#FFFFFF" stroke-width="5" fill="#87A2B5" cx="27.5" cy="27.5" r="27.5"></circle>
            <text id="4" font-family="AvenirNextforINTUIT-Bold, AvenirNext forINTUIT" font-size="30" font-weight="bold" letter-spacing="-0.0923077174" fill="#FFFFFF">
                <tspan x="18.3561539" y="38">4</tspan>
            </text>
        </g>
        <circle id="Oval" fill-opacity="0.715881774" fill="#53B700" cx="498.5" cy="563.5" r="112.5"></circle>
        <g id="Group" transform="translate(556.000000, 621.000000)">
            <circle id="Oval" stroke="#FFFFFF" stroke-width="5" fill="#87A2B5" cx="27.5" cy="27.5" r="27.5"></circle>
            <text id="6" font-family="AvenirNextforINTUIT-Bold, AvenirNext forINTUIT" font-size="30" font-weight="bold" letter-spacing="-0.0923077174" fill="#FFFFFF">
                <tspan x="18.3561539" y="38">6</tspan>
            </text>
        </g>
        <path d="M473.868269,558 L480.968269,540.3 L477.568269,540.3 L472.643269,553.925 L472.543269,553.925 L467.668269,540.3 L464.143269,540.3 L471.143269,558 L473.868269,558 Z M483.516346,543.725 C484.616346,543.725 485.466346,542.95 485.466346,541.925 C485.466346,540.9 484.616346,540.125 483.516346,540.125 C482.416346,540.125 481.616346,540.975 481.616346,541.925 C481.616346,542.875 482.416346,543.725 483.516346,543.725 Z M485.041346,558 L485.041346,546 L482.041346,546 L482.041346,558 L485.041346,558 Z M492.114423,558.35 C494.739423,558.35 497.114423,557.275 497.114423,554.35 C497.114423,552 495.014423,551.2 493.239423,550.775 C491.564423,550.375 490.639423,550.125 490.639423,549.2 C490.639423,548.25 491.614423,547.9 492.564423,547.9 C493.664423,547.9 494.664423,548.5 495.189423,549.2 L497.139423,547.475 C496.164423,546.25 494.364423,545.65 492.639423,545.65 C490.264423,545.65 487.864423,546.8 487.864423,549.475 C487.864423,551.725 489.639423,552.45 491.414423,552.875 C493.239423,553.3 494.164423,553.6 494.164423,554.6 C494.164423,555.675 493.114423,556.025 492.239423,556.025 C490.939423,556.025 489.814423,555.375 489.164423,554.525 L487.189423,556.375 C488.339423,557.65 490.264423,558.35 492.114423,558.35 Z M503.9625,558.35 C505.7375,558.35 507.1625,557.275 507.6875,556.075 L507.7375,556.075 L507.7375,558 L510.5875,558 L510.5875,546 L507.5875,546 L507.5875,552.6 C507.5875,554.2 506.6875,555.85 504.7875,555.85 C502.8625,555.85 502.5375,554.075 502.5375,552.65 L502.5375,546 L499.5375,546 L499.5375,553.5 C499.5375,555.95 500.8375,558.35 503.9625,558.35 Z M517.760577,558.3 C519.460577,558.3 520.885577,557.525 521.485577,556.475 L521.560577,556.475 L521.560577,558 L524.360577,558 L524.360577,550.7 C524.360577,548.3 523.310577,545.65 519.010577,545.65 C517.185577,545.65 515.285577,546.3 513.935577,547.55 L515.485577,549.375 C516.260577,548.6 517.485577,548 518.760577,548 C520.260577,548 521.510577,548.725 521.510577,550.2 L521.510577,550.5 C517.760577,550.5 513.260577,551 513.260577,554.575 C513.260577,557.375 515.835577,558.3 517.760577,558.3 Z M518.360577,556.025 C517.335577,556.025 516.260577,555.675 516.260577,554.525 C516.260577,552.75 518.935577,552.525 520.835577,552.525 L521.510577,552.525 L521.510577,552.95 C521.510577,554.85 520.410577,556.025 518.360577,556.025 Z M530.833654,558 L530.833654,539.1 L527.833654,539.1 L527.833654,558 L530.833654,558 Z M449.371154,588.35 C451.046154,588.35 452.671154,587.575 453.496154,586.2 L453.546154,586.2 L453.546154,588 L456.396154,588 L456.396154,569.1 L453.396154,569.1 L453.396154,577.525 L453.321154,577.525 C452.696154,576.75 451.496154,575.65 449.296154,575.65 C445.871154,575.65 443.471154,578.4 443.471154,581.95 C443.471154,585.45 445.721154,588.35 449.371154,588.35 Z M449.971154,585.85 C447.646154,585.85 446.521154,583.825 446.521154,581.95 C446.521154,580.075 447.646154,578.1 449.971154,578.1 C452.171154,578.1 453.496154,580.125 453.496154,582 C453.496154,583.875 452.171154,585.85 449.971154,585.85 Z M465.719231,588.35 C467.994231,588.35 469.694231,587.55 470.869231,585.95 L468.869231,584.35 C468.194231,585.3 467.194231,585.9 465.694231,585.9 C463.944231,585.9 462.394231,584.65 462.269231,582.95 L471.394231,582.95 C471.419231,582.675 471.419231,582.425 471.419231,582.15 C471.419231,577.825 468.969231,575.65 465.619231,575.65 C461.994231,575.65 459.269231,578.2 459.269231,582.075 C459.269231,585.975 462.019231,588.35 465.719231,588.35 Z M468.419231,580.8 L462.269231,580.8 C462.394231,579.125 463.819231,577.9 465.594231,577.9 C467.544231,577.9 468.419231,579.25 468.419231,580.8 Z M477.742308,588.35 C480.367308,588.35 482.742308,587.275 482.742308,584.35 C482.742308,582 480.642308,581.2 478.867308,580.775 C477.192308,580.375 476.267308,580.125 476.267308,579.2 C476.267308,578.25 477.242308,577.9 478.192308,577.9 C479.292308,577.9 480.292308,578.5 480.817308,579.2 L482.767308,577.475 C481.792308,576.25 479.992308,575.65 478.267308,575.65 C475.892308,575.65 473.492308,576.8 473.492308,579.475 C473.492308,581.725 475.267308,582.45 477.042308,582.875 C478.867308,583.3 479.792308,583.6 479.792308,584.6 C479.792308,585.675 478.742308,586.025 477.867308,586.025 C476.567308,586.025 475.442308,585.375 474.792308,584.525 L472.817308,586.375 C473.967308,587.65 475.892308,588.35 477.742308,588.35 Z M486.790385,573.725 C487.890385,573.725 488.740385,572.95 488.740385,571.925 C488.740385,570.9 487.890385,570.125 486.790385,570.125 C485.690385,570.125 484.890385,570.975 484.890385,571.925 C484.890385,572.875 485.690385,573.725 486.790385,573.725 Z M488.315385,588 L488.315385,576 L485.315385,576 L485.315385,588 L488.315385,588 Z M497.313462,594 C501.988462,594 504.088462,591.25 504.088462,586.925 L504.088462,576 L501.238462,576 L501.238462,577.8 L501.188462,577.8 C500.313462,576.35 498.738462,575.65 497.063462,575.65 C493.438462,575.65 491.188462,578.475 491.188462,581.95 C491.188462,585.35 493.513462,588.2 497.113462,588.2 C498.763462,588.2 500.163462,587.575 501.038462,586.4 L501.088462,586.4 L501.088462,587.275 C501.088462,589.65 500.188462,591.4 497.288462,591.4 C495.788462,591.4 494.238462,590.8 493.088462,589.7 L491.363462,592.025 C492.913462,593.3 495.363462,594 497.313462,594 Z M497.663462,585.725 C495.513462,585.725 494.238462,583.825 494.238462,581.925 C494.238462,579.8 495.513462,578.1 497.688462,578.1 C499.863462,578.1 501.238462,579.85 501.238462,581.925 C501.238462,583.925 499.888462,585.725 497.663462,585.725 Z M510.611538,588 L510.611538,581.4 C510.611538,579.8 511.511538,578.15 513.411538,578.15 C515.336538,578.15 515.661538,579.925 515.661538,581.35 L515.661538,588 L518.661538,588 L518.661538,580.5 C518.661538,578.05 517.361538,575.65 514.236538,575.65 C512.461538,575.65 511.036538,576.725 510.511538,577.925 L510.461538,577.925 L510.461538,576 L507.611538,576 L507.611538,588 L510.611538,588 Z M527.834615,588.35 C530.109615,588.35 531.809615,587.55 532.984615,585.95 L530.984615,584.35 C530.309615,585.3 529.309615,585.9 527.809615,585.9 C526.059615,585.9 524.509615,584.65 524.384615,582.95 L533.509615,582.95 C533.534615,582.675 533.534615,582.425 533.534615,582.15 C533.534615,577.825 531.084615,575.65 527.734615,575.65 C524.109615,575.65 521.384615,578.2 521.384615,582.075 C521.384615,585.975 524.134615,588.35 527.834615,588.35 Z M530.534615,580.8 L524.384615,580.8 C524.509615,579.125 525.934615,577.9 527.709615,577.9 C529.659615,577.9 530.534615,579.25 530.534615,580.8 Z M539.357692,588 L539.357692,581.575 C539.357692,580.7 539.882692,578.35 542.582692,578.35 C542.857692,578.35 543.107692,578.375 543.507692,578.475 L543.507692,575.725 C543.307692,575.675 543.007692,575.65 542.782692,575.65 C541.207692,575.65 539.932692,576.625 539.282692,578 L539.232692,578 L539.232692,576 L536.357692,576 L536.357692,588 L539.357692,588 Z M548.880769,588.35 C551.505769,588.35 553.880769,587.275 553.880769,584.35 C553.880769,582 551.780769,581.2 550.005769,580.775 C548.330769,580.375 547.405769,580.125 547.405769,579.2 C547.405769,578.25 548.380769,577.9 549.330769,577.9 C550.430769,577.9 551.430769,578.5 551.955769,579.2 L553.905769,577.475 C552.930769,576.25 551.130769,575.65 549.405769,575.65 C547.030769,575.65 544.630769,576.8 544.630769,579.475 C544.630769,581.725 546.405769,582.45 548.180769,582.875 C550.005769,583.3 550.930769,583.6 550.930769,584.6 C550.930769,585.675 549.880769,586.025 549.005769,586.025 C547.705769,586.025 546.580769,585.375 545.930769,584.525 L543.955769,586.375 C545.105769,587.65 547.030769,588.35 548.880769,588.35 Z" id="Visualdesigners" fill="#000000" fill-rule="nonzero"></path>
        <circle id="Oval" fill="#FF88EC" cx="177.5" cy="835.5" r="112.5"></circle>
        <g id="Group" transform="translate(235.000000, 893.000000)">
            <circle id="Oval" stroke="#FFFFFF" stroke-width="5" fill="#87A2B5" cx="27.5" cy="27.5" r="27.5"></circle>
            <text id="6" font-family="AvenirNextforINTUIT-Bold, AvenirNext forINTUIT" font-size="30" font-weight="bold" letter-spacing="-0.0923077174" fill="#FFFFFF">
                <tspan x="18.3561539" y="38">6</tspan>
            </text>
        </g>
        <path d="M141.919231,830.45 C144.919231,830.45 147.219231,829.3 148.769231,827.35 L146.244231,825.575 C145.344231,826.8 143.844231,827.625 141.944231,827.625 C138.294231,827.625 135.944231,824.95 135.944231,821.1 C135.944231,817.45 138.419231,814.625 142.069231,814.625 C143.494231,814.625 145.169231,815.175 146.094231,816.45 L148.494231,814.55 C147.094231,812.7 144.369231,811.85 142.069231,811.85 C136.619231,811.85 132.469231,815.425 132.469231,821.1 C132.469231,826.625 136.394231,830.45 141.919231,830.45 Z M156.017308,830.35 C159.642308,830.35 162.542308,827.725 162.542308,823.95 C162.542308,820.175 159.642308,817.65 156.017308,817.65 C152.392308,817.65 149.492308,820.175 149.492308,823.95 C149.492308,827.725 152.392308,830.35 156.017308,830.35 Z M156.017308,827.85 C153.642308,827.85 152.542308,825.825 152.542308,823.95 C152.542308,822.075 153.642308,820.1 156.017308,820.1 C158.392308,820.1 159.492308,822.075 159.492308,823.95 C159.492308,825.825 158.392308,827.85 156.017308,827.85 Z M168.365385,830 L168.365385,823.4 C168.365385,821.8 169.265385,820.15 171.165385,820.15 C173.090385,820.15 173.415385,821.925 173.415385,823.35 L173.415385,830 L176.415385,830 L176.415385,822.5 C176.415385,820.05 175.115385,817.65 171.990385,817.65 C170.215385,817.65 168.790385,818.725 168.265385,819.925 L168.215385,819.925 L168.215385,818 L165.365385,818 L165.365385,830 L168.365385,830 Z M184.113462,830.25 C184.788462,830.25 185.588462,830.125 186.113462,829.925 L186.013462,827.575 C185.663462,827.75 185.138462,827.825 184.738462,827.825 C183.413462,827.825 183.163462,827.05 183.163462,825.975 L183.163462,820.4 L186.163462,820.4 L186.163462,818 L183.163462,818 L183.163462,814.525 L180.213462,814.525 L180.213462,818 L178.113462,818 L178.113462,820.4 L180.213462,820.4 L180.213462,826 C180.213462,828.3 180.938462,830.25 184.113462,830.25 Z M194.011538,830.35 C196.286538,830.35 197.986538,829.55 199.161538,827.95 L197.161538,826.35 C196.486538,827.3 195.486538,827.9 193.986538,827.9 C192.236538,827.9 190.686538,826.65 190.561538,824.95 L199.686538,824.95 C199.711538,824.675 199.711538,824.425 199.711538,824.15 C199.711538,819.825 197.261538,817.65 193.911538,817.65 C190.286538,817.65 187.561538,820.2 187.561538,824.075 C187.561538,827.975 190.311538,830.35 194.011538,830.35 Z M196.711538,822.8 L190.561538,822.8 C190.686538,821.125 192.111538,819.9 193.886538,819.9 C195.836538,819.9 196.711538,821.25 196.711538,822.8 Z M205.534615,830 L205.534615,823.4 C205.534615,821.8 206.434615,820.15 208.334615,820.15 C210.259615,820.15 210.584615,821.925 210.584615,823.35 L210.584615,830 L213.584615,830 L213.584615,822.5 C213.584615,820.05 212.284615,817.65 209.159615,817.65 C207.384615,817.65 205.959615,818.725 205.434615,819.925 L205.384615,819.925 L205.384615,818 L202.534615,818 L202.534615,830 L205.534615,830 Z M221.282692,830.25 C221.957692,830.25 222.757692,830.125 223.282692,829.925 L223.182692,827.575 C222.832692,827.75 222.307692,827.825 221.907692,827.825 C220.582692,827.825 220.332692,827.05 220.332692,825.975 L220.332692,820.4 L223.332692,820.4 L223.332692,818 L220.332692,818 L220.332692,814.525 L217.382692,814.525 L217.382692,818 L215.282692,818 L215.282692,820.4 L217.382692,820.4 L217.382692,826 C217.382692,828.3 218.107692,830.25 221.282692,830.25 Z M128.371154,860.35 C130.046154,860.35 131.671154,859.575 132.496154,858.2 L132.546154,858.2 L132.546154,860 L135.396154,860 L135.396154,841.1 L132.396154,841.1 L132.396154,849.525 L132.321154,849.525 C131.696154,848.75 130.496154,847.65 128.296154,847.65 C124.871154,847.65 122.471154,850.4 122.471154,853.95 C122.471154,857.45 124.721154,860.35 128.371154,860.35 Z M128.971154,857.85 C126.646154,857.85 125.521154,855.825 125.521154,853.95 C125.521154,852.075 126.646154,850.1 128.971154,850.1 C131.171154,850.1 132.496154,852.125 132.496154,854 C132.496154,855.875 131.171154,857.85 128.971154,857.85 Z M144.719231,860.35 C146.994231,860.35 148.694231,859.55 149.869231,857.95 L147.869231,856.35 C147.194231,857.3 146.194231,857.9 144.694231,857.9 C142.944231,857.9 141.394231,856.65 141.269231,854.95 L150.394231,854.95 C150.419231,854.675 150.419231,854.425 150.419231,854.15 C150.419231,849.825 147.969231,847.65 144.619231,847.65 C140.994231,847.65 138.269231,850.2 138.269231,854.075 C138.269231,857.975 141.019231,860.35 144.719231,860.35 Z M147.419231,852.8 L141.269231,852.8 C141.394231,851.125 142.819231,849.9 144.594231,849.9 C146.544231,849.9 147.419231,851.25 147.419231,852.8 Z M156.742308,860.35 C159.367308,860.35 161.742308,859.275 161.742308,856.35 C161.742308,854 159.642308,853.2 157.867308,852.775 C156.192308,852.375 155.267308,852.125 155.267308,851.2 C155.267308,850.25 156.242308,849.9 157.192308,849.9 C158.292308,849.9 159.292308,850.5 159.817308,851.2 L161.767308,849.475 C160.792308,848.25 158.992308,847.65 157.267308,847.65 C154.892308,847.65 152.492308,848.8 152.492308,851.475 C152.492308,853.725 154.267308,854.45 156.042308,854.875 C157.867308,855.3 158.792308,855.6 158.792308,856.6 C158.792308,857.675 157.742308,858.025 156.867308,858.025 C155.567308,858.025 154.442308,857.375 153.792308,856.525 L151.817308,858.375 C152.967308,859.65 154.892308,860.35 156.742308,860.35 Z M165.790385,845.725 C166.890385,845.725 167.740385,844.95 167.740385,843.925 C167.740385,842.9 166.890385,842.125 165.790385,842.125 C164.690385,842.125 163.890385,842.975 163.890385,843.925 C163.890385,844.875 164.690385,845.725 165.790385,845.725 Z M167.315385,860 L167.315385,848 L164.315385,848 L164.315385,860 L167.315385,860 Z M176.313462,866 C180.988462,866 183.088462,863.25 183.088462,858.925 L183.088462,848 L180.238462,848 L180.238462,849.8 L180.188462,849.8 C179.313462,848.35 177.738462,847.65 176.063462,847.65 C172.438462,847.65 170.188462,850.475 170.188462,853.95 C170.188462,857.35 172.513462,860.2 176.113462,860.2 C177.763462,860.2 179.163462,859.575 180.038462,858.4 L180.088462,858.4 L180.088462,859.275 C180.088462,861.65 179.188462,863.4 176.288462,863.4 C174.788462,863.4 173.238462,862.8 172.088462,861.7 L170.363462,864.025 C171.913462,865.3 174.363462,866 176.313462,866 Z M176.663462,857.725 C174.513462,857.725 173.238462,855.825 173.238462,853.925 C173.238462,851.8 174.513462,850.1 176.688462,850.1 C178.863462,850.1 180.238462,851.85 180.238462,853.925 C180.238462,855.925 178.888462,857.725 176.663462,857.725 Z M189.611538,860 L189.611538,853.4 C189.611538,851.8 190.511538,850.15 192.411538,850.15 C194.336538,850.15 194.661538,851.925 194.661538,853.35 L194.661538,860 L197.661538,860 L197.661538,852.5 C197.661538,850.05 196.361538,847.65 193.236538,847.65 C191.461538,847.65 190.036538,848.725 189.511538,849.925 L189.461538,849.925 L189.461538,848 L186.611538,848 L186.611538,860 L189.611538,860 Z M206.834615,860.35 C209.109615,860.35 210.809615,859.55 211.984615,857.95 L209.984615,856.35 C209.309615,857.3 208.309615,857.9 206.809615,857.9 C205.059615,857.9 203.509615,856.65 203.384615,854.95 L212.509615,854.95 C212.534615,854.675 212.534615,854.425 212.534615,854.15 C212.534615,849.825 210.084615,847.65 206.734615,847.65 C203.109615,847.65 200.384615,850.2 200.384615,854.075 C200.384615,857.975 203.134615,860.35 206.834615,860.35 Z M209.534615,852.8 L203.384615,852.8 C203.509615,851.125 204.934615,849.9 206.709615,849.9 C208.659615,849.9 209.534615,851.25 209.534615,852.8 Z M218.357692,860 L218.357692,853.575 C218.357692,852.7 218.882692,850.35 221.582692,850.35 C221.857692,850.35 222.107692,850.375 222.507692,850.475 L222.507692,847.725 C222.307692,847.675 222.007692,847.65 221.782692,847.65 C220.207692,847.65 218.932692,848.625 218.282692,850 L218.232692,850 L218.232692,848 L215.357692,848 L215.357692,860 L218.357692,860 Z M227.880769,860.35 C230.505769,860.35 232.880769,859.275 232.880769,856.35 C232.880769,854 230.780769,853.2 229.005769,852.775 C227.330769,852.375 226.405769,852.125 226.405769,851.2 C226.405769,850.25 227.380769,849.9 228.330769,849.9 C229.430769,849.9 230.430769,850.5 230.955769,851.2 L232.905769,849.475 C231.930769,848.25 230.130769,847.65 228.405769,847.65 C226.030769,847.65 223.630769,848.8 223.630769,851.475 C223.630769,853.725 225.405769,854.45 227.180769,854.875 C229.005769,855.3 229.930769,855.6 229.930769,856.6 C229.930769,857.675 228.880769,858.025 228.005769,858.025 C226.705769,858.025 225.580769,857.375 224.930769,856.525 L222.955769,858.375 C224.105769,859.65 226.030769,860.35 227.880769,860.35 Z" id="Contentdesigners" fill="#000000" fill-rule="nonzero"></path>
        <circle id="Oval" fill="#21ABF6" opacity="0.543829055" cx="507.5" cy="835.5" r="112.5"></circle>
        <g id="Group" transform="translate(565.000000, 893.000000)">
            <circle id="Oval" stroke="#FFFFFF" stroke-width="5" fill="#87A2B5" cx="27.5" cy="27.5" r="27.5"></circle>
            <text id="6" font-family="AvenirNextforINTUIT-Bold, AvenirNext forINTUIT" font-size="30" font-weight="bold" letter-spacing="-0.0923077174" fill="#FFFFFF">
                <tspan x="18.3561539" y="38">6</tspan>
            </text>
        </g>
        <path d="M110.634615,573 C115.259615,573 120.409615,570.35 120.409615,564.15 C120.409615,557.5 115.259615,555.3 110.634615,555.3 L104.359615,555.3 L104.359615,573 L110.634615,573 Z M110.134615,570.25 L107.509615,570.25 L107.509615,558 L110.134615,558 C113.384615,558 117.034615,559.075 117.034615,564.15 C117.034615,568.925 113.384615,570.25 110.134615,570.25 Z M128.982692,573.35 C131.257692,573.35 132.957692,572.55 134.132692,570.95 L132.132692,569.35 C131.457692,570.3 130.457692,570.9 128.957692,570.9 C127.207692,570.9 125.657692,569.65 125.532692,567.95 L134.657692,567.95 C134.682692,567.675 134.682692,567.425 134.682692,567.15 C134.682692,562.825 132.232692,560.65 128.882692,560.65 C125.257692,560.65 122.532692,563.2 122.532692,567.075 C122.532692,570.975 125.282692,573.35 128.982692,573.35 Z M131.682692,565.8 L125.532692,565.8 C125.657692,564.125 127.082692,562.9 128.857692,562.9 C130.807692,562.9 131.682692,564.25 131.682692,565.8 Z M143.755769,573 L148.530769,561 L145.355769,561 L142.180769,569.75 L142.130769,569.75 L138.980769,561 L135.705769,561 L140.555769,573 L143.755769,573 Z M156.003846,573.35 C158.278846,573.35 159.978846,572.55 161.153846,570.95 L159.153846,569.35 C158.478846,570.3 157.478846,570.9 155.978846,570.9 C154.228846,570.9 152.678846,569.65 152.553846,567.95 L161.678846,567.95 C161.703846,567.675 161.703846,567.425 161.703846,567.15 C161.703846,562.825 159.253846,560.65 155.903846,560.65 C152.278846,560.65 149.553846,563.2 149.553846,567.075 C149.553846,570.975 152.303846,573.35 156.003846,573.35 Z M158.703846,565.8 L152.553846,565.8 C152.678846,564.125 154.103846,562.9 155.878846,562.9 C157.828846,562.9 158.703846,564.25 158.703846,565.8 Z M167.576923,573 L167.576923,554.1 L164.576923,554.1 L164.576923,573 L167.576923,573 Z M176.975,573.35 C180.6,573.35 183.5,570.725 183.5,566.95 C183.5,563.175 180.6,560.65 176.975,560.65 C173.35,560.65 170.45,563.175 170.45,566.95 C170.45,570.725 173.35,573.35 176.975,573.35 Z M176.975,570.85 C174.6,570.85 173.5,568.825 173.5,566.95 C173.5,565.075 174.6,563.1 176.975,563.1 C179.35,563.1 180.45,565.075 180.45,566.95 C180.45,568.825 179.35,570.85 176.975,570.85 Z M189.323077,579 L189.323077,571.4 L189.373077,571.4 C190.148077,572.6 191.673077,573.35 193.348077,573.35 C196.998077,573.35 199.248077,570.45 199.248077,566.95 C199.248077,563.4 196.848077,560.65 193.423077,560.65 C191.223077,560.65 189.873077,561.725 189.273077,562.675 L189.198077,562.675 L189.198077,561 L186.323077,561 L186.323077,579 L189.323077,579 Z M192.748077,570.85 C190.548077,570.85 189.223077,568.875 189.223077,567 C189.223077,565.125 190.548077,563.1 192.748077,563.1 C195.073077,563.1 196.198077,565.075 196.198077,566.95 C196.198077,568.825 195.073077,570.85 192.748077,570.85 Z M207.821154,573.35 C210.096154,573.35 211.796154,572.55 212.971154,570.95 L210.971154,569.35 C210.296154,570.3 209.296154,570.9 207.796154,570.9 C206.046154,570.9 204.496154,569.65 204.371154,567.95 L213.496154,567.95 C213.521154,567.675 213.521154,567.425 213.521154,567.15 C213.521154,562.825 211.071154,560.65 207.721154,560.65 C204.096154,560.65 201.371154,563.2 201.371154,567.075 C201.371154,570.975 204.121154,573.35 207.821154,573.35 Z M210.521154,565.8 L204.371154,565.8 C204.496154,564.125 205.921154,562.9 207.696154,562.9 C209.646154,562.9 210.521154,564.25 210.521154,565.8 Z M219.344231,573 L219.344231,566.575 C219.344231,565.7 219.869231,563.35 222.569231,563.35 C222.844231,563.35 223.094231,563.375 223.494231,563.475 L223.494231,560.725 C223.294231,560.675 222.994231,560.65 222.769231,560.65 C221.194231,560.65 219.919231,561.625 219.269231,563 L219.219231,563 L219.219231,561 L216.344231,561 L216.344231,573 L219.344231,573 Z M228.867308,573.35 C231.492308,573.35 233.867308,572.275 233.867308,569.35 C233.867308,567 231.767308,566.2 229.992308,565.775 C228.317308,565.375 227.392308,565.125 227.392308,564.2 C227.392308,563.25 228.367308,562.9 229.317308,562.9 C230.417308,562.9 231.417308,563.5 231.942308,564.2 L233.892308,562.475 C232.917308,561.25 231.117308,560.65 229.392308,560.65 C227.017308,560.65 224.617308,561.8 224.617308,564.475 C224.617308,566.725 226.392308,567.45 228.167308,567.875 C229.992308,568.3 230.917308,568.6 230.917308,569.6 C230.917308,570.675 229.867308,571.025 228.992308,571.025 C227.692308,571.025 226.567308,570.375 225.917308,569.525 L223.942308,571.375 C225.092308,572.65 227.017308,573.35 228.867308,573.35 Z" id="Developers" fill="#000000" fill-rule="nonzero"></path>
        <path d="M444.110577,845 L444.110577,837.5 L446.410577,837.5 L450.510577,845 L454.310577,845 L449.585577,837.15 C452.060577,836.6 453.635577,834.925 453.635577,832.375 C453.635577,828.625 450.435577,827.3 447.110577,827.3 L440.960577,827.3 L440.960577,845 L444.110577,845 Z M446.685577,834.925 L444.110577,834.925 L444.110577,829.95 L446.960577,829.95 C448.585577,829.95 450.485577,830.425 450.485577,832.35 C450.485577,834.5 448.460577,834.925 446.685577,834.925 Z M461.908654,845.35 C464.183654,845.35 465.883654,844.55 467.058654,842.95 L465.058654,841.35 C464.383654,842.3 463.383654,842.9 461.883654,842.9 C460.133654,842.9 458.583654,841.65 458.458654,839.95 L467.583654,839.95 C467.608654,839.675 467.608654,839.425 467.608654,839.15 C467.608654,834.825 465.158654,832.65 461.808654,832.65 C458.183654,832.65 455.458654,835.2 455.458654,839.075 C455.458654,842.975 458.208654,845.35 461.908654,845.35 Z M464.608654,837.8 L458.458654,837.8 C458.583654,836.125 460.008654,834.9 461.783654,834.9 C463.733654,834.9 464.608654,836.25 464.608654,837.8 Z M473.931731,845.35 C476.556731,845.35 478.931731,844.275 478.931731,841.35 C478.931731,839 476.831731,838.2 475.056731,837.775 C473.381731,837.375 472.456731,837.125 472.456731,836.2 C472.456731,835.25 473.431731,834.9 474.381731,834.9 C475.481731,834.9 476.481731,835.5 477.006731,836.2 L478.956731,834.475 C477.981731,833.25 476.181731,832.65 474.456731,832.65 C472.081731,832.65 469.681731,833.8 469.681731,836.475 C469.681731,838.725 471.456731,839.45 473.231731,839.875 C475.056731,840.3 475.981731,840.6 475.981731,841.6 C475.981731,842.675 474.931731,843.025 474.056731,843.025 C472.756731,843.025 471.631731,842.375 470.981731,841.525 L469.006731,843.375 C470.156731,844.65 472.081731,845.35 473.931731,845.35 Z M487.204808,845.35 C489.479808,845.35 491.179808,844.55 492.354808,842.95 L490.354808,841.35 C489.679808,842.3 488.679808,842.9 487.179808,842.9 C485.429808,842.9 483.879808,841.65 483.754808,839.95 L492.879808,839.95 C492.904808,839.675 492.904808,839.425 492.904808,839.15 C492.904808,834.825 490.454808,832.65 487.104808,832.65 C483.479808,832.65 480.754808,835.2 480.754808,839.075 C480.754808,842.975 483.504808,845.35 487.204808,845.35 Z M489.904808,837.8 L483.754808,837.8 C483.879808,836.125 485.304808,834.9 487.079808,834.9 C489.029808,834.9 489.904808,836.25 489.904808,837.8 Z M499.227885,845.3 C500.927885,845.3 502.352885,844.525 502.952885,843.475 L503.027885,843.475 L503.027885,845 L505.827885,845 L505.827885,837.7 C505.827885,835.3 504.777885,832.65 500.477885,832.65 C498.652885,832.65 496.752885,833.3 495.402885,834.55 L496.952885,836.375 C497.727885,835.6 498.952885,835 500.227885,835 C501.727885,835 502.977885,835.725 502.977885,837.2 L502.977885,837.5 C499.227885,837.5 494.727885,838 494.727885,841.575 C494.727885,844.375 497.302885,845.3 499.227885,845.3 Z M499.827885,843.025 C498.802885,843.025 497.727885,842.675 497.727885,841.525 C497.727885,839.75 500.402885,839.525 502.302885,839.525 L502.977885,839.525 L502.977885,839.95 C502.977885,841.85 501.877885,843.025 499.827885,843.025 Z M512.250962,845 L512.250962,838.575 C512.250962,837.7 512.775962,835.35 515.475962,835.35 C515.750962,835.35 516.000962,835.375 516.400962,835.475 L516.400962,832.725 C516.200962,832.675 515.900962,832.65 515.675962,832.65 C514.100962,832.65 512.825962,833.625 512.175962,835 L512.125962,835 L512.125962,833 L509.250962,833 L509.250962,845 L512.250962,845 Z M523.624038,845.35 C525.399038,845.35 527.049038,844.75 528.049038,843.675 L526.174038,841.775 C525.599038,842.475 524.574038,842.85 523.649038,842.85 C521.374038,842.85 520.249038,840.875 520.249038,839 C520.249038,837.125 521.349038,835.15 523.549038,835.15 C524.524038,835.15 525.549038,835.65 526.024038,836.325 L528.074038,834.525 C527.124038,833.35 525.299038,832.65 523.549038,832.65 C520.024038,832.65 517.124038,835.1 517.124038,839 C517.124038,843 520.074038,845.35 523.624038,845.35 Z M532.997115,845 L532.997115,838.45 C532.997115,836.85 533.922115,835.225 535.822115,835.225 C537.747115,835.225 538.047115,836.975 538.047115,838.4 L538.047115,845 L541.047115,845 L541.047115,837.5 C541.047115,835.05 539.747115,832.65 536.622115,832.65 C534.847115,832.65 533.522115,833.675 533.047115,834.675 L532.997115,834.675 L532.997115,826.1 L529.997115,826.1 L529.997115,845 L532.997115,845 Z M550.220192,845.35 C552.495192,845.35 554.195192,844.55 555.370192,842.95 L553.370192,841.35 C552.695192,842.3 551.695192,842.9 550.195192,842.9 C548.445192,842.9 546.895192,841.65 546.770192,839.95 L555.895192,839.95 C555.920192,839.675 555.920192,839.425 555.920192,839.15 C555.920192,834.825 553.470192,832.65 550.120192,832.65 C546.495192,832.65 543.770192,835.2 543.770192,839.075 C543.770192,842.975 546.520192,845.35 550.220192,845.35 Z M552.920192,837.8 L546.770192,837.8 C546.895192,836.125 548.320192,834.9 550.095192,834.9 C552.045192,834.9 552.920192,836.25 552.920192,837.8 Z M561.743269,845 L561.743269,838.575 C561.743269,837.7 562.268269,835.35 564.968269,835.35 C565.243269,835.35 565.493269,835.375 565.893269,835.475 L565.893269,832.725 C565.693269,832.675 565.393269,832.65 565.168269,832.65 C563.593269,832.65 562.318269,833.625 561.668269,835 L561.618269,835 L561.618269,833 L558.743269,833 L558.743269,845 L561.743269,845 Z M571.266346,845.35 C573.891346,845.35 576.266346,844.275 576.266346,841.35 C576.266346,839 574.166346,838.2 572.391346,837.775 C570.716346,837.375 569.791346,837.125 569.791346,836.2 C569.791346,835.25 570.766346,834.9 571.716346,834.9 C572.816346,834.9 573.816346,835.5 574.341346,836.2 L576.291346,834.475 C575.316346,833.25 573.516346,832.65 571.791346,832.65 C569.416346,832.65 567.016346,833.8 567.016346,836.475 C567.016346,838.725 568.791346,839.45 570.566346,839.875 C572.391346,840.3 573.316346,840.6 573.316346,841.6 C573.316346,842.675 572.266346,843.025 571.391346,843.025 C570.091346,843.025 568.966346,842.375 568.316346,841.525 L566.341346,843.375 C567.491346,844.65 569.416346,845.35 571.266346,845.35 Z" id="Researchers" fill="#000000" fill-rule="nonzero"></path>
    </g>
</svg>