<?xml version="1.0" encoding="UTF-8"?>
<svg width="2000px" height="1000px" viewBox="0 0 2000 1000" version="1.1" xmlns="http://www.w3.org/2000/svg" xmlns:xlink="http://www.w3.org/1999/xlink">
    <title>wire_intuit</title>
    <g id="wire_intuit" stroke="none" stroke-width="1" fill="none" fill-rule="evenodd">
        <g id="Group" transform="translate(195.000000, 265.017857)" fill="#FFFFFF" fill-rule="nonzero">
          <g class="animated fadeInUp">
              <path d="M268.721476,116.002667 L258.201445,116.002667 C256.064174,116.002667 254.425866,114.850718 254.265521,112.712525 L254.098205,108.589866 C246.533104,114.692999 237.494024,117.982143 227.960962,117.982143 C209.556137,117.982143 202,106.294952 202,88.4956432 L202,39.7733926 C202,36.9713815 203.642292,35.9821429 206.263585,35.9821429 L217.773573,35.9821429 C220.405821,35.9821429 221.886772,36.8016837 221.886772,39.7733926 L221.886772,85.033807 C221.886772,94.0976689 224.18638,100.35353 234.051087,100.35353 C240.286618,100.35353 248.181372,96.8986817 253.112232,92.4506015 L253.112232,39.7733926 C253.112232,36.9713815 254.594179,35.9821429 257.215472,35.9821429 L268.884809,35.9821429 C271.518053,35.9821429 273,36.8016837 273,39.7733926 L273,111.393873 C272.998008,114.850718 272.005064,116.002667 268.721476,116.002667 Z" id="Path"></path>
              <path d="M0,39.2712768 C0,37.300391 0.988885012,35.9821429 2.95967702,35.9821429 L16.8758411,35.9821429 C18.8486268,35.9821429 20,37.1357347 20,39.2712768 L20,111.865736 C20,114.830547 18.6781638,115.982143 15.8879529,115.982143 L4.27852265,115.982143 C1.32682052,115.982143 0,114.830547 0,111.865736 L0,39.2712768 Z" id="Path"></path>
              <path d="M293,39.2712768 C293,37.300391 293.993572,35.9821429 295.961782,35.9821429 L309.872789,35.9821429 C311.848971,35.9821429 313,37.1357347 313,39.2712768 L313,111.865736 C313,114.830547 311.682545,115.982143 308.883203,115.982143 L297.277244,115.982143 C294.325427,115.982143 293,114.830547 293,111.865736 L293,39.2712768 Z" id="Path"></path>
              <path d="M109.022232,115.982143 L97.1069832,115.982143 C94.1291738,115.982143 93.1372393,114.502283 93.1372393,111.699231 L93.1372393,66.9072773 C93.1372393,57.8554848 90.6589076,51.431117 80.5570229,51.431117 C74.0999206,51.431117 66.15943,54.8957652 61.0292532,59.3353446 L61.0292532,111.864879 C61.0292532,114.671923 59.8698232,115.981145 57.0615153,115.981145 L44.9747587,115.981145 C42.4914121,115.981145 41,114.671923 41,112.030528 L41,40.1211163 C41,37.4847106 42.1664508,36.0048508 45.1412512,36.0048508 L55.8940616,36.0048508 C58.2099127,36.0048508 59.7083455,36.6604596 59.8688203,39.1302189 L60.0323039,43.5258915 C67.651845,37.4378101 77.2512433,33.9821429 86.8516444,33.9821429 C105.388483,33.9821429 113,45.5066883 113,63.4556016 L113,111.699231 C112.998997,114.502283 112.009068,115.982143 109.022232,115.982143 Z" id="Path"></path>
              <path d="M167,12.9851176 C167,6.35646115 161.631083,0.982142857 155.001983,0.982142857 C148.376849,0.982142857 143,6.35646115 143,12.9851176 C143,19.613774 148.37784,24.9821429 155.001983,24.9821429 C161.631083,24.9821429 167,19.613774 167,12.9851176 Z" id="Path"></path>
              <path d="M184.861088,35.9821429 C186.842558,35.9821429 188,36.6377824 188,38.7813345 L188,50.3782709 C188,52.353173 186.680356,53.5067792 184.69388,53.5067792 L165.545018,53.5067792 L165.545018,111.865685 C165.545018,114.830532 164.224372,115.982143 161.247662,115.982143 L149.750335,115.982143 C146.775628,115.982143 145.456985,114.830532 145.456985,111.865685 L145.456985,53.5067792 L126.303116,53.5067792 C124.321647,53.5067792 123,52.353173 123,50.3782709 L123,38.7813345 C123,36.6377824 124.15544,35.9821429 126.139913,35.9821429 L184.861088,35.9821429 Z" id="Path"></path>
              <path d="M372,12.9851176 C372,6.35646115 366.626348,0.982142857 359.998513,0.982142857 C353.373652,0.982142857 348,6.35646115 348,12.9851176 C348,19.613774 353.373652,24.9821429 359.998513,24.9821429 C366.626348,24.9821429 372,19.613774 372,12.9851176 Z" id="Path"></path>
              <path d="M388.866999,35.9821429 C390.844525,35.9821429 392,36.6377824 392,38.7813345 L392,50.3782709 C392,52.353173 390.683319,53.5067792 388.694779,53.5067792 L369.545327,53.5067792 L369.545327,111.865685 C369.545327,114.830532 368.228646,115.982143 365.251845,115.982143 L353.751159,115.982143 C350.775359,115.982143 349.457677,114.830532 349.457677,111.865685 L349.453672,53.5067792 L330.309226,53.5067792 C328.322689,53.5067792 327,52.353173 327,50.3782709 L327,38.7813345 C327,36.6377824 328.160482,35.9821429 330.137006,35.9821429 L388.866999,35.9821429 Z" id="Path"></path>
              <path d="M394.515357,104.982143 C397.501862,104.982143 400,107.348033 400,110.451785 C400,113.610078 397.501862,115.982143 394.515357,115.982143 C391.515544,115.982143 389,113.610078 389,110.451785 C389.001024,107.348033 391.516567,104.982143 394.515357,104.982143 Z M394.515357,115.175332 C397.04933,115.175332 399.007911,113.146985 399.007911,110.451785 C399.007911,107.821417 397.04933,105.788954 394.515357,105.788954 C391.953742,105.788954 389.992089,107.822446 389.992089,110.451785 C389.992089,113.148014 391.953742,115.175332 394.515357,115.175332 Z M392.379654,107.26056 L394.849125,107.26056 C396.37258,107.26056 397.091307,107.86361 397.091307,109.101611 C397.091307,110.257286 396.363366,110.750222 395.407111,110.850044 L397.238738,113.690348 L396.167815,113.690348 L394.428332,110.921052 L393.372766,110.921052 L393.372766,113.690348 L392.37863,113.690348 L392.37863,107.26056 L392.379654,107.26056 Z M393.372766,110.113212 L394.413999,110.113212 C395.292442,110.113212 396.095123,110.072048 396.095123,109.05736 C396.095123,108.202182 395.367182,108.072516 394.69248,108.072516 L393.37379,108.072516 L393.37379,110.113212 L393.372766,110.113212 Z" id="Shape"></path>
          </g>
        </g>
        <rect id="Rectangle" class="animated fadeInUp delay1" stroke="#FFFFFF" stroke-width="3" fill="#202124" x="1103" y="158" width="702" height="411" rx="7"></rect>
        <rect id="Rectangle" class="animated fadeInUp delay2" stroke="#FFFFFF" stroke-width="3" fill="#202124" x="834" y="328" width="702" height="411" rx="7"></rect>
        <rect id="Rectangle" class="animated fadeInUp delay3" stroke="#FFFFFF" stroke-width="3" fill="#202124" x="1357" y="419" width="209" height="423" rx="22"></rect>
        <rect id="Rectangle" class="animated fadeInUp delay4" stroke="#FFFFFF" stroke-width="3" fill="#202124" x="1596" y="419" width="209" height="423" rx="22"></rect>
        <ellipse id="Home" class="animated fadeInUp delay3" stroke="#FFFFFF" stroke-width="3" cx="1461.5" cy="813" rx="15" ry="13.5"></ellipse>
        <ellipse id="Home" class="animated fadeInUp delay4" stroke="#FFFFFF" stroke-width="3" cx="1700.5" cy="813" rx="15" ry="13.5"></ellipse>
    </g>
        <style>
    .animated {
      animation-duration: .6s;
      animation-fill-mode: both;
      -webkit-animation-duration: .6s;
      animation-timing-function: ease-in-out;
      -webkit-animation-fill-mode: both;
    }
    .delay1 {
      animation-delay: .4s;
    }
    .delay2 {
      animation-delay: .7s;
    }
    .delay3 {
      animation-delay: 1s;
    }
    .delay4 {
      animation-delay: 1.3s;
    }

    @keyframes fadeInUp {
        from {
            transform: translateY(20px);
        }

        to {
            transform: translateY(0px);
            opacity: 1;
        }
    }

    @-webkit-keyframes fadeInUp {
        from {
        }

        to {
            opacity: 1;
        }
    }
    .fadeInUp {
        opacity: 0;
        animation-name: fadeInUp;
        -webkit-animation-name: fadeInUp;
    }
    
    </style>
</svg>