<?xml version="1.0" encoding="UTF-8"?>
<svg width="1409px" height="1625px" viewBox="0 0 1409 1625" version="1.1" xmlns="http://www.w3.org/2000/svg" xmlns:xlink="http://www.w3.org/1999/xlink">
    <title>wire_workday_mobile</title>
    <g id="wire_workday_mobile" class="animated fadeInUp" stroke="none" stroke-width="1" fill="none" fill-rule="evenodd">
        <g id="Workday_logo" transform="translate(249.000000, 48.000000)" fill="#FFFFFF" fill-rule="nonzero">
            <g id="g10" transform="translate(471.500000, 189.500000) scale(-1, 1) rotate(-180.000000) translate(-471.500000, -189.500000) ">
                <g id="g12">
                    <path d="M482.454831,378.298772 C516.178397,379.462748 550.122625,374.376618 581.930015,363.059293 C629.780664,346.216156 672.546657,315.349521 703.839169,275.366808 C717.60414,257.825853 729.134201,238.54508 738.170027,218.145717 C739.772184,214.751182 741.006571,210.935875 740.148441,207.153662 C739.097939,200.804273 733.547441,195.555508 727.163331,194.921042 C720.533098,193.949014 713.68126,198.097155 711.317159,204.361444 C693.348294,246.760045 662.681934,283.588392 624.428196,309.081449 C600.779642,324.927028 574.257767,336.465612 546.549598,342.925631 C510.818385,351.306068 473.198343,351.306068 437.459586,342.951161 C386.431027,331.168624 339.708206,301.819601 306.755071,261.038842 C292.78264,243.856251 281.245978,224.702182 272.548689,204.324568 C270.666461,199.589238 266.341863,195.876996 261.29587,195.045855 C256.42999,194.104084 251.133159,195.78906 247.740245,199.42282 C243.740039,203.441421 242.432098,209.864563 244.494439,215.138858 C268.430608,271.88339 312.751608,319.552504 367.242863,347.926661 C402.734554,366.553112 442.43674,376.942849 482.454831,378.298772 L482.454831,378.298772" id="path14"></path>
                    <path d="M437.890537,203.582308 C437.688735,206.529597 440.469642,208.734627 443.225088,208.804598 C446.805659,208.901045 450.396603,208.870787 453.984718,208.819727 C456.47801,208.734627 459.388108,207.068563 459.377735,204.261216 C459.505983,171.288834 459.300409,138.306051 459.488066,105.314758 C472.811713,120.170342 486.249463,134.94461 499.62026,149.755753 C502.254059,152.359806 504.33526,156.304654 508.431652,156.644107 C513.950088,156.872931 519.482669,156.736772 525.007706,156.729207 C527.137,156.921154 529.51336,154.96386 528.765561,152.685077 C527.892343,150.926348 526.290186,149.718877 524.982245,148.322295 C510.524169,133.836421 496.010456,119.401608 481.625934,104.853328 C495.521039,88.948463 509.223772,72.8814358 523.055696,56.917852 C524.835137,54.6463498 527.063446,52.7182725 528.555272,50.2140697 C529.649152,48.2564912 527.836706,45.8740756 525.744189,45.7817896 C521.150836,45.5231808 516.54711,45.7817896 511.942441,45.6709708 C509.548164,45.7263802 506.958686,45.3754854 504.785071,46.6128362 C502.493581,47.93141 501.101713,50.2879174 499.461836,52.2714041 C486.120272,69.1177562 472.866407,86.0305807 459.47675,102.84781 C459.340015,86.2632814 459.436201,69.6865064 459.424885,53.1135137 C459.373963,51.200187 459.764365,48.8954014 458.102799,47.4992922 C455.457684,44.9395855 451.520659,45.837199 448.220159,45.6709708 C445.291201,45.7707266 441.865282,45.1280342 439.486093,47.2960929 C438.160235,48.3303389 437.813211,50.0958756 437.865076,51.6655883 C437.901853,102.311681 437.849988,152.950777 437.890537,203.582308 L437.890537,203.582308" id="path16"></path>
                    <path d="M377.11513,157.006254 C383.804772,159.163061 391.345,159.573431 397.897907,156.729207 C400.196941,155.646549 402.867517,153.338454 401.828331,150.49423 C400.778772,146.922876 399.883865,143.310863 398.631561,139.801916 C397.706478,137.282962 394.792608,136.34781 392.339865,136.839498 C386.821429,137.788833 381.402951,139.616587 375.744951,139.432204 C371.79661,139.524869 368.152858,137.401156 365.453049,134.648651 C361.095446,130.375697 358.840733,124.399801 357.827951,118.471184 C357.024515,114.186882 357.253664,109.809917 357.216887,105.481175 C357.216887,87.2900575 357.223488,69.0881604 357.213115,50.8973264 C357.470554,47.9055964 354.384115,45.8740756 351.690907,45.7707266 C347.992461,45.7190049 344.301559,45.6709708 340.606885,45.8002279 C337.936309,45.940548 334.930968,47.8944389 335.277049,50.9083894 C335.261961,84.5937183 335.240272,118.26789 335.284593,151.953219 C335.056387,155.303313 338.757662,157.124448 341.661159,156.810525 C345.303968,156.570354 350.276407,157.944243 352.645223,154.268878 C354.442581,150.00727 355.296939,145.404318 356.984909,141.104888 C362.063907,148.093471 368.79787,154.254695 377.11513,157.006254 L377.11513,157.006254" id="path18"></path>
                    <path d="M0,154.435295 C1.02771912,155.617237 2.22857304,156.895625 3.94144767,156.773648 C8.9585,156.821871 13.9902537,156.932501 19.0036189,156.699895 C21.5490588,156.626142 23.3023787,154.38329 23.6744865,152.009006 C28.6067537,131.897092 33.4507561,111.755865 38.3609571,91.6374269 C39.801201,85.4248594 41.5546152,79.2749821 42.4939375,72.955378 C43.4626814,67.2782773 43.654299,61.5163604 44.5751385,55.8282912 C45.8423419,63.9467155 46.9768652,72.1168615 49.1612304,80.0470262 C55.5817402,104.059063 61.9985723,128.066656 68.4264375,152.071413 C68.9274534,154.808789 71.4948652,156.754737 74.2243787,156.754737 C79.8087304,156.895625 85.4041152,156.799178 90.9884669,156.799178 C93.9832463,156.940066 97.188409,155.185119 97.909804,152.108289 C102.705902,134.60421 107.443534,117.067983 112.220772,99.5487751 C115.119554,88.2024216 118.917015,77.0478264 120.556892,65.4057039 C121.009532,62.1997116 121.451799,58.9862494 122.110956,55.8023831 C123.912086,74.0929729 128.605397,91.8885658 132.466039,109.798571 C135.652436,124.048056 138.768108,138.31267 141.991282,152.5631 C142.466554,155.425289 145.486983,156.865367 148.147186,156.784995 C152.663213,156.810525 157.186784,156.940066 161.695267,156.710296 C164.373387,156.632761 165.912363,153.663724 164.969363,151.269584 C155.908076,117.743108 146.879794,84.194884 137.814735,50.6683134 C137.328147,47.9794441 134.992336,45.8814509 132.25575,45.837199 C125.256804,45.6081861 118.243713,45.7817896 111.244767,45.7448185 C108.736387,45.5896532 106.083728,46.9378228 105.641461,49.5861279 C99.376169,72.6413598 93.2354473,95.7372506 87.0286213,118.810637 C84.7816409,126.837437 83.8717402,135.158305 82.9287402,143.413929 C81.7758284,136.063199 81.2048419,128.591438 79.252549,121.370249 C72.8983321,97.6132279 66.5072439,73.8455217 60.1383162,50.0848126 C59.4200331,46.2360333 55.0329142,45.4677714 51.7691912,45.7190049 C45.2603223,45.837199 38.7514534,45.5675273 32.2498456,45.837199 C29.9328946,45.8298237 28.1463811,47.6396123 27.7301409,49.8335792 C18.5948284,83.2271104 9.4889375,116.635865 0.346258284,150.021454 C0.02946875,151.480442 0.0699883284,152.968743 0,154.435295 L0,154.435295" id="path20"></path>
                    <path d="M820.837179,156.710296 C825.588956,156.791614 830.359593,156.810525 835.11137,156.710296 C838.002608,156.669637 840.721277,154.686813 841.631272,151.916342 C849.838201,130.412574 857.986664,108.868146 866.182277,87.3528422 C867.894765,82.9870344 869.092375,78.4328725 869.859034,73.8085506 C873.247233,86.5698297 877.759488,98.9880621 881.720088,111.582829 C886.128613,125.200685 890.541853,138.822323 894.969238,152.444906 C895.625566,154.815408 897.879336,156.433249 900.273613,156.632761 C904.153115,156.921154 908.057135,156.669637 911.943238,156.773648 C914.216811,156.747173 916.924164,157.013819 918.655512,155.185119 C919.778625,154.232001 919.539103,152.6482 919.071375,151.410471 C905.958017,113.902271 892.881436,76.3755381 879.785995,38.8563696 C877.509593,32.606831 875.759385,26.0654948 872.094887,20.443898 C866.837662,11.8821984 858.317657,5.71764608 848.95461,2.38234938 C845.683343,1.36661734 842.305517,-0.886456024 838.787184,0.376744283 C836.29012,1.01573204 835.332032,3.61970016 833.99863,5.53296065 C833.041485,7.26893939 831.27336,8.87564212 831.64113,11.0364011 C831.814642,13.1786462 833.52713,14.922057 835.546093,15.4944949 C839.494434,16.8611027 843.509728,18.3681253 846.707441,21.1641257 C854.479647,27.7571838 859.287061,37.5082 861.117424,47.4328199 C859.876436,51.8391918 857.581174,55.8910759 855.915836,60.1571278 C843.410713,89.2993578 830.904647,118.452272 818.369348,147.583818 C817.614005,149.490053 816.501265,151.307406 816.288147,153.37533 C816.31738,155.646549 818.914402,156.644107 820.837179,156.710296 L820.837179,156.710296" id="path22"></path>
                    <path d="M237.746331,142.615882 C230.924669,141.345058 224.702755,137.086287 221.240059,131.02151 C215.453811,121.185866 214.78711,109.31823 215.048321,98.1635398 C215.460412,88.0656947 217.077657,77.2952776 223.502316,69.1325069 C228.294642,62.9937871 236.169635,59.9096766 243.824909,60.0278707 C251.187853,59.7914824 258.901593,62.2919976 263.892892,67.9062191 C270.268515,74.8981114 272.316711,84.6011881 273.193701,93.7500762 C273.580331,102.736235 273.761387,111.885406 271.436892,120.661085 C269.587669,128.074221 265.682706,135.487357 258.927054,139.480428 C252.63913,143.34774 244.870696,143.708941 237.746331,142.615882 L237.746331,142.615882 Z M240.627196,158.608967 C252.971066,159.370137 265.904311,156.799178 276.092483,149.467359 C285.205635,142.966682 291.394544,132.949492 294.285782,122.208955 C297.723017,109.385364 297.707929,95.700374 294.591314,82.8097432 C291.655755,70.9275449 284.789772,59.7250101 274.43186,52.9730991 C263.361983,45.6081861 249.456505,43.6948594 236.464794,45.2646666 C225.39586,46.6312745 214.609826,51.49936 206.90363,59.676976 C197.846115,69.1916039 193.348005,82.3000901 192.412549,95.2569096 C191.274348,109.625534 193.469652,124.834756 201.440831,137.105198 C207.338353,146.33947 216.713659,153.123813 227.170586,156.219554 C231.531961,157.585878 236.081936,158.22129 240.627196,158.608967 L240.627196,158.608967" id="path24"></path>
                    <path d="M604.739299,143.199288 C597.972331,142.763388 591.441113,138.859199 588.420684,132.665827 C582.51939,121.211396 582.398686,107.881934 582.692902,95.2862217 C583.164402,87.0573568 584.055537,78.5621296 587.879402,71.1307442 C590.465108,66.1259317 595.162191,62.1738034 600.716461,60.9623608 C609.214777,58.9124017 619.216235,60.6483426 625.257093,67.3817208 C631.077289,74.0265006 632.992522,83.0609767 633.887429,91.6115187 C634.502265,101.358564 634.539985,111.305782 632.126848,120.846413 C630.469054,127.225114 627.662686,133.596251 622.623294,138.029004 C617.790419,142.294394 611.056456,143.938711 604.739299,143.199288 L604.739299,143.199288 Z M633.858196,204.993074 C633.703544,207.578216 636.337343,209.229152 638.62789,209.428663 C642.293331,209.628175 645.970088,209.532674 649.64213,209.492015 C652.441897,209.517545 655.572657,207.43071 655.16811,204.313221 C655.16811,153.437737 655.178483,102.570763 655.160566,51.7025594 C655.351995,49.0763802 652.77289,47.0375787 650.353152,46.8787257 C647.431738,46.723655 644.503723,46.723655 641.593625,46.9267598 C639.541657,47.0560169 637.55287,48.3746853 636.853164,50.3433268 C635.755512,53.649075 635.184054,57.0840803 634.347613,60.4452378 C630.296485,54.9344599 625.072265,50.0589045 618.582539,47.6396123 C609.325108,44.2230453 599.02189,44.1676359 589.507963,46.4946421 C579.948772,48.7994277 571.623968,55.3850159 567.011755,64.0538467 C559.773287,77.2879023 558.915157,92.8562448 559.36874,107.619071 C559.626179,120.232749 562.028,133.540463 570.223613,143.550088 C576.404978,152.034536 586.534684,156.903189 596.764348,158.176849 C606.286762,159.573431 616.611669,157.966936 624.494206,152.182042 C628.221885,149.552459 631.205537,146.025546 633.869512,142.338835 C633.795015,163.218538 633.813875,184.105806 633.858196,204.993074 L633.858196,204.993074" id="path26"></path>
                    <path d="M736.317032,142.563876 C732.921289,141.86984 729.631162,140.503516 726.887032,138.372239 C721.398772,134.087938 718.672559,127.279956 717.21751,120.668649 C715.099532,110.178683 715.128765,99.3454812 716.223588,88.7379829 C717.247686,80.9445452 719.199696,72.6266092 724.898245,66.8645978 C729.539691,61.978074 736.538637,60.1866291 743.087772,60.5080226 C750.131039,60.253196 757.460978,62.8829683 762.003409,68.4307174 C767.683098,75.3192608 769.285255,84.482994 770.114152,93.1148536 C770.641289,103.264799 770.64789,113.658318 767.804745,123.512873 C766.007387,129.651403 762.721032,135.75684 757.177135,139.254441 C751.070267,143.273041 743.345211,143.642752 736.317032,142.563876 Z M726.887032,156.496601 C736.660284,159.211284 747.120983,159.370137 756.99325,157.105537 C766.165811,154.974261 774.755598,149.811541 780.391909,142.165798 C786.351669,134.328109 789.360782,124.609714 790.613086,114.925359 C791.700365,107.457381 791.387289,99.8929564 791.397662,92.3687177 C791.397662,78.7911426 791.397662,65.2098799 791.360885,51.636087 C791.508936,49.9813691 790.465978,48.5150054 789.12126,47.6543629 C786.84863,46.2508785 784.030946,46.8713504 781.496162,46.7124975 C778.653017,46.734718 774.914022,46.4835791 773.366559,49.4494955 C771.856816,52.9362225 771.54374,56.8255661 770.574336,60.4932719 C766.761787,55.8467295 762.813446,51.0524916 757.29501,48.3672154 C748.889108,44.2009194 739.061162,44.444683 730.065885,46.2065321 C719.059189,48.3857483 708.921939,54.9122394 702.697196,64.3160485 C695.282387,75.267539 692.592951,88.7859224 692.695738,101.850251 C692.604267,114.585906 695.090015,127.752733 702.152142,138.52731 C707.798826,147.336083 716.860113,153.714784 726.887032,156.496601 L726.887032,156.496601" id="path28"></path>
                    <path d="M923.738282,73.0772598 C918.150064,71.0199254 914.632674,64.5561245 916.05849,58.7203599 C917.513539,51.8687876 925.462086,47.1927439 932.093262,49.726448 C938.207674,51.5991159 942.064544,58.5910082 940.167228,64.7556362 C938.50189,71.6921191 930.294961,75.7920373 923.738282,73.0772598 Z M924.512485,76.0062051 C927.82713,76.5307034 931.42939,76.5676745 934.505456,75.0274631 C939.743821,72.6413598 943.50922,67.0013248 942.941534,61.1359644 C943.3772,54.1402898 937.507968,47.8870636 930.810782,46.7605316 C923.270554,45.1538478 915.156039,50.6314369 913.619892,58.1736411 C911.637706,65.763974 916.89776,74.3071407 924.512485,76.0062051 L924.512485,76.0062051" id="path30"></path>
                    <path d="M926.070321,67.4814766 C926.059005,65.8932311 926.051461,64.3049856 926.070321,62.7056771 C927.45936,62.7906823 928.888005,62.7056771 930.258184,63.0861676 C931.547265,63.6217289 931.419017,65.2652893 931.069164,66.3660076 C929.735762,67.6735185 927.753576,67.3336867 926.070321,67.4814766 Z M921.878686,70.066997 C925.886436,69.837984 930.379831,70.9718913 933.989635,68.7298904 C936.899733,66.5396112 935.489005,61.7748746 932.203593,60.7591615 C933.150365,58.2475833 934.468679,55.9132019 935.67289,53.5198179 C934.155603,53.4902221 932.663777,53.4644085 931.171951,53.4385003 C930.093159,55.6546877 929.035113,57.8966886 928.004414,60.1313142 C927.348086,60.1497525 926.704017,60.1571278 926.070321,60.1681908 C926.059005,57.9335652 926.059005,55.6990341 926.059005,53.4644085 C924.640733,53.4828468 923.252637,53.501285 921.859826,53.5124426 C921.871142,59.0342835 921.852282,64.5561245 921.878686,70.066997 L921.878686,70.066997" id="path32"></path>
                </g>
            </g>
        </g>
        <rect id="Rectangle" stroke="#FFFFFF" stroke-width="3" fill="#202124" x="441" y="706" width="857" height="502" rx="7"></rect>
        <rect id="Rectangle" stroke="#FFFFFF" stroke-width="3" fill="#202124" x="113" y="914" width="857" height="501" rx="7"></rect>
        <rect id="Rectangle" stroke="#FFFFFF" stroke-width="3" fill="#202124" x="751" y="1025" width="255" height="516" rx="22"></rect>
        <rect id="Rectangle" stroke="#FFFFFF" stroke-width="3" fill="#202124" x="1043" y="1025" width="255" height="516" rx="22"></rect>
        <ellipse id="Home" stroke="#FFFFFF" stroke-width="3" cx="879" cy="1505.5" rx="18.5" ry="17"></ellipse>
        <ellipse id="Home" stroke="#FFFFFF" stroke-width="3" cx="1170.5" cy="1505.5" rx="19" ry="17"></ellipse>
    </g>
    <style>        .animated {
      animation-duration: .35s;
      animation-fill-mode: both;
      -webkit-animation-duration: .35s;
      animation-timing-function: ease-in-out;
      -webkit-animation-fill-mode: both;
    }
    @keyframes fadeInUp {
        from {
            transform: translateY(20px);
        }
        to {
            transform: translateY(0px);
            opacity: 1;
        }
    }
    @-webkit-keyframes fadeInUp {
        from {
        }
        to {
            opacity: 1;
        }
    }
    .fadeInUp {
        opacity: 0;
        animation-name: fadeInUp;
        -webkit-animation-name: fadeInUp;
    }</style>
</svg>