<?xml version="1.0" encoding="UTF-8"?>
<svg width="1409px" height="1625px" viewBox="0 0 1409 1625" version="1.1" xmlns="http://www.w3.org/2000/svg" xmlns:xlink="http://www.w3.org/1999/xlink">
    <title>wire_eqr_mobile</title>
    <g id="wire_eqr_mobile" class="animated fadeInUp" stroke="none" stroke-width="1" fill="none" fill-rule="evenodd">
        <text id="Event" font-family="AvenirNext-Bold, Avenir Next" font-size="200" font-weight="bold" letter-spacing="10.527778" fill="#FFFFFF">
            <tspan x="244" y="253">Event</tspan>
        </text>
        <text id="Queuer" font-family="AvenirNext-Bold, Avenir Next" font-size="200" font-weight="bold" letter-spacing="10.527778" fill="#FFFFFF">
            <tspan x="355" y="440">Queuer</tspan>
        </text>
        <rect id="Rectangle" stroke="#FFFFFF" stroke-width="3" fill="#202124" x="441" y="706" width="857" height="502" rx="7"></rect>
        <rect id="Rectangle" stroke="#FFFFFF" stroke-width="3" fill="#202124" x="113" y="914" width="857" height="501" rx="7"></rect>
        <rect id="Rectangle" stroke="#FFFFFF" stroke-width="3" fill="#202124" x="751" y="1025" width="255" height="516" rx="22"></rect>
        <rect id="Rectangle" stroke="#FFFFFF" stroke-width="3" fill="#202124" x="1043" y="1025" width="255" height="516" rx="22"></rect>
        <ellipse id="Home" stroke="#FFFFFF" stroke-width="3" cx="879" cy="1505.5" rx="18.5" ry="17"></ellipse>
        <ellipse id="Home" stroke="#FFFFFF" stroke-width="3" cx="1170.5" cy="1505.5" rx="19" ry="17"></ellipse>
        <g id="Group" transform="translate(915.000000, 99.000000)" fill="#B3B3B3" fill-rule="nonzero">
            <g id="placeholder-qrcode">
                <g id="g30" transform="translate(86.000000, 86.500000) scale(-1, 1) rotate(-180.000000) translate(-86.000000, -86.500000) translate(0.000000, 0.000000)">
                    <path d="M0,144.166666 L0,115.333333 L28.6666667,115.333333 L57.3333333,115.333333 L57.3333333,144.166666 L57.3333333,173 L28.6666667,173 L0,173 L0,144.166666 Z M49.1428572,144.166666 L49.1428572,123.571429 L28.6666667,123.571429 L8.19047619,123.571429 L8.19047619,144.166666 L8.19047619,164.761904 L28.6666667,164.761904 L49.1428572,164.761904 L49.1428572,144.166666 Z" id="path2"></path>
                    <polygon id="path4" points="16.3809524 144.166666 16.3809524 131.809524 28.6666667 131.809524 40.9523809 131.809524 40.9523809 144.166666 40.9523809 156.523809 28.6666667 156.523809 16.3809524 156.523809"></polygon>
                    <path d="M81.9047619,160.642857 L81.9047619,148.285715 L90.0952381,148.285715 L98.2857142,148.285715 L98.2857142,144.166666 L98.2857142,140.047619 L81.9047619,140.047619 L65.5238095,140.047619 L65.5238095,123.571429 L65.5238095,107.095238 L57.3333333,107.095238 L49.1428572,107.095238 L49.1428572,102.97619 L49.1428572,98.8571428 L45.0476191,98.8571428 L40.9523809,98.8571428 L40.9523809,90.6190476 L40.9523809,82.3809524 L36.8571428,82.3809524 L32.7619047,82.3809524 L32.7619047,94.7380953 L32.7619047,107.095238 L28.6666667,107.095238 L24.5714286,107.095238 L24.5714286,102.97619 L24.5714286,98.8571428 L20.4761905,98.8571428 L16.3809524,98.8571428 L16.3809524,102.97619 L16.3809524,107.095238 L8.19047619,107.095238 L0,107.095238 L0,102.97619 L0,98.8571428 L8.19047619,98.8571428 L16.3809524,98.8571428 L16.3809524,94.7380953 L16.3809524,90.6190476 L20.4761905,90.6190476 L24.5714286,90.6190476 L24.5714286,86.5 L24.5714286,82.3809524 L20.4761905,82.3809524 L16.3809524,82.3809524 L16.3809524,78.2619047 L16.3809524,74.1428572 L20.4761905,74.1428572 L24.5714286,74.1428572 L24.5714286,70.0238096 L24.5714286,65.9047619 L32.7619047,65.9047619 L40.9523809,65.9047619 L40.9523809,70.0238096 L40.9523809,74.1428572 L45.0476191,74.1428572 L49.1428572,74.1428572 L49.1428572,70.0238096 L49.1428572,65.9047619 L53.2380953,65.9047619 L57.3333333,65.9047619 L57.3333333,70.0238096 L57.3333333,74.1428572 L53.2380953,74.1428572 L49.1428572,74.1428572 L49.1428572,78.2619047 L49.1428572,82.3809524 L53.2380953,82.3809524 L57.3333333,82.3809524 L57.3333333,86.5 L57.3333333,90.6190476 L61.4285714,90.6190476 L65.5238095,90.6190476 L65.5238095,86.5 L65.5238095,82.3809524 L73.7142858,82.3809524 L81.9047619,82.3809524 L81.9047619,78.2619047 L81.9047619,74.1428572 L73.7142858,74.1428572 L65.5238095,74.1428572 L65.5238095,61.7857143 L65.5238095,49.4285715 L69.6190476,49.4285715 L73.7142858,49.4285715 L73.7142858,53.5476191 L73.7142858,57.6666666 L77.8095239,57.6666666 L81.9047619,57.6666666 L81.9047619,53.5476191 L81.9047619,49.4285715 L94.1904761,49.4285715 L106.476191,49.4285715 L106.476191,41.1904762 L106.476191,32.9523809 L102.380952,32.9523809 L98.2857142,32.9523809 L98.2857142,24.7142857 L98.2857142,16.4761904 L94.1904761,16.4761904 L90.0952381,16.4761904 L90.0952381,20.5952381 L90.0952381,24.7142857 L86,24.7142857 L81.9047619,24.7142857 L81.9047619,20.5952381 L81.9047619,16.4761904 L73.7142858,16.4761904 L65.5238095,16.4761904 L65.5238095,8.23809524 L65.5238095,0 L73.7142858,0 L81.9047619,0 L81.9047619,8.23809524 L81.9047619,16.4761904 L86,16.4761904 L90.0952381,16.4761904 L90.0952381,8.23809524 L90.0952381,0 L94.1904761,0 L98.2857142,0 L98.2857142,4.11904762 L98.2857142,8.23809524 L102.380952,8.23809524 L106.476191,8.23809524 L106.476191,4.11904762 L106.476191,0 L122.857143,0 L139.238095,0 L139.238095,20.5952381 L139.238095,41.1904762 L143.333333,41.1904762 L147.428571,41.1904762 L147.428571,45.3095238 L147.428571,49.4285715 L151.523809,49.4285715 L155.619047,49.4285715 L155.619047,45.3095238 L155.619047,41.1904762 L159.714286,41.1904762 L163.809524,41.1904762 L163.809524,49.4285715 L163.809524,57.6666666 L159.714286,57.6666666 L155.619047,57.6666666 L155.619047,61.7857143 L155.619047,65.9047619 L151.523809,65.9047619 L147.428571,65.9047619 L147.428571,61.7857143 L147.428571,57.6666666 L139.238095,57.6666666 L131.047619,57.6666666 L131.047619,61.7857143 L131.047619,65.9047619 L135.142857,65.9047619 L139.238095,65.9047619 L139.238095,70.0238096 L139.238095,74.1428572 L131.047619,74.1428572 L122.857143,74.1428572 L122.857143,78.2619047 L122.857143,82.3809524 L126.952381,82.3809524 L131.047619,82.3809524 L131.047619,86.5 L131.047619,90.6190476 L135.142857,90.6190476 L139.238095,90.6190476 L139.238095,86.5 L139.238095,82.3809524 L147.428571,82.3809524 L155.619047,82.3809524 L155.619047,78.2619047 L155.619047,74.1428572 L163.809524,74.1428572 L172,74.1428572 L172,86.5 L172,98.8571428 L167.904761,98.8571428 L163.809524,98.8571428 L163.809524,102.97619 L163.809524,107.095238 L155.619047,107.095238 L147.428571,107.095238 L147.428571,102.97619 L147.428571,98.8571428 L143.333333,98.8571428 L139.238095,98.8571428 L139.238095,102.97619 L139.238095,107.095238 L126.952381,107.095238 L114.666667,107.095238 L114.666667,102.97619 L114.666667,98.8571428 L110.571429,98.8571428 L106.476191,98.8571428 L106.476191,102.97619 L106.476191,107.095238 L94.1904761,107.095238 L81.9047619,107.095238 L81.9047619,98.8571428 L81.9047619,90.6190476 L77.8095239,90.6190476 L73.7142858,90.6190476 L73.7142858,94.7380953 L73.7142858,98.8571428 L69.6190476,98.8571428 L65.5238095,98.8571428 L65.5238095,102.97619 L65.5238095,107.095238 L69.6190476,107.095238 L73.7142858,107.095238 L73.7142858,115.333333 L73.7142858,123.571429 L77.8095239,123.571429 L81.9047619,123.571429 L81.9047619,119.452381 L81.9047619,115.333333 L86,115.333333 L90.0952381,115.333333 L90.0952381,123.571429 L90.0952381,131.809524 L98.2857142,131.809524 L106.476191,131.809524 L106.476191,140.047619 L106.476191,148.285715 L102.380952,148.285715 L98.2857142,148.285715 L98.2857142,152.404762 L98.2857142,156.523809 L102.380952,156.523809 L106.476191,156.523809 L106.476191,164.761904 L106.476191,173 L102.380952,173 L98.2857142,173 L98.2857142,164.761904 L98.2857142,156.523809 L94.1904761,156.523809 L90.0952381,156.523809 L90.0952381,164.761904 L90.0952381,173 L86,173 L81.9047619,173 L81.9047619,160.642857 Z M57.3333333,94.7380953 L57.3333333,90.6190476 L53.2380953,90.6190476 L49.1428572,90.6190476 L49.1428572,94.7380953 L49.1428572,98.8571428 L53.2380953,98.8571428 L57.3333333,98.8571428 L57.3333333,94.7380953 Z M106.476191,90.6190476 L106.476191,82.3809524 L110.571429,82.3809524 L114.666667,82.3809524 L114.666667,90.6190476 L114.666667,98.8571428 L122.857143,98.8571428 L131.047619,98.8571428 L131.047619,94.7380953 L131.047619,90.6190476 L126.952381,90.6190476 L122.857143,90.6190476 L122.857143,86.5 L122.857143,82.3809524 L118.761905,82.3809524 L114.666667,82.3809524 L114.666667,78.2619047 L114.666667,74.1428572 L118.761905,74.1428572 L122.857143,74.1428572 L122.857143,57.6666666 L122.857143,41.1904762 L126.952381,41.1904762 L131.047619,41.1904762 L131.047619,45.3095238 L131.047619,49.4285715 L135.142857,49.4285715 L139.238095,49.4285715 L139.238095,45.3095238 L139.238095,41.1904762 L135.142857,41.1904762 L131.047619,41.1904762 L131.047619,37.0714285 L131.047619,32.9523809 L122.857143,32.9523809 L114.666667,32.9523809 L114.666667,49.4285715 L114.666667,65.9047619 L110.571429,65.9047619 L106.476191,65.9047619 L106.476191,61.7857143 L106.476191,57.6666666 L102.380952,57.6666666 L98.2857142,57.6666666 L98.2857142,65.9047619 L98.2857142,74.1428572 L94.1904761,74.1428572 L90.0952381,74.1428572 L90.0952381,65.9047619 L90.0952381,57.6666666 L86,57.6666666 L81.9047619,57.6666666 L81.9047619,65.9047619 L81.9047619,74.1428572 L86,74.1428572 L90.0952381,74.1428572 L90.0952381,78.2619047 L90.0952381,82.3809524 L86,82.3809524 L81.9047619,82.3809524 L81.9047619,86.5 L81.9047619,90.6190476 L86,90.6190476 L90.0952381,90.6190476 L90.0952381,86.5 L90.0952381,82.3809524 L94.1904761,82.3809524 L98.2857142,82.3809524 L98.2857142,90.6190476 L98.2857142,98.8571428 L102.380952,98.8571428 L106.476191,98.8571428 L106.476191,90.6190476 Z M163.809524,86.5 L163.809524,82.3809524 L159.714286,82.3809524 L155.619047,82.3809524 L155.619047,86.5 L155.619047,90.6190476 L159.714286,90.6190476 L163.809524,90.6190476 L163.809524,86.5 Z M114.666667,20.5952381 L114.666667,16.4761904 L118.761905,16.4761904 L122.857143,16.4761904 L122.857143,12.3571429 L122.857143,8.23809524 L114.666667,8.23809524 L106.476191,8.23809524 L106.476191,16.4761904 L106.476191,24.7142857 L110.571429,24.7142857 L114.666667,24.7142857 L114.666667,20.5952381 Z" id="path6"></path>
                    <polygon id="path8" points="98.2857142 78.2619047 98.2857142 74.1428572 102.380952 74.1428572 106.476191 74.1428572 106.476191 78.2619047 106.476191 82.3809524 102.380952 82.3809524 98.2857142 82.3809524"></polygon>
                    <path d="M114.666667,144.166666 L114.666667,115.333333 L143.333333,115.333333 L172,115.333333 L172,144.166666 L172,173 L143.333333,173 L114.666667,173 L114.666667,144.166666 Z M163.809524,144.166666 L163.809524,123.571429 L143.333333,123.571429 L122.857143,123.571429 L122.857143,144.166666 L122.857143,164.761904 L143.333333,164.761904 L163.809524,164.761904 L163.809524,144.166666 Z" id="path10"></path>
                    <polygon id="path12" points="131.047619 144.166666 131.047619 131.809524 143.333333 131.809524 155.619047 131.809524 155.619047 144.166666 155.619047 156.523809 143.333333 156.523809 131.047619 156.523809"></polygon>
                    <polygon id="path14" points="65.5238095 156.523809 65.5238095 148.285715 69.6190476 148.285715 73.7142858 148.285715 73.7142858 156.523809 73.7142858 164.761904 69.6190476 164.761904 65.5238095 164.761904"></polygon>
                    <polygon id="path16" points="98.2857142 119.452381 98.2857142 115.333333 102.380952 115.333333 106.476191 115.333333 106.476191 119.452381 106.476191 123.571429 102.380952 123.571429 98.2857142 123.571429"></polygon>
                    <polygon id="path18" points="0 82.3809524 0 74.1428572 4.09523809 74.1428572 8.19047619 74.1428572 8.19047619 82.3809524 8.19047619 90.6190476 4.09523809 90.6190476 0 90.6190476"></polygon>
                    <path d="M0,28.8333334 L0,0 L28.6666667,0 L57.3333333,0 L57.3333333,28.8333334 L57.3333333,57.6666666 L28.6666667,57.6666666 L0,57.6666666 L0,28.8333334 Z M49.1428572,28.8333334 L49.1428572,8.23809524 L28.6666667,8.23809524 L8.19047619,8.23809524 L8.19047619,28.8333334 L8.19047619,49.4285715 L28.6666667,49.4285715 L49.1428572,49.4285715 L49.1428572,28.8333334 Z" id="path20"></path>
                    <polygon id="path22" points="16.3809524 28.8333334 16.3809524 16.4761904 28.6666667 16.4761904 40.9523809 16.4761904 40.9523809 28.8333334 40.9523809 41.1904762 28.6666667 41.1904762 16.3809524 41.1904762"></polygon>
                    <polygon id="path24" points="73.7142858 37.0714285 73.7142858 32.9523809 69.6190476 32.9523809 65.5238095 32.9523809 65.5238095 28.8333334 65.5238095 24.7142857 69.6190476 24.7142857 73.7142858 24.7142857 73.7142858 28.8333334 73.7142858 32.9523809 77.8095239 32.9523809 81.9047619 32.9523809 81.9047619 37.0714285 81.9047619 41.1904762 77.8095239 41.1904762 73.7142858 41.1904762"></polygon>
                    <polygon id="path26" points="155.619047 28.8333334 155.619047 24.7142857 151.523809 24.7142857 147.428571 24.7142857 147.428571 20.5952381 147.428571 16.4761904 151.523809 16.4761904 155.619047 16.4761904 155.619047 20.5952381 155.619047 24.7142857 159.714286 24.7142857 163.809524 24.7142857 163.809524 20.5952381 163.809524 16.4761904 167.904761 16.4761904 172 16.4761904 172 24.7142857 172 32.9523809 163.809524 32.9523809 155.619047 32.9523809"></polygon>
                    <polygon id="path28" points="155.619047 4.11904762 155.619047 0 159.714286 0 163.809524 0 163.809524 4.11904762 163.809524 8.23809524 159.714286 8.23809524 155.619047 8.23809524"></polygon>
                </g>
            </g>
        </g>
    </g>
    <style>        .animated {
      animation-duration: .35s;
      animation-fill-mode: both;
      -webkit-animation-duration: .35s;
      animation-timing-function: ease-in-out;
      -webkit-animation-fill-mode: both;
    }
    @keyframes fadeInUp {
        from {
            transform: translateY(20px);
        }
        to {
            transform: translateY(0px);
            opacity: 1;
        }
    }
    @-webkit-keyframes fadeInUp {
        from {
        }
        to {
            opacity: 1;
        }
    }
    .fadeInUp {
        opacity: 0;
        animation-name: fadeInUp;
        -webkit-animation-name: fadeInUp;
    }</style>
</svg>