<?xml version="1.0" encoding="UTF-8"?>
<svg width="1409px" height="1625px" viewBox="0 0 1409 1625" version="1.1" xmlns="http://www.w3.org/2000/svg" xmlns:xlink="http://www.w3.org/1999/xlink">
    <title>wire_asgs_mobile</title>
    <g id="wire_asgs_mobile" class="animated fadeInUp" stroke="none" stroke-width="1" fill="none" fill-rule="evenodd">
        <rect id="Rectangle" stroke="#FFFFFF" stroke-width="3" fill="#202124" x="494" y="722" width="827" height="484" rx="7"></rect>
        <rect id="Rectangle" stroke="#FFFFFF" stroke-width="3" fill="#202124" x="80" y="866" width="827" height="484" rx="7"></rect>
        <rect id="Rectangle" stroke="#FFFFFF" stroke-width="3" fill="#202124" x="382" y="1025" width="827" height="484" rx="7"></rect>
        <g id="Group-2" transform="translate(249.000000, 71.000000)" fill="#FFFFFF">
            <polygon id="Fill-1" points="868 215 911 215 911 172 868 172"></polygon>
            <polygon id="Fill-2" points="825 264 868 264 868 221 825 221"></polygon>
            <polygon id="Fill-3" points="779 215 822 215 822 172 779 172"></polygon>
            <polygon id="Fill-4" points="868 307 911 307 911 264 868 264"></polygon>
            <polygon id="Fill-5" points="779 264 822 264 822 307 779 307"></polygon>
            <path d="M316.483444,54 C309.271523,54 302.715232,56.5142857 298.125828,61.5428571 C293.536424,66.5714286 290.913907,72.8571429 290.913907,80.4 C290.913907,87.9428571 293.536424,94.2285714 298.125828,99.2571429 C303.370861,104.285714 309.271523,106.8 317.139073,106.8 C324.350993,106.8 330.907285,104.285714 335.496689,99.2571429 C340.086093,94.2285714 342.708609,87.9428571 342.708609,80.4 C342.708609,72.8571429 340.086093,66.5714286 335.496689,61.5428571 C330.251656,56.5142857 324.350993,54 316.483444,54 Z M341.397351,34.5142857 L365,34.5142857 L365,114.342857 C365,130.057143 361.721854,141.371429 355.165563,148.914286 C346.642384,158.971429 333.529801,164 315.827815,164 C306.649007,164 298.781457,162.742857 292.225166,160.857143 C285.668874,158.342857 280.423841,155.2 275.834437,150.8 C271.245033,146.4 267.966887,140.742857 266,134.457143 L292.225166,134.457143 C294.847682,136.971429 297.470199,138.857143 301.403974,140.114286 C305.337748,141.371429 309.271523,142 314.516556,142 C321.072848,142 326.317881,140.742857 330.251656,138.857143 C334.18543,136.971429 336.807947,134.457143 338.774834,131.314286 C340.086093,128.171429 341.397351,123.142857 341.397351,115.6 C337.463576,120 332.874172,122.514286 328.284768,124.4 C323.695364,126.285714 318.450331,126.914286 312.549669,126.914286 C300.092715,126.914286 288.94702,122.514286 280.423841,113.085714 C271.900662,104.285714 267.311258,92.3428571 267.311258,79.1428571 C267.311258,64.0571429 271.900662,52.7428571 281.07947,43.3142857 C288.94702,35.7714286 299.437086,32 311.238411,32 C316.483444,32 321.728477,33.2571429 326.97351,35.1428571 C331.562914,37.0285714 336.807947,40.1714286 341.397351,44.5714286 L341.397351,34.5142857 Z" id="Fill-6" fill-rule="nonzero"></path>
            <path d="M379,40.5066667 L398.2,40.5066667 L398.2,51.7866667 C400,47.4 403,43.64 406.6,41.1333333 C410.2,39.2533333 413.8,38 418,38 C421,38 424,38.6266667 427,40.5066667 L419.8,60.56 C417.4,59.3066667 415,58.68 413.2,58.68 C409.6,58.68 406.6,60.56 404.2,64.9466667 C401.8,69.3333333 400.6,78.1066667 400.6,90.64 L400.6,95.0266667 L400.6,132 L379,132 L379,40.5066667 Z" id="Fill-8"></path>
            <path d="M482,58.68 C475.106667,58.68 468.84,61.1866667 464.453333,66.2 C460.066667,71.2133333 457.56,77.48 457.56,85 C457.56,92.52 460.066667,98.7866667 464.453333,103.8 C469.466667,108.813333 475.106667,111.32 482,111.32 C488.893333,111.32 495.16,108.813333 499.546667,103.8 C504.56,98.7866667 506.44,92.52 506.44,84.3733333 C506.44,76.8533333 503.933333,70.5866667 499.546667,65.5733333 C495.16,61.1866667 489.52,58.68 482,58.68 Z M506.44,40.5066667 L529,40.5066667 L529,130.12 L506.44,130.12 L506.44,120.72 C502.053333,125.106667 497.666667,127.613333 493.28,129.493333 C488.893333,131.373333 483.88,132 478.866667,132 C466.96,132 456.933333,127.613333 448.16,118.84 C439.386667,110.066667 435,98.7866667 435,85.6266667 C435,71.84 439.386667,60.56 447.533333,51.7866667 C455.68,42.3866667 465.706667,38 477.613333,38 C483.253333,38 488.266667,39.2533333 492.653333,41.1333333 C497.04,43.0133333 502.053333,46.1466667 505.813333,50.5333333 L505.813333,40.5066667 L506.44,40.5066667 Z" id="Fill-10" fill-rule="nonzero"></path>
            <path d="M600.373333,52.955 C593.48,52.955 587.213333,55.495 582.2,60.575 C577.186667,65.655 575.306667,72.005 575.306667,79.625 C575.306667,87.88 577.813333,94.23 582.2,99.31 C587.213333,104.39 592.853333,106.93 600.373333,106.93 C607.266667,106.93 612.906667,104.39 617.92,99.31 C622.933333,94.23 624.813333,87.88 624.813333,79.625 C624.813333,72.005 622.306667,65.655 617.92,60.575 C613.533333,55.495 607.893333,52.955 600.373333,52.955 Z M576.56,34.54 L576.56,44.7 C580.946667,40.255 585.333333,37.715 589.72,35.175 C594.733333,33.27 599.746667,32 605.386667,32 C617.293333,32 627.32,36.445 635.466667,45.335 C643.613333,54.225 648,65.655 648,80.26 C648,93.595 643.613333,105.025 634.84,114.55 C626.066667,123.44 616.04,128.52 604.133333,128.52 C599.12,128.52 594.106667,127.885 589.72,125.98 C585.333333,124.075 580.946667,120.9 576.56,117.09 L576.56,159 L554,159 L554,34.54 L576.56,34.54 Z" id="Fill-12" fill-rule="nonzero"></path>
            <path d="M669,0 L692.442748,0 L692.442748,44.45 C696.877863,40.64 701.312977,37.465 706.381679,35.56 C710.816794,33.655 715.885496,32.385 720.320611,32.385 C729.824427,32.385 737.427481,35.56 743.763359,41.91 C749.465649,47.625 752,55.245 752,66.04 L752,127 L729.19084,127 L729.19084,86.995 C729.19084,76.2 728.557252,69.215 727.923664,65.405 C726.656489,61.595 725.389313,59.055 722.854962,57.15 C720.320611,55.245 717.152672,54.61 713.984733,54.61 C709.549618,54.61 705.114504,55.88 701.946565,59.055 C698.778626,62.23 696.244275,66.675 694.977099,71.755 C694.343511,74.295 693.709924,80.645 693.709924,90.805 L693.709924,127 L669,127 L669,0 Z" id="Fill-14"></path>
            <path d="M765.612245,127 L791.081633,127 L791.081633,36.83 L765.612245,36.83 L765.612245,127 Z M778.673469,0 C783.244898,0 787.163265,1.27 790.428571,4.445 C793.693878,7.62 795,10.795 795,14.605 C795,18.415 793.693878,22.225 790.428571,24.765 C787.163265,27.305 783.244898,29.21 779.326531,29.21 C774.755102,29.21 770.836735,27.94 767.571429,24.765 C764.306122,21.59 763,18.415 763,13.97 C763,10.16 764.306122,6.35 767.571429,3.81 C770.183673,1.27 774.102041,0 778.673469,0 Z" id="Fill-16" fill-rule="nonzero"></path>
            <path d="M906,59.9261745 L887.2,70.0201342 C883.44,66.2348993 880.306667,63.7114094 876.546667,62.4496644 C872.786667,61.1879195 869.026667,60.557047 864.013333,60.557047 C855.24,60.557047 848.346667,63.0805369 843.333333,68.1275168 C838.32,73.1744966 835.186667,79.4832215 835.186667,87.6845638 C835.186667,95.2550336 837.693333,101.563758 842.706667,106.610738 C847.72,111.657718 854.613333,114.181208 862.76,114.181208 C872.786667,114.181208 880.933333,111.026846 886.573333,104.087248 L904.746667,116.073826 C894.72,128.691275 880.933333,135 863.386667,135 C847.093333,135 834.56,130.583893 825.786667,121.120805 C816.386667,111.657718 812,100.932886 812,88.3154362 C812,79.4832215 814.506667,71.2818792 818.893333,64.3422819 C823.28,56.7718121 829.546667,51.0939597 837.693333,47.3087248 C845.84,42.8926174 854.613333,41 864.013333,41 C873.413333,41 881.56,42.8926174 888.453333,46.0469799 C895.346667,47.9395973 901.613333,52.9865772 906,59.9261745" id="Fill-18"></path>
            <path d="M325.44,226.248322 L311.36,240.127517 C305.6,234.449664 300.48,231.926174 296,231.926174 C293.44,231.926174 291.52,232.557047 290.24,233.818792 C288.96,235.080537 288.32,236.342282 288.32,237.604027 C288.32,238.865772 288.96,240.127517 289.6,240.758389 C290.24,242.020134 292.8,243.281879 296.64,245.174497 L304.96,249.590604 C313.92,254.006711 319.68,258.422819 322.88,262.838926 C326.08,267.255034 328,272.302013 328,278.610738 C328,286.812081 324.8,293.120805 319.04,298.798658 C313.28,303.845638 304.96,307 295.36,307 C281.92,307 271.68,301.95302 264,291.85906 L278.08,276.718121 C280.64,279.872483 283.84,282.395973 287.68,284.288591 C291.52,286.181208 294.72,287.442953 297.28,287.442953 C300.48,287.442953 302.4,286.812081 304.32,285.550336 C306.24,284.288591 306.88,282.395973 306.88,280.503356 C306.88,276.718121 303.68,273.563758 297.28,270.409396 L289.6,266.624161 C274.88,259.053691 267.84,250.221477 267.84,238.865772 C267.84,231.926174 270.4,225.61745 276.16,220.57047 C281.92,215.52349 288.96,213 297.28,213 C303.04,213 308.8,214.261745 313.92,216.785235 C317.76,217.416107 322.24,221.201342 325.44,226.248322" id="Fill-19"></path>
            <polygon id="Fill-20" points="350.4 180 373.2 180 373.2 214.29 387 214.29 387 233.975 373.2 233.975 373.2 307 350.4 307 350.4 233.975 339 233.975 339 214.29 350.4 214.29"></polygon>
            <path d="M406,213 L430.261538,213 L430.261538,257.161074 C430.261538,265.993289 430.9,271.671141 432.176923,275.456376 C433.453846,278.610738 435.369231,281.134228 437.923077,283.026846 C440.476923,284.919463 443.669231,285.550336 448.138462,285.550336 C452.607692,285.550336 455.161538,284.919463 458.353846,283.026846 C460.907692,281.134228 463.461538,278.610738 464.738462,274.825503 C466.015385,272.302013 466.015385,266.624161 466.015385,257.791946 L466.015385,213 L489,213 L489,252.114094 C489,268.516779 487.723077,279.241611 485.169231,284.919463 C481.976923,291.85906 477.507692,297.536913 471.123077,301.322148 C464.738462,305.107383 457.076923,307 447.5,307 C437.284615,307 428.984615,304.47651 422.6,300.060403 C416.215385,295.644295 411.746154,289.33557 409.192308,281.134228 C406.638462,276.087248 406,265.993289 406,251.483221 L406,213 Z" id="Fill-21"></path>
            <path d="M549.827815,233.34 C542.615894,233.34 536.059603,235.88 531.470199,240.96 C526.880795,246.04 524.258278,252.39 524.258278,260.01 C524.258278,267.63 526.880795,273.98 531.470199,279.06 C536.715232,284.14 542.615894,286.68 549.827815,286.68 C557.039735,286.68 563.596026,284.14 568.18543,279.06 C573.430464,273.98 575.397351,267.63 575.397351,259.375 C575.397351,251.755 572.774834,245.405 568.18543,240.325 C563.596026,235.88 557.695364,233.34 549.827815,233.34 Z M575.397351,180 L599,180 L599,304.46 L575.397351,304.46 L575.397351,294.935 C570.807947,299.38 566.218543,301.92 561.629139,303.825 C557.039735,305.73 551.139073,307 545.89404,307 C533.437086,307 522.94702,302.555 513.768212,293.665 C504.589404,284.775 500,273.345 500,260.01 C500,246.04 504.589404,234.61 513.112583,225.72 C521.635762,216.83 532.125828,212.385 544.582781,212.385 C550.483444,212.385 555.728477,213.655 560.317881,215.56 C565.562914,217.465 570.152318,220.64 574.086093,224.45 L574.086093,180 L575.397351,180 Z" id="Fill-22" fill-rule="nonzero"></path>
            <path d="M620.612245,302 L646.081633,302 L646.081633,211.83 L620.612245,211.83 L620.612245,302 Z M633.673469,175 C638.244898,175 642.163265,176.27 645.428571,179.445 C648.693878,182.62 650,185.795 650,189.605 C650,193.415 648.693878,197.225 645.428571,199.765 C642.163265,202.305 638.244898,204.21 634.326531,204.21 C629.755102,204.21 625.836735,202.94 622.571429,199.765 C619.306122,196.59 618,193.415 618,188.97 C618,185.16 619.306122,181.35 622.571429,178.81 C625.183673,176.27 629.102041,175 633.673469,175 Z" id="Fill-23" fill-rule="nonzero"></path>
            <path d="M711,234.449664 C704.106667,234.449664 698.466667,236.973154 693.453333,242.020134 C689.066667,247.067114 686.56,253.375839 686.56,260.946309 C686.56,268.516779 689.066667,274.825503 693.453333,279.872483 C697.84,284.919463 704.106667,287.442953 711,287.442953 C717.893333,287.442953 724.16,284.919463 728.546667,279.872483 C732.933333,274.825503 735.44,268.516779 735.44,260.946309 C735.44,253.375839 732.933333,247.067114 728.546667,242.020134 C724.16,236.973154 717.893333,234.449664 711,234.449664 M710.373333,213 C718.52,213 726.666667,214.892617 734.186667,219.308725 C741.706667,223.724832 747.346667,229.402685 751.733333,236.342282 C756.12,243.912752 758,251.483221 758,259.684564 C758,267.885906 756.12,276.087248 751.733333,283.657718 C747.346667,291.228188 741.706667,296.90604 734.813333,300.691275 C727.293333,305.107383 719.773333,307 711,307 C697.84,307 687.186667,302.583893 677.786667,293.120805 C668.386667,283.657718 664,272.932886 664,259.684564 C664,245.805369 669.013333,233.818792 679.666667,224.355705 C688.44,216.785235 698.466667,213 710.373333,213" id="Fill-24" fill-rule="nonzero"></path>
            <path d="M0,32 L0,43 C8.1,37.5 16.875,33.65 27,32 L0,32 Z" id="Fill-25"></path>
            <path d="M70.8181818,120.95 C77.1818182,113.8 81,104.05 81,92.35 C81,80.65 77.8181818,71.55 70.8181818,64.4 C64.4545455,57.25 55.5454545,54 45.3636364,54 C35.1818182,54 26.9090909,57.9 20.5454545,65.05 C14.1818182,72.2 11,81.3 11,93 C11,104.7 14.1818182,113.8 21.1818182,120.95 C27.5454545,128.1 35.8181818,132 46,132 C56.1818182,132 64.4545455,128.1 70.8181818,120.95" id="Fill-26"></path>
            <path d="M81,43 L81,32 L54,32 C56.7,32.55 58.725,33.1 60.75,33.65 C68.175,35.85 74.925,38.6 81,43" id="Fill-27"></path>
            <path d="M175.405405,32 C178.594595,32.6395349 181.145946,33.9186047 184.335135,35.1976744 C191.351351,39.0348837 197.72973,44.1511628 202.832432,51.1860465 L183.059459,71.0116279 C174.767568,63.3372093 167.751351,58.8604651 161.372973,58.8604651 C157.545946,58.8604651 154.994595,59.5 153.081081,61.4186047 C151.167568,62.6976744 149.891892,64.6162791 149.891892,67.1744186 C149.891892,69.0930233 150.52973,70.372093 151.805405,71.6511628 C153.081081,72.9302326 156.27027,74.8488372 161.372973,77.4069767 L172.854054,83.1627907 C184.972973,88.9186047 193.264865,95.3139535 198.367568,101.709302 C202.832432,108.104651 205.383784,115.139535 205.383784,124.093023 C205.383784,135.604651 201.556757,144.55814 193.264865,152.232558 C184.972973,159.906977 174.12973,163.744186 160.097297,163.744186 C141.6,163.744186 126.92973,156.709302 116.086486,142 L135.859459,120.255814 C139.686486,124.732558 144.151351,127.930233 149.254054,131.127907 C154.356757,133.686047 158.821622,134.965116 162.648649,134.965116 C167.113514,134.965116 170.302703,133.686047 172.854054,131.767442 C175.405405,129.848837 176.681081,127.290698 176.681081,124.732558 C176.681081,119.616279 172.216216,115.139535 162.648649,110.662791 L151.805405,105.546512 C131.394595,95.3139535 121.189189,81.8837209 121.189189,66.5348837 C121.189189,56.3023256 125.016216,47.9883721 132.67027,40.9534884 C135.859459,36.4767442 140.962162,33.9186047 146.702703,32 L112.259459,32 L112.259459,160.546512 L80.3675676,160.546512 L80.3675676,147.116279 C73.9891892,152.872093 68.2486486,157.348837 61.8702703,159.906977 C55.4918919,162.465116 49.1135135,163.744186 41.4594595,163.744186 C25.5135135,163.744186 12.1189189,157.988372 0,145.837209 L0,307 L236,307 L236,32 L175.405405,32 Z" id="Fill-28"></path>
        </g>
        <g id="Group" transform="translate(768.000000, 404.000000)" fill="#FFFFFF" fill-rule="nonzero">
            <path d="M46.6958277,39.6662412 C46.6958277,51.2335673 45.0242261,60 27.4724092,60 C10.0296097,60 7.34051144,51.5609445 7.34051144,39.6662412 L7.34051144,11.5845565 C7.34051144,5.25526484 4.65141319,4.67326101 0,4.67326101 L0,3 L22.166891,3 L22.166891,4.67326101 C17.6244953,4.67326101 14.8263795,5.25526484 14.8263795,11.5845565 L14.8263795,39.6662412 C14.8263795,48.2871729 16.8613728,56.6898532 27.7994616,56.6898532 C39.9367429,56.6898532 41.8627187,49.7058073 41.8627187,39.6662412 L41.8627187,11.5845565 C41.8627187,5.25526484 39.1009421,4.67326101 34.5222073,4.67326101 L34.5222073,3 L54,3 L54,4.67326101 C49.3485868,4.67326101 46.6594886,5.25526484 46.6594886,11.5845565 L46.6594886,39.6662412 L46.6958277,39.6662412 Z" id="Path"></path>
            <path d="M94,56.665201 C89.862069,58.2217337 85.1433757,59 78.9364791,59 C62.0943739,59 54,45.9177136 54,27.6099246 C54,11.7110553 59.0453721,0 77.0490018,0 C83.800363,0 89.4990926,1.37123116 93.2377495,2.4089196 L94,15.8988693 L91.8947368,15.8988693 C90.8058076,11.0810302 87.430127,3.33542714 76.9764065,3.33542714 C63.4373866,3.33542714 62.3121597,18.0483668 62.3121597,26.9057789 C62.3121597,37.986809 64.6715064,55.1086683 83.1107078,55.1086683 C88.7368421,55.1086683 91.7858439,53.8115578 93.9637024,52.9591709 L93.9637024,56.665201 L94,56.665201 Z" id="Path"></path>
            <path d="M138,13.2388435 C137.192308,8.67756128 133.615385,3.33752357 124.076923,3.33752357 C118.076923,3.33752357 112.846154,7.04588309 112.846154,12.7196732 C112.846154,20.3588938 123.461538,22.8805783 131.230769,27.2564425 C138.269231,31.2243872 143,34.7473287 143,42.9057197 C143,53.8453803 133.192308,59 120.961538,59 C114.884615,59 107.846154,57.7020742 105.615385,57.3683218 L105,45.2419862 L107.230769,45.2419862 C107.923077,49.8032684 112.153846,55.1433061 121.692308,55.1433061 C129.538462,55.1433061 134.615385,50.2482715 134.615385,44.3148963 C134.615385,35.0439975 119.807692,32.1885607 111.5,26.0697674 C107.576923,23.1401634 105.692308,20.062225 105.692308,14.5367693 C105.692308,4.22752986 114.538462,0 125.769231,0 C131.769231,0 135.576923,0.704588309 139.615385,1.44626021 L140.230769,13.2388435 L138,13.2388435 Z" id="Path"></path>
            <path d="M179.887324,59.2707071 C178.948357,59.5010101 177.032864,60 174.253521,60 C169.746479,60 168.431925,57.620202 168.431925,54.2040404 L168.28169,54.2040404 C165.877934,57.7737374 162.57277,60 157.276995,60 C151.943662,60 148,56.2 148,51.0565657 C148,39.579798 162.57277,39.579798 168.469484,39.0040404 L168.469484,36.010101 C168.469484,30.4444444 168.394366,24.610101 161.896714,24.610101 C157.089202,24.610101 156.488263,26.6828283 156.488263,29.2161616 C156.488263,32.4787879 154.159624,33.3232323 152.84507,33.3232323 C150.741784,33.3232323 149.126761,31.9030303 149.126761,29.7535354 C149.126761,24.610101 156.638498,22 162.00939,22 C172.638498,22 174.553991,27.220202 174.553991,34.589899 L174.553991,54.2424242 C174.553991,57.0060606 175.492958,57.9656566 177.896714,57.9656566 C178.57277,57.9656566 179.286385,57.8121212 180,57.6585859 L180,59.2707071 L179.887324,59.2707071 Z M168.394366,41.6141414 C164.751174,41.6909091 154.835681,42.420202 154.835681,49.789899 C154.835681,53.8969697 157.464789,56.6606061 160.131455,56.6606061 C165.164319,56.6606061 168.431925,51.6707071 168.431925,46.2969697 L168.431925,41.6141414 L168.394366,41.6141414 Z" id="Shape"></path>
            <path d="M180,55.6663234 C183.166667,55.6663234 185.714559,55.0175077 185.714559,50.1513903 L185.714559,29.8578785 C185.714559,25.3882595 182.183908,25.1719876 180,25.0278064 L180,23.7662204 L191.574713,22 L191.574713,31.8043254 L191.720307,31.8043254 C192.775862,29.0648816 196.124521,22 203.586207,22 C211.557471,22 212.285441,26.3254377 212.285441,33.246138 L212.285441,50.2234809 C212.285441,55.053553 214.833333,55.738414 218,55.738414 L218,57 L200.710728,57 L200.710728,55.6663234 C203.877395,55.6663234 206.425287,55.0175077 206.425287,50.1513903 L206.425287,34.8321318 C206.425287,28.4521112 206.35249,25.5324408 201.402299,25.5324408 C196.961686,25.5324408 191.574713,33.930999 191.574713,40.9958805 L191.574713,50.1513903 C191.574713,54.9814624 194.122605,55.6663234 197.289272,55.6663234 L197.289272,56.9279094 L180,56.9279094 L180,55.6663234 L180,55.6663234 Z" id="Path"></path>
            <path d="M228,58.2660194 C232.491018,58.2660194 235.257485,57.6757282 235.257485,51.2563107 L235.257485,11.7067961 C235.257485,5.28737864 232.491018,4.69708738 228,4.69708738 L228,3 L247.508982,3 C261.341317,3 276,6.06213592 276,31.592233 C276,57.0116505 260.586826,60 247.508982,60 L228,60 L228,58.2660194 Z M242.658683,49.4485437 C242.658683,55.6834951 243.341317,56.6427184 247.508982,56.6427184 C261.844311,56.6427184 267.772455,48.784466 267.772455,31.5553398 C267.772455,15.8019417 263.353293,6.32038835 247.508982,6.32038835 C243.341317,6.32038835 242.658683,6.8368932 242.658683,13.5145631 L242.658683,49.4485437 Z" id="Shape"></path>
            <path d="M279,55.6848138 C281.930526,55.6848138 284.288421,55.0272206 284.288421,50.0952722 L284.288421,29.5272206 C284.288421,24.9971347 281.088421,24.777937 279,24.6318052 L279,23.3531519 L289.711579,21.5630372 L289.711579,50.1318052 C289.711579,55.0272206 292.069474,55.7213467 295,55.7213467 L295,57 L279,57 L279,55.6848138 Z M282.806316,10.3108883 C282.806316,7.89971347 284.557895,6 286.747368,6 C288.970526,6 290.722105,7.89971347 290.722105,10.3108883 C290.722105,12.722063 288.970526,14.6217765 286.747368,14.6217765 C284.557895,14.6217765 282.806316,12.722063 282.806316,10.3108883 Z" id="Shape"></path>
            <path d="M323.950777,58.579798 C322.007772,59.3090909 319.287565,60 314.391192,60 C301.955959,60 295,53.2828283 295,39.9636364 C295,28.410101 299.740933,22 311.282383,22 C318.510363,22 325,25.9535354 325,35.1272727 L325,36.8545455 L301.683938,36.8545455 C301.683938,43.4949495 304.948187,57.0444444 318.354922,57.0444444 C320.181347,57.0444444 322.357513,56.8141414 323.950777,56.0080808 L323.950777,58.579798 L323.950777,58.579798 Z M317.849741,34.2444444 C317.849741,30.0606061 316.411917,24.5717172 310.233161,24.5717172 C304.132124,24.5717172 301.645078,31.2888889 301.645078,34.2444444 L317.849741,34.2444444 Z" id="Shape"></path>
            <path d="M346.750789,50.5238095 C350.394322,50.5238095 358.822292,50.6736508 358.822292,59.2520635 C358.822292,68.0552381 350.320715,73 340.19979,73 C332.76551,73 325,70.1530159 325,63.1853968 C325,58.3904762 328.49632,56.2926984 330.925342,55.0565079 C329.637224,54.2698413 327.649842,52.8088889 327.649842,49.5873016 C327.649842,46.7403175 330.078864,43.7809524 330.925342,42.8444444 C329.15878,41.3834921 326.508938,39.0609524 326.508938,32.5053968 C326.508938,22.5409524 333.648791,20.368254 340.86225,20.368254 C344.35857,20.368254 346.272345,20.967619 348.701367,22.2787302 C349.915878,19.3568254 351.719243,14 356.356467,14 C358.491062,14 360,15.3860317 360,17.7085714 C360,19.8063492 358.711882,21.192381 356.430074,21.192381 C354.442692,21.192381 354.001052,20.1060317 353.007361,20.1060317 C351.351209,20.1060317 350.651945,22.3536508 350.283912,23.5898413 C351.203996,24.6012698 353.706625,27.448254 353.706625,32.88 C353.706625,40.671746 348.922187,45.0920635 339.831756,45.0920635 C336.777077,45.0920635 334.568875,44.7174603 332.912723,43.9307937 C332.43428,44.567619 331.550999,45.6914286 331.550999,47.4146032 C331.550999,50.5238095 335.341746,50.5238095 337.770768,50.5238095 L346.750789,50.5238095 L346.750789,50.5238095 Z M333.611987,56.0304762 C332.103049,57.191746 329.968454,58.5028571 329.968454,61.9866667 C329.968454,66.5568254 333.980021,70.4901587 340.604627,70.4901587 C347.523659,70.4901587 353.890641,66.8565079 353.890641,61.2749206 C353.890641,57.3415873 350.688749,56.0304762 346.898002,56.0304762 L333.611987,56.0304762 L333.611987,56.0304762 Z M340.19979,42.5822222 C346.566772,42.5822222 347.413249,37.487619 347.413249,33.3669841 C347.413249,27.5606349 345.425868,22.9530159 339.97897,22.9530159 C333.980021,22.9530159 332.839117,27.448254 332.839117,31.9060317 C332.839117,37.7873016 334.752892,42.5822222 340.19979,42.5822222 Z" id="Shape"></path>
            <path d="M360,41 C360,29.1010101 366.199536,22 376,22 C385.800464,22 392,29.1393939 392,41 C392,52.8606061 385.800464,60 376,60 C366.199536,60 360,52.8606061 360,41 Z M376,57.389899 C383.647332,57.389899 385.206497,47.5636364 385.206497,41 C385.206497,34.4363636 383.684455,24.610101 376,24.610101 C368.352668,24.610101 366.830626,34.4363636 366.830626,41 C366.793503,47.5636364 368.352668,57.389899 376,57.389899 Z" id="Shape"></path>
            <path d="M323.176411,70 L0,70 L0,73 L325,73 C324.307036,72.1346154 323.687016,71.0961538 323.176411,70 Z" id="Path"></path>
            <path d="M392,70 L362.228311,70 C361.570776,71.0961538 360.803653,72.0769231 360,73 L392,73 L392,70 Z" id="Path"></path>
        </g>
    </g>
  <style>        .animated {
      animation-duration: .35s;
      animation-fill-mode: both;
      -webkit-animation-duration: .35s;
      animation-timing-function: ease-in-out;
      -webkit-animation-fill-mode: both;
    }
    @keyframes fadeInUp {
        from {
            transform: translateY(20px);
        }
        to {
            transform: translateY(0px);
            opacity: 1;
        }
    }
    @-webkit-keyframes fadeInUp {
        from {
        }
        to {
            opacity: 1;
        }
    }
    .fadeInUp {
        opacity: 0;
        animation-name: fadeInUp;
        -webkit-animation-name: fadeInUp;
    }</style>  
</svg>