<?xml version="1.0" encoding="UTF-8"?>
<svg width="2000px" height="1000px" viewBox="0 0 2000 1000" version="1.1" xmlns="http://www.w3.org/2000/svg" xmlns:xlink="http://www.w3.org/1999/xlink">
    <title>wire_eqr</title>
    <g id="wire_eqr" stroke="none" stroke-width="1" fill="none" fill-rule="evenodd">
        <g id="Group" transform="translate(195.000000, 214.656682)">
            <text id="Event" class="animated fadeInUp" font-family="AvenirNext-Medium, Avenir Next" font-size="90" font-weight="400" letter-spacing="4.7375001" fill="#FFFFFF">
                <tspan x="0" y="90.343318">Event</tspan>
            </text>
            <text id="Queuer" class="animated fadeInUp" font-family="AvenirNext-Medium, Avenir Next" font-size="90" font-weight="400" letter-spacing="4.7375001" fill="#FFFFFF">
                <tspan x="46" y="168.343318">Queuer</tspan>
            </text>
            <g id="placeholder-qrcode" transform="translate(290.000000, 28.343318)" fill="#B3B3B3" fill-rule="nonzero">
                <g id="g30" class="animated fadeInUp" transform="translate(35.500000, 35.500000) scale(-1, 1) rotate(-180.000000) translate(-35.500000, -35.500000) translate(0.000000, -0.000000)">
                    <path d="M0,59.1666665 L0,47.3333334 L11.8333333,47.3333334 L23.6666667,47.3333334 L23.6666667,59.1666665 L23.6666667,71 L11.8333333,71 L0,71 L0,59.1666665 Z M20.2857143,59.1666665 L20.2857143,50.7142857 L11.8333333,50.7142857 L3.38095238,50.7142857 L3.38095238,59.1666665 L3.38095238,67.6190475 L11.8333333,67.6190475 L20.2857143,67.6190475 L20.2857143,59.1666665 Z" id="path2"></path>
                    <polygon id="path4" points="6.76190479 59.1666665 6.76190479 54.0952381 11.8333333 54.0952381 16.9047619 54.0952381 16.9047619 59.1666665 16.9047619 64.238095 11.8333333 64.238095 6.76190479 64.238095"></polygon>
                    <path d="M33.8095238,65.9285715 L33.8095238,60.857143 L37.1904762,60.857143 L40.5714285,60.857143 L40.5714285,59.1666665 L40.5714285,57.4761905 L33.8095238,57.4761905 L27.047619,57.4761905 L27.047619,50.7142857 L27.047619,43.9523809 L23.6666667,43.9523809 L20.2857143,43.9523809 L20.2857143,42.2619047 L20.2857143,40.5714285 L18.5952381,40.5714285 L16.9047619,40.5714285 L16.9047619,37.1904762 L16.9047619,33.8095238 L15.2142857,33.8095238 L13.5238095,33.8095238 L13.5238095,38.8809524 L13.5238095,43.9523809 L11.8333333,43.9523809 L10.1428572,43.9523809 L10.1428572,42.2619047 L10.1428572,40.5714285 L8.45238097,40.5714285 L6.76190479,40.5714285 L6.76190479,42.2619047 L6.76190479,43.9523809 L3.38095238,43.9523809 L0,43.9523809 L0,42.2619047 L0,40.5714285 L3.38095238,40.5714285 L6.76190479,40.5714285 L6.76190479,38.8809524 L6.76190479,37.1904762 L8.45238097,37.1904762 L10.1428572,37.1904762 L10.1428572,35.5 L10.1428572,33.8095238 L8.45238097,33.8095238 L6.76190479,33.8095238 L6.76190479,32.1190476 L6.76190479,30.4285715 L8.45238097,30.4285715 L10.1428572,30.4285715 L10.1428572,28.7380953 L10.1428572,27.0476191 L13.5238095,27.0476191 L16.9047619,27.0476191 L16.9047619,28.7380953 L16.9047619,30.4285715 L18.5952381,30.4285715 L20.2857143,30.4285715 L20.2857143,28.7380953 L20.2857143,27.0476191 L21.9761905,27.0476191 L23.6666667,27.0476191 L23.6666667,28.7380953 L23.6666667,30.4285715 L21.9761905,30.4285715 L20.2857143,30.4285715 L20.2857143,32.1190476 L20.2857143,33.8095238 L21.9761905,33.8095238 L23.6666667,33.8095238 L23.6666667,35.5 L23.6666667,37.1904762 L25.3571428,37.1904762 L27.047619,37.1904762 L27.047619,35.5 L27.047619,33.8095238 L30.4285715,33.8095238 L33.8095238,33.8095238 L33.8095238,32.1190476 L33.8095238,30.4285715 L30.4285715,30.4285715 L27.047619,30.4285715 L27.047619,25.3571428 L27.047619,20.2857143 L28.7380952,20.2857143 L30.4285715,20.2857143 L30.4285715,21.9761905 L30.4285715,23.6666666 L32.1190476,23.6666666 L33.8095238,23.6666666 L33.8095238,21.9761905 L33.8095238,20.2857143 L38.8809524,20.2857143 L43.952381,20.2857143 L43.952381,16.9047619 L43.952381,13.5238095 L42.2619048,13.5238095 L40.5714285,13.5238095 L40.5714285,10.1428572 L40.5714285,6.76190475 L38.8809524,6.76190475 L37.1904762,6.76190475 L37.1904762,8.45238095 L37.1904762,10.1428572 L35.5,10.1428572 L33.8095238,10.1428572 L33.8095238,8.45238095 L33.8095238,6.76190475 L30.4285715,6.76190475 L27.047619,6.76190475 L27.047619,3.38095238 L27.047619,0 L30.4285715,0 L33.8095238,0 L33.8095238,3.38095238 L33.8095238,6.76190475 L35.5,6.76190475 L37.1904762,6.76190475 L37.1904762,3.38095238 L37.1904762,0 L38.8809524,0 L40.5714285,0 L40.5714285,1.69047619 L40.5714285,3.38095238 L42.2619048,3.38095238 L43.952381,3.38095238 L43.952381,1.69047619 L43.952381,0 L50.7142857,0 L57.4761905,0 L57.4761905,8.45238095 L57.4761905,16.9047619 L59.1666667,16.9047619 L60.8571428,16.9047619 L60.8571428,18.5952381 L60.8571428,20.2857143 L62.5476188,20.2857143 L64.2380951,20.2857143 L64.2380951,18.5952381 L64.2380951,16.9047619 L65.9285715,16.9047619 L67.6190479,16.9047619 L67.6190479,20.2857143 L67.6190479,23.6666666 L65.9285715,23.6666666 L64.2380951,23.6666666 L64.2380951,25.3571428 L64.2380951,27.0476191 L62.5476188,27.0476191 L60.8571428,27.0476191 L60.8571428,25.3571428 L60.8571428,23.6666666 L57.4761905,23.6666666 L54.0952381,23.6666666 L54.0952381,25.3571428 L54.0952381,27.0476191 L55.7857143,27.0476191 L57.4761905,27.0476191 L57.4761905,28.7380953 L57.4761905,30.4285715 L54.0952381,30.4285715 L50.7142857,30.4285715 L50.7142857,32.1190476 L50.7142857,33.8095238 L52.4047619,33.8095238 L54.0952381,33.8095238 L54.0952381,35.5 L54.0952381,37.1904762 L55.7857143,37.1904762 L57.4761905,37.1904762 L57.4761905,35.5 L57.4761905,33.8095238 L60.8571428,33.8095238 L64.2380951,33.8095238 L64.2380951,32.1190476 L64.2380951,30.4285715 L67.6190479,30.4285715 L71,30.4285715 L71,35.5 L71,40.5714285 L69.3095236,40.5714285 L67.6190479,40.5714285 L67.6190479,42.2619047 L67.6190479,43.9523809 L64.2380951,43.9523809 L60.8571428,43.9523809 L60.8571428,42.2619047 L60.8571428,40.5714285 L59.1666667,40.5714285 L57.4761905,40.5714285 L57.4761905,42.2619047 L57.4761905,43.9523809 L52.4047619,43.9523809 L47.3333333,43.9523809 L47.3333333,42.2619047 L47.3333333,40.5714285 L45.6428572,40.5714285 L43.952381,40.5714285 L43.952381,42.2619047 L43.952381,43.9523809 L38.8809524,43.9523809 L33.8095238,43.9523809 L33.8095238,40.5714285 L33.8095238,37.1904762 L32.1190476,37.1904762 L30.4285715,37.1904762 L30.4285715,38.8809524 L30.4285715,40.5714285 L28.7380952,40.5714285 L27.047619,40.5714285 L27.047619,42.2619047 L27.047619,43.9523809 L28.7380952,43.9523809 L30.4285715,43.9523809 L30.4285715,47.3333334 L30.4285715,50.7142857 L32.1190476,50.7142857 L33.8095238,50.7142857 L33.8095238,49.0238095 L33.8095238,47.3333334 L35.5,47.3333334 L37.1904762,47.3333334 L37.1904762,50.7142857 L37.1904762,54.0952381 L40.5714285,54.0952381 L43.952381,54.0952381 L43.952381,57.4761905 L43.952381,60.857143 L42.2619048,60.857143 L40.5714285,60.857143 L40.5714285,62.547619 L40.5714285,64.238095 L42.2619048,64.238095 L43.952381,64.238095 L43.952381,67.6190475 L43.952381,71 L42.2619048,71 L40.5714285,71 L40.5714285,67.6190475 L40.5714285,64.238095 L38.8809524,64.238095 L37.1904762,64.238095 L37.1904762,67.6190475 L37.1904762,71 L35.5,71 L33.8095238,71 L33.8095238,65.9285715 Z M23.6666667,38.8809524 L23.6666667,37.1904762 L21.9761905,37.1904762 L20.2857143,37.1904762 L20.2857143,38.8809524 L20.2857143,40.5714285 L21.9761905,40.5714285 L23.6666667,40.5714285 L23.6666667,38.8809524 Z M43.952381,37.1904762 L43.952381,33.8095238 L45.6428572,33.8095238 L47.3333333,33.8095238 L47.3333333,37.1904762 L47.3333333,40.5714285 L50.7142857,40.5714285 L54.0952381,40.5714285 L54.0952381,38.8809524 L54.0952381,37.1904762 L52.4047619,37.1904762 L50.7142857,37.1904762 L50.7142857,35.5 L50.7142857,33.8095238 L49.0238095,33.8095238 L47.3333333,33.8095238 L47.3333333,32.1190476 L47.3333333,30.4285715 L49.0238095,30.4285715 L50.7142857,30.4285715 L50.7142857,23.6666666 L50.7142857,16.9047619 L52.4047619,16.9047619 L54.0952381,16.9047619 L54.0952381,18.5952381 L54.0952381,20.2857143 L55.7857143,20.2857143 L57.4761905,20.2857143 L57.4761905,18.5952381 L57.4761905,16.9047619 L55.7857143,16.9047619 L54.0952381,16.9047619 L54.0952381,15.2142857 L54.0952381,13.5238095 L50.7142857,13.5238095 L47.3333333,13.5238095 L47.3333333,20.2857143 L47.3333333,27.0476191 L45.6428572,27.0476191 L43.952381,27.0476191 L43.952381,25.3571428 L43.952381,23.6666666 L42.2619048,23.6666666 L40.5714285,23.6666666 L40.5714285,27.0476191 L40.5714285,30.4285715 L38.8809524,30.4285715 L37.1904762,30.4285715 L37.1904762,27.0476191 L37.1904762,23.6666666 L35.5,23.6666666 L33.8095238,23.6666666 L33.8095238,27.0476191 L33.8095238,30.4285715 L35.5,30.4285715 L37.1904762,30.4285715 L37.1904762,32.1190476 L37.1904762,33.8095238 L35.5,33.8095238 L33.8095238,33.8095238 L33.8095238,35.5 L33.8095238,37.1904762 L35.5,37.1904762 L37.1904762,37.1904762 L37.1904762,35.5 L37.1904762,33.8095238 L38.8809524,33.8095238 L40.5714285,33.8095238 L40.5714285,37.1904762 L40.5714285,40.5714285 L42.2619048,40.5714285 L43.952381,40.5714285 L43.952381,37.1904762 Z M67.6190479,35.5 L67.6190479,33.8095238 L65.9285715,33.8095238 L64.2380951,33.8095238 L64.2380951,35.5 L64.2380951,37.1904762 L65.9285715,37.1904762 L67.6190479,37.1904762 L67.6190479,35.5 Z M47.3333333,8.45238095 L47.3333333,6.76190475 L49.0238095,6.76190475 L50.7142857,6.76190475 L50.7142857,5.07142857 L50.7142857,3.38095238 L47.3333333,3.38095238 L43.952381,3.38095238 L43.952381,6.76190475 L43.952381,10.1428572 L45.6428572,10.1428572 L47.3333333,10.1428572 L47.3333333,8.45238095 Z" id="path6"></path>
                    <polygon id="path8" points="40.5714285 32.1190476 40.5714285 30.4285715 42.2619048 30.4285715 43.952381 30.4285715 43.952381 32.1190476 43.952381 33.8095238 42.2619048 33.8095238 40.5714285 33.8095238"></polygon>
                    <path d="M47.3333333,59.1666665 L47.3333333,47.3333334 L59.1666667,47.3333334 L71,47.3333334 L71,59.1666665 L71,71 L59.1666667,71 L47.3333333,71 L47.3333333,59.1666665 Z M67.6190479,59.1666665 L67.6190479,50.7142857 L59.1666667,50.7142857 L50.7142857,50.7142857 L50.7142857,59.1666665 L50.7142857,67.6190475 L59.1666667,67.6190475 L67.6190479,67.6190475 L67.6190479,59.1666665 Z" id="path10"></path>
                    <polygon id="path12" points="54.0952381 59.1666665 54.0952381 54.0952381 59.1666667 54.0952381 64.2380951 54.0952381 64.2380951 59.1666665 64.2380951 64.238095 59.1666667 64.238095 54.0952381 64.238095"></polygon>
                    <polygon id="path14" points="27.047619 64.238095 27.047619 60.857143 28.7380952 60.857143 30.4285715 60.857143 30.4285715 64.238095 30.4285715 67.6190475 28.7380952 67.6190475 27.047619 67.6190475"></polygon>
                    <polygon id="path16" points="40.5714285 49.0238095 40.5714285 47.3333334 42.2619048 47.3333334 43.952381 47.3333334 43.952381 49.0238095 43.952381 50.7142857 42.2619048 50.7142857 40.5714285 50.7142857"></polygon>
                    <polygon id="path18" points="0 33.8095238 0 30.4285715 1.69047619 30.4285715 3.38095238 30.4285715 3.38095238 33.8095238 3.38095238 37.1904762 1.69047619 37.1904762 0 37.1904762"></polygon>
                    <path d="M0,11.8333334 L0,0 L11.8333333,0 L23.6666667,0 L23.6666667,11.8333334 L23.6666667,23.6666666 L11.8333333,23.6666666 L0,23.6666666 L0,11.8333334 Z M20.2857143,11.8333334 L20.2857143,3.38095238 L11.8333333,3.38095238 L3.38095238,3.38095238 L3.38095238,11.8333334 L3.38095238,20.2857143 L11.8333333,20.2857143 L20.2857143,20.2857143 L20.2857143,11.8333334 Z" id="path20"></path>
                    <polygon id="path22" points="6.76190479 11.8333334 6.76190479 6.76190475 11.8333333 6.76190475 16.9047619 6.76190475 16.9047619 11.8333334 16.9047619 16.9047619 11.8333333 16.9047619 6.76190479 16.9047619"></polygon>
                    <polygon id="path24" points="30.4285715 15.2142857 30.4285715 13.5238095 28.7380952 13.5238095 27.047619 13.5238095 27.047619 11.8333334 27.047619 10.1428572 28.7380952 10.1428572 30.4285715 10.1428572 30.4285715 11.8333334 30.4285715 13.5238095 32.1190476 13.5238095 33.8095238 13.5238095 33.8095238 15.2142857 33.8095238 16.9047619 32.1190476 16.9047619 30.4285715 16.9047619"></polygon>
                    <polygon id="path26" points="64.2380951 11.8333334 64.2380951 10.1428572 62.5476188 10.1428572 60.8571428 10.1428572 60.8571428 8.45238095 60.8571428 6.76190475 62.5476188 6.76190475 64.2380951 6.76190475 64.2380951 8.45238095 64.2380951 10.1428572 65.9285715 10.1428572 67.6190479 10.1428572 67.6190479 8.45238095 67.6190479 6.76190475 69.3095236 6.76190475 71 6.76190475 71 10.1428572 71 13.5238095 67.6190479 13.5238095 64.2380951 13.5238095"></polygon>
                    <polygon id="path28" points="64.2380951 1.69047619 64.2380951 0 65.9285715 0 67.6190479 0 67.6190479 1.69047619 67.6190479 3.38095238 65.9285715 3.38095238 64.2380951 3.38095238"></polygon>
                </g>
            </g>
        </g>
        <rect id="Rectangle" class="animated fadeInUp delay1" stroke="#FFFFFF" stroke-width="3" fill="#1B1B1D" x="1103" y="158" width="702" height="411" rx="7"></rect>
        <rect id="Rectangle" class="animated fadeInUp delay2" stroke="#FFFFFF" stroke-width="3" fill="#1B1B1D" x="834" y="328" width="702" height="411" rx="7"></rect>
        <rect id="Rectangle" class="animated fadeInUp delay3" stroke="#FFFFFF" stroke-width="3" fill="#1B1B1D" x="1357" y="419" width="209" height="423" rx="22"></rect>
        <ellipse id="Home" class="animated fadeInUp delay3" stroke="#FFFFFF" stroke-width="3" cx="1461.5" cy="813" rx="15" ry="13.5"></ellipse>
        <rect id="Rectangle" class="animated fadeInUp delay4" stroke="#FFFFFF" stroke-width="3" fill="#1B1B1D" x="1596" y="419" width="209" height="423" rx="22"></rect>
        <ellipse id="Home" class="animated fadeInUp delay4" stroke="#FFFFFF" stroke-width="3" cx="1700.5" cy="813" rx="15" ry="13.5"></ellipse>
    </g>

    <style>
    .animated {
      animation-duration: .6s;
      animation-fill-mode: both;
      -webkit-animation-duration: .6s;
      animation-timing-function: ease-in-out;
      -webkit-animation-fill-mode: both;
    }
    .delay1 {
      animation-delay: .4s;
    }
    .delay2 {
      animation-delay: .7s;
    }
    .delay3 {
      animation-delay: 1s;
    }
    .delay4 {
      animation-delay: 1.3s;
    }

    @keyframes fadeInUp {
        from {
            transform: translateY(20px);
        }

        to {
            transform: translateY(0px);
            opacity: 1;
        }
    }

    @-webkit-keyframes fadeInUp {
        from {
        }

        to {
            opacity: 1;
        }
    }
    .fadeInUp {
        opacity: 0;
        animation-name: fadeInUp;
        -webkit-animation-name: fadeInUp;
    }
    
    </style>
</svg>