<?xml version="1.0" encoding="UTF-8"?>
<svg width="2000px" height="1000px" viewBox="0 0 2000 1000" version="1.1" xmlns="http://www.w3.org/2000/svg" xmlns:xlink="http://www.w3.org/1999/xlink">
    <title>wire_nanome</title>
    <g id="wire_nanome" class="animated fadeInUp" stroke="none" stroke-width="1" fill="none" fill-rule="evenodd">
        <rect id="Rectangle" stroke="#FFFFFF" stroke-width="3" fill="#202124" x="1102.13833" y="166" width="702" height="411" rx="7"></rect>
        <rect id="Rectangle" stroke="#FFFFFF" stroke-width="3" fill="#202124" x="751.138333" y="288" width="702" height="411" rx="7"></rect>
        <rect id="Rectangle" stroke="#FFFFFF" stroke-width="3" fill="#202124" x="1007.13833" y="423" width="702" height="411" rx="7"></rect>
        <g id="Group" transform="translate(195.000000, 263.000000)" fill="#FFFFFF" fill-rule="nonzero">
            <polygon id="Path" points="162.093502 11 162.093502 51.0759313 135.006974 11 126 11 126 64 133.980569 64 133.980569 23.2680139 161.581357 64 170 64 170 11"></polygon>
            <path d="M177,55.1329114 C177,48.4092827 181.58148,45.0464135 190.100879,43 C195.683911,41.6139241 201.198655,40.7362869 201.198655,37.521097 C201.198655,34.964135 199.263839,33.2109705 194.111226,33.2109705 C188.027419,33.2109705 185.5194,35.9852321 185.5194,39.7848101 L185.5194,40.0063291 L178.361614,40.0063291 L178.361614,39.8607595 C178.361614,31.6751055 184.017072,27 193.82359,27 C203.489395,27 209,31.3839662 209,38.9852321 L209,64.2700422 L201.627005,64.2700422 L201.627005,59.521097 C198.692706,62.6624473 194.539576,65 189.026901,65 C181.082773,65 177.002069,60.7616034 177.002069,55.1371308 L177,55.1329114 Z M201.699431,50.164557 L201.699431,45.6329114 C200.768236,46.7299578 196.687532,47.9704641 192.464046,48.9219409 C186.951371,50.164557 184.375065,51.5527426 184.375065,54.5485232 C184.375065,57.0316456 186.380238,58.4936709 189.45939,58.4936709 C195.040352,58.4936709 199.696327,54.4746835 201.699431,50.164557 L201.699431,50.164557 Z" id="Shape"></path>
            <path d="M218,27.7246689 L225.782468,27.7246689 L225.782468,32.4392053 C228.281094,29.1027963 232.244505,27 237.093157,27 C246.344655,27 252,32.948149 252,42.8149553 L252,64 L244.068931,64 L244.068931,43.4684139 C244.068931,37.5202649 241.056568,33.7482169 235.182567,33.7482169 C229.894481,33.7482169 225.856768,37.6647798 225.856768,44.0464735 L225.856768,63.9979056 L218,63.9979056 L218,27.7246689 L218,27.7246689 Z" id="Path"></path>
            <path d="M257,46 C257,35.3312236 265.421164,27 275.962963,27 C286.504762,27 295,35.3312236 295,46 C295,56.5970464 286.506878,65 275.962963,65 C265.419048,65 257,56.5970464 257,46 Z M287.237037,46 C287.237037,39.5696203 282.259259,34.3080169 275.962963,34.3080169 C269.66455,34.3080169 264.760847,39.5696203 264.760847,46 C264.760847,52.4303797 269.66455,57.6919831 275.962963,57.6919831 C282.259259,57.6919831 287.237037,52.4303797 287.237037,46 Z" id="Shape"></path>
            <path d="M299.002111,27.7246689 L306.746424,27.7246689 L306.746424,32.0768708 C309.083652,28.8849768 312.808016,27 317.482472,27 C323.324488,27 327.416221,29.4651308 329.535983,33.528303 C332.016781,29.5384354 336.473772,27 341.878745,27 C351.812493,27 357,32.948149 357,42.2348013 L357,64 L349.036111,64 L349.036111,42.743745 C349.036111,37.3024454 346.042263,33.7482169 340.563394,33.7482169 C335.671472,33.7482169 331.873212,37.0846258 331.873212,43.5396241 L331.873212,63.9979056 L323.983219,63.9979056 L323.983219,42.3793162 C323.983219,37.0825314 320.987259,33.7482169 315.727968,33.7482169 C310.616468,33.7482169 306.816097,37.1558361 306.816097,43.8307483 L306.816097,64 L299,64 L299,27.7267633 L299.002111,27.7246689 Z" id="Path"></path>
            <path d="M362,46.1455696 C362,35.4029536 370.305396,27 381.111546,27 C391.989936,27 400,34.8185654 400,45.6329114 L400,48.7025316 L369.572379,48.7025316 C370.600727,54.3291139 375.009449,58.056962 381.406877,58.056962 C386.404138,58.056962 390.226447,55.4261603 392.138664,51.478903 L398.606206,55.0611814 C395.372435,61.0527426 389.56567,65 381.406877,65 C369.793346,65 362.002125,56.7405063 362.002125,46.1455696 L362,46.1455696 Z M369.937825,42.0548523 L391.989936,42.0548523 C390.814985,36.7932489 386.769583,33.8691983 381.111546,33.8691983 C375.672351,33.8691983 371.410232,37.2299578 369.937825,42.0548523 Z" id="Shape"></path>
            <path d="M42.0010401,15 C18.8037346,15 0,33.8042824 0,57.0005936 C0,59.3856689 0.210109215,61.7229595 0.59080215,64 L33.2638253,64 C31.7264915,62.0803053 30.7986825,59.649523 30.7986825,57.0005936 C30.7986825,50.8156031 35.8142599,45.8002968 41.9989599,45.8002968 C48.1836598,45.8002968 53.1992372,50.8156031 53.1992372,57.0005936 C53.1992372,59.649523 52.2735085,62.0803053 50.7340945,64 L83.4091979,64 C83.7919711,61.7229595 84,59.3856689 84,57.0005936 C84,33.8042824 65.1941851,15 41.9989599,15 L42.0010401,15 Z" id="Path"></path>
            <path d="M94.7775727,18.7785095 C90.481003,23.0738302 83.5161879,23.0738302 79.2216612,18.7785095 C74.9271345,14.4831888 74.9250915,7.5168112 79.2216612,3.22149052 C83.5182309,-1.07383017 90.483046,-1.07383017 94.7775727,3.22149052 C99.0741424,7.51885174 99.0741424,14.4831888 94.7775727,18.7785095 Z" id="Path"></path>
        </g>
    </g>
    <style>        .animated {
      animation-duration: .35s;
      animation-fill-mode: both;
      -webkit-animation-duration: .35s;
      animation-timing-function: ease-in-out;
      -webkit-animation-fill-mode: both;
    }
    @keyframes fadeInUp {
        from {
            transform: translateY(20px);
        }
        to {
            transform: translateY(0px);
            opacity: 1;
        }
    }
    @-webkit-keyframes fadeInUp {
        from {
        }
        to {
            opacity: 1;
        }
    }
    .fadeInUp {
        opacity: 0;
        animation-name: fadeInUp;
        -webkit-animation-name: fadeInUp;
    }</style>
</svg>