<?xml version="1.0" encoding="UTF-8"?>
<svg width="1409px" height="1625px" viewBox="0 0 1409 1625" version="1.1" xmlns="http://www.w3.org/2000/svg" xmlns:xlink="http://www.w3.org/1999/xlink">
    <title>wire_intuit_mobile</title>
    <g id="wire_intuit_mobile" class="animated fadeInUp" stroke="none" stroke-width="1" fill="none" fill-rule="evenodd">
        <rect id="Rectangle" stroke="#FFFFFF" stroke-width="3" fill="#202124" x="441" y="706" width="857" height="502" rx="7"></rect>
        <rect id="Rectangle" stroke="#FFFFFF" stroke-width="3" fill="#202124" x="113" y="914" width="857" height="501" rx="7"></rect>
        <rect id="Rectangle" stroke="#FFFFFF" stroke-width="3" fill="#202124" x="751" y="1025" width="255" height="516" rx="22"></rect>
        <rect id="Rectangle" stroke="#FFFFFF" stroke-width="3" fill="#202124" x="1043" y="1025" width="255" height="516" rx="22"></rect>
        <ellipse id="Home" stroke="#FFFFFF" stroke-width="3" cx="879" cy="1505.5" rx="18.5" ry="17"></ellipse>
        <ellipse id="Home" stroke="#FFFFFF" stroke-width="3" cx="1170.5" cy="1505.5" rx="19" ry="17"></ellipse>
        <g id="Group" transform="translate(249.000000, 106.000000)" fill="#FFFFFF" fill-rule="nonzero">
            <path d="M613.237733,262.48583 L589.234283,262.48583 C584.357694,262.48583 580.619582,259.858825 580.253724,254.982702 L579.87196,245.581026 C562.610745,259.499148 541.986366,267 520.234872,267 C478.240763,267 461,240.347503 461,199.756397 L461,88.6458988 C461,82.2559467 464.747202,80 470.728181,80 L496.990405,80 C502.996381,80 506.375452,81.8689528 506.375452,88.6458988 L506.375452,191.861722 C506.375452,212.531748 511.622444,226.798164 534.130649,226.798164 C548.358199,226.798164 566.371581,218.919424 577.622275,208.775631 L577.622275,88.6458988 C577.622275,82.2559467 581.003619,80 586.984598,80 L613.610408,80 C619.618656,80 623,81.8689528 623,88.6458988 L623,251.975531 C622.995455,259.858825 620.729864,262.48583 613.237733,262.48583 Z" id="Path"></path>
            <path d="M0,87.4827797 C0,82.9990146 2.27443553,80 6.80725714,80 L38.8144345,80 C43.3518417,80 46,82.6244215 46,87.4827797 L46,252.635174 C46,259.380119 42.9597767,262 36.5422918,262 L9.8406021,262 C3.05168719,262 0,259.380119 0,252.635174 L0,87.4827797 Z" id="Path"></path>
            <path d="M668,87.4827797 C668,82.9990146 670.285216,80 674.812098,80 L706.807414,80 C711.352633,80 714,82.6244215 714,87.4827797 L714,252.635174 C714,259.380119 710.969854,262 704.531367,262 L677.83766,262 C671.048483,262 668,259.380119 668,252.635174 L668,87.4827797 Z" id="Path"></path>
            <path d="M248.939529,262 L221.799239,262 C215.016451,262 212.757045,258.625198 212.757045,252.232872 L212.757045,150.085368 C212.757045,129.442865 207.111956,114.792173 184.102108,114.792173 C169.394264,114.792173 151.307591,122.693261 139.622188,132.817667 L139.622188,252.610631 C139.622188,259.01206 136.981264,261.997724 130.584563,261.997724 L103.053617,261.997724 C97.3971053,261.997724 94,259.01206 94,252.98839 L94,88.999854 C94,82.987563 96.6569156,79.6127607 103.43285,79.6127607 L127.925363,79.6127607 C133.200357,79.6127607 136.613454,81.1078687 136.978979,86.7401246 L137.351359,96.7644024 C154.70698,82.880607 176.572276,75 198.439857,75 C240.662655,75 258,101.281585 258,142.213863 L258,252.232872 C257.997715,258.625198 255.742878,262 248.939529,262 Z" id="Path"></path>
            <path d="M381,27.5068171 C381,12.3161461 368.696232,0 353.504544,0 C338.321945,0 326,12.3161461 326,27.5068171 C326,42.697488 338.324217,55 353.504544,55 C368.696232,55 381,42.697488 381,27.5068171 Z" id="Path"></path>
            <path d="M421.85294,80 C426.364593,80 429,81.49158 429,86.3681611 L429,112.751191 C429,117.244094 425.995271,119.868548 421.472219,119.868548 L377.871732,119.868548 L377.871732,252.635057 C377.871732,259.380086 374.864724,262 368.086985,262 L341.908455,262 C335.135276,262 332.132827,259.380086 332.132827,252.635057 L332.132827,119.868548 L288.520941,119.868548 C284.009288,119.868548 281,117.244094 281,112.751191 L281,86.3681611 C281,81.49158 283.630848,80 288.14934,80 L421.85294,80 Z" id="Path"></path>
            <path d="M848,27.5068171 C848,12.3161461 835.68538,0 820.496592,0 C805.31462,0 793,12.3161461 793,27.5068171 C793,42.697488 805.31462,55 820.496592,55 C835.68538,55 848,42.697488 848,27.5068171 Z" id="Path"></path>
            <path d="M886.866399,80 C891.369071,80 894,81.49158 894,86.3681611 L894,112.751191 C894,117.244094 891.002018,119.868548 886.474267,119.868548 L842.872437,119.868548 L842.872437,252.635057 C842.872437,259.380086 839.874455,262 833.096508,262 L806.910332,262 C800.134664,262 797.134402,259.380086 797.134402,252.635057 L797.125283,119.868548 L753.534852,119.868548 C749.011661,119.868548 746,117.244094 746,112.751191 L746,86.3681611 C746,81.49158 748.642328,80 753.142721,80 L886.866399,80 Z" id="Path"></path>
            <path d="M899.534903,237 C906.322413,237 912,242.377023 912,249.431004 C912,256.608944 906.322413,262 899.534903,262 C892.717144,262 887,256.608944 887,249.431004 C887.002327,242.377023 892.719471,237 899.534903,237 Z M899.534903,260.166339 C905.293931,260.166339 909.745253,255.55646 909.745253,249.431004 C909.745253,243.452896 905.293931,238.833661 899.534903,238.833661 C893.713049,238.833661 889.254747,243.455234 889.254747,249.431004 C889.254747,255.558799 893.713049,260.166339 899.534903,260.166339 Z M894.681031,242.178221 L900.293466,242.178221 C903.755864,242.178221 905.389334,243.548788 905.389334,246.362429 C905.389334,248.988961 903.734922,250.109271 901.561616,250.33614 L905.724404,256.791374 L903.290488,256.791374 L899.337118,250.497521 L896.938105,250.497521 L896.938105,256.791374 L894.678704,256.791374 L894.678704,242.178221 L894.681031,242.178221 Z M896.938105,248.661521 L899.304542,248.661521 C901.301005,248.661521 903.125279,248.567967 903.125279,246.261858 C903.125279,244.318271 901.470867,244.023576 899.937453,244.023576 L896.940432,244.023576 L896.940432,248.661521 L896.938105,248.661521 Z" id="Shape"></path>
        </g>
    </g>
    <style>        .animated {
      animation-duration: .35s;
      animation-fill-mode: both;
      -webkit-animation-duration: .35s;
      animation-timing-function: ease-in-out;
      -webkit-animation-fill-mode: both;
    }
    @keyframes fadeInUp {
        from {
            transform: translateY(20px);
        }
        to {
            transform: translateY(0px);
            opacity: 1;
        }
    }
    @-webkit-keyframes fadeInUp {
        from {
        }
        to {
            opacity: 1;
        }
    }
    .fadeInUp {
        opacity: 0;
        animation-name: fadeInUp;
        -webkit-animation-name: fadeInUp;
    }</style>
</svg>