<?xml version="1.0" encoding="UTF-8"?>
<svg width="1409px" height="1625px" viewBox="0 0 1409 1625" version="1.1" xmlns="http://www.w3.org/2000/svg" xmlns:xlink="http://www.w3.org/1999/xlink">
    <title>wire_nanome_mobile</title>
    <g id="wire_nanome_mobile" class="animated fadeInUp" stroke="none" stroke-width="1" fill="none" fill-rule="evenodd">
        <rect id="Rectangle" stroke="#FFFFFF" stroke-width="3" fill="#202124" x="494" y="722" width="827" height="484" rx="7"></rect>
        <rect id="Rectangle" stroke="#FFFFFF" stroke-width="3" fill="#202124" x="80" y="866" width="827" height="484" rx="7"></rect>
        <rect id="Rectangle" stroke="#FFFFFF" stroke-width="3" fill="#202124" x="382" y="1025" width="827" height="484" rx="7"></rect>
        <g id="Group" transform="translate(197.000000, 206.000000)" fill="#FFFFFF" fill-rule="nonzero">
            <polygon id="Path" points="411.874369 28 411.874369 130.080202 342.926843 28 320 28 320 163 340.314174 163 340.314174 59.2487147 410.570728 163 432 163 432 28"></polygon>
            <path d="M449,140.072618 C449,123.086609 460.59687,114.590939 482.161601,109.421053 C496.29365,105.919387 510.252845,103.702199 510.252845,95.5796136 C510.252845,89.1199201 505.355341,84.6908728 492.312791,84.6908728 C476.913153,84.6908728 470.564731,91.6995336 470.564731,101.298468 L470.564731,101.858095 L452.446586,101.858095 L452.446586,101.49034 C452.446586,80.8107928 466.761963,69 491.584713,69 C516.05128,69 530,80.0752831 530,99.278481 L530,163.155896 L511.337106,163.155896 L511.337106,151.158561 C503.909661,159.094604 493.397051,165 479.443094,165 C459.334519,165 449.005238,154.292472 449.005238,140.083278 L449,140.072618 Z M511.520435,127.520986 L511.520435,116.072618 C509.163347,118.844104 498.834066,121.978015 488.143365,124.381746 C474.189408,127.520986 467.668132,131.027981 467.668132,138.596269 C467.668132,144.86942 472.743727,148.562958 480.53783,148.562958 C494.66464,148.562958 506.450078,138.409727 511.520435,127.520986 L511.520435,127.520986 Z" id="Shape"></path>
            <path d="M553,69.8410506 L572.685065,69.8410506 L572.685065,81.8185215 C579.00512,73.3422393 589.03022,68 601.294456,68 C624.695305,68 639,83.1115136 639,108.178535 L639,162 L618.939061,162 L618.939061,109.838673 C618.939061,94.7271595 611.319555,85.1441186 596.461788,85.1441186 C583.086039,85.1441186 572.873002,95.0943054 572.873002,111.307257 L572.873002,161.994679 L553,161.994679 L553,69.8410506 L553,69.8410506 Z" id="Path"></path>
            <path d="M652,117 C652,90.0473018 673.27452,69 699.906433,69 C726.538346,69 748,90.0473018 748,117 C748,143.771486 726.543693,165 699.906433,165 C673.269173,165 652,143.771486 652,117 Z M728.388304,117 C728.388304,100.75483 715.812865,87.4623584 699.906433,87.4623584 C683.994653,87.4623584 671.606349,100.75483 671.606349,117 C671.606349,133.24517 683.994653,146.537642 699.906433,146.537642 C715.812865,146.537642 728.388304,133.24517 728.388304,117 Z" id="Shape"></path>
            <path d="M759.005351,69.8410506 L778.633177,69.8410506 L778.633177,80.8979962 C784.556842,72.78886 793.996178,68 805.843508,68 C820.649995,68 831.020422,74.2627646 836.392923,84.5854183 C842.680463,74.4489981 853.97663,68 867.67544,68 C892.852353,68 906,83.1115136 906,106.70463 L906,162 L885.81566,162 L885.81566,107.997623 C885.81566,94.1737801 878.227804,85.1441186 864.341706,85.1441186 C851.943213,85.1441186 842.316588,93.6204008 842.316588,110.019586 L842.316588,161.994679 L822.319537,161.994679 L822.319537,107.071776 C822.319537,93.6150798 814.72633,85.1441186 801.396746,85.1441186 C788.441739,85.1441186 778.809763,93.8013133 778.809763,110.759198 L778.809763,162 L759,162 L759,69.8463716 L759.005351,69.8410506 Z" id="Path"></path>
            <path d="M919,117.367755 C919,90.2285143 939.982052,69 967.2818,69 C994.764048,69 1015,88.7521652 1015,116.072618 L1015,123.827448 L938.130221,123.827448 C940.728152,138.041972 951.865977,147.459694 968.0279,147.459694 C980.652558,147.459694 990.308918,140.813458 995.139782,130.841439 L1011.47884,139.891406 C1003.30931,155.027981 988.639586,165 968.0279,165 C938.688454,165 919.005368,144.133911 919.005368,117.367755 L919,117.367755 Z M939.053453,107.033311 L994.764048,107.033311 C991.795751,93.7408394 981.57579,86.3537642 967.2818,86.3537642 C953.540677,86.3537642 942.773218,94.8441039 939.053453,107.033311 Z" id="Shape"></path>
            <path d="M106.502638,38 C47.6808985,38 0,85.5863473 0,144.287216 C0,150.322917 0.532776939,156.237693 1.49810545,162 L84.3475569,162 C80.4493177,157.141997 78.0966592,150.99063 78.0966592,144.287216 C78.0966592,128.635404 90.8147304,115.943608 106.497362,115.943608 C122.179995,115.943608 134.898066,128.635404 134.898066,144.287216 C134.898066,150.99063 132.550682,157.141997 128.647168,162 L211.501895,162 C212.472498,156.237693 213,150.322917 213,144.287216 C213,85.5863473 165.313826,38 106.497362,38 L106.502638,38 Z" id="Path"></path>
            <path d="M240.797458,47.7998423 C229.860735,58.7333859 212.132115,58.7333859 201.200592,47.7998423 C190.26907,36.8662988 190.263869,19.1337012 201.200592,8.20015768 C212.137315,-2.73338589 229.865935,-2.73338589 240.797458,8.20015768 C251.734181,19.1388953 251.734181,36.8662988 240.797458,47.7998423 Z" id="Path"></path>
        </g>
    </g>
    <style>        .animated {
      animation-duration: .35s;
      animation-fill-mode: both;
      -webkit-animation-duration: .35s;
      animation-timing-function: ease-in-out;
      -webkit-animation-fill-mode: both;
    }
    @keyframes fadeInUp {
        from {
            transform: translateY(20px);
        }
        to {
            transform: translateY(0px);
            opacity: 1;
        }
    }
    @-webkit-keyframes fadeInUp {
        from {
        }
        to {
            opacity: 1;
        }
    }
    .fadeInUp {
        opacity: 0;
        animation-name: fadeInUp;
        -webkit-animation-name: fadeInUp;
    }</style>
</svg>