<?xml version="1.0" encoding="UTF-8"?>
<svg width="2000px" height="1000px" viewBox="0 0 2000 1000" version="1.1" xmlns="http://www.w3.org/2000/svg" xmlns:xlink="http://www.w3.org/1999/xlink">
    <title>wire_asgs</title>
    <g id="wire_asgs" stroke="none" stroke-width="1" fill="none" fill-rule="evenodd">
        <rect id="Rectangle" stroke="#FFFFFF" class="animated fadeInUp delay1" stroke-width="3" fill="#1B1B1D" x="1102.13833" y="166" width="702" height="411" rx="7"></rect>
        <rect id="Rectangle" stroke="#FFFFFF" class="animated fadeInUp delay2" stroke-width="3" fill="#1B1B1D" x="751.138333" y="288" width="702" height="411" rx="7"></rect>
        <rect id="Rectangle" stroke="#FFFFFF" class="animated fadeInUp delay3" stroke-width="3" fill="#1B1B1D" x="1007.13833" y="423" width="702" height="411" rx="7"></rect>
        <g id="Group-2" transform="translate(195.000000, 240.000000)" fill="#FFFFFF">
                <g class="animated fadeInUp">
            <polygon id="Fill-1" points="323 80 339 80 339 64 323 64"></polygon>
            <polygon id="Fill-2" points="307 98 323 98 323 82 307 82"></polygon>
            <polygon id="Fill-3" points="290 80 306 80 306 64 290 64"></polygon>
            <polygon id="Fill-4" points="323 114 339 114 339 98 323 98"></polygon>
            <polygon id="Fill-5" points="290 98 306 98 306 114 290 114"></polygon>
            <path d="M117.86755,20.1666667 C115.172185,20.1666667 112.721854,21.1 111.006623,22.9666667 C109.291391,24.8333333 108.311258,27.1666667 108.311258,29.9666667 C108.311258,32.7666667 109.291391,35.1 111.006623,36.9666667 C112.966887,38.8333333 115.172185,39.7666667 118.112583,39.7666667 C120.807947,39.7666667 123.258278,38.8333333 124.97351,36.9666667 C126.688742,35.1 127.668874,32.7666667 127.668874,29.9666667 C127.668874,27.1666667 126.688742,24.8333333 124.97351,22.9666667 C123.013245,21.1 120.807947,20.1666667 117.86755,20.1666667 Z M127.178808,12.9333333 L136,12.9333333 L136,42.5666667 C136,48.4 134.774834,52.6 132.324503,55.4 C129.139073,59.1333333 124.238411,61 117.622517,61 C114.192053,61 111.251656,60.5333333 108.801325,59.8333333 C106.350993,58.9 104.390728,57.7333333 102.675497,56.1 C100.960265,54.4666667 99.7350993,52.3666667 99,50.0333333 L108.801325,50.0333333 C109.781457,50.9666667 110.761589,51.6666667 112.231788,52.1333333 C113.701987,52.6 115.172185,52.8333333 117.13245,52.8333333 C119.582781,52.8333333 121.543046,52.3666667 123.013245,51.6666667 C124.483444,50.9666667 125.463576,50.0333333 126.198675,48.8666667 C126.688742,47.7 127.178808,45.8333333 127.178808,43.0333333 C125.708609,44.6666667 123.993377,45.6 122.278146,46.3 C120.562914,47 118.602649,47.2333333 116.397351,47.2333333 C111.741722,47.2333333 107.576159,45.6 104.390728,42.1 C101.205298,38.8333333 99.4900662,34.4 99.4900662,29.5 C99.4900662,23.9 101.205298,19.7 104.635762,16.2 C107.576159,13.4 111.496689,12 115.907285,12 C117.86755,12 119.827815,12.4666667 121.788079,13.1666667 C123.503311,13.8666667 125.463576,15.0333333 127.178808,16.6666667 L127.178808,12.9333333 Z" id="Fill-6" fill-rule="nonzero"></path>
            <path d="M141,14.9333333 L148.2,14.9333333 L148.2,19.1333333 C148.875,17.5 150,16.1 151.35,15.1666667 C152.7,14.4666667 154.05,14 155.625,14 C156.75,14 157.875,14.2333333 159,14.9333333 L156.3,22.4 C155.4,21.9333333 154.5,21.7 153.825,21.7 C152.475,21.7 151.35,22.4 150.45,24.0333333 C149.55,25.6666667 149.1,28.9333333 149.1,33.6 L149.1,35.2333333 L149.1,49 L141,49 L141,14.9333333 Z" id="Fill-8"></path>
            <path d="M179.5,21.7 C176.933333,21.7 174.6,22.6333333 172.966667,24.5 C171.333333,26.3666667 170.4,28.7 170.4,31.5 C170.4,34.3 171.333333,36.6333333 172.966667,38.5 C174.833333,40.3666667 176.933333,41.3 179.5,41.3 C182.066667,41.3 184.4,40.3666667 186.033333,38.5 C187.9,36.6333333 188.6,34.3 188.6,31.2666667 C188.6,28.4666667 187.666667,26.1333333 186.033333,24.2666667 C184.4,22.6333333 182.3,21.7 179.5,21.7 Z M188.6,14.9333333 L197,14.9333333 L197,48.3 L188.6,48.3 L188.6,44.8 C186.966667,46.4333333 185.333333,47.3666667 183.7,48.0666667 C182.066667,48.7666667 180.2,49 178.333333,49 C173.9,49 170.166667,47.3666667 166.9,44.1 C163.633333,40.8333333 162,36.6333333 162,31.7333333 C162,26.6 163.633333,22.4 166.666667,19.1333333 C169.7,15.6333333 173.433333,14 177.866667,14 C179.966667,14 181.833333,14.4666667 183.466667,15.1666667 C185.1,15.8666667 186.966667,17.0333333 188.366667,18.6666667 L188.366667,14.9333333 L188.6,14.9333333 Z" id="Fill-10" fill-rule="nonzero"></path>
            <path d="M223.266667,19.755 C220.7,19.755 218.366667,20.695 216.5,22.575 C214.633333,24.455 213.933333,26.805 213.933333,29.625 C213.933333,32.68 214.866667,35.03 216.5,36.91 C218.366667,38.79 220.466667,39.73 223.266667,39.73 C225.833333,39.73 227.933333,38.79 229.8,36.91 C231.666667,35.03 232.366667,32.68 232.366667,29.625 C232.366667,26.805 231.433333,24.455 229.8,22.575 C228.166667,20.695 226.066667,19.755 223.266667,19.755 Z M214.4,12.94 L214.4,16.7 C216.033333,15.055 217.666667,14.115 219.3,13.175 C221.166667,12.47 223.033333,12 225.133333,12 C229.566667,12 233.3,13.645 236.333333,16.935 C239.366667,20.225 241,24.455 241,29.86 C241,34.795 239.366667,39.025 236.1,42.55 C232.833333,45.84 229.1,47.72 224.666667,47.72 C222.8,47.72 220.933333,47.485 219.3,46.78 C217.666667,46.075 216.033333,44.9 214.4,43.49 L214.4,59 L206,59 L206,12.94 L214.4,12.94 Z" id="Fill-12" fill-rule="nonzero"></path>
            <path d="M249,0 L257.755725,0 L257.755725,16.45 C259.412214,15.04 261.068702,13.865 262.961832,13.16 C264.618321,12.455 266.51145,11.985 268.167939,11.985 C271.717557,11.985 274.557252,13.16 276.923664,15.51 C279.053435,17.625 280,20.445 280,24.44 L280,47 L271.480916,47 L271.480916,32.195 C271.480916,28.2 271.244275,25.615 271.007634,24.205 C270.534351,22.795 270.061069,21.855 269.114504,21.15 C268.167939,20.445 266.984733,20.21 265.801527,20.21 C264.145038,20.21 262.48855,20.68 261.305344,21.855 C260.122137,23.03 259.175573,24.675 258.70229,26.555 C258.465649,27.495 258.229008,29.845 258.229008,33.605 L258.229008,47 L249,47 L249,0 Z" id="Fill-14"></path>
            <path d="M284.979592,47 L294.530612,47 L294.530612,13.63 L284.979592,13.63 L284.979592,47 Z M289.877551,0 C291.591837,0 293.061224,0.47 294.285714,1.645 C295.510204,2.82 296,3.995 296,5.405 C296,6.815 295.510204,8.225 294.285714,9.165 C293.061224,10.105 291.591837,10.81 290.122449,10.81 C288.408163,10.81 286.938776,10.34 285.714286,9.165 C284.489796,7.99 284,6.815 284,5.17 C284,3.76 284.489796,2.35 285.714286,1.41 C286.693878,0.47 288.163265,0 289.877551,0 Z" id="Fill-16" fill-rule="nonzero"></path>
            <path d="M337,22.0469799 L330,25.8053691 C328.6,24.3959732 327.433333,23.4563758 326.033333,22.9865772 C324.633333,22.5167785 323.233333,22.2818792 321.366667,22.2818792 C318.1,22.2818792 315.533333,23.2214765 313.666667,25.1006711 C311.8,26.9798658 310.633333,29.3288591 310.633333,32.3825503 C310.633333,35.2013423 311.566667,37.5503356 313.433333,39.4295302 C315.3,41.3087248 317.866667,42.2483221 320.9,42.2483221 C324.633333,42.2483221 327.666667,41.0738255 329.766667,38.4899329 L336.533333,42.9530201 C332.8,47.6510067 327.666667,50 321.133333,50 C315.066667,50 310.4,48.3557047 307.133333,44.8322148 C303.633333,41.3087248 302,37.3154362 302,32.6174497 C302,29.3288591 302.933333,26.2751678 304.566667,23.6912752 C306.2,20.8724832 308.533333,18.7583893 311.566667,17.3489933 C314.6,15.704698 317.866667,15 321.366667,15 C324.866667,15 327.9,15.704698 330.466667,16.8791946 C333.033333,17.5838926 335.366667,19.4630872 337,22.0469799" id="Fill-18"></path>
            <path d="M121.04,83.9328859 L115.76,89.1006711 C113.6,86.9865772 111.68,86.0469799 110,86.0469799 C109.04,86.0469799 108.32,86.2818792 107.84,86.7516779 C107.36,87.2214765 107.12,87.6912752 107.12,88.1610738 C107.12,88.6308725 107.36,89.1006711 107.6,89.3355705 C107.84,89.8053691 108.8,90.2751678 110.24,90.9798658 L113.36,92.6241611 C116.72,94.2684564 118.88,95.9127517 120.08,97.557047 C121.28,99.2013423 122,101.080537 122,103.42953 C122,106.483221 120.8,108.832215 118.64,110.946309 C116.48,112.825503 113.36,114 109.76,114 C104.72,114 100.88,112.120805 98,108.362416 L103.28,102.724832 C104.24,103.899329 105.44,104.838926 106.88,105.543624 C108.32,106.248322 109.52,106.718121 110.48,106.718121 C111.68,106.718121 112.4,106.483221 113.12,106.013423 C113.84,105.543624 114.08,104.838926 114.08,104.134228 C114.08,102.724832 112.88,101.550336 110.48,100.375839 L107.6,98.966443 C102.08,96.147651 99.44,92.8590604 99.44,88.6308725 C99.44,86.0469799 100.4,83.6979866 102.56,81.8187919 C104.72,79.9395973 107.36,79 110.48,79 C112.64,79 114.8,79.4697987 116.72,80.409396 C118.16,80.6442953 119.84,82.0536913 121.04,83.9328859" id="Fill-19"></path>
            <polygon id="Fill-20" points="130.275 67 138.825 67 138.825 79.69 144 79.69 144 86.975 138.825 86.975 138.825 114 130.275 114 130.275 86.975 126 86.975 126 79.69 130.275 79.69"></polygon>
            <path d="M151,79 L160.061538,79 L160.061538,95.442953 C160.061538,98.7315436 160.3,100.845638 160.776923,102.255034 C161.253846,103.42953 161.969231,104.369128 162.923077,105.073826 C163.876923,105.778523 165.069231,106.013423 166.738462,106.013423 C168.407692,106.013423 169.361538,105.778523 170.553846,105.073826 C171.507692,104.369128 172.461538,103.42953 172.938462,102.020134 C173.415385,101.080537 173.415385,98.966443 173.415385,95.6778523 L173.415385,79 L182,79 L182,93.5637584 C182,99.6711409 181.523077,103.66443 180.569231,105.778523 C179.376923,108.362416 177.707692,110.47651 175.323077,111.885906 C172.938462,113.295302 170.076923,114 166.5,114 C162.684615,114 159.584615,113.060403 157.2,111.416107 C154.815385,109.771812 153.146154,107.422819 152.192308,104.369128 C151.238462,102.489933 151,98.7315436 151,93.3288591 L151,79 Z" id="Fill-21"></path>
            <path d="M204.622517,86.74 C201.927152,86.74 199.476821,87.68 197.761589,89.56 C196.046358,91.44 195.066225,93.79 195.066225,96.61 C195.066225,99.43 196.046358,101.78 197.761589,103.66 C199.721854,105.54 201.927152,106.48 204.622517,106.48 C207.317881,106.48 209.768212,105.54 211.483444,103.66 C213.443709,101.78 214.178808,99.43 214.178808,96.375 C214.178808,93.555 213.198675,91.205 211.483444,89.325 C209.768212,87.68 207.562914,86.74 204.622517,86.74 Z M214.178808,67 L223,67 L223,113.06 L214.178808,113.06 L214.178808,109.535 C212.463576,111.18 210.748344,112.12 209.033113,112.825 C207.317881,113.53 205.112583,114 203.152318,114 C198.496689,114 194.576159,112.355 191.145695,109.065 C187.715232,105.775 186,101.545 186,96.61 C186,91.44 187.715232,87.21 190.900662,83.92 C194.086093,80.63 198.006623,78.985 202.662252,78.985 C204.86755,78.985 206.827815,79.455 208.543046,80.16 C210.503311,80.865 212.218543,82.04 213.688742,83.45 L213.688742,67 L214.178808,67 Z" id="Fill-22" fill-rule="nonzero"></path>
            <path d="M230.979592,112 L240.530612,112 L240.530612,78.63 L230.979592,78.63 L230.979592,112 Z M235.877551,65 C237.591837,65 239.061224,65.47 240.285714,66.645 C241.510204,67.82 242,68.995 242,70.405 C242,71.815 241.510204,73.225 240.285714,74.165 C239.061224,75.105 237.591837,75.81 236.122449,75.81 C234.408163,75.81 232.938776,75.34 231.714286,74.165 C230.489796,72.99 230,71.815 230,70.17 C230,68.76 230.489796,67.35 231.714286,66.41 C232.693878,65.47 234.163265,65 235.877551,65 Z" id="Fill-23" fill-rule="nonzero"></path>
            <path d="M264.5,86.9865772 C261.933333,86.9865772 259.833333,87.9261745 257.966667,89.8053691 C256.333333,91.6845638 255.4,94.033557 255.4,96.852349 C255.4,99.6711409 256.333333,102.020134 257.966667,103.899329 C259.6,105.778523 261.933333,106.718121 264.5,106.718121 C267.066667,106.718121 269.4,105.778523 271.033333,103.899329 C272.666667,102.020134 273.6,99.6711409 273.6,96.852349 C273.6,94.033557 272.666667,91.6845638 271.033333,89.8053691 C269.4,87.9261745 267.066667,86.9865772 264.5,86.9865772 M264.266667,79 C267.3,79 270.333333,79.704698 273.133333,81.3489933 C275.933333,82.9932886 278.033333,85.1073826 279.666667,87.6912752 C281.3,90.5100671 282,93.3288591 282,96.3825503 C282,99.4362416 281.3,102.489933 279.666667,105.308725 C278.033333,108.127517 275.933333,110.241611 273.366667,111.651007 C270.566667,113.295302 267.766667,114 264.5,114 C259.6,114 255.633333,112.355705 252.133333,108.832215 C248.633333,105.308725 247,101.315436 247,96.3825503 C247,91.2147651 248.866667,86.7516779 252.833333,83.2281879 C256.1,80.409396 259.833333,79 264.266667,79" id="Fill-24" fill-rule="nonzero"></path>
            <path d="M0,12 L0,16 C3,14 6.25,12.6 10,12 L0,12 Z" id="Fill-25"></path>
            <path d="M26.2181818,44.8916667 C28.5818182,42.2333333 30,38.6083333 30,34.2583333 C30,29.9083333 28.8181818,26.525 26.2181818,23.8666667 C23.8545455,21.2083333 20.5454545,20 16.7636364,20 C12.9818182,20 9.90909091,21.45 7.54545455,24.1083333 C5.18181818,26.7666667 4,30.15 4,34.5 C4,38.85 5.18181818,42.2333333 7.78181818,44.8916667 C10.1454545,47.55 13.2181818,49 17,49 C20.7818182,49 23.8545455,47.55 26.2181818,44.8916667" id="Fill-26"></path>
            <path d="M30,16 L30,12 L20,12 C21,12.2 21.75,12.4 22.5,12.6 C25.25,13.4 27.75,14.4 30,16" id="Fill-27"></path>
            <path d="M65.4054054,12 C66.5945946,12.2372093 67.5459459,12.7116279 68.7351351,13.1860465 C71.3513514,14.6093023 73.7297297,16.5069767 75.6324324,19.1162791 L68.2594595,26.4697674 C65.1675676,23.6232558 62.5513514,21.9627907 60.172973,21.9627907 C58.7459459,21.9627907 57.7945946,22.2 57.0810811,22.9116279 C56.3675676,23.3860465 55.8918919,24.0976744 55.8918919,25.0465116 C55.8918919,25.7581395 56.1297297,26.2325581 56.6054054,26.7069767 C57.0810811,27.1813953 58.2702703,27.8930233 60.172973,28.8418605 L64.4540541,30.9767442 C68.972973,33.1116279 72.0648649,35.4837209 73.9675676,37.855814 C75.6324324,40.227907 76.5837838,42.8372093 76.5837838,46.1581395 C76.5837838,50.427907 75.1567568,53.7488372 72.0648649,56.5953488 C68.972973,59.4418605 64.9297297,60.8651163 59.6972973,60.8651163 C52.8,60.8651163 47.3297297,58.255814 43.2864865,52.8 L50.6594595,44.7348837 C52.0864865,46.3953488 53.7513514,47.5813953 55.6540541,48.7674419 C57.5567568,49.7162791 59.2216216,50.1906977 60.6486486,50.1906977 C62.3135135,50.1906977 63.5027027,49.7162791 64.4540541,49.0046512 C65.4054054,48.2930233 65.8810811,47.344186 65.8810811,46.3953488 C65.8810811,44.4976744 64.2162162,42.8372093 60.6486486,41.1767442 L56.6054054,39.2790698 C48.9945946,35.4837209 45.1891892,30.5023256 45.1891892,24.8093023 C45.1891892,21.0139535 46.6162162,17.9302326 49.4702703,15.3209302 C50.6594595,13.6604651 52.5621622,12.7116279 54.7027027,12 L41.8594595,12 L41.8594595,59.6790698 L29.9675676,59.6790698 L29.9675676,54.6976744 C27.5891892,56.8325581 25.4486486,58.4930233 23.0702703,59.4418605 C20.6918919,60.3906977 18.3135135,60.8651163 15.4594595,60.8651163 C9.51351351,60.8651163 4.51891892,58.7302326 0,54.2232558 L0,114 L88,114 L88,12 L65.4054054,12 Z" id="Fill-28"></path>
        </g>
        </g>
        <g id="Group" transform="translate(388.000000, 364.000000)" fill="#FFFFFF" fill-rule="nonzero">
                <g class="animated fadeInUp">
            <path d="M17.294751,14.5086152 C17.294751,18.7702616 16.6756393,22 10.1749664,22 C3.71467026,22 2.71870794,18.8908743 2.71870794,14.5086152 L2.71870794,4.16273133 C2.71870794,1.83088705 1.72274563,1.61646458 0,1.61646458 L0,1 L8.20995962,1 L8.20995962,1.61646458 C6.52759085,1.61646458 5.49125168,1.83088705 5.49125168,4.16273133 L5.49125168,14.5086152 C5.49125168,17.6847479 6.24495289,20.7804722 10.2960969,20.7804722 C14.7913863,20.7804722 15.5047106,18.2074027 15.5047106,14.5086152 L15.5047106,4.16273133 C15.5047106,1.83088705 14.4818304,1.61646458 12.7860027,1.61646458 L12.7860027,1 L20,1 L20,1.61646458 C18.2772544,1.61646458 17.2812921,1.83088705 17.2812921,4.16273133 L17.2812921,14.5086152 L17.294751,14.5086152 Z" id="Path"></path>
            <path d="M35,21.129397 C33.4482759,21.709799 31.6787659,22 29.3511797,22 C23.0353902,22 20,17.1218593 20,10.2952261 C20,4.36683417 21.8920145,0 28.6433757,0 C31.1751361,0 33.3121597,0.511306533 34.7141561,0.898241206 L35,5.92839196 L34.2105263,5.92839196 C33.8021779,4.13190955 32.5362976,1.24371859 28.6161525,1.24371859 C23.53902,1.24371859 23.1170599,6.7298995 23.1170599,10.0326633 C23.1170599,14.1645729 24.0018149,20.548995 30.9165154,20.548995 C33.0263158,20.548995 34.1696915,20.0653266 34.9863884,19.7474874 L34.9863884,21.129397 L35,21.129397 Z" id="Path"></path>
            <path d="M51.1578947,4.93651791 C50.8603239,3.23570082 49.5425101,1.24450031 46.0283401,1.24450031 C43.8178138,1.24450031 41.8906883,2.62727844 41.8906883,4.74292898 C41.8906883,7.59145192 45.8016194,8.53174104 48.6639676,10.1634192 C51.257085,11.6429918 53,12.956631 53,15.9987429 C53,20.0779384 49.3866397,22 44.8805668,22 C42.6417004,22 40.048583,21.5160277 39.2267206,21.3915776 L39,16.8698931 L39.8218623,16.8698931 C40.0769231,18.5707102 41.6356275,20.5619107 45.1497976,20.5619107 C48.0404858,20.5619107 49.9109312,18.7366436 49.9109312,16.5241986 C49.9109312,13.0672533 44.4554656,12.0025141 41.3947368,9.72093023 C39.9493927,8.62853551 39.2550607,7.48082967 39.2550607,5.42049026 C39.2550607,1.57636706 42.51417,0 46.6518219,0 C48.8623482,0 50.2651822,0.262727844 51.7530364,0.53928347 L51.9797571,4.93651791 L51.1578947,4.93651791 Z" id="Path"></path>
            <path d="M66.9577465,21.7313131 C66.6056338,21.8161616 65.8873239,22 64.8450704,22 C63.1549296,22 62.6619718,21.1232323 62.6619718,19.8646465 L62.6056338,19.8646465 C61.7042254,21.179798 60.4647887,22 58.4788732,22 C56.4788732,22 55,20.6 55,18.7050505 C55,14.4767677 60.4647887,14.4767677 62.6760563,14.2646465 L62.6760563,13.1616162 C62.6760563,11.1111111 62.6478873,8.96161616 60.2112676,8.96161616 C58.4084507,8.96161616 58.1830986,9.72525253 58.1830986,10.6585859 C58.1830986,11.8606061 57.3098592,12.1717172 56.8169014,12.1717172 C56.028169,12.1717172 55.4225352,11.6484848 55.4225352,10.8565657 C55.4225352,8.96161616 58.2394366,8 60.2535211,8 C64.2394366,8 64.9577465,9.92323232 64.9577465,12.6383838 L64.9577465,19.8787879 C64.9577465,20.8969697 65.3098592,21.2505051 66.2112676,21.2505051 C66.4647887,21.2505051 66.7323944,21.1939394 67,21.1373737 L67,21.7313131 L66.9577465,21.7313131 Z M62.6478873,15.2262626 C61.2816901,15.2545455 57.5633803,15.5232323 57.5633803,18.2383838 C57.5633803,19.7515152 58.5492958,20.769697 59.5492958,20.769697 C61.4366197,20.769697 62.6619718,18.9313131 62.6619718,16.9515152 L62.6619718,15.2262626 L62.6478873,15.2262626 Z" id="Shape"></path>
            <path d="M67,20.5046344 C68.1666667,20.5046344 69.105364,20.2636457 69.105364,18.4562307 L69.105364,10.9186406 C69.105364,9.2584964 67.8045977,9.17816684 67,9.1246138 L67,8.65602472 L71.2643678,8 L71.2643678,11.6416066 L71.3180077,11.6416066 C71.7068966,10.6240989 72.940613,8 75.6896552,8 C78.6264368,8 78.894636,9.60659114 78.894636,12.177137 L78.894636,18.4830072 C78.894636,20.277034 79.8333333,20.5314109 81,20.5314109 L81,21 L74.6302682,21 L74.6302682,20.5046344 C75.7969349,20.5046344 76.7356322,20.2636457 76.7356322,18.4562307 L76.7356322,12.7662204 C76.7356322,10.3964985 76.7088123,9.31204943 74.8850575,9.31204943 C73.2490421,9.31204943 71.2643678,12.4315139 71.2643678,15.0556128 L71.2643678,18.4562307 C71.2643678,20.2502575 72.2030651,20.5046344 73.3697318,20.5046344 L73.3697318,20.9732235 L67,20.9732235 L67,20.5046344 L67,20.5046344 Z" id="Path"></path>
            <path d="M85,21.361165 C86.6841317,21.361165 87.7215569,21.1436893 87.7215569,18.7786408 L87.7215569,4.20776699 C87.7215569,1.84271845 86.6841317,1.62524272 85,1.62524272 L85,1 L92.3158683,1 C97.502994,1 103,2.12815534 103,11.5339806 C103,20.8990291 97.2200599,22 92.3158683,22 L85,22 L85,21.361165 Z M90.497006,18.1126214 C90.497006,20.4097087 90.752994,20.7631068 92.3158683,20.7631068 C97.6916168,20.7631068 99.9146707,17.8679612 99.9146707,11.5203883 C99.9146707,5.71650485 98.257485,2.22330097 92.3158683,2.22330097 C90.752994,2.22330097 90.497006,2.41359223 90.497006,4.87378641 L90.497006,18.1126214 Z" id="Shape"></path>
            <path d="M104,20.5100287 C105.098947,20.5100287 105.983158,20.265043 105.983158,18.4276504 L105.983158,10.765043 C105.983158,9.0773639 104.783158,8.99570201 104,8.94126074 L104,8.46489971 L108.016842,7.79799427 L108.016842,18.4412607 C108.016842,20.265043 108.901053,20.523639 110,20.523639 L110,21 L104,21 L104,20.5100287 Z M105.427368,3.60601719 C105.427368,2.70773639 106.084211,2 106.905263,2 C107.738947,2 108.395789,2.70773639 108.395789,3.60601719 C108.395789,4.50429799 107.738947,5.21203438 106.905263,5.21203438 C106.084211,5.21203438 105.427368,4.50429799 105.427368,3.60601719 Z" id="Shape"></path>
            <path d="M120.615285,21.4767677 C119.90285,21.7454545 118.90544,22 117.110104,22 C112.550518,22 110,19.5252525 110,14.6181818 C110,10.3616162 111.738342,8 115.970207,8 C118.620466,8 121,9.45656566 121,12.8363636 L121,13.4727273 L112.450777,13.4727273 C112.450777,15.9191919 113.647668,20.9111111 118.563472,20.9111111 C119.233161,20.9111111 120.031088,20.8262626 120.615285,20.5292929 L120.615285,21.4767677 L120.615285,21.4767677 Z M118.378238,12.5111111 C118.378238,10.969697 117.851036,8.94747475 115.585492,8.94747475 C113.348446,8.94747475 112.436528,11.4222222 112.436528,12.5111111 L118.378238,12.5111111 Z" id="Shape"></path>
            <path d="M129.078864,18.6190476 C130.432177,18.6190476 133.562566,18.6749206 133.562566,21.8736508 C133.562566,25.1561905 130.404837,27 126.645636,27 C123.884332,27 121,25.9384127 121,23.3403175 C121,21.552381 122.298633,20.7701587 123.200841,20.3092063 C122.722397,20.015873 121.984227,19.4711111 121.984227,18.2698413 C121.984227,17.208254 122.886435,16.1047619 123.200841,15.7555556 C122.54469,15.2107937 121.560463,14.3447619 121.560463,11.9003175 C121.560463,8.1847619 124.212408,7.37460317 126.891693,7.37460317 C128.190326,7.37460317 128.901157,7.59809524 129.803365,8.08698413 C130.254469,6.99746032 130.92429,5 132.646688,5 C133.439537,5 134,5.5168254 134,6.38285714 C134,7.16507937 133.521556,7.68190476 132.674027,7.68190476 C131.935857,7.68190476 131.771819,7.2768254 131.402734,7.2768254 C130.787592,7.2768254 130.527865,8.11492063 130.391167,8.57587302 C130.732913,8.95301587 131.662461,10.0146032 131.662461,12.04 C131.662461,14.9453968 129.885384,16.5936508 126.508938,16.5936508 C125.374343,16.5936508 124.554154,16.4539683 123.939012,16.1606349 C123.761304,16.3980952 123.433228,16.8171429 123.433228,17.4596825 C123.433228,18.6190476 124.84122,18.6190476 125.743428,18.6190476 L129.078864,18.6190476 L129.078864,18.6190476 Z M124.198738,20.672381 C123.638275,21.1053968 122.845426,21.5942857 122.845426,22.8933333 C122.845426,24.5974603 124.335436,26.064127 126.796004,26.064127 C129.365931,26.064127 131.73081,24.7092063 131.73081,22.6279365 C131.73081,21.1612698 130.541535,20.672381 129.133544,20.672381 L124.198738,20.672381 L124.198738,20.672381 Z M126.645636,15.6577778 C129.010515,15.6577778 129.324921,13.7580952 129.324921,12.2215873 C129.324921,10.0565079 128.586751,8.3384127 126.563617,8.3384127 C124.335436,8.3384127 123.911672,10.0146032 123.911672,11.6768254 C123.911672,13.8698413 124.622503,15.6577778 126.645636,15.6577778 Z" id="Shape"></path>
            <path d="M134,15 C134,10.6161616 136.324826,8 140,8 C143.675174,8 146,10.630303 146,15 C146,19.369697 143.675174,22 140,22 C136.324826,22 134,19.369697 134,15 Z M140,21.0383838 C142.867749,21.0383838 143.452436,17.4181818 143.452436,15 C143.452436,12.5818182 142.881671,8.96161616 140,8.96161616 C137.132251,8.96161616 136.561485,12.5818182 136.561485,15 C136.547564,17.4181818 137.132251,21.0383838 140,21.0383838 Z" id="Shape"></path>
            <path d="M120.321064,26 L0,26 L0,27 L121,27 C120.742004,26.7115385 120.511166,26.3653846 120.321064,26 Z" id="Path"></path>
            <path d="M146,26 L134.835616,26 C134.589041,26.3653846 134.30137,26.6923077 134,27 L146,27 L146,26 Z" id="Path"></path>
       </g>
        </g>
    </g>
        <style>
    .animated {
      animation-duration: .6s;
      animation-fill-mode: both;
      -webkit-animation-duration: .6s;
      animation-timing-function: ease-in-out;
      -webkit-animation-fill-mode: both;
    }
    .delay1 {
      animation-delay: .4s;
    }
    .delay2 {
      animation-delay: .7s;
    }
    .delay3 {
      animation-delay: 1s;
    }

    @keyframes fadeInUp {
        from {
            transform: translateY(20px);
        }

        to {
            transform: translateY(0px);
            opacity: 1;
        }
    }

    @-webkit-keyframes fadeInUp {
        from {
        }

        to {
            opacity: 1;
        }
    }
    .fadeInUp {
        opacity: 0;
        animation-name: fadeInUp;
        -webkit-animation-name: fadeInUp;
    }
    
    </style>
</svg>