<?xml version="1.0" encoding="UTF-8"?>
<svg width="2000px" height="1000px" viewBox="0 0 2000 1000" version="1.1" xmlns="http://www.w3.org/2000/svg" xmlns:xlink="http://www.w3.org/1999/xlink">
    <title>wire_workday</title>
    <g id="wire_workday" stroke="none" stroke-width="1" fill="none" fill-rule="evenodd">
        <rect id="Rectangle" class="animated fadeInUp delay1" stroke="#FFFFFF" stroke-width="3" fill="#1B1B1D" x="1103" y="158" width="702" height="411" rx="7"></rect>
        <rect id="Rectangle" class="animated fadeInUp delay2" stroke="#FFFFFF" stroke-width="3" fill="#1B1B1D" x="834" y="328" width="702" height="411" rx="7"></rect>
        <rect id="Rectangle" class="animated fadeInUp delay3" stroke="#FFFFFF" stroke-width="3" fill="#1B1B1D" x="1357" y="419" width="209" height="423" rx="22"></rect>
        <rect id="Rectangle" class="animated fadeInUp delay4" stroke="#FFFFFF" stroke-width="3" fill="#1B1B1D" x="1596" y="419" width="209" height="423" rx="22"></rect>
        <g id="Group" transform="translate(195.000000, 238.371684)" fill="#FFFFFF" fill-rule="nonzero">
        <g class="animated fadeInUp">
            <path d="M204.455932,78.559271 C218.776006,79.0535514 233.189779,76.8937348 246.696184,72.0878518 C267.015056,64.9354419 285.174824,51.8279772 298.462597,34.8493856 C304.307631,27.4006484 309.203653,19.2131005 313.040545,10.5505456 C313.72087,9.10906176 314.245029,7.48889818 313.880641,5.88278806 C313.434565,3.1865307 311.077651,0.957651377 308.36676,0.688226405 C305.551357,0.275456104 302.641854,2.03695738 301.637983,4.69707726 C294.007845,22.7015717 280.985957,38.3406675 264.742232,49.1662512 C254.700321,55.8950495 243.43831,60.79489 231.672561,63.5381261 C216.499978,67.0968646 200.52534,67.0968646 185.349554,63.5489673 C163.681244,58.5455328 143.841283,46.0825198 129.848359,28.7650389 C123.915231,21.4684807 119.016406,13.3347375 115.323267,4.68141769 C114.524014,2.67056782 112.687656,1.09417074 110.54497,0.741228039 C108.478767,0.341306619 106.229568,1.05682868 104.788831,2.59989897 C103.090219,4.30639098 102.534827,7.03396749 103.410561,9.27368805 C113.574602,33.3701582 132.394674,53.6127671 155.533353,65.6618052 C170.604227,73.571496 187.463008,77.9834805 204.455932,78.559271 L204.455932,78.559271" id="path14" transform="translate(208.500000, 39.628316) scale(-1, 1) rotate(-180.000000) translate(-208.500000, -39.628316) "></path>
            <path d="M186.013009,139.393991 C185.926566,140.639935 187.117781,141.572094 188.298088,141.601673 C189.831843,141.642445 191.37004,141.629654 192.907026,141.608069 C193.975039,141.572094 195.221592,140.867778 195.217149,139.680994 C195.272085,125.742178 195.184026,111.798964 195.26441,97.852153 C200.971655,104.132235 206.727778,110.377941 212.45522,116.639236 C213.58342,117.740079 214.474912,119.407733 216.22962,119.551234 C218.593468,119.647968 220.963374,119.590407 223.330049,119.587209 C224.242142,119.668354 225.260067,118.840922 224.939744,117.877585 C224.565697,117.134096 223.879405,116.623647 223.319143,116.033253 C217.12596,109.909463 210.908944,103.807259 204.747268,97.6570872 C210.6993,90.9334299 216.568929,84.1412199 222.493897,77.3927397 C223.256129,76.4324799 224.210635,75.6174003 224.849665,74.5587682 C225.318234,73.7312172 224.541864,72.7240696 223.645525,72.6850564 C221.677941,72.5757316 219.705914,72.6850564 217.733483,72.6382087 C216.707883,72.6616326 215.598668,72.5132945 214.667591,73.0363749 C213.68602,73.5937917 213.089807,74.5899867 212.387358,75.4284902 C206.672438,82.5501538 200.995084,89.699918 195.259563,96.8092701 C195.200992,89.7982904 195.242193,82.7905885 195.237346,75.7844855 C195.215533,74.9756416 195.382764,74.0013115 194.671024,73.4111173 C193.537977,72.3290212 191.851535,72.7084803 190.43775,72.6382087 C189.183117,72.6803797 187.715609,72.4086865 186.696473,73.3252163 C186.128535,73.7624357 185.979886,74.5088025 186.002103,75.1723863 C186.017856,96.5826259 185.99564,117.989908 186.013009,139.393991 L186.013009,139.393991" id="path16" transform="translate(205.500000, 107.128316) scale(-1, 1) rotate(-180.000000) translate(-205.500000, -107.128316) "></path>
            <path d="M159.545831,140.890562 C162.349466,141.806517 165.509582,141.980793 168.255911,140.772905 C169.219438,140.313121 170.338679,139.332917 169.903155,138.125029 C169.463284,136.608343 169.088227,135.07439 168.563386,133.584206 C168.175683,132.514455 166.954477,132.117314 165.926531,132.326124 C163.613749,132.729289 161.342861,133.505501 158.971588,133.427197 C157.316835,133.46655 155.789735,132.56465 154.658243,131.395713 C152.831968,129.581071 151.887016,127.043221 151.462558,124.52545 C151.125837,122.705989 151.221874,120.847175 151.20646,119.00884 C151.20646,111.283418 151.209227,103.553419 151.20488,95.8281173 C151.312772,94.5575865 150.019243,93.6948382 148.890517,93.6509479 C147.340496,93.6289826 145.793635,93.6085834 144.245194,93.6634765 C143.125954,93.7230677 141.866413,94.5528481 142.011456,95.8328156 C142.005132,110.138334 141.996042,124.439115 142.014617,138.744634 C141.918976,140.167355 143.470183,140.940757 144.687041,140.807439 C146.213746,140.705444 148.297699,141.288908 149.290472,139.72805 C150.043746,137.918227 150.401809,135.96344 151.109238,134.137554 C153.237851,137.105472 156.06006,139.722027 159.545831,140.890562 L159.545831,140.890562" id="path18" transform="translate(156.000000, 117.628316) scale(-1, 1) rotate(-180.000000) translate(-156.000000, -117.628316) "></path>
            <path d="M0,140.609781 C0.435347516,141.109484 0.944035893,141.649962 1.66961908,141.598393 C3.79487026,141.618781 5.92634901,141.665553 8.0500383,141.567212 C9.12830075,141.53603 9.87101678,140.587794 10.0286437,139.583991 C12.1179794,131.081049 14.1699257,122.565715 16.2499141,114.060014 C16.8600094,111.433457 17.6027653,108.833403 18.0006675,106.161593 C18.4110328,103.761421 18.492203,101.32539 18.8822757,98.9205802 C19.4190701,102.352898 19.8996605,105.807084 20.8249697,109.159809 C23.5447332,119.31165 26.2629389,129.461613 28.9858182,139.610376 C29.1980513,140.767687 30.2856212,141.590398 31.4418582,141.590398 C33.8074206,141.649962 36.1776566,141.609187 38.5432189,141.609187 C39.8118241,141.668751 41.1695488,140.926793 41.4751357,139.625966 C43.5067894,132.225569 45.5136766,124.811579 47.5373411,117.404785 C48.7652812,112.607758 50.3739067,107.891804 51.0685677,102.969732 C51.2603085,101.614298 51.4476553,100.255706 51.7268778,98.9096267 C52.4898465,106.642547 54.477959,114.166191 56.1133484,121.738207 C57.4631238,127.762623 58.7829397,133.793436 60.1482941,139.818252 C60.349622,141.028332 61.6290924,141.63717 62.7559692,141.60319 C64.6689832,141.613984 66.585193,141.668751 68.4950114,141.571609 C69.6294778,141.538829 70.2813966,140.283575 69.8819366,139.271377 C66.0435252,125.097009 62.2190949,110.913446 58.3790856,96.7390379 C58.1729643,95.6022341 57.1835018,94.7152417 56.0242688,94.6965329 C53.0594765,94.5997104 50.0886922,94.6731068 47.1238999,94.6574761 C46.0613363,94.5918751 44.9376552,95.1618561 44.7503084,96.28151 C42.096296,106.028832 39.4950523,115.793343 36.8658064,125.548341 C35.913973,128.941922 35.528534,132.459829 35.129074,135.950153 C34.6406942,132.842402 34.3988211,129.683481 33.571819,126.630497 C30.8801375,116.586472 28.1728372,106.537929 25.4749241,96.4923446 C25.1706554,94.8651525 23.3122475,94.5403458 21.9297163,94.6465626 C19.1725234,94.6965329 16.4153305,94.5825207 13.6612134,94.6965329 C12.6797401,94.6934147 11.922963,95.4585596 11.7466414,96.3861278 C7.87687238,110.50429 4.01956652,124.628888 0.146676928,138.743691 C0.0124831258,139.360524 0.0296474439,139.98975 0,140.609781 L0,140.609781" id="path20" transform="translate(35.000000, 118.128316) scale(-1, 1) rotate(-180.000000) translate(-35.000000, -118.128316) "></path>
            <path d="M347.940004,160.599578 C349.966471,160.633811 352.000982,160.641773 354.027449,160.599578 C355.260462,160.582462 356.419879,159.747729 356.807961,158.581412 C360.30793,149.528722 363.782966,140.458915 367.27811,131.401368 C368.008426,129.563443 368.519165,127.646225 368.846119,125.699471 C370.291068,131.071734 372.215387,136.299581 373.904445,141.601746 C375.784528,147.334612 377.666621,153.069071 379.554747,158.803928 C379.834648,159.801865 380.795802,160.482947 381.816878,160.566937 C383.47135,160.688346 385.136279,160.582462 386.793567,160.626248 C387.763166,160.615103 388.917758,160.727356 389.656118,159.957507 C390.135087,159.556262 390.032939,158.889511 389.833469,158.36845 C384.241078,142.578188 378.664372,126.780125 373.079622,110.985246 C372.108816,108.354306 371.362413,105.600524 369.799632,103.233935 C367.557609,99.6296172 363.924123,97.0344542 359.931109,95.6303558 C358.536028,95.2027513 357.095503,94.2542489 355.595056,94.786033 C354.530145,95.0550351 354.121554,96.1512577 353.552905,96.9567051 C353.144716,97.6875201 352.390672,98.3639124 352.547513,99.2735521 C352.62151,100.175398 353.351826,100.909342 354.212844,101.150327 C355.896674,101.725644 357.609057,102.360073 358.97277,103.537138 C362.287345,106.312694 364.33754,110.417692 365.118126,114.595774 C364.588888,116.450775 363.610039,118.156544 362.89983,119.952473 C357.56683,132.220815 352.233428,144.493655 346.88756,156.757499 C346.565432,157.559989 346.090887,158.325061 346,159.195619 C346.012467,160.15176 347.120006,160.571714 347.940004,160.599578 L347.940004,160.599578" id="path22" transform="translate(368.000000, 127.628316) scale(-1, 1) rotate(-180.000000) translate(-368.000000, -127.628316) "></path>
            <path d="M101.15732,134.839309 C98.2923133,134.304144 95.6791925,132.510705 94.2249064,129.956726 C91.7947595,125.814772 91.514754,120.817113 91.6244592,116.119687 C91.7975319,111.867316 92.4767532,107.331713 95.1750242,103.894234 C97.1877371,101.309117 100.495129,100.010347 103.710242,100.06012 C106.80258,99.9605732 110.042248,101.013582 112.138527,103.377824 C114.816203,106.322227 115.676418,110.408354 116.044742,114.261103 C116.207122,118.045325 116.283163,121.898193 115.306906,125.593778 C114.530257,128.715573 112.890225,131.837369 110.052941,133.518917 C107.412097,135.147507 104.149458,135.299615 101.15732,134.839309 L101.15732,134.839309 Z M102.367245,141.574264 C107.551506,141.894806 112.983296,140.812132 117.262192,137.724581 C121.089594,134.987037 123.688853,130.768632 124.903135,126.245612 C126.346728,120.845384 126.340391,115.082406 125.031454,109.653947 C123.798559,104.650155 120.914937,99.9325805 116.564753,97.0892382 C111.915552,93.9877505 106.075437,93.1820167 100.619092,93.8430887 C95.9702874,94.4185901 91.4402971,96.4686221 88.2037977,99.9123526 C84.3997623,103.919121 82.5106162,109.439323 82.1177372,114.895656 C81.6397079,120.946524 82.5617063,127.351381 85.9094951,132.518669 C88.3863755,136.407374 92.3238789,139.264375 96.7156486,140.568043 C98.5473679,141.143425 100.458297,141.411007 102.367245,141.574264 L102.367245,141.574264" id="path24" transform="translate(104.000000, 117.628316) scale(-1, 1) rotate(-180.000000) translate(-104.000000, -117.628316) "></path>
            <path d="M256.432801,114.421268 C253.540765,114.23596 250.749482,112.57623 249.458625,109.943331 C246.936557,105.073877 246.884971,99.4073168 247.010712,94.0526853 C247.212219,90.554468 247.593068,86.943016 249.227294,83.7838195 C250.332362,81.6561966 252.33978,79.976086 254.713538,79.4610831 C258.34551,78.5896138 262.619888,79.3275891 265.201602,82.1900519 C267.689011,85.0148502 268.507535,88.8555452 268.889996,92.4905124 C269.152762,96.6341314 269.168882,100.862847 268.137567,104.918716 C267.429066,107.630401 266.229694,110.338869 264.075981,112.223301 C262.010529,114.036584 259.132598,114.735608 256.432801,114.421268 L256.432801,114.421268 Z M268.877503,140.690759 C268.811408,141.789742 269.937029,142.491581 270.915953,142.576396 C272.482472,142.661212 274.053828,142.620613 275.623169,142.603328 C276.81972,142.614181 278.15773,141.727035 277.984837,140.401743 C277.984837,118.77379 277.98927,97.1494559 277.981613,75.5245988 C278.063425,74.4081695 276.961179,73.5414436 275.927042,73.4739127 C274.678501,73.4079898 273.42714,73.4079898 272.183435,73.4943328 C271.306474,73.549282 270.456516,74.1098682 270.157478,74.9467681 C269.688369,76.3520925 269.444142,77.8123662 269.086667,79.2412461 C267.355315,76.8985295 265.122611,74.8258557 262.349062,73.7973774 C258.392663,72.3449421 253.98932,72.3213867 249.923301,73.3106329 C245.837938,74.2904328 242.280121,77.0900678 240.308974,80.7753213 C237.215431,86.4013223 236.848687,93.0196646 237.042537,99.2955694 C237.15256,104.657838 238.17904,110.315153 241.681643,114.570399 C244.323407,118.177268 248.652595,120.247008 253.024502,120.78846 C257.094148,121.382169 261.50676,120.699223 264.875563,118.239975 C266.468682,117.122099 267.743821,115.622754 268.882339,114.055476 C268.850501,122.93176 268.858561,131.811259 268.877503,140.690759 L268.877503,140.690759" id="path26" transform="translate(257.500000, 107.628316) scale(-1, 1) rotate(-180.000000) translate(-257.500000, -107.628316) "></path>
            <path d="M312.556146,134.823449 C311.111718,134.530389 309.712215,133.953451 308.54496,133.053508 C306.21045,131.24444 305.050816,128.369734 304.43189,125.578075 C303.530977,121.148632 303.543412,116.574256 304.009111,112.095184 C304.444726,108.804364 305.275041,105.292072 307.699001,102.859033 C309.673306,100.795673 312.650408,100.039226 315.436177,100.174936 C318.432132,100.067334 321.550027,101.177769 323.482215,103.520335 C325.898152,106.429059 326.579652,110.298493 326.932236,113.943341 C327.156461,118.229208 327.159269,122.617926 325.949896,126.779063 C325.185364,129.37109 323.787466,131.949142 321.42929,133.426022 C318.831646,135.122897 315.545682,135.27901 312.556146,134.823449 Z M308.54496,140.706615 C312.702153,141.852904 317.151761,141.91998 321.351072,140.963741 C325.252752,140.063799 328.906541,137.883813 331.304027,134.655358 C333.839097,131.345853 335.119066,127.24221 335.651751,123.152941 C336.114241,119.999548 335.98107,116.80543 335.985482,113.628281 C335.985482,107.895079 335.985482,102.16032 335.969839,96.4287147 C336.032814,95.7300014 335.589177,95.1108217 335.017182,94.7474109 C334.050486,94.1547823 332.851944,94.4167798 331.773737,94.3497033 C330.564364,94.359086 328.973929,94.2530413 328.315694,95.505415 C327.673503,96.9777037 327.540331,98.6199994 327.127982,100.168707 C325.506259,98.2066805 323.826776,96.1822885 321.47943,95.0484166 C317.903859,93.2891763 313.723401,93.3921068 309.89713,94.1360568 C305.215274,95.0562422 300.90325,97.8120872 298.255466,101.782895 C295.10147,106.407219 293.95748,112.115427 294.001202,117.631908 C293.962294,123.009605 295.019642,128.569366 298.023619,133.118988 C300.425517,136.838538 304.279866,139.531978 308.54496,140.706615 L308.54496,140.706615" id="path28" transform="translate(315.000000, 117.628316) scale(-1, 1) rotate(-180.000000) translate(-315.000000, -117.628316) "></path>
            <path d="M391.597659,140.210515 C389.159734,139.314635 387.625231,136.499929 388.24726,133.958707 C388.882042,130.975144 392.349689,128.938929 395.242617,130.042247 C397.910101,130.857713 399.592705,133.90238 398.764979,136.586808 C398.038456,139.607346 394.458087,141.392683 391.597659,140.210515 Z M391.935414,141.485944 C393.381467,141.71434 394.952995,141.730439 396.294965,141.059744 C398.580263,140.020699 400.222962,137.564708 399.975303,135.010598 C400.165367,131.964284 397.604846,129.241275 394.68312,128.750719 C391.393607,128.051078 387.853555,130.436331 387.183393,133.720634 C386.318641,137.025896 388.613401,140.746075 391.935414,141.485944 L391.935414,141.485944" id="path30" transform="translate(393.500000, 135.128316) scale(-1, 1) rotate(-180.000000) translate(-393.500000, -135.128316) "></path>
            <path d="M392.828919,137.508671 C392.824003,136.843609 392.820726,136.178547 392.828919,135.508853 C393.432277,135.544448 394.05284,135.508853 394.648007,135.668179 C395.207946,135.89244 395.152239,136.580664 395.000273,137.041579 C394.421081,137.589086 393.560076,137.446785 392.828919,137.508671 Z M391.008192,138.591331 C392.749044,138.495434 394.700847,138.970247 396.268842,138.031431 C397.532906,137.114274 396.920126,135.119089 395.493037,134.693769 C395.904287,133.642071 396.476925,132.664572 397,131.662367 C396.340934,131.649974 395.692927,131.639165 395.044921,131.628316 C394.576324,132.556322 394.116739,133.495137 393.669033,134.430864 C393.383943,134.438585 393.104178,134.441673 392.828919,134.446306 C392.824003,133.510579 392.824003,132.574892 392.824003,131.639165 C392.207946,131.646886 391.604997,131.654606 391,131.659279 C391.004915,133.971494 390.996723,136.283709 391.008192,138.591331 L391.008192,138.591331" id="path32" transform="translate(394.000000, 135.128316) scale(-1, 1) rotate(-180.000000) translate(-394.000000, -135.128316) "></path>
        </g>
        </g>
        <ellipse id="Home" class="animated fadeInUp delay3" stroke="#FFFFFF" stroke-width="3" cx="1461.5" cy="813" rx="15" ry="13.5"></ellipse>
        <ellipse id="Home" class="animated fadeInUp delay4" stroke="#FFFFFF" stroke-width="3" cx="1700.5" cy="813" rx="15" ry="13.5"></ellipse>
    </g>
        <style>
    .animated {
      animation-duration: .6s;
      animation-fill-mode: both;
      -webkit-animation-duration: .6s;
      animation-timing-function: ease-in-out;
      -webkit-animation-fill-mode: both;
    }
    .delay1 {
      animation-delay: .4s;
    }
    .delay2 {
      animation-delay: .7s;
    }
    .delay3 {
      animation-delay: 1s;
    }
    .delay4 {
      animation-delay: 1.3s;
    }

    @keyframes fadeInUp {
        from {
            transform: translateY(20px);
        }

        to {
            transform: translateY(0px);
            opacity: 1;
        }
    }

    @-webkit-keyframes fadeInUp {
        from {
        }

        to {
            opacity: 1;
        }
    }
    .fadeInUp {
        opacity: 0;
        animation-name: fadeInUp;
        -webkit-animation-name: fadeInUp;
    }
    
    </style>
</svg>