<svg xmlns="http://www.w3.org/2000/svg" xmlns:xlink="http://www.w3.org/1999/xlink" width="747" height="506" xmlns:v="https://vecta.io/nano"><style><![CDATA[.B{stroke:#3071ab}.C{fill:#2e8aff}.D{fill:#fdf4dc}.E{fill:#fff}.F{fill:#fffffe}.G{fill:#3071ab}.H{fill-rule:nonzero}]]></style><g fill="none" fill-rule="evenodd"><path d="M0 0h747v506H0z" class="D"/><path d="M-3 343c10.63.366 18.63.366 24 0s12.036-1.366 20-3c18-6 28-10.333 30-13s4-7 6-13c.743-19.997 3.076-32.663 7-38 8.976-12.207 29.558-12.404 32-11 3.363 1.934 12.922 4.414 20 11 6.704 6.238 11.034 16.394 11 25-.033 8.343 1.045 10.104 4 9 .684-.256 2.017-.59 4-1 5.333.667 8.333 4.333 9 11 1 10-16.614 24.183-4 24 7.428-.108 13.113-2.815 20-3l110-2c40.667 0 66.333 2.667 77 8l13-6 8-13 5-26 7-26 9-11c4.238-3.967 7.57-6.634 10-8 1.295-.728-.805-.732 3-2 2.536-.845 5.536-1.512 9-2-5.387 3.728-9.387 6.728-12 9s-6.28 5.94-11 11l-9 32 7 25 21 16 21.325 3.018C493.57 337.4 528.13 331.384 552 331s51.87 4.283 84 14c33.887-6.733 58.887-12.4 75-17s28.113-7.267 36-8v222H0l-3-199z" class="C"/><path d="M479.282 389.36c-1.03-4.912-12.388-18.07-28.997-22.957-1.777-.522-10.66-2.48-21.912-10.77-6.777-4.995-11.082-15.792-18.268-21.084 0 0 8.554 2.994 16.086 13.703 7.47 10.58 25.943 15.296 27.064 15.605 13.73 3.808 24.066 16.14 26.027 25.503m224.46-24.406c-2.647-4.264-17.82-12.742-35.1-11.655-1.848.117-10.866 1.316-24.274-2.627-8.077-2.376-15.815-11.05-24.377-13.564 0 0 9.062-.112 19.802 7.375 10.64 7.388 29.6 5.5 30.77 5.408 14.204-1.118 28.135 6.935 33.18 15.063M650.93 378.12c-2.42-4.397-17.13-13.657-34.442-13.476-1.852.02-10.92.745-24.103-3.894-7.94-2.795-15.215-11.862-23.634-14.82 0 0 9.055.362 19.4 8.4 10.24 7.935 29.282 7.042 30.444 7 14.243-.373 27.733 8.398 32.346 16.78" class="G"/><text font-family="AvenirNextforINTUIT-Demi, AvenirNext forINTUIT" font-size="20" fill="#646464"><tspan x="202.44" y="42">Particles move between air and water </tspan><tspan x="299.31" y="66">through bubbles</tspan></text><g class="H"><path d="M495 394c4.45 0 8.46 2.802 10.163 7.1s.76 9.244-2.385 12.532-7.877 4.273-11.988 2.492-6.8-5.974-6.8-10.625c.007-6.348 4.928-11.492 11-11.5z" class="B D"/><path d="M501.696 405.963c0 .573.516 1.037 1.152 1.037s1.152-.464 1.152-1.037c-.005-4.396-3.964-7.958-8.848-7.963-.636 0-1.152.464-1.152 1.037s.516 1.037 1.152 1.037c3.613.004 6.54 2.638 6.544 5.9z" class="C"/><path d="M256.5 360c3.033 0 5.768 1.95 6.93 4.94s.52 6.43-1.626 8.718-5.37 2.972-8.173 1.734S249 371.235 249 368c.005-4.416 3.36-7.995 7.5-8z" class="B D"/><use xlink:href="#B" class="C"/><path d="M515 460c5.258 0 9.998 3.29 12 8.334s.9 10.85-2.818 14.712-9.3 5.016-14.167 2.926S502 478.96 502 473.5c.008-7.452 5.824-13.49 13-13.5z" class="B D"/><path d="M515.267 466.535a7.21 7.21 0 0 1 7.199 7.199c0 .7.567 1.267 1.267 1.267s1.267-.567 1.267-1.267c-.006-5.373-4.36-9.727-9.733-9.733-.7 0-1.267.567-1.267 1.267s.567 1.267 1.267 1.267h0z" class="C"/><path d="M704 360c3.64 0 6.922 2.315 8.315 5.865s.623 7.636-1.95 10.353-6.445 3.53-9.808 2.06S695 373.342 695 369.5c.006-5.244 4.032-9.493 9-9.5z" class="B D"/><path d="M703.922 364.843c2.9.003 5.232 2.345 5.235 5.235a.92.92 0 1 0 1.843 0 7.09 7.09 0 0 0-7.078-7.078.92.92 0 1 0 0 1.843h0z" class="C"/><path d="M491.5 355a7.5 7.5 0 0 1 5.303 12.803A7.5 7.5 0 0 1 484 362.499a7.51 7.51 0 0 1 7.5-7.499z" class="B D"/><use xlink:href="#C" class="C"/><use xlink:href="#D" class="B D"/><use xlink:href="#E" class="C"/><use xlink:href="#D" x="256" y="-51" class="B D"/><use xlink:href="#E" x="256" y="-51" class="C"/><path d="M574.5 339c3.033 0 5.768 1.95 6.93 4.94s.52 6.43-1.626 8.718-5.37 2.972-8.173 1.734S567 350.235 567 347c.005-4.416 3.36-7.995 7.5-8z" class="B D"/><use xlink:href="#B" x="318" y="-21" class="C"/><path d="M454 381c2.427 0 4.615 1.584 5.543 4.013s.415 5.225-1.3 7.084-4.297 2.415-6.54 1.41S448 390.13 448 387.5c.004-3.588 2.688-6.496 6-6.5z" class="B D"/><path d="M452.69 384.152c2.168.002 3.924 1.466 3.927 3.272 0 .318.31.576.69.576s.69-.258.69-.576c-.003-2.442-2.378-4.42-5.31-4.424-.382 0-.69.258-.69.576s.31.576.69.576h0z" class="C"/><path d="M194.5 358c3.033 0 5.768 1.95 6.93 4.94s.52 6.43-1.626 8.718-5.37 2.972-8.173 1.734S187 369.235 187 366c.005-4.416 3.36-7.995 7.5-8z" class="B D"/><use xlink:href="#E" x="-282" y="-76.721" class="C"/><use xlink:href="#D" x="169" y="-74" class="B D"/><use xlink:href="#E" x="169" y="-74" class="C"/><use xlink:href="#D" x="241" y="-20" class="B D"/><use xlink:href="#E" x="241" y="-20" class="C"/><path d="M223 379c2.83 0 5.384 1.827 6.467 4.63s.484 6.028-1.518 8.173-5.013 2.786-7.63 1.626-4.32-3.896-4.32-6.93c.005-4.14 3.136-7.495 7-7.5z" class="B D"/><use xlink:href="#C" x="-269" y="24" class="C"/></g><path d="M0 340.788c10.774-.46 20.473-14.213 8.5-14.026 1.2-2.438 2.932-6.016 5.78-6.825 4.385-1.243 9.08 1.2 9.83 5.147 1.55 8.14-4.964 15.897-24.122 15.703m149.466-13.21c-7.603 7.98-18.544 12.42-26.805 13.57 9.852-5.134 15.013-9.73 17.826-16.43 2.012 2.17 5.737 3.662 8.98 2.86zm5.82 13.413c11.3-10.073 11.705-20.464 9.078-25.892-2.863-5.915-10.598-9.493-16.984-6.707 3.47-9.586 3.623-26.914-17.03-39.6-7.694-4.73-30.527-11.396-43.493 2.725-12.906-7.256-29.67 4.477-30.2 16.422-17.407-.68-17.134 27.553-.36 26.012 3.033 5.504 7.626 7.927 7.626 7.927-5.78 16.464-41.867 21.327-61.793 21.104 35.676 2.87 66.504-8.1 73.855-18.234 1.2.16 3.486-.64 5.02-.976 3.3 3.03 8.515 4.64 12.086 5.715-7.147 5.578-42.748 13.892-66.116 14.712 27.115 1.6 57.862-5.925 69.276-13.824 0 0 16.6 1.38 21.894-12.598 6.023-4.07 11.813-16.648 5.197-22.723-2.206-2.025-5.65-2.562-8.92-.077 2.2.238 2.757 2.065 2.942 3.415 1.144 8.3-13.323 8.73-13.446.227-.097-6.682 4.997-11.045 12.984-11.386 15.972-.682 18.323 18.085 13.852 28.503-3.7 8.644-19.078 26.863-67.283 29.94 45.494.457 73.258-18.618 70.388-44.18-.923-8.196-6.08-15.996-17.83-15.494-9.078.388-16.316 8.78-11.628 16.893 5.395 6.78 19 1.375 12.715-8.085 6.667-1.405 8.435 5.254 6.592 11.73-7.368 21.814-48.605 10.177-43.76-15.973 2-10.86 8.85-24.035 26.165-24.636 25.517-1.088 36.267 18.225 37.86 21.66 4.94 10.664 1.816 17.318.847 21.427-8.243 4.402-6.208 14.064-6.208 14.064-6.335 10.548-16.5 20.024-47.784 23.448 12.628 1.23 26.403-1.46 34.366-3.252 22.637-5.094 33.244-17.578 29.196-25.013-.44 10.626-13.2 7.307-13.413 2.1-.454-10.604 12.02-11.65 16.816-9.017 13.675 9.217.335 32.573-23.263 33.58 20.027.287 26.683.6 45.14-3.443-10.743 2.08-20.634 1.556-24.37-.48h0z" class="G"/><path d="M85.556 273.704c-3.852 3.864-6.272 9.006-7.7 16.053 0 0-8.325 8.66-5.072 20.624-30.186-14.883-5.603-45.93 12.76-36.677m-29.11 17.39c.067 1.597.358 5.112 1.085 6.553-3.1 3.422-3.213 8.658-1.645 13.708-13.612-.055-11.983-21.883.56-20.262m20.968 2.995c-1 22.126 25.976 30.284 38.7 24.405-10.974 21.288-52.877 4.997-38.7-24.405M58.43 300.97c2.683 5.503 7.603 9.892 14.64 12.183 1.206 3.452 3.235 6.32 6 8.85-6.442 1.227-12.46-.98-17.017-5.024-3.7-3.285-6.427-11.704-3.615-16.008m-47.963 36.862c8.94-6.205 6.072-11.44 2.413-13.5 1.465-2.07 3.075-2.908 6.3-1.945 4.52 1.354 4.752 12.164-8.703 15.455" class="F"/><path d="M662.19 271.475c6.28-3.648 17.77-5 26.468 2.366 5.296-5.612 16.707-7.14 22.752-2.02 8.342 7.067 6.78 14.02 5.25 17.77 7.33 3.24 10.55 8.002 11.856 13.45 11.678-1.834 16.95 7.643 14.556 16.02 5.286-.438 7.507-.385 15.75.84-42.505.64-35.5 12.88-54.296 14.44 3.332.695 26.796 4.923 36.235 5.42-18.314 1.518-38.048-4.5-54.577-1.568l-29.72 6.54c-8.435 1.584-23.202 2.278-41.55-1.518-10.108-2.095-39.97-7.498-43.035-8.232-3.243-.776-38.147-4.79-55.624 3.266-.186-1.064 16.76-13.7 27.173-15.542 12.723-2.25 20.765-1.95 30.53-5.2 9.25-3.087 16.71-14.742 18.633-16.444 12.072-10.696 19.992 2.862 17.31 6.923 10.038-9.104 13.572-22.886 14.832-30.717 3.908-24.264 19.94-22.744 25.87-21.042 8.323 2.39 11.317 11.998 11.585 15.26" class="G"/><path d="M660.05 272.45c-2.235 1.198-7.554 7.134-9.466 12.73-5.183.426-10.432-7.222-5.244-10.96-6.04 2.33-2.807 12.088 3.763 13.28 0 0-5.23 14.958-20.685 23.263-7.19 3.863-35.283 15.423-51.7 12.034 3.487-.665 7.315-.51 10.882-1.304 5.62-1.25 19.448-3.317 30.5-20.174 13.117-16.875 3.904-44.08 28.877-43.25 7.91.262 13.155 9.807 13.075 14.383" class="C"/><path d="M691.734 290.575c-5.6 2.303-9.36 5.316-14.748 9.71-7.592 1.372-13.412-11.384-2.428-14.812-7.4-1.193-12.194 14.66-.02 17.074-4.072 4.807-19.687 17.435-34.857 21.468-13.173 3.503-26.407 7.25-48.7.837 31.834-5.888 50.664-14.98 60.397-37.327 12.62-28.97 46.423-13.696 40.354 3.047" class="D"/><path d="M714.476 288.423c-6.2-1.83-13.95-1.446-20.37 1.128 1.584-3.16-.464-10.398-3.94-13.345 1.992-3.094 6.542-4.966 10.685-5.308 9.302-.772 18.253 10.005 13.628 17.524" class="F"/><path d="M705.657 329.5c-2.56-.146-10.783-.057-13.5-10.9-1.734-6.93 2.68-14.274 10.797-16.065 11.725-2.585 13.586 6.63 12.672 10.545-.965 4.14-7.686 7.057-11.63 2.55 1.204 6.5 17.672 4.52 12.573-9.808-2.076-5.847-14.617-9.74-23.62.47-5.108 5.79-6.223 22.8 10.563 25.598-31.277 3.94-77.624 1.213-87.484-1.6 50.06-3.32 59.746-30.78 77.26-37.955 3.562-1.46 7.283-2.672 11.533-2.93 12.114-.74 22.686 8.325 22.33 20.67-.117 4-3.107 20.6-21.49 19.428" class="C"/><path d="M569.5 321c23.17-4.96 20.26-21.76 32.62-21.227 4.124.18 6.678 5.747 5.244 9.618-.487 1.313-4.874 4.66-6.467 5.562-1.8 1.015-14.387 6.74-31.398 6.046m171.91-1.92c-7.957.975-11.04 1.436-16.777 4.294 3.566-4.2 5.183-9.127 4.46-17.884 3.8-1.603 7.217.84 9.546 2.828 2.55 2.166 4.133 7.175 2.77 10.762M593.2 327.6c40.462 11.437 86.955 8.08 96.304 7.304-38.714 8.537-48.222 12.2-91.266 2.6-7.08-1.795-42.706-10.53-72.146-4.36 26.037-18.343 64.1-6.394 67.108-5.544" class="F"/><path d="M462.8 331.07c21.83-.44 39.112-8.048 64.812-4.113-27.476-2.502-57.136 8.557-69.423 10.87-22.232 4.184-52.206-8.764-41.324-49.85 5.863-22.127 23.914-32.673 35.124-36.498-4.222-.037-35.747-.707-46.873 34.1-12.044 37.704 14.837 63.02 44.825 60.03 18.113-1.806 42.34-11.008 67.98-10.93 23.867.24 40.916 9.42 41.212 9.937 0 0-26.065-17.015-85.586-.248-23.55 6.633-56.006 12.33-71.068-20.157-7.615-16.425-1.96-35.955-1.5-37.3 15.315-44.256 53.513-36.556 53.513-36.556 32.875-9.475 50.073 12.117 53.677 20.773 31.605 16.977 3.674 56.938-18.816 38.422-9.57 0-16.636-7.603-16.636-15.8 0-1.438-.8-2.93-3.135-3.72-5.356-1.813-9.855 1.656-12.18 4.727-5.938 7.85-1.036 15.378-.455 16.048 11.542 20.9 42.763 7.702 83.693 14.85-33.17-3.938-68.238 2.332-75.933-3.533-21-11.585-16.604-40.15-2.315-49.476 20.123-13.132 41.51 2.234 30.967 16.81 8.028 0 10.333-30.277-21.346-30.277-18.778 0-29.27 10.2-33.746 17.653-16.97 28.25.825 54.226 24.524 54.226" class="G"/><path d="M493.227 282.423c-4.433-7.167-13.075-3.28-16.754 2.77-9.687 15.915 11.153 27.95 21.2 20.216 10.08-5.76 14.537-21.88 8.876-32.584-.6-.996-9.916-23.726-41.9-21.587-8.548.574-37.917 8.97-45.495 41.8-7.582 32.826 20.582 47.2 43.85 40.783-26.68 0-42.617-26.888-30.386-52.644 18.122-38.156 69.475-26 67.492.564-.178 2.4-2.9 12.04-10.74 9.17 4.007-1.432 5.966-5.082 3.866-8.478m1.234-.43c.844-7.522-12.273-17.832-29.107-8.692-2.315 1.257-13.5 9.522-12.24 26.967 2.713-11.58 13-13.444 17.616-11.606 1.903.76 2.55 2.238 2.55 2.238 2.554-12.653 15.63-17.372 21.182-8.907" class="F"/><g class="G"><path d="M422.164 254.968c-9.443 7.068-23.62 11.834-29.19 51.746-1.612 11.56-3.01 40.75-27.973 38.628 21.31-2.067 22.34-25.964 24.172-40.018 5.324-40.846 26.168-47.56 32.992-50.356"/><path d="M301.017 281.512c16.53-4.606 24.353 13.656 15.162 25.03 1.84 0 4.75 2.853 5.966 6.842 5.653-2.55 14.27 1.95 12.785 7.56 6.68-1 10.242 3 11.438 8.343 11.277-.998 17.113 16.087 29.586 16.193-22.958 12.084-72.5-9.985-96.58-3.094-60.643 17.354-80.652-9.467-122.373 3.498 7.055-7.055 34.164-6.144 37.074-6.392 10.145-.864 66.575-19.995 42.46-42.414-5.44-5.055-11.703 2.328-7.425 7.245-7.16-2.7-10.966-7.96-10.966-13.32 0-38.968 62.277-35.972 65.76-19.45 11.766-.001 16.18 7.2 17.113 9.958m71.84 67.47c-12.732 12.72-40.374 2.762-55.512.314-23.08-3.734-58.166 3.998-82.105 3.998-15.328 0-53.083-8.07-73.395-3.1 5.963-3.475 23.012-5.856 33.375-3.77 48 9.672 71.1 2.845 79.533 1.055 25.804-7.62 75.384 13.22 98.104 1.503M343.8 360.014c-6.53-2.786-36.953-6.415-66.883-2.244-3.2.447-18.544 3.1-43.87 2.648-15.256-.28-32.68-5.493-48.85-5.787 0 0 15.898-1.833 38.085 1.884 21.966 3.66 54.522-1.455 56.52-1.75 24.506-3.602 52.556-.06 65 5.25"/></g><path d="M260.35 310.137c2.816 7.627-27.83 38.137-63.003 31.76 32.42-8.707 53.66-24.774 45.912-38.803.12-.083 8.565 6.943 17.1 7.043m26.246-2.1c-2.634 14.522-39.126 46.657-74.287 36.407 8.744 0 44.147-10.992 50.06-33.5 8.416 0 16.875-2.4 19.648-5.384 2.122 2.123 4.577 2.486 4.577 2.486m20.724 1.037c-2.075 5.016-23.997 40.177-75.496 38.332 37.405-6.026 52.58-29.916 56.52-39.295 2.254.942 6.228.823 9.017-.135 0 0 4.303 2.2 9.958 1.1m-3.9 18.815c-.28.664-17.197 13.304-30.414 13.997 11.504-5.44 22.12-14.432 25.704-18.034 1.9 1.016 2.64 3.2 4.7 4.037m9.565 1.2c.08.558-.63.994-1.077 1.346-6.073 4.787-14.437 8.156-24.493 9.152 6.37-3.187 11.998-7.113 17.63-11.037 2.247 1.004 5.277 1.267 7.94.538m10.093 4.847c-5.275 4.094-15.542 6.237-24.74 5.72 4.298-2.185 12.74-6.07 16.53-8.95.047-.178 4.534 3.047 8.2 3.23m14.937 6.73c-7.485 4.748-24.367.737-27.498.493 4.024-1.134 11.996-3.16 15.52-6.684.88 3.052 7.628 6.28 11.977 6.2m12.68 5.84c-4.054 2.04-16-1.265-19.834-2.013 4.585-.516 8.044-2.8 8.702-2.894 1.457 1.458 6.3 4.056 11.132 4.908" class="D"/><path d="M242.183 299.91c-2.2-2.2-5.608-7.238-10.9-7.4-1.678-.05-7.235 1.74-5.024 8.41-13.217-12.358-1.394-39.547 35.035-38.152 17.096.655 21.377 11.05 22.204 11.44 8.904-1.474 14.59 4.274 16.643 9.845 5.07-1.75 11.343-.287 14.04 2.804 4.147 4.753 5.728 15.835-2.422 20.725-.467.11 8.52 1.1 8.882 8.344 10.434-3.975 13.908 4.097 11.977 7.133 8.532-1.85 11.89 4.09 12.247 8.88 8.54-3.65 18.135 12.468 25.12 13.637-4.6.92-8.64 1.382-13.66.942-4.623-.404-15.33-3.776-15.768-6.774-5.9.93-12.232-2.435-13.862-7.67-7.253 4.054-12.626-4.15-13.053-4.037-7.35 2.976-14.756-4.218-13.726-5.25 2.752-2.75 8.01-9.475 9.555-16.147-2.826 1.022-6.998 2.96-11.44-.27-.968-.703-10.486 2.972-15.363-2.983-9.122 6.77-24.307 8.564-40.485-3.476" class="F"/><g class="H"><path d="M345 308a5 5 0 0 1 3.535 8.536A5 5 0 0 1 340 313c.003-2.76 2.24-4.997 5-5z" class="B E"/><path d="M344.576 310.152c1.806.002 3.27 1.466 3.272 3.272 0 .318.258.576.576.576s.576-.258.576-.576a4.43 4.43 0 0 0-4.424-4.424c-.318 0-.576.258-.576.576s.258.576.576.576h0z" class="C"/><path d="M312.5 248a6.5 6.5 0 0 1 4.596 11.096A6.5 6.5 0 0 1 306 254.5a6.51 6.51 0 0 1 6.5-6.5z" class="B E"/><use xlink:href="#C" x="-180" y="-107" class="C"/><use xlink:href="#F" class="B F"/><path d="M193.5 279a6.5 6.5 0 0 1 4.596 11.096A6.5 6.5 0 0 1 187 285.5a6.51 6.51 0 0 1 6.5-6.5z" class="B E"/><use xlink:href="#C" x="-299" y="-76" class="C"/><use xlink:href="#G" class="B F"/><use xlink:href="#H" class="B F"/><use xlink:href="#I" class="B F"/><use xlink:href="#F" class="B E"/><use xlink:href="#C" x="-219" y="-143" class="C"/><use xlink:href="#G" class="B E"/><use xlink:href="#C" x="-273" y="-167" class="C"/><use xlink:href="#H" class="B E"/><use xlink:href="#C" x="-292" y="-136" class="C"/><use xlink:href="#I" class="B E"/><use xlink:href="#C" x="-247" y="-129" class="C"/><path d="M733 304a10 10 0 0 1 7.071 17.071A10 10 0 0 1 723 313.999c.006-5.52 4.48-9.993 10-10z" stroke-width="2" class="B E"/><path d="M732.037 309.073a5.9 5.9 0 0 1 5.89 5.89c0 .573.464 1.037 1.037 1.037s1.037-.464 1.037-1.037c-.005-4.396-3.567-7.958-7.963-7.963-.573 0-1.037.464-1.037 1.037s.464 1.037 1.037 1.037h0z" class="C"/><path d="M709.5 219a6.5 6.5 0 0 1 4.596 11.096A6.5 6.5 0 0 1 703 225.5a6.51 6.51 0 0 1 6.5-6.5z" class="B E"/><use xlink:href="#C" x="217" y="-136" class="C"/><path d="M733.5 200a6.5 6.5 0 0 1 4.596 11.096A6.5 6.5 0 0 1 727 206.5a6.51 6.51 0 0 1 6.5-6.5z" class="B E"/><use xlink:href="#C" x="241" y="-155" class="C"/><path d="M724.5 248a6.5 6.5 0 0 1 4.596 11.096A6.5 6.5 0 0 1 718 254.5a6.51 6.51 0 0 1 6.5-6.5z" class="B E"/><use xlink:href="#C" x="232" y="-107" class="C"/><path d="M676 253a4 4 0 0 1 2.828 6.828A4 4 0 0 1 672 257c.003-2.208 1.792-3.997 4-4z" class="B E"/><path d="M675.46 254.922a2.62 2.62 0 0 1 2.618 2.618.46.46 0 1 0 .922 0c-.002-1.954-1.585-3.537-3.54-3.54a.46.46 0 1 0 0 .922h0z" class="C"/><path d="M212.5 250a6.5 6.5 0 0 1 4.596 11.096A6.5 6.5 0 0 1 206 256.5a6.51 6.51 0 0 1 6.5-6.5z" class="B E"/><use xlink:href="#C" x="-280" y="-105" class="C"/><path d="M35.5 322a6.5 6.5 0 0 1 4.596 11.096A6.5 6.5 0 0 1 29 328.5a6.51 6.51 0 0 1 6.5-6.5z" class="B E"/><use xlink:href="#C" x="-457" y="-33" class="C"/></g></g><defs ><path id="B" d="M255.806 363.382c2.53.002 4.578 1.76 4.58 3.927 0 .382.36.69.806.69s.806-.31.806-.69c-.004-2.93-2.775-5.306-6.194-5.31-.445 0-.806.31-.806.69s.36.69.806.69h0z"/><path id="C" d="M491.69 358.382a3.93 3.93 0 0 1 3.927 3.927.69.69 0 1 0 1.382 0c-.003-2.93-2.378-5.306-5.31-5.31a.69.69 0 1 0 0 1.382h0z"/><path id="D" d="M476.5 434.72c3.033 0 5.768 1.95 6.93 4.94s.52 6.43-1.626 8.718-5.37 2.972-8.173 1.734-4.63-4.156-4.63-7.39c.005-4.416 3.36-7.995 7.5-8z"/><path id="E" d="M474.922 438.103c2.9.002 5.232 1.76 5.235 3.927 0 .382.413.69.922.69s.922-.31.922-.69c-.004-2.93-3.17-5.306-7.078-5.31-.51 0-.922.31-.922.69s.413.69.922.69h0z"/><path id="F" d="M273.5 212a6.5 6.5 0 0 1 4.596 11.096A6.5 6.5 0 0 1 267 218.5a6.51 6.51 0 0 1 6.5-6.5z"/><path id="G" d="M219.5 188a6.5 6.5 0 0 1 4.596 11.096A6.5 6.5 0 0 1 213 194.5a6.51 6.51 0 0 1 6.5-6.5z"/><path id="H" d="M200.5 219a6.5 6.5 0 0 1 4.596 11.096A6.5 6.5 0 0 1 194 225.5a6.51 6.51 0 0 1 6.5-6.5z"/><path id="I" d="M245.5 226a6.5 6.5 0 0 1 4.596 11.096A6.5 6.5 0 0 1 239 232.5a6.51 6.51 0 0 1 6.5-6.5z"/></defs></svg>