<?xml version="1.0" encoding="UTF-8"?>
<svg width="747px" height="506px" viewBox="0 0 747 506" version="1.1" xmlns="http://www.w3.org/2000/svg" xmlns:xlink="http://www.w3.org/1999/xlink">
    <title>bubbleCycle</title>
    <g id="bubbleCycle" stroke="none" stroke-width="1" fill="none" fill-rule="evenodd">
        <rect fill="#FDF4DC" x="0" y="0" width="747" height="506"></rect>
        <path d="M-3,343 C7.63112452,343.36606 15.6311245,343.36606 21,343 C26.3688755,342.63394 33.0355421,341.63394 41,340 C59,334 69,329.666667 71,327 C73,324.333333 75,320 77,314 C77.7425777,294.003434 80.075911,281.336767 84,276 C92.9757289,263.792994 113.557715,263.595863 116,265 C119.363092,266.933534 128.921733,269.414448 136,276 C142.704463,282.237768 147.033956,292.394126 147,301 C146.967083,309.342526 148.045247,311.104165 151,310 C151.683818,309.744463 153.017152,309.41113 155,309 C160.333333,309.666667 163.333333,313.333333 164,320 C165,330 147.385589,344.183258 160,344 C167.427542,343.892095 173.113022,341.184899 180,341 C231.288762,339.623022 269.039018,339 290,339 C330.666667,339 356.333333,341.666667 367,347 L380,341 L388,328 L393,302 L400,276 L409,265 C413.238141,261.032712 416.571474,258.366046 419,257 C420.295087,256.271514 418.195369,256.26821 422,255 C424.53642,254.154527 427.53642,253.48786 431,253 C425.613295,256.727569 421.613295,259.727569 419,262 C416.386705,264.272431 412.720038,267.939097 408,273 L399,305 L406,330 L427,346 L448.325039,349.017667 C493.570942,337.389712 528.129262,331.383823 552,331 C575.870738,330.616177 603.870738,335.282844 636,345 C669.887282,338.26698 694.887282,332.600314 711,328 C727.112718,323.399686 739.112718,320.73302 747,320 L747,542 L0,542 L-3,343 Z" id="Rectangle" fill="#2E8AFF"></path>
        <path d="M489,365.425871 C485.399663,361.928907 468.625565,357.373737 452.123288,362.608889 C450.358518,363.169462 441.898734,366.514077 427.934573,365.932328 C419.523106,365.581161 409.916092,359.037221 401,358.668407 C401,358.668407 409.765712,356.367293 421.998435,361.033637 C434.109458,365.628219 452.059467,359.207216 453.161737,358.837226 C466.673466,354.316172 482.138844,358.76017 489,365.425871" id="Fill-28" fill="#3071AB" transform="translate(445.000000, 361.500000) rotate(34.000000) translate(-445.000000, -361.500000) "></path>
        <path d="M706,354.425871 C702.399663,350.928907 685.625565,346.373737 669.123288,351.608889 C667.358518,352.169462 658.898734,355.514077 644.934573,354.932328 C636.523106,354.581161 626.916092,348.037221 618,347.668407 C618,347.668407 626.765712,345.367293 638.998435,350.033637 C651.109458,354.628219 669.059467,348.207216 670.161737,347.837226 C683.673466,343.316172 699.138844,347.76017 706,354.425871" id="Fill-28" fill="#3071AB" transform="translate(662.000000, 350.500000) rotate(14.000000) translate(-662.000000, -350.500000) "></path>
        <path d="M654,365.425871 C650.399663,361.928907 633.625565,357.373737 617.123288,362.608889 C615.358518,363.169462 606.898734,366.514077 592.934573,365.932328 C584.523106,365.581161 574.916092,359.037221 566,358.668407 C566,358.668407 574.765712,356.367293 586.998435,361.033637 C599.109458,365.628219 617.059467,359.207216 618.161737,358.837226 C631.673466,354.316172 647.138844,358.76017 654,365.425871" id="Fill-28" fill="#3071AB" transform="translate(610.000000, 361.500000) rotate(17.000000) translate(-610.000000, -361.500000) "></path>
        <path d="M206.52,42 L206.52,36.14 L208.46,36.14 C211.46,36.14 213.96,35.06 213.96,31.94 C213.96,28.98 211.86,27.84 208.62,27.84 L204,27.84 L204,42 L206.52,42 Z M208.28,34.02 L206.52,34.02 L206.52,29.96 L208.36,29.96 C209.92,29.96 211.42,30.26 211.42,31.94 C211.42,33.62 209.92,34.02 208.28,34.02 Z M219,42.24 C220.36,42.24 221.5,41.62 221.98,40.78 L222.04,40.78 L222.04,42 L224.28,42 L224.28,36.16 C224.28,34.24 223.44,32.12 220,32.12 C218.54,32.12 217.02,32.64 215.94,33.64 L217.18,35.1 C217.8,34.48 218.78,34 219.8,34 C221,34 222,34.58 222,35.76 L222,36 C219,36 215.4,36.4 215.4,39.26 C215.4,41.5 217.46,42.24 219,42.24 Z M219.48,40.42 C218.66,40.42 217.8,40.14 217.8,39.22 C217.8,37.8 219.94,37.62 221.46,37.62 L222,37.62 L222,37.96 C222,39.48 221.12,40.42 219.48,40.42 Z M229.48,42 L229.48,36.86 C229.48,36.16 229.9,34.28 232.06,34.28 C232.28,34.28 232.48,34.3 232.8,34.38 L232.8,32.18 C232.64,32.14 232.4,32.12 232.22,32.12 C230.96,32.12 229.94,32.9 229.42,34 L229.38,34 L229.38,32.4 L227.08,32.4 L227.08,42 L229.48,42 Z M237.78,42.2 C238.32,42.2 238.96,42.1 239.38,41.94 L239.3,40.06 C239.02,40.2 238.6,40.26 238.28,40.26 C237.22,40.26 237.02,39.64 237.02,38.78 L237.02,34.32 L239.42,34.32 L239.42,32.4 L237.02,32.4 L237.02,29.62 L234.66,29.62 L234.66,32.4 L232.98,32.4 L232.98,34.32 L234.66,34.32 L234.66,38.8 C234.66,40.64 235.24,42.2 237.78,42.2 Z M242.38,30.58 C243.26,30.58 243.94,29.96 243.94,29.14 C243.94,28.32 243.26,27.7 242.38,27.7 C241.5,27.7 240.86,28.38 240.86,29.14 C240.86,29.9 241.5,30.58 242.38,30.58 Z M243.6,42 L243.6,32.4 L241.2,32.4 L241.2,42 L243.6,42 Z M251.16,42.28 C252.58,42.28 253.9,41.8 254.7,40.94 L253.2,39.42 C252.74,39.98 251.92,40.28 251.18,40.28 C249.36,40.28 248.46,38.7 248.46,37.2 C248.46,35.7 249.34,34.12 251.1,34.12 C251.88,34.12 252.7,34.52 253.08,35.06 L254.72,33.62 C253.96,32.68 252.5,32.12 251.1,32.12 C248.28,32.12 245.96,34.08 245.96,37.2 C245.96,40.4 248.32,42.28 251.16,42.28 Z M258.72,42 L258.72,26.88 L256.32,26.88 L256.32,42 L258.72,42 Z M266.24,42.28 C268.06,42.28 269.42,41.64 270.36,40.36 L268.76,39.08 C268.22,39.84 267.42,40.32 266.22,40.32 C264.82,40.32 263.58,39.32 263.48,37.96 L270.78,37.96 C270.8,37.74 270.8,37.54 270.8,37.32 C270.8,33.86 268.84,32.12 266.16,32.12 C263.26,32.12 261.08,34.16 261.08,37.26 C261.08,40.38 263.28,42.28 266.24,42.28 Z M268.4,36.24 L263.48,36.24 C263.58,34.9 264.72,33.92 266.14,33.92 C267.7,33.92 268.4,35 268.4,36.24 Z M275.92,42.28 C278.02,42.28 279.92,41.42 279.92,39.08 C279.92,37.2 278.24,36.56 276.82,36.22 C275.48,35.9 274.74,35.7 274.74,34.96 C274.74,34.2 275.52,33.92 276.28,33.92 C277.16,33.92 277.96,34.4 278.38,34.96 L279.94,33.58 C279.16,32.6 277.72,32.12 276.34,32.12 C274.44,32.12 272.52,33.04 272.52,35.18 C272.52,36.98 273.94,37.56 275.36,37.9 C276.82,38.24 277.56,38.48 277.56,39.28 C277.56,40.14 276.72,40.42 276.02,40.42 C274.98,40.42 274.08,39.9 273.56,39.22 L271.98,40.7 C272.9,41.72 274.44,42.28 275.92,42.28 Z M289.4,42 L289.4,36.72 C289.4,35.44 290.06,34.12 291.5,34.12 C292.72,34.12 293.28,35.02 293.28,36.2 L293.28,42 L295.68,42 L295.68,36.76 C295.68,35.52 296.3,34.12 297.8,34.12 C299.34,34.12 299.6,35.54 299.6,36.68 L299.6,42 L302,42 L302,36 C302,34.04 300.96,32.12 298.46,32.12 C297.02,32.12 295.94,32.78 295.3,33.94 C294.76,32.86 293.78,32.12 292.3,32.12 C290.76,32.12 289.74,33 289.32,33.94 L289.28,33.94 L289.28,32.4 L287,32.4 L287,42 L289.4,42 Z M309.46,42.28 C312.36,42.28 314.68,40.18 314.68,37.16 C314.68,34.14 312.36,32.12 309.46,32.12 C306.56,32.12 304.24,34.14 304.24,37.16 C304.24,40.18 306.56,42.28 309.46,42.28 Z M309.46,40.28 C307.56,40.28 306.68,38.66 306.68,37.16 C306.68,35.66 307.56,34.08 309.46,34.08 C311.36,34.08 312.24,35.66 312.24,37.16 C312.24,38.66 311.36,40.28 309.46,40.28 Z M322,42 L325.82,32.4 L323.28,32.4 L320.74,39.4 L320.7,39.4 L318.18,32.4 L315.56,32.4 L319.44,42 L322,42 Z M331.86,42.28 C333.68,42.28 335.04,41.64 335.98,40.36 L334.38,39.08 C333.84,39.84 333.04,40.32 331.84,40.32 C330.44,40.32 329.2,39.32 329.1,37.96 L336.4,37.96 C336.42,37.74 336.42,37.54 336.42,37.32 C336.42,33.86 334.46,32.12 331.78,32.12 C328.88,32.12 326.7,34.16 326.7,37.26 C326.7,40.38 328.9,42.28 331.86,42.28 Z M334.02,36.24 L329.1,36.24 C329.2,34.9 330.34,33.92 331.76,33.92 C333.32,33.92 334.02,35 334.02,36.24 Z M349.4,42.28 C352.32,42.28 354.12,39.96 354.12,37.16 C354.12,34.32 352.2,32.12 349.46,32.12 C347.7,32.12 346.74,33 346.24,33.62 L346.18,33.62 L346.18,26.88 L343.78,26.88 L343.78,42 L346.06,42 L346.06,40.56 L346.1,40.56 C346.76,41.66 348.06,42.28 349.4,42.28 Z M348.92,40.28 C347.16,40.28 346.1,38.7 346.1,37.2 C346.1,35.7 347.16,34.08 348.92,34.08 C350.78,34.08 351.68,35.66 351.68,37.16 C351.68,38.66 350.78,40.28 348.92,40.28 Z M361.04,42.28 C362.86,42.28 364.22,41.64 365.16,40.36 L363.56,39.08 C363.02,39.84 362.22,40.32 361.02,40.32 C359.62,40.32 358.38,39.32 358.28,37.96 L365.58,37.96 C365.6,37.74 365.6,37.54 365.6,37.32 C365.6,33.86 363.64,32.12 360.96,32.12 C358.06,32.12 355.88,34.16 355.88,37.26 C355.88,40.38 358.08,42.28 361.04,42.28 Z M363.2,36.24 L358.28,36.24 C358.38,34.9 359.52,33.92 360.94,33.92 C362.5,33.92 363.2,35 363.2,36.24 Z M371.34,42.2 C371.88,42.2 372.52,42.1 372.94,41.94 L372.86,40.06 C372.58,40.2 372.16,40.26 371.84,40.26 C370.78,40.26 370.58,39.64 370.58,38.78 L370.58,34.32 L372.98,34.32 L372.98,32.4 L370.58,32.4 L370.58,29.62 L368.22,29.62 L368.22,32.4 L366.54,32.4 L366.54,34.32 L368.22,34.32 L368.22,38.8 C368.22,40.64 368.8,42.2 371.34,42.2 Z M379.14,42 L381.3,35.28 L381.34,35.28 L383.52,42 L385.96,42 L389.28,32.4 L386.78,32.4 L384.74,39.28 L384.7,39.28 L382.62,32.4 L380.06,32.4 L378,39.28 L377.96,39.28 L375.96,32.4 L373.36,32.4 L376.7,42 L379.14,42 Z M395.4,42.28 C397.22,42.28 398.58,41.64 399.52,40.36 L397.92,39.08 C397.38,39.84 396.58,40.32 395.38,40.32 C393.98,40.32 392.74,39.32 392.64,37.96 L399.94,37.96 C399.96,37.74 399.96,37.54 399.96,37.32 C399.96,33.86 398,32.12 395.32,32.12 C392.42,32.12 390.24,34.16 390.24,37.26 C390.24,40.38 392.44,42.28 395.4,42.28 Z M397.56,36.24 L392.64,36.24 C392.74,34.9 393.88,33.92 395.3,33.92 C396.86,33.92 397.56,35 397.56,36.24 Z M406.88,42.28 C408.7,42.28 410.06,41.64 411,40.36 L409.4,39.08 C408.86,39.84 408.06,40.32 406.86,40.32 C405.46,40.32 404.22,39.32 404.12,37.96 L411.42,37.96 C411.44,37.74 411.44,37.54 411.44,37.32 C411.44,33.86 409.48,32.12 406.8,32.12 C403.9,32.12 401.72,34.16 401.72,37.26 C401.72,40.38 403.92,42.28 406.88,42.28 Z M409.04,36.24 L404.12,36.24 C404.22,34.9 405.36,33.92 406.78,33.92 C408.34,33.92 409.04,35 409.04,36.24 Z M416.16,42 L416.16,36.72 C416.16,35.44 416.88,34.12 418.4,34.12 C419.94,34.12 420.2,35.54 420.2,36.68 L420.2,42 L422.6,42 L422.6,36 C422.6,34.04 421.56,32.12 419.06,32.12 C417.64,32.12 416.5,32.98 416.08,33.94 L416.04,33.94 L416.04,32.4 L413.76,32.4 L413.76,42 L416.16,42 Z M433.32,42.24 C434.68,42.24 435.82,41.62 436.3,40.78 L436.36,40.78 L436.36,42 L438.6,42 L438.6,36.16 C438.6,34.24 437.76,32.12 434.32,32.12 C432.86,32.12 431.34,32.64 430.26,33.64 L431.5,35.1 C432.12,34.48 433.1,34 434.12,34 C435.32,34 436.32,34.58 436.32,35.76 L436.32,36 C433.32,36 429.72,36.4 429.72,39.26 C429.72,41.5 431.78,42.24 433.32,42.24 Z M433.8,40.42 C432.98,40.42 432.12,40.14 432.12,39.22 C432.12,37.8 434.26,37.62 435.78,37.62 L436.32,37.62 L436.32,37.96 C436.32,39.48 435.44,40.42 433.8,40.42 Z M442.62,30.58 C443.5,30.58 444.18,29.96 444.18,29.14 C444.18,28.32 443.5,27.7 442.62,27.7 C441.74,27.7 441.1,28.38 441.1,29.14 C441.1,29.9 441.74,30.58 442.62,30.58 Z M443.84,42 L443.84,32.4 L441.44,32.4 L441.44,42 L443.84,42 Z M449.16,42 L449.16,36.86 C449.16,36.16 449.58,34.28 451.74,34.28 C451.96,34.28 452.16,34.3 452.48,34.38 L452.48,32.18 C452.32,32.14 452.08,32.12 451.9,32.12 C450.64,32.12 449.62,32.9 449.1,34 L449.06,34 L449.06,32.4 L446.76,32.4 L446.76,42 L449.16,42 Z M461.96,42.24 C463.32,42.24 464.46,41.62 464.94,40.78 L465,40.78 L465,42 L467.24,42 L467.24,36.16 C467.24,34.24 466.4,32.12 462.96,32.12 C461.5,32.12 459.98,32.64 458.9,33.64 L460.14,35.1 C460.76,34.48 461.74,34 462.76,34 C463.96,34 464.96,34.58 464.96,35.76 L464.96,36 C461.96,36 458.36,36.4 458.36,39.26 C458.36,41.5 460.42,42.24 461.96,42.24 Z M462.44,40.42 C461.62,40.42 460.76,40.14 460.76,39.22 C460.76,37.8 462.9,37.62 464.42,37.62 L464.96,37.62 L464.96,37.96 C464.96,39.48 464.08,40.42 462.44,40.42 Z M472.44,42 L472.44,36.72 C472.44,35.44 473.16,34.12 474.68,34.12 C476.22,34.12 476.48,35.54 476.48,36.68 L476.48,42 L478.88,42 L478.88,36 C478.88,34.04 477.84,32.12 475.34,32.12 C473.92,32.12 472.78,32.98 472.36,33.94 L472.32,33.94 L472.32,32.4 L470.04,32.4 L470.04,42 L472.44,42 Z M485.82,42.28 C487.16,42.28 488.46,41.66 489.12,40.56 L489.16,40.56 L489.16,42 L491.44,42 L491.44,26.88 L489.04,26.88 L489.04,33.62 L488.98,33.62 C488.48,33 487.52,32.12 485.76,32.12 C483.02,32.12 481.1,34.32 481.1,37.16 C481.1,39.96 482.9,42.28 485.82,42.28 Z M486.3,40.28 C484.44,40.28 483.54,38.66 483.54,37.16 C483.54,35.66 484.44,34.08 486.3,34.08 C488.06,34.08 489.12,35.7 489.12,37.2 C489.12,38.7 488.06,40.28 486.3,40.28 Z M503.78,42 L505.94,35.28 L505.98,35.28 L508.16,42 L510.6,42 L513.92,32.4 L511.42,32.4 L509.38,39.28 L509.34,39.28 L507.26,32.4 L504.7,32.4 L502.64,39.28 L502.6,39.28 L500.6,32.4 L498,32.4 L501.34,42 L503.78,42 Z M518.36,42.24 C519.72,42.24 520.86,41.62 521.34,40.78 L521.4,40.78 L521.4,42 L523.64,42 L523.64,36.16 C523.64,34.24 522.8,32.12 519.36,32.12 C517.9,32.12 516.38,32.64 515.3,33.64 L516.54,35.1 C517.16,34.48 518.14,34 519.16,34 C520.36,34 521.36,34.58 521.36,35.76 L521.36,36 C518.36,36 514.76,36.4 514.76,39.26 C514.76,41.5 516.82,42.24 518.36,42.24 Z M518.84,40.42 C518.02,40.42 517.16,40.14 517.16,39.22 C517.16,37.8 519.3,37.62 520.82,37.62 L521.36,37.62 L521.36,37.96 C521.36,39.48 520.48,40.42 518.84,40.42 Z M529.86,42.2 C530.4,42.2 531.04,42.1 531.46,41.94 L531.38,40.06 C531.1,40.2 530.68,40.26 530.36,40.26 C529.3,40.26 529.1,39.64 529.1,38.78 L529.1,34.32 L531.5,34.32 L531.5,32.4 L529.1,32.4 L529.1,29.62 L526.74,29.62 L526.74,32.4 L525.06,32.4 L525.06,34.32 L526.74,34.32 L526.74,38.8 C526.74,40.64 527.32,42.2 529.86,42.2 Z M537.84,42.28 C539.66,42.28 541.02,41.64 541.96,40.36 L540.36,39.08 C539.82,39.84 539.02,40.32 537.82,40.32 C536.42,40.32 535.18,39.32 535.08,37.96 L542.38,37.96 C542.4,37.74 542.4,37.54 542.4,37.32 C542.4,33.86 540.44,32.12 537.76,32.12 C534.86,32.12 532.68,34.16 532.68,37.26 C532.68,40.38 534.88,42.28 537.84,42.28 Z M540,36.24 L535.08,36.24 C535.18,34.9 536.32,33.92 537.74,33.92 C539.3,33.92 540,35 540,36.24 Z M547.12,42 L547.12,36.86 C547.12,36.16 547.54,34.28 549.7,34.28 C549.92,34.28 550.12,34.3 550.44,34.38 L550.44,32.18 C550.28,32.14 550.04,32.12 549.86,32.12 C548.6,32.12 547.58,32.9 547.06,34 L547.02,34 L547.02,32.4 L544.72,32.4 L544.72,42 L547.12,42 Z M304.17,66.2 C304.71,66.2 305.35,66.1 305.77,65.94 L305.69,64.06 C305.41,64.2 304.99,64.26 304.67,64.26 C303.61,64.26 303.41,63.64 303.41,62.78 L303.41,58.32 L305.81,58.32 L305.81,56.4 L303.41,56.4 L303.41,53.62 L301.05,53.62 L301.05,56.4 L299.37,56.4 L299.37,58.32 L301.05,58.32 L301.05,62.8 C301.05,64.64 301.63,66.2 304.17,66.2 Z M309.99,66 L309.99,60.76 C309.99,59.48 310.73,58.18 312.25,58.18 C313.79,58.18 314.03,59.58 314.03,60.72 L314.03,66 L316.43,66 L316.43,60 C316.43,58.04 315.39,56.12 312.89,56.12 C311.47,56.12 310.41,56.94 310.03,57.74 L309.99,57.74 L309.99,50.88 L307.59,50.88 L307.59,66 L309.99,66 Z M321.63,66 L321.63,60.86 C321.63,60.16 322.05,58.28 324.21,58.28 C324.43,58.28 324.63,58.3 324.95,58.38 L324.95,56.18 C324.79,56.14 324.55,56.12 324.37,56.12 C323.11,56.12 322.09,56.9 321.57,58 L321.53,58 L321.53,56.4 L319.23,56.4 L319.23,66 L321.63,66 Z M331.17,66.28 C334.07,66.28 336.39,64.18 336.39,61.16 C336.39,58.14 334.07,56.12 331.17,56.12 C328.27,56.12 325.95,58.14 325.95,61.16 C325.95,64.18 328.27,66.28 331.17,66.28 Z M331.17,64.28 C329.27,64.28 328.39,62.66 328.39,61.16 C328.39,59.66 329.27,58.08 331.17,58.08 C333.07,58.08 333.95,59.66 333.95,61.16 C333.95,62.66 333.07,64.28 331.17,64.28 Z M342.17,66.28 C343.59,66.28 344.73,65.42 345.15,64.46 L345.19,64.46 L345.19,66 L347.47,66 L347.47,56.4 L345.07,56.4 L345.07,61.68 C345.07,62.96 344.35,64.28 342.83,64.28 C341.29,64.28 341.03,62.86 341.03,61.72 L341.03,56.4 L338.63,56.4 L338.63,62.4 C338.63,64.36 339.67,66.28 342.17,66.28 Z M354.69,70.8 C358.43,70.8 360.11,68.6 360.11,65.14 L360.11,56.4 L357.83,56.4 L357.83,57.84 L357.79,57.84 C357.09,56.68 355.83,56.12 354.49,56.12 C351.59,56.12 349.79,58.38 349.79,61.16 C349.79,63.88 351.65,66.16 354.53,66.16 C355.85,66.16 356.97,65.66 357.67,64.72 L357.71,64.72 L357.71,65.42 C357.71,67.32 356.99,68.72 354.67,68.72 C353.47,68.72 352.23,68.24 351.31,67.36 L349.93,69.22 C351.17,70.24 353.13,70.8 354.69,70.8 Z M354.97,64.18 C353.25,64.18 352.23,62.66 352.23,61.14 C352.23,59.44 353.25,58.08 354.99,58.08 C356.73,58.08 357.83,59.48 357.83,61.14 C357.83,62.74 356.75,64.18 354.97,64.18 Z M365.43,66 L365.43,60.76 C365.43,59.48 366.17,58.18 367.69,58.18 C369.23,58.18 369.47,59.58 369.47,60.72 L369.47,66 L371.87,66 L371.87,60 C371.87,58.04 370.83,56.12 368.33,56.12 C366.91,56.12 365.85,56.94 365.47,57.74 L365.43,57.74 L365.43,50.88 L363.03,50.88 L363.03,66 L365.43,66 Z M385.33,66.28 C388.25,66.28 390.05,63.96 390.05,61.16 C390.05,58.32 388.13,56.12 385.39,56.12 C383.63,56.12 382.67,57 382.17,57.62 L382.11,57.62 L382.11,50.88 L379.71,50.88 L379.71,66 L381.99,66 L381.99,64.56 L382.03,64.56 C382.69,65.66 383.99,66.28 385.33,66.28 Z M384.85,64.28 C383.09,64.28 382.03,62.7 382.03,61.2 C382.03,59.7 383.09,58.08 384.85,58.08 C386.71,58.08 387.61,59.66 387.61,61.16 C387.61,62.66 386.71,64.28 384.85,64.28 Z M395.83,66.28 C397.25,66.28 398.39,65.42 398.81,64.46 L398.85,64.46 L398.85,66 L401.13,66 L401.13,56.4 L398.73,56.4 L398.73,61.68 C398.73,62.96 398.01,64.28 396.49,64.28 C394.95,64.28 394.69,62.86 394.69,61.72 L394.69,56.4 L392.29,56.4 L392.29,62.4 C392.29,64.36 393.33,66.28 395.83,66.28 Z M409.67,66.28 C412.59,66.28 414.39,63.96 414.39,61.16 C414.39,58.32 412.47,56.12 409.73,56.12 C407.97,56.12 407.01,57 406.51,57.62 L406.45,57.62 L406.45,50.88 L404.05,50.88 L404.05,66 L406.33,66 L406.33,64.56 L406.37,64.56 C407.03,65.66 408.33,66.28 409.67,66.28 Z M409.19,64.28 C407.43,64.28 406.37,62.7 406.37,61.2 C406.37,59.7 407.43,58.08 409.19,58.08 C411.05,58.08 411.95,59.66 411.95,61.16 C411.95,62.66 411.05,64.28 409.19,64.28 Z M422.37,66.28 C425.29,66.28 427.09,63.96 427.09,61.16 C427.09,58.32 425.17,56.12 422.43,56.12 C420.67,56.12 419.71,57 419.21,57.62 L419.15,57.62 L419.15,50.88 L416.75,50.88 L416.75,66 L419.03,66 L419.03,64.56 L419.07,64.56 C419.73,65.66 421.03,66.28 422.37,66.28 Z M421.89,64.28 C420.13,64.28 419.07,62.7 419.07,61.2 C419.07,59.7 420.13,58.08 421.89,58.08 C423.75,58.08 424.65,59.66 424.65,61.16 C424.65,62.66 423.75,64.28 421.89,64.28 Z M431.85,66 L431.85,50.88 L429.45,50.88 L429.45,66 L431.85,66 Z M439.37,66.28 C441.19,66.28 442.55,65.64 443.49,64.36 L441.89,63.08 C441.35,63.84 440.55,64.32 439.35,64.32 C437.95,64.32 436.71,63.32 436.61,61.96 L443.91,61.96 C443.93,61.74 443.93,61.54 443.93,61.32 C443.93,57.86 441.97,56.12 439.29,56.12 C436.39,56.12 434.21,58.16 434.21,61.26 C434.21,64.38 436.41,66.28 439.37,66.28 Z M441.53,60.24 L436.61,60.24 C436.71,58.9 437.85,57.92 439.27,57.92 C440.83,57.92 441.53,59 441.53,60.24 Z M449.05,66.28 C451.15,66.28 453.05,65.42 453.05,63.08 C453.05,61.2 451.37,60.56 449.95,60.22 C448.61,59.9 447.87,59.7 447.87,58.96 C447.87,58.2 448.65,57.92 449.41,57.92 C450.29,57.92 451.09,58.4 451.51,58.96 L453.07,57.58 C452.29,56.6 450.85,56.12 449.47,56.12 C447.57,56.12 445.65,57.04 445.65,59.18 C445.65,60.98 447.07,61.56 448.49,61.9 C449.95,62.24 450.69,62.48 450.69,63.28 C450.69,64.14 449.85,64.42 449.15,64.42 C448.11,64.42 447.21,63.9 446.69,63.22 L445.11,64.7 C446.03,65.72 447.57,66.28 449.05,66.28 Z" id="Particlesmovebetweenairandwaterthroughbubbles" fill="#646464" fill-rule="nonzero"></path>
        <g id="Group-15" transform="translate(484.000000, 394.000000)" fill-rule="nonzero">
            <path d="M10.9998392,0 C15.4489147,0 19.459894,2.80191347 21.1624242,7.09918484 C22.8649543,11.3964562 21.9237424,16.3427892 18.7776833,19.6316677 C15.6316243,22.9205462 10.9002968,23.9042648 6.78995819,22.1241074 C2.67961961,20.34395 -0.000247956052,16.1504972 0,11.4991911 C0.00709484086,5.15118793 4.92783586,0.00706353663 10.9998392,0 Z" id="Path" stroke="#3071AB" fill="#FDF4DC"></path>
            <path d="M17.6961559,11.9632701 C17.6961559,12.5358402 18.2118889,13 18.8480779,13 C19.4842669,13 20,12.5358402 20,11.9632701 C19.9945586,7.5673076 16.0363249,4.00489729 11.151922,4 C10.515733,4 10,4.46415978 10,5.03672986 C10,5.60929993 10.515733,6.07345969 11.151922,6.07345972 C14.7645484,6.07705112 17.6921654,8.71190644 17.6961559,11.9632701 Z" id="Path" fill="#2E8AFF"></path>
        </g>
        <g id="Group-7" transform="translate(249.000000, 360.000000)" fill-rule="nonzero">
            <path d="M7.49989037,0 C10.5333509,0 13.2681095,1.94915719 14.4289256,4.93856337 C15.5897416,7.92796954 14.9480062,11.3688969 12.8029659,13.6568123 C10.6579256,15.9447278 7.43202052,16.6290538 4.62951694,15.3906834 C1.82701337,14.152313 -0.000169060945,11.2351285 0,7.99943726 C0.0048373915,3.58343508 3.35988809,0.00491376461 7.49989037,0 Z" id="Path" stroke="#3071AB" fill="#FDF4DC"></path>
            <path d="M6.80634541,3.38230648 C9.33518387,3.38470075 11.3845158,5.14127096 11.3873091,7.30884676 C11.3873091,7.69056015 11.7483223,8 12.1936546,8 C12.6389868,8 13,7.69056015 13,7.30884676 C12.996191,4.37820507 10.2254274,2.00326486 6.80634541,2 C6.36101313,2 6,2.30943986 6,2.69115324 C6,3.07286662 6.36101313,3.38230646 6.80634541,3.38230648 L6.80634541,3.38230648 Z" id="Path" fill="#2E8AFF"></path>
        </g>
        <g id="Group-10" transform="translate(502.000000, 459.166667)" fill-rule="nonzero">
            <path d="M12.99981,0.833333333 C18.2578082,0.833333333 22.9980565,4.1225361 25.0101376,9.16715902 C27.0222188,14.2117819 25.9098774,20.0183468 22.1918076,23.8792041 C18.4737378,27.7400615 12.8821689,28.8948616 8.02449604,26.8051116 C3.16682318,24.7153615 -0.000293038971,19.7926127 0,14.3323837 C0.00838481193,6.88038003 5.82380602,0.841625311 12.99981,0.833333333 Z" id="Path" stroke="#3071AB" fill="#FDF4DC"></path>
            <path d="M13.2671142,7.36756187 C17.2410032,7.37195137 20.4613819,10.5923301 20.4657714,14.5662191 C20.4657714,15.266027 21.0330778,15.8333333 21.7328857,15.8333333 C22.4326936,15.8333333 23,15.266027 23,14.5662191 C22.9940144,9.19337596 18.6399574,4.8393189 13.2671142,4.83333333 C12.5673064,4.83333333 12,5.40063974 12,6.1004476 C12,6.80025547 12.5673064,7.36756185 13.2671142,7.36756187 L13.2671142,7.36756187 Z" id="Path" fill="#2E8AFF"></path>
        </g>
        <g id="Group-9" transform="translate(695.000000, 359.166667)" fill-rule="nonzero">
            <path d="M8.99986845,0.833333333 C12.6400211,0.833333333 15.9217314,3.1479575 17.3147107,6.69787733 C18.7076899,10.2477972 17.9376074,14.3338984 15.3635591,17.050798 C12.7895108,19.7676976 8.91842462,20.5803347 5.55542033,19.1097699 C2.19241605,17.639205 -0.000202873134,14.1750484 0,10.3326651 C0.0058048698,5.08866249 4.03186571,0.839168429 8.99986845,0.833333333 Z" id="Path" stroke="#3071AB" fill="#FDF4DC"></path>
            <path d="M8.92153762,5.67640864 C11.8116387,5.679601 14.1537323,8.02169461 14.1569247,10.9117957 C14.1569247,11.4207469 14.5695112,11.8333333 15.0784623,11.8333333 C15.5874135,11.8333333 16,11.4207469 16,10.9117957 C15.9956469,7.00427343 12.8290599,3.83768648 8.92153762,3.83333333 C8.41258644,3.83333333 8,4.24591981 8,4.75487098 C8,5.26382216 8.41258644,5.67640861 8.92153762,5.67640864 L8.92153762,5.67640864 Z" id="Path" fill="#2E8AFF"></path>
        </g>
        <g id="Group-16" transform="translate(484.000000, 355.000000)" fill-rule="nonzero">
            <path d="M7.49989037,0 C10.5333509,0 13.2681095,1.82733487 14.4289256,4.62990316 C15.5897416,7.43247145 14.9480062,10.6583408 12.8029659,12.8032616 C10.6579256,14.9481823 7.43202052,15.5897379 4.62951694,14.4287657 C1.82701337,13.2677934 -0.000169060945,10.532933 0,7.49947243 C0.0048373915,3.35947039 3.35988809,0.00460665432 7.49989037,0 Z" id="Path" stroke="#3071AB" fill="#FDF4DC"></path>
            <path d="M7.69115321,3.38230648 C9.85872903,3.38470075 11.6152992,5.14127096 11.6176935,7.30884676 C11.6176935,7.69056015 11.9271334,8 12.3088468,8 C12.6905602,8 13,7.69056015 13,7.30884676 C12.9967351,4.37820507 10.6217949,2.00326486 7.69115321,2 C7.30943983,2 7,2.30943986 7,2.69115324 C7,3.07286662 7.30943983,3.38230646 7.69115321,3.38230648 L7.69115321,3.38230648 Z" id="Path" fill="#2E8AFF"></path>
        </g>
        <g id="Group-12" transform="translate(469.000000, 434.720930)" fill-rule="nonzero">
            <path d="M7.49989037,0 C10.5333509,0 13.2681095,1.94915719 14.4289256,4.93856337 C15.5897416,7.92796954 14.9480062,11.3688969 12.8029659,13.6568123 C10.6579256,15.9447278 7.43202052,16.6290538 4.62951694,15.3906834 C1.82701337,14.152313 -0.000169060945,11.2351285 0,7.99943726 C0.0048373915,3.58343508 3.35988809,0.00491376461 7.49989037,0 Z" id="Path" stroke="#3071AB" fill="#FDF4DC"></path>
            <path d="M5.92153762,3.38230648 C8.8116387,3.38470075 11.1537323,5.14127096 11.1569247,7.30884676 C11.1569247,7.69056015 11.5695112,8 12.0784623,8 C12.5874135,8 13,7.69056015 13,7.30884676 C12.9956469,4.37820507 9.82905989,2.00326486 5.92153762,2 C5.41258644,2 5,2.30943986 5,2.69115324 C5,3.07286662 5.41258644,3.38230646 5.92153762,3.38230648 L5.92153762,3.38230648 Z" id="Path" fill="#2E8AFF"></path>
        </g>
        <g id="Group-13" transform="translate(725.000000, 383.720930)" fill-rule="nonzero">
            <path d="M7.49989037,0 C10.5333509,0 13.2681095,1.94915719 14.4289256,4.93856337 C15.5897416,7.92796954 14.9480062,11.3688969 12.8029659,13.6568123 C10.6579256,15.9447278 7.43202052,16.6290538 4.62951694,15.3906834 C1.82701337,14.152313 -0.000169060945,11.2351285 0,7.99943726 C0.0048373915,3.58343508 3.35988809,0.00491376461 7.49989037,0 Z" id="Path" stroke="#3071AB" fill="#FDF4DC"></path>
            <path d="M5.92153762,3.38230648 C8.8116387,3.38470075 11.1537323,5.14127096 11.1569247,7.30884676 C11.1569247,7.69056015 11.5695112,8 12.0784623,8 C12.5874135,8 13,7.69056015 13,7.30884676 C12.9956469,4.37820507 9.82905989,2.00326486 5.92153762,2 C5.41258644,2 5,2.30943986 5,2.69115324 C5,3.07286662 5.41258644,3.38230646 5.92153762,3.38230648 L5.92153762,3.38230648 Z" id="Path" fill="#2E8AFF"></path>
        </g>
        <g id="Group-11" transform="translate(567.000000, 339.000000)" fill-rule="nonzero">
            <path d="M7.49989037,0 C10.5333509,0 13.2681095,1.94915719 14.4289256,4.93856337 C15.5897416,7.92796954 14.9480062,11.3688969 12.8029659,13.6568123 C10.6579256,15.9447278 7.43202052,16.6290538 4.62951694,15.3906834 C1.82701337,14.152313 -0.000169060945,11.2351285 0,7.99943726 C0.0048373915,3.58343508 3.35988809,0.00491376461 7.49989037,0 Z" id="Path" stroke="#3071AB" fill="#FDF4DC"></path>
            <path d="M6.80634541,3.38230648 C9.33518387,3.38470075 11.3845158,5.14127096 11.3873091,7.30884676 C11.3873091,7.69056015 11.7483223,8 12.1936546,8 C12.6389868,8 13,7.69056015 13,7.30884676 C12.996191,4.37820507 10.2254274,2.00326486 6.80634541,2 C6.36101313,2 6,2.30943986 6,2.69115324 C6,3.07286662 6.36101313,3.38230646 6.80634541,3.38230648 L6.80634541,3.38230648 Z" id="Path" fill="#2E8AFF"></path>
        </g>
        <g id="Group-17" transform="translate(448.000000, 380.720930)" fill-rule="nonzero">
            <path d="M5.9999123,0.279069767 C8.42668072,0.279069767 10.6144876,1.86275999 11.5431404,4.2916525 C12.4717933,6.72054502 11.958405,9.51629847 10.2423727,11.3752298 C8.5263405,13.2341611 5.94561641,13.790176 3.70361356,12.784 C1.4616107,11.7778241 -0.000135248756,9.40761168 0,6.77861254 C0.0038699132,3.19061077 2.68791047,0.283062201 5.9999123,0.279069767 Z" id="Path" stroke="#3071AB" fill="#FDF4DC"></path>
            <path d="M4.69115321,3.43099183 C6.85872903,3.43298706 8.61529924,4.89679557 8.61769352,6.70310874 C8.61769352,7.02120323 8.92713336,7.27906977 9.30884676,7.27906977 C9.69056015,7.27906977 10,7.02120323 10,6.70310874 C9.99673514,4.26090733 7.62179492,2.28179048 4.69115321,2.27906977 C4.30943983,2.27906977 4,2.53693631 4,2.8550308 C4,3.17312528 4.30943983,3.43099182 4.69115321,3.43099183 L4.69115321,3.43099183 Z" id="Path" fill="#2E8AFF"></path>
        </g>
        <g id="Group-8" transform="translate(187.000000, 358.000000)" fill-rule="nonzero">
            <path d="M7.49989037,0 C10.5333509,0 13.2681095,1.94915719 14.4289256,4.93856337 C15.5897416,7.92796954 14.9480062,11.3688969 12.8029659,13.6568123 C10.6579256,15.9447278 7.43202052,16.6290538 4.62951694,15.3906834 C1.82701337,14.152313 -0.000169060945,11.2351285 0,7.99943726 C0.0048373915,3.58343508 3.35988809,0.00491376461 7.49989037,0 Z" id="Path" stroke="#3071AB" fill="#FDF4DC"></path>
            <path d="M5.92153762,3.38230648 C8.8116387,3.38470075 11.1537323,5.14127096 11.1569247,7.30884676 C11.1569247,7.69056015 11.5695112,8 12.0784623,8 C12.5874135,8 13,7.69056015 13,7.30884676 C12.9956469,4.37820507 9.82905989,2.00326486 5.92153762,2 C5.41258644,2 5,2.30943986 5,2.69115324 C5,3.07286662 5.41258644,3.38230646 5.92153762,3.38230648 L5.92153762,3.38230648 Z" id="Path" fill="#2E8AFF"></path>
        </g>
        <path d="M645.49989,360.72093 C648.533351,360.72093 651.26811,362.670087 652.428926,365.659494 C653.589742,368.6489 652.948006,372.089827 650.802966,374.377743 C648.657926,376.665658 645.432021,377.349984 642.629517,376.111614 C639.827013,374.873243 637.999831,371.956059 638,368.720367 C638.004837,364.304365 641.359888,360.725844 645.49989,360.72093 Z" id="Path" stroke="#3071AB" fill="#FDF4DC" fill-rule="nonzero"></path>
        <path d="M643.921538,364.103237 C646.811639,364.105631 649.153732,365.862201 649.156925,368.029777 C649.156925,368.41149 649.569511,368.72093 650.078462,368.72093 C650.587414,368.72093 651,368.41149 651,368.029777 C650.995647,365.099135 647.82906,362.724195 643.921538,362.72093 C643.412586,362.72093 643,363.03037 643,363.412083 C643,363.793797 643.412586,364.103237 643.921538,364.103237 L643.921538,364.103237 Z" id="Path" fill="#2E8AFF" fill-rule="nonzero"></path>
        <g id="Group-14" transform="translate(710.000000, 414.720930)" fill-rule="nonzero">
            <path d="M7.49989037,0 C10.5333509,0 13.2681095,1.94915719 14.4289256,4.93856337 C15.5897416,7.92796954 14.9480062,11.3688969 12.8029659,13.6568123 C10.6579256,15.9447278 7.43202052,16.6290538 4.62951694,15.3906834 C1.82701337,14.152313 -0.000169060945,11.2351285 0,7.99943726 C0.0048373915,3.58343508 3.35988809,0.00491376461 7.49989037,0 Z" id="Path" stroke="#3071AB" fill="#FDF4DC"></path>
            <path d="M5.92153762,3.38230648 C8.8116387,3.38470075 11.1537323,5.14127096 11.1569247,7.30884676 C11.1569247,7.69056015 11.5695112,8 12.0784623,8 C12.5874135,8 13,7.69056015 13,7.30884676 C12.9956469,4.37820507 9.82905989,2.00326486 5.92153762,2 C5.41258644,2 5,2.30943986 5,2.69115324 C5,3.07286662 5.41258644,3.38230646 5.92153762,3.38230648 L5.92153762,3.38230648 Z" id="Path" fill="#2E8AFF"></path>
        </g>
        <g id="Group-6" transform="translate(216.000000, 379.000000)" fill-rule="nonzero">
            <path d="M6.99989768,0 C9.83112751,0 12.3835689,1.82733487 13.4669972,4.62990316 C14.5504255,7.43247145 13.9514725,10.6583408 11.9494349,12.8032616 C9.94739725,14.9481823 6.93655248,15.5897379 4.32088248,14.4287657 C1.70521248,13.2677934 -0.000157790215,10.532933 0,7.49947243 C0.00451489873,3.35947039 3.13589555,0.00460665432 6.99989768,0 Z" id="Path" stroke="#3071AB" fill="#FDF4DC"></path>
            <path d="M6.69115321,3.38230648 C8.85872903,3.38470075 10.6152992,5.14127096 10.6176935,7.30884676 C10.6176935,7.69056015 10.9271334,8 11.3088468,8 C11.6905602,8 12,7.69056015 12,7.30884676 C11.9967351,4.37820507 9.62179492,2.00326486 6.69115321,2 C6.30943983,2 6,2.30943986 6,2.69115324 C6,3.07286662 6.30943983,3.38230646 6.69115321,3.38230648 L6.69115321,3.38230648 Z" id="Path" fill="#2E8AFF"></path>
        </g>
        <g id="Group-5" transform="translate(0.000000, 263.000000)">
            <path d="M-5.40012479e-13,77.7877017 C10.7743269,77.3275047 20.4726738,63.5750192 8.5094266,63.7620035 C9.71990402,61.3237093 11.4411907,57.7457011 14.2904755,56.9373103 C18.675,55.6944972 23.3702277,58.1281051 24.1219141,62.0842996 C25.6730872,70.2239753 19.15816,77.9812469 -5.40012479e-13,77.7877017" id="Fill-38" fill="#3071AB"></path>
            <path d="M149.464203,64.5783611 C141.86158,72.5577645 130.919951,76.9980562 122.6589,78.1494859 C132.510958,73.0156183 137.671538,68.4206779 140.485206,61.7187664 C142.497045,63.8899401 146.222204,65.3811283 149.464203,64.5783611 Z M155.285554,77.9910882 C166.576314,67.918304 166.990116,57.5268498 164.363432,52.0991497 C161.500088,46.1845405 153.765779,42.6065323 147.379257,45.3920832 C150.849949,35.8057394 151.001785,18.4785261 130.349157,5.7814006 C122.655151,1.05008818 99.8219755,-5.6148014 86.8563237,8.50649784 C73.9506568,1.25066284 57.1853338,12.9838115 56.6450006,24.928782 C39.2381198,24.2483278 39.5108639,52.4815537 56.2846223,50.9411591 C59.3171424,56.4452463 63.9106769,58.8685443 63.9106769,58.8685443 C58.1315025,75.3320681 22.0439981,80.1960035 2.11728105,79.9729345 C37.7928576,82.8423705 68.6209009,71.8843398 75.9718683,61.7389175 C77.1828143,61.8982525 79.4580245,61.0982971 80.9918582,60.7632249 C84.292436,63.7938705 89.5064398,65.4031541 93.0778871,66.4777281 C85.9312434,72.0553906 50.3297108,80.3698661 26.9618262,81.1899727 C54.0768952,82.7898837 84.8233965,75.264585 96.2378752,67.3662551 C96.2378752,67.3662551 112.84855,68.7473147 118.131442,54.768011 C124.154306,50.6979389 129.944258,38.119846 123.328575,32.0449646 C121.122723,30.0195355 117.677806,29.4829514 114.408158,31.9681089 C116.599483,32.2061741 117.165122,34.0329031 117.349763,35.383033 C118.494164,43.6942281 104.027014,44.1131854 103.904232,35.6103197 C103.807225,28.9285593 108.901728,24.5651233 116.888629,24.2239589 C132.860558,23.5420988 135.211218,42.3089508 130.740934,52.727117 C127.032177,61.3710411 111.662441,79.5900618 63.4575094,82.6685079 C108.951403,83.1258931 136.715996,64.0502124 133.845623,38.489597 C132.922886,30.2932168 127.766055,22.4937682 116.015567,22.9956735 C106.937689,23.3837011 99.6991939,31.7750323 104.387392,39.8889332 C109.782288,46.6686377 123.398402,41.2639006 117.102794,31.8040876 C123.770027,30.3991277 125.538177,37.0579251 123.695046,43.5348931 C116.326739,65.3492613 75.0903708,53.7117137 79.934155,27.5620273 C81.9450565,16.7019408 88.7852146,3.5272789 106.099306,2.92555493 C131.61587,1.83739057 142.366765,21.1501992 143.959647,24.5862118 C148.898563,35.25041 145.775597,41.9045211 144.806934,46.0134897 C136.563691,50.4158222 138.59943,60.0771472 138.59943,60.0771472 C132.263989,70.6246559 122.098415,80.1008711 90.81533,83.5251679 C103.443098,84.7543906 117.218078,82.0639721 125.181079,80.2728592 C147.818366,75.179294 158.424922,62.6944589 154.377344,55.2596064 C153.938236,65.8853768 141.18628,62.5665223 140.964617,57.3501754 C140.510513,46.7464307 152.984569,45.7004433 157.780553,48.3327513 C171.455245,57.5498128 158.115625,80.9055129 134.517173,81.9130725 C154.544178,82.2003441 161.200163,82.5035493 179.655843,78.4700305 C168.912446,80.5493523 159.021491,80.0258899 155.285554,77.9910882 L155.285554,77.9910882 Z" id="Fill-39" fill="#3071AB"></path>
            <path d="M85.5558689,10.703915 C81.7041794,14.5682576 79.2841619,19.7096233 77.8670176,26.7573855 C77.8670176,26.7573855 69.5417635,35.418649 72.795478,47.3809589 C42.6089925,32.4981321 67.192978,1.45123749 85.5558689,10.703915" id="Fill-40" fill="#FFFFFE"></path>
            <path d="M56.4448946,28.0929878 C56.5114404,29.6900869 56.8024611,33.2048297 57.5302472,34.6463429 C54.430244,38.0687651 54.316835,43.3038573 55.8853476,48.354777 C42.2729831,48.299947 43.9024178,26.4719884 56.4448946,28.0929878" id="Fill-41" fill="#FFFFFE"></path>
            <path d="M77.4133814,31.0866114 C76.4044159,53.2121515 103.389674,61.3710411 116.103201,55.492048 C105.128769,76.7801421 63.226005,60.4895436 77.4133814,31.0866114" id="Fill-42" fill="#FFFFFE"></path>
            <path d="M58.4300213,37.9689464 C61.1134103,43.4716277 66.0326443,47.8613071 73.0710339,50.1515135 C74.2772936,53.6039282 76.3055345,56.472427 79.0624987,59.0016359 C72.6206782,60.228984 66.601564,58.0221942 62.0455201,53.9774282 C58.3447302,50.6923153 55.6182271,42.2733347 58.4300213,37.9689464" id="Fill-43" fill="#FFFFFE"></path>
            <path d="M10.4645609,74.8334433 C19.4037233,68.6287507 16.5366305,63.3922525 12.8775489,61.3237093 C14.3429624,59.2532914 15.9527146,58.4158454 19.1675326,59.3784163 C23.6888977,60.7322952 23.9194649,71.5427068 10.4645609,74.8334433" id="Fill-44" fill="#FFFFFE"></path>
        </g>
        <g id="Group-4" transform="translate(516.000000, 255.000000)">
            <g id="Group-48" fill="#3071AB">
                <path d="M146.191085,16.474771 C152.470759,12.826468 163.961625,11.4754009 172.659442,18.8408959 C177.954987,13.2290232 189.366186,11.700813 195.411543,16.821559 C203.753199,23.8880665 202.192654,30.8421023 200.660226,34.5930358 C207.989636,37.83316 211.209141,42.5954021 212.516625,48.0441907 C224.194944,46.2099636 229.467058,55.6871161 227.072346,64.0629824 C232.358519,63.6252798 234.579837,63.6777666 242.82308,64.902303 C200.318124,65.5410489 207.333551,77.7831324 188.527334,79.341335 C191.85931,80.0358482 215.323733,84.2647867 224.761989,84.761537 C206.447836,86.2799059 186.713726,80.2518877 170.185063,83.1934931 C158.506744,85.7644103 143.557371,88.9698557 140.464398,89.7337265 C132.029015,91.3177039 117.262409,92.0112798 98.9154517,88.2153576 C88.8070514,86.1205709 58.9457967,80.7177083 55.880941,79.9828927 C52.638005,79.2068375 17.734266,75.192064 0.257422791,83.2487917 C0.0715119197,82.1849962 17.0172585,69.5483243 27.4302698,67.7065991 C40.1536386,65.4562265 48.1953701,65.7561512 57.9616688,62.496813 C67.2124718,59.409463 74.6730991,47.7550445 76.5944918,46.0525031 C88.6664617,35.3564379 96.5863488,48.9149097 93.9057716,52.9751405 C103.943877,43.8714881 107.477365,30.08901 108.737986,22.2576945 C112.64638,-2.00668381 128.678294,-0.486440402 134.606493,1.216101 C142.929404,3.6047202 145.923965,13.2144956 146.191085,16.474771" id="Fill-47"></path>
            </g>
            <path d="M144.049435,17.4514009 C141.814059,18.6496939 136.495082,24.5853915 134.583061,30.1813306 C129.399987,30.6077861 124.151305,22.9597058 129.339065,19.221894 C123.298394,21.5528714 126.531957,31.3097974 133.102183,32.5015295 C133.102183,32.5015295 127.872246,47.4593375 112.41675,55.764909 C105.22793,59.6283143 77.1334191,71.1876004 60.7172271,67.7984511 C64.2038519,67.1329931 68.0325784,67.2876418 71.5988708,66.4942472 C77.2177729,65.2429987 91.0471142,63.1767986 102.097465,46.3200922 C115.214486,29.4455778 106.001173,2.23912547 130.974592,3.06860477 C138.885107,3.3310389 144.129103,12.8752058 144.049435,17.4514009" id="Fill-49" fill="#2E8AFF"></path>
            <path d="M175.73367,35.5752892 C170.124141,37.8781487 166.375082,40.8914548 160.985809,45.2867578 C153.393965,46.6584448 147.573551,33.9032089 158.558294,30.4751631 C151.158588,29.2824937 146.364479,45.1363269 158.539548,47.5493149 C154.467133,52.3565458 138.852302,64.983845 123.682673,69.0173639 C110.509417,72.5203908 97.2752384,76.266638 74.9823965,69.8548099 C106.816593,63.9669128 125.646242,54.8754448 135.379737,32.5282415 C148.000006,3.5583256 181.802459,18.8319918 175.73367,35.5752892" id="Fill-50" fill="#FDF4DC"></path>
            <path d="M198.476399,33.4233294 C192.276393,31.5919141 184.525213,31.9771299 178.10495,34.5517961 C179.688927,31.3932139 177.641004,24.1542497 174.163752,21.2070207 C176.155439,18.1131098 180.705859,16.2413921 184.84857,15.8992905 C194.150922,15.1274529 203.101801,25.904123 198.476399,33.4233294" id="Fill-51" fill="#FFFFFE"></path>
            <path d="M189.656738,74.5003626 C187.098005,74.3546179 178.873507,74.4431895 176.155439,63.6009109 C174.421499,56.6721813 178.836016,49.3268375 186.952729,47.5361932 C198.677911,44.9516857 200.538381,54.1659354 199.624548,58.0813588 C198.659166,62.2203199 191.938977,65.1384937 187.993093,60.6307189 C189.197478,67.129244 205.66522,65.1511468 200.566499,50.8222434 C198.490458,44.9755859 185.949856,41.0807823 176.947428,51.2908758 C171.839335,57.0822346 170.72399,74.0917152 187.510402,76.8889818 C156.233877,80.8283055 109.886136,78.1018024 100.02611,75.2881336 C150.08542,71.9692792 159.772051,44.5069536 177.284843,37.3326606 C180.846449,35.873808 184.56739,34.6609875 188.817886,34.4037083 C200.932033,33.6642064 211.504379,42.7284937 211.148218,55.0722704 C211.03106,59.0729849 208.041186,75.6733494 189.656738,74.5003626" id="Fill-52" fill="#2E8AFF"></path>
            <path d="M53.5096612,66.0096813 C76.6788457,61.0506136 73.7686386,44.2487371 86.1311606,44.782978 C90.2551255,44.961527 92.8091719,50.5302854 91.3751568,54.4011888 C90.8877792,55.7138281 86.5013802,59.0598632 84.9080301,59.9633864 C83.1178545,60.9784442 70.5210163,66.7037258 53.5096612,66.0096813" id="Fill-53" fill="#FFFFFE"></path>
            <g id="Group-57" transform="translate(9.833124, 49.675031)" fill="#FFFFFE">
                <path d="M215.575577,14.4034159 C207.618199,15.3781713 204.534598,15.8397742 198.798538,18.6970257 C202.364831,14.4868325 203.981612,9.56994166 203.259918,0.813077164 C207.051154,-0.789645546 210.476857,1.65239774 212.80596,3.64127353 C215.35532,5.80776098 216.939297,10.8165038 215.575577,14.4034159" id="Fill-54"></path>
                <path d="M67.3659034,22.9240897 C107.827622,34.3605941 154.32064,31.0033118 163.669856,30.2281939 C124.956136,38.7652698 115.447585,42.4393476 72.4037014,32.8276976 C65.3226662,31.0328356 29.6972334,22.2979969 0.257747804,28.4680107 C26.2949624,10.125271 64.3572836,22.0744592 67.3659034,22.9240897" id="Fill-56"></path>
            </g>
        </g>
        <g id="Group-3" transform="translate(365.000000, 248.000000)">
            <path d="M97.7988896,83.070336 C119.627785,82.6316961 136.910947,75.0220436 162.610747,78.9571496 C135.134831,76.4546528 105.475088,87.5139081 93.1875471,89.8261402 C70.9556274,94.01009 40.9819009,81.0622462 51.8635445,39.976309 C57.7261355,17.8488943 75.7778545,7.30372868 86.9875408,3.477814 C82.7651631,3.44032341 51.2402635,2.77111638 40.114931,37.5881584 C28.071079,75.2919759 54.9518319,100.608434 84.9396173,97.6180907 C103.052258,95.8119815 127.280552,86.6099163 152.919429,86.6895838 C176.786876,86.9281176 193.835721,96.1086258 194.13096,96.6269332 C194.13096,96.6269332 168.065627,79.6122977 108.54463,96.378558 C84.9958532,103.012049 52.5383752,108.708744 37.4765307,76.2212739 C29.8612547,59.7961779 35.5176474,40.2663924 35.9862798,38.9115762 C51.3011857,-5.34465902 89.4994103,2.3559081 89.4994103,2.3559081 C122.373971,-7.11890118 139.572779,14.4733353 143.176562,23.1285066 C174.781129,40.1051829 146.85064,80.0664025 124.360972,61.5507375 C114.791499,61.5507375 107.724523,53.9481145 107.724523,45.761107 C107.724523,44.3228742 106.923162,42.8321547 104.589373,42.0411032 C99.2329046,40.2279646 94.7340339,43.6967814 92.4096173,46.7677293 C86.4720452,54.6163843 91.3739398,62.1459006 91.9550439,62.8155762 C103.497459,83.7147055 134.717748,70.5180179 175.648099,77.6665361 C142.4783,73.7286183 107.41054,79.9984508 99.715596,74.1335166 C78.7161794,62.5484558 83.1119511,33.9820323 97.4005521,24.657654 C117.523626,11.5251691 138.912008,26.8920932 128.367779,41.4684345 C136.395452,41.4684345 138.701123,11.1910342 107.021575,11.1910342 C88.2434755,11.1910342 77.7507967,21.3922237 73.2753576,28.8444156 C56.3061794,57.0940436 74.1001506,83.070336 97.7988896,83.070336" id="Fill-74" fill="#3071AB"></path>
            <path d="M128.227189,34.4230154 C123.793927,27.2562205 115.152346,31.143526 111.473582,37.19357 C101.786951,53.1087939 122.627033,65.142336 132.674511,57.4099018 C142.754793,51.6508786 147.211487,35.5289878 141.550408,24.8254244 C140.941186,23.8295806 131.634147,1.09903608 99.6406148,3.23881149 C91.0927604,3.81288615 61.7235696,12.2089037 54.1457842,45.0276973 C46.5633124,77.853989 74.7281179,92.2185085 97.9957152,85.8108981 C71.3164743,85.8108981 55.3782873,58.9231158 67.6095922,33.166612 C85.731606,-4.98943569 137.084341,7.17579204 135.102026,33.7303767 C134.923946,36.1208705 132.201192,45.7690737 124.360972,42.900575 C128.367779,41.4684345 130.326662,37.8187255 128.227189,34.4230154" id="Fill-75" fill="#FFFFFE"></path>
            <path d="M129.469065,33.9937481 C130.312604,26.4721986 117.195583,16.1613491 100.362309,25.3020235 C98.0472647,26.5588956 86.86101,34.8241647 88.1216311,52.2685361 C90.8350125,40.6900361 101.121493,38.8248792 105.737522,40.6628554 C107.640169,41.4215712 108.286882,42.900575 108.286882,42.900575 C110.840928,30.247501 123.915772,25.528373 129.469065,33.9937481" id="Fill-76" fill="#FFFFFE"></path>
            <path d="M57.1637767,6.96771927 C47.7208344,14.0356327 33.5447051,18.8016239 27.9726662,58.7141057 C26.3605709,70.2752663 24.9640464,99.4630963 1.13686838e-13,97.3425348 C21.3087139,95.2758661 22.3397051,71.3784269 24.1720577,57.3241421 C29.4957215,16.477676 50.3404893,9.76404863 57.1637767,6.96771927" id="Fill-78" fill="#3071AB"></path>
        </g>
        <g id="Group" transform="translate(157.000000, 260.000000)">
            <path d="M144.01682,21.5119477 C160.546421,16.9062287 168.370238,35.1683636 159.178483,46.5430085 C161.017396,46.5430085 163.929947,49.3955738 165.144642,53.3845725 C170.797285,50.8347438 179.414029,55.3340832 177.92987,60.943144 C184.608819,59.9444884 188.172299,63.9517638 189.36778,69.2862061 C200.644481,68.2884878 206.48036,85.3734182 218.953479,85.4793291 C195.995648,97.5634834 146.452302,75.4946478 122.373034,82.3849495 C61.7301305,99.7388749 41.7214028,72.918107 -2.55795385e-13,85.8832902 C7.05526035,78.8280298 34.1637685,79.7395198 37.0744442,79.4916133 C47.2193977,78.6274552 103.649765,59.4969445 79.5339429,37.0775719 C74.0949956,32.0224345 67.8307867,39.4052689 72.1094003,44.3221597 C64.9491662,41.6223686 61.1429341,36.361033 61.1429341,31.0036277 C61.1429341,-7.96455987 123.419959,-4.96859312 126.90424,11.5535098 C138.670662,11.5521039 143.083304,18.7535775 144.01682,21.5119477" id="Fill-26" fill="#3071AB"></path>
            <path d="M215.856757,88.978607 C203.124952,101.697758 175.483141,91.7402576 160.344909,89.2925907 C137.263827,85.5589966 102.178728,93.2904935 78.2395803,93.2904935 C62.9110841,93.2904935 25.1566543,85.2197068 4.84472146,90.1895531 C10.8075997,86.7141754 27.8564454,84.3335229 38.219313,86.4203429 C86.2306995,96.0924464 109.309907,89.26541 117.752787,87.475703 C143.557092,79.8543347 193.136522,100.695354 215.856757,88.978607" id="Fill-27" fill="#3071AB"></path>
            <path d="M186.789365,100.014431 C180.259442,97.2284113 149.836297,93.5993222 119.906153,97.7701503 C116.705394,98.2167569 101.361902,100.881401 76.0351336,100.417923 C60.7792754,100.13815 43.3550552,94.9246145 27.183958,94.630782 C27.183958,94.630782 43.0823112,92.7974922 65.2687735,96.5151528 C87.23451,100.17564 119.790401,95.0600493 121.789587,94.7652795 C146.295779,91.1633711 174.345301,94.7038887 186.789365,100.014431" id="Fill-28" fill="#3071AB"></path>
            <path d="M103.350777,50.1369502 C106.166321,57.7634734 75.5205753,88.2737839 40.3478413,81.8971032 C72.7664228,73.1899138 94.0081223,57.1228529 86.2602233,43.0938743 C86.3797246,43.0104577 94.8254172,50.0366628 103.350777,50.1369502" id="Fill-29" fill="#FDF4DC"></path>
            <path d="M129.594659,48.0468498 C126.960476,62.5688297 90.468542,94.7038887 55.3079925,84.4534928 C64.0517353,84.4534928 99.4550364,73.4617206 105.369177,50.9444037 C113.785346,50.9444037 122.24416,48.5529728 125.017526,45.5607551 C127.139962,47.6841283 129.594659,48.0468498 129.594659,48.0468498" id="Fill-30" fill="#FDF4DC"></path>
            <path d="M150.317114,49.0825273 C148.242478,54.0987682 126.319856,89.2597864 74.8209072,87.4143122 C112.226206,81.3881685 127.400522,57.4986961 131.34172,48.1190192 C133.595842,49.0609702 137.569376,48.9419376 140.358676,47.9835844 C140.358676,47.9835844 144.661189,50.1950606 150.317114,49.0825273" id="Fill-31" fill="#FDF4DC"></path>
            <path d="M146.41528,67.9004602 C146.136444,68.5640436 129.217878,81.2049332 116.00104,81.8971032 C127.505027,76.4581559 138.120487,67.4646321 141.705056,63.8631923 C143.603955,64.8796559 144.3458,67.0527042 146.41528,67.9004602" id="Fill-32" fill="#FDF4DC"></path>
            <path d="M155.969757,69.1114063 C156.049425,69.6695474 155.340384,70.1053755 154.89284,70.4577871 C148.819833,75.2448667 140.456151,78.6138649 130.400238,79.6097086 C136.76942,76.4225399 142.398632,72.4968065 148.030188,68.5729477 C150.276811,69.5772268 153.306988,69.839661 155.969757,69.1114063" id="Fill-33" fill="#FDF4DC"></path>
            <path d="M166.062693,73.9561277 C160.787298,78.0501001 150.5205,80.1936246 141.323121,79.6757858 C145.621417,77.4910217 154.061955,73.6046534 157.853659,70.726782 C157.900991,70.5491704 162.387678,73.7738297 166.062693,73.9561277" id="Fill-34" fill="#FDF4DC"></path>
            <path d="M181.000349,80.6852199 C173.515822,85.4329345 156.633809,81.42191 153.502408,81.1786898 C157.526554,80.0445995 165.498459,78.0191704 169.023043,74.4950549 C169.902198,77.5467889 176.650972,80.7737915 181.000349,80.6852199" id="Fill-35" fill="#FDF4DC"></path>
            <path d="M193.680604,86.5346892 C189.626465,88.5751145 177.671654,85.2698504 173.846208,84.5214445 C178.430838,84.0050117 181.890282,81.7321447 182.548242,81.627171 C184.005689,83.0850863 188.848067,85.6827155 193.680604,86.5346892" id="Fill-36" fill="#FDF4DC"></path>
            <path d="M85.1833061,39.90858 C82.9933871,37.7181923 79.5751826,32.6705531 74.2829172,32.507469 C72.6047447,32.4563881 67.047702,34.247501 69.2587095,40.9184828 C56.0414021,28.5606472 67.8645282,1.3710656 104.293666,2.76665281 C121.389843,3.42180086 125.6708,13.8174728 126.497467,14.2064376 C135.401951,12.7325888 141.085993,18.4808335 143.140009,24.0509979 C148.210142,22.3020618 154.482787,23.7637262 157.180235,26.8548253 C161.327162,31.6076948 162.907859,42.6894445 154.758343,47.5796233 C154.291585,47.6888147 163.279485,48.6809094 163.639863,55.9236227 C174.073963,51.9486829 177.547466,60.0204069 175.617169,63.056676 C184.149559,61.2079213 187.508247,67.1459621 187.864408,71.9377281 C196.404764,68.2884878 205.999543,84.4056923 212.98404,85.5749301 C208.383476,86.4948554 204.344802,86.956927 199.324812,86.5173498 C194.701754,86.1129201 183.993504,82.7411101 183.557208,79.7432689 C177.666967,80.6725669 171.325434,77.3077864 169.695531,72.0722256 C162.442508,76.1263642 157.069169,67.9234232 156.642245,68.0349577 C149.291277,71.0112419 141.886417,63.8172664 142.916003,62.7858065 C145.66828,60.0344659 150.925398,53.3105286 152.470948,46.6390782 C149.645095,47.6611654 145.472861,49.5989602 141.031632,46.3682086 C140.063906,45.6652601 130.545514,49.3398065 125.668457,43.384895 C116.546059,50.1538209 101.361902,51.9486829 85.1833061,39.90858" id="Fill-37" fill="#FFFFFE"></path>
        </g>
        <g id="Group-2" transform="translate(340.000000, 308.000000)" fill-rule="nonzero">
            <path d="M4.99992691,0 C7.02223394,0 8.84540635,1.21822325 9.61928371,3.0866021 C10.3931611,4.95498096 9.96533747,7.10556054 8.53531061,8.53550771 C7.10528375,9.96545487 4.95468034,10.3931586 3.08634463,9.61917712 C1.21800891,8.84519563 -0.000112707297,7.02195531 0,4.99964829 C0.00322492766,2.23964692 2.23992539,0.00307110288 4.99992691,0 Z" id="Path" stroke="#3071AB" fill="#FFFFFF"></path>
            <path d="M4.57596101,2.15192206 C6.38227419,2.15391729 7.8460827,3.6177258 7.84807793,5.42403897 C7.84807793,5.74213346 8.10594447,6 8.42403897,6 C8.74213346,6 9,5.74213346 9,5.42403897 C8.99727929,2.98183756 7.01816243,1.00272071 4.57596101,1 C4.25786652,1 4,1.25786655 4,1.57596103 C4,1.89405552 4.25786652,2.15192205 4.57596101,2.15192206 L4.57596101,2.15192206 Z" id="Path" fill="#2E8AFF"></path>
        </g>
        <g id="Group-2" transform="translate(306.000000, 248.000000)" fill-rule="nonzero">
            <path d="M6.49990499,0 C9.12890412,0 11.4990283,1.58369022 12.5050688,4.01258274 C13.5111094,6.44147525 12.9549387,9.2372287 11.0959038,11.09616 C9.23686888,12.9550913 6.44108445,13.5111062 4.01224802,12.5049303 C1.58341159,11.4987543 -0.000146519485,9.12854191 0,6.49954277 C0.00419240596,2.911541 2.91190301,0.00399243375 6.49990499,0 Z" id="Path" stroke="#3071AB" fill="#FFFFFF"></path>
            <path d="M5.69115321,3.38230648 C7.85872903,3.38470075 9.61529924,5.14127096 9.61769352,7.30884676 C9.61769352,7.69056015 9.92713336,8 10.3088468,8 C10.6905602,8 11,7.69056015 11,7.30884676 C10.9967351,4.37820507 8.62179492,2.00326486 5.69115321,2 C5.30943983,2 5,2.30943986 5,2.69115324 C5,3.07286662 5.30943983,3.38230646 5.69115321,3.38230648 L5.69115321,3.38230648 Z" id="Path" fill="#2E8AFF"></path>
        </g>
        <g id="Group-2" transform="translate(267.000000, 212.000000)" fill-rule="nonzero">
            <path d="M6.49990499,0 C9.12890412,0 11.4990283,1.58369022 12.5050688,4.01258274 C13.5111094,6.44147525 12.9549387,9.2372287 11.0959038,11.09616 C9.23686888,12.9550913 6.44108445,13.5111062 4.01224802,12.5049303 C1.58341159,11.4987543 -0.000146519485,9.12854191 0,6.49954277 C0.00419240596,2.911541 2.91190301,0.00399243375 6.49990499,0 Z" id="Path" stroke="#3071AB" fill="#FFFFFE"></path>
            <path d="M5.69115321,3.38230648 C7.85872903,3.38470075 9.61529924,5.14127096 9.61769352,7.30884676 C9.61769352,7.69056015 9.92713336,8 10.3088468,8 C10.6905602,8 11,7.69056015 11,7.30884676 C10.9967351,4.37820507 8.62179492,2.00326486 5.69115321,2 C5.30943983,2 5,2.30943986 5,2.69115324 C5,3.07286662 5.30943983,3.38230646 5.69115321,3.38230648 L5.69115321,3.38230648 Z" id="Path" fill="#2E8AFF"></path>
        </g>
        <g id="Group-2" transform="translate(187.000000, 279.000000)" fill-rule="nonzero">
            <path d="M6.49990499,0 C9.12890412,0 11.4990283,1.58369022 12.5050688,4.01258274 C13.5111094,6.44147525 12.9549387,9.2372287 11.0959038,11.09616 C9.23686888,12.9550913 6.44108445,13.5111062 4.01224802,12.5049303 C1.58341159,11.4987543 -0.000146519485,9.12854191 0,6.49954277 C0.00419240596,2.911541 2.91190301,0.00399243375 6.49990499,0 Z" id="Path" stroke="#3071AB" fill="#FFFFFF"></path>
            <path d="M5.69115321,3.38230648 C7.85872903,3.38470075 9.61529924,5.14127096 9.61769352,7.30884676 C9.61769352,7.69056015 9.92713336,8 10.3088468,8 C10.6905602,8 11,7.69056015 11,7.30884676 C10.9967351,4.37820507 8.62179492,2.00326486 5.69115321,2 C5.30943983,2 5,2.30943986 5,2.69115324 C5,3.07286662 5.30943983,3.38230646 5.69115321,3.38230648 L5.69115321,3.38230648 Z" id="Path" fill="#2E8AFF"></path>
        </g>
        <g id="Group-2" transform="translate(213.000000, 188.000000)" fill-rule="nonzero">
            <path d="M6.49990499,0 C9.12890412,0 11.4990283,1.58369022 12.5050688,4.01258274 C13.5111094,6.44147525 12.9549387,9.2372287 11.0959038,11.09616 C9.23686888,12.9550913 6.44108445,13.5111062 4.01224802,12.5049303 C1.58341159,11.4987543 -0.000146519485,9.12854191 0,6.49954277 C0.00419240596,2.911541 2.91190301,0.00399243375 6.49990499,0 Z" id="Path" stroke="#3071AB" fill="#FFFFFE"></path>
            <path d="M5.69115321,3.38230648 C7.85872903,3.38470075 9.61529924,5.14127096 9.61769352,7.30884676 C9.61769352,7.69056015 9.92713336,8 10.3088468,8 C10.6905602,8 11,7.69056015 11,7.30884676 C10.9967351,4.37820507 8.62179492,2.00326486 5.69115321,2 C5.30943983,2 5,2.30943986 5,2.69115324 C5,3.07286662 5.30943983,3.38230646 5.69115321,3.38230648 L5.69115321,3.38230648 Z" id="Path" fill="#2E8AFF"></path>
        </g>
        <g id="Group-2" transform="translate(194.000000, 219.000000)" fill-rule="nonzero">
            <path d="M6.49990499,0 C9.12890412,0 11.4990283,1.58369022 12.5050688,4.01258274 C13.5111094,6.44147525 12.9549387,9.2372287 11.0959038,11.09616 C9.23686888,12.9550913 6.44108445,13.5111062 4.01224802,12.5049303 C1.58341159,11.4987543 -0.000146519485,9.12854191 0,6.49954277 C0.00419240596,2.911541 2.91190301,0.00399243375 6.49990499,0 Z" id="Path" stroke="#3071AB" fill="#FFFFFE"></path>
            <path d="M5.69115321,3.38230648 C7.85872903,3.38470075 9.61529924,5.14127096 9.61769352,7.30884676 C9.61769352,7.69056015 9.92713336,8 10.3088468,8 C10.6905602,8 11,7.69056015 11,7.30884676 C10.9967351,4.37820507 8.62179492,2.00326486 5.69115321,2 C5.30943983,2 5,2.30943986 5,2.69115324 C5,3.07286662 5.30943983,3.38230646 5.69115321,3.38230648 L5.69115321,3.38230648 Z" id="Path" fill="#2E8AFF"></path>
        </g>
        <g id="Group-2" transform="translate(239.000000, 226.000000)" fill-rule="nonzero">
            <path d="M6.49990499,0 C9.12890412,0 11.4990283,1.58369022 12.5050688,4.01258274 C13.5111094,6.44147525 12.9549387,9.2372287 11.0959038,11.09616 C9.23686888,12.9550913 6.44108445,13.5111062 4.01224802,12.5049303 C1.58341159,11.4987543 -0.000146519485,9.12854191 0,6.49954277 C0.00419240596,2.911541 2.91190301,0.00399243375 6.49990499,0 Z" id="Path" stroke="#3071AB" fill="#FFFFFE"></path>
            <path d="M5.69115321,3.38230648 C7.85872903,3.38470075 9.61529924,5.14127096 9.61769352,7.30884676 C9.61769352,7.69056015 9.92713336,8 10.3088468,8 C10.6905602,8 11,7.69056015 11,7.30884676 C10.9967351,4.37820507 8.62179492,2.00326486 5.69115321,2 C5.30943983,2 5,2.30943986 5,2.69115324 C5,3.07286662 5.30943983,3.38230646 5.69115321,3.38230648 L5.69115321,3.38230648 Z" id="Path" fill="#2E8AFF"></path>
        </g>
        <g id="Group-2" transform="translate(267.000000, 212.000000)" fill-rule="nonzero">
            <path d="M6.49990499,0 C9.12890412,0 11.4990283,1.58369022 12.5050688,4.01258274 C13.5111094,6.44147525 12.9549387,9.2372287 11.0959038,11.09616 C9.23686888,12.9550913 6.44108445,13.5111062 4.01224802,12.5049303 C1.58341159,11.4987543 -0.000146519485,9.12854191 0,6.49954277 C0.00419240596,2.911541 2.91190301,0.00399243375 6.49990499,0 Z" id="Path" stroke="#3071AB" fill="#FFFFFF"></path>
            <path d="M5.69115321,3.38230648 C7.85872903,3.38470075 9.61529924,5.14127096 9.61769352,7.30884676 C9.61769352,7.69056015 9.92713336,8 10.3088468,8 C10.6905602,8 11,7.69056015 11,7.30884676 C10.9967351,4.37820507 8.62179492,2.00326486 5.69115321,2 C5.30943983,2 5,2.30943986 5,2.69115324 C5,3.07286662 5.30943983,3.38230646 5.69115321,3.38230648 L5.69115321,3.38230648 Z" id="Path" fill="#2E8AFF"></path>
        </g>
        <g id="Group-2" transform="translate(213.000000, 188.000000)" fill-rule="nonzero">
            <path d="M6.49990499,0 C9.12890412,0 11.4990283,1.58369022 12.5050688,4.01258274 C13.5111094,6.44147525 12.9549387,9.2372287 11.0959038,11.09616 C9.23686888,12.9550913 6.44108445,13.5111062 4.01224802,12.5049303 C1.58341159,11.4987543 -0.000146519485,9.12854191 0,6.49954277 C0.00419240596,2.911541 2.91190301,0.00399243375 6.49990499,0 Z" id="Path" stroke="#3071AB" fill="#FFFFFF"></path>
            <path d="M5.69115321,3.38230648 C7.85872903,3.38470075 9.61529924,5.14127096 9.61769352,7.30884676 C9.61769352,7.69056015 9.92713336,8 10.3088468,8 C10.6905602,8 11,7.69056015 11,7.30884676 C10.9967351,4.37820507 8.62179492,2.00326486 5.69115321,2 C5.30943983,2 5,2.30943986 5,2.69115324 C5,3.07286662 5.30943983,3.38230646 5.69115321,3.38230648 L5.69115321,3.38230648 Z" id="Path" fill="#2E8AFF"></path>
        </g>
        <g id="Group-2" transform="translate(194.000000, 219.000000)" fill-rule="nonzero">
            <path d="M6.49990499,0 C9.12890412,0 11.4990283,1.58369022 12.5050688,4.01258274 C13.5111094,6.44147525 12.9549387,9.2372287 11.0959038,11.09616 C9.23686888,12.9550913 6.44108445,13.5111062 4.01224802,12.5049303 C1.58341159,11.4987543 -0.000146519485,9.12854191 0,6.49954277 C0.00419240596,2.911541 2.91190301,0.00399243375 6.49990499,0 Z" id="Path" stroke="#3071AB" fill="#FFFFFF"></path>
            <path d="M5.69115321,3.38230648 C7.85872903,3.38470075 9.61529924,5.14127096 9.61769352,7.30884676 C9.61769352,7.69056015 9.92713336,8 10.3088468,8 C10.6905602,8 11,7.69056015 11,7.30884676 C10.9967351,4.37820507 8.62179492,2.00326486 5.69115321,2 C5.30943983,2 5,2.30943986 5,2.69115324 C5,3.07286662 5.30943983,3.38230646 5.69115321,3.38230648 L5.69115321,3.38230648 Z" id="Path" fill="#2E8AFF"></path>
        </g>
        <g id="Group-2" transform="translate(239.000000, 226.000000)" fill-rule="nonzero">
            <path d="M6.49990499,0 C9.12890412,0 11.4990283,1.58369022 12.5050688,4.01258274 C13.5111094,6.44147525 12.9549387,9.2372287 11.0959038,11.09616 C9.23686888,12.9550913 6.44108445,13.5111062 4.01224802,12.5049303 C1.58341159,11.4987543 -0.000146519485,9.12854191 0,6.49954277 C0.00419240596,2.911541 2.91190301,0.00399243375 6.49990499,0 Z" id="Path" stroke="#3071AB" fill="#FFFFFF"></path>
            <path d="M5.69115321,3.38230648 C7.85872903,3.38470075 9.61529924,5.14127096 9.61769352,7.30884676 C9.61769352,7.69056015 9.92713336,8 10.3088468,8 C10.6905602,8 11,7.69056015 11,7.30884676 C10.9967351,4.37820507 8.62179492,2.00326486 5.69115321,2 C5.30943983,2 5,2.30943986 5,2.69115324 C5,3.07286662 5.30943983,3.38230646 5.69115321,3.38230648 L5.69115321,3.38230648 Z" id="Path" fill="#2E8AFF"></path>
        </g>
        <g id="Group-2" transform="translate(723.000000, 304.000000)" fill-rule="nonzero">
            <path d="M9.99985383,0 C14.0444679,0 17.6908127,2.43644649 19.2385674,6.17320421 C20.7863221,9.90996193 19.9306749,14.2111211 17.0706212,17.0710154 C14.2105675,19.9309097 9.90936069,20.7863172 6.17268926,19.2383542 C2.43601783,17.6903913 -0.000225414593,14.0439106 0,9.99929657 C0.00644985533,4.47929385 4.47985079,0.00614220577 9.99985383,0 Z" id="Path" stroke="#3071AB" stroke-width="2" fill="#FFFFFF"></path>
            <path d="M9.03672982,5.07345972 C12.2880935,5.07705112 14.9229489,7.71190644 14.9265403,10.9632701 C14.9265403,11.5358402 15.3907,12 15.9632701,12 C16.5358402,12 17,11.5358402 17,10.9632701 C16.9951027,6.5673076 13.4326924,3.00489729 9.03672982,3 C8.46415974,3 8,3.46415978 8,4.03672986 C8,4.60929993 8.46415974,5.07345969 9.03672982,5.07345972 L9.03672982,5.07345972 Z" id="Path" fill="#2E8AFF"></path>
        </g>
        <g id="Group-2" transform="translate(703.000000, 219.000000)" fill-rule="nonzero">
            <path d="M6.49990499,0 C9.12890412,0 11.4990283,1.58369022 12.5050688,4.01258274 C13.5111094,6.44147525 12.9549387,9.2372287 11.0959038,11.09616 C9.23686888,12.9550913 6.44108445,13.5111062 4.01224802,12.5049303 C1.58341159,11.4987543 -0.000146519485,9.12854191 0,6.49954277 C0.00419240596,2.911541 2.91190301,0.00399243375 6.49990499,0 Z" id="Path" stroke="#3071AB" fill="#FFFFFF"></path>
            <path d="M5.69115321,3.38230648 C7.85872903,3.38470075 9.61529924,5.14127096 9.61769352,7.30884676 C9.61769352,7.69056015 9.92713336,8 10.3088468,8 C10.6905602,8 11,7.69056015 11,7.30884676 C10.9967351,4.37820507 8.62179492,2.00326486 5.69115321,2 C5.30943983,2 5,2.30943986 5,2.69115324 C5,3.07286662 5.30943983,3.38230646 5.69115321,3.38230648 L5.69115321,3.38230648 Z" id="Path" fill="#2E8AFF"></path>
        </g>
        <g id="Group-2" transform="translate(727.000000, 200.000000)" fill-rule="nonzero">
            <path d="M6.49990499,0 C9.12890412,0 11.4990283,1.58369022 12.5050688,4.01258274 C13.5111094,6.44147525 12.9549387,9.2372287 11.0959038,11.09616 C9.23686888,12.9550913 6.44108445,13.5111062 4.01224802,12.5049303 C1.58341159,11.4987543 -0.000146519485,9.12854191 0,6.49954277 C0.00419240596,2.911541 2.91190301,0.00399243375 6.49990499,0 Z" id="Path" stroke="#3071AB" fill="#FFFFFF"></path>
            <path d="M5.69115321,3.38230648 C7.85872903,3.38470075 9.61529924,5.14127096 9.61769352,7.30884676 C9.61769352,7.69056015 9.92713336,8 10.3088468,8 C10.6905602,8 11,7.69056015 11,7.30884676 C10.9967351,4.37820507 8.62179492,2.00326486 5.69115321,2 C5.30943983,2 5,2.30943986 5,2.69115324 C5,3.07286662 5.30943983,3.38230646 5.69115321,3.38230648 L5.69115321,3.38230648 Z" id="Path" fill="#2E8AFF"></path>
        </g>
        <g id="Group-2" transform="translate(718.000000, 248.000000)" fill-rule="nonzero">
            <path d="M6.49990499,0 C9.12890412,0 11.4990283,1.58369022 12.5050688,4.01258274 C13.5111094,6.44147525 12.9549387,9.2372287 11.0959038,11.09616 C9.23686888,12.9550913 6.44108445,13.5111062 4.01224802,12.5049303 C1.58341159,11.4987543 -0.000146519485,9.12854191 0,6.49954277 C0.00419240596,2.911541 2.91190301,0.00399243375 6.49990499,0 Z" id="Path" stroke="#3071AB" fill="#FFFFFF"></path>
            <path d="M5.69115321,3.38230648 C7.85872903,3.38470075 9.61529924,5.14127096 9.61769352,7.30884676 C9.61769352,7.69056015 9.92713336,8 10.3088468,8 C10.6905602,8 11,7.69056015 11,7.30884676 C10.9967351,4.37820507 8.62179492,2.00326486 5.69115321,2 C5.30943983,2 5,2.30943986 5,2.69115324 C5,3.07286662 5.30943983,3.38230646 5.69115321,3.38230648 L5.69115321,3.38230648 Z" id="Path" fill="#2E8AFF"></path>
        </g>
        <g id="Group-2" transform="translate(672.000000, 253.000000)" fill-rule="nonzero">
            <path d="M3.99994153,0 C5.61778715,0 7.07632508,0.974578597 7.69542697,2.46928168 C8.31452885,3.96398477 7.97226997,5.68444843 6.82824849,6.82840617 C5.684227,7.9723639 3.96374428,8.31452689 2.4690757,7.6953417 C0.974407132,7.07615651 -9.01658372e-05,5.61756425 0,3.99971863 C0.00257994213,1.79171754 1.79194031,0.00245688231 3.99994153,0 Z" id="Path" stroke="#3071AB" fill="#FFFFFF"></path>
            <path d="M3.46076881,1.92153765 C4.90581935,1.92313383 6.07686616,3.09418064 6.07846234,4.53923117 C6.07846234,4.79370677 6.28475558,5 6.53923117,5 C6.79370677,5 7,4.79370677 7,4.53923117 C6.99782343,2.58547005 5.41452995,1.00217657 3.46076881,1 C3.20629322,1 3,1.20629324 3,1.46076883 C3,1.71524441 3.20629322,1.92153764 3.46076881,1.92153765 L3.46076881,1.92153765 Z" id="Path" fill="#2E8AFF"></path>
        </g>
        <g id="Group-2" transform="translate(206.000000, 250.000000)" fill-rule="nonzero">
            <path d="M6.49990499,0 C9.12890412,0 11.4990283,1.58369022 12.5050688,4.01258274 C13.5111094,6.44147525 12.9549387,9.2372287 11.0959038,11.09616 C9.23686888,12.9550913 6.44108445,13.5111062 4.01224802,12.5049303 C1.58341159,11.4987543 -0.000146519485,9.12854191 0,6.49954277 C0.00419240596,2.911541 2.91190301,0.00399243375 6.49990499,0 Z" id="Path" stroke="#3071AB" fill="#FFFFFF"></path>
            <path d="M5.69115321,3.38230648 C7.85872903,3.38470075 9.61529924,5.14127096 9.61769352,7.30884676 C9.61769352,7.69056015 9.92713336,8 10.3088468,8 C10.6905602,8 11,7.69056015 11,7.30884676 C10.9967351,4.37820507 8.62179492,2.00326486 5.69115321,2 C5.30943983,2 5,2.30943986 5,2.69115324 C5,3.07286662 5.30943983,3.38230646 5.69115321,3.38230648 L5.69115321,3.38230648 Z" id="Path" fill="#2E8AFF"></path>
        </g>
        <g id="Group-2" transform="translate(29.000000, 322.000000)" fill-rule="nonzero">
            <path d="M6.49990499,0 C9.12890412,0 11.4990283,1.58369022 12.5050688,4.01258274 C13.5111094,6.44147525 12.9549387,9.2372287 11.0959038,11.09616 C9.23686888,12.9550913 6.44108445,13.5111062 4.01224802,12.5049303 C1.58341159,11.4987543 -0.000146519485,9.12854191 0,6.49954277 C0.00419240596,2.911541 2.91190301,0.00399243375 6.49990499,0 Z" id="Path" stroke="#3071AB" fill="#FFFFFF"></path>
            <path d="M5.69115321,3.38230648 C7.85872903,3.38470075 9.61529924,5.14127096 9.61769352,7.30884676 C9.61769352,7.69056015 9.92713336,8 10.3088468,8 C10.6905602,8 11,7.69056015 11,7.30884676 C10.9967351,4.37820507 8.62179492,2.00326486 5.69115321,2 C5.30943983,2 5,2.30943986 5,2.69115324 C5,3.07286662 5.30943983,3.38230646 5.69115321,3.38230648 L5.69115321,3.38230648 Z" id="Path" fill="#2E8AFF"></path>
        </g>
    </g>
</svg>