<?xml version="1.0" encoding="UTF-8"?>
<svg width="1415px" height="457px" viewBox="0 0 1415 457" version="1.1" xmlns="http://www.w3.org/2000/svg" xmlns:xlink="http://www.w3.org/1999/xlink">
    <title>stat1</title>
    <g id="stat1" stroke="none" stroke-width="1" fill="none" fill-rule="evenodd">
        <rect fill="#FFFFFF" x="0" y="0" width="1415" height="457"></rect>
        <path d="M214.986929,337.529 C259.509929,337.529 296.175929,309.593 296.175929,262.742 C296.175929,222.584 264.747929,195.521 228.663929,195.521 C224.007929,195.521 217.896929,196.394 214.113929,197.849 L214.986929,196.394 L265.620929,125.972 L206.547929,125.972 L156.786929,200.177 C143.109929,220.547 133.797929,239.462 133.797929,263.906 C133.797929,309.011 170.172929,337.529 214.986929,337.529 Z M214.986929,296.789 C195.489929,296.789 182.685929,281.948 182.685929,264.197 C182.685929,244.991 196.071929,231.605 215.277929,231.605 C234.483929,231.605 247.287929,245.282 247.287929,263.906 C247.287929,283.403 234.192929,296.789 214.986929,296.789 Z M432.488643,332 L482.249643,257.795 C495.926643,237.425 505.238643,218.51 505.238643,194.066 C505.238643,148.961 469.154643,120.443 424.049643,120.443 C379.526643,120.443 342.860643,148.379 342.860643,195.23 C342.860643,235.388 374.579643,262.451 410.663643,262.451 C415.319643,262.451 421.139643,261.578 425.213643,260.123 L424.631643,260.996 L373.415643,332 L432.488643,332 Z M423.758643,226.076 C404.552643,226.076 391.748643,212.399 391.748643,193.775 C391.748643,174.278 404.843643,160.601 424.340643,160.601 C443.837643,160.601 456.350643,175.733 456.350643,193.484 C456.350643,212.69 442.964643,226.076 423.758643,226.076 Z M624.964357,341.894 L746.311357,129.755 L719.248357,116.66 L599.065357,329.09 L624.964357,341.894 Z M602.557357,232.478 C633.112357,232.478 657.847357,207.743 657.847357,177.479 C657.847357,146.633 633.112357,122.48 602.557357,122.48 C572.002357,122.48 547.267357,146.633 547.267357,177.479 C547.267357,207.743 572.002357,232.478 602.557357,232.478 Z M602.557357,199.886 C590.044357,199.886 579.859357,189.992 579.859357,177.479 C579.859357,164.966 590.044357,154.781 602.557357,154.781 C615.070357,154.781 625.255357,164.966 625.255357,177.479 C625.255357,189.992 615.070357,199.886 602.557357,199.886 Z M742.237357,335.492 C772.792357,335.492 797.527357,311.048 797.527357,280.493 C797.527357,249.938 772.792357,225.494 742.237357,225.494 C711.682357,225.494 686.947357,249.938 686.947357,280.493 C686.947357,311.048 711.682357,335.492 742.237357,335.492 Z M742.237357,302.9 C729.724357,302.9 719.539357,293.006 719.539357,280.493 C719.539357,267.98 729.724357,257.795 742.237357,257.795 C754.459357,257.795 764.935357,267.98 764.935357,280.493 C764.935357,293.006 754.459357,302.9 742.237357,302.9 Z" id="69%" fill="#065FD4" fill-rule="nonzero"></path>
        <path d="M914.545,278.688 C921.038,278.688 926.456,274.216 926.456,267.207 C926.456,260.198 921.038,255.898 914.545,255.898 C908.095,255.898 902.677,260.198 902.677,267.207 C902.677,274.216 908.095,278.688 914.545,278.688 Z M914.588,272.754 C911.277,272.754 909.514,269.959 909.514,267.207 C909.514,264.455 911.234,261.746 914.545,261.746 C917.856,261.746 919.662,264.455 919.662,267.207 C919.662,269.959 917.899,272.754 914.588,272.754 Z M942.212429,278 L942.212429,261.875 L946.985429,261.875 L946.985429,256.586 L942.212429,256.586 L942.212429,254.436 C942.212429,252.458 942.771429,250.394 945.351429,250.394 C946.039429,250.394 946.770429,250.523 947.286429,250.695 L947.759429,245.105 C946.813429,244.804 945.566429,244.675 944.362429,244.675 C937.224429,244.675 935.160429,249.276 935.160429,254.522 L935.160429,256.586 L931.247429,256.586 L931.247429,261.875 L935.160429,261.875 L935.160429,278 L942.212429,278 Z M980.820286,278 L989.248286,256.586 L981.723286,256.586 L977.208286,270.475 L977.079286,270.475 L972.564286,256.586 L964.781286,256.586 L973.209286,278 L980.820286,278 Z M998.640714,253.619 C1000.87671,253.619 1002.68271,251.942 1002.68271,249.749 C1002.68271,247.599 1000.87671,245.879 998.640714,245.879 C996.361714,245.879 994.598714,247.685 994.598714,249.749 C994.598714,251.856 996.361714,253.619 998.640714,253.619 Z M1002.16671,278 L1002.16671,256.586 L995.114714,256.586 L995.114714,278 L1002.16671,278 Z M1017.88014,278.688 C1022.26614,278.688 1027.03914,276.796 1027.03914,271.378 C1027.03914,267.207 1023.47014,265.573 1020.20214,264.842 C1017.45014,264.24 1016.28914,263.896 1016.28914,262.692 C1016.28914,261.445 1017.62214,260.972 1018.95514,260.972 C1020.67514,260.972 1022.30914,261.832 1023.42714,262.907 L1027.29714,258.908 C1025.19014,256.93 1021.87914,255.898 1018.69714,255.898 C1014.61214,255.898 1009.79614,257.962 1009.79614,263.079 C1009.79614,267.121 1013.06414,268.626 1016.03114,269.314 C1018.95514,270.002 1020.28814,270.432 1020.28814,271.765 C1020.28814,273.141 1018.91214,273.614 1017.75114,273.614 C1015.68714,273.614 1013.75214,272.582 1012.50514,271.206 L1008.54914,275.377 C1010.78514,277.527 1014.39714,278.688 1017.88014,278.688 Z M1037.80757,253.619 C1040.04357,253.619 1041.84957,251.942 1041.84957,249.749 C1041.84957,247.599 1040.04357,245.879 1037.80757,245.879 C1035.52857,245.879 1033.76557,247.685 1033.76557,249.749 C1033.76557,251.856 1035.52857,253.619 1037.80757,253.619 Z M1041.33357,278 L1041.33357,256.586 L1034.28157,256.586 L1034.28157,278 L1041.33357,278 Z M1058.38,278.516 C1059.885,278.516 1061.519,278.215 1062.465,277.871 L1062.379,272.711 C1061.863,272.926 1061.003,273.055 1060.315,273.055 C1058.294,273.055 1057.649,272.023 1057.649,270.045 L1057.649,261.875 L1062.68,261.875 L1062.68,256.586 L1057.649,256.586 L1057.649,250.953 L1050.726,250.953 L1050.726,256.586 L1047.329,256.586 L1047.329,261.875 L1050.769,261.875 L1050.769,270.905 C1050.769,275.463 1052.661,278.516 1058.38,278.516 Z M1079.85543,278.688 C1086.34843,278.688 1091.76643,274.216 1091.76643,267.207 C1091.76643,260.198 1086.34843,255.898 1079.85543,255.898 C1073.40543,255.898 1067.98743,260.198 1067.98743,267.207 C1067.98743,274.216 1073.40543,278.688 1079.85543,278.688 Z M1079.89843,272.754 C1076.58743,272.754 1074.82443,269.959 1074.82443,267.207 C1074.82443,264.455 1076.54443,261.746 1079.85543,261.746 C1083.16643,261.746 1084.97243,264.455 1084.97243,267.207 C1084.97243,269.959 1083.20943,272.754 1079.89843,272.754 Z M1106.36186,278 L1106.36186,266.992 C1106.36186,265.229 1107.60886,262.133 1111.39286,262.133 C1111.95186,262.133 1112.55386,262.176 1113.19886,262.348 L1113.49986,256.156 C1113.15586,256.027 1112.55386,255.984 1111.99486,255.984 C1109.37186,255.984 1107.26486,257.532 1106.18986,259.682 L1106.10386,259.682 L1106.10386,256.586 L1099.30986,256.586 L1099.30986,278 L1106.36186,278 Z M1126.46129,278.688 C1130.84729,278.688 1135.62029,276.796 1135.62029,271.378 C1135.62029,267.207 1132.05129,265.573 1128.78329,264.842 C1126.03129,264.24 1124.87029,263.896 1124.87029,262.692 C1124.87029,261.445 1126.20329,260.972 1127.53629,260.972 C1129.25629,260.972 1130.89029,261.832 1132.00829,262.907 L1135.87829,258.908 C1133.77129,256.93 1130.46029,255.898 1127.27829,255.898 C1123.19329,255.898 1118.37729,257.962 1118.37729,263.079 C1118.37729,267.121 1121.64529,268.626 1124.61229,269.314 C1127.53629,270.002 1128.86929,270.432 1128.86929,271.765 C1128.86929,273.141 1127.49329,273.614 1126.33229,273.614 C1124.26829,273.614 1122.33329,272.582 1121.08629,271.206 L1117.13029,275.377 C1119.36629,277.527 1122.97829,278.688 1126.46129,278.688 Z M1167.52014,278.688 C1170.65914,278.688 1173.66914,277.656 1175.43214,275.936 L1171.51914,271.163 C1170.65914,272.195 1169.11114,272.754 1167.69214,272.754 C1164.59614,272.754 1162.66114,270.26 1162.66114,267.293 C1162.66114,264.326 1164.63914,261.789 1167.60614,261.789 C1169.02514,261.789 1170.57314,262.477 1171.34714,263.509 L1175.43214,258.779 C1173.75514,257.059 1170.53014,255.898 1167.47714,255.898 C1160.81214,255.898 1155.52314,260.327 1155.52314,267.293 C1155.52314,274.388 1160.76914,278.688 1167.52014,278.688 Z M1192.09157,278.688 C1198.58457,278.688 1204.00257,274.216 1204.00257,267.207 C1204.00257,260.198 1198.58457,255.898 1192.09157,255.898 C1185.64157,255.898 1180.22357,260.198 1180.22357,267.207 C1180.22357,274.216 1185.64157,278.688 1192.09157,278.688 Z M1192.13457,272.754 C1188.82357,272.754 1187.06057,269.959 1187.06057,267.207 C1187.06057,264.455 1188.78057,261.746 1192.09157,261.746 C1195.40257,261.746 1197.20857,264.455 1197.20857,267.207 C1197.20857,269.959 1195.44557,272.754 1192.13457,272.754 Z M1218.641,278 L1218.641,266.39 C1218.641,263.81 1219.931,261.789 1222.167,261.789 C1224.274,261.789 1225.22,263.337 1225.22,265.788 L1225.22,278 L1232.272,278 L1232.272,266.433 C1232.272,264.025 1233.433,261.789 1235.841,261.789 C1238.335,261.789 1238.894,263.853 1238.894,266.304 L1238.894,278 L1245.946,278 L1245.946,264.756 C1245.946,260.714 1243.968,255.984 1238.163,255.984 C1234.981,255.984 1232.745,257.403 1231.326,259.639 C1230.122,257.317 1227.972,255.984 1224.876,255.984 C1221.651,255.984 1219.458,257.747 1218.469,259.553 L1218.383,259.553 L1218.383,256.586 L1211.546,256.586 L1211.546,278 L1218.641,278 Z M1265.05643,278.688 C1269.39943,278.688 1272.75343,277.054 1274.77443,274.13 L1269.87243,271.034 C1268.92643,272.324 1267.37843,273.27 1265.14243,273.27 C1262.60543,273.27 1260.24043,271.593 1260.02543,269.228 L1275.54843,269.228 C1275.59143,268.712 1275.59143,268.11 1275.59143,267.551 C1275.59143,260.241 1271.16243,255.898 1264.84143,255.898 C1258.34843,255.898 1253.27443,260.37 1253.27443,267.379 C1253.27443,274.603 1258.60643,278.688 1265.05643,278.688 Z M1269.09843,264.842 L1260.02543,264.842 C1260.19743,262.649 1262.17543,260.757 1264.88443,260.757 C1267.67943,260.757 1269.09843,262.606 1269.09843,264.842 Z M915.491,330 L919.619,316.67 L919.705,316.67 L923.919,330 L931.014,330 L938.453,308.586 L931.143,308.586 L927.402,322.131 L927.316,322.131 L923.36,308.586 L916.265,308.586 L912.438,322.131 L912.309,322.131 L908.611,308.586 L901,308.586 L908.396,330 L915.491,330 Z M947.888429,305.619 C950.124429,305.619 951.930429,303.942 951.930429,301.749 C951.930429,299.599 950.124429,297.879 947.888429,297.879 C945.609429,297.879 943.846429,299.685 943.846429,301.749 C943.846429,303.856 945.609429,305.619 947.888429,305.619 Z M951.414429,330 L951.414429,308.586 L944.362429,308.586 L944.362429,330 L951.414429,330 Z M968.460857,330.516 C969.965857,330.516 971.599857,330.215 972.545857,329.871 L972.459857,324.711 C971.943857,324.926 971.083857,325.055 970.395857,325.055 C968.374857,325.055 967.729857,324.023 967.729857,322.045 L967.729857,313.875 L972.760857,313.875 L972.760857,308.586 L967.729857,308.586 L967.729857,302.953 L960.806857,302.953 L960.806857,308.586 L957.409857,308.586 L957.409857,313.875 L960.849857,313.875 L960.849857,322.905 C960.849857,327.463 962.741857,330.516 968.460857,330.516 Z M986.281286,330 L986.281286,318.433 C986.281286,315.896 987.657286,313.875 990.108286,313.875 C992.645286,313.875 993.247286,315.982 993.247286,318.39 L993.247286,330 L1000.34229,330 L1000.34229,316.756 C1000.34229,312.456 998.321286,307.984 992.516286,307.984 C989.549286,307.984 987.313286,309.575 986.367286,311.295 L986.281286,311.295 L986.281286,297.492 L979.229286,297.492 L979.229286,330 L986.281286,330 Z M1033.48914,330.688 C1036.62814,330.688 1039.63814,329.656 1041.40114,327.936 L1037.48814,323.163 C1036.62814,324.195 1035.08014,324.754 1033.66114,324.754 C1030.56514,324.754 1028.63014,322.26 1028.63014,319.293 C1028.63014,316.326 1030.60814,313.789 1033.57514,313.789 C1034.99414,313.789 1036.54214,314.477 1037.31614,315.509 L1041.40114,310.779 C1039.72414,309.059 1036.49914,307.898 1033.44614,307.898 C1026.78114,307.898 1021.49214,312.327 1021.49214,319.293 C1021.49214,326.388 1026.73814,330.688 1033.48914,330.688 Z M1054.40557,330 L1054.40557,318.433 C1054.40557,315.896 1055.78157,313.875 1058.23257,313.875 C1060.76957,313.875 1061.37157,315.982 1061.37157,318.39 L1061.37157,330 L1068.46657,330 L1068.46657,316.756 C1068.46657,312.456 1066.44557,307.984 1060.64057,307.984 C1057.67357,307.984 1055.43757,309.575 1054.49157,311.295 L1054.40557,311.295 L1054.40557,297.492 L1047.35357,297.492 L1047.35357,330 L1054.40557,330 Z M1080.482,305.619 C1082.718,305.619 1084.524,303.942 1084.524,301.749 C1084.524,299.599 1082.718,297.879 1080.482,297.879 C1078.203,297.879 1076.44,299.685 1076.44,301.749 C1076.44,303.856 1078.203,305.619 1080.482,305.619 Z M1084.008,330 L1084.008,308.586 L1076.956,308.586 L1076.956,330 L1084.008,330 Z M1099.89343,330 L1099.89343,297.492 L1092.75543,297.492 L1092.75543,330 L1099.89343,330 Z M1117.67086,330.602 C1120.50886,330.602 1123.30386,329.355 1124.67986,327.205 L1124.76586,327.205 L1124.76586,330 L1131.25886,330 L1131.25886,297.492 L1124.20686,297.492 L1124.20686,310.865 L1124.12086,310.865 C1122.91686,309.446 1120.72386,307.984 1117.58486,307.984 C1111.34986,307.984 1107.47986,313.23 1107.47986,319.207 C1107.47986,325.184 1111.22086,330.602 1117.67086,330.602 Z M1119.34786,324.754 C1115.99386,324.754 1114.27386,322.002 1114.27386,319.207 C1114.27386,316.455 1115.99386,313.746 1119.34786,313.746 C1122.52986,313.746 1124.50786,316.541 1124.50786,319.25 C1124.50786,322.045 1122.52986,324.754 1119.34786,324.754 Z M1146.97229,330 L1146.97229,318.992 C1146.97229,317.229 1148.21929,314.133 1152.00329,314.133 C1152.56229,314.133 1153.16429,314.176 1153.80929,314.348 L1154.11029,308.156 C1153.76629,308.027 1153.16429,307.984 1152.60529,307.984 C1149.98229,307.984 1147.87529,309.532 1146.80029,311.682 L1146.71429,311.682 L1146.71429,308.586 L1139.92029,308.586 L1139.92029,330 L1146.97229,330 Z M1169.95271,330.688 C1174.29571,330.688 1177.64971,329.054 1179.67071,326.13 L1174.76871,323.034 C1173.82271,324.324 1172.27471,325.27 1170.03871,325.27 C1167.50171,325.27 1165.13671,323.593 1164.92171,321.228 L1180.44471,321.228 C1180.48771,320.712 1180.48771,320.11 1180.48771,319.551 C1180.48771,312.241 1176.05871,307.898 1169.73771,307.898 C1163.24471,307.898 1158.17071,312.37 1158.17071,319.379 C1158.17071,326.603 1163.50271,330.688 1169.95271,330.688 Z M1173.99471,316.842 L1164.92171,316.842 C1165.09371,314.649 1167.07171,312.757 1169.78071,312.757 C1172.57571,312.757 1173.99471,314.606 1173.99471,316.842 Z M1195.04014,330 L1195.04014,318.39 C1195.04014,315.939 1196.33014,313.789 1198.82414,313.789 C1201.36114,313.789 1202.00614,315.939 1202.00614,318.304 L1202.00614,330 L1209.10114,330 L1209.10114,316.756 C1209.10114,312.456 1207.03714,307.984 1201.27514,307.984 C1198.30814,307.984 1195.85714,309.661 1194.86814,311.553 L1194.78214,311.553 L1194.78214,308.586 L1187.94514,308.586 L1187.94514,330 L1195.04014,330 Z" id="ofvisitorscomewithchildren" fill="#565656" fill-rule="nonzero"></path>
    </g>
</svg>