<?xml version="1.0" encoding="UTF-8"?>
<svg width="1415px" height="457px" viewBox="0 0 1415 457" version="1.1" xmlns="http://www.w3.org/2000/svg" xmlns:xlink="http://www.w3.org/1999/xlink">
    <title>stat2</title>
    <g id="stat2" stroke="none" stroke-width="1" fill="none" fill-rule="evenodd">
        <rect fill="#FFFFFF" x="0" y="0" width="1415" height="457"></rect>
        <path d="M847.847,272 L847.847,260.39 C847.847,257.81 849.137,255.789 851.373,255.789 C853.48,255.789 854.426,257.337 854.426,259.788 L854.426,272 L861.478,272 L861.478,260.433 C861.478,258.025 862.639,255.789 865.047,255.789 C867.541,255.789 868.1,257.853 868.1,260.304 L868.1,272 L875.152,272 L875.152,258.756 C875.152,254.714 873.174,249.984 867.369,249.984 C864.187,249.984 861.951,251.403 860.532,253.639 C859.328,251.317 857.178,249.984 854.082,249.984 C850.857,249.984 848.664,251.747 847.675,253.553 L847.589,253.553 L847.589,250.586 L840.752,250.586 L840.752,272 L847.847,272 Z M887.167429,247.619 C889.403429,247.619 891.209429,245.942 891.209429,243.749 C891.209429,241.599 889.403429,239.879 887.167429,239.879 C884.888429,239.879 883.125429,241.685 883.125429,243.749 C883.125429,245.856 884.888429,247.619 887.167429,247.619 Z M890.693429,272 L890.693429,250.586 L883.641429,250.586 L883.641429,272 L890.693429,272 Z M906.449857,272 L906.449857,260.39 C906.449857,257.939 907.739857,255.789 910.233857,255.789 C912.770857,255.789 913.415857,257.939 913.415857,260.304 L913.415857,272 L920.510857,272 L920.510857,258.756 C920.510857,254.456 918.446857,249.984 912.684857,249.984 C909.717857,249.984 907.266857,251.661 906.277857,253.553 L906.191857,253.553 L906.191857,250.586 L899.354857,250.586 L899.354857,272 L906.449857,272 Z M936.482286,272.602 C939.492286,272.602 941.943286,270.925 942.932286,269.033 L943.018286,269.033 L943.018286,272 L949.812286,272 L949.812286,250.586 L942.760286,250.586 L942.760286,262.153 C942.760286,264.604 941.427286,266.754 938.976286,266.754 C936.396286,266.754 935.794286,264.604 935.794286,262.196 L935.794286,250.586 L928.699286,250.586 L928.699286,263.83 C928.699286,268.13 930.720286,272.602 936.482286,272.602 Z M966.772714,272.516 C968.277714,272.516 969.911714,272.215 970.857714,271.871 L970.771714,266.711 C970.255714,266.926 969.395714,267.055 968.707714,267.055 C966.686714,267.055 966.041714,266.023 966.041714,264.045 L966.041714,255.875 L971.072714,255.875 L971.072714,250.586 L966.041714,250.586 L966.041714,244.953 L959.118714,244.953 L959.118714,250.586 L955.721714,250.586 L955.721714,255.875 L959.161714,255.875 L959.161714,264.905 C959.161714,269.463 961.053714,272.516 966.772714,272.516 Z M988.162143,272.688 C992.505143,272.688 995.859143,271.054 997.880143,268.13 L992.978143,265.034 C992.032143,266.324 990.484143,267.27 988.248143,267.27 C985.711143,267.27 983.346143,265.593 983.131143,263.228 L998.654143,263.228 C998.697143,262.712 998.697143,262.11 998.697143,261.551 C998.697143,254.241 994.268143,249.898 987.947143,249.898 C981.454143,249.898 976.380143,254.37 976.380143,261.379 C976.380143,268.603 981.712143,272.688 988.162143,272.688 Z M992.204143,258.842 L983.131143,258.842 C983.303143,256.649 985.281143,254.757 987.990143,254.757 C990.785143,254.757 992.204143,256.606 992.204143,258.842 Z M1013.20657,272.688 C1017.59257,272.688 1022.36557,270.796 1022.36557,265.378 C1022.36557,261.207 1018.79657,259.573 1015.52857,258.842 C1012.77657,258.24 1011.61557,257.896 1011.61557,256.692 C1011.61557,255.445 1012.94857,254.972 1014.28157,254.972 C1016.00157,254.972 1017.63557,255.832 1018.75357,256.907 L1022.62357,252.908 C1020.51657,250.93 1017.20557,249.898 1014.02357,249.898 C1009.93857,249.898 1005.12257,251.962 1005.12257,257.079 C1005.12257,261.121 1008.39057,262.626 1011.35757,263.314 C1014.28157,264.002 1015.61457,264.432 1015.61457,265.765 C1015.61457,267.141 1014.23857,267.614 1013.07757,267.614 C1011.01357,267.614 1009.07857,266.582 1007.83157,265.206 L1003.87557,269.377 C1006.11157,271.527 1009.72357,272.688 1013.20657,272.688 Z M1050.39543,272.688 C1054.78143,272.688 1059.55443,270.796 1059.55443,265.378 C1059.55443,261.207 1055.98543,259.573 1052.71743,258.842 C1049.96543,258.24 1048.80443,257.896 1048.80443,256.692 C1048.80443,255.445 1050.13743,254.972 1051.47043,254.972 C1053.19043,254.972 1054.82443,255.832 1055.94243,256.907 L1059.81243,252.908 C1057.70543,250.93 1054.39443,249.898 1051.21243,249.898 C1047.12743,249.898 1042.31143,251.962 1042.31143,257.079 C1042.31143,261.121 1045.57943,262.626 1048.54643,263.314 C1051.47043,264.002 1052.80343,264.432 1052.80343,265.765 C1052.80343,267.141 1051.42743,267.614 1050.26643,267.614 C1048.20243,267.614 1046.26743,266.582 1045.02043,265.206 L1041.06443,269.377 C1043.30043,271.527 1046.91243,272.688 1050.39543,272.688 Z M1073.76286,282.32 L1073.76286,269.635 L1073.84886,269.635 C1075.18186,271.484 1077.71886,272.602 1080.34186,272.602 C1086.79186,272.602 1090.53286,267.184 1090.53286,261.207 C1090.53286,255.23 1086.61986,249.984 1080.38486,249.984 C1077.24586,249.984 1074.83786,251.489 1073.54786,253.209 L1073.41886,253.209 L1073.41886,250.586 L1066.71086,250.586 L1066.71086,282.32 L1073.76286,282.32 Z M1078.66486,266.754 C1075.48286,266.754 1073.50486,264.045 1073.50486,261.25 C1073.50486,258.541 1075.48286,255.746 1078.66486,255.746 C1082.01886,255.746 1083.69586,258.455 1083.69586,261.207 C1083.69586,264.002 1082.01886,266.754 1078.66486,266.754 Z M1108.74029,272.688 C1113.08329,272.688 1116.43729,271.054 1118.45829,268.13 L1113.55629,265.034 C1112.61029,266.324 1111.06229,267.27 1108.82629,267.27 C1106.28929,267.27 1103.92429,265.593 1103.70929,263.228 L1119.23229,263.228 C1119.27529,262.712 1119.27529,262.11 1119.27529,261.551 C1119.27529,254.241 1114.84629,249.898 1108.52529,249.898 C1102.03229,249.898 1096.95829,254.37 1096.95829,261.379 C1096.95829,268.603 1102.29029,272.688 1108.74029,272.688 Z M1112.78229,258.842 L1103.70929,258.842 C1103.88129,256.649 1105.85929,254.757 1108.56829,254.757 C1111.36329,254.757 1112.78229,256.606 1112.78229,258.842 Z M1133.82771,272 L1133.82771,260.39 C1133.82771,257.939 1135.11771,255.789 1137.61171,255.789 C1140.14871,255.789 1140.79371,257.939 1140.79371,260.304 L1140.79371,272 L1147.88871,272 L1147.88871,258.756 C1147.88871,254.456 1145.82471,249.984 1140.06271,249.984 C1137.09571,249.984 1134.64471,251.661 1133.65571,253.553 L1133.56971,253.553 L1133.56971,250.586 L1126.73271,250.586 L1126.73271,272 L1133.82771,272 Z M1164.67714,272.516 C1166.18214,272.516 1167.81614,272.215 1168.76214,271.871 L1168.67614,266.711 C1168.16014,266.926 1167.30014,267.055 1166.61214,267.055 C1164.59114,267.055 1163.94614,266.023 1163.94614,264.045 L1163.94614,255.875 L1168.97714,255.875 L1168.97714,250.586 L1163.94614,250.586 L1163.94614,244.953 L1157.02314,244.953 L1157.02314,250.586 L1153.62614,250.586 L1153.62614,255.875 L1157.06614,255.875 L1157.06614,264.905 C1157.06614,269.463 1158.95814,272.516 1164.67714,272.516 Z M847.804,334.32 L847.804,321.635 L847.89,321.635 C849.223,323.484 851.76,324.602 854.383,324.602 C860.833,324.602 864.574,319.184 864.574,313.207 C864.574,307.23 860.661,301.984 854.426,301.984 C851.287,301.984 848.879,303.489 847.589,305.209 L847.46,305.209 L847.46,302.586 L840.752,302.586 L840.752,334.32 L847.804,334.32 Z M852.706,318.754 C849.524,318.754 847.546,316.045 847.546,313.25 C847.546,310.541 849.524,307.746 852.706,307.746 C856.06,307.746 857.737,310.455 857.737,313.207 C857.737,316.002 856.06,318.754 852.706,318.754 Z M882.781429,324.688 C887.124429,324.688 890.478429,323.054 892.499429,320.13 L887.597429,317.034 C886.651429,318.324 885.103429,319.27 882.867429,319.27 C880.330429,319.27 877.965429,317.593 877.750429,315.228 L893.273429,315.228 C893.316429,314.712 893.316429,314.11 893.316429,313.551 C893.316429,306.241 888.887429,301.898 882.566429,301.898 C876.073429,301.898 870.999429,306.37 870.999429,313.379 C870.999429,320.603 876.331429,324.688 882.781429,324.688 Z M886.823429,310.842 L877.750429,310.842 C877.922429,308.649 879.900429,306.757 882.609429,306.757 C885.404429,306.757 886.823429,308.606 886.823429,310.842 Z M907.825857,324 L907.825857,312.992 C907.825857,311.229 909.072857,308.133 912.856857,308.133 C913.415857,308.133 914.017857,308.176 914.662857,308.348 L914.963857,302.156 C914.619857,302.027 914.017857,301.984 913.458857,301.984 C910.835857,301.984 908.728857,303.532 907.653857,305.682 L907.567857,305.682 L907.567857,302.586 L900.773857,302.586 L900.773857,324 L907.825857,324 Z M945.401714,324.688 C949.744714,324.688 953.098714,323.054 955.119714,320.13 L950.217714,317.034 C949.271714,318.324 947.723714,319.27 945.487714,319.27 C942.950714,319.27 940.585714,317.593 940.370714,315.228 L955.893714,315.228 C955.936714,314.712 955.936714,314.11 955.936714,313.551 C955.936714,306.241 951.507714,301.898 945.186714,301.898 C938.693714,301.898 933.619714,306.37 933.619714,313.379 C933.619714,320.603 938.951714,324.688 945.401714,324.688 Z M949.443714,310.842 L940.370714,310.842 C940.542714,308.649 942.520714,306.757 945.229714,306.757 C948.024714,306.757 949.443714,308.606 949.443714,310.842 Z M967.737143,324 L972.467143,317.421 L977.068143,324 L985.367143,324 L976.896143,312.777 L984.593143,302.586 L976.638143,302.586 L972.596143,308.305 L968.597143,302.586 L960.384143,302.586 L968.124143,312.777 L959.567143,324 L967.737143,324 Z M998.199571,324 L998.199571,312.433 C998.199571,309.896 999.575571,307.875 1002.02657,307.875 C1004.56357,307.875 1005.16557,309.982 1005.16557,312.39 L1005.16557,324 L1012.26057,324 L1012.26057,310.756 C1012.26057,306.456 1010.23957,301.984 1004.43457,301.984 C1001.46757,301.984 999.231571,303.575 998.285571,305.295 L998.199571,305.295 L998.199571,291.492 L991.147571,291.492 L991.147571,324 L998.199571,324 Z M1024.276,299.619 C1026.512,299.619 1028.318,297.942 1028.318,295.749 C1028.318,293.599 1026.512,291.879 1024.276,291.879 C1021.997,291.879 1020.234,293.685 1020.234,295.749 C1020.234,297.856 1021.997,299.619 1024.276,299.619 Z M1027.802,324 L1027.802,302.586 L1020.75,302.586 L1020.75,324 L1027.802,324 Z M1050.13743,324.602 C1056.58743,324.602 1060.32843,319.184 1060.32843,313.207 C1060.32843,307.23 1056.45843,301.984 1050.22343,301.984 C1047.08443,301.984 1044.89143,303.446 1043.68743,304.865 L1043.60143,304.865 L1043.60143,291.492 L1036.54943,291.492 L1036.54943,324 L1043.04243,324 L1043.04243,321.205 L1043.12843,321.205 C1044.50443,323.355 1047.29943,324.602 1050.13743,324.602 Z M1048.46043,318.754 C1045.27843,318.754 1043.30043,316.045 1043.30043,313.25 C1043.30043,310.541 1045.27843,307.746 1048.46043,307.746 C1051.81443,307.746 1053.53443,310.455 1053.53443,313.207 C1053.53443,316.002 1051.81443,318.754 1048.46043,318.754 Z M1071.48386,299.619 C1073.71986,299.619 1075.52586,297.942 1075.52586,295.749 C1075.52586,293.599 1073.71986,291.879 1071.48386,291.879 C1069.20486,291.879 1067.44186,293.685 1067.44186,295.749 C1067.44186,297.856 1069.20486,299.619 1071.48386,299.619 Z M1075.00986,324 L1075.00986,302.586 L1067.95786,302.586 L1067.95786,324 L1075.00986,324 Z M1092.05629,324.516 C1093.56129,324.516 1095.19529,324.215 1096.14129,323.871 L1096.05529,318.711 C1095.53929,318.926 1094.67929,319.055 1093.99129,319.055 C1091.97029,319.055 1091.32529,318.023 1091.32529,316.045 L1091.32529,307.875 L1096.35629,307.875 L1096.35629,302.586 L1091.32529,302.586 L1091.32529,296.953 L1084.40229,296.953 L1084.40229,302.586 L1081.00529,302.586 L1081.00529,307.875 L1084.44529,307.875 L1084.44529,316.905 C1084.44529,321.463 1086.33729,324.516 1092.05629,324.516 Z" id="minutesspentperexhibit" fill="#565656" fill-rule="nonzero"></path>
        <path d="M379.267429,332 L379.267429,291.842 L407.494429,291.842 L407.494429,252.266 L378.976429,252.266 L378.976429,125.972 L320.485429,125.972 L236.677429,250.811 L236.677429,291.842 L333.580429,291.842 L333.580429,332 L379.267429,332 Z M333.871429,252.266 L284.110429,252.266 L332.998429,176.024 L333.871429,176.024 L333.871429,252.266 Z M522.564143,274.673 L522.564143,236.843 L448.650143,236.843 L448.650143,274.673 L522.564143,274.673 Z M647.527857,337.529 C692.050857,337.529 728.716857,309.593 728.716857,262.742 C728.716857,222.584 697.288857,195.521 661.204857,195.521 C656.548857,195.521 650.437857,196.394 646.654857,197.849 L647.527857,196.394 L698.161857,125.972 L639.088857,125.972 L589.327857,200.177 C575.650857,220.547 566.338857,239.462 566.338857,263.906 C566.338857,309.011 602.713857,337.529 647.527857,337.529 Z M647.527857,296.789 C628.030857,296.789 615.226857,281.948 615.226857,264.197 C615.226857,244.991 628.612857,231.605 647.818857,231.605 C667.024857,231.605 679.828857,245.282 679.828857,263.906 C679.828857,283.403 666.733857,296.789 647.527857,296.789 Z" id="4-6" fill="#065FD4" fill-rule="nonzero"></path>
    </g>
</svg>