<?xml version="1.0" encoding="UTF-8"?>
<svg width="689px" height="398px" viewBox="0 0 689 398" version="1.1" xmlns="http://www.w3.org/2000/svg" xmlns:xlink="http://www.w3.org/1999/xlink">
    <title>userData2</title>
    <g id="userData2" stroke="none" stroke-width="1" fill="none" fill-rule="evenodd">
        <rect fill="#FFFFFF" x="0" y="0" width="689" height="398"></rect>
        <text id="Parents" font-family="AvenirNextforINTUIT-Demi, AvenirNext forINTUIT" font-size="43" font-weight="400" letter-spacing="3.07142857" fill="#065FD4">
            <tspan x="367" y="130">Parents</tspan>
        </text>
        <text id="Revisits-exhibits" font-family="AvenirNextforINTUIT-Regular, AvenirNext forINTUIT" font-size="20" font-weight="normal" letter-spacing="1.42857143" fill="#000000">
            <tspan x="381" y="176">Revisits exhibits</tspan>
        </text>
        <text id="Asks-attendants-abou" font-family="AvenirNextforINTUIT-Regular, AvenirNext forINTUIT" font-size="20" font-weight="normal" letter-spacing="1.42857143" fill="#000000">
            <tspan x="381" y="216">Asks attendants about</tspan>
            <tspan x="381" y="240">exhibit related details</tspan>
        </text>
        <text id="Spends-more-time-at" font-family="AvenirNextforINTUIT-Regular, AvenirNext forINTUIT" font-size="20" font-weight="normal" letter-spacing="1.42857143" fill="#000000">
            <tspan x="381" y="280">Spends more time at</tspan>
            <tspan x="381" y="304">each exhibit</tspan>
        </text>
        <circle id="Oval" fill="#666666" cx="370" cy="169" r="3"></circle>
        <circle id="Oval" fill="#666666" cx="370" cy="209" r="3"></circle>
        <circle id="Oval" fill="#666666" cx="370" cy="274" r="3"></circle>
        <g id="Group" transform="translate(77.000000, 110.000000)">
            <g id="Group-21" transform="translate(109.000000, 0.000000)">
                <path d="M36.9255303,115.944954 L15.6708009,115.944954 C12.4533129,115.944954 9.820911,113.320232 9.820911,110.112722 L6.89596604,60.6966606 C6.89596604,60.6966606 2.16288211,19.764153 26.7122377,14.3855769 C26.7122377,14.3855769 36.6941157,-4.97797451 68.6613529,1.22569393 C69.0460736,1.30017471 69.4943485,1.44816898 70.6650057,1.83072934 C116.337131,16.6644952 103.160567,64.948836 101.266072,110.113206 C101.266072,113.320716 98.6336699,115.944954 95.416182,115.944954 L72.8044993,115.944954" id="Path" fill="#7A4600" fill-rule="nonzero"></path>
                <path d="M0,178 L0,144.872347 C0,121.681076 19.1626758,102.880734 42.8009063,102.880734 L68.1986602,102.880734 C91.8368906,102.880734 111,121.681076 111,144.872347 L111,178 L0,178 Z" id="Path" fill="#8BC673" fill-rule="nonzero"></path>
                <polygon id="Path" fill="#8FF58B" fill-rule="nonzero" points="68.5588235 106.146789 40.8088235 106.146789 44.3875023 178 64.9801447 178"></polygon>
                <path d="M54.6837175,119.211009 C68.916127,119.211009 68.5733856,103.503141 68.5552578,102.909025 C68.0666511,102.892383 67.5772013,102.880734 67.0843788,102.880734 L42.3905581,102.880734 C41.8619017,102.880734 41.3361963,102.893631 40.8121772,102.913186 C40.7927847,103.588014 40.4905146,119.211009 54.6837175,119.211009 Z" id="Path" fill="#E2AE84" fill-rule="nonzero"></path>
                <g id="Group-18" transform="translate(21.220588, 29.394495)" fill="#F0C69E" fill-rule="nonzero">
                    <path d="M34.2767953,72.3909511 C60.5492399,72.3909511 68.5535906,53.0628654 68.5535906,34.0022861 L68.5535906,25.5924215 C68.5535906,24.7494104 68.077839,23.9830758 67.3295569,23.6044316 C57.1115919,18.4369504 50.6709753,7.07159319 47.9225682,1.26959213 C47.2119355,-0.231200191 45.1835734,-0.448306772 44.1773073,0.869840326 C31.2203475,17.8360304 8.33036037,23.309787 1.79048627,24.5650421 C0.749565578,24.764918 -2.99778302e-13,25.6828825 -2.99778302e-13,26.7498924 L-2.99778302e-13,34.0027169 C-2.99778302e-13,53.0628654 7.86188188,72.3909511 34.2767953,72.3909511 L34.2767953,72.3909511 Z" id="Path"></path>
                    <path d="M34.2767953,68.5140479 C15.346414,68.5140479 -3.13404588e-13,53.0628654 -3.13404588e-13,34.0022861 L-3.13404588e-13,42.014122 C-3.13404588e-13,61.0747013 15.346414,76.5258838 34.2767953,76.5258838 C53.2071767,76.5258838 68.5535906,61.0747013 68.5535906,42.014122 L68.5535906,34.0022861 C68.5535906,53.0628654 53.2071767,68.5140479 34.2767953,68.5140479 Z" id="Path"></path>
                </g>
                <g id="Group-19" transform="translate(37.544118, 60.422018)" fill="#5E6B75">
                    <rect id="Rectangle" x="8.82744858e-13" y="0" width="5.33823529" height="9.79816514" rx="2.66911765"></rect>
                    <rect id="Rectangle" x="30.5735294" y="0" width="5.33823529" height="9.79816514" rx="2.66911765"></rect>
                </g>
            </g>
            <g id="Group-20" transform="translate(0.000000, 1.000000)">
                <path d="M109,177 L0,177 L0,143.753443 C0,120.478932 18.8174023,101.611111 42.0297188,101.611111 L66.9698555,101.611111 C90.1821719,101.611111 109,120.478932 109,143.753443 L109,177 Z" id="Path" fill="#DC4955" fill-rule="nonzero"></path>
                <polygon id="Path" fill="#E68B8B" fill-rule="nonzero" points="68.3283582 104.888889 40.6716418 104.888889 44.2382906 177 64.7617094 177"></polygon>
                <path d="M54.49993,118 C68.6844596,118 68.3428713,102.235752 68.3248045,101.639504 C67.8378415,101.622802 67.3500383,101.611111 66.8588737,101.611111 L42.2481266,101.611111 C41.7212486,101.611111 41.1973118,101.624055 40.6750555,101.643679 C40.6553081,102.32093 40.3540549,118 54.49993,118 Z" id="Path" fill="#E2AE84" fill-rule="nonzero"></path>
                <path d="M19.9121304,55.7222222 C20.3230352,55.7222222 20.7295312,55.7432651 21.1298548,55.7832036 L21.1298548,55.7832036 L24.4029851,68.5845614 L21.1474902,70.6167001 L21.1473284,70.6172222 L24.4025442,73.587608 L22.3131901,78.4274652 C21.5381143,78.5837836 20.7348218,78.6666667 19.9121304,78.6666667 C13.407313,78.6666667 8.13432836,73.5304917 8.13432836,67.1944444 C8.13432836,65.7901558 8.39445051,64.4447013 8.86884278,63.2010255 L8.86884278,63.2010255 L8.97868743,62.9240011 C10.7176147,58.7029815 14.9571645,55.7222222 19.9121304,55.7222222 Z" id="Combined-Shape" fill="#F0C69E" fill-rule="nonzero"></path>
                <path d="M87.8507463,70.4223086 C87.8507463,89.4579346 72.5547529,104.888889 53.6865672,104.888889 C34.8183815,104.888889 19.5223881,89.4579346 19.5223881,70.4223086 L19.5223881,70.4223086 L19.5223881,62.4209615 L19.5223881,62.4209615 L20.1294231,24.7485922 C20.1294231,23.519502 77.3329473,20.9469762 85.595854,25.7127659 C86.2836834,26.1094132 87.8507463,48.0160415 87.8507463,48.8153589 L87.8507463,48.8153589 Z" id="Combined-Shape" fill="#F0C69E" fill-rule="nonzero"></path>
                <g id="Group-19" transform="translate(35.791045, 57.361111)" fill="#5E6B75">
                    <rect id="Rectangle" x="0" y="0" width="5.32029044" height="9.83333333" rx="2.66014522"></rect>
                    <rect id="Rectangle" x="30.4707543" y="0" width="5.32029044" height="9.83333333" rx="2.66014522"></rect>
                </g>
                <path d="M44.8568849,4.42142001 C49.6109407,-1.4696871 59.3790948,-1.47315211 64.1431151,4.42142001 C64.1399007,4.42142001 64.1399007,4.42430753 64.1399007,4.42430753 L64.1463294,4.42430753 C64.1463294,4.42430753 64.1463294,4.42142001 64.1431151,4.42142001 C69.566403,-2.28916372 81.2538584,-1.13444666 84.7150939,6.35316722 C90.0380934,6.35316722 94.358209,10.2339867 94.358209,15.0157108 L94.358209,50.1423248 C94.358209,54.1299824 90.761327,57.3611111 86.3222797,57.3611111 L86.3222797,39.625997 C86.3222797,27.9214569 71.136945,21.3607352 60.7326667,29.1529818 C57.1283917,31.8510754 51.93686,31.8603154 48.325192,29.1962945 C37.6817644,21.3491851 22.6777203,28.0563038 22.6777203,39.625997 L22.6777203,57.3611111 C18.0763472,57.3611111 14.641791,54.0976422 14.641791,50.2895881 L14.641791,15.0157108 C14.641791,10.2310992 18.9586922,6.35316722 24.2849061,6.35316722 C27.7381056,-1.12318536 39.4255611,-2.29898127 44.8568849,4.42142001 Z" id="Path" fill="#42434D" fill-rule="nonzero"></path>
                <path d="M76.4626866,40.6585777 C74.7321311,38.7481993 66.6694116,36.2597264 58.737347,39.1196707 C57.8890841,39.4259096 53.8227631,41.2530605 47.1106817,40.9352532 C43.0675854,40.743412 38.4498314,37.1684818 34.1641791,36.9670003 C34.1641791,36.9670003 38.377549,35.7099102 44.2573889,38.2591167 C50.0787322,40.7691194 58.7066704,37.2613496 59.2364931,37.0592255 C65.7311062,34.5893905 73.1647699,37.0171296 76.4626866,40.6585777" id="Fill-28" fill="#E2AE84"></path>
                <path d="M74.8358209,45.5752444 C73.1052654,43.6648659 65.0425459,41.1763931 57.1104813,44.0363373 C56.2622185,44.3425763 52.1958974,46.1697272 45.483816,45.8519199 C41.4407197,45.6600787 36.8229657,42.0851484 32.5373134,41.883667 C32.5373134,41.883667 36.7506833,40.6265769 42.6305232,43.1757833 C48.4518665,45.6857861 57.0798047,42.1780163 57.6096275,41.9758921 C64.1042406,39.5060571 71.5379042,41.9337963 74.8358209,45.5752444" id="Fill-28" fill="#E2AE84"></path>
                <path d="M89.0878696,55.7222222 C94.0428355,55.7222222 98.2823853,58.7029815 100.021313,62.9240011 L100.131157,63.2010255 L100.131157,63.2010255 C100.605549,64.4447013 100.865672,65.7901558 100.865672,67.1944444 C100.865672,73.5304917 95.592687,78.6666667 89.0878696,78.6666667 C88.2647373,78.6666667 87.4618857,78.5837836 86.6868099,78.4274652 L84.5974558,73.587608 L87.8529507,70.6162707 L84.5970149,68.5845614 L87.8701452,55.7832036 C88.2704688,55.7432651 88.6769648,55.7222222 89.0878696,55.7222222 Z" id="Combined-Shape" fill="#F0C69E" fill-rule="nonzero"></path>
            </g>
        </g>
    </g>
</svg>