<?xml version="1.0" encoding="UTF-8"?>
<svg width="689px" height="398px" viewBox="0 0 689 398" version="1.1" xmlns="http://www.w3.org/2000/svg" xmlns:xlink="http://www.w3.org/1999/xlink">
    <title>userData1</title>
    <g id="userData1" stroke="none" stroke-width="1" fill="none" fill-rule="evenodd">
        <rect fill="#FFFFFF" x="0" y="0" width="689" height="398"></rect>
        <g id="Group-22" transform="translate(66.000000, 129.000000)">
            <path d="M35.2719813,110 L14.8725474,110 C11.7845319,110 9.25805842,107.509858 9.25805842,104.46681 L6.45081395,57.584504 C6.45081395,57.584504 1.90819045,18.7507671 25.4696741,13.6479717 C25.4696741,13.6479717 35.0498789,-4.72273416 65.7307468,1.16284778 C66.0999863,1.23350964 66.5302225,1.37391566 67.6537721,1.73686065 C111.48804,15.810041 98.8417041,61.6186535 97.0234441,104.467268 C97.0234441,107.510317 94.4969706,110 91.4089551,110 L69.707172,110" id="Path" fill="#DDA14E" fill-rule="nonzero"></path>
            <path d="M0.099009901,139 C0.099009901,115.804097 18.3985021,97 40.9719474,97 L65.2256583,97 C87.7991037,97 106.09901,115.804097 106.09901,139 L0.099009901,139 Z" id="Path" fill="#FF58B6" fill-rule="nonzero"></path>
            <polygon id="Path" fill="#FFB8F6" fill-rule="nonzero" points="64.0990099 95 42.0990099 95 44.9361607 139 61.2618591 139"></polygon>
            <path d="M53.0989258,110 C64.3822775,110 64.1105546,97.4954778 64.096183,97.0225217 C63.7088192,97.0092736 63.3207868,97 62.9300807,97 L43.3529977,97 C42.9338827,97 42.5171072,97.0102673 42.1016686,97.0258337 C42.0862944,97.563043 41.8466569,110 53.0989258,110 Z" id="Path" fill="#E2AE84" fill-rule="nonzero"></path>
            <path d="M51.5990099,100 C73.4142575,100 91.0990099,82.3152476 91.0990099,60.5 C91.0990099,38.6847524 73.4142575,21 51.5990099,21 C44.1239137,21 46.6333203,41.3446285 40.673478,44.9521277 C29.2401749,51.8727187 12.0990099,46.1598486 12.0990099,60.5 C12.0990099,82.3152476 29.7837623,100 51.5990099,100 Z" id="Oval" fill="#F0C69E"></path>
            <g id="Group-19" transform="translate(35.099010, 58.000000)" fill="#5E6B75">
                <rect id="Rectangle" x="8.35751888e-13" y="0" width="5.05405405" height="9" rx="2.52702703"></rect>
                <rect id="Rectangle" x="28.9459459" y="0" width="5.05405405" height="9" rx="2.52702703"></rect>
            </g>
        </g>
        <g id="Group-23" transform="translate(172.247525, 144.000000)">
            <path d="M-0.148514851,124 C-0.148514851,100.804097 18.1509773,82 40.7244226,82 L64.9781336,82 C87.5515789,82 105.851485,100.804097 105.851485,124 L-0.148514851,124 Z" id="Path" fill="#3B4DBB" fill-rule="nonzero"></path>
            <polygon id="Path" fill="#B8DBFF" fill-rule="nonzero" points="64.8514851 80 42.8514851 80 45.6886359 124 62.0143344 124"></polygon>
            <path d="M53.8514011,95 C65.1347528,95 64.8630299,82.4954778 64.8486583,82.0225217 C64.4612944,82.0092736 64.0732621,82 63.682556,82 L44.1054729,82 C43.6863579,82 43.2695824,82.0102673 42.8541439,82.0258337 C42.8387696,82.563043 42.5991321,95 53.8514011,95 Z" id="Path" fill="#E2AE84" fill-rule="nonzero"></path>
            <ellipse id="Oval" fill="#F0C69E" cx="51.3514851" cy="45" rx="39.5" ry="40"></ellipse>
            <g id="Group-19" transform="translate(35.851485, 44.000000)" fill="#5E6B75">
                <rect id="Rectangle" x="8.35751888e-13" y="0" width="5.05405405" height="9" rx="2.52702703"></rect>
                <rect id="Rectangle" x="28.9459459" y="0" width="5.05405405" height="9" rx="2.52702703"></rect>
            </g>
            <path d="M90.8514851,33.9423192 C85.7489795,14.3041667 70.0380916,0 51.4449533,0 C32.6220034,0 16.7502473,14.6589174 11.8514851,34.6718718 C16.2563237,36.7217141 28.363284,30.5255298 35.3265784,23.8681695 C35.9806842,23.2431141 36.9441783,23.3021107 37.5571238,23.9780651 C47.0483469,34.4455254 74.5523479,38.9739957 90.8514851,33.9423192 Z" id="Path" fill="#495059" fill-rule="nonzero"></path>
        </g>
        <text id="Children" font-family="AvenirNextforINTUIT-Demi, AvenirNext forINTUIT" font-size="43" font-weight="400" letter-spacing="3.07142857" fill="#065FD4">
            <tspan x="354" y="127">Children</tspan>
        </text>
        <text id="Spends-less-time-at" font-family="AvenirNextforINTUIT-Regular, AvenirNext forINTUIT" font-size="20" font-weight="normal" letter-spacing="1.42857143" fill="#000000">
            <tspan x="374" y="170">Spends less time at text</tspan>
            <tspan x="374" y="194">heavy exhibits</tspan>
        </text>
        <text id="Spends-more-time-at" font-family="AvenirNextforINTUIT-Regular, AvenirNext forINTUIT" font-size="20" font-weight="normal" letter-spacing="1.42857143" fill="#000000">
            <tspan x="374" y="238">Spends more time at </tspan>
            <tspan x="374" y="262">interactive exhibits</tspan>
        </text>
        <text id="Touches-exhibits-oft" font-family="AvenirNextforINTUIT-Regular, AvenirNext forINTUIT" font-size="20" font-weight="normal" letter-spacing="1.42857143" fill="#000000">
            <tspan x="374" y="306">Touches exhibits often</tspan>
        </text>
        <circle id="Oval" fill="#666666" cx="357" cy="163" r="3"></circle>
        <circle id="Oval" fill="#666666" cx="357" cy="232" r="3"></circle>
        <circle id="Oval" fill="#666666" cx="357" cy="299" r="3"></circle>
        <g id="Group" transform="translate(91.000000, 141.000000) rotate(-49.000000) translate(-91.000000, -141.000000) translate(64.000000, 124.000000)" fill-rule="nonzero">
            <path d="M9.13529617,0.146616572 C12.1520205,0.959398904 16.2988258,1.82713984 20.9269433,5.51844223 L28.4584762,11.5255692 L37.9679014,10.110259 C43.7692173,9.24705597 47.7530783,10.5524489 50.8505227,11.3874164 C53.1167009,11.9980116 54.4613668,14.3405591 53.8542116,16.6195766 L50.0673877,30.832679 C49.4602324,33.1116965 47.130882,34.4639808 44.8647038,33.8533856 C36.067721,31.4831066 36.0025433,30.818057 25.5415238,22.4739287 C12.1805985,24.4625227 11.864236,24.9606796 3.14947727,22.6120816 C0.883299075,22.0014864 -0.461366834,19.6589388 0.145788429,17.3799214 L3.9326123,3.16681891 C4.53976756,0.88830566 6.86911798,-0.463978591 9.13529617,0.146616572 L9.13529617,0.146616572 Z" id="Path" fill="#F9A7A7"></path>
            <path d="M22.0002844,24.7248309 L26.3441265,25.906039 C27.7836936,26.2973939 29.2629833,25.4304943 29.6486445,23.9701844 L32.907406,11.6284734 C33.2930672,10.1676532 32.4387799,8.666524 30.9997156,8.2751691 L26.6558735,7.09396102 C25.2163064,6.70260612 23.7370167,7.5695057 23.3513555,9.02981564 L20.092594,21.3715266 C19.7069328,22.8323468 20.5612201,24.333476 22.0002844,24.7248309 Z" id="Path" fill="#E0EBFC"></path>
        </g>
    </g>
</svg>