<?xml version="1.0" encoding="UTF-8"?>
<svg width="689px" height="398px" viewBox="0 0 689 398" version="1.1" xmlns="http://www.w3.org/2000/svg" xmlns:xlink="http://www.w3.org/1999/xlink">
    <title>userData1</title>
    <g id="userData1" stroke="none" stroke-width="1" fill="none" fill-rule="evenodd">
        <rect fill="#FFFFFF" x="0" y="0" width="689" height="398"></rect>
        <g id="Group-22" transform="translate(66.000000, 129.000000)">
            <path d="M35.2719813,110 L14.8725474,110 C11.7845319,110 9.25805842,107.509858 9.25805842,104.46681 L6.45081395,57.584504 C6.45081395,57.584504 1.90819045,18.7507671 25.4696741,13.6479717 C25.4696741,13.6479717 35.0498789,-4.72273416 65.7307468,1.16284778 C66.0999863,1.23350964 66.5302225,1.37391566 67.6537721,1.73686065 C111.48804,15.810041 98.8417041,61.6186535 97.0234441,104.467268 C97.0234441,107.510317 94.4969706,110 91.4089551,110 L69.707172,110" id="Path" fill="#DDA14E" fill-rule="nonzero"></path>
            <path d="M0.099009901,139 C0.099009901,115.804097 18.3985021,97 40.9719474,97 L65.2256583,97 C87.7991037,97 106.09901,115.804097 106.09901,139 L0.099009901,139 Z" id="Path" fill="#FF58B6" fill-rule="nonzero"></path>
            <polygon id="Path" fill="#FFB8F6" fill-rule="nonzero" points="64.0990099 95 42.0990099 95 44.9361607 139 61.2618591 139"></polygon>
            <path d="M53.0989258,110 C64.3822775,110 64.1105546,97.4954778 64.096183,97.0225217 C63.7088192,97.0092736 63.3207868,97 62.9300807,97 L43.3529977,97 C42.9338827,97 42.5171072,97.0102673 42.1016686,97.0258337 C42.0862944,97.563043 41.8466569,110 53.0989258,110 Z" id="Path" fill="#E2AE84" fill-rule="nonzero"></path>
            <path d="M51.5990099,100 C73.4142575,100 91.0990099,82.3152476 91.0990099,60.5 C91.0990099,38.6847524 73.4142575,21 51.5990099,21 C44.1239137,21 46.6333203,41.3446285 40.673478,44.9521277 C29.2401749,51.8727187 12.0990099,46.1598486 12.0990099,60.5 C12.0990099,82.3152476 29.7837623,100 51.5990099,100 Z" id="Oval" fill="#F0C69E"></path>
            <g id="Group-19" transform="translate(35.099010, 58.000000)" fill="#5E6B75">
                <rect id="Rectangle" x="8.35751888e-13" y="0" width="5.05405405" height="9" rx="2.52702703"></rect>
                <rect id="Rectangle" x="28.9459459" y="0" width="5.05405405" height="9" rx="2.52702703"></rect>
            </g>
        </g>
        <g id="Group-23" transform="translate(172.247525, 144.000000)">
            <path d="M-0.148514851,124 C-0.148514851,100.804097 18.1509773,82 40.7244226,82 L64.9781336,82 C87.5515789,82 105.851485,100.804097 105.851485,124 L-0.148514851,124 Z" id="Path" fill="#3B4DBB" fill-rule="nonzero"></path>
            <polygon id="Path" fill="#B8DBFF" fill-rule="nonzero" points="64.8514851 80 42.8514851 80 45.6886359 124 62.0143344 124"></polygon>
            <path d="M53.8514011,95 C65.1347528,95 64.8630299,82.4954778 64.8486583,82.0225217 C64.4612944,82.0092736 64.0732621,82 63.682556,82 L44.1054729,82 C43.6863579,82 43.2695824,82.0102673 42.8541439,82.0258337 C42.8387696,82.563043 42.5991321,95 53.8514011,95 Z" id="Path" fill="#E2AE84" fill-rule="nonzero"></path>
            <ellipse id="Oval" fill="#F0C69E" cx="51.3514851" cy="45" rx="39.5" ry="40"></ellipse>
            <g id="Group-19" transform="translate(35.851485, 44.000000)" fill="#5E6B75">
                <rect id="Rectangle" x="8.35751888e-13" y="0" width="5.05405405" height="9" rx="2.52702703"></rect>
                <rect id="Rectangle" x="28.9459459" y="0" width="5.05405405" height="9" rx="2.52702703"></rect>
            </g>
            <path d="M90.8514851,33.9423192 C85.7489795,14.3041667 70.0380916,0 51.4449533,0 C32.6220034,0 16.7502473,14.6589174 11.8514851,34.6718718 C16.2563237,36.7217141 28.363284,30.5255298 35.3265784,23.8681695 C35.9806842,23.2431141 36.9441783,23.3021107 37.5571238,23.9780651 C47.0483469,34.4455254 74.5523479,38.9739957 90.8514851,33.9423192 Z" id="Path" fill="#495059" fill-rule="nonzero"></path>
        </g>
        <path d="M372.146,127.774 C377.306,127.774 381.262,125.796 383.928,122.442 L379.585,119.389 C378.037,121.496 375.457,122.915 372.189,122.915 C365.911,122.915 361.869,118.314 361.869,111.692 C361.869,105.414 366.126,100.555 372.404,100.555 C374.855,100.555 377.736,101.501 379.327,103.694 L383.455,100.426 C381.047,97.244 376.36,95.782 372.404,95.782 C363.03,95.782 355.892,101.931 355.892,111.692 C355.892,121.195 362.643,127.774 372.146,127.774 Z M395.341429,127 L395.341429,115.734 C395.341429,112.982 396.932429,110.187 400.200429,110.187 C403.511429,110.187 404.027429,113.197 404.027429,115.648 L404.027429,127 L409.187429,127 L409.187429,114.1 C409.187429,109.886 406.951429,105.758 401.576429,105.758 C398.523429,105.758 396.244429,107.521 395.427429,109.241 L395.341429,109.241 L395.341429,94.492 L390.181429,94.492 L390.181429,127 L395.341429,127 Z M420.901857,102.447 C422.793857,102.447 424.255857,101.114 424.255857,99.351 C424.255857,97.588 422.793857,96.255 420.901857,96.255 C419.009857,96.255 417.633857,97.717 417.633857,99.351 C417.633857,100.985 419.009857,102.447 420.901857,102.447 Z M423.524857,127 L423.524857,106.36 L418.364857,106.36 L418.364857,127 L423.524857,127 Z M438.120286,127 L438.120286,94.492 L432.960286,94.492 L432.960286,127 L438.120286,127 Z M456.370714,127.602 C459.251714,127.602 462.046714,126.269 463.465714,123.904 L463.551714,123.904 L463.551714,127 L468.453714,127 L468.453714,94.492 L463.293714,94.492 L463.293714,108.983 L463.164714,108.983 C462.089714,107.65 460.025714,105.758 456.241714,105.758 C450.350714,105.758 446.222714,110.488 446.222714,116.594 C446.222714,122.614 450.092714,127.602 456.370714,127.602 Z M457.402714,123.302 C453.403714,123.302 451.468714,119.819 451.468714,116.594 C451.468714,113.369 453.403714,109.972 457.402714,109.972 C461.186714,109.972 463.465714,113.455 463.465714,116.68 C463.465714,119.905 461.186714,123.302 457.402714,123.302 Z M482.963143,127 L482.963143,115.949 C482.963143,114.444 483.866143,110.402 488.510143,110.402 C488.983143,110.402 489.413143,110.445 490.101143,110.617 L490.101143,105.887 C489.757143,105.801 489.241143,105.758 488.854143,105.758 C486.145143,105.758 483.952143,107.435 482.834143,109.8 L482.748143,109.8 L482.748143,106.36 L477.803143,106.36 L477.803143,127 L482.963143,127 Z M505.642571,127.602 C509.555571,127.602 512.479571,126.226 514.500571,123.474 L511.060571,120.722 C509.899571,122.356 508.179571,123.388 505.599571,123.388 C502.589571,123.388 499.923571,121.238 499.708571,118.314 L515.403571,118.314 C515.446571,117.841 515.446571,117.411 515.446571,116.938 C515.446571,109.499 511.232571,105.758 505.470571,105.758 C499.235571,105.758 494.548571,110.144 494.548571,116.809 C494.548571,123.517 499.278571,127.602 505.642571,127.602 Z M510.286571,114.616 L499.708571,114.616 C499.923571,111.735 502.374571,109.628 505.427571,109.628 C508.781571,109.628 510.286571,111.95 510.286571,114.616 Z M528.666,127 L528.666,115.648 C528.666,112.896 530.214,110.058 533.482,110.058 C536.716,110.058 537.324512,112.970651 537.351065,115.390069 L537.352,127 L542.512,127 L542.512,114.1 C542.512,109.886 540.276,105.758 534.901,105.758 C531.848,105.758 529.397,107.607 528.494,109.671 L528.408,109.671 L528.408,106.36 L523.506,106.36 L523.506,127 L528.666,127 Z" id="Children" fill="#065FD4" fill-rule="nonzero"></path>
        <path d="M379.46,170.36 C381.7,170.36 384.08,169.12 384.08,166.28 C384.08,163.44 381.88,162.8 379.88,162.14 C378.3,161.62 376.8,161.16 376.8,159.36 C376.8,157.54 378.42,156.7 379.82,156.7 C381.16,156.7 382.14,157.26 382.74,158.12 L383.88,157.2 C383.2,156.28 381.78,155.48 379.88,155.48 C377.8,155.48 375.36,156.64 375.36,159.38 C375.36,161.94 377.28,162.76 379.16,163.34 C380.96,163.9 382.62,164.4 382.62,166.38 C382.62,168.2 380.94,169.12 379.48,169.12 C378,169.12 376.86,168.34 376.24,167.34 L375,168.26 C376.02,169.66 377.74,170.36 379.46,170.36 Z M389.868571,174.8 L389.868571,168.42 L389.928571,168.42 C390.708571,169.58 392.108571,170.24 393.448571,170.24 C396.368571,170.24 398.288571,168.08 398.288571,165.32 C398.288571,162.56 396.368571,160.4 393.448571,160.4 C392.108571,160.4 390.708571,161.04 389.928571,162.26 L389.868571,162.26 L389.868571,160.64 L388.508571,160.64 L388.508571,174.8 L389.868571,174.8 Z M393.308571,169.08 C391.208571,169.08 389.708571,167.46 389.708571,165.32 C389.708571,163.18 391.208571,161.54 393.308571,161.54 C395.568571,161.54 396.848571,163.24 396.848571,165.32 C396.848571,167.4 395.568571,169.08 393.308571,169.08 Z M406.797143,170.24 C408.337143,170.24 409.717143,169.66 410.817143,168.26 L409.797143,167.46 C409.277143,168.3 408.197143,169.08 406.797143,169.08 C404.877143,169.08 403.417143,167.56 403.377143,165.68 L411.137143,165.68 C411.157143,165.44 411.157143,165.22 411.157143,165.04 C411.157143,162.48 409.617143,160.4 406.677143,160.4 C404.017143,160.4 401.957143,162.5 401.957143,165.32 C401.957143,168.14 404.017143,170.24 406.797143,170.24 Z M409.777143,164.6 L403.397143,164.6 C403.517143,163 404.857143,161.54 406.677143,161.54 C408.617143,161.54 409.697143,162.84 409.777143,164.6 Z M416.865714,170 L416.865714,165.2 C416.865714,162.7 418.265714,161.54 419.705714,161.54 C421.665714,161.54 422.245714,162.86 422.245714,164.82 L422.245714,170 L423.605714,170 L423.605714,164.26 C423.605714,161.94 422.425714,160.4 420.045714,160.4 C418.725714,160.4 417.365714,161.16 416.845714,162.24 L416.805714,162.24 C416.805714,161.84 416.765714,161.14 416.725714,160.64 L415.425714,160.64 C415.485714,161.28 415.505714,162.2 415.505714,162.7 L415.505714,170 L416.865714,170 Z M432.714286,170.24 C434.054286,170.24 435.454286,169.6 436.254286,168.42 L436.294286,168.42 L436.294286,170 L437.654286,170 L437.654286,154.88 L436.294286,154.88 L436.294286,162.26 L436.254286,162.26 C435.454286,161.04 434.054286,160.4 432.714286,160.4 C429.794286,160.4 427.874286,162.56 427.874286,165.32 C427.874286,168.08 429.794286,170.24 432.714286,170.24 Z M432.854286,169.08 C430.594286,169.08 429.314286,167.4 429.314286,165.32 C429.314286,163.24 430.594286,161.54 432.854286,161.54 C434.954286,161.54 436.454286,163.18 436.454286,165.32 C436.454286,167.46 434.954286,169.08 432.854286,169.08 Z M445.382857,170.24 C447.102857,170.24 448.902857,169.48 448.902857,167.34 C448.902857,165.88 447.862857,165.06 445.662857,164.6 C444.122857,164.28 443.422857,163.88 443.422857,163 C443.422857,161.96 444.422857,161.54 445.402857,161.54 C446.442857,161.54 447.302857,162.08 447.702857,162.86 L448.742857,162.08 C448.142857,161.02 446.762857,160.4 445.462857,160.4 C443.762857,160.4 442.122857,161.22 442.122857,163.12 C442.122857,164.9 443.702857,165.38 444.802857,165.64 C446.582857,166.06 447.562857,166.46 447.562857,167.44 C447.562857,168.66 446.522857,169.08 445.362857,169.08 C444.262857,169.08 443.242857,168.44 442.762857,167.62 L441.682857,168.42 C442.542857,169.68 443.962857,170.24 445.382857,170.24 Z M460.86,170 L460.86,154.88 L459.5,154.88 L459.5,170 L460.86,170 Z M470.088571,170.24 C471.628571,170.24 473.008571,169.66 474.108571,168.26 L473.088571,167.46 C472.568571,168.3 471.488571,169.08 470.088571,169.08 C468.168571,169.08 466.708571,167.56 466.668571,165.68 L474.428571,165.68 C474.448571,165.44 474.448571,165.22 474.448571,165.04 C474.448571,162.48 472.908571,160.4 469.968571,160.4 C467.308571,160.4 465.248571,162.5 465.248571,165.32 C465.248571,168.14 467.308571,170.24 470.088571,170.24 Z M473.068571,164.6 L466.688571,164.6 C466.808571,163 468.148571,161.54 469.968571,161.54 C471.908571,161.54 472.988571,162.84 473.068571,164.6 Z M481.457143,170.24 C483.177143,170.24 484.977143,169.48 484.977143,167.34 C484.977143,165.88 483.937143,165.06 481.737143,164.6 C480.197143,164.28 479.497143,163.88 479.497143,163 C479.497143,161.96 480.497143,161.54 481.477143,161.54 C482.517143,161.54 483.377143,162.08 483.777143,162.86 L484.817143,162.08 C484.217143,161.02 482.837143,160.4 481.537143,160.4 C479.837143,160.4 478.197143,161.22 478.197143,163.12 C478.197143,164.9 479.777143,165.38 480.877143,165.64 C482.657143,166.06 483.637143,166.46 483.637143,167.44 C483.637143,168.66 482.597143,169.08 481.437143,169.08 C480.337143,169.08 479.317143,168.44 478.837143,167.62 L477.757143,168.42 C478.617143,169.68 480.037143,170.24 481.457143,170.24 Z M491.765714,170.24 C493.485714,170.24 495.285714,169.48 495.285714,167.34 C495.285714,165.88 494.245714,165.06 492.045714,164.6 C490.505714,164.28 489.805714,163.88 489.805714,163 C489.805714,161.96 490.805714,161.54 491.785714,161.54 C492.825714,161.54 493.685714,162.08 494.085714,162.86 L495.125714,162.08 C494.525714,161.02 493.145714,160.4 491.845714,160.4 C490.145714,160.4 488.505714,161.22 488.505714,163.12 C488.505714,164.9 490.085714,165.38 491.185714,165.64 C492.965714,166.06 493.945714,166.46 493.945714,167.44 C493.945714,168.66 492.905714,169.08 491.745714,169.08 C490.645714,169.08 489.625714,168.44 489.145714,167.62 L488.065714,168.42 C488.925714,169.68 490.345714,170.24 491.765714,170.24 Z M508.462857,170.12 C509.082857,170.12 509.582857,170.02 510.062857,169.84 L510.002857,168.66 C509.642857,168.84 509.202857,168.96 508.822857,168.96 C508.002857,168.96 507.422857,168.64 507.422857,167.24 L507.422857,161.78 L510.062857,161.78 L510.062857,160.64 L507.422857,160.64 L507.422857,158 L506.062857,158 L506.062857,160.64 L504.122857,160.64 L504.122857,161.78 L506.062857,161.78 L506.062857,167.62 C506.062857,169.68 507.462857,170.12 508.462857,170.12 Z M514.311429,158 C514.791429,158 515.271429,157.6 515.271429,157.04 C515.271429,156.48 514.791429,156.08 514.311429,156.08 C513.831429,156.08 513.351429,156.48 513.351429,157.04 C513.351429,157.6 513.831429,158 514.311429,158 Z M514.991429,170 L514.991429,160.64 L513.631429,160.64 L513.631429,170 L514.991429,170 Z M521.4,170 L521.4,165.2 C521.4,162.7 522.82,161.54 524.12,161.54 C525.94,161.54 526.38,162.72 526.38,164.54 L526.38,170 L527.74,170 L527.74,165.02 C527.74,163.28 528.44,161.54 530.4,161.54 C532.16,161.54 532.82,162.86 532.82,164.82 L532.82,170 L534.18,170 L534.18,164.26 C534.18,161.94 533,160.4 530.62,160.4 C529.12,160.4 527.98,161.1 527.34,162.38 C526.72,160.78 525.48,160.4 524.46,160.4 C523.12,160.4 521.92,161.16 521.38,162.24 L521.34,162.24 C521.34,161.84 521.3,161.14 521.26,160.64 L519.96,160.64 C520.0125,161.2 520.034375,161.974375 520.039023,162.49418 L520.04,170 L521.4,170 Z M543.288571,170.24 C544.828571,170.24 546.208571,169.66 547.308571,168.26 L546.288571,167.46 C545.768571,168.3 544.688571,169.08 543.288571,169.08 C541.368571,169.08 539.908571,167.56 539.868571,165.68 L547.628571,165.68 C547.648571,165.44 547.648571,165.22 547.648571,165.04 C547.648571,162.48 546.108571,160.4 543.168571,160.4 C540.508571,160.4 538.448571,162.5 538.448571,165.32 C538.448571,168.14 540.508571,170.24 543.288571,170.24 Z M546.268571,164.6 L539.888571,164.6 C540.008571,163 541.348571,161.54 543.168571,161.54 C545.108571,161.54 546.188571,162.84 546.268571,164.6 Z M560.965714,170.24 C562.465714,170.24 563.505714,169.72 564.365714,168.48 L564.405714,168.48 C564.405714,168.98 564.465714,169.54 564.545714,170 L565.765714,170 C565.665714,169.48 565.605714,168.62 565.605714,167.9 L565.605714,163.8 C565.605714,161.52 563.985714,160.4 561.965714,160.4 C560.365714,160.4 559.045714,160.98 558.285714,161.74 L559.045714,162.64 C559.705714,161.98 560.725714,161.54 561.825714,161.54 C563.445714,161.54 564.325714,162.34 564.325714,163.96 L564.325714,164.26 C560.905714,164.26 557.725714,164.52 557.725714,167.4 C557.725714,169.48 559.545714,170.24 560.965714,170.24 Z M561.325714,169.12 C560.265714,169.12 559.125714,168.68 559.125714,167.34 C559.125714,165.56 561.705714,165.32 563.925714,165.32 L564.325714,165.32 L564.325714,166.02 C564.325714,167.68 563.245714,169.12 561.325714,169.12 Z M572.954286,170.12 C573.574286,170.12 574.074286,170.02 574.554286,169.84 L574.494286,168.66 C574.134286,168.84 573.694286,168.96 573.314286,168.96 C572.494286,168.96 571.914286,168.64 571.914286,167.24 L571.914286,161.78 L574.554286,161.78 L574.554286,160.64 L571.914286,160.64 L571.914286,158 L570.554286,158 L570.554286,160.64 L568.614286,160.64 L568.614286,161.78 L570.554286,161.78 L570.554286,167.62 C570.554286,169.68 571.954286,170.12 572.954286,170.12 Z M587.151429,170.12 C587.771429,170.12 588.271429,170.02 588.751429,169.84 L588.691429,168.66 C588.331429,168.84 587.891429,168.96 587.511429,168.96 C586.691429,168.96 586.111429,168.64 586.111429,167.24 L586.111429,161.78 L588.751429,161.78 L588.751429,160.64 L586.111429,160.64 L586.111429,158 L584.751429,158 L584.751429,160.64 L582.811429,160.64 L582.811429,161.78 L584.751429,161.78 L584.751429,167.62 C584.751429,169.68 586.151429,170.12 587.151429,170.12 Z M596.46,170.24 C598,170.24 599.38,169.66 600.48,168.26 L599.46,167.46 C598.94,168.3 597.86,169.08 596.46,169.08 C594.54,169.08 593.08,167.56 593.04,165.68 L600.8,165.68 C600.82,165.44 600.82,165.22 600.82,165.04 C600.82,162.48 599.28,160.4 596.34,160.4 C593.68,160.4 591.62,162.5 591.62,165.32 C591.62,168.14 593.68,170.24 596.46,170.24 Z M599.44,164.6 L593.06,164.6 C593.18,163 594.52,161.54 596.34,161.54 C598.28,161.54 599.36,162.84 599.44,164.6 Z M605.208571,170 L608.068571,166.1 L610.848571,170 L612.608571,170 L608.888571,165.1 L612.288571,160.64 L610.648571,160.64 L608.088571,164.2 L605.528571,160.64 L603.788571,160.64 L607.248571,165.16 L603.568571,170 L605.208571,170 Z M618.777143,170.12 C619.397143,170.12 619.897143,170.02 620.377143,169.84 L620.317143,168.66 C619.957143,168.84 619.517143,168.96 619.137143,168.96 C618.317143,168.96 617.737143,168.64 617.737143,167.24 L617.737143,161.78 L620.377143,161.78 L620.377143,160.64 L617.737143,160.64 L617.737143,158 L616.377143,158 L616.377143,160.64 L614.437143,160.64 L614.437143,161.78 L616.377143,161.78 L616.377143,167.62 C616.377143,169.68 617.777143,170.12 618.777143,170.12 Z M377.2,194 L377.2,189.2 C377.2,186.7 378.6,185.54 380.04,185.54 C382,185.54 382.58,186.86 382.58,188.82 L382.58,194 L383.94,194 L383.94,188.26 C383.94,185.94 382.76,184.4 380.38,184.4 C379.06,184.4 377.74,185.1 377.24,186.18 L377.2,186.18 L377.2,178.88 L375.84,178.88 L375.84,194 L377.2,194 Z M393.048571,194.24 C394.588571,194.24 395.968571,193.66 397.068571,192.26 L396.048571,191.46 C395.528571,192.3 394.448571,193.08 393.048571,193.08 C391.128571,193.08 389.668571,191.56 389.628571,189.68 L397.388571,189.68 C397.408571,189.44 397.408571,189.22 397.408571,189.04 C397.408571,186.48 395.868571,184.4 392.928571,184.4 C390.268571,184.4 388.208571,186.5 388.208571,189.32 C388.208571,192.14 390.268571,194.24 393.048571,194.24 Z M396.028571,188.6 L389.648571,188.6 C389.768571,187 391.108571,185.54 392.928571,185.54 C394.868571,185.54 395.948571,186.84 396.028571,188.6 Z M404.177143,194.24 C405.677143,194.24 406.717143,193.72 407.577143,192.48 L407.617143,192.48 C407.617143,192.98 407.677143,193.54 407.757143,194 L408.977143,194 C408.877143,193.48 408.817143,192.62 408.817143,191.9 L408.817143,187.8 C408.817143,185.52 407.197143,184.4 405.177143,184.4 C403.577143,184.4 402.257143,184.98 401.497143,185.74 L402.257143,186.64 C402.917143,185.98 403.937143,185.54 405.037143,185.54 C406.657143,185.54 407.537143,186.34 407.537143,187.96 L407.537143,188.26 C404.117143,188.26 400.937143,188.52 400.937143,191.4 C400.937143,193.48 402.757143,194.24 404.177143,194.24 Z M404.537143,193.12 C403.477143,193.12 402.337143,192.68 402.337143,191.34 C402.337143,189.56 404.917143,189.32 407.137143,189.32 L407.537143,189.32 L407.537143,190.02 C407.537143,191.68 406.457143,193.12 404.537143,193.12 Z M417.585714,194 L421.385714,184.64 L419.925714,184.64 L416.865714,192.56 L416.825714,192.56 L413.785714,184.64 L412.265714,184.64 L416.085714,194 L417.585714,194 Z M424.974286,198.8 C426.594286,198.8 427.354286,197.86 427.914286,196.42 L432.574286,184.64 L431.094286,184.64 L428.194286,192.54 L428.154286,192.54 L424.974286,184.64 L423.454286,184.64 L427.454286,193.98 L426.694286,195.94 C426.294286,197 425.814286,197.6 424.894286,197.6 C424.534286,197.6 424.194286,197.54 423.894286,197.44 L423.754286,198.68 C424.154286,198.76 424.574286,198.8 424.974286,198.8 Z M446.711429,194.24 C448.251429,194.24 449.631429,193.66 450.731429,192.26 L449.711429,191.46 C449.191429,192.3 448.111429,193.08 446.711429,193.08 C444.791429,193.08 443.331429,191.56 443.291429,189.68 L451.051429,189.68 C451.071429,189.44 451.071429,189.22 451.071429,189.04 C451.071429,186.48 449.531429,184.4 446.591429,184.4 C443.931429,184.4 441.871429,186.5 441.871429,189.32 C441.871429,192.14 443.931429,194.24 446.711429,194.24 Z M449.691429,188.6 L443.311429,188.6 C443.431429,187 444.771429,185.54 446.591429,185.54 C448.531429,185.54 449.611429,186.84 449.691429,188.6 Z M455.46,194 L458.32,190.1 L461.1,194 L462.86,194 L459.14,189.1 L462.54,184.64 L460.9,184.64 L458.34,188.2 L455.78,184.64 L454.04,184.64 L457.5,189.16 L453.82,194 L455.46,194 Z M467.808571,194 L467.808571,189.2 C467.808571,186.7 469.208571,185.54 470.648571,185.54 C472.608571,185.54 473.188571,186.86 473.188571,188.82 L473.188571,194 L474.548571,194 L474.548571,188.26 C474.548571,185.94 473.368571,184.4 470.988571,184.4 C469.668571,184.4 468.348571,185.1 467.848571,186.18 L467.808571,186.18 L467.808571,178.88 L466.448571,178.88 L466.448571,194 L467.808571,194 Z M480.197143,182 C480.677143,182 481.157143,181.6 481.157143,181.04 C481.157143,180.48 480.677143,180.08 480.197143,180.08 C479.717143,180.08 479.237143,180.48 479.237143,181.04 C479.237143,181.6 479.717143,182 480.197143,182 Z M480.877143,194 L480.877143,184.64 L479.517143,184.64 L479.517143,194 L480.877143,194 Z M490.905714,194.24 C493.825714,194.24 495.745714,192.08 495.745714,189.32 C495.745714,186.56 493.825714,184.4 490.905714,184.4 C489.565714,184.4 488.165714,185.04 487.365714,186.26 L487.325714,186.26 L487.325714,178.88 L485.965714,178.88 L485.965714,194 L487.325714,194 L487.325714,192.42 L487.365714,192.42 C488.165714,193.6 489.565714,194.24 490.905714,194.24 Z M490.765714,193.08 C488.665714,193.08 487.165714,191.46 487.165714,189.32 C487.165714,187.18 488.665714,185.54 490.765714,185.54 C493.025714,185.54 494.305714,187.24 494.305714,189.32 C494.305714,191.4 493.025714,193.08 490.765714,193.08 Z M500.794286,182 C501.274286,182 501.754286,181.6 501.754286,181.04 C501.754286,180.48 501.274286,180.08 500.794286,180.08 C500.314286,180.08 499.834286,180.48 499.834286,181.04 C499.834286,181.6 500.314286,182 500.794286,182 Z M501.474286,194 L501.474286,184.64 L500.114286,184.64 L500.114286,194 L501.474286,194 Z M509.142857,194.12 C509.762857,194.12 510.262857,194.02 510.742857,193.84 L510.682857,192.66 C510.322857,192.84 509.882857,192.96 509.502857,192.96 C508.682857,192.96 508.102857,192.64 508.102857,191.24 L508.102857,185.78 L510.742857,185.78 L510.742857,184.64 L508.102857,184.64 L508.102857,182 L506.742857,182 L506.742857,184.64 L504.802857,184.64 L504.802857,185.78 L506.742857,185.78 L506.742857,191.62 C506.742857,193.68 508.142857,194.12 509.142857,194.12 Z M516.951429,194.24 C518.671429,194.24 520.471429,193.48 520.471429,191.34 C520.471429,189.88 519.431429,189.06 517.231429,188.6 C515.691429,188.28 514.991429,187.88 514.991429,187 C514.991429,185.96 515.991429,185.54 516.971429,185.54 C518.011429,185.54 518.871429,186.08 519.271429,186.86 L520.311429,186.08 C519.711429,185.02 518.331429,184.4 517.031429,184.4 C515.331429,184.4 513.691429,185.22 513.691429,187.12 C513.691429,188.9 515.271429,189.38 516.371429,189.64 C518.151429,190.06 519.131429,190.46 519.131429,191.44 C519.131429,192.66 518.091429,193.08 516.931429,193.08 C515.831429,193.08 514.811429,192.44 514.331429,191.62 L513.251429,192.42 C514.111429,193.68 515.531429,194.24 516.951429,194.24 Z" id="Spendslesstimeattextheavyexhibits" fill="#000000" fill-rule="nonzero"></path>
        <path d="M379.46,238.36 C381.7,238.36 384.08,237.12 384.08,234.28 C384.08,231.44 381.88,230.8 379.88,230.14 C378.3,229.62 376.8,229.16 376.8,227.36 C376.8,225.54 378.42,224.7 379.82,224.7 C381.16,224.7 382.14,225.26 382.74,226.12 L383.88,225.2 C383.2,224.28 381.78,223.48 379.88,223.48 C377.8,223.48 375.36,224.64 375.36,227.38 C375.36,229.94 377.28,230.76 379.16,231.34 C380.96,231.9 382.62,232.4 382.62,234.38 C382.62,236.2 380.94,237.12 379.48,237.12 C378,237.12 376.86,236.34 376.24,235.34 L375,236.26 C376.02,237.66 377.74,238.36 379.46,238.36 Z M389.868571,242.8 L389.868571,236.42 L389.928571,236.42 C390.708571,237.58 392.108571,238.24 393.448571,238.24 C396.368571,238.24 398.288571,236.08 398.288571,233.32 C398.288571,230.56 396.368571,228.4 393.448571,228.4 C392.108571,228.4 390.708571,229.04 389.928571,230.26 L389.868571,230.26 L389.868571,228.64 L388.508571,228.64 L388.508571,242.8 L389.868571,242.8 Z M393.308571,237.08 C391.208571,237.08 389.708571,235.46 389.708571,233.32 C389.708571,231.18 391.208571,229.54 393.308571,229.54 C395.568571,229.54 396.848571,231.24 396.848571,233.32 C396.848571,235.4 395.568571,237.08 393.308571,237.08 Z M406.797143,238.24 C408.337143,238.24 409.717143,237.66 410.817143,236.26 L409.797143,235.46 C409.277143,236.3 408.197143,237.08 406.797143,237.08 C404.877143,237.08 403.417143,235.56 403.377143,233.68 L411.137143,233.68 C411.157143,233.44 411.157143,233.22 411.157143,233.04 C411.157143,230.48 409.617143,228.4 406.677143,228.4 C404.017143,228.4 401.957143,230.5 401.957143,233.32 C401.957143,236.14 404.017143,238.24 406.797143,238.24 Z M409.777143,232.6 L403.397143,232.6 C403.517143,231 404.857143,229.54 406.677143,229.54 C408.617143,229.54 409.697143,230.84 409.777143,232.6 Z M416.865714,238 L416.865714,233.2 C416.865714,230.7 418.265714,229.54 419.705714,229.54 C421.665714,229.54 422.245714,230.86 422.245714,232.82 L422.245714,238 L423.605714,238 L423.605714,232.26 C423.605714,229.94 422.425714,228.4 420.045714,228.4 C418.725714,228.4 417.365714,229.16 416.845714,230.24 L416.805714,230.24 C416.805714,229.84 416.765714,229.14 416.725714,228.64 L415.425714,228.64 C415.485714,229.28 415.505714,230.2 415.505714,230.7 L415.505714,238 L416.865714,238 Z M432.714286,238.24 C434.054286,238.24 435.454286,237.6 436.254286,236.42 L436.294286,236.42 L436.294286,238 L437.654286,238 L437.654286,222.88 L436.294286,222.88 L436.294286,230.26 L436.254286,230.26 C435.454286,229.04 434.054286,228.4 432.714286,228.4 C429.794286,228.4 427.874286,230.56 427.874286,233.32 C427.874286,236.08 429.794286,238.24 432.714286,238.24 Z M432.854286,237.08 C430.594286,237.08 429.314286,235.4 429.314286,233.32 C429.314286,231.24 430.594286,229.54 432.854286,229.54 C434.954286,229.54 436.454286,231.18 436.454286,233.32 C436.454286,235.46 434.954286,237.08 432.854286,237.08 Z M445.382857,238.24 C447.102857,238.24 448.902857,237.48 448.902857,235.34 C448.902857,233.88 447.862857,233.06 445.662857,232.6 C444.122857,232.28 443.422857,231.88 443.422857,231 C443.422857,229.96 444.422857,229.54 445.402857,229.54 C446.442857,229.54 447.302857,230.08 447.702857,230.86 L448.742857,230.08 C448.142857,229.02 446.762857,228.4 445.462857,228.4 C443.762857,228.4 442.122857,229.22 442.122857,231.12 C442.122857,232.9 443.702857,233.38 444.802857,233.64 C446.582857,234.06 447.562857,234.46 447.562857,235.44 C447.562857,236.66 446.522857,237.08 445.362857,237.08 C444.262857,237.08 443.242857,236.44 442.762857,235.62 L441.682857,236.42 C442.542857,237.68 443.962857,238.24 445.382857,238.24 Z M460.82,238 L460.82,233.2 C460.82,230.7 462.24,229.54 463.54,229.54 C465.36,229.54 465.8,230.72 465.8,232.54 L465.8,238 L467.16,238 L467.16,233.02 C467.16,231.28 467.86,229.54 469.82,229.54 C471.58,229.54 472.24,230.86 472.24,232.82 L472.24,238 L473.6,238 L473.6,232.26 C473.6,229.94 472.42,228.4 470.04,228.4 C468.54,228.4 467.4,229.1 466.76,230.38 C466.14,228.78 464.9,228.4 463.88,228.4 C462.54,228.4 461.34,229.16 460.8,230.24 L460.76,230.24 C460.76,229.84 460.72,229.14 460.68,228.64 L459.38,228.64 C459.44,229.28 459.46,230.2 459.46,230.7 L459.46,238 L460.82,238 Z M482.848571,238.24 C485.768571,238.24 487.848571,236.14 487.848571,233.32 C487.848571,230.5 485.768571,228.4 482.848571,228.4 C479.948571,228.4 477.868571,230.5 477.868571,233.32 C477.868571,236.14 479.948571,238.24 482.848571,238.24 Z M482.848571,237.08 C480.688571,237.08 479.308571,235.42 479.308571,233.32 C479.308571,231.22 480.688571,229.54 482.848571,229.54 C485.028571,229.54 486.408571,231.22 486.408571,233.32 C486.408571,235.42 485.028571,237.08 482.848571,237.08 Z M493.557143,238 L493.557143,233.2 C493.557143,230.7 494.857143,229.66 496.297143,229.66 C496.657143,229.66 497.097143,229.72 497.257143,229.78 L497.437143,228.5 C497.157143,228.42 496.877143,228.4 496.537143,228.4 C495.217143,228.4 494.057143,229.16 493.537143,230.24 L493.497143,230.24 C493.497143,229.84 493.457143,229.14 493.417143,228.64 L492.117143,228.64 C492.177143,229.28 492.197143,230.2 492.197143,230.7 L492.197143,238 L493.557143,238 Z M504.625714,238.24 C506.165714,238.24 507.545714,237.66 508.645714,236.26 L507.625714,235.46 C507.105714,236.3 506.025714,237.08 504.625714,237.08 C502.705714,237.08 501.245714,235.56 501.205714,233.68 L508.965714,233.68 C508.985714,233.44 508.985714,233.22 508.985714,233.04 C508.985714,230.48 507.445714,228.4 504.505714,228.4 C501.845714,228.4 499.785714,230.5 499.785714,233.32 C499.785714,236.14 501.845714,238.24 504.625714,238.24 Z M507.605714,232.6 L501.225714,232.6 C501.345714,231 502.685714,229.54 504.505714,229.54 C506.445714,229.54 507.525714,230.84 507.605714,232.6 Z M522.382857,238.12 C523.002857,238.12 523.502857,238.02 523.982857,237.84 L523.922857,236.66 C523.562857,236.84 523.122857,236.96 522.742857,236.96 C521.922857,236.96 521.342857,236.64 521.342857,235.24 L521.342857,229.78 L523.982857,229.78 L523.982857,228.64 L521.342857,228.64 L521.342857,226 L519.982857,226 L519.982857,228.64 L518.042857,228.64 L518.042857,229.78 L519.982857,229.78 L519.982857,235.62 C519.982857,237.68 521.382857,238.12 522.382857,238.12 Z M528.231429,226 C528.711429,226 529.191429,225.6 529.191429,225.04 C529.191429,224.48 528.711429,224.08 528.231429,224.08 C527.751429,224.08 527.271429,224.48 527.271429,225.04 C527.271429,225.6 527.751429,226 528.231429,226 Z M528.911429,238 L528.911429,228.64 L527.551429,228.64 L527.551429,238 L528.911429,238 Z M535.32,238 L535.32,233.2 C535.32,230.7 536.74,229.54 538.04,229.54 C539.86,229.54 540.3,230.72 540.3,232.54 L540.3,238 L541.66,238 L541.66,233.02 C541.66,231.28 542.36,229.54 544.32,229.54 C546.08,229.54 546.74,230.86 546.74,232.82 L546.74,238 L548.1,238 L548.1,232.26 C548.1,229.94 546.92,228.4 544.54,228.4 C543.04,228.4 541.9,229.1 541.26,230.38 C540.64,228.78 539.4,228.4 538.38,228.4 C537.04,228.4 535.84,229.16 535.3,230.24 L535.26,230.24 C535.26,229.84 535.22,229.14 535.18,228.64 L533.88,228.64 C533.9325,229.2 533.954375,229.974375 533.959023,230.49418 L533.96,238 L535.32,238 Z M557.208571,238.24 C558.748571,238.24 560.128571,237.66 561.228571,236.26 L560.208571,235.46 C559.688571,236.3 558.608571,237.08 557.208571,237.08 C555.288571,237.08 553.828571,235.56 553.788571,233.68 L561.548571,233.68 C561.568571,233.44 561.568571,233.22 561.568571,233.04 C561.568571,230.48 560.028571,228.4 557.088571,228.4 C554.428571,228.4 552.368571,230.5 552.368571,233.32 C552.368571,236.14 554.428571,238.24 557.208571,238.24 Z M560.188571,232.6 L553.808571,232.6 C553.928571,231 555.268571,229.54 557.088571,229.54 C559.028571,229.54 560.108571,230.84 560.188571,232.6 Z M574.885714,238.24 C576.385714,238.24 577.425714,237.72 578.285714,236.48 L578.325714,236.48 C578.325714,236.98 578.385714,237.54 578.465714,238 L579.685714,238 C579.585714,237.48 579.525714,236.62 579.525714,235.9 L579.525714,231.8 C579.525714,229.52 577.905714,228.4 575.885714,228.4 C574.285714,228.4 572.965714,228.98 572.205714,229.74 L572.965714,230.64 C573.625714,229.98 574.645714,229.54 575.745714,229.54 C577.365714,229.54 578.245714,230.34 578.245714,231.96 L578.245714,232.26 C574.825714,232.26 571.645714,232.52 571.645714,235.4 C571.645714,237.48 573.465714,238.24 574.885714,238.24 Z M575.245714,237.12 C574.185714,237.12 573.045714,236.68 573.045714,235.34 C573.045714,233.56 575.625714,233.32 577.845714,233.32 L578.245714,233.32 L578.245714,234.02 C578.245714,235.68 577.165714,237.12 575.245714,237.12 Z M586.874286,238.12 C587.494286,238.12 587.994286,238.02 588.474286,237.84 L588.414286,236.66 C588.054286,236.84 587.614286,236.96 587.234286,236.96 C586.414286,236.96 585.834286,236.64 585.834286,235.24 L585.834286,229.78 L588.474286,229.78 L588.474286,228.64 L585.834286,228.64 L585.834286,226 L584.474286,226 L584.474286,228.64 L582.534286,228.64 L582.534286,229.78 L584.474286,229.78 L584.474286,235.62 C584.474286,237.68 585.874286,238.12 586.874286,238.12 Z M376.5,250 C376.98,250 377.46,249.6 377.46,249.04 C377.46,248.48 376.98,248.08 376.5,248.08 C376.02,248.08 375.54,248.48 375.54,249.04 C375.54,249.6 376.02,250 376.5,250 Z M377.18,262 L377.18,252.64 L375.82,252.64 L375.82,262 L377.18,262 Z M383.588571,262 L383.588571,257.2 C383.588571,254.7 384.988571,253.54 386.428571,253.54 C388.388571,253.54 388.968571,254.86 388.968571,256.82 L388.968571,262 L390.328571,262 L390.328571,256.26 C390.328571,253.94 389.148571,252.4 386.768571,252.4 C385.448571,252.4 384.088571,253.16 383.568571,254.24 L383.528571,254.24 C383.528571,253.84 383.488571,253.14 383.448571,252.64 L382.148571,252.64 C382.208571,253.28 382.228571,254.2 382.228571,254.7 L382.228571,262 L383.588571,262 Z M397.897143,262.12 C398.517143,262.12 399.017143,262.02 399.497143,261.84 L399.437143,260.66 C399.077143,260.84 398.637143,260.96 398.257143,260.96 C397.437143,260.96 396.857143,260.64 396.857143,259.24 L396.857143,253.78 L399.497143,253.78 L399.497143,252.64 L396.857143,252.64 L396.857143,250 L395.497143,250 L395.497143,252.64 L393.557143,252.64 L393.557143,253.78 L395.497143,253.78 L395.497143,259.62 C395.497143,261.68 396.897143,262.12 397.897143,262.12 Z M407.205714,262.24 C408.745714,262.24 410.125714,261.66 411.225714,260.26 L410.205714,259.46 C409.685714,260.3 408.605714,261.08 407.205714,261.08 C405.285714,261.08 403.825714,259.56 403.785714,257.68 L411.545714,257.68 C411.565714,257.44 411.565714,257.22 411.565714,257.04 C411.565714,254.48 410.025714,252.4 407.085714,252.4 C404.425714,252.4 402.365714,254.5 402.365714,257.32 C402.365714,260.14 404.425714,262.24 407.205714,262.24 Z M410.185714,256.6 L403.805714,256.6 C403.925714,255 405.265714,253.54 407.085714,253.54 C409.025714,253.54 410.105714,254.84 410.185714,256.6 Z M417.274286,262 L417.274286,257.2 C417.274286,254.7 418.574286,253.66 420.014286,253.66 C420.374286,253.66 420.814286,253.72 420.974286,253.78 L421.154286,252.5 C420.874286,252.42 420.594286,252.4 420.254286,252.4 C418.934286,252.4 417.774286,253.16 417.254286,254.24 L417.214286,254.24 C417.214286,253.84 417.174286,253.14 417.134286,252.64 L415.834286,252.64 C415.894286,253.28 415.914286,254.2 415.914286,254.7 L415.914286,262 L417.274286,262 Z M426.842857,262.24 C428.342857,262.24 429.382857,261.72 430.242857,260.48 L430.282857,260.48 C430.282857,260.98 430.342857,261.54 430.422857,262 L431.642857,262 C431.542857,261.48 431.482857,260.62 431.482857,259.9 L431.482857,255.8 C431.482857,253.52 429.862857,252.4 427.842857,252.4 C426.242857,252.4 424.922857,252.98 424.162857,253.74 L424.922857,254.64 C425.582857,253.98 426.602857,253.54 427.702857,253.54 C429.322857,253.54 430.202857,254.34 430.202857,255.96 L430.202857,256.26 L429.738257,256.261833 C426.500336,256.28905 423.602857,256.650909 423.602857,259.4 C423.602857,261.48 425.422857,262.24 426.842857,262.24 Z M427.202857,261.12 C426.142857,261.12 425.002857,260.68 425.002857,259.34 C425.002857,257.56 427.582857,257.32 429.802857,257.32 L430.202857,257.32 L430.202857,258.02 C430.202857,259.68 429.122857,261.12 427.202857,261.12 Z M440.731429,262.24 C442.351429,262.24 443.491429,261.6 444.291429,260.62 L443.271429,259.86 C442.731429,260.58 441.911429,261.08 440.731429,261.08 C438.551429,261.08 437.171429,259.44 437.171429,257.32 C437.171429,255.18 438.571429,253.54 440.751429,253.54 C441.771429,253.54 442.711429,254.06 443.151429,254.78 L444.211429,254.02 C443.411429,252.94 441.991429,252.4 440.731429,252.4 C437.711429,252.4 435.731429,254.5 435.731429,257.32 C435.731429,260.14 437.711429,262.24 440.731429,262.24 Z M450.46,262.12 C451.08,262.12 451.58,262.02 452.06,261.84 L452,260.66 C451.64,260.84 451.2,260.96 450.82,260.96 C450,260.96 449.42,260.64 449.42,259.24 L449.42,253.78 L452.06,253.78 L452.06,252.64 L449.42,252.64 L449.42,250 L448.06,250 L448.06,252.64 L446.12,252.64 L446.12,253.78 L448.06,253.78 L448.06,259.62 C448.06,261.68 449.46,262.12 450.46,262.12 Z M456.308571,250 C456.788571,250 457.268571,249.6 457.268571,249.04 C457.268571,248.48 456.788571,248.08 456.308571,248.08 C455.828571,248.08 455.348571,248.48 455.348571,249.04 C455.348571,249.6 455.828571,250 456.308571,250 Z M456.988571,262 L456.988571,252.64 L455.628571,252.64 L455.628571,262 L456.988571,262 Z M465.877143,262 L469.677143,252.64 L468.217143,252.64 L465.157143,260.56 L465.117143,260.56 L462.077143,252.64 L460.557143,252.64 L464.377143,262 L465.877143,262 Z M477.385714,262.24 C478.925714,262.24 480.305714,261.66 481.405714,260.26 L480.385714,259.46 C479.865714,260.3 478.785714,261.08 477.385714,261.08 C475.465714,261.08 474.005714,259.56 473.965714,257.68 L481.725714,257.68 C481.745714,257.44 481.745714,257.22 481.745714,257.04 C481.745714,254.48 480.205714,252.4 477.265714,252.4 C474.605714,252.4 472.545714,254.5 472.545714,257.32 C472.545714,260.14 474.605714,262.24 477.385714,262.24 Z M480.365714,256.6 L473.985714,256.6 C474.105714,255 475.445714,253.54 477.265714,253.54 C479.205714,253.54 480.285714,254.84 480.365714,256.6 Z M496.682857,262.24 C498.222857,262.24 499.602857,261.66 500.702857,260.26 L499.682857,259.46 C499.162857,260.3 498.082857,261.08 496.682857,261.08 C494.762857,261.08 493.302857,259.56 493.262857,257.68 L501.022857,257.68 C501.042857,257.44 501.042857,257.22 501.042857,257.04 C501.042857,254.48 499.502857,252.4 496.562857,252.4 C493.902857,252.4 491.842857,254.5 491.842857,257.32 C491.842857,260.14 493.902857,262.24 496.682857,262.24 Z M499.662857,256.6 L493.282857,256.6 C493.402857,255 494.742857,253.54 496.562857,253.54 C498.502857,253.54 499.582857,254.84 499.662857,256.6 Z M505.431429,262 L508.291429,258.1 L511.071429,262 L512.831429,262 L509.111429,257.1 L512.511429,252.64 L510.871429,252.64 L508.311429,256.2 L505.751429,252.64 L504.011429,252.64 L507.471429,257.16 L503.791429,262 L505.431429,262 Z M517.78,262 L517.78,257.2 C517.78,254.7 519.18,253.54 520.62,253.54 C522.58,253.54 523.16,254.86 523.16,256.82 L523.16,262 L524.52,262 L524.52,256.26 C524.52,253.94 523.34,252.4 520.96,252.4 C519.64,252.4 518.32,253.1 517.82,254.18 L517.78,254.18 L517.78,246.88 L516.42,246.88 L516.42,262 L517.78,262 Z M530.168571,250 C530.648571,250 531.128571,249.6 531.128571,249.04 C531.128571,248.48 530.648571,248.08 530.168571,248.08 C529.688571,248.08 529.208571,248.48 529.208571,249.04 C529.208571,249.6 529.688571,250 530.168571,250 Z M530.848571,262 L530.848571,252.64 L529.488571,252.64 L529.488571,262 L530.848571,262 Z M540.877143,262.24 C543.797143,262.24 545.717143,260.08 545.717143,257.32 C545.717143,254.56 543.797143,252.4 540.877143,252.4 C539.537143,252.4 538.137143,253.04 537.337143,254.26 L537.297143,254.26 L537.297143,246.88 L535.937143,246.88 L535.937143,262 L537.297143,262 L537.297143,260.42 L537.337143,260.42 C538.137143,261.6 539.537143,262.24 540.877143,262.24 Z M540.737143,261.08 C538.637143,261.08 537.137143,259.46 537.137143,257.32 C537.137143,255.18 538.637143,253.54 540.737143,253.54 C542.997143,253.54 544.277143,255.24 544.277143,257.32 C544.277143,259.4 542.997143,261.08 540.737143,261.08 Z M550.765714,250 C551.245714,250 551.725714,249.6 551.725714,249.04 C551.725714,248.48 551.245714,248.08 550.765714,248.08 C550.285714,248.08 549.805714,248.48 549.805714,249.04 C549.805714,249.6 550.285714,250 550.765714,250 Z M551.445714,262 L551.445714,252.64 L550.085714,252.64 L550.085714,262 L551.445714,262 Z M559.114286,262.12 C559.734286,262.12 560.234286,262.02 560.714286,261.84 L560.654286,260.66 C560.294286,260.84 559.854286,260.96 559.474286,260.96 C558.654286,260.96 558.074286,260.64 558.074286,259.24 L558.074286,253.78 L560.714286,253.78 L560.714286,252.64 L558.074286,252.64 L558.074286,250 L556.714286,250 L556.714286,252.64 L554.774286,252.64 L554.774286,253.78 L556.714286,253.78 L556.714286,259.62 C556.714286,261.68 558.114286,262.12 559.114286,262.12 Z M566.922857,262.24 C568.642857,262.24 570.442857,261.48 570.442857,259.34 C570.442857,257.88 569.402857,257.06 567.202857,256.6 C565.662857,256.28 564.962857,255.88 564.962857,255 C564.962857,253.96 565.962857,253.54 566.942857,253.54 C567.982857,253.54 568.842857,254.08 569.242857,254.86 L570.282857,254.08 C569.682857,253.02 568.302857,252.4 567.002857,252.4 C565.302857,252.4 563.662857,253.22 563.662857,255.12 C563.662857,256.9 565.242857,257.38 566.342857,257.64 C568.122857,258.06 569.102857,258.46 569.102857,259.44 C569.102857,260.66 568.062857,261.08 566.902857,261.08 C565.802857,261.08 564.782857,260.44 564.302857,259.62 L563.222857,260.42 C564.082857,261.68 565.502857,262.24 566.922857,262.24 Z" id="Spendsmoretimeatinteractiveexhibits" fill="#000000" fill-rule="nonzero"></path>
        <path d="M380.42,306 L380.42,293.12 L385.16,293.12 L385.16,291.84 L374.24,291.84 L374.24,293.12 L378.98,293.12 L378.98,306 L380.42,306 Z M391.008571,306.24 C393.928571,306.24 396.008571,304.14 396.008571,301.32 C396.008571,298.5 393.928571,296.4 391.008571,296.4 C388.108571,296.4 386.028571,298.5 386.028571,301.32 C386.028571,304.14 388.108571,306.24 391.008571,306.24 Z M391.008571,305.08 C388.848571,305.08 387.468571,303.42 387.468571,301.32 C387.468571,299.22 388.848571,297.54 391.008571,297.54 C393.188571,297.54 394.568571,299.22 394.568571,301.32 C394.568571,303.42 393.188571,305.08 391.008571,305.08 Z M403.837143,306.24 C405.157143,306.24 406.517143,305.48 407.037143,304.4 L407.077143,304.4 C407.077143,304.8 407.117143,305.5 407.157143,306 L408.457143,306 C408.397143,305.36 408.377143,304.44 408.377143,303.94 L408.377143,296.64 L407.017143,296.64 L407.017143,301.44 C407.017143,303.94 405.617143,305.1 404.177143,305.1 C402.217143,305.1 401.637143,303.78 401.637143,301.82 L401.637143,296.64 L400.277143,296.64 L400.277143,302.38 C400.277143,304.7 401.457143,306.24 403.837143,306.24 Z M417.725714,306.24 C419.345714,306.24 420.485714,305.6 421.285714,304.62 L420.265714,303.86 C419.725714,304.58 418.905714,305.08 417.725714,305.08 C415.545714,305.08 414.165714,303.44 414.165714,301.32 C414.165714,299.18 415.565714,297.54 417.745714,297.54 C418.765714,297.54 419.705714,298.06 420.145714,298.78 L421.205714,298.02 C420.405714,296.94 418.985714,296.4 417.725714,296.4 C414.705714,296.4 412.725714,298.5 412.725714,301.32 C412.725714,304.14 414.705714,306.24 417.725714,306.24 Z M426.234286,306 L426.234286,301.2 C426.234286,298.7 427.634286,297.54 429.074286,297.54 C431.034286,297.54 431.614286,298.86 431.614286,300.82 L431.614286,306 L432.974286,306 L432.974286,300.26 C432.974286,297.94 431.794286,296.4 429.414286,296.4 C428.094286,296.4 426.774286,297.1 426.274286,298.18 L426.234286,298.18 L426.234286,290.88 L424.874286,290.88 L424.874286,306 L426.234286,306 Z M442.082857,306.24 C443.622857,306.24 445.002857,305.66 446.102857,304.26 L445.082857,303.46 C444.562857,304.3 443.482857,305.08 442.082857,305.08 C440.162857,305.08 438.702857,303.56 438.662857,301.68 L446.422857,301.68 C446.442857,301.44 446.442857,301.22 446.442857,301.04 C446.442857,298.48 444.902857,296.4 441.962857,296.4 C439.302857,296.4 437.242857,298.5 437.242857,301.32 C437.242857,304.14 439.302857,306.24 442.082857,306.24 Z M445.062857,300.6 L438.682857,300.6 C438.802857,299 440.142857,297.54 441.962857,297.54 C443.902857,297.54 444.982857,298.84 445.062857,300.6 Z M453.451429,306.24 C455.171429,306.24 456.971429,305.48 456.971429,303.34 C456.971429,301.88 455.931429,301.06 453.731429,300.6 C452.191429,300.28 451.491429,299.88 451.491429,299 C451.491429,297.96 452.491429,297.54 453.471429,297.54 C454.511429,297.54 455.371429,298.08 455.771429,298.86 L456.811429,298.08 C456.211429,297.02 454.831429,296.4 453.531429,296.4 C451.831429,296.4 450.191429,297.22 450.191429,299.12 C450.191429,300.9 451.771429,301.38 452.871429,301.64 C454.651429,302.06 455.631429,302.46 455.631429,303.44 C455.631429,304.66 454.591429,305.08 453.431429,305.08 C452.331429,305.08 451.311429,304.44 450.831429,303.62 L449.751429,304.42 C450.611429,305.68 452.031429,306.24 453.451429,306.24 Z M471.688571,306.24 C473.228571,306.24 474.608571,305.66 475.708571,304.26 L474.688571,303.46 C474.168571,304.3 473.088571,305.08 471.688571,305.08 C469.768571,305.08 468.308571,303.56 468.268571,301.68 L476.028571,301.68 C476.048571,301.44 476.048571,301.22 476.048571,301.04 C476.048571,298.48 474.508571,296.4 471.568571,296.4 C468.908571,296.4 466.848571,298.5 466.848571,301.32 C466.848571,304.14 468.908571,306.24 471.688571,306.24 Z M474.668571,300.6 L468.288571,300.6 C468.408571,299 469.748571,297.54 471.568571,297.54 C473.508571,297.54 474.588571,298.84 474.668571,300.6 Z M480.437143,306 L483.297143,302.1 L486.077143,306 L487.837143,306 L484.117143,301.1 L487.517143,296.64 L485.877143,296.64 L483.317143,300.2 L480.757143,296.64 L479.017143,296.64 L482.477143,301.16 L478.797143,306 L480.437143,306 Z M492.785714,306 L492.785714,301.2 C492.785714,298.7 494.185714,297.54 495.625714,297.54 C497.585714,297.54 498.165714,298.86 498.165714,300.82 L498.165714,306 L499.525714,306 L499.525714,300.26 C499.525714,297.94 498.345714,296.4 495.965714,296.4 C494.645714,296.4 493.325714,297.1 492.825714,298.18 L492.785714,298.18 L492.785714,290.88 L491.425714,290.88 L491.425714,306 L492.785714,306 Z M505.174286,294 C505.654286,294 506.134286,293.6 506.134286,293.04 C506.134286,292.48 505.654286,292.08 505.174286,292.08 C504.694286,292.08 504.214286,292.48 504.214286,293.04 C504.214286,293.6 504.694286,294 505.174286,294 Z M505.854286,306 L505.854286,296.64 L504.494286,296.64 L504.494286,306 L505.854286,306 Z M515.882857,306.24 C518.802857,306.24 520.722857,304.08 520.722857,301.32 C520.722857,298.56 518.802857,296.4 515.882857,296.4 C514.542857,296.4 513.142857,297.04 512.342857,298.26 L512.302857,298.26 L512.302857,290.88 L510.942857,290.88 L510.942857,306 L512.302857,306 L512.302857,304.42 L512.342857,304.42 C513.142857,305.6 514.542857,306.24 515.882857,306.24 Z M515.742857,305.08 C513.642857,305.08 512.142857,303.46 512.142857,301.32 C512.142857,299.18 513.642857,297.54 515.742857,297.54 C518.002857,297.54 519.282857,299.24 519.282857,301.32 C519.282857,303.4 518.002857,305.08 515.742857,305.08 Z M525.771429,294 C526.251429,294 526.731429,293.6 526.731429,293.04 C526.731429,292.48 526.251429,292.08 525.771429,292.08 C525.291429,292.08 524.811429,292.48 524.811429,293.04 C524.811429,293.6 525.291429,294 525.771429,294 Z M526.451429,306 L526.451429,296.64 L525.091429,296.64 L525.091429,306 L526.451429,306 Z M534.12,306.12 C534.74,306.12 535.24,306.02 535.72,305.84 L535.66,304.66 C535.3,304.84 534.86,304.96 534.48,304.96 C533.66,304.96 533.08,304.64 533.08,303.24 L533.08,297.78 L535.72,297.78 L535.72,296.64 L533.08,296.64 L533.08,294 L531.72,294 L531.72,296.64 L529.78,296.64 L529.78,297.78 L531.72,297.78 L531.72,303.62 C531.72,305.68 533.12,306.12 534.12,306.12 Z M541.928571,306.24 C543.648571,306.24 545.448571,305.48 545.448571,303.34 C545.448571,301.88 544.408571,301.06 542.208571,300.6 C540.668571,300.28 539.968571,299.88 539.968571,299 C539.968571,297.96 540.968571,297.54 541.948571,297.54 C542.988571,297.54 543.848571,298.08 544.248571,298.86 L545.288571,298.08 C544.688571,297.02 543.308571,296.4 542.008571,296.4 C540.308571,296.4 538.668571,297.22 538.668571,299.12 C538.668571,300.9 540.248571,301.38 541.348571,301.64 C543.128571,302.06 544.108571,302.46 544.108571,303.44 C544.108571,304.66 543.068571,305.08 541.908571,305.08 C540.808571,305.08 539.788571,304.44 539.308571,303.62 L538.228571,304.42 C539.088571,305.68 540.508571,306.24 541.928571,306.24 Z M560.305714,306.24 C563.225714,306.24 565.305714,304.14 565.305714,301.32 C565.305714,298.5 563.225714,296.4 560.305714,296.4 C557.405714,296.4 555.325714,298.5 555.325714,301.32 C555.325714,304.14 557.405714,306.24 560.305714,306.24 Z M560.305714,305.08 C558.145714,305.08 556.765714,303.42 556.765714,301.32 C556.765714,299.22 558.145714,297.54 560.305714,297.54 C562.485714,297.54 563.865714,299.22 563.865714,301.32 C563.865714,303.42 562.485714,305.08 560.305714,305.08 Z M571.414286,306 L571.414286,297.78 L573.614286,297.78 L573.614286,296.64 L571.414286,296.64 L571.414286,294.24 C571.414286,292.88 571.714286,291.84 573.174286,291.84 C573.534286,291.84 573.834286,291.9 574.114286,291.98 L574.354286,290.78 C574.014286,290.68 573.574286,290.64 573.234286,290.64 C571.094286,290.64 570.054286,291.96 570.054286,294.08 L570.054286,296.64 L568.094286,296.64 L568.094286,297.78 L570.054286,297.78 L570.054286,306 L571.414286,306 Z M579.362857,306.12 C579.982857,306.12 580.482857,306.02 580.962857,305.84 L580.902857,304.66 C580.542857,304.84 580.102857,304.96 579.722857,304.96 C578.902857,304.96 578.322857,304.64 578.322857,303.24 L578.322857,297.78 L580.962857,297.78 L580.962857,296.64 L578.322857,296.64 L578.322857,294 L576.962857,294 L576.962857,296.64 L575.022857,296.64 L575.022857,297.78 L576.962857,297.78 L576.962857,303.62 C576.962857,305.68 578.362857,306.12 579.362857,306.12 Z M588.671429,306.24 C590.211429,306.24 591.591429,305.66 592.691429,304.26 L591.671429,303.46 C591.151429,304.3 590.071429,305.08 588.671429,305.08 C586.751429,305.08 585.291429,303.56 585.251429,301.68 L593.011429,301.68 C593.031429,301.44 593.031429,301.22 593.031429,301.04 C593.031429,298.48 591.491429,296.4 588.551429,296.4 C585.891429,296.4 583.831429,298.5 583.831429,301.32 C583.831429,304.14 585.891429,306.24 588.671429,306.24 Z M591.651429,300.6 L585.271429,300.6 C585.391429,299 586.731429,297.54 588.551429,297.54 C590.491429,297.54 591.571429,298.84 591.651429,300.6 Z M598.74,306 L598.74,301.2 C598.74,298.7 600.14,297.54 601.58,297.54 C603.54,297.54 604.12,298.86 604.12,300.82 L604.12,306 L605.48,306 L605.48,300.26 C605.48,297.94 604.3,296.4 601.92,296.4 C600.6,296.4 599.24,297.16 598.72,298.24 L598.68,298.24 C598.68,297.84 598.64,297.14 598.6,296.64 L597.3,296.64 C597.3525,297.2 597.374375,297.974375 597.379023,298.49418 L597.38,306 L598.74,306 Z" id="Touchesexhibitsoften" fill="#000000" fill-rule="nonzero"></path>
        <circle id="Oval" fill="#666666" cx="357" cy="163" r="3"></circle>
        <circle id="Oval" fill="#666666" cx="357" cy="232" r="3"></circle>
        <circle id="Oval" fill="#666666" cx="357" cy="299" r="3"></circle>
        <g id="Group" transform="translate(91.000000, 141.000000) rotate(-49.000000) translate(-91.000000, -141.000000) translate(64.000000, 124.000000)" fill-rule="nonzero">
            <path d="M9.13529617,0.146616572 C12.1520205,0.959398904 16.2988258,1.82713984 20.9269433,5.51844223 L28.4584762,11.5255692 L37.9679014,10.110259 C43.7692173,9.24705597 47.7530783,10.5524489 50.8505227,11.3874164 C53.1167009,11.9980116 54.4613668,14.3405591 53.8542116,16.6195766 L50.0673877,30.832679 C49.4602324,33.1116965 47.130882,34.4639808 44.8647038,33.8533856 C36.067721,31.4831066 36.0025433,30.818057 25.5415238,22.4739287 C12.1805985,24.4625227 11.864236,24.9606796 3.14947727,22.6120816 C0.883299075,22.0014864 -0.461366834,19.6589388 0.145788429,17.3799214 L3.9326123,3.16681891 C4.53976756,0.88830566 6.86911798,-0.463978591 9.13529617,0.146616572 L9.13529617,0.146616572 Z" id="Path" fill="#F9A7A7"></path>
            <path d="M22.0002844,24.7248309 L26.3441265,25.906039 C27.7836936,26.2973939 29.2629833,25.4304943 29.6486445,23.9701844 L32.907406,11.6284734 C33.2930672,10.1676532 32.4387799,8.666524 30.9997156,8.2751691 L26.6558735,7.09396102 C25.2163064,6.70260612 23.7370167,7.5695057 23.3513555,9.02981564 L20.092594,21.3715266 C19.7069328,22.8323468 20.5612201,24.333476 22.0002844,24.7248309 Z" id="Path" fill="#E0EBFC"></path>
        </g>
    </g>
</svg>