<?xml version="1.0" encoding="UTF-8"?>
<svg width="689px" height="398px" viewBox="0 0 689 398" version="1.1" xmlns="http://www.w3.org/2000/svg" xmlns:xlink="http://www.w3.org/1999/xlink">
    <title>userData2</title>
    <g id="userData2" stroke="none" stroke-width="1" fill="none" fill-rule="evenodd">
        <rect fill="#FFFFFF" x="0" y="0" width="689" height="398"></rect>
        <path d="M375.772,130 L375.772,117.401 L379.943,117.401 C386.393,117.401 391.768,115.079 391.768,108.371 C391.768,102.007 387.253,99.556 380.287,99.556 L370.354,99.556 L370.354,130 L375.772,130 Z M379.556,112.843 L375.772,112.843 L375.772,104.114 L379.728,104.114 C383.082,104.114 386.307,104.759 386.307,108.371 C386.307,111.983 383.082,112.843 379.556,112.843 Z M403.267429,130.516 C406.191429,130.516 408.642429,129.183 409.674429,127.377 L409.803429,127.377 L409.803429,130 L414.619429,130 L414.619429,117.444 C414.619429,113.316 412.813429,108.758 405.417429,108.758 C402.278429,108.758 399.010429,109.876 396.688429,112.026 L399.354429,115.165 C400.687429,113.832 402.794429,112.8 404.987429,112.8 C407.567429,112.8 409.717429,114.047 409.717429,116.584 L409.717429,117.1 C403.267429,117.1 395.527429,117.96 395.527429,124.109 C395.527429,128.925 399.956429,130.516 403.267429,130.516 Z M404.299429,126.603 C402.536429,126.603 400.687429,126.001 400.687429,124.023 C400.687429,120.97 405.288429,120.583 408.556429,120.583 L409.717429,120.583 L409.717429,121.314 C409.717429,124.582 407.825429,126.603 404.299429,126.603 Z M428.870857,130 L428.870857,118.949 C428.870857,117.444 429.773857,113.402 434.417857,113.402 C434.890857,113.402 435.320857,113.445 436.008857,113.617 L436.008857,108.887 C435.664857,108.801 435.148857,108.758 434.761857,108.758 C432.052857,108.758 429.859857,110.435 428.741857,112.8 L428.655857,112.8 L428.655857,109.36 L423.710857,109.36 L423.710857,130 L428.870857,130 Z M451.550286,130.602 C455.463286,130.602 458.387286,129.226 460.408286,126.474 L456.968286,123.722 C455.807286,125.356 454.087286,126.388 451.507286,126.388 C448.497286,126.388 445.831286,124.238 445.616286,121.314 L461.311286,121.314 C461.354286,120.841 461.354286,120.411 461.354286,119.938 C461.354286,112.499 457.140286,108.758 451.378286,108.758 C445.143286,108.758 440.456286,113.144 440.456286,119.809 C440.456286,126.517 445.186286,130.602 451.550286,130.602 Z M456.194286,117.616 L445.616286,117.616 C445.831286,114.735 448.282286,112.628 451.335286,112.628 C454.689286,112.628 456.194286,114.95 456.194286,117.616 Z M474.573714,130 L474.573714,118.648 C474.573714,115.896 476.121714,113.058 479.389714,113.058 C482.700714,113.058 483.259714,116.111 483.259714,118.562 L483.259714,130 L488.419714,130 L488.419714,117.1 C488.419714,112.886 486.183714,108.758 480.808714,108.758 C477.755714,108.758 475.304714,110.607 474.401714,112.671 L474.315714,112.671 L474.315714,109.36 L469.413714,109.36 L469.413714,130 L474.573714,130 Z M504.864143,130.43 C506.025143,130.43 507.401143,130.215 508.304143,129.871 L508.132143,125.829 C507.530143,126.13 506.627143,126.259 505.939143,126.259 C503.660143,126.259 503.230143,124.926 503.230143,123.077 L503.230143,113.488 L508.390143,113.488 L508.390143,109.36 L503.230143,109.36 L503.230143,103.383 L498.156143,103.383 L498.156143,109.36 L494.544143,109.36 L494.544143,113.488 L498.156143,113.488 L498.156143,123.12 C498.156143,127.076 499.403143,130.43 504.864143,130.43 Z M521.222571,130.602 C525.737571,130.602 529.822571,128.753 529.822571,123.722 C529.822571,119.68 526.210571,118.304 523.157571,117.573 C520.276571,116.885 518.685571,116.455 518.685571,114.864 C518.685571,113.23 520.362571,112.628 521.996571,112.628 C523.888571,112.628 525.608571,113.66 526.511571,114.864 L529.865571,111.897 C528.188571,109.79 525.092571,108.758 522.125571,108.758 C518.040571,108.758 513.912571,110.736 513.912571,115.337 C513.912571,119.207 516.965571,120.454 520.018571,121.185 C523.157571,121.916 524.748571,122.432 524.748571,124.152 C524.748571,126.001 522.942571,126.603 521.437571,126.603 C519.201571,126.603 517.266571,125.485 516.148571,124.023 L512.751571,127.205 C514.729571,129.398 518.040571,130.602 521.222571,130.602 Z" id="Parents" fill="#065FD4" fill-rule="nonzero"></path>
        <path d="M384.32,176 L384.32,169.38 L386.72,169.38 L390.64,176 L392.4,176 L388.26,169.26 C390.32,169.04 391.88,167.72 391.88,165.62 C391.88,162.86 389.84,161.84 387.04,161.84 L382.88,161.84 L382.88,176 L384.32,176 Z M386.82,168.14 L384.32,168.14 L384.32,163.08 L386.88,163.08 C389.02,163.08 390.44,163.76 390.44,165.62 C390.44,167.3 389.12,168.14 386.82,168.14 Z M400.128571,176.24 C401.668571,176.24 403.048571,175.66 404.148571,174.26 L403.128571,173.46 C402.608571,174.3 401.528571,175.08 400.128571,175.08 C398.208571,175.08 396.748571,173.56 396.708571,171.68 L404.468571,171.68 C404.488571,171.44 404.488571,171.22 404.488571,171.04 C404.488571,168.48 402.948571,166.4 400.008571,166.4 C397.348571,166.4 395.288571,168.5 395.288571,171.32 C395.288571,174.14 397.348571,176.24 400.128571,176.24 Z M403.108571,170.6 L396.728571,170.6 C396.848571,169 398.188571,167.54 400.008571,167.54 C401.948571,167.54 403.028571,168.84 403.108571,170.6 Z M412.677143,176 L416.477143,166.64 L415.017143,166.64 L411.957143,174.56 L411.917143,174.56 L408.877143,166.64 L407.357143,166.64 L411.177143,176 L412.677143,176 Z M420.725714,164 C421.205714,164 421.685714,163.6 421.685714,163.04 C421.685714,162.48 421.205714,162.08 420.725714,162.08 C420.245714,162.08 419.765714,162.48 419.765714,163.04 C419.765714,163.6 420.245714,164 420.725714,164 Z M421.405714,176 L421.405714,166.64 L420.045714,166.64 L420.045714,176 L421.405714,176 Z M429.114286,176.24 C430.834286,176.24 432.634286,175.48 432.634286,173.34 C432.634286,171.88 431.594286,171.06 429.394286,170.6 C427.854286,170.28 427.154286,169.88 427.154286,169 C427.154286,167.96 428.154286,167.54 429.134286,167.54 C430.174286,167.54 431.034286,168.08 431.434286,168.86 L432.474286,168.08 C431.874286,167.02 430.494286,166.4 429.194286,166.4 C427.494286,166.4 425.854286,167.22 425.854286,169.12 C425.854286,170.9 427.434286,171.38 428.534286,171.64 C430.314286,172.06 431.294286,172.46 431.294286,173.44 C431.294286,174.66 430.254286,175.08 429.094286,175.08 C427.994286,175.08 426.974286,174.44 426.494286,173.62 L425.414286,174.42 C426.274286,175.68 427.694286,176.24 429.114286,176.24 Z M437.462857,164 C437.942857,164 438.422857,163.6 438.422857,163.04 C438.422857,162.48 437.942857,162.08 437.462857,162.08 C436.982857,162.08 436.502857,162.48 436.502857,163.04 C436.502857,163.6 436.982857,164 437.462857,164 Z M438.142857,176 L438.142857,166.64 L436.782857,166.64 L436.782857,176 L438.142857,176 Z M445.811429,176.12 C446.431429,176.12 446.931429,176.02 447.411429,175.84 L447.351429,174.66 C446.991429,174.84 446.551429,174.96 446.171429,174.96 C445.351429,174.96 444.771429,174.64 444.771429,173.24 L444.771429,167.78 L447.411429,167.78 L447.411429,166.64 L444.771429,166.64 L444.771429,164 L443.411429,164 L443.411429,166.64 L441.471429,166.64 L441.471429,167.78 L443.411429,167.78 L443.411429,173.62 C443.411429,175.68 444.811429,176.12 445.811429,176.12 Z M453.62,176.24 C455.34,176.24 457.14,175.48 457.14,173.34 C457.14,171.88 456.1,171.06 453.9,170.6 C452.36,170.28 451.66,169.88 451.66,169 C451.66,167.96 452.66,167.54 453.64,167.54 C454.68,167.54 455.54,168.08 455.94,168.86 L456.98,168.08 C456.38,167.02 455,166.4 453.7,166.4 C452,166.4 450.36,167.22 450.36,169.12 C450.36,170.9 451.94,171.38 453.04,171.64 C454.82,172.06 455.8,172.46 455.8,173.44 C455.8,174.66 454.76,175.08 453.6,175.08 C452.5,175.08 451.48,174.44 451,173.62 L449.92,174.42 C450.78,175.68 452.2,176.24 453.62,176.24 Z M471.857143,176.24 C473.397143,176.24 474.777143,175.66 475.877143,174.26 L474.857143,173.46 C474.337143,174.3 473.257143,175.08 471.857143,175.08 C469.937143,175.08 468.477143,173.56 468.437143,171.68 L476.197143,171.68 C476.217143,171.44 476.217143,171.22 476.217143,171.04 C476.217143,168.48 474.677143,166.4 471.737143,166.4 C469.077143,166.4 467.017143,168.5 467.017143,171.32 C467.017143,174.14 469.077143,176.24 471.857143,176.24 Z M474.837143,170.6 L468.457143,170.6 C468.577143,169 469.917143,167.54 471.737143,167.54 C473.677143,167.54 474.757143,168.84 474.837143,170.6 Z M480.605714,176 L483.465714,172.1 L486.245714,176 L488.005714,176 L484.285714,171.1 L487.685714,166.64 L486.045714,166.64 L483.485714,170.2 L480.925714,166.64 L479.185714,166.64 L482.645714,171.16 L478.965714,176 L480.605714,176 Z M492.954286,176 L492.954286,171.2 C492.954286,168.7 494.354286,167.54 495.794286,167.54 C497.754286,167.54 498.334286,168.86 498.334286,170.82 L498.334286,176 L499.694286,176 L499.694286,170.26 C499.694286,167.94 498.514286,166.4 496.134286,166.4 C494.814286,166.4 493.494286,167.1 492.994286,168.18 L492.954286,168.18 L492.954286,160.88 L491.594286,160.88 L491.594286,176 L492.954286,176 Z M505.342857,164 C505.822857,164 506.302857,163.6 506.302857,163.04 C506.302857,162.48 505.822857,162.08 505.342857,162.08 C504.862857,162.08 504.382857,162.48 504.382857,163.04 C504.382857,163.6 504.862857,164 505.342857,164 Z M506.022857,176 L506.022857,166.64 L504.662857,166.64 L504.662857,176 L506.022857,176 Z M516.051429,176.24 C518.971429,176.24 520.891429,174.08 520.891429,171.32 C520.891429,168.56 518.971429,166.4 516.051429,166.4 C514.711429,166.4 513.311429,167.04 512.511429,168.26 L512.471429,168.26 L512.471429,160.88 L511.111429,160.88 L511.111429,176 L512.471429,176 L512.471429,174.42 L512.511429,174.42 C513.311429,175.6 514.711429,176.24 516.051429,176.24 Z M515.911429,175.08 C513.811429,175.08 512.311429,173.46 512.311429,171.32 C512.311429,169.18 513.811429,167.54 515.911429,167.54 C518.171429,167.54 519.451429,169.24 519.451429,171.32 C519.451429,173.4 518.171429,175.08 515.911429,175.08 Z M525.94,164 C526.42,164 526.9,163.6 526.9,163.04 C526.9,162.48 526.42,162.08 525.94,162.08 C525.46,162.08 524.98,162.48 524.98,163.04 C524.98,163.6 525.46,164 525.94,164 Z M526.62,176 L526.62,166.64 L525.26,166.64 L525.26,176 L526.62,176 Z M534.288571,176.12 C534.908571,176.12 535.408571,176.02 535.888571,175.84 L535.828571,174.66 C535.468571,174.84 535.028571,174.96 534.648571,174.96 C533.828571,174.96 533.248571,174.64 533.248571,173.24 L533.248571,167.78 L535.888571,167.78 L535.888571,166.64 L533.248571,166.64 L533.248571,164 L531.888571,164 L531.888571,166.64 L529.948571,166.64 L529.948571,167.78 L531.888571,167.78 L531.888571,173.62 C531.888571,175.68 533.288571,176.12 534.288571,176.12 Z M542.097143,176.24 C543.817143,176.24 545.617143,175.48 545.617143,173.34 C545.617143,171.88 544.577143,171.06 542.377143,170.6 C540.837143,170.28 540.137143,169.88 540.137143,169 C540.137143,167.96 541.137143,167.54 542.117143,167.54 C543.157143,167.54 544.017143,168.08 544.417143,168.86 L545.457143,168.08 C544.857143,167.02 543.477143,166.4 542.177143,166.4 C540.477143,166.4 538.837143,167.22 538.837143,169.12 C538.837143,170.9 540.417143,171.38 541.517143,171.64 C543.297143,172.06 544.277143,172.46 544.277143,173.44 C544.277143,174.66 543.237143,175.08 542.077143,175.08 C540.977143,175.08 539.957143,174.44 539.477143,173.62 L538.397143,174.42 C539.257143,175.68 540.677143,176.24 542.097143,176.24 Z" id="Revisitsexhibits" fill="#000000" fill-rule="nonzero"></path>
        <path d="M382.78,216 L384.32,212.28 L391.64,212.28 L393.2,216 L394.8,216 L388.72,201.84 L387.32,201.84 L381.2,216 L382.78,216 Z M391.1,210.96 L384.86,210.96 L387.98,203.44 L391.1,210.96 Z M400.888571,216.24 C402.608571,216.24 404.408571,215.48 404.408571,213.34 C404.408571,211.88 403.368571,211.06 401.168571,210.6 C399.628571,210.28 398.928571,209.88 398.928571,209 C398.928571,207.96 399.928571,207.54 400.908571,207.54 C401.948571,207.54 402.808571,208.08 403.208571,208.86 L404.248571,208.08 C403.648571,207.02 402.268571,206.4 400.968571,206.4 C399.268571,206.4 397.628571,207.22 397.628571,209.12 C397.628571,210.9 399.208571,211.38 400.308571,211.64 C402.088571,212.06 403.068571,212.46 403.068571,213.44 C403.068571,214.66 402.028571,215.08 400.868571,215.08 C399.768571,215.08 398.748571,214.44 398.268571,213.62 L397.188571,214.42 C398.048571,215.68 399.468571,216.24 400.888571,216.24 Z M409.937143,216 L409.937143,211.08 L409.997143,211.08 L414.757143,216 L416.757143,216 L411.557143,210.92 L416.277143,206.64 L414.317143,206.64 L409.997143,210.86 L409.937143,210.86 L409.937143,200.88 L408.577143,200.88 L408.577143,216 L409.937143,216 Z M422.705714,216.24 C424.425714,216.24 426.225714,215.48 426.225714,213.34 C426.225714,211.88 425.185714,211.06 422.985714,210.6 C421.445714,210.28 420.745714,209.88 420.745714,209 C420.745714,207.96 421.745714,207.54 422.725714,207.54 C423.765714,207.54 424.625714,208.08 425.025714,208.86 L426.065714,208.08 C425.465714,207.02 424.085714,206.4 422.785714,206.4 C421.085714,206.4 419.445714,207.22 419.445714,209.12 C419.445714,210.9 421.025714,211.38 422.125714,211.64 C423.905714,212.06 424.885714,212.46 424.885714,213.44 C424.885714,214.66 423.845714,215.08 422.685714,215.08 C421.585714,215.08 420.565714,214.44 420.085714,213.62 L419.005714,214.42 C419.865714,215.68 421.285714,216.24 422.705714,216.24 Z M439.322857,216.24 C440.822857,216.24 441.862857,215.72 442.722857,214.48 L442.762857,214.48 C442.762857,214.98 442.822857,215.54 442.902857,216 L444.122857,216 C444.022857,215.48 443.962857,214.62 443.962857,213.9 L443.962857,209.8 C443.962857,207.52 442.342857,206.4 440.322857,206.4 C438.722857,206.4 437.402857,206.98 436.642857,207.74 L437.402857,208.64 C438.062857,207.98 439.082857,207.54 440.182857,207.54 C441.802857,207.54 442.682857,208.34 442.682857,209.96 L442.682857,210.26 L442.218257,210.261833 C438.980336,210.28905 436.082857,210.650909 436.082857,213.4 C436.082857,215.48 437.902857,216.24 439.322857,216.24 Z M439.682857,215.12 C438.622857,215.12 437.482857,214.68 437.482857,213.34 C437.482857,211.56 440.062857,211.32 442.282857,211.32 L442.682857,211.32 L442.682857,212.02 C442.682857,213.68 441.602857,215.12 439.682857,215.12 Z M451.311429,216.12 C451.931429,216.12 452.431429,216.02 452.911429,215.84 L452.851429,214.66 C452.491429,214.84 452.051429,214.96 451.671429,214.96 C450.851429,214.96 450.271429,214.64 450.271429,213.24 L450.271429,207.78 L452.911429,207.78 L452.911429,206.64 L450.271429,206.64 L450.271429,204 L448.911429,204 L448.911429,206.64 L446.971429,206.64 L446.971429,207.78 L448.911429,207.78 L448.911429,213.62 C448.911429,215.68 450.311429,216.12 451.311429,216.12 Z M458.84,216.12 C459.46,216.12 459.96,216.02 460.44,215.84 L460.38,214.66 C460.02,214.84 459.58,214.96 459.2,214.96 C458.38,214.96 457.8,214.64 457.8,213.24 L457.8,207.78 L460.44,207.78 L460.44,206.64 L457.8,206.64 L457.8,204 L456.44,204 L456.44,206.64 L454.5,206.64 L454.5,207.78 L456.44,207.78 L456.44,213.62 C456.44,215.68 457.84,216.12 458.84,216.12 Z M468.148571,216.24 C469.688571,216.24 471.068571,215.66 472.168571,214.26 L471.148571,213.46 C470.628571,214.3 469.548571,215.08 468.148571,215.08 C466.228571,215.08 464.768571,213.56 464.728571,211.68 L472.488571,211.68 C472.508571,211.44 472.508571,211.22 472.508571,211.04 C472.508571,208.48 470.968571,206.4 468.028571,206.4 C465.368571,206.4 463.308571,208.5 463.308571,211.32 C463.308571,214.14 465.368571,216.24 468.148571,216.24 Z M471.128571,210.6 L464.748571,210.6 C464.868571,209 466.208571,207.54 468.028571,207.54 C469.968571,207.54 471.048571,208.84 471.128571,210.6 Z M478.217143,216 L478.217143,211.2 C478.217143,208.7 479.617143,207.54 481.057143,207.54 C483.017143,207.54 483.597143,208.86 483.597143,210.82 L483.597143,216 L484.957143,216 L484.957143,210.26 C484.957143,207.94 483.777143,206.4 481.397143,206.4 C480.077143,206.4 478.717143,207.16 478.197143,208.24 L478.157143,208.24 C478.157143,207.84 478.117143,207.14 478.077143,206.64 L476.777143,206.64 C476.837143,207.28 476.857143,208.2 476.857143,208.7 L476.857143,216 L478.217143,216 Z M494.065714,216.24 C495.405714,216.24 496.805714,215.6 497.605714,214.42 L497.645714,214.42 L497.645714,216 L499.005714,216 L499.005714,200.88 L497.645714,200.88 L497.645714,208.26 L497.605714,208.26 C496.805714,207.04 495.405714,206.4 494.065714,206.4 C491.145714,206.4 489.225714,208.56 489.225714,211.32 C489.225714,214.08 491.145714,216.24 494.065714,216.24 Z M494.205714,215.08 C491.945714,215.08 490.665714,213.4 490.665714,211.32 C490.665714,209.24 491.945714,207.54 494.205714,207.54 C496.305714,207.54 497.805714,209.18 497.805714,211.32 C497.805714,213.46 496.305714,215.08 494.205714,215.08 Z M506.614286,216.24 C508.114286,216.24 509.154286,215.72 510.014286,214.48 L510.054286,214.48 C510.054286,214.98 510.114286,215.54 510.194286,216 L511.414286,216 C511.314286,215.48 511.254286,214.62 511.254286,213.9 L511.254286,209.8 C511.254286,207.52 509.634286,206.4 507.614286,206.4 C506.014286,206.4 504.694286,206.98 503.934286,207.74 L504.694286,208.64 C505.354286,207.98 506.374286,207.54 507.474286,207.54 C509.094286,207.54 509.974286,208.34 509.974286,209.96 L509.974286,210.26 C506.554286,210.26 503.374286,210.52 503.374286,213.4 C503.374286,215.48 505.194286,216.24 506.614286,216.24 Z M506.974286,215.12 C505.914286,215.12 504.774286,214.68 504.774286,213.34 C504.774286,211.56 507.354286,211.32 509.574286,211.32 L509.974286,211.32 L509.974286,212.02 C509.974286,213.68 508.894286,215.12 506.974286,215.12 Z M517.542857,216 L517.542857,211.2 C517.542857,208.7 518.942857,207.54 520.382857,207.54 C522.342857,207.54 522.922857,208.86 522.922857,210.82 L522.922857,216 L524.282857,216 L524.282857,210.26 C524.282857,207.94 523.102857,206.4 520.722857,206.4 C519.402857,206.4 518.042857,207.16 517.522857,208.24 L517.482857,208.24 C517.482857,207.84 517.442857,207.14 517.402857,206.64 L516.102857,206.64 C516.162857,207.28 516.182857,208.2 516.182857,208.7 L516.182857,216 L517.542857,216 Z M531.851429,216.12 C532.471429,216.12 532.971429,216.02 533.451429,215.84 L533.391429,214.66 C533.031429,214.84 532.591429,214.96 532.211429,214.96 C531.391429,214.96 530.811429,214.64 530.811429,213.24 L530.811429,207.78 L533.451429,207.78 L533.451429,206.64 L530.811429,206.64 L530.811429,204 L529.451429,204 L529.451429,206.64 L527.511429,206.64 L527.511429,207.78 L529.451429,207.78 L529.451429,213.62 C529.451429,215.68 530.851429,216.12 531.851429,216.12 Z M539.66,216.24 C541.38,216.24 543.18,215.48 543.18,213.34 C543.18,211.88 542.14,211.06 539.94,210.6 C538.4,210.28 537.7,209.88 537.7,209 C537.7,207.96 538.7,207.54 539.68,207.54 C540.72,207.54 541.58,208.08 541.98,208.86 L543.02,208.08 C542.42,207.02 541.04,206.4 539.74,206.4 C538.04,206.4 536.4,207.22 536.4,209.12 C536.4,210.9 537.98,211.38 539.08,211.64 C540.86,212.06 541.84,212.46 541.84,213.44 C541.84,214.66 540.8,215.08 539.64,215.08 C538.54,215.08 537.52,214.44 537.04,213.62 L535.96,214.42 C536.82,215.68 538.24,216.24 539.66,216.24 Z M556.277143,216.24 C557.777143,216.24 558.817143,215.72 559.677143,214.48 L559.717143,214.48 C559.717143,214.98 559.777143,215.54 559.857143,216 L561.077143,216 C560.977143,215.48 560.917143,214.62 560.917143,213.9 L560.917143,209.8 C560.917143,207.52 559.297143,206.4 557.277143,206.4 C555.677143,206.4 554.357143,206.98 553.597143,207.74 L554.357143,208.64 C555.017143,207.98 556.037143,207.54 557.137143,207.54 C558.757143,207.54 559.637143,208.34 559.637143,209.96 L559.637143,210.26 C556.217143,210.26 553.037143,210.52 553.037143,213.4 C553.037143,215.48 554.857143,216.24 556.277143,216.24 Z M556.637143,215.12 C555.577143,215.12 554.437143,214.68 554.437143,213.34 C554.437143,211.56 557.017143,211.32 559.237143,211.32 L559.637143,211.32 L559.637143,212.02 C559.637143,213.68 558.557143,215.12 556.637143,215.12 Z M570.825714,216.24 C573.745714,216.24 575.665714,214.08 575.665714,211.32 C575.665714,208.56 573.745714,206.4 570.825714,206.4 C569.485714,206.4 568.085714,207.04 567.285714,208.26 L567.245714,208.26 L567.245714,200.88 L565.885714,200.88 L565.885714,216 L567.245714,216 L567.245714,214.42 L567.285714,214.42 C568.085714,215.6 569.485714,216.24 570.825714,216.24 Z M570.685714,215.08 C568.585714,215.08 567.085714,213.46 567.085714,211.32 C567.085714,209.18 568.585714,207.54 570.685714,207.54 C572.945714,207.54 574.225714,209.24 574.225714,211.32 C574.225714,213.4 572.945714,215.08 570.685714,215.08 Z M584.314286,216.24 C587.234286,216.24 589.314286,214.14 589.314286,211.32 C589.314286,208.5 587.234286,206.4 584.314286,206.4 C581.414286,206.4 579.334286,208.5 579.334286,211.32 C579.334286,214.14 581.414286,216.24 584.314286,216.24 Z M584.314286,215.08 C582.154286,215.08 580.774286,213.42 580.774286,211.32 C580.774286,209.22 582.154286,207.54 584.314286,207.54 C586.494286,207.54 587.874286,209.22 587.874286,211.32 C587.874286,213.42 586.494286,215.08 584.314286,215.08 Z M597.142857,216.24 C598.462857,216.24 599.822857,215.48 600.342857,214.4 L600.382857,214.4 C600.382857,214.8 600.422857,215.5 600.462857,216 L601.762857,216 C601.702857,215.36 601.682857,214.44 601.682857,213.94 L601.682857,206.64 L600.322857,206.64 L600.322857,211.44 C600.322857,213.94 598.922857,215.1 597.482857,215.1 C595.522857,215.1 594.942857,213.78 594.942857,211.82 L594.942857,206.64 L593.582857,206.64 L593.582857,212.38 C593.582857,214.7 594.762857,216.24 597.142857,216.24 Z M609.331429,216.12 C609.951429,216.12 610.451429,216.02 610.931429,215.84 L610.871429,214.66 C610.511429,214.84 610.071429,214.96 609.691429,214.96 C608.871429,214.96 608.291429,214.64 608.291429,213.24 L608.291429,207.78 L610.931429,207.78 L610.931429,206.64 L608.291429,206.64 L608.291429,204 L606.931429,204 L606.931429,206.64 L604.991429,206.64 L604.991429,207.78 L606.931429,207.78 L606.931429,213.62 C606.931429,215.68 608.331429,216.12 609.331429,216.12 Z M386.96,240.24 C388.5,240.24 389.88,239.66 390.98,238.26 L389.96,237.46 C389.44,238.3 388.36,239.08 386.96,239.08 C385.04,239.08 383.58,237.56 383.54,235.68 L391.3,235.68 C391.32,235.44 391.32,235.22 391.32,235.04 C391.32,232.48 389.78,230.4 386.84,230.4 C384.18,230.4 382.12,232.5 382.12,235.32 C382.12,238.14 384.18,240.24 386.96,240.24 Z M389.94,234.6 L383.56,234.6 C383.68,233 385.02,231.54 386.84,231.54 C388.78,231.54 389.86,232.84 389.94,234.6 Z M395.708571,240 L398.568571,236.1 L401.348571,240 L403.108571,240 L399.388571,235.1 L402.788571,230.64 L401.148571,230.64 L398.588571,234.2 L396.028571,230.64 L394.288571,230.64 L397.748571,235.16 L394.068571,240 L395.708571,240 Z M408.057143,240 L408.057143,235.2 C408.057143,232.7 409.457143,231.54 410.897143,231.54 C412.857143,231.54 413.437143,232.86 413.437143,234.82 L413.437143,240 L414.797143,240 L414.797143,234.26 C414.797143,231.94 413.617143,230.4 411.237143,230.4 C409.917143,230.4 408.597143,231.1 408.097143,232.18 L408.057143,232.18 L408.057143,224.88 L406.697143,224.88 L406.697143,240 L408.057143,240 Z M420.445714,228 C420.925714,228 421.405714,227.6 421.405714,227.04 C421.405714,226.48 420.925714,226.08 420.445714,226.08 C419.965714,226.08 419.485714,226.48 419.485714,227.04 C419.485714,227.6 419.965714,228 420.445714,228 Z M421.125714,240 L421.125714,230.64 L419.765714,230.64 L419.765714,240 L421.125714,240 Z M431.154286,240.24 C434.074286,240.24 435.994286,238.08 435.994286,235.32 C435.994286,232.56 434.074286,230.4 431.154286,230.4 C429.814286,230.4 428.414286,231.04 427.614286,232.26 L427.574286,232.26 L427.574286,224.88 L426.214286,224.88 L426.214286,240 L427.574286,240 L427.574286,238.42 L427.614286,238.42 C428.414286,239.6 429.814286,240.24 431.154286,240.24 Z M431.014286,239.08 C428.914286,239.08 427.414286,237.46 427.414286,235.32 C427.414286,233.18 428.914286,231.54 431.014286,231.54 C433.274286,231.54 434.554286,233.24 434.554286,235.32 C434.554286,237.4 433.274286,239.08 431.014286,239.08 Z M441.042857,228 C441.522857,228 442.002857,227.6 442.002857,227.04 C442.002857,226.48 441.522857,226.08 441.042857,226.08 C440.562857,226.08 440.082857,226.48 440.082857,227.04 C440.082857,227.6 440.562857,228 441.042857,228 Z M441.722857,240 L441.722857,230.64 L440.362857,230.64 L440.362857,240 L441.722857,240 Z M449.391429,240.12 C450.011429,240.12 450.511429,240.02 450.991429,239.84 L450.931429,238.66 C450.571429,238.84 450.131429,238.96 449.751429,238.96 C448.931429,238.96 448.351429,238.64 448.351429,237.24 L448.351429,231.78 L450.991429,231.78 L450.991429,230.64 L448.351429,230.64 L448.351429,228 L446.991429,228 L446.991429,230.64 L445.051429,230.64 L445.051429,231.78 L446.991429,231.78 L446.991429,237.62 C446.991429,239.68 448.391429,240.12 449.391429,240.12 Z M462.328571,240 L462.328571,235.2 C462.328571,232.7 463.628571,231.66 465.068571,231.66 C465.428571,231.66 465.868571,231.72 466.028571,231.78 L466.208571,230.5 C465.928571,230.42 465.648571,230.4 465.308571,230.4 C463.988571,230.4 462.828571,231.16 462.308571,232.24 L462.268571,232.24 C462.268571,231.84 462.228571,231.14 462.188571,230.64 L460.888571,230.64 C460.948571,231.28 460.968571,232.2 460.968571,232.7 L460.968571,240 L462.328571,240 Z M473.397143,240.24 C474.937143,240.24 476.317143,239.66 477.417143,238.26 L476.397143,237.46 C475.877143,238.3 474.797143,239.08 473.397143,239.08 C471.477143,239.08 470.017143,237.56 469.977143,235.68 L477.737143,235.68 C477.757143,235.44 477.757143,235.22 477.757143,235.04 C477.757143,232.48 476.217143,230.4 473.277143,230.4 C470.617143,230.4 468.557143,232.5 468.557143,235.32 C468.557143,238.14 470.617143,240.24 473.397143,240.24 Z M476.377143,234.6 L469.997143,234.6 C470.117143,233 471.457143,231.54 473.277143,231.54 C475.217143,231.54 476.297143,232.84 476.377143,234.6 Z M483.505714,240 L483.505714,224.88 L482.145714,224.88 L482.145714,240 L483.505714,240 Z M491.114286,240.24 C492.614286,240.24 493.654286,239.72 494.514286,238.48 L494.554286,238.48 C494.554286,238.98 494.614286,239.54 494.694286,240 L495.914286,240 C495.814286,239.48 495.754286,238.62 495.754286,237.9 L495.754286,233.8 C495.754286,231.52 494.134286,230.4 492.114286,230.4 C490.514286,230.4 489.194286,230.98 488.434286,231.74 L489.194286,232.64 C489.854286,231.98 490.874286,231.54 491.974286,231.54 C493.594286,231.54 494.474286,232.34 494.474286,233.96 L494.474286,234.26 C491.054286,234.26 487.874286,234.52 487.874286,237.4 C487.874286,239.48 489.694286,240.24 491.114286,240.24 Z M491.474286,239.12 C490.414286,239.12 489.274286,238.68 489.274286,237.34 C489.274286,235.56 491.854286,235.32 494.074286,235.32 L494.474286,235.32 L494.474286,236.02 C494.474286,237.68 493.394286,239.12 491.474286,239.12 Z M503.102857,240.12 C503.722857,240.12 504.222857,240.02 504.702857,239.84 L504.642857,238.66 C504.282857,238.84 503.842857,238.96 503.462857,238.96 C502.642857,238.96 502.062857,238.64 502.062857,237.24 L502.062857,231.78 L504.702857,231.78 L504.702857,230.64 L502.062857,230.64 L502.062857,228 L500.702857,228 L500.702857,230.64 L498.762857,230.64 L498.762857,231.78 L500.702857,231.78 L500.702857,237.62 C500.702857,239.68 502.102857,240.12 503.102857,240.12 Z M512.411429,240.24 C513.951429,240.24 515.331429,239.66 516.431429,238.26 L515.411429,237.46 C514.891429,238.3 513.811429,239.08 512.411429,239.08 C510.491429,239.08 509.031429,237.56 508.991429,235.68 L516.751429,235.68 C516.771429,235.44 516.771429,235.22 516.771429,235.04 C516.771429,232.48 515.231429,230.4 512.291429,230.4 C509.631429,230.4 507.571429,232.5 507.571429,235.32 C507.571429,238.14 509.631429,240.24 512.411429,240.24 Z M515.391429,234.6 L509.011429,234.6 C509.131429,233 510.471429,231.54 512.291429,231.54 C514.231429,231.54 515.311429,232.84 515.391429,234.6 Z M525.28,240.24 C526.62,240.24 528.02,239.6 528.82,238.42 L528.86,238.42 L528.86,240 L530.22,240 L530.22,224.88 L528.86,224.88 L528.86,232.26 L528.82,232.26 C528.02,231.04 526.62,230.4 525.28,230.4 C522.36,230.4 520.44,232.56 520.44,235.32 C520.44,238.08 522.36,240.24 525.28,240.24 Z M525.42,239.08 C523.16,239.08 521.88,237.4 521.88,235.32 C521.88,233.24 523.16,231.54 525.42,231.54 C527.52,231.54 529.02,233.18 529.02,235.32 C529.02,237.46 527.52,239.08 525.42,239.08 Z M545.877143,240.24 C547.217143,240.24 548.617143,239.6 549.417143,238.42 L549.457143,238.42 L549.457143,240 L550.817143,240 L550.817143,224.88 L549.457143,224.88 L549.457143,232.26 L549.417143,232.26 C548.617143,231.04 547.217143,230.4 545.877143,230.4 C542.957143,230.4 541.037143,232.56 541.037143,235.32 C541.037143,238.08 542.957143,240.24 545.877143,240.24 Z M546.017143,239.08 C543.757143,239.08 542.477143,237.4 542.477143,235.32 C542.477143,233.24 543.757143,231.54 546.017143,231.54 C548.117143,231.54 549.617143,233.18 549.617143,235.32 C549.617143,237.46 548.117143,239.08 546.017143,239.08 Z M560.045714,240.24 C561.585714,240.24 562.965714,239.66 564.065714,238.26 L563.045714,237.46 C562.525714,238.3 561.445714,239.08 560.045714,239.08 C558.125714,239.08 556.665714,237.56 556.625714,235.68 L564.385714,235.68 C564.405714,235.44 564.405714,235.22 564.405714,235.04 C564.405714,232.48 562.865714,230.4 559.925714,230.4 C557.265714,230.4 555.205714,232.5 555.205714,235.32 C555.205714,238.14 557.265714,240.24 560.045714,240.24 Z M563.025714,234.6 L556.645714,234.6 C556.765714,233 558.105714,231.54 559.925714,231.54 C561.865714,231.54 562.945714,232.84 563.025714,234.6 Z M571.374286,240.12 C571.994286,240.12 572.494286,240.02 572.974286,239.84 L572.914286,238.66 C572.554286,238.84 572.114286,238.96 571.734286,238.96 C570.914286,238.96 570.334286,238.64 570.334286,237.24 L570.334286,231.78 L572.974286,231.78 L572.974286,230.64 L570.334286,230.64 L570.334286,228 L568.974286,228 L568.974286,230.64 L567.034286,230.64 L567.034286,231.78 L568.974286,231.78 L568.974286,237.62 C568.974286,239.68 570.374286,240.12 571.374286,240.12 Z M579.062857,240.24 C580.562857,240.24 581.602857,239.72 582.462857,238.48 L582.502857,238.48 C582.502857,238.98 582.562857,239.54 582.642857,240 L583.862857,240 C583.762857,239.48 583.702857,238.62 583.702857,237.9 L583.702857,233.8 C583.702857,231.52 582.082857,230.4 580.062857,230.4 C578.462857,230.4 577.142857,230.98 576.382857,231.74 L577.142857,232.64 C577.802857,231.98 578.822857,231.54 579.922857,231.54 C581.542857,231.54 582.422857,232.34 582.422857,233.96 L582.422857,234.26 L581.958257,234.261833 C578.720336,234.28905 575.822857,234.650909 575.822857,237.4 C575.822857,239.48 577.642857,240.24 579.062857,240.24 Z M579.422857,239.12 C578.362857,239.12 577.222857,238.68 577.222857,237.34 C577.222857,235.56 579.802857,235.32 582.022857,235.32 L582.422857,235.32 L582.422857,236.02 C582.422857,237.68 581.342857,239.12 579.422857,239.12 Z M589.331429,228 C589.811429,228 590.291429,227.6 590.291429,227.04 C590.291429,226.48 589.811429,226.08 589.331429,226.08 C588.851429,226.08 588.371429,226.48 588.371429,227.04 C588.371429,227.6 588.851429,228 589.331429,228 Z M590.011429,240 L590.011429,230.64 L588.651429,230.64 L588.651429,240 L590.011429,240 Z M596.46,240 L596.46,224.88 L595.1,224.88 L595.1,240 L596.46,240 Z M604.188571,240.24 C605.908571,240.24 607.708571,239.48 607.708571,237.34 C607.708571,235.88 606.668571,235.06 604.468571,234.6 C602.928571,234.28 602.228571,233.88 602.228571,233 C602.228571,231.96 603.228571,231.54 604.208571,231.54 C605.248571,231.54 606.108571,232.08 606.508571,232.86 L607.548571,232.08 C606.948571,231.02 605.568571,230.4 604.268571,230.4 C602.568571,230.4 600.928571,231.22 600.928571,233.12 C600.928571,234.9 602.508571,235.38 603.608571,235.64 C605.388571,236.06 606.368571,236.46 606.368571,237.44 C606.368571,238.66 605.328571,239.08 604.168571,239.08 C603.068571,239.08 602.048571,238.44 601.568571,237.62 L600.488571,238.42 C601.348571,239.68 602.768571,240.24 604.188571,240.24 Z" id="Asksattendantsaboutexhibitrelateddetails" fill="#000000" fill-rule="nonzero"></path>
        <path d="M386.46,280.36 C388.7,280.36 391.08,279.12 391.08,276.28 C391.08,273.44 388.88,272.8 386.88,272.14 C385.3,271.62 383.8,271.16 383.8,269.36 C383.8,267.54 385.42,266.7 386.82,266.7 C388.16,266.7 389.14,267.26 389.74,268.12 L390.88,267.2 C390.2,266.28 388.78,265.48 386.88,265.48 C384.8,265.48 382.36,266.64 382.36,269.38 C382.36,271.94 384.28,272.76 386.16,273.34 C387.96,273.9 389.62,274.4 389.62,276.38 C389.62,278.2 387.94,279.12 386.48,279.12 C385,279.12 383.86,278.34 383.24,277.34 L382,278.26 C383.02,279.66 384.74,280.36 386.46,280.36 Z M396.868571,284.8 L396.868571,278.42 L396.928571,278.42 C397.708571,279.58 399.108571,280.24 400.448571,280.24 C403.368571,280.24 405.288571,278.08 405.288571,275.32 C405.288571,272.56 403.368571,270.4 400.448571,270.4 C399.108571,270.4 397.708571,271.04 396.928571,272.26 L396.868571,272.26 L396.868571,270.64 L395.508571,270.64 L395.508571,284.8 L396.868571,284.8 Z M400.308571,279.08 C398.208571,279.08 396.708571,277.46 396.708571,275.32 C396.708571,273.18 398.208571,271.54 400.308571,271.54 C402.568571,271.54 403.848571,273.24 403.848571,275.32 C403.848571,277.4 402.568571,279.08 400.308571,279.08 Z M413.797143,280.24 C415.337143,280.24 416.717143,279.66 417.817143,278.26 L416.797143,277.46 C416.277143,278.3 415.197143,279.08 413.797143,279.08 C411.877143,279.08 410.417143,277.56 410.377143,275.68 L418.137143,275.68 C418.157143,275.44 418.157143,275.22 418.157143,275.04 C418.157143,272.48 416.617143,270.4 413.677143,270.4 C411.017143,270.4 408.957143,272.5 408.957143,275.32 C408.957143,278.14 411.017143,280.24 413.797143,280.24 Z M416.777143,274.6 L410.397143,274.6 C410.517143,273 411.857143,271.54 413.677143,271.54 C415.617143,271.54 416.697143,272.84 416.777143,274.6 Z M423.865714,280 L423.865714,275.2 C423.865714,272.7 425.265714,271.54 426.705714,271.54 C428.665714,271.54 429.245714,272.86 429.245714,274.82 L429.245714,280 L430.605714,280 L430.605714,274.26 C430.605714,271.94 429.425714,270.4 427.045714,270.4 C425.725714,270.4 424.365714,271.16 423.845714,272.24 L423.805714,272.24 C423.805714,271.84 423.765714,271.14 423.725714,270.64 L422.425714,270.64 C422.485714,271.28 422.505714,272.2 422.505714,272.7 L422.505714,280 L423.865714,280 Z M439.714286,280.24 C441.054286,280.24 442.454286,279.6 443.254286,278.42 L443.294286,278.42 L443.294286,280 L444.654286,280 L444.654286,264.88 L443.294286,264.88 L443.294286,272.26 L443.254286,272.26 C442.454286,271.04 441.054286,270.4 439.714286,270.4 C436.794286,270.4 434.874286,272.56 434.874286,275.32 C434.874286,278.08 436.794286,280.24 439.714286,280.24 Z M439.854286,279.08 C437.594286,279.08 436.314286,277.4 436.314286,275.32 C436.314286,273.24 437.594286,271.54 439.854286,271.54 C441.954286,271.54 443.454286,273.18 443.454286,275.32 C443.454286,277.46 441.954286,279.08 439.854286,279.08 Z M452.382857,280.24 C454.102857,280.24 455.902857,279.48 455.902857,277.34 C455.902857,275.88 454.862857,275.06 452.662857,274.6 C451.122857,274.28 450.422857,273.88 450.422857,273 C450.422857,271.96 451.422857,271.54 452.402857,271.54 C453.442857,271.54 454.302857,272.08 454.702857,272.86 L455.742857,272.08 C455.142857,271.02 453.762857,270.4 452.462857,270.4 C450.762857,270.4 449.122857,271.22 449.122857,273.12 C449.122857,274.9 450.702857,275.38 451.802857,275.64 C453.582857,276.06 454.562857,276.46 454.562857,277.44 C454.562857,278.66 453.522857,279.08 452.362857,279.08 C451.262857,279.08 450.242857,278.44 449.762857,277.62 L448.682857,278.42 C449.542857,279.68 450.962857,280.24 452.382857,280.24 Z M467.82,280 L467.82,275.2 C467.82,272.7 469.24,271.54 470.54,271.54 C472.36,271.54 472.8,272.72 472.8,274.54 L472.8,280 L474.16,280 L474.16,275.02 C474.16,273.28 474.86,271.54 476.82,271.54 C478.58,271.54 479.24,272.86 479.24,274.82 L479.24,280 L480.6,280 L480.6,274.26 C480.6,271.94 479.42,270.4 477.04,270.4 C475.54,270.4 474.4,271.1 473.76,272.38 C473.14,270.78 471.9,270.4 470.88,270.4 C469.54,270.4 468.34,271.16 467.8,272.24 L467.76,272.24 C467.76,271.84 467.72,271.14 467.68,270.64 L466.38,270.64 C466.44,271.28 466.46,272.2 466.46,272.7 L466.46,280 L467.82,280 Z M489.848571,280.24 C492.768571,280.24 494.848571,278.14 494.848571,275.32 C494.848571,272.5 492.768571,270.4 489.848571,270.4 C486.948571,270.4 484.868571,272.5 484.868571,275.32 C484.868571,278.14 486.948571,280.24 489.848571,280.24 Z M489.848571,279.08 C487.688571,279.08 486.308571,277.42 486.308571,275.32 C486.308571,273.22 487.688571,271.54 489.848571,271.54 C492.028571,271.54 493.408571,273.22 493.408571,275.32 C493.408571,277.42 492.028571,279.08 489.848571,279.08 Z M500.557143,280 L500.557143,275.2 C500.557143,272.7 501.857143,271.66 503.297143,271.66 C503.657143,271.66 504.097143,271.72 504.257143,271.78 L504.437143,270.5 C504.157143,270.42 503.877143,270.4 503.537143,270.4 C502.217143,270.4 501.057143,271.16 500.537143,272.24 L500.497143,272.24 C500.497143,271.84 500.457143,271.14 500.417143,270.64 L499.117143,270.64 C499.177143,271.28 499.197143,272.2 499.197143,272.7 L499.197143,280 L500.557143,280 Z M511.625714,280.24 C513.165714,280.24 514.545714,279.66 515.645714,278.26 L514.625714,277.46 C514.105714,278.3 513.025714,279.08 511.625714,279.08 C509.705714,279.08 508.245714,277.56 508.205714,275.68 L515.965714,275.68 C515.985714,275.44 515.985714,275.22 515.985714,275.04 C515.985714,272.48 514.445714,270.4 511.505714,270.4 C508.845714,270.4 506.785714,272.5 506.785714,275.32 C506.785714,278.14 508.845714,280.24 511.625714,280.24 Z M514.605714,274.6 L508.225714,274.6 C508.345714,273 509.685714,271.54 511.505714,271.54 C513.445714,271.54 514.525714,272.84 514.605714,274.6 Z M529.382857,280.12 C530.002857,280.12 530.502857,280.02 530.982857,279.84 L530.922857,278.66 C530.562857,278.84 530.122857,278.96 529.742857,278.96 C528.922857,278.96 528.342857,278.64 528.342857,277.24 L528.342857,271.78 L530.982857,271.78 L530.982857,270.64 L528.342857,270.64 L528.342857,268 L526.982857,268 L526.982857,270.64 L525.042857,270.64 L525.042857,271.78 L526.982857,271.78 L526.982857,277.62 C526.982857,279.68 528.382857,280.12 529.382857,280.12 Z M535.231429,268 C535.711429,268 536.191429,267.6 536.191429,267.04 C536.191429,266.48 535.711429,266.08 535.231429,266.08 C534.751429,266.08 534.271429,266.48 534.271429,267.04 C534.271429,267.6 534.751429,268 535.231429,268 Z M535.911429,280 L535.911429,270.64 L534.551429,270.64 L534.551429,280 L535.911429,280 Z M542.32,280 L542.32,275.2 C542.32,272.7 543.74,271.54 545.04,271.54 C546.86,271.54 547.3,272.72 547.3,274.54 L547.3,280 L548.66,280 L548.66,275.02 C548.66,273.28 549.36,271.54 551.32,271.54 C553.08,271.54 553.74,272.86 553.74,274.82 L553.74,280 L555.1,280 L555.1,274.26 C555.1,271.94 553.92,270.4 551.54,270.4 C550.04,270.4 548.9,271.1 548.26,272.38 C547.64,270.78 546.4,270.4 545.38,270.4 C544.04,270.4 542.84,271.16 542.3,272.24 L542.26,272.24 C542.26,271.84 542.22,271.14 542.18,270.64 L540.88,270.64 C540.9325,271.2 540.954375,271.974375 540.959023,272.49418 L540.96,280 L542.32,280 Z M564.208571,280.24 C565.748571,280.24 567.128571,279.66 568.228571,278.26 L567.208571,277.46 C566.688571,278.3 565.608571,279.08 564.208571,279.08 C562.288571,279.08 560.828571,277.56 560.788571,275.68 L568.548571,275.68 C568.568571,275.44 568.568571,275.22 568.568571,275.04 C568.568571,272.48 567.028571,270.4 564.088571,270.4 C561.428571,270.4 559.368571,272.5 559.368571,275.32 C559.368571,278.14 561.428571,280.24 564.208571,280.24 Z M567.188571,274.6 L560.808571,274.6 C560.928571,273 562.268571,271.54 564.088571,271.54 C566.028571,271.54 567.108571,272.84 567.188571,274.6 Z M581.885714,280.24 C583.385714,280.24 584.425714,279.72 585.285714,278.48 L585.325714,278.48 C585.325714,278.98 585.385714,279.54 585.465714,280 L586.685714,280 C586.585714,279.48 586.525714,278.62 586.525714,277.9 L586.525714,273.8 C586.525714,271.52 584.905714,270.4 582.885714,270.4 C581.285714,270.4 579.965714,270.98 579.205714,271.74 L579.965714,272.64 C580.625714,271.98 581.645714,271.54 582.745714,271.54 C584.365714,271.54 585.245714,272.34 585.245714,273.96 L585.245714,274.26 C581.825714,274.26 578.645714,274.52 578.645714,277.4 C578.645714,279.48 580.465714,280.24 581.885714,280.24 Z M582.245714,279.12 C581.185714,279.12 580.045714,278.68 580.045714,277.34 C580.045714,275.56 582.625714,275.32 584.845714,275.32 L585.245714,275.32 L585.245714,276.02 C585.245714,277.68 584.165714,279.12 582.245714,279.12 Z M593.874286,280.12 C594.494286,280.12 594.994286,280.02 595.474286,279.84 L595.414286,278.66 C595.054286,278.84 594.614286,278.96 594.234286,278.96 C593.414286,278.96 592.834286,278.64 592.834286,277.24 L592.834286,271.78 L595.474286,271.78 L595.474286,270.64 L592.834286,270.64 L592.834286,268 L591.474286,268 L591.474286,270.64 L589.534286,270.64 L589.534286,271.78 L591.474286,271.78 L591.474286,277.62 C591.474286,279.68 592.874286,280.12 593.874286,280.12 Z M386.96,304.24 C388.5,304.24 389.88,303.66 390.98,302.26 L389.96,301.46 C389.44,302.3 388.36,303.08 386.96,303.08 C385.04,303.08 383.58,301.56 383.54,299.68 L391.3,299.68 C391.32,299.44 391.32,299.22 391.32,299.04 C391.32,296.48 389.78,294.4 386.84,294.4 C384.18,294.4 382.12,296.5 382.12,299.32 C382.12,302.14 384.18,304.24 386.96,304.24 Z M389.94,298.6 L383.56,298.6 C383.68,297 385.02,295.54 386.84,295.54 C388.78,295.54 389.86,296.84 389.94,298.6 Z M398.088571,304.24 C399.588571,304.24 400.628571,303.72 401.488571,302.48 L401.528571,302.48 C401.528571,302.98 401.588571,303.54 401.668571,304 L402.888571,304 C402.788571,303.48 402.728571,302.62 402.728571,301.9 L402.728571,297.8 C402.728571,295.52 401.108571,294.4 399.088571,294.4 C397.488571,294.4 396.168571,294.98 395.408571,295.74 L396.168571,296.64 C396.828571,295.98 397.848571,295.54 398.948571,295.54 C400.568571,295.54 401.448571,296.34 401.448571,297.96 L401.448571,298.26 C398.028571,298.26 394.848571,298.52 394.848571,301.4 C394.848571,303.48 396.668571,304.24 398.088571,304.24 Z M398.448571,303.12 C397.388571,303.12 396.248571,302.68 396.248571,301.34 C396.248571,299.56 398.828571,299.32 401.048571,299.32 L401.448571,299.32 L401.448571,300.02 C401.448571,301.68 400.368571,303.12 398.448571,303.12 Z M411.977143,304.24 C413.597143,304.24 414.737143,303.6 415.537143,302.62 L414.517143,301.86 C413.977143,302.58 413.157143,303.08 411.977143,303.08 C409.797143,303.08 408.417143,301.44 408.417143,299.32 C408.417143,297.18 409.817143,295.54 411.997143,295.54 C413.017143,295.54 413.957143,296.06 414.397143,296.78 L415.457143,296.02 C414.657143,294.94 413.237143,294.4 411.977143,294.4 C408.957143,294.4 406.977143,296.5 406.977143,299.32 C406.977143,302.14 408.957143,304.24 411.977143,304.24 Z M420.485714,304 L420.485714,299.2 C420.485714,296.7 421.885714,295.54 423.325714,295.54 C425.285714,295.54 425.865714,296.86 425.865714,298.82 L425.865714,304 L427.225714,304 L427.225714,298.26 C427.225714,295.94 426.045714,294.4 423.665714,294.4 C422.345714,294.4 421.025714,295.1 420.525714,296.18 L420.485714,296.18 L420.485714,288.88 L419.125714,288.88 L419.125714,304 L420.485714,304 Z M442.762857,304.24 C444.302857,304.24 445.682857,303.66 446.782857,302.26 L445.762857,301.46 C445.242857,302.3 444.162857,303.08 442.762857,303.08 C440.842857,303.08 439.382857,301.56 439.342857,299.68 L447.102857,299.68 C447.122857,299.44 447.122857,299.22 447.122857,299.04 C447.122857,296.48 445.582857,294.4 442.642857,294.4 C439.982857,294.4 437.922857,296.5 437.922857,299.32 C437.922857,302.14 439.982857,304.24 442.762857,304.24 Z M445.742857,298.6 L439.362857,298.6 C439.482857,297 440.822857,295.54 442.642857,295.54 C444.582857,295.54 445.662857,296.84 445.742857,298.6 Z M451.511429,304 L454.371429,300.1 L457.151429,304 L458.911429,304 L455.191429,299.1 L458.591429,294.64 L456.951429,294.64 L454.391429,298.2 L451.831429,294.64 L450.091429,294.64 L453.551429,299.16 L449.871429,304 L451.511429,304 Z M463.86,304 L463.86,299.2 C463.86,296.7 465.26,295.54 466.7,295.54 C468.66,295.54 469.24,296.86 469.24,298.82 L469.24,304 L470.6,304 L470.6,298.26 C470.6,295.94 469.42,294.4 467.04,294.4 C465.72,294.4 464.4,295.1 463.9,296.18 L463.86,296.18 L463.86,288.88 L462.5,288.88 L462.5,304 L463.86,304 Z M476.248571,292 C476.728571,292 477.208571,291.6 477.208571,291.04 C477.208571,290.48 476.728571,290.08 476.248571,290.08 C475.768571,290.08 475.288571,290.48 475.288571,291.04 C475.288571,291.6 475.768571,292 476.248571,292 Z M476.928571,304 L476.928571,294.64 L475.568571,294.64 L475.568571,304 L476.928571,304 Z M486.957143,304.24 C489.877143,304.24 491.797143,302.08 491.797143,299.32 C491.797143,296.56 489.877143,294.4 486.957143,294.4 C485.617143,294.4 484.217143,295.04 483.417143,296.26 L483.377143,296.26 L483.377143,288.88 L482.017143,288.88 L482.017143,304 L483.377143,304 L483.377143,302.42 L483.417143,302.42 C484.217143,303.6 485.617143,304.24 486.957143,304.24 Z M486.817143,303.08 C484.717143,303.08 483.217143,301.46 483.217143,299.32 C483.217143,297.18 484.717143,295.54 486.817143,295.54 C489.077143,295.54 490.357143,297.24 490.357143,299.32 C490.357143,301.4 489.077143,303.08 486.817143,303.08 Z M496.845714,292 C497.325714,292 497.805714,291.6 497.805714,291.04 C497.805714,290.48 497.325714,290.08 496.845714,290.08 C496.365714,290.08 495.885714,290.48 495.885714,291.04 C495.885714,291.6 496.365714,292 496.845714,292 Z M497.525714,304 L497.525714,294.64 L496.165714,294.64 L496.165714,304 L497.525714,304 Z M505.194286,304.12 C505.814286,304.12 506.314286,304.02 506.794286,303.84 L506.734286,302.66 C506.374286,302.84 505.934286,302.96 505.554286,302.96 C504.734286,302.96 504.154286,302.64 504.154286,301.24 L504.154286,295.78 L506.794286,295.78 L506.794286,294.64 L504.154286,294.64 L504.154286,292 L502.794286,292 L502.794286,294.64 L500.854286,294.64 L500.854286,295.78 L502.794286,295.78 L502.794286,301.62 C502.794286,303.68 504.194286,304.12 505.194286,304.12 Z" id="Spendsmoretimeateachexhibit" fill="#000000" fill-rule="nonzero"></path>
        <circle id="Oval" fill="#666666" cx="370" cy="169" r="3"></circle>
        <circle id="Oval" fill="#666666" cx="370" cy="209" r="3"></circle>
        <circle id="Oval" fill="#666666" cx="370" cy="274" r="3"></circle>
        <g id="Group" transform="translate(77.000000, 110.000000)">
            <g id="Group-21" transform="translate(109.000000, 0.000000)">
                <path d="M36.9255303,115.944954 L15.6708009,115.944954 C12.4533129,115.944954 9.820911,113.320232 9.820911,110.112722 L6.89596604,60.6966606 C6.89596604,60.6966606 2.16288211,19.764153 26.7122377,14.3855769 C26.7122377,14.3855769 36.6941157,-4.97797451 68.6613529,1.22569393 C69.0460736,1.30017471 69.4943485,1.44816898 70.6650057,1.83072934 C116.337131,16.6644952 103.160567,64.948836 101.266072,110.113206 C101.266072,113.320716 98.6336699,115.944954 95.416182,115.944954 L72.8044993,115.944954" id="Path" fill="#7A4600" fill-rule="nonzero"></path>
                <path d="M0,178 L0,144.872347 C0,121.681076 19.1626758,102.880734 42.8009063,102.880734 L68.1986602,102.880734 C91.8368906,102.880734 111,121.681076 111,144.872347 L111,178 L0,178 Z" id="Path" fill="#8BC673" fill-rule="nonzero"></path>
                <polygon id="Path" fill="#8FF58B" fill-rule="nonzero" points="68.5588235 106.146789 40.8088235 106.146789 44.3875023 178 64.9801447 178"></polygon>
                <path d="M54.6837175,119.211009 C68.916127,119.211009 68.5733856,103.503141 68.5552578,102.909025 C68.0666511,102.892383 67.5772013,102.880734 67.0843788,102.880734 L42.3905581,102.880734 C41.8619017,102.880734 41.3361963,102.893631 40.8121772,102.913186 C40.7927847,103.588014 40.4905146,119.211009 54.6837175,119.211009 Z" id="Path" fill="#E2AE84" fill-rule="nonzero"></path>
                <g id="Group-18" transform="translate(21.220588, 29.394495)" fill="#F0C69E" fill-rule="nonzero">
                    <path d="M34.2767953,72.3909511 C60.5492399,72.3909511 68.5535906,53.0628654 68.5535906,34.0022861 L68.5535906,25.5924215 C68.5535906,24.7494104 68.077839,23.9830758 67.3295569,23.6044316 C57.1115919,18.4369504 50.6709753,7.07159319 47.9225682,1.26959213 C47.2119355,-0.231200191 45.1835734,-0.448306772 44.1773073,0.869840326 C31.2203475,17.8360304 8.33036037,23.309787 1.79048627,24.5650421 C0.749565578,24.764918 -2.99778302e-13,25.6828825 -2.99778302e-13,26.7498924 L-2.99778302e-13,34.0027169 C-2.99778302e-13,53.0628654 7.86188188,72.3909511 34.2767953,72.3909511 L34.2767953,72.3909511 Z" id="Path"></path>
                    <path d="M34.2767953,68.5140479 C15.346414,68.5140479 -3.13404588e-13,53.0628654 -3.13404588e-13,34.0022861 L-3.13404588e-13,42.014122 C-3.13404588e-13,61.0747013 15.346414,76.5258838 34.2767953,76.5258838 C53.2071767,76.5258838 68.5535906,61.0747013 68.5535906,42.014122 L68.5535906,34.0022861 C68.5535906,53.0628654 53.2071767,68.5140479 34.2767953,68.5140479 Z" id="Path"></path>
                </g>
                <g id="Group-19" transform="translate(37.544118, 60.422018)" fill="#5E6B75">
                    <rect id="Rectangle" x="8.82744858e-13" y="0" width="5.33823529" height="9.79816514" rx="2.66911765"></rect>
                    <rect id="Rectangle" x="30.5735294" y="0" width="5.33823529" height="9.79816514" rx="2.66911765"></rect>
                </g>
            </g>
            <g id="Group-20" transform="translate(0.000000, 1.000000)">
                <path d="M109,177 L0,177 L0,143.753443 C0,120.478932 18.8174023,101.611111 42.0297188,101.611111 L66.9698555,101.611111 C90.1821719,101.611111 109,120.478932 109,143.753443 L109,177 Z" id="Path" fill="#DC4955" fill-rule="nonzero"></path>
                <polygon id="Path" fill="#E68B8B" fill-rule="nonzero" points="68.3283582 104.888889 40.6716418 104.888889 44.2382906 177 64.7617094 177"></polygon>
                <path d="M54.49993,118 C68.6844596,118 68.3428713,102.235752 68.3248045,101.639504 C67.8378415,101.622802 67.3500383,101.611111 66.8588737,101.611111 L42.2481266,101.611111 C41.7212486,101.611111 41.1973118,101.624055 40.6750555,101.643679 C40.6553081,102.32093 40.3540549,118 54.49993,118 Z" id="Path" fill="#E2AE84" fill-rule="nonzero"></path>
                <path d="M19.9121304,55.7222222 C20.3230352,55.7222222 20.7295312,55.7432651 21.1298548,55.7832036 L21.1298548,55.7832036 L24.4029851,68.5845614 L21.1474902,70.6167001 L21.1473284,70.6172222 L24.4025442,73.587608 L22.3131901,78.4274652 C21.5381143,78.5837836 20.7348218,78.6666667 19.9121304,78.6666667 C13.407313,78.6666667 8.13432836,73.5304917 8.13432836,67.1944444 C8.13432836,65.7901558 8.39445051,64.4447013 8.86884278,63.2010255 L8.86884278,63.2010255 L8.97868743,62.9240011 C10.7176147,58.7029815 14.9571645,55.7222222 19.9121304,55.7222222 Z" id="Combined-Shape" fill="#F0C69E" fill-rule="nonzero"></path>
                <path d="M87.8507463,70.4223086 C87.8507463,89.4579346 72.5547529,104.888889 53.6865672,104.888889 C34.8183815,104.888889 19.5223881,89.4579346 19.5223881,70.4223086 L19.5223881,70.4223086 L19.5223881,62.4209615 L19.5223881,62.4209615 L20.1294231,24.7485922 C20.1294231,23.519502 77.3329473,20.9469762 85.595854,25.7127659 C85.9440146,25.913538 86.5174443,31.6254026 86.9988905,37.3214501 L87.0686526,38.1542636 C87.3908009,42.034212 87.6628314,45.7810424 87.7836959,47.6343811 L87.8072448,48.0019016 C87.8354602,48.4515754 87.8507463,48.736414 87.8507463,48.8153589 L87.8507463,48.8153589 Z" id="Combined-Shape" fill="#F0C69E" fill-rule="nonzero"></path>
                <g id="Group-19" transform="translate(35.791045, 57.361111)" fill="#5E6B75">
                    <rect id="Rectangle" x="0" y="0" width="5.32029044" height="9.83333333" rx="2.66014522"></rect>
                    <rect id="Rectangle" x="30.4707543" y="0" width="5.32029044" height="9.83333333" rx="2.66014522"></rect>
                </g>
                <path d="M44.8568849,4.42142001 C49.6109407,-1.4696871 59.3790948,-1.47315211 64.1431151,4.42142001 C64.1399007,4.42142001 64.1399007,4.42430753 64.1399007,4.42430753 L64.1463294,4.42430753 C64.1463294,4.42430753 64.1463294,4.42142001 64.1431151,4.42142001 C69.566403,-2.28916372 81.2538584,-1.13444666 84.7150939,6.35316722 C90.0380934,6.35316722 94.358209,10.2339867 94.358209,15.0157108 L94.358209,50.1423248 C94.358209,54.1299824 90.761327,57.3611111 86.3222797,57.3611111 L86.3222797,39.625997 C86.3222797,27.9214569 71.136945,21.3607352 60.7326667,29.1529818 C57.1283917,31.8510754 51.93686,31.8603154 48.325192,29.1962945 C37.6817644,21.3491851 22.6777203,28.0563038 22.6777203,39.625997 L22.6777203,57.3611111 C18.0763472,57.3611111 14.641791,54.0976422 14.641791,50.2895881 L14.641791,15.0157108 C14.641791,10.2310992 18.9586922,6.35316722 24.2849061,6.35316722 C27.7381056,-1.12318536 39.4255611,-2.29898127 44.8568849,4.42142001 Z" id="Path" fill="#42434D" fill-rule="nonzero"></path>
                <path d="M76.4626866,40.6585777 C74.7321311,38.7481993 66.6694116,36.2597264 58.737347,39.1196707 C57.8890841,39.4259096 53.8227631,41.2530605 47.1106817,40.9352532 C43.0675854,40.743412 38.4498314,37.1684818 34.1641791,36.9670003 C34.1641791,36.9670003 38.377549,35.7099102 44.2573889,38.2591167 C50.0787322,40.7691194 58.7066704,37.2613496 59.2364931,37.0592255 C65.7311062,34.5893905 73.1647699,37.0171296 76.4626866,40.6585777" id="Fill-28" fill="#E2AE84"></path>
                <path d="M74.8358209,45.5752444 C73.1052654,43.6648659 65.0425459,41.1763931 57.1104813,44.0363373 C56.2622185,44.3425763 52.1958974,46.1697272 45.483816,45.8519199 C41.4407197,45.6600787 36.8229657,42.0851484 32.5373134,41.883667 C32.5373134,41.883667 36.7506833,40.6265769 42.6305232,43.1757833 C48.4518665,45.6857861 57.0798047,42.1780163 57.6096275,41.9758921 C64.1042406,39.5060571 71.5379042,41.9337963 74.8358209,45.5752444" id="Fill-28" fill="#E2AE84"></path>
                <path d="M89.0878696,55.7222222 C94.0428355,55.7222222 98.2823853,58.7029815 100.021313,62.9240011 L100.131157,63.2010255 L100.131157,63.2010255 C100.605549,64.4447013 100.865672,65.7901558 100.865672,67.1944444 C100.865672,73.5304917 95.592687,78.6666667 89.0878696,78.6666667 C88.2647373,78.6666667 87.4618857,78.5837836 86.6868099,78.4274652 L84.5974558,73.587608 L87.8529507,70.6162707 L84.5970149,68.5845614 L87.8701452,55.7832036 C88.2704688,55.7432651 88.6769648,55.7222222 89.0878696,55.7222222 Z" id="Combined-Shape" fill="#F0C69E" fill-rule="nonzero"></path>
            </g>
        </g>
    </g>
</svg>