<svg xmlns="http://www.w3.org/2000/svg" width="689" height="398" xmlns:v="https://vecta.io/nano"><style><![CDATA[.B{font-family:AvenirNextforINTUIT-Regular, AvenirNext forINTUIT}]]></style><g fill-rule="evenodd"><path fill="#fff" d="M0 0h689v398H0z"/><g fill="#000" fill-rule="nonzero"><path d="M179.035 159.536c-.023.043-.004.093-.008.138-.006.052-.025.1-.01.15s.052.083.085.128c.027.037.035.085.074.114l4.575 3.05-2.33 4.493c-.01.02.002.043-.006.062s-.03.03-.033.052l-4.12 22.57-1.988 7.284-1.116-2.153-2.312-9.768c-.008-.017-.004-.02-.006-.025l-3.023-10.055c-.002-.01-.014-.012-.02-.023s.004-.02 0-.03l-2.944-6.516-1.936-11.788.638-.785c.012-.014.006-.035.014-.05.03-.045.037-.09.043-.145s.02-.1.006-.155c-.004-.017.008-.033.002-.052l-3.895-10.63c-.014-.04-.054-.052-.08-.085s-.027-.076-.06-.103l-5.114-3.836c-.04-.03-.085-.02-.128-.033s-.074-.05-.122-.05h-2.66l-6.82-2.57-.413-1.42.574-.888 3.645-1.29c.017-.006.02-.025.035-.033.064-.03.112-.076.153-.136.017-.025.04-.04.05-.066.004-.01.014-.014.02-.027l1.335-4.124 1.97-5.328c.017-.043-.006-.08-.004-.124s.03-.083.017-.128l-1.53-5.716.8-1.54c.006-.012-.002-.025.004-.037.02-.048.012-.1.012-.153s.008-.105-.012-.153c-.006-.012.002-.025-.004-.037l-1.744-3.372c-.014-.03-.045-.035-.066-.056s-.02-.058-.043-.08l-3.252-2.558c-.023-.017-.048-.008-.072-.02s-.03-.04-.056-.048l-6.102-1.973c-.023-.008-.043.008-.064.006s-.04-.027-.062-.027h-6.453c-.062 0-.1.04-.16.066-.043.02-.093.02-.128.052l-3.488 3.425c-.017.017-.012.043-.027.06s-.04.02-.048.04l-4.416 8.31c-.025.043-.006.093-.014.138s-.035.08-.027.128l1.626 8.945c.006.03.03.045.043.072s-.004.048.01.07l3.717 6.06v1.932l-.24 1.1-7.244 3.737-4.972 1.847c-.05.02-.072.07-.112.103-.043.04-.1.064-.122.118h-.002l-3.488 7.904c-.008.02.004.037-.002.052-.006.023-.027.033-.03.056l-1.5 10.458c-.008.052.027.093.037.14.012.054.008.11.04.153s.076.052.12.08.076.076.132.09l.54.107V174.8l-2.465 5.85c-.006.017.004.03 0 .045s-.023.027-.027.043l-3.83 22.397-2.366 5.94c-.01.03.006.052 0 .08s-.03.045-.03.074v4.88c0 .01.01.017.01.027.004.054.037.093.06.143s.037.1.076.132c.008.006.006.02.014.027l1.5 1.16a.42.42 0 0 0 .252.085h2.965c.097 0 .184-.043.258-.11.025-.017.037-.037.054-.06s.05-.043.064-.074l2.8-6.218c.02-.04-.002-.08.004-.122s.035-.076.027-.122l-.91-5.074 2.752-8.54 5.804-13.926c.006-.017-.004-.033 0-.048s.023-.027.027-.043l1.28-7.904.246-1.897.033.17-.343 8.613-2.242 5.86c-.012.03.006.058.002.09a.37.37 0 0 0 .004.151.35.35 0 0 0 .066.136c.02.025.014.058.04.08l.283.25-3.51 6.747c-.01.02.002.04-.006.06s-.03.033-.035.056l-1.686 9.352c-.004.02.012.037.012.056s-.02.033-.017.052l1.744 21.498c0 .008.012.017.012.025s-.006.017-.004.027l2.492 11.88.986 10.935-.984 12.796-5.726 14.352c-.02.058.002.103.002.15 0 .06-.017.12.006.174.023.043.072.068.1.105s.06.09.114.11l9.25 3.374a.42.42 0 0 0 .141.025c.03 0 .062-.004.095-.012l3.57-.837 2.71 9.392-.827 3.138-1.798 2.686-1.822 1.653-.46.4c-.048.052-.054.105-.076.153s-.058.09-.06.145l-.006 1.527c0 .01.01.02.012.027s-.01.02-.008.03c.004.033.03.048.04.076.008.023-.004.045.008.068l.932 1.682c.008.017.03.01.04.025.074.11.18.2.32.2h8.482c.136 0 .242-.076.316-.182.01-.012.03-.008.04-.02l.754-1.275c.014-.025.002-.048.01-.072s.04-.043.043-.074l.08-.6 3.33-.806c.04-.008.056-.045.09-.064.048-.03.09-.048.126-.093s.043-.087.056-.138c.012-.04.043-.062.043-.105v-1.92c0-.01-.012-.02-.012-.03s.01-.02.008-.033c-.004-.02-.027-.033-.033-.052s.006-.037-.002-.056l-1.22-2.67-.496-1.052-.85-6.45 4.126-10.173 4.325-1.258 5.327.46c.012.002.025.002.037.002.093 0 .188-.033.264-.097l3.488-2.905c.014-.012.012-.033.025-.043.04-.04.05-.085.07-.134s.04-.093.04-.147c-.002-.02.014-.033.012-.052l-3.482-23.254 2.2-19.033 3.252-17.13c.002-.01-.006-.02-.006-.027s.014-.02.014-.03l.64-12.493c0-.012-.01-.017-.01-.03s.008-.012.008-.02l-.407-6.1c0-.008-.008-.012-.008-.02s.006-.014.004-.023c-.006-.04-.04-.058-.056-.09s-.008-.072-.033-.105l-2.18-2.638-1.787-3.572.85-11.747 1.327-1.165c.025-.02.023-.054.04-.08.012-.017.04-.008.048-.03l.525-.928c.004-.008 0-.02.004-.027s.02-.02.023-.03l.58-1.512c.01-.025-.006-.048-.002-.074s.03-.043.03-.072v-2.702l.277-.343 2.157 11.433c.004.02.02.03.027.045s-.004.033.002.048l2.15 4.762 7.926 16.66v6.18c0 .03.025.045.03.072s-.012.05-.002.074l1.393 3.66c.008.02.03.033.04.048s.002.03.01.043.03.008.04.02c.08.09.18.155.3.155a.37.37 0 0 0 .147-.029c.014-.004.02-.02.03-.03.02-.01.043-.006.06-.02l1-.694c.083-.066.14-.145.165-.246l.22-.952 1.775 1.093c.027.017.056.012.085.025.014.004.02.02.035.025l4.593 1.105a.39.39 0 0 0 .097.012c.085 0 .163-.033.23-.08.025-.017.04-.04.058-.06.027-.03.06-.05.08-.09l.872-1.744c.017-.03 0-.06.006-.093.006-.023.025-.037.027-.06.07.052.15.093.236.093.1 0 .2-.037.28-.11.006-.004.004-.012.008-.02s.014-.002.02-.008l1.86-2.033c.023-.023.014-.056.03-.083.025-.043.064-.076.072-.128l.872-5.345c.004-.025-.017-.043-.017-.066s.02-.04.017-.064l-.86-5.328 1.54-7.532 7.348-12.784c.008-.014 0-.035.006-.05.01-.02.03-.033.037-.052l1.077-4.258.384.258c.07.043.15.068.23.068.132 0 .264-.064.343-.186l1.725-2.587-1.074 3.934c-.002.012.006.02.004.033s-.014.02-.017.033l-.988 8.886c-.002.05.03.085.037.128.017.062.017.13.056.18l1.97 2.363-.833 5.167-.855 2.11c-.006.012.004.027 0 .04s-.02.02-.023.035l-3.488 17.604c.002.014-.004.017-.004.02l-4.476 30.443c-.002.012.008.02.008.03-.002.02-.006.03-.004.048-.002.06.033.087.045.126.02.043.025.085.054.12.006.01.004.023.012.03l1.105 1.105c.03.03.068.025.103.043s.048.054.087.066l6.292 1.626-1.343 3.52c-.006.014.004.027.002.04s-.02.02-.023.035l-.698 3.832c-.004.027.014.043.014.068s-.02.043-.017.07l.988 6.198.748 12.303-.262 1.53-1.378 1.597c-.023.025-.014.056-.03.085s-.048.04-.056.072l-3.66 13.13c-.012.045.012.085.017.128s-.02.087-.004.13l2.38 6.214c.037.097.1.16.194.21.01.006.01.02.02.023l5.348 2.442a.42.42 0 0 0 .172.037c.025 0 .05-.004.074-.008l3.777-.698c.027-.004.04-.03.062-.04.062-.023.114-.052.157-.1.027-.03.043-.056.058-.093.014-.03.043-.048.05-.08l1.57-6.855c.006-.025-.012-.043-.012-.066s.023-.04.02-.062l-.576-6.173.984-7.68c.002-.01-.008-.017-.006-.027s.01-.017.01-.027v-3.836c0-.023-.023-.04-.025-.06-.008-.054-.03-.09-.058-.138s-.052-.085-.1-.118c-.02-.014-.02-.04-.04-.048l-1.023-.535-.38-.547.502-5.985 3.68-6.776c.012-.025 0-.052.008-.076s.035-.043.04-.072l.977-8.462.878-1.6 1.37-.525c.017-.006.02-.027.037-.035.03-.017.058-.027.085-.048s.035-.054.054-.083h0c.02-.03.043-.05.056-.085.004-.012.017-.02.02-.033l.872-3.37c.004-.014-.008-.027-.006-.04s.02-.025.02-.04l.114-2.045 3.304-12.37v2.093l-2.723 13.674c-.01.045.02.083.027.128.006.056.002.11.03.157s.074.068.12.1c.037.03.054.072.1.09l.413.134v4.35c0 .02.017.027.02.043s-.012.03-.008.048l1.027 4.458-.736 4.892-1.97 7.125c-.006.02.01.037.006.054s-.023.035-.023.054v4.276l-.75 13.937-2.47 6.092c-.01.03.006.052 0 .08s-.03.043-.03.074v3.86l-.595 3.566-1.634.616c-.03.01-.04.043-.064.058-.045.03-.08.058-.112.105s-.045.087-.058.138c-.006.03-.035.05-.035.083v3.138c0 .043.035.072.045.114.017.052.025.1.058.14s.08.06.128.085c.037.02.058.058.1.066l6.856 1.335c.027.004.052.008.08.008h11.042c.122 0 .223-.054.3-.136l1.523-1.75c.035-.04.03-.09.045-.136s.054-.083.054-.132v-1.973c0-.037-.03-.058-.04-.093-.014-.054-.027-.095-.058-.138s-.07-.07-.118-.1c-.03-.02-.043-.052-.076-.062l-5.06-1.574-.907-1.872c-.01-.02-.035-.025-.045-.043s-.006-.043-.023-.058l-3.376-3.657v-4.816l9.964-24.502c.01-.025-.006-.043 0-.068s.03-.04.03-.068l.68-14.364h3.847c.01 0 .023 0 .033-.002l9.358-.754c.01-.002.014-.01.025-.012.045-.006.093-.01.136-.035.012-.006.012-.02.025-.03.025-.017.043-.033.064-.052.03-.03.04-.06.056-.095s.045-.054.054-.087c.002-.008.008-.012.01-.02l.874-4.183c.004-.023-.012-.04-.012-.058s.02-.033.02-.052l-1.105-17.488c-.008-.02 0-.025-.002-.033l-4.242-30.158c-.006-.043-.043-.066-.06-.105s-.01-.076-.037-.107l-.665-.77-.318-4.2 1.29-.527c.03-.01.035-.04.058-.056.045-.03.08-.06.1-.11.033-.043.048-.085.058-.136.006-.03.033-.048.033-.08v-2.793c0-.008-.008-.012-.008-.02s.006-.014.006-.023l-.748-7.268.71-4.312.84-.36v4.836c0 .03.027.048.033.076s-.012.056 0 .085l4.703 11.084 2.885 8.37.217 2.59-.556 1.725c-.006.017.006.03.004.045s-.02.023-.023.04l-.812 8.136c-.002.014.01.023.01.037s-.01.02-.01.03l.29 5.06c.004.062.045.11.074.16.02.037.023.08.05.11.074.074.176.12.287.12h1.22a.41.41 0 0 0 .283-.114l.872-.816c.014-.012.012-.037.025-.052.048-.058.097-.122.105-.207l.33-3.146.866 2.16-.9 4.778-.688 1.83c-.01.027.008.05.002.074s-.03.043-.03.07c0 .033.03.052.035.083.012.052.027.093.058.138s.064.074.112.105c.027.017.035.048.064.058a.36.36 0 0 0 .145.029h1.975c.09 0 .18-.03.254-.09l4.59-3.6c.008-.006.006-.017.012-.023.043-.037.056-.09.08-.14s.052-.085.056-.136c0-.008.01-.014.01-.025v-6.62c0-.025-.023-.04-.027-.062s.014-.043.006-.066l-2.304-7.026v-.84l.47-.236c.027-.012.033-.043.052-.06a.38.38 0 0 0 .099-.116c.03-.05.043-.09.05-.147.002-.027.027-.045.025-.074l-.35-5.05c-.002-.017-.02-.027-.02-.04-.01-.056-.04-.095-.07-.143-.03-.04-.048-.08-.09-.112-.014-.01-.017-.03-.033-.04l-.44-.24-.74-12.323c0-.012-.017-.02-.02-.035s.01-.03.006-.045l-3.035-11.414.13.02.062.004h.02c.025-.002.04-.025.06-.03.076-.02.147-.04.202-.095.03-.03.037-.064.056-.1s.06-.072.068-.126c.002-.014-.01-.025-.01-.04s.017-.027.017-.043l-.638-13.305c0-.01-.01-.017-.01-.025s.006-.012.004-.02l-2.095-13.073c-.006-.033-.035-.048-.045-.076s0-.064-.02-.09l-3.66-5.404c-.02-.027-.05-.03-.072-.048s-.025-.052-.048-.068l-12.346-7.873 3.538-6.574c.006-.012-.002-.025.004-.037s.025-.025.03-.043l.988-3.37c.004-.017-.008-.03-.006-.045s.02-.025.02-.04l.382-5.483h.603c.1 0 .205-.045.28-.116.03-.03.033-.064.052-.1.03-.048.07-.09.08-.15l.58-4.706c.006-.043-.025-.08-.035-.122s.008-.09-.014-.128l-2.616-4.708c-.023-.04-.066-.048-.097-.076s-.04-.072-.08-.093l-6.102-3.076c-.04-.02-.083-.002-.126-.01s-.068-.037-.1-.033l-6.974.816c-.04.004-.06.037-.095.052s-.08.004-.112.03l-4.94 3.834c-.037.03-.04.072-.062.11s-.07.064-.083.114l-1.86 7.146c-.008.03.012.05.01.08s-.025.048-.02.076l.343 2.686-.4 3.314c-.004.03.02.052.023.08s-.02.052-.01.08l.754 2.675c.02.04.04.054.052.074.037.068.083.126.15.163.01.004.012.02.025.025l1.48.7-.316 3.543-1.205 2.824h-1.47c-.033 0-.052.03-.083.035s-.058-.01-.087.002l-5.234 2.36-7.27 1.155c-.048.008-.076.048-.118.07s-.09.023-.124.058l-7.614 8.367c-.014.014-.008.04-.02.054s-.037.02-.045.04l-9.82 19.98zm-29.294-8.086l-3.533 4.08H133.2l-5.354-3.006-3.075-8.404 7.114-3.667c.012-.006.012-.02.025-.03.058-.037.095-.09.128-.153.017-.03.04-.048.048-.08.002-.008.01-.01.012-.02l.29-1.34 1.335-5.628c.004-.02-.01-.03-.008-.045.002-.02.02-.03.02-.048v-1.16c0-.027-.023-.043-.03-.066a.35.35 0 0 0-.058-.14c-.03-.045-.056-.08-.1-.112-.02-.017-.025-.043-.048-.054l-1.897-.9-.58-3.324.533-1.186 1.124.525v.61c0 .017.017.03.02.043.006.052.033.09.056.136s.045.093.09.128c.012.008.012.03.027.037l.988.64c.02.014.045.01.068.02.014.006.02.023.035.03.04.012.08.02.122.02.126 0 .227-.07.304-.165.012-.012.033-.008.043-.025s.002-.033.008-.048c.012-.02.033-.033.04-.054l1.283-4.18 3.314-1.492c.008-.004.01-.017.02-.02.014-.008.03-.004.043-.012l3.287-2.192 3.137 1.566 2.58 1.61v4.615l-.905 5.11-1.926 2.772-.705 1.085-1.558.828H140.3l-3.502-2.09a.42.42 0 0 0-.566.143c-.118.196-.052.45.143.566l3.602 2.15c.066.04.138.058.213.058h2.965c.066 0 .132-.017.194-.048l1.294-.7.382 1.312c.004.012.017.017.02.03.012.03.033.048.052.074a.36.36 0 0 0 .145.134c.014.008.02.03.035.033l6.75 2.543-2.283 9.478zm-33.567 2.34l3.393-7.69 4.447-1.653 3.1 8.5a.42.42 0 0 0 .176.207l5.59 3.148a.39.39 0 0 0 .202.052h13.305c.122 0 .223-.054.3-.136l3.736-4.303c.02-.023.012-.05.025-.074.02-.035.054-.058.064-.1l2.304-9.62h2.27l4.905 3.68 3.77 10.294-.605.744-6.348 7.774.22-4.004c.014-.225-.16-.424-.388-.436-.246.004-.424.16-.434.4l-.29 5.29c.004.014-.002.017-.002.023v2.77l-.543 1.415-.473.837-1.403 1.233c-.08.07-.13.167-.138.28l-.872 12.028c-.002.04.027.066.035.105s-.01.072.008.11l1.86 3.717c.01.02.03.03.04.043.006.01.002.025.01.037l1.752 2.122-15.384 2.603-13.646-2.066-5.25-4.62-.312-.28 2.165-5.66c.008-.023-.006-.043-.002-.064s.03-.04.03-.066l.347-8.716c0-.02-.017-.03-.02-.045s.012-.03.01-.043l-.512-2.744.056-3.336c0-.048-.035-.08-.05-.126s-.02-.1-.054-.14-.087-.056-.136-.08c-.04-.02-.064-.06-.112-.068l-8.116-1.215-.486-.097 1.442-10.024zm4.777 27.373l-5.794 13.902c-.002.025-.01.027-.012.033l-2.8 8.654c-.01.035.01.064.008.1s-.03.064-.023.1l.905 5.047-2.626 5.857h-2.554l-1.24-.952v-4.6l2.354-5.91c.006-.012-.004-.025 0-.04s.023-.027.025-.043l3.83-22.378 2.48-5.888c.012-.03-.004-.054 0-.083s.033-.045.033-.076v-10.098l7.302 1.095-.05 2.994-.576 4.44-1.27 7.848zm18.1 94.125c.04-.008.06-.048.095-.066.048-.027.09-.045.126-.09s.043-.09.058-.14c.012-.04.043-.066.043-.107V273.8l1.203-.362-3.918 9.66c-.014.037.004.07 0 .107s-.033.064-.027.103l.8 6.154h-.858v-.28c0-.014-.014-.025-.017-.04s.01-.03.008-.043l-.98-4.774.39-8.35 3.064-.686zm-4.102 22.886h-8.007l-.52-.94 2.78-.376 4.463.512 1.606.254-.322.55zm-6.653-4.5l4.4-1.155 3.06 1.506v.136l-.048.585-1.717-1.42c-.04-.03-.087-.025-.13-.04s-.08-.054-.13-.054h-3.544c-.025 0-.04.023-.064.027s-.043-.012-.068-.004l-2.07.702.3-.283zm5.498 2.88l-4.55-.525c-.02-.004-.033.012-.05.014s-.033-.017-.05-.014l-2.963.4v-.85l.262-.225 3.812-1.29h3.327l2.058 1.7v.65l-.056.424-1.79-.28zm2.674-.975l.087-1.045 2.7-.405v1.116l-2.777.67v-.337zm.118-1.886v-2.3h1.59l.882 1.932-2.47.37zm0-3.13v-.28h1.07l.13.28h-1.2zm-1.816-6.23c0 .02.017.03.02.048s-.014.035-.01.052l.98 4.785v3.882l-2.835-1.392c-.048-.025-.1-.006-.15-.01s-.09-.03-.134-.02l-3.597.942 1.256-1.884c.012-.017.002-.037.012-.056.012-.025.037-.04.043-.066l.872-3.314c.01-.04-.014-.07-.014-.107s.023-.072.012-.114l-2.725-9.454 6.656-1.475-.384 8.183zm16.103-38.666c-.002.02.014.033.014.05s-.017.037-.014.058l3.453 23.072-3.176 2.646-5.234-.45c-.03-.002-.045.02-.074.025s-.05-.02-.076-.01l-4.598 1.337-1.79.54v-3.688c0-.014-.014-.023-.014-.035s.01-.025.008-.037l-2.033-11.56c-.04-.225-.258-.376-.477-.335a.41.41 0 0 0-.337.475l2.027 11.528v5.27l-3.048.68-7.612 1.686-3.84.903-8.722-3.18 5.593-14.015c.008-.023-.006-.04 0-.062s.027-.037.03-.06l1-12.895c0-.014-.01-.023-.01-.035s.012-.023.01-.035l-1-10.982c0-.008-.01-.012-.012-.025s.006-.014.004-.023l-2.492-11.88-1.738-21.417 1.67-9.25 3.387-6.504 4.95 4.357c.037.033.085.03.128.048.03.012.048.043.083.048l13.892 2.1a.38.38 0 0 0 .068-.006l15.706-2.657.376 5.61-.64 12.464-3.246 17.102c.002.023-.004.025-.004.03l-2.21 19.118zm6.835-80.833l5.52-6.758 1.827 11.127c.004.02.023.03.03.05s-.006.037.002.052l2.957 6.545 3.01 10.02 2.32 9.8c.004.02.023.03.03.045s-.004.033.004.048l1.626 3.138c.014.02.025.023.03.033.014.023.035.04.052.056s.01.033.025.043l4.343 3.508-.48 2.783c-.004.02.012.035.012.054-.002.054.017.095.035.147s.033.097.07.136c.012.012.01.035.025.048l.6.514v.7l-.68 1.36-4.21-1.012-2.21-1.36c-.02-.012-.043 0-.066-.01s-.033-.035-.056-.04c-.033-.008-.06.014-.093.017-.056 0-.1.004-.15.025a.35.35 0 0 0-.12.087c-.025.025-.062.03-.08.058-.012.02-.002.043-.01.066s-.037.033-.043.056l-.312 1.357-.426.3-1.174-3.09v-6.202c0-.035-.03-.054-.037-.087s.01-.06-.004-.09l-7.96-16.73-2.132-4.723-2.285-12.07zm33.517 8.445l-7.352 12.8c-.012.02 0 .043-.008.064s-.033.035-.04.058l-1.57 7.67c-.006.03.014.048.014.076s-.02.043-.017.072l.862 5.338-.84 5.157-1.473 1.61-.33-.362c-.017-.012-.023-.017-.03-.02l-.583-.504.48-2.79c.004-.02-.014-.037-.014-.058.002-.054-.014-.1-.033-.15s-.035-.09-.072-.13c-.014-.017-.012-.04-.03-.052l-4.323-3.49 2.194-8.05c.002-.006-.004-.014-.002-.02l4.122-22.554 2.26-4.36 7.914 5.22-1.13 4.483zm5.823 10.646c.02.027.056.02.083.04.035.03.05.07.093.085l7.788 2.832-.188.25c-.017.025-.008.052-.02.076s-.043.04-.05.07l-1.093 4.365-7.875-4.198.68-4.22.583.698zm-3.02 56.284l-6.213-1.607-.395-.4 7.16-.578-.552 2.576zm-1.833 32.9c-.012.062.02.105.027.157s.002.114.033.157.083.06.128.09.072.08.128.09l3.498.696c.03.004.054.008.08.008.02 0 .04-.002.06-.004l4.244-.638c.03-.004.043-.033.066-.04.064-.025.12-.048.163-.1.03-.03.043-.062.06-.1s.045-.052.054-.09l.8-4.045v1.444l-.986 7.698c-.002.017.012.03.012.043s-.017.03-.014.045l.574 6.15-1.496 6.528-1.424.262.977-.53c.006-.004.008-.012.014-.017a.41.41 0 0 0 .18-.215l.004-.014 1.1-3.3c.008-.025-.008-.043-.004-.066.008-.056.002-.1-.012-.155s-.025-.095-.056-.136c-.014-.02-.008-.045-.027-.064l-1.626-1.624c-.04-.04-.09-.04-.138-.058s-.074-.058-.126-.06l-7.76-.525c-.025 0-.04.02-.062.025-.045.008-.08.027-.124.048a.41.41 0 0 0-.128.103c-.014.02-.04.023-.052.043l-.467.872c-.012.025 0 .048-.006.072a.36.36 0 0 0-.017.149c.004.054.012.1.037.15.01.02.002.045.017.066l2.732 3.776c.02.025.05.02.072.04.03.03.043.072.083.093l3.478 1.686-.048.008-5.075-2.318-2.273-5.93 3.6-12.912.316-.368-.63 2.8zm1.085 16.323l-2.52-3.483.217-.41 7.31.496 1.337 1.335-.97 2.915-1.705.926-3.668-1.78zm10.89-37.046l-3.684 6.787c-.014.025 0 .052-.008.08s-.04.048-.04.08l-.523 6.22c-.004.05.03.087.043.134s.002.093.03.134l.523.752c.023.017.02.025.025.033l.566.66-1.124 5.62-3.883.583-3.002-.597.897-4.004.295-1.702c.004-.02-.012-.033-.012-.05s.017-.03.017-.045l-.754-12.38c-.01-.025-.002-.03-.004-.04l-.98-6.148.678-3.725 1.498-3.917c.002-.008-.002-.014 0-.02s.012-.014.014-.025l.696-3.26 3.754-.316 7.52 1.754-.56 3.03-.957 1.746c-.017.03-.002.06-.01.09-.008.023-.035.037-.037.062l-.977 8.46zm3.473-11.082l-.56.217.432-2.35.128.027v2.107zm7.484.386c.043.014.09.023.132.023h8.637l-.21 1.262c-.002.008.006.014.006.023s-.012.014-.012.025l-.23 4.706-.463 9.985-9.968 24.5c-.01.03.006.052 0 .08s-.03.043-.03.074v4.61l-3.684-.26c-.04 0-.066.03-.103.037-.062.012-.128.012-.182.052l-2.41 1.91v-2.954l2.467-6.084c.008-.023-.006-.043 0-.066s.03-.04.03-.066l.754-14.003c-.004-.017 0-.02 0-.023v-4.248l1.96-7.1c.002-.008-.004-.017-.002-.025s.012-.014.014-.025l.752-4.995c.004-.03-.017-.048-.02-.072 0-.03.02-.052.014-.083l-1.035-4.493v-4.02l3.58 1.21zm21.795.023l.114.215-8.707.702h-3.746l.15-.915 12.19-.002zm-20.378 49.733l.56 1.153-.822-.23-1.426-2.194c-.008-.017-.027-.014-.04-.03-.033-.04-.076-.058-.126-.085s-.09-.054-.143-.06c-.014 0-.025-.017-.04-.017h-3.488c-.045 0-.076.037-.12.048-.043.017-.09.006-.128.035l-3.195 2.38c-.023.02-.023.045-.04.066s-.05.025-.066.048c-.017.03-.004.056-.014.085-.02.052-.025.093-.023.15s.014.097.04.15c.012.025.002.056.02.08.014.02.043.012.06.03.023.025.027.058.054.076l1.335.816c.068.04.14.06.215.06a.42.42 0 0 0 .233-.072l2.132-1.477 4.405.67 1.83.516 4.934 1.533v1.514l-1.285 1.483h-10.815l-6.48-1.258V294.4l1.44-.54 2.263.897 2.03 2.198c.083.08.186.132.304.132h8.95a.41.41 0 0 0 .231-.07l1.622-1.1.004-.004c.066-.05.122-.11.15-.186.006-.014-.004-.03 0-.043.014-.05.004-.1-.002-.15s-.004-.105-.033-.153c-.006-.012 0-.03-.008-.04-.025-.037-.066-.04-.097-.064-.033-.03-.045-.068-.09-.087l-3.314-1.34c-.027-.01-.052.006-.08.002s-.045-.033-.074-.033h-4.65c-.054 0-.09.04-.138.056s-.103.017-.143.056l-2.3 2.16-1.804-1.956c-.025-.025-.058-.023-.087-.04s-.037-.052-.066-.064l-2.2-.864.56-3.353 2.827-2.237 3.806.27 3.333 3.61zm-5.044.17h-.012c-.095-.017-.163.02-.233.054-.02.01-.043 0-.062.014h-.002c-.01.008-.02.012-.027.02l-2.02 1.394-.587-.357 2.595-1.934h3.128l.886 1.364-3.668-.556zm1.426 3.027h4.405l2.52 1.018-.88.597h-7.778l1.732-1.616zm25.225-56.57l-.63 3.02c-.008-.014-.025-.014-.035-.027a.36.36 0 0 0-.122-.101.34.34 0 0 0-.136-.056c-.023-.004-.037-.025-.058-.025H215.33l-4.062-1.374-.353-.116 2.66-13.358c.002-.014-.01-.027-.008-.043s.017-.025.017-.04v-5.274l.986-8.503c.027-.227-.134-.432-.362-.46a.42.42 0 0 0-.459.364l-.986 8.5-4.12 15.434c-.004.017.008.03.006.045s-.017.023-.02.04l-.114 2.05-.124.473c-.006-.01-.023-.01-.03-.02-.035-.043-.08-.06-.128-.087-.037-.02-.056-.058-.1-.066l-.864-.174-7.957-1.857c-.025-.004-.043.012-.066.012s-.04-.023-.062-.02l-4.126.35-8.083.65 4.4-29.93 3.476-17.546.686-1.7 8.195 4.374c.02.01.043.008.066.017.012.004.014.017.027.02.035.008.068.012.1.012a.42.42 0 0 0 .229-.079c.023-.014.035-.037.054-.056.03-.027.06-.045.08-.083.008-.017-.002-.033.004-.045.008-.02.027-.03.033-.048l1.203-4.8.302-.403.595.17-.93 5.8c-.008.045.023.083.03.128.01.062.006.13.043.18.025.035.07.04.103.064.052.04.095.093.165.103l5.288.872c.01.002.023.002.033.002l5.616.41h4.242c.05 0 .103-.01.15-.03l2.207-.872c.037-.017.05-.054.08-.08.043-.035.083-.058.112-.107s.03-.09.037-.145c.008-.037.037-.068.03-.11l-.58-4.3c-.004-.033-.035-.045-.043-.074s.002-.062-.014-.09l-.446-.72.475-.105.79 1.302.5 3.75c.002.014.017.023.02.037s-.006.027-.002.04c.017.045.054.076.085.114.02.025.03.052.054.072.072.058.16.095.252.095.02 0 .037-.002.056-.004.035-.01.056-.01.076-.02l4.126-1.394c.012-.004.017-.02.03-.025.02-.008.04-.006.058-.02l3.304-2.078.442.5 4.226 30.036 1.097 17.4zm-29.133-49.84c.023.008.043.008.066.012l8.503 1.17.056.004a.45.45 0 0 0 .089-.01l3.955-.866.556.897.527 3.894-1.833.723h-4.15l-5.556-.405-4.856-.802.845-5.264 1.798.647zm18.303-.915c.033-.014.052-.014.068-.02l4.354-1.764.29 3.834-3.352 2.11-3.608 1.22-.455-3.336c-.004-.033-.033-.05-.043-.08s.004-.056-.012-.083l-.688-1.13 3.445-.75zm13.08-2.002l-4.678-11.036v-5.113l1.975-.913 3.368-.502 3.155.42 3.116 11.726.742 12.327-.647.7-4.226.523-2.796-8.11zm8.45 12.32l-1.533-1.333c-.04-.033-.09-.03-.134-.043s-.083-.056-.134-.056h-3.515l-.163-1.952 4.3-.533c.058-.006.095-.052.143-.08.035-.02.08-.017.107-.045l.653-.696.16.09.314 4.55-.21.1zm-2.27 12.25c.008-.04-.02-.072-.025-.114s.02-.076.002-.118l-1.16-2.905c-.012-.03-.043-.037-.058-.06-.03-.045-.06-.076-.107-.11a.33.33 0 0 0-.138-.058c-.03-.006-.048-.033-.08-.033h-.465c-.054 0-.093.04-.14.058s-.09.02-.124.052c-.045.04-.062.095-.087.15-.02.04-.056.062-.06.107l-.39 3.74-.64.597h-.665l-.267-4.624.806-8.07.473-1.473h3.44l1.484 1.287v.975c0 .025.023.04.027.062s-.014.043-.006.066l2.304 7.026v6.357l-4.32 3.388h-1.238l.488-1.3c.004-.012-.004-.025-.002-.037s.02-.02.02-.033l.928-4.935zm-2.33-55.243l.614 12.786-.254-.04-3.496-.465c-.02-.004-.037.017-.058.017s-.037-.02-.056-.017l-3.488.52c-.023.004-.033.027-.052.033s-.04-.008-.06.002l-2.27 1.05-.92.393 2.025-11.978c.002-.014-.008-.023-.008-.035s.014-.02.014-.035V149.9c0-.227-.186-.413-.413-.413s-.413.186-.413.413v6.94l-2.145 12.69-.754 4.593c-.004.02.012.035.012.052s-.02.037-.017.056l.752 7.3v2.49l-1.3.533h-.002l-4.852 1.967-5.308 1.153-4.17.91-8.377-1.15-2.22-.8c-.02 0-.02-.006-.027-.008l-1.21-.343-8.193-2.977-1.09-1.308-1.975-2.368.963-8.68 1.736-6.36c.002-.008-.004-.017-.004-.025s.012-.014.014-.025l1.337-8.9a.42.42 0 0 0-.349-.473.41.41 0 0 0-.471.347l-1.327 8.805-2.854 4.283-.53-.353h-.002l-8.542-5.638-4.58-3.055 9.637-19.6 7.474-8.212 7.18-1.142c.01 0 .014-.012.025-.012.027-.008.054-.008.08-.02l5.205-2.345h1.035l-.512 1.244c-.008.02.004.035 0 .05-.014.052-.006.097 0 .15s.008.105.035.153c.008.014.002.033.012.048l2.093 2.905c.017.023.05.017.07.037.03.03.043.072.083.093l5.58 2.73c.058.03.122.043.182.043.012 0 .027 0 .04-.002l6.22-.58c.124-.01.22-.08.29-.174.004-.006.014-.002.02-.01l1.918-2.905c.025-.037.01-.076.023-.118s.045-.068.045-.112v-2.967l11.958 7.625 3.564 5.262 2.07 12.95zM229.58 121l-3.695 6.867c-.004.008.002.017-.002.025s-.014.01-.02.02l-1.093 2.733-2.992 1.105-2.65-1.062-3.65-4.904c-.136-.188-.4-.22-.576-.087-.184.136-.22.395-.085.578l3.72 5c.02.027.054.02.076.04.037.033.054.08.1.1l2.905 1.16c.05.02.103.03.153.03a.38.38 0 0 0 .143-.027l3.314-1.223c.012-.006.017-.02.03-.027.072-.035.13-.09.174-.16.008-.014.025-.02.03-.037l.374-.923v1.452l-1.74 2.634-5.905.554-5.38-2.634-1.897-2.63.665-1.59 1.335-3.136c.008-.02-.004-.04 0-.06.008-.025.03-.04.033-.064l.35-3.894c.002-.035-.023-.056-.03-.09-.006-.054-.017-.097-.043-.145s-.06-.08-.105-.114c-.025-.02-.03-.052-.06-.064l-1.57-.73-.682-2.417.395-3.277.09-.673.8-.473 1.426 1.76v1.423c0 .035.03.058.04.09s-.008.068.008.1l.872 1.684c.03.052.072.09.118.124.008.008.008.023.02.03.08.045.153.07.23.07a.42.42 0 0 0 .19-.045c.043-.02.052-.068.085-.1.02-.02.05-.014.066-.037l2.207-3.254c.01-.017.002-.033.01-.048.012-.025.037-.037.043-.062l2.062-6.74h2.763l4.368 3c.017.01.037.008.054.017s.014.023.03.03l3.544 1.392c.05.02.1.03.15.03h.548l-.374 5.378-.97 3.293z"/><path d="M190.74 278.015c-.053.018-.097.034-.137.067s-.057.073-.082.123c-.017.034-.053.05-.06.1l-.532 2.944c-.01.055.023.1.038.152s.004.1.034.138.1.055.137.085.074.07.128.08l.01.002 2.14.402 6.213.835a.32.32 0 0 0 .06.006c.038 0 .074-.006.112-.014l1.536-.394c.063-.016.093-.063.137-.1s.095-.047.12-.1.008-.083.017-.125c.013-.057.042-.113.025-.17l-.9-2.898c-.004-.012-.017-.016-.023-.026-.02-.047-.06-.075-.097-.115s-.065-.08-.116-.1c-.01-.004-.015-.018-.025-.022l-3.667-1.282c-.032-.01-.06.006-.095.004s-.055-.03-.088-.028l-4.793.392c-.044.006-.067.038-.103.05zm4.87.354l3.38 1.183.7 2.313-1.04.267-6.108-.82-1.725-.318.4-2.265 4.374-.358zm-50.83-152.032c.04 0 .078-.007.12-.018l1.254-.366 1.307.368a.46.46 0 0 0 .115.016c.167 0 .32-.1.372-.254.062-.187-.053-.4-.26-.446l-1.422-.4c-.04-.01-.078.01-.12.01s-.074-.02-.115-.01l-1.37.4c-.204.06-.317.26-.253.448.053.152.206.25.37.25zm-6.256-.02c.023 0 .046-.002.07-.005l1.977-.343 1.595.24c.02.004.04.005.06.005.185 0 .347-.125.376-.3.034-.195-.1-.38-.315-.4l-1.662-.252c-.023-.004-.04.014-.063.014s-.042-.018-.067-.013l-2.04.352c-.208.038-.345.223-.305.418.032.17.193.3.374.3zm-4.44 46.8c.022 0 .042-.002.067-.005l7.654-1.1 1.14.396a.48.48 0 0 0 .153.026c.16 0 .308-.08.375-.212.083-.176-.016-.374-.22-.448l-1.246-.43c-.04-.014-.075.003-.115 0s-.065-.027-.107-.022l-7.77 1.103c-.218.032-.37.208-.33.393.034.17.206.3.4.3z"/></g><text font-family="AvenirNextforINTUIT-Demi, AvenirNext forINTUIT" font-size="43" letter-spacing="3.071" fill="#4d4d4d"><tspan x="338" y="130">Parents</tspan></text><text font-size="20" letter-spacing="1.429" fill="#000" class="B"><tspan x="352" y="176">Revisits exhibits</tspan><tspan x="352" y="216">Asks attendants about</tspan><tspan x="352" y="240">exhibit related details</tspan><tspan x="352" y="280">Spends more time at</tspan><tspan x="352" y="304">each exhibit</tspan></text><g fill="#666"><circle cx="341" cy="169" r="3"/><circle cx="341" cy="209" r="3"/><circle cx="341" cy="274" r="3"/></g></g></svg>