<?xml version="1.0" encoding="UTF-8"?>
<svg width="689px" height="398px" viewBox="0 0 689 398" version="1.1" xmlns="http://www.w3.org/2000/svg" xmlns:xlink="http://www.w3.org/1999/xlink">
    <!-- Generator: Sketch 63.1 (92452) - https://sketch.com -->
    <title>userData2</title>
    <desc>Created with Sketch.</desc>
    <g id="userData2" stroke="none" stroke-width="1" fill="none" fill-rule="evenodd">
        <rect fill="#FFFFFF" x="0" y="0" width="689" height="398"></rect>
        <g id="noun_Couple_1292721" transform="translate(106.000000, 99.000000)" fill="#000000" fill-rule="nonzero">
            <path d="M73.035443,60.5361766 C73.0127137,60.5795609 73.0313104,60.6291429 73.0271778,60.674593 C73.0209789,60.7262409 73.0023822,60.773757 73.0168463,60.823339 C73.0313104,60.872921 73.0685038,60.9059757 73.1015646,60.9514258 C73.1284265,60.9886123 73.1366917,61.0361284 73.1759514,61.0650512 L77.7507398,64.1164099 L75.4220196,68.6097782 C75.4116881,68.6304374 75.4240859,68.6531625 75.4158207,68.6717557 C75.4096218,68.6924149 75.3868925,68.7027444 75.3827599,68.7234036 L71.2625575,91.2935411 L71.2625575,91.2935411 L69.2747768,98.5779626 L68.1589748,96.4252776 L65.846785,86.6576245 C65.8447187,86.6534927 65.8405861,86.6514268 65.8385198,86.6472949 C65.8385198,86.6410972 65.8426524,86.6369654 65.8405861,86.6328335 L62.8175891,76.578018 C62.8155228,76.5676885 62.803125,76.5656225 62.7989924,76.555293 C62.7969261,76.5449634 62.803125,76.5366997 62.7989924,76.5243042 L59.8545147,70.0084037 L57.9183915,58.2202843 L58.5568783,57.435236 C58.5692761,57.4207746 58.5630772,57.4001154 58.5713424,57.385654 C58.6023369,57.3402038 58.6085358,57.2947537 58.6147347,57.2410399 C58.6209336,57.187326 58.6333314,57.1398099 58.6209336,57.0860961 C58.616801,57.0695688 58.6291988,57.0530415 58.6229999,57.0344482 L54.7280242,46.403242 C54.7135601,46.3639896 54.6743004,46.3515941 54.6495048,46.3185395 C54.6247092,46.2854848 54.6226429,46.2421005 54.5895821,46.2152436 L49.4754894,42.3788367 C49.4362297,42.3499139 49.3907711,42.3602435 49.3473788,42.3457821 C49.3039865,42.3313207 49.272992,42.2962001 49.2254671,42.2962001 L46.5661388,42.2962001 L39.7452822,39.7262 L39.3320222,38.3048495 L39.9064537,37.4165054 L43.551407,36.1253076 C43.5679374,36.1191098 43.57207,36.1005166 43.5865341,36.0922529 C43.6505894,36.0612642 43.6981143,36.015814 43.7394403,35.9559024 C43.7559707,35.9311114 43.7787,35.9145841 43.7890315,35.8897931 C43.7931641,35.8794635 43.8034956,35.8753317 43.8076282,35.8629362 L45.1424581,31.7393669 L45.1424581,31.7393669 L47.1137084,26.4113683 C47.1302388,26.3679841 47.1075095,26.3307976 47.1095758,26.2874133 C47.1116421,26.2440291 47.138504,26.2047767 47.1261062,26.1593265 L45.5970441,20.4429356 L46.3967022,18.9017619 C46.4029011,18.8893664 46.3946359,18.8769709 46.4008348,18.8645754 C46.4214978,18.8170594 46.4132326,18.7654115 46.4132326,18.7116976 C46.4132326,18.6579838 46.4214978,18.6063359 46.4008348,18.5588198 C46.3946359,18.5464243 46.4029011,18.5340288 46.3967022,18.5216333 L44.652745,15.1500576 C44.6382809,15.1211348 44.6072864,15.114937 44.5866234,15.0942779 C44.5659604,15.0694869 44.5680267,15.0364322 44.5432311,15.0157731 L41.2908747,12.4581685 C41.2681454,12.4416411 41.2433498,12.4499048 41.2185542,12.4375093 C41.1958249,12.4251138 41.1875597,12.396191 41.1627641,12.3899932 L35.0609799,10.417043 C35.0382506,10.4087793 35.0175876,10.4253066 34.9969246,10.4232407 C34.972129,10.4191089 34.9576649,10.3963838 34.9349356,10.3963838 L28.4818804,10.3963838 C28.4198914,10.3963838 28.3723665,10.4377021 28.320709,10.4624931 C28.2773167,10.4831523 28.2277255,10.4810864 28.1925984,10.5141411 L24.7046839,13.9394306 C24.6881535,13.9559579 24.6922861,13.9828148 24.677822,13.9993421 C24.6654242,14.0179354 24.6385623,14.0200013 24.6302971,14.0406605 L20.2146138,22.3518424 C20.1898182,22.3952267 20.2084149,22.4448087 20.2001497,22.4902589 C20.1939508,22.5336431 20.1650226,22.5708296 20.1732878,22.6183457 L21.799466,31.563764 C21.8056649,31.5947528 21.8304605,31.6092142 21.8428583,31.6360711 C21.8511235,31.6608621 21.8387257,31.6835872 21.8531898,31.7063122 L25.5704636,37.7677112 L25.5704636,39.6993431 L25.3307728,40.8004766 L18.0863247,44.5377195 L13.1148067,46.3846488 C13.1127404,46.3867147 13.1127404,46.3867147 13.1106741,46.3867147 C13.0652155,46.4053079 13.0424862,46.4548899 13.0032265,46.4879446 C12.9598342,46.5292629 12.9040441,46.551988 12.8813148,46.6057018 L12.8792485,46.6057018 L9.39133391,54.5098983 C9.38306871,54.5284915 9.39546651,54.5470848 9.38926761,54.5615462 C9.38306871,54.5842713 9.36240571,54.5946009 9.35827311,54.6173259 L7.84780774,65.0749951 C7.83954254,65.126643 7.87466965,65.1679614 7.88500115,65.2154774 C7.89739895,65.2691913 7.89326635,65.324971 7.92632715,65.3683553 C7.95525535,65.4096736 8.00278025,65.4200032 8.04617255,65.448926 C8.08956485,65.4799147 8.12262566,65.5253649 8.17841576,65.5377604 L8.71772008,65.6451881 L8.71772008,75.7991675 L6.25262407,81.649843 C6.24642517,81.6663703 6.25675667,81.6808317 6.25262407,81.6952931 C6.24642517,81.7138864 6.22989477,81.7221501 6.22576217,81.7386774 L2.39690811,104.135278 L0.0309945014,110.074788 C0.0206630009,110.103711 0.0371934016,110.126436 0.0309945014,110.153293 C0.0268619012,110.180149 0,110.198743 0,110.227666 L0,115.10736 C0,115.11769 0.0103315005,115.123888 0.0103315005,115.134217 C0.0144641006,115.187931 0.0475249021,115.227183 0.0702542031,115.276765 C0.0950498042,115.324282 0.107447605,115.375929 0.146707306,115.408984 C0.154972507,115.415182 0.152906207,115.427577 0.161171407,115.435841 L1.67163677,116.596886 C1.74602358,116.652666 1.83487448,116.681589 1.92372538,116.681589 L4.88886601,116.681589 C4.98598212,116.681589 5.07276672,116.638204 5.14715353,116.572095 C5.17194913,116.555568 5.18434693,116.534909 5.20087733,116.512183 C5.22154033,116.487392 5.25046853,116.468799 5.26493263,116.43781 L8.05443775,110.219402 C8.07303445,110.178084 8.05237145,110.140897 8.05857035,110.097513 C8.06476925,110.054129 8.09369746,110.021074 8.08543225,109.975624 L7.17626021,104.901733 L9.92857194,96.3612342 L15.7328089,82.4348912 C15.7390078,82.4183639 15.7286763,82.4018366 15.7328089,82.3873752 C15.7390078,82.3708478 15.7555382,82.3605183 15.7596708,82.3439909 L17.0387105,74.4397945 C17.0387105,74.4356627 17.0366442,74.4356627 17.0366442,74.4315308 C17.0387105,74.4315308 17.0407768,74.4294649 17.0407768,74.427399 L17.2846003,72.5432832 L17.3176611,72.7147542 L16.9746552,81.32756 L14.7327196,87.1864991 C14.7203218,87.2174879 14.7389185,87.2443448 14.7347859,87.2753335 C14.7265207,87.3290474 14.7265207,87.3724316 14.7389185,87.4261454 C14.7513163,87.4798593 14.7719793,87.5170458 14.8050401,87.5624959 C14.8236369,87.5872869 14.8195043,87.6203416 14.8442999,87.6410008 L15.127383,87.8909767 L11.6167391,94.6382599 C11.6064076,94.658919 11.6188054,94.6795782 11.6105402,94.6981714 C11.6043413,94.7208965 11.5795457,94.7312261 11.5754131,94.7539512 L9.88931223,104.106355 C9.88517963,104.127014 9.90171003,104.143542 9.90171003,104.162135 C9.90171003,104.180728 9.88311333,104.195189 9.88517963,104.213783 L11.6291369,125.71171 C11.6291369,125.719973 11.6415347,125.728237 11.6415347,125.736501 C11.643601,125.74683 11.6353358,125.753028 11.6374021,125.763357 L14.12936,137.642377 L15.1149852,148.577273 L14.1314263,161.37356 L8.40570877,175.725481 C8.40570877,175.727547 8.40777507,175.729613 8.40570877,175.733745 C8.40570877,175.735811 8.40157617,175.735811 8.40157617,175.737877 C8.38504577,175.783327 8.40777507,175.828777 8.40777507,175.874227 C8.40777507,175.934139 8.39124467,175.994051 8.41397397,176.047764 C8.43670327,176.091149 8.48629447,176.11594 8.52348787,176.153126 C8.56274758,176.190313 8.58341058,176.241961 8.63713438,176.26262 C8.63920068,176.26262 8.64333328,176.26262 8.64539958,176.264686 C8.64746588,176.264686 8.64746588,176.266752 8.64953218,176.266752 L17.8879599,179.636261 C17.9334185,179.652789 17.9830097,179.661052 18.0284683,179.661052 C18.0594628,179.661052 18.0904573,179.65692 18.1235181,179.648657 L21.6940847,178.811961 L24.4030041,188.203617 L23.576484,191.341744 L21.778803,194.027435 L19.9563263,195.680169 L19.4955414,196.078891 C19.4914088,196.083022 19.4914088,196.08922 19.4872762,196.093352 C19.4480165,196.130538 19.4418176,196.184252 19.4190883,196.231768 C19.396359,196.279284 19.3612318,196.322669 19.3591655,196.376383 C19.3591655,196.380514 19.3529666,196.384646 19.3529666,196.390844 L19.3529666,197.903095 C19.3529666,197.913424 19.3632981,197.921688 19.3653644,197.929952 C19.3653644,197.942347 19.3550329,197.950611 19.3570992,197.958875 C19.3612318,197.991929 19.3880938,198.006391 19.3984253,198.035313 C19.4066905,198.058039 19.3942927,198.080764 19.4066905,198.103489 L20.3385918,199.785145 C20.346857,199.801672 20.3695863,199.795474 20.3799178,199.809936 C20.4543046,199.919429 20.5596859,200 20.7001943,200 L29.1823562,200 C29.318732,200 29.4241133,199.923561 29.4985001,199.818199 C29.5088316,199.805804 29.5294946,199.809936 29.5377598,199.79754 L30.2919593,198.52287 C30.3064234,198.498079 30.2940256,198.475354 30.3022908,198.450563 C30.3126223,198.42164 30.3415505,198.407178 30.3456831,198.37619 C30.3456831,198.374124 30.3436168,198.374124 30.3456831,198.372058 C30.3456831,198.369992 30.3477494,198.369992 30.3477494,198.36586 L30.4262688,197.775008 L33.7550783,196.969301 C33.794338,196.961037 33.8108684,196.92385 33.8459955,196.905257 C33.8935204,196.876334 33.9369127,196.857741 33.9720398,196.812291 C34.0051006,196.770973 34.0154321,196.725522 34.0278299,196.673874 C34.0402277,196.634622 34.0712222,196.611897 34.0712222,196.568513 L34.0712222,194.64721 C34.0712222,194.636881 34.0588244,194.628617 34.0588244,194.616222 C34.0588244,194.603826 34.0691559,194.595563 34.0670896,194.583167 C34.062957,194.562508 34.0402277,194.550112 34.0340288,194.531519 C34.0278299,194.512926 34.0402277,194.494333 34.0319625,194.475739 L32.8107791,191.804509 C32.8107791,191.804509 32.8087128,191.804509 32.8087128,191.802443 C32.8087128,191.800378 32.8087128,191.800378 32.8087128,191.800378 L32.3148671,190.752958 L31.4656178,184.303167 L35.5920191,174.130594 L39.9167852,172.872451 L45.2437068,173.331084 C45.2561046,173.33315 45.2685024,173.33315 45.2809002,173.33315 C45.3738837,173.33315 45.4689335,173.300095 45.5453866,173.236052 L49.0333012,170.331374 C49.0477653,170.318978 49.045699,170.298319 49.0580968,170.287989 C49.0973565,170.246671 49.107688,170.203287 49.128351,170.153705 C49.149014,170.104123 49.1676107,170.060738 49.1676107,170.007025 C49.1655444,169.988431 49.1820748,169.97397 49.1800085,169.955377 L45.6982928,146.701421 L47.8968361,127.668132 L51.1491924,110.537553 C51.1512587,110.527223 51.1429935,110.51896 51.1429935,110.510696 C51.1450598,110.498301 51.1574576,110.492103 51.1574576,110.481773 L51.7980107,97.9891764 C51.7980107,97.9767809 51.7876792,97.972649 51.7876792,97.9602535 C51.7876792,97.9519899 51.7959444,97.947858 51.7959444,97.9395944 L51.3888833,91.838943 C51.3888833,91.8306794 51.3806181,91.8265475 51.3806181,91.8182839 C51.3785518,91.8100202 51.386817,91.8038225 51.3847507,91.7955588 C51.3785518,91.7563064 51.3434247,91.7377131 51.3289606,91.7046585 C51.3124302,91.6695379 51.3206954,91.6323514 51.2958998,91.5992967 L49.1159532,88.9611214 L47.3286036,85.3891518 L48.1799192,73.6423507 L49.5064839,72.4771738 C49.5312795,72.4565147 49.5292132,72.42346 49.5457436,72.3966031 C49.5581414,72.3800758 49.5850033,72.3883394 49.5932685,72.3676803 L50.1181087,71.4400838 C50.1222413,71.4318201 50.1181087,71.4214905 50.1222413,71.4132269 C50.1263739,71.4008314 50.140838,71.3946336 50.1449706,71.3822381 L50.7256009,69.8699873 C50.7359324,69.8451963 50.719402,69.8224712 50.7235346,69.7956143 C50.7297335,69.7687573 50.7545291,69.75223 50.7545291,69.7233072 L50.7545291,67.0210884 L51.0314133,66.6781463 L53.1886306,78.1109281 C53.1927632,78.1295213 53.2092936,78.1398509 53.2154925,78.1563782 C53.2216914,78.1729056 53.2113599,78.1894329 53.2175588,78.2038943 L55.3685772,82.9658318 C55.3685772,82.9658318 55.3706435,82.9678977 55.3727098,82.9699636 C55.3727098,82.9699636 55.3727098,82.9699636 55.3727098,82.9720295 L63.2949044,99.6253822 L63.2949044,105.806604 C63.2949044,105.835527 63.3197,105.852054 63.3258989,105.878911 C63.3300315,105.905768 63.3135011,105.928493 63.3238326,105.953284 L64.7165188,109.612022 C64.724784,109.632682 64.745447,109.645077 64.7557785,109.659539 C64.7640437,109.674 64.7578448,109.690527 64.76611,109.702923 C64.7764415,109.717384 64.7950382,109.711186 64.8053697,109.723582 C64.8838891,109.814482 64.9851379,109.878526 65.1049833,109.878526 C65.1525082,109.878526 65.2041657,109.870262 65.2516906,109.849603 C65.2661547,109.845471 65.2702873,109.828944 65.2826851,109.82068 C65.3033481,109.81035 65.3260774,109.814482 65.3426078,109.800021 L66.3323655,109.105873 C66.3364981,109.101741 66.3344318,109.097609 66.3385644,109.095543 C66.4150175,109.039764 66.4728739,108.961259 66.4976695,108.860029 L66.7166973,107.907641 L68.4916491,109.000511 C68.518511,109.017039 68.5474392,109.012907 68.5763674,109.025302 C68.5908315,109.029434 68.5949641,109.045961 68.6114945,109.050093 L73.2048796,110.155358 C73.2379404,110.163622 73.2689349,110.167754 73.3019957,110.167754 C73.386714,110.167754 73.4652334,110.134699 73.5334213,110.087183 C73.5582169,110.070656 73.572681,110.045865 73.5912777,110.027272 C73.6181396,109.996283 73.6512004,109.97769 73.6697971,109.938437 L74.5417758,108.194804 C74.5583062,108.165881 74.5417758,108.134892 74.5479747,108.101838 C74.5541736,108.079112 74.5727703,108.064651 74.5748366,108.041926 C74.6450908,108.093574 74.7256765,108.134892 74.8103948,108.134892 C74.9095772,108.134892 75.0108259,108.097706 75.0893453,108.025399 C75.0955442,108.021267 75.0934779,108.013003 75.0976105,108.006805 C75.1038094,108.000608 75.1120746,108.004739 75.1162072,107.998542 L76.9758773,105.96568 C76.9986066,105.942955 76.9903414,105.9099 77.0068718,105.883043 C77.0316674,105.839659 77.0709271,105.806604 77.0791923,105.754956 L77.9511709,100.41043 C77.9553035,100.385639 77.9346405,100.367046 77.9346405,100.344321 C77.9346405,100.321596 77.9553035,100.303003 77.9511709,100.280278 L77.0915901,94.9522792 L78.63305,87.4199477 L85.9808131,74.6360566 C85.9890783,74.6215951 85.9808131,74.600936 85.987012,74.5864746 C85.9973435,74.5658154 86.0180065,74.5534199 86.0242054,74.5348267 L87.1007477,70.2769728 L87.4850795,70.5352124 C87.5553337,70.5785966 87.6359194,70.6033876 87.7144388,70.6033876 C87.8466821,70.6033876 87.9789253,70.5393442 88.0574447,70.4174551 L89.7828052,67.8309277 L88.7083292,71.7644327 C88.7062629,71.7768282 88.7145281,71.7850918 88.7124618,71.7974873 C88.7103955,71.8098828 88.6979977,71.8160806 88.6959314,71.830542 L87.7082399,80.7160487 C87.7082399,80.7201806 87.7103062,80.7201806 87.7103062,80.7222465 C87.7061736,80.7656307 87.7371681,80.8007513 87.7454334,80.8441356 C87.7619638,80.9061131 87.7619638,80.9742883 87.8012235,81.0238703 C87.8032898,81.0259362 87.8012235,81.0280021 87.8032898,81.0280021 L89.7724737,83.3872787 L88.9397548,88.5541358 L88.0843066,90.6634366 C88.0781077,90.6758321 88.0884392,90.6902935 88.0843066,90.7047549 C88.080174,90.7171504 88.0636436,90.7254141 88.0615773,90.7398755 L84.5736627,108.34355 C84.5736627,108.347682 84.575729,108.349747 84.575729,108.353879 C84.575729,108.358011 84.5695301,108.360077 84.5695301,108.364209 L80.0939241,138.807554 C80.0918578,138.81995 80.1021893,138.828213 80.1021893,138.838543 C80.100123,138.857136 80.0959904,138.869532 80.0980567,138.886059 C80.0980567,138.890191 80.0918578,138.894323 80.0918578,138.902586 C80.0959904,138.94597 80.1311175,138.972827 80.1435153,139.01208 C80.162112,139.055464 80.1683109,139.096782 80.1972391,139.131903 C80.203438,139.142233 80.2013717,139.154628 80.2096369,139.162892 L81.3151075,140.268157 C81.3440357,140.29708 81.3832954,140.292948 81.4184225,140.311541 C81.4514833,140.330134 81.4659474,140.365255 81.5052071,140.377651 L87.7970909,142.003527 L86.4539958,145.523849 C86.4477969,145.53831 86.4581284,145.550705 86.4560621,145.565167 C86.4519295,145.579628 86.4353991,145.58376 86.4333328,145.600287 L85.7349234,149.432562 C85.7307908,149.459419 85.7493875,149.475947 85.7493875,149.500738 C85.7493875,149.527595 85.7287245,149.544122 85.7328571,149.570979 L86.7205485,155.768728 L87.4685491,168.071261 L87.206129,169.602105 L85.8279069,171.199058 C85.8051776,171.223849 85.8134428,171.254838 85.7989787,171.283761 C85.7824483,171.312684 85.7514538,171.325079 85.7431886,171.356068 L82.0837711,184.487033 C82.0713733,184.532483 82.0961689,184.571736 82.1003015,184.61512 C82.1003015,184.658504 82.0796385,184.701889 82.0961689,184.745273 L84.4744803,190.955418 L84.4744803,190.957484 L84.4765466,190.95955 C84.51374,191.056648 84.5860605,191.120691 84.6707788,191.168207 C84.6811103,191.174405 84.6811103,191.1868 84.6914418,191.190932 L90.0390265,193.632845 C90.0948166,193.657636 90.152673,193.670032 90.2105294,193.670032 C90.235325,193.670032 90.2601206,193.6659 90.2849162,193.661768 L94.0621127,192.963488 C94.0889746,192.959357 94.1013724,192.9325 94.1241017,192.92217 C94.1860907,192.899445 94.2377482,192.870522 94.2811405,192.82094 C94.3080024,192.789952 94.3245328,192.765161 94.3389969,192.727974 C94.353461,192.699051 94.3823892,192.680458 94.3885881,192.647403 L95.9589762,185.792692 C95.9651751,185.767901 95.9465784,185.749308 95.9465784,185.726583 C95.9486447,185.703858 95.9693077,185.687331 95.9672414,185.664606 L95.3907437,179.491647 L96.3743025,171.81057 C96.3763688,171.80024 96.3660373,171.794042 96.3681036,171.783713 C96.3681036,171.773383 96.3784351,171.767185 96.3784351,171.756856 L96.3784351,167.920449 C96.3784351,167.897724 96.3557058,167.881197 96.3536395,167.860537 C96.3453743,167.806824 96.322645,167.769637 96.2957831,167.722121 C96.2668549,167.676671 96.2441256,167.637418 96.1966007,167.604364 C96.178004,167.589902 96.1759377,167.565111 96.1552747,167.556848 L95.1324562,167.021775 L94.752257,166.474307 L95.2543679,160.489347 L98.9344483,153.713141 C98.9468461,153.68835 98.9344483,153.661494 98.9427135,153.636703 C98.9509787,153.609846 98.9778406,153.593318 98.9819732,153.564395 L99.9593332,145.102402 L100.837511,143.501316 L102.207468,142.976574 C102.223998,142.970376 102.228131,142.949717 102.244661,142.941453 C102.275656,142.924926 102.302517,142.914596 102.329379,142.893937 C102.356241,142.873278 102.364506,142.840223 102.383103,142.8113 L102.383103,142.8113 C102.403766,142.780311 102.426495,142.761718 102.438893,142.726598 C102.443026,142.714202 102.455424,142.708004 102.459556,142.693543 L103.331535,139.324033 C103.335668,139.309572 103.32327,139.297176 103.325336,139.282715 C103.327402,139.266188 103.343933,139.257924 103.343933,139.241397 L103.457579,137.196139 L106.761593,124.825431 L106.761593,126.918205 L104.03821,140.592506 C104.027878,140.637956 104.058873,140.675143 104.065071,140.720593 C104.07127,140.776372 104.067138,140.830086 104.096066,140.877602 C104.124994,140.925118 104.170453,140.945778 104.215911,140.978832 C104.253105,141.007755 104.269635,141.051139 104.31716,141.067667 L104.73042,141.201951 L104.73042,145.550705 C104.73042,145.569299 104.74695,145.577562 104.749017,145.59409 C104.751083,145.610617 104.736619,145.625078 104.740752,145.641606 L105.767703,150.099854 L105.0321,154.991944 L103.06085,162.11729 C103.054651,162.135883 103.071181,162.154476 103.067049,162.171003 C103.064982,162.191663 103.044319,162.206124 103.044319,162.224717 L103.044319,166.501164 L102.294252,180.437837 L99.8229574,186.530225 C99.8126259,186.559147 99.8291563,186.581873 99.8229574,186.610795 C99.8188248,186.639718 99.7919629,186.65418 99.7919629,186.685168 L99.7919629,190.5443 L99.1968685,194.110072 L97.5624251,194.725715 C97.5314306,194.736045 97.5231654,194.769099 97.4983698,194.783561 C97.4529112,194.81455 97.4177841,194.841407 97.3867896,194.888923 C97.3537288,194.934373 97.341331,194.975691 97.3289332,195.027339 C97.3227343,195.058328 97.2938061,195.076921 97.2938061,195.109976 L97.2938061,198.248103 C97.2938061,198.291487 97.3289332,198.32041 97.3392647,198.361728 C97.3557951,198.413376 97.3640603,198.460892 97.3971211,198.502211 C97.4301819,198.543529 97.4777068,198.562122 97.5252317,198.586913 C97.5624251,198.607572 97.5830881,198.644759 97.6264804,198.653022 L104.482464,199.987605 C104.509326,199.991736 104.534122,199.995868 104.560983,199.995868 L115.603291,199.995868 C115.725203,199.995868 115.826452,199.942154 115.902905,199.859518 C115.907037,199.855386 115.913236,199.857452 115.917369,199.85332 L117.425768,198.109686 C117.460895,198.070434 117.454696,198.018786 117.471226,197.973336 C117.487757,197.927886 117.52495,197.890699 117.52495,197.841117 L117.52495,195.868167 C117.52495,195.830981 117.493956,195.810321 117.485691,195.775201 C117.471226,195.721487 117.458829,195.680169 117.427834,195.636784 C117.39684,195.5934 117.35758,195.566543 117.310055,195.53762 C117.279061,195.519027 117.266663,195.485973 117.233602,195.475643 L112.173233,193.901415 L111.266127,192.029694 C111.255796,192.009035 111.231,192.004903 111.220669,191.98631 C111.210337,191.967717 111.21447,191.942926 111.197939,191.928464 L107.821605,188.271792 L107.821605,183.456141 L117.785304,158.954372 C117.795636,158.929581 117.779105,158.910987 117.785304,158.886196 C117.791503,158.861405 117.814232,158.844878 117.816299,158.818021 L118.283282,148.765271 L118.283282,148.765271 L118.496111,144.453704 L122.343562,144.453704 C122.353894,144.453704 122.366291,144.453704 122.376623,144.451638 L131.734896,143.697578 C131.745227,143.695512 131.74936,143.687249 131.759692,143.685183 C131.80515,143.678985 131.852675,143.674853 131.896067,143.650062 C131.908465,143.643865 131.908465,143.629403 131.920863,143.621139 C131.945659,143.604612 131.964255,143.588085 131.984918,143.569492 C132.013846,143.540569 132.024178,143.50958 132.040708,143.474459 C132.042775,143.472393 132.042775,143.472393 132.042775,143.472393 C132.061371,143.439339 132.086167,143.420746 132.094432,143.387691 C132.096498,143.379427 132.102697,143.375295 132.104764,143.369098 L132.978809,139.185617 C132.982941,139.162892 132.966411,139.146364 132.966411,139.127771 C132.968477,139.107112 132.987074,139.094716 132.985008,139.076123 L131.879537,121.58814 C131.879537,121.584008 131.873338,121.579877 131.873338,121.575745 C131.871272,121.567481 131.879537,121.563349 131.877471,121.555086 L127.635357,91.3968369 C127.629158,91.3534527 127.591964,91.3307276 127.575434,91.2914752 C127.558903,91.2563546 127.565102,91.2150363 127.53824,91.1840475 L126.872892,90.4155266 L126.554682,86.2051888 L127.846119,85.6783801 C127.875047,85.6680505 127.881246,85.6370618 127.903976,85.6226004 C127.949434,85.5916116 127.982495,85.5626888 128.01349,85.5131068 C128.04655,85.4697225 128.061014,85.4284042 128.071346,85.3767563 C128.077545,85.3478335 128.104407,85.3292402 128.104407,85.2982515 L128.104407,82.5051324 C128.104407,82.4968687 128.096142,82.4927369 128.096142,82.4844732 C128.096142,82.4762096 128.10234,82.4700118 128.10234,82.4617482 L127.35434,75.193854 L128.063081,70.8822863 L128.904065,70.5228169 L128.904065,75.3591273 C128.904065,75.3901161 128.930927,75.4066434 128.937126,75.4355662 C128.941258,75.4644891 128.924728,75.491346 128.937126,75.5202688 L133.640025,86.6039107 L136.52458,94.9729383 L136.741541,97.5615317 L136.185706,99.2865719 C136.179507,99.3030993 136.191905,99.3175607 136.189839,99.3320221 C136.185706,99.3464835 136.169176,99.3547472 136.16711,99.3712745 L135.355054,107.506854 C135.352987,107.521315 135.365385,107.529579 135.365385,107.54404 C135.365385,107.55437 135.355054,107.562633 135.355054,107.572963 L135.644336,112.605535 L135.644336,112.607601 C135.644336,112.609667 135.644336,112.609667 135.644336,112.609667 L135.646402,112.632392 C135.650535,112.69437 135.691861,112.741886 135.720789,112.793534 C135.741452,112.83072 135.743518,112.874105 135.77038,112.903027 C135.844767,112.9774 135.946016,113.022851 136.057596,113.022851 L137.276713,113.022851 C137.377962,113.022851 137.47921,112.985664 137.559796,112.909225 L138.423509,112.101452 C138.425576,112.101452 138.425576,112.101452 138.425576,112.099386 L138.431775,112.093188 C138.446239,112.080793 138.444172,112.056002 138.45657,112.04154 C138.504095,111.983695 138.553686,111.919651 138.561951,111.834949 L138.890493,108.688558 L139.756273,110.849506 L138.857432,115.627971 L138.169354,117.458373 C138.159023,117.48523 138.17762,117.507955 138.171421,117.532746 C138.167288,117.559603 138.142493,117.57613 138.142493,117.602987 C138.142493,117.636042 138.171421,117.654635 138.17762,117.685624 C138.190017,117.737272 138.204482,117.77859 138.235476,117.82404 C138.266471,117.869491 138.299531,117.898413 138.347056,117.929402 C138.373918,117.94593 138.382183,117.976918 138.411112,117.987248 C138.458636,118.007907 138.508228,118.016171 138.555753,118.016171 L140.531135,118.016171 C140.619986,118.016171 140.710904,117.987248 140.78529,117.927336 L145.376609,114.326444 C145.384874,114.320246 145.382808,114.309917 145.389007,114.303719 C145.432399,114.266532 145.444797,114.214884 145.469593,114.163236 C145.492322,114.11572 145.52125,114.078534 145.525383,114.026886 C145.525383,114.018622 145.535714,114.012425 145.535714,114.002095 L145.535714,107.380833 C145.535714,107.356042 145.512985,107.34158 145.508852,107.318855 C145.506786,107.29613 145.523316,107.275471 145.515051,107.252746 L143.211127,100.226564 L143.211127,99.3857359 L143.682243,99.1502214 C143.709105,99.1378259 143.715304,99.1068372 143.733901,99.0903099 C143.777293,99.0551893 143.806221,99.0221346 143.833083,98.9746185 C143.862011,98.9250365 143.876475,98.8837182 143.882674,98.8279385 C143.884741,98.8010815 143.909536,98.7824883 143.90747,98.7535655 L143.558265,93.7023997 C143.556199,93.6858724 143.539668,93.6755428 143.537602,93.6610814 C143.527271,93.6053016 143.496276,93.5660492 143.467348,93.5185331 C143.43842,93.4772148 143.419823,93.4379624 143.376431,93.4069736 C143.361967,93.3966441 143.3599,93.3759849 143.34337,93.3656553 L142.903248,93.126009 L142.163513,80.8028172 C142.163513,80.7904217 142.146982,80.7821581 142.144916,80.7676967 C142.14285,80.7511693 142.155247,80.7367079 142.151115,80.7222465 L139.11572,69.308058 L139.245897,69.3287171 C139.26656,69.3307831 139.289289,69.332849 139.307886,69.332849 C139.314085,69.332849 139.320284,69.332849 139.328549,69.332849 C139.353344,69.3307831 139.367809,69.308058 139.388472,69.3018602 C139.464925,69.283267 139.535179,69.2605419 139.590969,69.2068281 C139.619897,69.1779052 139.628162,69.1427847 139.646759,69.1055982 C139.669488,69.0642798 139.706682,69.0332911 139.714947,68.9795773 C139.717013,68.9651158 139.704615,68.9547863 139.704615,68.9382589 C139.706682,68.9217316 139.721146,68.911402 139.721146,68.8948747 L139.082659,55.5903726 C139.082659,55.580043 139.072328,55.5738453 139.072328,55.5655816 C139.070261,55.5573179 139.078527,55.5531861 139.07646,55.5449224 L136.981232,42.471803 C136.975033,42.4387483 136.946105,42.4242869 136.935773,42.3953641 C136.925442,42.3643753 136.935773,42.3313207 136.917177,42.3044637 L133.257759,36.9000263 C133.239162,36.8731693 133.208168,36.8711034 133.185439,36.8525102 C133.162709,36.8339169 133.160643,36.8008623 133.137914,36.7843349 L120.791771,28.9111273 L124.329276,22.337381 C124.335475,22.3249855 124.32721,22.31259 124.333409,22.3001945 C124.341674,22.2836672 124.358205,22.2754035 124.364404,22.2568103 L125.352095,18.8873005 C125.356228,18.8707732 125.34383,18.8583777 125.345896,18.8418504 C125.350029,18.8273889 125.366559,18.8170594 125.366559,18.800532 L125.748825,13.3175897 L126.352184,13.3175897 C126.461698,13.3175897 126.556748,13.2721395 126.631135,13.2018984 C126.660063,13.1729756 126.664196,13.137855 126.682792,13.1027344 C126.713787,13.0552183 126.753046,13.0139 126.761312,12.9539884 L127.341942,8.24783068 C127.348141,8.20444644 127.317146,8.16725994 127.306815,8.12594161 C127.29855,8.08255737 127.31508,8.0371072 127.292351,7.99785479 L124.676415,3.28963115 C124.653686,3.24831282 124.610293,3.24211507 124.579299,3.21319224 C124.548304,3.18220349 124.537973,3.14088516 124.500779,3.120226 L118.398995,0.0440763689 C118.357669,0.0234172042 118.316343,0.0420104525 118.272951,0.0337467866 C118.233691,0.0275490371 118.204763,-0.00343970996 118.163437,0.000314332746 L111.189674,0.81672913 C111.150414,0.820860963 111.129751,0.853915627 111.094624,0.868377042 C111.057431,0.882838457 111.016105,0.872508875 110.983044,0.899365789 L106.042521,4.73370676 C106.005327,4.76262959 106.003261,4.80601384 105.980532,4.84320034 C105.95367,4.88451867 105.910277,4.90724375 105.89788,4.95682574 L104.03821,12.1028308 C104.029944,12.1317537 104.050607,12.1524128 104.048541,12.1813357 C104.046475,12.2081926 104.023745,12.2288517 104.027878,12.2577746 L104.370884,14.943466 L103.972088,18.257196 C103.967955,18.2881847 103.992751,18.3088439 103.994817,18.3377667 C103.996884,18.3666896 103.976221,18.3894147 103.984486,18.4183375 L104.738685,21.0936993 C104.740752,21.101963 104.74695,21.1040289 104.749017,21.1102266 C104.757282,21.1350176 104.777945,21.1474131 104.790343,21.1680723 C104.827536,21.2362476 104.872995,21.2940932 104.939116,21.3312797 C104.949448,21.3354115 104.951514,21.3519389 104.963912,21.3560707 L106.443383,22.0460868 L106.127239,25.5891336 L104.922586,28.4132414 L103.45138,28.4132414 C103.41832,28.4132414 103.399723,28.4421642 103.368728,28.448362 C103.337734,28.4545597 103.310872,28.4380324 103.281944,28.4504279 L98.0480056,30.8117704 L90.7766956,31.9666177 C90.7291707,31.9748814 90.7002425,32.0141338 90.6589165,32.0368589 C90.6175905,32.059584 90.5679993,32.059584 90.5349385,32.0947045 L82.9206226,40.4616663 C82.9061585,40.4761277 82.9123574,40.5009187 82.8999596,40.5153801 C82.8875618,40.5339733 82.8627662,40.5360392 82.854501,40.5566984 L73.035443,60.5361766 Z M43.7415066,52.4501796 L40.2081335,56.5303646 L27.1987081,56.5303646 L21.8449246,53.5244561 L18.77027,45.1203079 L25.8845412,41.4533062 C25.896939,41.4471084 25.896939,41.432647 25.9093368,41.4243833 C25.9671932,41.3871968 26.0043866,41.333483 26.0374474,41.2715055 C26.0539778,41.2425827 26.0787734,41.2239894 26.0849723,41.1930007 C26.0870386,41.184737 26.0953038,41.1826711 26.0973701,41.1744074 L26.3887185,39.8356936 L26.3887185,39.8356936 L27.7235483,34.2081371 C27.7276809,34.1895438 27.7132168,34.1771483 27.7152831,34.1626869 C27.7173494,34.1420278 27.7359461,34.1316982 27.7359461,34.1151708 L27.7359461,32.9541258 C27.7359461,32.9272689 27.7132168,32.9107415 27.7070179,32.8880165 C27.6987527,32.8343026 27.6780897,32.7929843 27.6491615,32.7475341 C27.6202333,32.702084 27.5933714,32.6669634 27.5479128,32.6359747 C27.5272498,32.6194473 27.5231172,32.5925904 27.5003879,32.5822608 L25.6035244,31.6835872 L25.0228941,28.3595276 L25.5559995,27.1736915 L26.6800668,27.6984343 L26.6800668,28.3078796 C26.6800668,28.324407 26.6965972,28.3368025 26.6986635,28.3512639 C26.7048624,28.4029118 26.7317243,28.4400983 26.7544536,28.4876144 C26.7813155,28.5351305 26.7999122,28.5805806 26.8433045,28.6157012 C26.8557023,28.6239649 26.8557023,28.644624 26.8701664,28.6528877 L27.8578578,29.2933218 C27.8785208,29.3077832 27.9033164,29.3036514 27.9260457,29.313981 C27.9405098,29.3201787 27.9467087,29.336706 27.9611728,29.3429038 C28.0024988,29.3552993 28.0417585,29.361497 28.0830845,29.361497 C28.2091288,29.361497 28.3103775,29.2912559 28.3868306,29.1962237 C28.3992284,29.1838282 28.4198914,29.1879601 28.4302229,29.1714327 C28.4405544,29.1569713 28.4322892,29.1383781 28.4384881,29.1239166 C28.4508859,29.1032575 28.4715489,29.090862 28.4798141,29.0702028 L29.7629865,24.8908538 L33.0773319,23.3992621 C33.0855971,23.3951303 33.0876634,23.3827348 33.0959286,23.3786029 C33.1103927,23.3703393 33.1269231,23.3744711 33.1393209,23.3662074 L36.4268043,21.1742701 L39.5634478,22.7402347 L42.1421903,24.3495837 L42.1421903,28.9648411 L41.2371509,34.0738525 L39.3113592,36.8463124 C39.3092929,36.8483783 39.3113592,36.8504443 39.3092929,36.8525102 C39.3072266,36.8545761 39.3051603,36.8545761 39.303094,36.8587079 L38.6067509,37.9309186 L37.0487606,38.7593511 L34.3005815,38.7593511 L30.7982029,36.6686436 C30.6019043,36.5550182 30.3477494,36.6190616 30.2320366,36.8111918 C30.1142575,37.0074539 30.1803791,37.2615616 30.3746113,37.377253 L33.9761724,39.5258061 C34.042294,39.5650585 34.1146145,39.5836518 34.1890013,39.5836518 L37.1541419,39.5836518 C37.2202635,39.5836518 37.2863851,39.5671244 37.3483741,39.5361357 L38.641878,38.8461196 L39.0241435,40.1579765 C39.0282761,40.170372 39.0406739,40.1745039 39.0448065,40.1868994 C39.0572043,40.2178881 39.0778673,40.2344154 39.096464,40.2612724 C39.1357237,40.319118 39.179116,40.3666341 39.241105,40.3955569 C39.2555691,40.4038206 39.2597017,40.4244798 39.2762321,40.4286116 L46.0247682,42.9717548 L43.7415066,52.4501796 Z M10.1744616,54.7908629 L13.5673264,47.1015218 L18.0140042,45.4487886 L21.1237858,53.9500349 C21.1568466,54.0409352 21.2229682,54.1070446 21.2994213,54.1566266 C21.3056202,54.1586925 21.3056202,54.1648902 21.3097528,54.1690221 L26.8908294,57.3050833 C26.9528184,57.3422698 27.0230726,57.3567312 27.0933268,57.3567312 L40.3982331,57.3567312 C40.5201448,57.3567312 40.6213935,57.3030173 40.6978466,57.2203807 C40.7019792,57.2162489 40.7081781,57.2183148 40.7123107,57.2141829 L44.4337171,52.9170767 C44.4523139,52.8943516 44.446115,52.8674947 44.4585128,52.8427037 C44.4791758,52.8075831 44.5122366,52.784858 44.5225681,52.7414738 L46.8264927,43.1225667 L49.0973565,43.1225667 L54.0027529,46.8040298 L57.7737505,57.0984916 L57.1683246,57.8422215 C57.1683246,57.8442875 57.1662583,57.8422215 57.1662583,57.8442875 L50.946695,65.4592556 L50.946695,65.4592556 C50.9446287,65.4613215 50.9446287,65.4613215 50.9446287,65.4613215 L50.8206507,65.6162652 L51.0396785,61.6125191 C51.0541426,61.3873342 50.8785071,61.1890062 50.6512141,61.1766107 C50.4053244,61.1807426 50.2276226,61.3377522 50.2172911,61.5670689 L49.9259428,66.857881 C49.9259428,66.8620129 49.9300754,66.8640788 49.9300754,66.8661447 C49.9300754,66.8723425 49.9238765,66.8744084 49.9238765,66.8806061 L49.9238765,69.6510001 L49.3804396,71.0661529 L48.9072568,71.9028491 L47.5042391,73.1362012 C47.5021728,73.1382671 47.5021728,73.140333 47.5021728,73.1423989 C47.4236534,73.2064424 47.3740622,73.3035404 47.365797,73.4171658 L46.4938183,85.4449315 C46.491752,85.4862499 46.5206802,85.5110409 46.5289454,85.5502933 C46.5351443,85.5874798 46.5186139,85.6226004 46.5372106,85.6597869 L48.3968807,89.3763706 C48.4072122,89.3970298 48.4258089,89.4052934 48.4382067,89.4197548 C48.4444056,89.4300844 48.440273,89.4445458 48.4485382,89.4569413 L50.2007607,91.5786376 L34.8171565,94.1816923 L21.1713107,92.1157758 L15.9208422,87.4943207 C15.9187759,87.4922548 15.9187759,87.4922548 15.9187759,87.4922548 L15.6088309,87.215422 L17.7743134,81.5568767 C17.7825786,81.5341517 17.7681145,81.5134925 17.7722471,81.4928333 C17.778446,81.4680423 17.8011753,81.451515 17.8032416,81.426724 L18.15038,72.7106224 C18.15038,72.6920292 18.1338496,72.6796337 18.1317833,72.6651722 C18.1317833,72.6486449 18.1441811,72.6362494 18.1421148,72.621788 L17.6296724,69.8782509 L17.6854625,66.5417958 C17.6854625,66.4942797 17.6503354,66.4612251 17.6358713,66.4157749 C17.6193409,66.3661929 17.6152083,66.314545 17.5821475,66.2752926 C17.5449541,66.2319083 17.4953629,66.2195128 17.4457717,66.1947218 C17.406512,66.1740627 17.3817164,66.1348103 17.3341915,66.1265466 L9.2177647,64.9117877 L8.73218418,64.8146896 L10.1744616,54.7908629 Z M14.9517475,82.1642562 L9.157842,96.0658081 C9.1557757,96.0720059 9.1599083,96.0782036 9.157842,96.0844014 C9.1557757,96.0905991 9.1475105,96.0926651 9.1454442,96.0988628 L6.35593908,104.752987 C6.34560758,104.788107 6.36627058,104.81703 6.36420428,104.852151 C6.36213798,104.887271 6.33527608,104.916194 6.34147498,104.953381 L7.24651442,110.000415 L4.620247,115.857288 L2.06630009,115.857288 L0.826520036,114.9049 L0.826520036,110.304104 L3.18003584,104.393517 C3.18623474,104.381122 3.17590324,104.368726 3.18003584,104.354265 C3.18416844,104.335672 3.20276514,104.327408 3.20483144,104.310881 L7.03368551,81.9328735 L9.51324562,76.0450116 C9.52564342,76.0160888 9.50911302,75.9912978 9.51324562,75.9623749 C9.51944452,75.9334521 9.54630642,75.9169248 9.54630642,75.885936 L9.54630642,65.7877363 L16.8486109,66.882672 L16.7990197,69.876185 L16.222522,74.3158395 L16.222522,74.3158395 L14.9517475,82.1642562 Z M33.05047,176.289477 C33.091796,176.281213 33.1103927,176.241961 33.1455198,176.223367 C33.1930447,176.19651 33.236437,176.177917 33.2715641,176.134533 C33.3066912,176.091149 33.3149564,176.045698 33.3294205,175.994051 C33.3418183,175.954798 33.3728128,175.927941 33.3728128,175.886623 L33.3728128,174.799951 L34.5753994,174.438415 L30.6576944,184.098641 C30.6432303,184.135827 30.661827,184.168882 30.6576944,184.206069 C30.6535618,184.243255 30.6246336,184.270112 30.6308325,184.309364 L31.4408222,190.46373 L30.5833076,190.46373 L30.5833076,190.182765 C30.5833076,190.168304 30.5688435,190.157974 30.5667772,190.143513 C30.5647109,190.126985 30.5771087,190.11459 30.5750424,190.100128 L29.5956162,185.325795 L29.9861469,176.975361 L33.05047,176.289477 Z M28.9488643,199.175699 L20.9419514,199.175699 L20.4212438,198.235707 L23.2024837,197.859711 L27.6656919,198.372058 L27.6656919,198.372058 L29.2712071,198.626166 L28.9488643,199.175699 Z M22.295378,194.676133 L26.6965972,193.521286 L29.7567876,195.027339 L29.7567876,195.16369 L29.7092627,195.748344 L27.9921673,194.329059 C27.9529076,194.298071 27.9053827,194.304268 27.8619904,194.287741 C27.8185981,194.269148 27.783471,194.234027 27.7318135,194.234027 L24.1881089,194.234027 C24.1633133,194.234027 24.1467829,194.256752 24.1240536,194.260884 C24.1013243,194.265016 24.0806613,194.248489 24.0558657,194.256752 L21.985433,194.959164 L22.295378,194.676133 Z M27.7938025,197.556021 C27.7896699,197.553955 27.7876036,197.558087 27.783471,197.556021 C27.7793384,197.556021 27.7793384,197.551889 27.7752058,197.551889 L23.2438097,197.031278 C23.225213,197.027146 23.2107489,197.043674 23.1942185,197.045739 C23.1756218,197.043674 23.1611577,197.029212 23.1446273,197.031278 L20.181553,197.43 L20.181553,196.578842 L20.4439731,196.353657 L24.2562968,195.06246 L27.5830399,195.06246 L29.6410748,196.762709 L29.6410748,197.413473 L29.5852847,197.836985 L27.7938025,197.556021 Z M30.4675948,196.580908 L30.5543794,195.535555 L33.2447022,195.130635 L33.2447022,196.24623 L30.4675948,196.917653 L30.4675948,196.580908 Z M30.5853739,194.694726 L30.5853739,192.393296 L32.1743587,192.393296 L33.0566689,194.324927 L30.5853739,194.694726 Z M30.5853739,191.564863 L30.5853739,191.285964 L31.6557174,191.285964 L31.7858943,191.564863 L30.5853739,191.564863 Z M28.7690962,185.334059 C28.7690962,185.352652 28.7856266,185.365048 28.7876929,185.381575 C28.7897592,185.402234 28.7732288,185.416696 28.7773614,185.433223 L29.7588539,190.217885 L29.7588539,190.868649 L29.7588539,191.973915 L29.7588539,194.099743 L26.9238902,192.707315 C26.8763653,192.682524 26.8226415,192.701117 26.7730503,192.696985 C26.7275917,192.692853 26.6841994,192.665997 26.6387408,192.678392 L23.0413123,193.62045 L24.2976228,191.736334 C24.3100206,191.719807 24.2996891,191.699148 24.3100206,191.680554 C24.3224184,191.655763 24.347214,191.641302 24.3534129,191.614445 L25.2253915,188.300715 C25.235723,188.261463 25.2109274,188.230474 25.2109274,188.193287 C25.2109274,188.151969 25.2336567,188.12098 25.2233252,188.079662 L22.4978754,178.626028 L29.153428,177.150964 L28.7690962,185.334059 Z M44.8717728,146.668366 C44.8697065,146.686959 44.8862369,146.701421 44.8862369,146.717948 C44.8862369,146.738607 44.8697065,146.755135 44.8717728,146.775794 L48.3245602,169.847949 L45.148657,172.494388 L39.9147189,172.044018 C39.8857907,172.041952 39.8692602,172.064677 39.840332,172.068809 C39.8134701,172.070875 39.7907408,172.050216 39.7638789,172.05848 L35.1704938,173.393062 C35.1704938,173.393062 35.1704938,173.395128 35.1684275,173.395128 L35.1663612,173.395128 L33.3748791,173.934332 L33.3748791,170.246671 C33.3748791,170.23221 33.360415,170.223946 33.360415,170.21155 C33.3583487,170.197089 33.3707465,170.186759 33.3686802,170.174364 L31.3354409,158.613495 C31.2941149,158.38831 31.0771534,158.237498 30.8581256,158.278817 C30.6328988,158.318069 30.4820589,158.530859 30.5213186,158.753978 L32.548359,170.281792 L32.548359,174.487997 L32.548359,175.551944 L29.5005664,176.231631 C29.5005664,176.231631 29.5005664,176.231631 29.5005664,176.233697 L21.8883169,177.917419 C21.8862506,177.917419 21.8862506,177.919485 21.8862506,177.919485 C21.8841843,177.919485 21.8841843,177.919485 21.882118,177.919485 L18.0491313,178.820224 L9.32727861,175.640779 L14.920753,161.625602 C14.9290182,161.602876 14.9145541,161.584283 14.920753,161.563624 C14.9248856,161.540899 14.9476149,161.526438 14.9496812,161.503712 L15.9394389,148.608262 C15.9394389,148.5938 15.9291074,148.585537 15.9291074,148.573141 C15.9291074,148.55868 15.9415052,148.550416 15.9394389,148.538021 L14.9496812,137.555609 C14.9496812,137.547345 14.9393497,137.543213 14.9372834,137.530818 C14.9352171,137.522554 14.9434823,137.516356 14.941416,137.508093 L12.449458,125.627007 L10.7116997,104.209651 L12.3812701,94.9605428 L15.767936,88.4570378 L20.718791,92.8140556 C20.7559844,92.8471103 20.8035093,92.8450444 20.8469016,92.8615717 C20.8778961,92.8739672 20.8944265,92.9049559 20.9295536,92.9090878 L34.7593001,95.0039271 C34.7820294,95.005993 34.8026924,95.0080589 34.8212891,95.0080589 C34.8440184,95.0080589 34.8667477,95.005993 34.889477,95.0018612 L50.595424,92.3450926 L50.9714906,97.9540558 L50.3309376,110.41773 L47.0847802,127.519386 C47.0827139,127.525584 47.0889128,127.529716 47.0889128,127.53798 C47.0868465,127.542112 47.0806476,127.544177 47.0806476,127.550375 L44.8717728,146.668366 Z M51.7070935,65.8352524 L57.226181,59.0776396 L59.0527903,70.2046657 C59.0569229,70.2253249 59.0755196,70.2356545 59.0817185,70.2542477 C59.0879174,70.272841 59.0755196,70.2914342 59.0837848,70.3058956 L62.0406602,76.850719 L65.0512595,86.8704139 L67.3717145,96.6690557 C67.3758471,96.687649 67.3944438,96.7000445 67.402709,96.7145059 C67.4089079,96.7310332 67.3985764,96.7475606 67.4068416,96.762022 L69.0330197,99.9001491 C69.035086,99.9042809 69.0392186,99.9063469 69.0412849,99.9084128 C69.0474838,99.9187424 69.0578153,99.9228742 69.0640142,99.9332038 C69.0784783,99.9559289 69.0991413,99.9724562 69.1156717,99.9889835 C69.1280695,100.001379 69.1260032,100.022038 69.1404673,100.032368 L73.4838301,103.540294 L73.0044485,106.323083 C73.0003159,106.343743 73.0168463,106.358204 73.0168463,106.376797 C73.01478,106.430511 73.0333767,106.471829 73.0519734,106.523477 C73.0705701,106.575125 73.0850342,106.620575 73.1222276,106.659828 C73.1346254,106.672223 73.1325591,106.694948 73.1470232,106.707344 L73.7565817,107.221757 L73.7565817,107.922103 L73.076769,109.281476 L68.8656494,108.269177 L66.6567746,106.909804 C66.6361116,106.897408 66.6133823,106.909804 66.590653,106.899474 C66.5679237,106.889145 66.5575922,106.864354 66.5348629,106.860222 C66.5018021,106.851958 66.4749402,106.874683 66.4418794,106.876749 C66.3860893,106.876749 66.3406307,106.880881 66.2910395,106.90154 C66.2414483,106.922199 66.2104538,106.949056 66.1711941,106.988309 C66.1463985,107.0131 66.1092051,107.017231 66.0906084,107.046154 C66.0782106,107.066813 66.0885421,107.089538 66.0802769,107.112264 C66.0699454,107.134989 66.0430835,107.145318 66.0368846,107.168043 L65.7248733,108.52535 L65.2992155,108.824908 L64.125557,105.736363 L64.125557,99.5344819 C64.125557,99.4993613 64.0966288,99.4807681 64.0883636,99.4477134 C64.0821647,99.4167247 64.0986951,99.3878018 64.084231,99.3568131 L56.1248431,82.6270215 C56.1248431,82.6270215 56.1248431,82.6270215 56.1248431,82.6249556 L53.9924214,77.9043364 L51.7070935,65.8352524 Z M85.2245472,74.2807189 L77.8726515,87.0708078 C77.8602537,87.091467 77.8726515,87.1141921 77.8643863,87.1348512 C77.8561211,87.1596422 77.8313255,87.1699718 77.8251266,87.1926969 L76.2547385,94.8613788 C76.2485396,94.8903017 76.2692026,94.9088949 76.2692026,94.9378177 C76.2692026,94.9626087 76.2485396,94.981202 76.2526722,95.0101248 L77.1143194,100.348453 L76.2733352,105.504981 L74.8000633,107.114329 L74.4694553,106.752794 C74.467389,106.748662 74.4632564,106.750728 74.4611901,106.748662 C74.4529249,106.740399 74.446726,106.736267 74.4384608,106.732135 C74.4343282,106.728003 74.4343282,106.719739 74.4301956,106.715608 L73.8557641,106.228051 L74.3372121,103.439064 C74.3413447,103.418405 74.322748,103.401878 74.322748,103.381218 C74.3248143,103.327505 74.3082839,103.282054 74.2896872,103.232472 C74.2690242,103.18289 74.2545601,103.141572 74.2173667,103.10232 C74.2029026,103.085792 74.2049689,103.061001 74.1884385,103.050672 L69.8657387,99.5613388 L72.0601494,91.5125282 C72.0622157,91.5063305 72.0560168,91.4980668 72.0580831,91.4918691 C72.0580831,91.4856713 72.064282,91.4836054 72.0663483,91.4774077 L76.1803517,68.9382589 L78.440884,64.5771092 L86.3548134,69.7976802 L85.2245472,74.2807189 Z M91.0473809,84.9263865 C91.0680439,84.9532434 91.103171,84.9470457 91.1300329,84.9656389 C91.16516,84.9945618 91.1796241,85.0358801 91.2230164,85.0503415 L99.0109014,87.882713 L98.8228681,88.1326889 C98.8063377,88.1574799 98.8146029,88.1843368 98.8022051,88.2091278 C98.7898073,88.2380506 98.7588128,88.2504461 98.7526139,88.2793689 L97.6595412,92.6446505 L89.7848715,88.4467082 L90.4646843,84.2281067 L91.0473809,84.9263865 Z M88.0285165,141.210215 L81.8151521,139.602932 L81.4204888,139.212474 L88.5802186,138.634017 L88.0285165,141.210215 Z M86.1957083,174.109935 C86.1957083,174.114067 86.1977746,174.114067 86.1957083,174.116133 C86.1957083,174.118198 86.193642,174.118198 86.193642,174.120264 C86.1833105,174.171912 86.214305,174.215296 86.2225702,174.266944 C86.2329017,174.318592 86.2246365,174.38057 86.255631,174.423954 C86.2845592,174.467338 86.338283,174.483866 86.3837416,174.512788 C86.4271339,174.545843 86.4560621,174.591293 86.5118522,174.603689 C86.5139185,174.603689 86.5180511,174.603689 86.5201174,174.605755 C86.5221837,174.605755 86.5221837,174.605755 86.5221837,174.605755 L90.0100982,175.299903 C90.0390265,175.304034 90.0638221,175.308166 90.090684,175.308166 C90.111347,175.308166 90.13201,175.3061 90.1506067,175.304034 L94.394787,174.665666 C94.4237152,174.661534 94.4381793,174.632612 94.4609086,174.624348 C94.5249639,174.599557 94.580754,174.576832 94.6241464,174.525184 C94.6530746,174.494195 94.6675387,174.463206 94.6840691,174.42602 C94.7005995,174.392965 94.7295277,174.374372 94.7377929,174.33512 L95.5477825,170.290055 L95.5477825,171.734131 L94.5621573,179.431736 C94.560091,179.448263 94.5745551,179.460658 94.5745551,179.47512 C94.5745551,179.493713 94.5580247,179.506109 94.560091,179.52057 L95.1345225,185.670803 L93.6385212,192.199099 L92.2148404,192.461471 L93.1922004,191.932596 C93.1983993,191.928464 93.2004656,191.920201 93.2066645,191.916069 C93.2872502,191.866487 93.3533718,191.796246 93.3864326,191.701214 L93.3905652,191.686752 L93.3905652,191.686752 L94.4919031,188.385418 C94.5001683,188.360627 94.4836379,188.342033 94.4877705,188.319308 C94.4960357,188.263529 94.4898368,188.218078 94.4753727,188.164365 C94.4629749,188.112717 94.4505771,188.069332 94.4195826,188.028014 C94.4051185,188.007355 94.4113174,187.982564 94.3927207,187.963971 L92.7665426,186.34016 C92.7272829,186.300908 92.6756254,186.300908 92.6281005,186.282315 C92.5847082,186.261655 92.5537137,186.224469 92.5020562,186.222403 L84.7720275,185.69766 C84.761696,185.69766 84.7513645,185.69766 84.7430993,185.69766 C84.7183037,185.69766 84.7017733,185.718319 84.6811103,185.722451 C84.6356517,185.730715 84.6005246,185.749308 84.5571323,185.769967 C84.5075411,185.79889 84.4662151,185.825747 84.4290217,185.873263 C84.4145576,185.891856 84.3876957,185.895988 84.3773642,185.916647 L83.9103804,186.788464 C83.8979826,186.813255 83.9103804,186.83598 83.9041815,186.860771 C83.8855848,186.910353 83.8855848,186.955803 83.8876511,187.009517 C83.8917837,187.063231 83.9000489,187.108681 83.9248445,187.158263 C83.935176,187.178922 83.9269108,187.203713 83.9413749,187.224373 L86.6730236,191.000868 C86.6916203,191.025659 86.7226148,191.019461 86.7453441,191.04012 C86.7763386,191.069043 86.7887364,191.112427 86.8279961,191.133086 L90.3055792,192.818874 L90.2580543,192.827138 L85.1832212,190.50918 L82.9102911,184.579999 L86.5097859,171.668021 L86.8259298,171.300288 L86.1957083,174.109935 Z M87.2805158,190.432741 L84.7596297,186.949606 L84.9765912,186.540554 L92.2850946,187.036374 L93.6219908,188.370956 L92.6528961,191.285964 L90.9481985,192.211495 L87.2805158,190.432741 Z M98.1719836,153.386727 L94.4877705,160.173262 C94.4733064,160.198053 94.4877705,160.22491 94.4795053,160.253833 C94.4691738,160.282756 94.4402456,160.301349 94.4381793,160.334404 L93.9154054,166.554878 C93.9112728,166.60446 93.9463999,166.641647 93.9587977,166.689163 C93.9711955,166.732547 93.960864,166.782129 93.9897922,166.823447 L94.5125661,167.575441 C94.5166987,167.581639 94.5249639,167.579573 94.5290965,167.583705 C94.5352954,167.591968 94.5311628,167.600232 94.5373617,167.608496 L95.103528,168.269589 L93.9794607,173.890948 L90.0968829,174.473536 L87.0945488,173.876486 L87.9913231,169.87274 C87.9913231,169.870674 87.9892568,169.868608 87.9892568,169.864476 C87.9913231,169.860345 87.9954557,169.858279 87.9954557,169.854147 L88.286804,168.170425 C88.2909366,168.151832 88.2744062,168.13737 88.2744062,168.120843 C88.2764725,168.10225 88.2909366,168.09192 88.2909366,168.075393 L87.536737,155.696421 C87.536737,155.690223 87.5284718,155.686092 87.5264055,155.679894 C87.5264055,155.67163 87.5346707,155.665432 87.5326044,155.657169 L86.5531782,149.509001 L87.2309246,145.784154 L88.7289922,141.867176 C88.7310585,141.858913 88.7269259,141.852715 88.7289922,141.846517 C88.7310585,141.836188 88.74139,141.832056 88.7434563,141.821726 C88.7434563,141.81966 88.74139,141.817594 88.74139,141.813463 C88.7434563,141.809331 88.7475889,141.809331 88.7475889,141.805199 L89.4397994,138.56171 L93.1942667,138.245625 L100.713533,139.999588 L100.153565,143.028221 L99.1968685,144.773921 C99.1803381,144.802844 99.1948022,144.833832 99.186537,144.864821 C99.1782718,144.887546 99.1514099,144.902008 99.1493436,144.926799 L98.1719836,153.386727 Z M101.645434,142.305151 L101.085467,142.522072 L101.517323,140.171059 L101.645434,140.197916 L101.645434,142.305151 Z M109.129573,142.691477 C109.172965,142.705938 109.218424,142.714202 109.261816,142.714202 L117.898951,142.714202 L117.688188,143.976477 C117.686122,143.984741 117.694387,143.990938 117.694387,143.999202 C117.692321,144.009532 117.681989,144.013664 117.681989,144.023993 L117.450563,148.728085 C117.450563,148.728085 117.450563,148.728085 117.450563,148.730151 L117.450563,148.730151 L116.987712,158.714725 L107.019881,183.224758 C107.009549,183.253681 107.026079,183.276406 107.019881,183.305329 C107.013682,183.334252 106.988886,183.348713 106.988886,183.379702 L106.988886,187.990828 L103.304673,187.730522 C103.263347,187.730522 103.238551,187.759445 103.201358,187.767709 C103.139369,187.780104 103.073247,187.780104 103.019524,187.819356 L100.610218,189.728263 L100.610218,186.774003 L103.07738,180.689879 C103.085645,180.667154 103.071181,180.646494 103.07738,180.623769 C103.083579,180.598978 103.106308,180.582451 103.108375,180.55766 L103.862574,166.554878 C103.862574,166.550746 103.858441,166.546615 103.858441,166.542483 C103.858441,166.538351 103.862574,166.536285 103.862574,166.532153 L103.862574,162.284629 L105.823493,155.194404 C105.825559,155.18614 105.81936,155.177876 105.821427,155.169613 C105.823493,155.161349 105.833824,155.155151 105.835891,155.144822 L106.588024,150.149435 C106.592156,150.120513 106.571493,150.101919 106.569427,150.077128 C106.569427,150.04614 106.59009,150.025481 106.583891,149.994492 L105.548675,145.501123 L105.548675,141.48085 L109.129573,142.691477 Z M130.924906,142.714202 L131.038553,142.929057 L122.331164,143.631469 L118.584962,143.631469 L118.735802,142.716268 L130.924906,142.716268 L130.924906,142.714202 Z M110.547055,192.447009 L111.107022,193.599791 L110.284635,193.368408 L108.858888,191.174405 C108.850622,191.157877 108.832026,191.159943 108.819628,191.145482 C108.786567,191.104164 108.743175,191.087636 108.693584,191.060779 C108.646059,191.031857 108.604733,191.007066 108.551009,191.000868 C108.536545,191.000868 108.526213,190.984341 108.509683,190.984341 L105.021768,190.984341 C104.97631,190.984341 104.945315,191.021527 104.901923,191.031857 C104.858531,191.048384 104.811006,191.038054 104.773812,191.066977 L101.579312,193.446913 C101.556583,193.465506 101.556583,193.492363 101.537986,193.513022 C101.517323,193.535747 101.488395,193.537813 101.471865,193.560538 C101.455334,193.589461 101.467732,193.616318 101.457401,193.645241 C101.438804,193.696889 101.432605,193.738207 101.434671,193.793987 C101.436738,193.849767 101.449136,193.891085 101.473931,193.942733 C101.486329,193.967524 101.475997,193.998513 101.494594,194.023304 C101.509058,194.041897 101.537986,194.035699 101.554517,194.052226 C101.577246,194.077017 101.581379,194.110072 101.608241,194.128665 L102.943071,194.944702 C103.011258,194.986021 103.083579,195.004614 103.157966,195.004614 C103.238551,195.004614 103.321203,194.979823 103.391458,194.932307 L105.523879,193.455177 L109.929231,194.124534 L111.757907,194.641013 L116.692231,196.173923 L116.692231,197.688239 L115.406993,199.171567 L104.591978,199.171567 L98.1120609,197.913424 L98.1120609,195.399204 L99.5522721,194.857934 L101.814871,195.754542 L103.841911,197.950611 C103.841911,197.950611 103.843977,197.950611 103.843977,197.952677 L103.843977,197.952677 C103.846044,197.954743 103.850176,197.952677 103.852243,197.956809 C103.926629,198.033248 104.029944,198.084895 104.147723,198.084895 L113.098935,198.084895 C113.179521,198.084895 113.260107,198.06217 113.330361,198.014654 L114.952407,196.913521 C114.952407,196.913521 114.952407,196.913521 114.954473,196.913521 L114.956539,196.909389 C114.958606,196.909389 114.958606,196.905257 114.960672,196.903191 C115.022661,196.859807 115.078451,196.799895 115.107379,196.723456 C115.113578,196.708995 115.103247,196.694534 115.107379,196.680072 C115.121843,196.63049 115.111512,196.580908 115.105313,196.52926 C115.099114,196.473481 115.10118,196.423899 115.072252,196.376383 C115.066053,196.363987 115.072252,196.34746 115.063987,196.335064 C115.039191,196.297878 114.997865,196.293746 114.966871,196.271021 C114.93381,196.242098 114.921412,196.202846 114.87802,196.184252 L111.563674,194.845538 C111.536813,194.835209 111.512017,194.851736 111.483089,194.847604 C111.456227,194.839341 111.43763,194.81455 111.408702,194.81455 L106.759527,194.81455 C106.705803,194.81455 106.66861,194.853802 106.621085,194.870329 C106.57356,194.890989 106.51777,194.886857 106.47851,194.926109 L104.168386,197.084992 L102.364506,195.128569 C102.339711,195.103778 102.30665,195.105844 102.277722,195.087251 C102.25086,195.068657 102.240528,195.035603 102.2116,195.023207 L100.021322,194.159654 L100.58129,190.806672 L103.407988,188.569284 L107.214113,188.837853 L110.547055,192.447009 Z M105.503216,192.61848 C105.50115,192.61848 105.50115,192.61848 105.503216,192.61848 L105.490819,192.61848 C105.395769,192.601953 105.327581,192.63914 105.257327,192.672194 C105.236664,192.682524 105.213934,192.672194 105.195338,192.686656 L105.193271,192.686656 C105.18294,192.694919 105.174675,192.699051 105.166409,192.707315 L103.147634,194.101808 L102.560805,193.744405 L105.156078,191.810707 L108.284456,191.810707 L109.170899,193.174212 L105.503216,192.61848 Z M106.928963,195.645048 L111.334315,195.645048 L113.855201,196.663545 L112.974957,197.260595 L105.197404,197.260595 L106.928963,195.645048 Z M132.154355,139.074057 L131.524133,142.094427 C131.515868,142.079966 131.499338,142.079966 131.489006,142.06757 C131.453879,142.020054 131.416686,141.995263 131.367095,141.96634 C131.321636,141.937418 131.282376,141.918824 131.230719,141.910561 C131.207989,141.906429 131.193525,141.88577 131.172862,141.88577 L118.386597,141.88577 L109.330004,141.88577 L105.269724,140.511935 L105.267658,140.511935 C105.265592,140.511935 105.265592,140.509869 105.265592,140.509869 L104.914321,140.396244 L107.575715,127.038028 C107.577782,127.023566 107.565384,127.011171 107.56745,126.994644 C107.569516,126.980182 107.583981,126.969853 107.583981,126.955391 L107.583981,121.681106 L108.569606,113.177794 C108.596468,112.950543 108.435296,112.746018 108.208003,112.717095 C107.991042,112.688172 107.776146,112.853445 107.749285,113.080696 L106.763659,121.581943 L102.643457,137.016404 C102.639324,137.032932 102.651722,137.047393 102.649656,137.061855 C102.64759,137.076316 102.633126,137.08458 102.631059,137.101107 L102.517413,139.150496 L102.393435,139.623591 C102.387236,139.613261 102.370705,139.613261 102.36244,139.602932 C102.327313,139.559548 102.283921,139.54302 102.23433,139.516163 C102.197136,139.495504 102.178539,139.458318 102.135147,139.450054 L101.271434,139.276517 L93.3141121,137.419258 C93.2893165,137.415126 93.2707198,137.431654 93.2479905,137.431654 C93.2252612,137.429588 93.2066645,137.408929 93.1860015,137.410995 L89.0596002,137.760134 L89.0596002,137.760134 L80.9762343,138.410898 L85.3774534,108.481966 L85.3774534,108.481966 L88.8529702,90.9361375 L89.5389818,89.2462179 L97.733928,93.619763 C97.754591,93.6300926 97.7773203,93.6280267 97.8000496,93.6362904 C97.8124474,93.6404222 97.8145137,93.6528177 97.8269115,93.6569495 C97.8620386,93.6652132 97.8950994,93.669345 97.9281602,93.669345 C98.0108122,93.669345 98.0893316,93.6362904 98.1575195,93.5908402 C98.1802488,93.5763788 98.1926466,93.5536537 98.2112433,93.5350605 C98.2401715,93.5082035 98.271166,93.4896103 98.291829,93.4524238 C98.3000942,93.4358965 98.2897627,93.4193691 98.2959616,93.4069736 C98.3042268,93.3883804 98.3228235,93.3780508 98.3290224,93.3594576 L99.5316091,88.5603336 L99.8332889,88.1574799 L100.428383,88.326885 L99.4985483,94.1238467 L99.4985483,94.1259126 L99.4985483,94.1259126 L99.4985483,94.1259126 C99.4902831,94.1713627 99.5212776,94.2085492 99.5295428,94.2539994 C99.5398743,94.3159769 99.5357417,94.3841521 99.5729351,94.4337341 C99.5977307,94.4688547 99.6431893,94.4750525 99.6762501,94.4977775 C99.7279076,94.5390959 99.7712999,94.5907438 99.8415541,94.6010734 L105.129216,95.4728901 C105.139548,95.474956 105.151945,95.474956 105.162277,95.474956 C105.164343,95.474956 105.164343,95.4790879 105.166409,95.4790879 L110.747486,95.8860734 C110.757817,95.8860734 110.768149,95.8860734 110.77848,95.8860734 L115.020595,95.8860734 C115.070186,95.8860734 115.12391,95.8757438 115.171434,95.8571506 L117.378243,94.9853338 C117.415436,94.9688065 117.427834,94.93162 117.458829,94.906829 C117.502221,94.8717084 117.541481,94.8489833 117.570409,94.7994013 C117.597271,94.7539512 117.601403,94.708501 117.607602,94.6547872 C117.615867,94.6176007 117.644796,94.5866119 117.638597,94.5452936 L117.057966,90.2440555 C117.053834,90.2110009 117.022839,90.1986054 117.014574,90.1696825 C117.004243,90.1386938 117.01664,90.107705 117.00011,90.0808481 L116.553789,89.3598433 L117.029038,89.2544815 L117.820431,90.5560089 L118.330807,94.3056473 C118.332874,94.3201087 118.347338,94.3283724 118.35147,94.3428338 C118.355603,94.3572952 118.345271,94.3696907 118.349404,94.3841521 C118.365934,94.4296023 118.403128,94.460591 118.434122,94.4977775 C118.454785,94.5225685 118.465117,94.5494254 118.487846,94.5700846 C118.560167,94.6279303 118.646951,94.6651168 118.739935,94.6651168 C118.758531,94.6651168 118.777128,94.6630509 118.795725,94.6609849 C118.801924,94.658919 118.80399,94.6547872 118.808123,94.6527213 C118.830852,94.6506554 118.851515,94.6506554 118.872178,94.6423917 L122.998579,93.2478981 C123.010977,93.2437662 123.01511,93.2293048 123.027507,93.2231071 C123.046104,93.2148434 123.068833,93.2169093 123.085364,93.2045138 L126.389378,91.1262018 L126.831566,91.6364832 L131.05715,121.672843 L132.154355,139.074057 Z M103.02159,89.2338224 C103.044319,89.242086 103.064982,89.242086 103.087712,89.2462179 C103.095977,89.2462179 103.098043,89.2544815 103.104242,89.2544815 L111.590536,90.4155266 C111.611199,90.4175925 111.629796,90.4196584 111.646326,90.4196584 C111.675255,90.4196584 111.704183,90.4155266 111.735177,90.4093288 L115.690076,89.5437098 L116.245911,90.4403176 L116.772817,94.3345701 L114.940009,95.0576409 L110.790878,95.0576409 L105.234597,94.6527213 L100.378792,93.8511457 L101.223909,88.5871905 L103.02159,89.2338224 Z M121.324876,88.3186214 C121.331075,88.3165554 121.333141,88.3103577 121.33934,88.3082918 C121.357937,88.3041599 121.376534,88.3041599 121.393064,88.2979622 L125.746758,86.5336695 L126.038107,90.3680105 L122.686568,92.4773112 L119.078808,93.6962019 L118.624222,90.3597468 C118.620089,90.3266922 118.591161,90.3101648 118.58083,90.281242 C118.572564,90.2543851 118.584962,90.2254623 118.568432,90.1986054 L117.880354,89.068549 L121.324876,88.3186214 Z M134.404556,86.3167483 C134.402489,86.3126165 134.406622,86.3084846 134.404556,86.3022869 L129.726452,75.2806225 L129.726452,70.1674792 L131.701835,69.2543441 L135.069904,68.7523264 L138.225145,69.1717075 L141.341125,80.8978494 L142.082927,93.225173 L141.436175,93.9151891 L137.210591,94.437866 L134.414887,86.3291438 C134.412821,86.325012 134.406622,86.322946 134.404556,86.3167483 Z M142.855723,98.6358082 L141.322528,97.3032921 C141.283269,97.2702374 141.231611,97.2743693 141.188219,97.2599079 C141.14276,97.2413146 141.105567,97.2041281 141.053909,97.2041281 L137.539133,97.2041281 L137.375895,95.251837 L141.686197,94.7188306 C141.744054,94.7126328 141.781247,94.6671827 141.828772,94.6382599 C141.863899,94.6176007 141.907291,94.6217325 141.93622,94.5928097 L142.58917,93.8965958 L142.750342,93.9854302 L143.064419,98.5345783 L142.855723,98.6358082 Z M140.586926,110.884627 C140.595191,110.843309 140.566263,110.81232 140.56213,110.771002 C140.560064,110.729683 140.580727,110.694563 140.564196,110.653244 L139.402936,107.748566 C139.390538,107.719643 139.359543,107.711379 139.345079,107.688654 C139.314085,107.643204 139.285157,107.612215 139.237632,107.579161 C139.194239,107.546106 139.152913,107.53371 139.09919,107.521315 C139.070261,107.515117 139.051665,107.48826 139.02067,107.48826 L138.555753,107.48826 C138.502029,107.48826 138.462769,107.527513 138.415244,107.546106 C138.371852,107.564699 138.326393,107.566765 138.291266,107.597754 C138.245808,107.639072 138.229277,107.692786 138.204482,107.748566 C138.185885,107.787818 138.148691,107.810543 138.144559,107.855993 L137.754028,111.597368 L137.113475,112.194418 L136.448126,112.194418 L136.181574,107.570897 L136.987431,99.5014272 L137.460614,98.0284288 L140.901003,98.0284288 L142.384607,99.3154948 L142.384607,100.290607 C142.384607,100.315398 142.407336,100.32986 142.411469,100.352585 C142.413535,100.37531 142.397004,100.395969 142.40527,100.418694 L144.709194,107.444876 L144.709194,113.801701 L140.390627,117.189804 L139.152913,117.189804 L139.64056,115.890343 C139.644693,115.877947 139.636428,115.865552 139.638494,115.853156 C139.642626,115.840761 139.657091,115.832497 139.659157,115.820101 L140.586926,110.884627 Z M138.258205,55.6420205 L138.871896,68.4279776 L138.617742,68.3866592 C138.615675,68.3866592 138.615675,68.3887251 138.613609,68.3887251 C138.611543,68.3887251 138.611543,68.3866592 138.609476,68.3866592 L135.121562,67.921828 C135.100899,67.9176962 135.084368,67.9383554 135.063705,67.9383554 C135.043042,67.9383554 135.026512,67.9197621 135.007915,67.921828 L131.520001,68.442439 C131.497271,68.4465708 131.48694,68.4692959 131.468343,68.4754936 C131.44768,68.4796255 131.427017,68.46723 131.408421,68.4775596 L129.139623,69.5270451 L129.139623,69.5270451 L128.22012,69.9195693 L130.245094,57.9413855 C130.24716,57.9269241 130.236828,57.9186605 130.236828,57.906265 C130.238895,57.8938695 130.251293,57.8856058 130.251293,57.8711444 L130.251293,50.8986763 C130.251293,50.6714255 130.065326,50.485493 129.838032,50.485493 C129.610739,50.485493 129.424772,50.6714255 129.424772,50.8986763 L129.424772,57.8380897 L127.279953,70.5248828 L127.279953,70.5269487 L127.279953,70.5269487 L126.525753,75.119481 C126.521621,75.1401402 126.538151,75.1546016 126.538151,75.1711289 C126.538151,75.1917881 126.519555,75.2083154 126.521621,75.2269087 L127.273754,82.5257916 L127.273754,85.0172868 L125.96372,85.5502933 L125.961654,85.5502933 L121.109981,87.5170458 L117.138552,88.3785329 L117.138552,88.3785329 C117.136486,88.3785329 117.136486,88.3785329 117.136486,88.3785329 L115.801656,88.6698272 L111.631862,89.5808963 L103.255082,88.4322468 L101.035876,87.6327371 C101.031743,87.6327371 101.025544,87.6368689 101.021411,87.634803 C101.015213,87.6327371 101.015213,87.6265393 101.009014,87.6244734 L99.8002281,87.2815313 L91.6073482,84.3045457 L90.5184081,82.9968205 L90.5184081,82.9968205 L88.5430252,80.6292802 L89.505921,71.9482992 L91.2416131,65.5894083 C91.2436794,65.5811447 91.2374805,65.572881 91.2374805,65.5646173 C91.2395468,65.5563537 91.2498783,65.5501559 91.2519446,65.5398263 L92.5888408,56.6501877 C92.6219016,56.4250028 92.4648628,56.2142794 92.239636,56.1770929 C92.0082104,56.1399064 91.805713,56.2989819 91.7685196,56.5241668 L90.441955,65.3291028 L87.5883945,69.6117477 L87.0594217,69.258476 C87.0594217,69.258476 87.0594217,69.258476 87.0573554,69.258476 L87.0573554,69.258476 L78.5152708,63.6226558 L78.5152708,63.6205899 L73.9342835,60.5650995 L83.5715072,40.9554203 L91.0453146,32.7434023 L98.2257074,31.6009505 C98.2360389,31.6009505 98.2401715,31.588555 98.250503,31.588555 C98.2773649,31.5802913 98.3042268,31.5802913 98.3310887,31.5678958 L103.536099,29.2230806 L104.571315,29.2230806 L104.058873,30.4667624 C104.050607,30.4853556 104.063005,30.5018829 104.058873,30.5163444 C104.044408,30.5679923 104.052674,30.6134424 104.058873,30.6650903 C104.065071,30.7208701 104.067138,30.7704521 104.094,30.8179682 C104.102265,30.8324296 104.096066,30.8510228 104.106397,30.8654842 L106.199559,33.7701628 C106.21609,33.7928879 106.249151,33.7866901 106.269814,33.8073493 C106.300808,33.8362721 106.313206,33.8796564 106.352466,33.9003155 L111.931476,36.6293912 C111.989332,36.658314 112.053388,36.6727754 112.11331,36.6727754 C112.125708,36.6727754 112.140172,36.6727754 112.15257,36.6707095 L118.372133,36.090187 C118.496111,36.0798574 118.591161,36.0096163 118.661415,35.91665 C118.665548,35.9104523 118.675879,35.9145841 118.680012,35.9063204 L120.597538,33.0016419 C120.622334,32.9644554 120.60787,32.925203 120.620268,32.8838846 C120.632666,32.8446322 120.665726,32.8157094 120.665726,32.7723251 L120.665726,29.8056691 L132.623405,37.4309668 L136.187773,42.692856 L138.258205,55.6420205 Z M123.57921,21.9903071 L119.884665,28.8574134 C119.880532,28.8656771 119.886731,28.8739408 119.882599,28.8822044 C119.878466,28.8904681 119.868135,28.892534 119.864002,28.9007977 L118.770929,31.6340052 L115.778927,32.7392705 L113.127864,31.6773894 L109.478778,26.7729037 C109.342402,26.5849053 109.077915,26.5539166 108.90228,26.6861352 C108.718379,26.8224857 108.681186,27.0807253 108.817562,27.2645918 L112.536902,32.2641097 C112.555499,32.2909666 112.590626,32.2827029 112.613355,32.3033621 C112.650548,32.3364168 112.667079,32.3839328 112.714604,32.4025261 L115.619822,33.5635712 C115.669413,33.5842303 115.723137,33.5945599 115.772728,33.5945599 C115.820253,33.5945599 115.869844,33.5862962 115.915302,33.567703 L119.229648,32.3446804 C119.242046,32.3384827 119.246178,32.3240213 119.258576,32.3178235 C119.330897,32.2827029 119.388753,32.2289891 119.432145,32.156682 C119.44041,32.1422206 119.456941,32.1360229 119.46314,32.1194955 C119.465206,32.1153637 119.469339,32.1132978 119.471405,32.109166 L119.83714,31.1960309 L119.83714,32.6483702 L118.097315,35.2824137 L112.19183,35.8360793 L106.811184,33.2020358 L104.914321,30.5721241 L105.579669,28.9813684 C105.579669,28.9813684 105.579669,28.9813684 105.579669,28.9793025 L106.914499,25.8453072 C106.922764,25.824648 106.910367,25.8039889 106.914499,25.7853956 C106.922764,25.7606046 106.945494,25.7461432 106.94756,25.7213522 L107.296765,21.8270997 C107.298831,21.7919791 107.274036,21.7713199 107.267837,21.7382653 C107.261638,21.6845514 107.251306,21.6411672 107.224444,21.5936511 C107.197582,21.546135 107.164522,21.5151463 107.119063,21.4800257 C107.094267,21.4614324 107.088068,21.4283778 107.05914,21.4159823 L105.488752,20.6846479 L104.806873,18.2675256 L105.201537,14.9909821 C105.201537,14.9909821 105.201537,14.9909821 105.201537,14.9889161 L105.290387,14.3174933 L106.090046,13.8443984 L107.515793,15.6045592 L107.515793,17.0279757 C107.515793,17.0630963 107.546787,17.0858214 107.555052,17.118876 C107.563318,17.1539966 107.546787,17.1870513 107.563318,17.21804 L108.435296,18.9017619 C108.464224,18.9534099 108.507617,18.9905963 108.553075,19.0257169 C108.56134,19.0339806 108.56134,19.048442 108.571672,19.0567057 C108.575805,19.0567057 108.579937,19.0567057 108.58407,19.0587716 C108.650191,19.1021558 108.724578,19.1269468 108.803098,19.1269468 C108.867153,19.1269468 108.931208,19.1124854 108.993197,19.0814967 C109.036589,19.0608375 109.044855,19.0133214 109.077915,18.9823327 C109.096512,18.9637394 109.127507,18.9678713 109.144037,18.9451462 L111.350846,15.6913277 C111.361177,15.6748004 111.352912,15.6582731 111.361177,15.6438117 C111.373575,15.6190207 111.39837,15.6066252 111.404569,15.5818342 L113.466737,8.84074871 L116.22938,8.84074871 L120.597538,11.850789 C120.614069,11.8611186 120.634732,11.8590527 120.651262,11.8673163 C120.66366,11.8735141 120.665726,11.8900414 120.68019,11.8962392 L124.223895,13.2886669 C124.273486,13.309326 124.325144,13.3196556 124.374735,13.3196556 L124.922305,13.3196556 L124.548304,18.6972362 L123.57921,21.9903071 Z" id="Shape"></path>
            <path d="M84.7406101,179.014667 C84.6880103,179.032471 84.6438265,179.048297 84.6038506,179.081927 C84.5638748,179.115556 84.5470428,179.155121 84.5217949,179.204576 C84.504963,179.238206 84.4691951,179.25601 84.4628831,179.295575 L83.930573,182.23917 C83.920053,182.29456 83.9537169,182.340059 83.9684448,182.391493 C83.9810688,182.43897 83.9726528,182.490404 84.0021087,182.529968 C84.0357726,182.571511 84.0925804,182.585358 84.1388682,182.615032 C84.1830521,182.640749 84.212508,182.68427 84.2672118,182.694161 L84.2777318,182.696139 L84.2777318,182.696139 L84.2777318,182.696139 L86.3985564,183.085849 C86.4048683,183.087827 86.4111803,183.087827 86.4174923,183.087827 L86.4195963,183.087827 L92.6326866,183.922637 C92.6537266,183.926593 92.6747665,183.928571 92.6915984,183.928571 C92.7294703,183.928571 92.7652382,183.922637 92.80311,183.914724 L94.3390247,183.521058 L94.3390247,183.521058 C94.3411287,183.521058 94.3432327,183.521058 94.3453367,183.521058 C94.4021445,183.505232 94.4316004,183.457755 94.4757842,183.422147 C94.5178641,183.390495 94.5704639,183.374669 94.5957118,183.333127 C94.6188557,183.29554 94.6041278,183.250041 94.6125437,183.208498 C94.6251677,183.15113 94.6546236,183.09574 94.6377917,183.038371 C94.6377917,183.036393 94.6356877,183.034415 94.6356877,183.034415 C94.6356877,183.032437 94.6356877,183.030458 94.6356877,183.030458 L93.7478028,180.140276 C93.7435948,180.128406 93.7309708,180.12445 93.7246588,180.114559 C93.7057229,180.067081 93.665747,180.039386 93.6278752,179.999822 C93.5878993,179.960257 93.5626514,179.920693 93.5121556,179.898933 C93.5016356,179.894976 93.4974276,179.881129 93.4869077,179.877172 L89.8196484,178.595284 C89.7880886,178.585393 89.7586327,178.601219 89.7249688,178.59924 C89.6934089,178.593306 89.670265,178.569567 89.6366011,178.571545 L84.8437058,178.963233 C84.7995219,178.969168 84.776378,179.00082 84.7406101,179.014667 Z M89.6113532,179.368769 L92.9903654,180.551746 L93.6994109,182.864288 L92.6600385,183.131348 L86.5521478,182.310386 L84.8268738,181.991892 L85.2371524,179.726827 L89.6113532,179.368769 Z" id="Shape"></path>
            <path d="M38.7808882,27.3372143 C38.8217835,27.3372143 38.858784,27.3300714 38.8996793,27.3193571 L40.1538016,26.9532857 L41.4605036,27.3211429 C41.4994515,27.3318571 41.536452,27.3372143 41.5753999,27.3372143 C41.7428759,27.3372143 41.89672,27.2372143 41.9473523,27.0836429 C42.009669,26.8961429 41.8947727,26.6943571 41.6883488,26.6372143 L40.2667505,26.2372143 C40.2258552,26.2265 40.1888547,26.2479286 40.1479594,26.2479286 C40.1070641,26.2479286 40.0739584,26.2265 40.0330631,26.239 L38.6640445,26.639 C38.4595681,26.6979286 38.3466192,26.8997143 38.4108832,27.0872143 C38.4634629,27.239 38.6173071,27.3372143 38.7808882,27.3372143 Z" id="Path"></path>
            <path d="M32.5238481,27.3172004 C32.5467486,27.3172004 32.5696491,27.3154147 32.5925496,27.3118433 L34.5696271,26.9689861 L36.1650294,27.2100576 C36.1860215,27.213629 36.2051053,27.2154147 36.2260974,27.2154147 C36.4112099,27.2154147 36.5734219,27.0904147 36.6020475,26.9154147 C36.6363983,26.7207718 36.4932701,26.5368433 36.2871655,26.5064861 L34.62497,26.2547004 C34.6020695,26.251129 34.5848941,26.2689861 34.5619936,26.2689861 C34.5371847,26.2689861 34.5200093,26.251129 34.4952005,26.2564861 L32.4551466,26.6082718 C32.2471336,26.6457718 32.1097305,26.8314861 32.1498064,27.026129 C32.1822488,27.1957718 32.3425524,27.3172004 32.5238481,27.3172004 Z" id="Path"></path>
            <path d="M28.0836216,74.1071429 C28.1057944,74.1071429 28.1259515,74.1054347 28.1501401,74.1020185 L35.803793,73.0122305 L36.9426695,73.408517 C36.9930623,73.4255984 37.0454707,73.434139 37.0958635,73.434139 C37.2551046,73.434139 37.4042672,73.3538568 37.4707857,73.2223307 C37.5534298,73.0463932 37.45466,72.8482499 37.2510732,72.7748002 L36.0053641,72.3443511 C35.9650499,72.330686 35.9307828,72.3477673 35.8904686,72.3443511 C35.8521701,72.3409348 35.8259659,72.317021 35.7836359,72.3221454 L28.0150875,73.4255984 C27.7973907,73.4580529 27.6462124,73.6339904 27.6845109,73.8184686 C27.718778,73.9892818 27.8901134,74.1071429 28.0836216,74.1071429 Z" id="Path"></path>
        </g>
        <text id="Parents" font-family="AvenirNextforINTUIT-Demi, AvenirNext forINTUIT" font-size="43" font-weight="400" letter-spacing="3.07142857" fill="#4D4D4D">
            <tspan x="338" y="130">Parents</tspan>
        </text>
        <text id="Revisits-exhibits" font-family="AvenirNextforINTUIT-Regular, AvenirNext forINTUIT" font-size="20" font-weight="normal" letter-spacing="1.42857143" fill="#000000">
            <tspan x="352" y="176">Revisits exhibits</tspan>
        </text>
        <text id="Asks-attendants-abou" font-family="AvenirNextforINTUIT-Regular, AvenirNext forINTUIT" font-size="20" font-weight="normal" letter-spacing="1.42857143" fill="#000000">
            <tspan x="352" y="216">Asks attendants about</tspan>
            <tspan x="352" y="240">exhibit related details</tspan>
        </text>
        <text id="Spends-more-time-at" font-family="AvenirNextforINTUIT-Regular, AvenirNext forINTUIT" font-size="20" font-weight="normal" letter-spacing="1.42857143" fill="#000000">
            <tspan x="352" y="280">Spends more time at</tspan>
            <tspan x="352" y="304">each exhibit</tspan>
        </text>
        <circle id="Oval" fill="#666666" cx="341" cy="169" r="3"></circle>
        <circle id="Oval" fill="#666666" cx="341" cy="209" r="3"></circle>
        <circle id="Oval" fill="#666666" cx="341" cy="274" r="3"></circle>
    </g>
</svg>