<svg xmlns="http://www.w3.org/2000/svg" width="689" height="398" xmlns:v="https://vecta.io/nano"><style><![CDATA[.B{font-family:AvenirNextforINTUIT-Regular, AvenirNext forINTUIT}]]></style><g fill-rule="evenodd"><path fill="#fff" d="M0 0h689v398H0z"/><text font-family="AvenirNextforINTUIT-Demi, AvenirNext forINTUIT" font-size="43" letter-spacing="3.071" fill="#4d4d4d"><tspan x="357" y="136">Children</tspan></text><text font-size="20" letter-spacing="1.429" fill="#000" class="B"><tspan x="377" y="179">Dont read text</tspan><tspan x="377" y="218">Spends more time at </tspan><tspan x="377" y="242">interactive exhibits</tspan><tspan x="377" y="284">Touches exhibits</tspan></text><g fill="#666"><circle cx="360" cy="172" r="3"/><circle cx="360" cy="212" r="3"/><circle cx="360" cy="277" r="3"/></g><g fill="#000" fill-rule="nonzero"><path d="M162.982 202.942c.07-.042.16-.034.217-.105.01-.017.007-.042.017-.05.06-.084.068-.2.095-.285.03-.105.075-.197.07-.3 0-.017.014-.025.014-.042-.01-.088-.07-.138-.098-.222-.034-.088-.034-.205-.095-.277l-.478-.6c-.058-.075-.136-.067-.207-.105s-.12-.122-.203-.138l-.86-.113-.424-.084-.492-.302c-.007-.008-.017 0-.027-.008-.007 0-.007-.017-.017-.017l-1.143-.6-1.78-1.04c-.068-.042-.132 0-.203-.017-.088-.017-.163-.042-.248-.017-.092.025-.146.096-.22.163-.054.05-.122.06-.166.13-.017.025-.003.06-.017.084s-.04.025-.05.06c-.03.075 0 .155-.01.24-.014.113-.034.205-.014.32.024.105.078.172.132.26.04.067.047.155.102.214l1.34 1.2.607 1.073c.027.042.078.034.1.067.044.06.058.138.1.18l.668.465c.017.017.04.008.058.025.01 0 .014.025.024.025l.478.24c.08.042.17.067.25.067h.003c.03 0 .058-.008.08-.008l.77-.122h.027l.57-.122.827-.113c.078-.03.12-.105.186-.143zm10.076-.662c0-.03-.024-.058-.028-.087-.01-.13-.06-.217-.096-.33-.045-.1-.072-.227-.14-.3-.02-.02-.02-.068-.04-.087-.06-.048-.127-.03-.193-.048-.07-.04-.117-.1-.193-.1h-3c-.048 0-.072.058-.12.077-.048.01-.1-.03-.134-.01l-.485.275c-.014.01-.014.03-.028.04s-.024-.01-.034 0c-.072.058-.096.17-.15.256-.062.097-.138.16-.165.275-.034.12-.007.246-.007.367.007.1-.03.217 0 .33.007.02.02.02.028.04 0 .02-.007.03 0 .04l.1.275c.007.02.014.02.02.03.014.04.038.048.055.087a.7.7 0 0 0 .317.329c.024.01.034.048.06.058l.382.13a.51.51 0 0 0 .165.029h.007l.1.12c.052.068.117.058.176.1s.08.12.145.15l.382.13c.02.01.04.01.062.02l.692.14c.034 0 .065.01.093.01a.5.5 0 0 0 .255-.077l.967-.546c.1-.048.127-.17.193-.256.038-.048.093-.04.124-.097l.4-.812c.04-.087.02-.188.04-.285s.08-.16.08-.26z"/><path d="M91.93 248.48l.304.82.206.722h.004l.315 1.07c.01.045.056.068.08.1.015.03 0 .06.02.087l.35.533.075.295c.004.015.015.023.02.03s-.004.015 0 .03l.214.635c.008.03.038.038.05.068.008.023-.004.045.008.068l.35.62.1.696c0 .015.02.03.023.045s-.01.023-.008.038l.1.427c.008.03.038.045.045.076.008.023-.008.053.004.076l1.482 3.2c.07.155.195.257.334.333.008.008.008.023.02.023.086.045.158.045.233.06l.544.665.8 1.33c.01.023.045.015.06.03.02.03.008.068.034.087l1.583 1.705c.023.03.06.015.086.038s.026.068.056.08l1.797 1.176c.015.008.015.008.02.015l1.054.635c.03.023.07.015.1.03.015.008.02.03.038.038l2.1.737c.05.015.098.015.146.023.008.008.015.015.026.015l3.268.325c.023 0 .05.008.07.008h0c.038 0 .075-.008.113-.015l2.743-.427c.01 0 .02-.015.03-.015.05-.015.094-.015.14-.03l1.625-.673 2.46.193c.02.008.04.008.06.008h.03l2.638-.102c.026-.008.053-.008.075-.008l.15-.023.525 1.35c.004.008.02.015.023.03.015.038.05.053.07.087.008.015.023.03.034.045.034.045.056.08.098.117a.67.67 0 0 0 .173.102c.026.015.03.045.06.053l.623.216.07.178a.73.73 0 0 0-.086.102c-.034.053-.1.08-.124.147h-.004l-.2.643c-.01.045.015.08.008.125-.008.038-.05.068-.05.1v.427l-.2.355c-.004.008 0 .023-.004.03s-.015.008-.023.023l-.32.635c-.034.076-.004.147-.015.223s-.068.132-.06.208l.053.458-.5.28c-.068.038-.08.117-.13.17s-.143.076-.176.155c-.01.023.004.045-.004.076-.034.087-.023.178-.02.272 0 .102-.008.193.034.287.008.023-.004.045.008.068.023.045.08.03.1.068.068.087.1.193.214.242l.353.178-.146.265c-.023.045 0 .087-.015.14-.015.038-.064.06-.07.102l-.214 1.278c0 .008.008.015.004.03l-.064.518-.1.045c-.056.023-.075.087-.12.117-.05.038-.116.03-.158.076l-1.054 1.168c-.034.038-.023.095-.05.14-.026.038-.08.053-.098.102l-.525 1.388c-.02.045.01.087.004.132-.01.053-.056.08-.056.132v1.063c0 .045.038.068.04.102s-.023.076-.01.1l.214.737c.01.045.053.068.075.102.01.03 0 .068.015.095l.2.325c.02.03.064.023.086.045.03.045.026.095.068.132l1.163.953c.05.038.1.038.16.06.038.023.05.068.1.076l.675.216c-.008.008 0 .023-.008.03-.008.015-.026.015-.034.03l-.315.533c-.015.023 0 .053-.01.08s-.05.038-.056.068l-.214.643c-.008.023.01.053.004.076-.004.03-.034.038-.038.068l-.214 1.596c-.004.045.03.076.03.117s-.034.076-.026.117l.214 1.168c.015.08.08.132.12.208.023.045.008.102.045.14l1.054 1.278c.02.023.053.015.07.03.026.03.023.068.05.087l1.797 1.38c.045.038.1.03.154.053.034.023.05.06.083.076l2.74.843c.03.015.064.008.094.015l2.12.333c.038.008.075.015.113.015h0c.02 0 .03-.023.05-.023.146-.008.296-.045.42-.147l.01-.015.784-.635 4.952.76.345.48c.008.015.026.008.034.023.13.163.3.28.533.287l.038.008 3.8.216 6.45.1c.034 0 .068-.008.1-.008l5.5-.745c.008 0 .008-.015.02-.015.034-.008.064 0 .1-.015l5.054-1.512v.257c0 .03.026.045.026.068s-.015.045-.015.068l.214 1.176c.015.102.086.17.143.25.03.045.02.1.064.147l.308.3v.533c0 .1.075.193.116.287.034.076.023.163.083.23l.02.015 1.298 1.4.698 1.2c.023.03.068.023.1.053.034.045.03.102.075.14l1.358 1.16.945.85c.01.008.03.008.04.015s.01.03.023.038l.74.533c.13.087.28.14.435.14h.04l1.898-.102c.05-.008.07-.045.113-.06.1-.023.225-.038.315-.1l.53-.427c.034-.03.03-.076.06-.102.068-.076.094-.147.13-.242s.06-.17.053-.272c0-.038.034-.076.026-.1l-.1-.533c-.01-.076-.08-.102-.105-.163h.375l1.936.3 2 .318 1.898.318c.045.008.083.015.124.015a.77.77 0 0 0 .308-.068l.57-.257.285.193c.05.038.1.03.158.053.034.015.045.053.08.06l1.268.318a.79.79 0 0 0 .184.023.71.71 0 0 0 .476-.185c.008 0 .015 0 .023-.008l.953-.85c.008-.008.004-.015.008-.023.08-.076.086-.178.13-.265.038-.087.1-.163.1-.257 0-.008.01-.015.01-.023v-.96c0-.015-.015-.023-.015-.038-.004-.095-.068-.17-.105-.257-.045-.087-.064-.185-.135-.25-.01-.015-.008-.03-.02-.038l-1.797-1.486c-.01-.008-.03 0-.038-.008-.015-.015-.015-.03-.023-.038l-2.85-1.913c-.015-.008-.03 0-.038-.008-.015-.008-.015-.023-.026-.03l-1.583-.858c-.026-.015-.056.008-.083-.008s-.038-.045-.068-.053l-2.58-.737-.01-.03 1.587.117c.023.008.04.008.06.008s.04 0 .06-.008l1.268-.102c.026 0 .038-.023.06-.03a.7.7 0 0 0 .383-.193l.094-.102c.023-.038.06-.053.08-.087l.424-.85c.015-.03-.004-.06.008-.087s.05-.053.056-.087l.2-.953c.01-.038-.023-.076-.02-.1a.64.64 0 0 0-.053-.272c-.03-.095-.056-.178-.12-.25-.026-.03-.02-.076-.05-.095l-.848-.752c-.07-.06-.165-.053-.244-.08-.086-.038-.154-.102-.248-.102h-1.088l-2.394-1.248-.124-.435c-.01-.023-.01-.03-.01-.03l-.4-1.176-.1-2.76c0-.023-.02-.03-.023-.045 0-.023.02-.038.015-.06l-.214-1.27c-.008-.03-.038-.038-.045-.068-.008-.023.015-.053.004-.076l-.525-1.388c-.01-.03-.045-.038-.056-.06s.004-.053-.01-.076l-1.054-1.698c-.008-.008-.015-.008-.015-.015l-1.35-2-2.495-4.602-2.814-6.787 1.34-2.9c.004-.015-.008-.03 0-.045s.026-.023.03-.045l.278-.836 8.42-11.36.1.363c.008.03.038.045.045.068s-.004.045.008.068l.638 1.278 3.583 7.328c.004.015.015.015.023.03 0 .008-.004.015 0 .023l2.097 3.588.833 1.773c.004.015.02.015.023.03.004.008-.004.015.004.023l5.72 10.103-.17.393c-.038.08 0 .163-.004.25-.008.08-.056.155-.034.242l.315 1.176c.015.053.068.08.086.132.023.038.004.08.03.1l.788 1.093 1.658 4.277c.008.023.034.03.045.053s-.004.038.008.06l.945 1.596c.008.008.026.008.034.015.01.015.004.038.01.053l1.2 1.588.36 1.176.098 1.403c.008.132.086.223.154.325.03.053.023.117.068.163l.953.953c.045.045.105.038.158.068s.07.087.128.1l.945.325a.68.68 0 0 0 .24.045c.184 0 .34-.08.476-.2.015-.015.04-.008.056-.023l.53-.533c.05-.045.038-.1.07-.17.053-.087.128-.163.143-.272l.214-1.698c0-.008-.004-.015-.004-.023l.113-1.403c.004-.06-.045-.1-.056-.17s.026-.125 0-.185l-.604-1.418.642.65c.01.008.023.008.034.015s.008.03.02.038l1.332 1.13 1.17 1.38.4.688c.015.03.056.023.075.045.135.193.326.34.578.34h1.054c.176 0 .334-.08.47-.2.038-.03.064-.068.094-.102.034-.045.08-.068.1-.117l.1-.193c.1.038.188.08.3.08a.6.6 0 0 0 .255-.053c.008 0 .01-.015.023-.015.02-.008.04-.008.06-.015l1.268-.643c.068-.038.08-.1.13-.155.075-.068.14-.117.18-.208s.045-.178.05-.28c.008-.068.053-.125.038-.193l-.315-1.535c-.008-.038-.045-.053-.056-.08-.01-.038.008-.068-.008-.102l-.848-1.705c-.01-.023-.045-.03-.064-.053s0-.053-.02-.076l-1.898-2.44c-.023-.03-.064-.03-.083-.053-.03-.023-.023-.068-.056-.087l-2.908-2.2-1.76-1.773-2.033-2.14-.08-.613c-.008-.053-.056-.08-.075-.125-.015-.053.008-.102-.02-.147l-.36-.635-.293-1.478c-.004-.023-.023-.03-.03-.045 0-.015.01-.03.008-.053l-2.844-8.602-1.167-3.713-1.8-6.47c-.004-.023-.03-.03-.038-.053s.004-.045-.008-.068l-2.424-5.207c-.015-.03-.045-.03-.06-.06-.015-.023-.004-.053-.023-.076l-2.806-3.78-1.95-4.03-1.047-2.946-.3-.82-.728-2.4-.518-2.828c-.004-.015-.02-.023-.023-.038-.004-.008.008-.023.004-.03l-.74-2.658c-.004-.015-.015-.015-.02-.023-.004-.015.008-.023 0-.038l-.844-2.333-.008-.008-1.054-2.673c-.01-.015-.008-.023-.008-.023l-.844-1.92h-.004l-.52-1.255c-.01-.023-.034-.03-.045-.045-.01-.023 0-.045-.01-.068l-.165-.265 1.073-.813 1.017-.465 1.46-.405c.023-.008.03-.03.05-.038.038-.015.08-.015.113-.03l1.898-1.063c.026-.015.03-.053.053-.076.03-.023.07-.008.094-.038l1.692-1.596c.03-.03.023-.076.053-.102.015-.03.053-.015.068-.045l.9-1.418.368-.363c.03-.03.023-.08.05-.117.053-.068.12-.125.146-.216l.413-1.463.717-1.97 1.257-2.843c.004-.023.01-.03.015-.038l1.557-4.084.923-1.535v-.023h.008l.945-1.705h.004l.53-.953c.008-.015-.004-.03.004-.045s.03-.023.038-.045l.638-1.596c.004-.008-.004-.023 0-.03.004-.015.02-.015.023-.03l.844-2.768c.01-.03-.015-.068-.008-.095.004-.038.038-.06.038-.095l.1-2.643.1-2.023c.004-.03-.026-.053-.03-.08 0-.038.026-.06.023-.087l-.533-2.987c-.008-.023-.03-.03-.034-.045-.004-.023.01-.045.004-.06l-.953-2.874c-.01-.03-.05-.045-.064-.076s0-.068-.02-.095l-1.156-1.804-1.253-2.106c-.023-.038-.068-.038-.086-.068-.026-.03-.02-.076-.053-.102l-2.638-2.443c-.015-.015-.045-.008-.068-.023s-.023-.045-.045-.06l-2.536-1.596c-.015-.015-.034 0-.053-.008-.015-.015-.02-.038-.038-.045l-3.268-1.486c-.026-.015-.056.008-.08-.008-.03-.008-.04-.038-.068-.045l-3.906-.858c-.026 0-.045.015-.07.015-.026-.008-.04-.03-.068-.03l-3.058-.102h-.026c-.01 0-.02.008-.034.008-.008.008-.015-.008-.03-.008l-2.638.216c-.03.008-.045.038-.075.045s-.06-.023-.086-.008l-3.373 1.063c-.034.008-.045.045-.08.06s-.07 0-.1.023l-2.322 1.486c-.008.008-.008.015-.015.023s-.023 0-.034.008l-2.536 1.92c-.034.03-.034.076-.06.102s-.07.023-.094.06l-2.32 3.2c-.04.053-.023.117-.045.178-.023.053-.08.08-.1.14l-.525 3.184-.638 3.5c-.004.03.023.053.02.08s-.026.045-.026.076l.1 4.284c-.034-.008-.064.008-.094 0-.068-.008-.124-.06-.2-.053l-.844.102c-.083.008-.13.08-.206.1-.08.038-.17.038-.236.102l-.53.533c-.038.038-.03.095-.06.14-.026.038-.08.053-.098.095l-.32.745c-.026.06.008.1 0 .17s-.064.102-.06.17l.105 1.978v1.456l-.1 1.13c-.004.06.04.102.05.163s-.026.1-.004.17l.32.858c.008.023.03.038.04.06.008.015-.004.03.004.045l.43.783v.976c0 .08.06.125.08.2.02.068-.004.14.034.208l.66 1.063-1.178-.1-.038-.008c-.135-.015-.233.06-.34.1-.056.023-.12.008-.173.045l-.015.015-.03.023-1.294 1.006-.296.193c-.008.015-.01.015-.015.015l-.293.193-1 .503-6.922 3.384-10.025 4.254c-.015.008-.015.023-.03.03s-.026 0-.04.008l-6.858 3.827c-.015.008-.015.03-.03.038s-.034 0-.05.015l-4.326 3.2c-.015.008-.01.03-.026.045s-.038.008-.053.023l-3.272 3.2c-.015.015-.008.038-.023.053s-.038.015-.053.03l-2.3 3.06-1.035 1.146c-.026.03-.015.076-.038.102-.02.038-.064.038-.08.076l-.33.68-.855.597-.728.42c-.04.03-.05.08-.083.1s-.083.023-.116.06l-1.688 2.023c-.004.008 0 .015-.004.023s-.015 0-.02.008l-2.003 2.658-.987 1.187-.825.707c-.026.023-.023.068-.045.087-.023.03-.06.03-.08.06l-.424.635c-.015.023 0 .053-.015.076s-.04.03-.053.053l-.315.737c-.008.015.004.038 0 .06-.008.015-.03.023-.034.045l-.255.953-1.005.915c-.06.06-.06.14-.098.208-.04.076-.12.125-.135.216l-.056.287-1.298 1.2c-.008.015-.015.015-.02.023l-.63.635c-.02.023-.01.053-.03.076s-.05.023-.064.045l-.844 1.278c-.004.008 0 .015-.004.023s-.01.008-.015.015l-.74 1.278c-.015.023 0 .06-.01.08-.015.03-.05.038-.06.076l-.424 1.38c-.004.015.008.03.004.045s-.02.023-.023.038l-.315 1.596c-.004.023.01.038.01.053 0 .023-.023.038-.023.053l-.1 1.913c.008.023 0 .03 0 .038v3.513c0 .053.045.08.053.132-.008.03-.038.076-.023.12zm5.714-12.652h0l.034-.038c.034-.03.026-.08.053-.1.07-.095.15-.178.173-.295l.056-.287.98-.892c.034-.03.026-.08.056-.117.064-.076.14-.14.165-.242l.3-1.115.27-.635.33-.495.773-.688c.02-.015.01-.045.03-.06s.038-.008.05-.023l1.054-1.27c.004-.008 0-.015.004-.023l2-2.65 1.583-1.906.627-.363c.01-.008.008-.015.02-.023s.023-.008.034-.015l1.054-.737c.02-.015.015-.038.034-.053.08-.068.16-.132.2-.234l.37-.752.983-1.093c.008-.008.004-.023.01-.038.008-.008.023 0 .03-.015l2.3-3.044 3.197-3.116 4.247-3.13 6.764-3.774 10.002-4.24c.02-.015.026-.015.034-.023l1.497-.73-1.564.885c-.01.008-.01.023-.023.03s-.026 0-.038.008l-1.313.915-.593.295c-.03.015-.038.06-.064.076-.03.023-.064.008-.1.03l-1.373 1.176c-.01.015-.008.03-.023.045s-.03.008-.045.023l-1.264 1.38-2.626 2.75-2.187 2.1-1.662 1.486-.495.17c-.07.023-.094.087-.15.132-.056.038-.124.03-.17.08l-.7.813-.03.038c-.06.068-.05.155-.083.234-.034.087-.105.155-.105.257v1.494c0 .08.064.14.086.216s.004.155.053.23l.435.613.285 1.426.1.805c.015.1.1.185.146.28.03.053.023.117.068.163l.495.495-.236.605-.42 1.063c-.02.045.01.087 0 .14-.004.023-.023.038-.026.068l-1.246.295c-.026.008-.038.038-.064.045s-.053-.008-.08 0l-2.532 1.176c-.008 0-.008.015-.02.015-.008.008-.015 0-.023.008l-2.743 1.486c-.008.008-.008.023-.02.023-.01.008-.023 0-.034.008l-4.536 2.976c-.01.008-.01.03-.023.038s-.03 0-.04.015l-5.174 4.254c-.01.008-.008.023-.02.038-.008.008-.026 0-.038.015l-2.1 2.125c-.026.023-.02.068-.04.095s-.064.03-.08.068l-1.685 2.976c-.015.03 0 .06-.01.087s-.045.038-.056.068l-2.615 8.742-2.8 5.037c-.004.015 0 .023-.004.03-.004.015-.02.015-.026.03l-1.013 2.23-.762-1.64-.075-.318-.105-.805c-.008-.053-.056-.076-.07-.125s.008-.102-.02-.147l-.386-.696-.176-.526-.1-.416c-.01-.045-.06-.068-.08-.102-.02-.045 0-.087-.026-.132l-.36-.54-.278-.945-.214-.745c-.004-.015-.015-.015-.02-.03 0-.008.004-.015 0-.03l-.266-.715v-3.377l.098-1.815.3-1.512.4-1.263.68-1.168.792-1.202.582-.582 1.418-1.335zm77.756-34.893l-1.253 2.843c-.004.008.004.015 0 .023s-.015.015-.02.023l-.735 2.015c-.004.015.004.023.004.03-.008.015-.02.015-.023.03l-.368 1.293-.285.28c-.023.023-.015.06-.034.08-.02.03-.056.03-.07.053l-.9 1.403-1.568 1.478-1.733.976-1.4.405c-.008 0-.01.015-.023.015 0-.023-.015-.045-.015-.068 0-.06.038-.102.023-.163-.015-.053-.068-.068-.083-.1a.62.62 0 0 0-.158-.216c-.075-.076-.146-.125-.248-.155-.045-.023-.068-.068-.1-.076l-1.898-.318c-.015 0-.023.008-.038.008-.008 0-.015-.015-.026-.015l-1.05-.087-.25-.193c-.05-.038-.1-.015-.165-.045-.053-.023-.08-.08-.14-.087l-2.06-.42-.908-.302c-.045-.015-.08.015-.124.015-.04-.008-.068-.053-.1-.053-.064 0-.1.053-.16.068-.094.03-.176.053-.255.1s-.128.125-.184.216c-.03.053-.1.076-.1.132-.015.038.015.076.008.117s-.05.076-.05.117v.42c0 .038.034.053.034.087.015.095.06.163.105.25s.083.17.165.23c.023.023.023.06.053.076l1.685 1.063c.034.023.075.023.1.038.023.008.026.03.05.038l1.898.643a.85.85 0 0 0 .233.038h.004c.038 0 .075 0 .1-.008l1.482-.216c.004 0 .008-.008.015-.015.023 0 .045 0 .068-.008l.146-.038-1.05.8-1.602.953h-1.276c-.03 0-.045.023-.075.03-.04 0-.075.008-.116.015-.02.008-.038-.008-.06 0l-.188.068h-.105l-.323-.087c-.008 0-.015.008-.023.008-.01-.008-.015-.015-.023-.015l-1.943-.393-1.55-1.176c-.008-.008-.02 0-.026-.008-.008 0-.008-.015-.015-.023l-2.375-1.558-1.9-1.8-1.077-1.683-.908-1.928-1.024-3.6-.57-3.766c.02 0 .038.008.053.008a.73.73 0 0 0 .446-.155l.173-.125-.098.93c-.008.087.053.155.075.234.023.095.023.2.08.28s.146.102.233.155c.08.045.124.125.218.147.023 0 .04 0 .06.008.038 0 .06.008.1.008h0c.01 0 .015-.008.026-.015.173 0 .33-.068.458-.17.045-.045.056-.102.086-.155.068-.087.143-.163.165-.272l.315-1.596.4-2.23 1.658-3.146 2.96-2.193 4.04-1.936 5.425-.518h3.362l4.483 1.025 3.16 1.543.495 1.085.473 1.8-.2 1.603-.5 1.72-1.576 4.118zm-13.124 29.94l1.07.54 1.047.768.702.885.78 2.163.405 1.936.195 2.363-.705 2.643c-.004.008.008.023.004.03-.004.015-.015.023-.02.03l-.293 1.66-.23.386-9.05 12.202c-.03.038-.01.08-.03.117s-.068.053-.08.095l-.3.915-.762 1.65-1.34-3.05c-.004-.015-.023-.015-.03-.03s.004-.03-.004-.038l-2.22-3.944-1.44-2.496-.47-1.323-.315-5.316-.308-4.942 1.294-.465c.034-.008.045-.053.08-.068.038-.023.083-.015.124-.045l1.643-1.248 2.1-1.373 1.793-1.176c.02-.015.02-.038.038-.053s.05-.008.07-.03l1.576-1.486 1.347-1.153c.023-.015.015-.045.038-.06.015-.023.045-.015.06-.03l.28-.348 1.066.08 1.872.216zm-5 37.665c.004.008-.004.023 0 .03l2.536 4.674c.008.015.026.023.038.038.004.008 0 .023.004.03l1.35 1.993v.008l1.02 1.64.473 1.248.2 1.146.1 2.82c0 .045.038.068.045.102s-.023.076-.008.1l.413 1.24.214.752c.01.03.034.038.04.06.068.155.165.272.3.355.02.015.02.038.038.045l2.848 1.486a.71.71 0 0 0 .345.087h.983l.3.265-.1.427-.195.386-.792.068-2.68-.208c-.064-.008-.1.045-.16.053-.053.008-.098-.03-.15-.008-.04.015-.05.06-.083.076a.64.64 0 0 0-.233.216c-.06.08-.086.147-.113.234-.01.053-.06.08-.064.132s.04.095.05.147-.026.102-.008.163l.53 1.486c.01.03.034.038.05.06.023.053.06.08.1.125.08.102.173.185.3.23.03.015.04.053.075.06l2.88.828 1.482.798 2.776 1.868 1.497 1.233v.265l-.398.363-.762-.193-.52-.355c-.026-.015-.06 0-.086-.015-.086-.053-.176-.053-.278-.06-.094-.008-.176-.015-.263.008-.03.015-.064-.008-.094.008l-.743.333-1.673-.28h-.008l-2-.318-2.007-.325c-.023 0-.038.015-.06.015s-.038-.023-.06-.023h-1.197l-1.04-.526-.795-.597c-.015-.015-.045 0-.06-.015-.086-.053-.176-.053-.274-.068-.098-.023-.18-.053-.278-.03-.026.008-.045-.008-.07 0-.08.023-.1.102-.173.147s-.143.053-.195.117c-.015.015-.004.045-.015.068-.056.08-.056.17-.075.272-.015.095-.045.185-.02.28.004.023-.01.045-.004.068l.1.318c.023.068.08.102.116.163.023.038.008.08.038.1l1.054 1.176c.026.023.068.015.094.038.03.03.03.068.06.087l.7.442-1.122.06-.503-.363-.904-.813-1.287-1.093-.675-1.168c-.02-.03-.053-.03-.07-.053-.02-.03-.008-.06-.03-.08l-1.17-1.278v-.548a.76.76 0 0 0-.221-.541l-.364-.363-.154-.866v-2.7h-.004l.1-3.827.2-.892c.01-.053-.026-.095-.026-.147s.04-.095.034-.147l-.214-1.27c-.008-.053-.06-.08-.075-.125s.004-.095-.023-.14l-.63-1.063c-.015-.023-.045-.023-.06-.045s-.008-.053-.026-.068l-.825-.938-1.9-2.43-3.152-4.13-1.358-2-.008-.008-3.56-5.074-1.775-3.06-.53-.953-2.176-4.174-1.234-3.936-.623-3.448-1.37-8.803-.3-3.377-.1-2.5c0-.015-.015-.023-.015-.038s.004-.03 0-.053l-.3-1.72-.304-2.038v-2.178l1.024.287 2.746.858 3.167 1.233L145.58 232l1.257 1.078.296.363-.08 1.403c-.004.023.015.038.015.053 0 .023-.015.038-.015.053l.214 2.658c0 .015.02.03.023.045s-.015.03-.01.045l.1.48.315 4.95.315 5.422c.004.045.04.068.053.102s-.023.076-.008.1l.53 1.486c.01.03.038.038.053.068.008.015-.004.038.008.06l1.478 2.556 2.187 3.883 1.992 4.55h.004l2.945 7.112c.02.02.034.026.04.042zm-8.033 20.73l-5.38.73-6.382-.1-3.414-.193-.32-.45c-.053-.068-.15-.08-.22-.132-.1-.06-.165-.147-.27-.163l-5.594-.866c-.098-.008-.173.045-.26.06-.1.03-.22.023-.3.095l-.8.65-1.715-.257-2.574-.798-1.632-1.255-.867-1.047-.158-.858.184-1.403.165-.503.233-.393 2.154 3.16a.74.74 0 0 0 .484.318l6.456 1.165 1.887.318c.026.008.053.008.08.008h.008c.01 0 .023.008.034.008h0l10.505.628c.015.008.026.008.04.008h0c.04 0 .08-.008.116-.015l4.645-.737 4.555-.858c.023-.008.038-.038.06-.045.068-.015.13-.015.188-.053l3.58-2.155-.068 2.556-.004.015v.93l-5.395 1.633zM115.2 262.987l-2.577-.208c-.083-.023-.128.045-.2.053-.053.015-.098-.023-.146 0l-1.7.7-2.555.397-3.103-.3-1.928-.673-1.002-.605-1.696-1.108-1.47-1.58-.8-1.316c-.008-.015-.03-.015-.04-.03s-.004-.038-.015-.053l-.66-.813 1.384-3.06 2.83-5.074c.01-.023 0-.045.008-.076s.045-.045.056-.076l2.615-8.742 1.6-2.806 2.015-2.038 5.117-4.2 4.5-2.946 2.664-1.448 2.457-1.138 1.68-.397 1.497-.302 1.925.095 1.388.465 1.895 1.2 1.14.96.844 1.218.788 2.1.304 1.528c.004.023.023.03.03.053.004.015-.008.03-.004.045l.214.635c.01.045.053.06.07.095.01.03 0 .06.015.087l.424.635c.023.038.07.023.094.053.034.038.034.095.075.132l.135.102.1 2.2c.008.023.004.03.004.038l.308 3.3-1.88 10.74c-.004.03.015.045.015.068 0 .03-.026.045-.026.068v8.44l-.383 2.1-1.07 1.433-.53.302-4.566 1.433h-7.18l-.552-1.433c-.01-.015-.01-.023-.01-.023l-1.478-3.4c-.01-.03-.053-.038-.07-.068s-.004-.068-.026-.095l-2.22-2.843-2.596-10.795a.73.73 0 0 0-.908-.552.75.75 0 0 0-.552.907l2.638 10.958c.015.068.07.102.1.163.023.038.008.087.038.125l2.262 2.904 1.028 2.37-2.285.1zm11.578-48.558c.008-.015.015-.015.02-.023l2.22-2.125c.01-.015.02-.015.023-.023l2.638-2.76 1.25-1.357 1.26-1.078.552-.272c.015-.008.02-.03.034-.045.02-.008.04 0 .06-.015l1.343-.938 1.632-.93 1.444-.722 1.775-.737c.015-.008.015-.03.03-.03.146-.076.274-.178.353-.333l.416-.843 1.336-.665.54.265.74 1.115c.01.023.038.015.05.03s.004.045.023.06l2.195 2.424 1.73 2.148.795 1.698 1.118 3.184.585 3.532-1.895 3.706c-.026.053 0 .102-.015.155s-.064.08-.068.132l-.206 2.55-.488 1.278c-.01.038.01.068.004.095s-.045.053-.05.08l-.53 4.144-.364 3.426-.837-.715c-.02-.015-.05-.008-.075-.023s-.023-.045-.045-.06l-2.85-1.596c-.02-.015-.038 0-.056-.008s-.02-.03-.038-.038l-3.268-1.27c-.008-.008-.015 0-.023 0-.01-.008-.01-.015-.023-.023l-2.743-.858-1.842-.5-1.898-1.013-1.77-1.153c-.026-.015-.06 0-.086-.015s-.034-.045-.064-.06l-2.007-.737c-.02-.008-.034.008-.056 0s-.023-.03-.045-.03l-2.424-.533c-.03-.008-.053.015-.08.015-.03-.008-.05-.038-.08-.038h-1.632l.22-.552c.02-.053-.01-.095 0-.14a.7.7 0 0 0-.004-.28c-.02-.102-.045-.178-.1-.257-.026-.045-.02-.095-.056-.132l-.214-.223-.45-.458-.075-.6c0-.008-.01-.015-.01-.023s.008-.015.004-.03l-.32-1.596c-.01-.053-.068-.08-.086-.132s-.004-.1-.038-.155l-.4-.552v-.96l.416-.48.45-.155c.05-.015.064-.068.105-.087.05-.03.105-.023.15-.06l1.8-1.592zm26.536-1.713c.015.015.045.008.064.023s.02.045.04.06l2.416 1.588 1.655 1.255c.064.045.135.045.203.068.04.023.06.068.1.076l1.463.287-.056.813-.304 2.046-.413 1.66c-.004.008 0 .015 0 .023l-.206.998-.514 1.123-.075.06h-.285l-.7-.715-1.28-1.588-.998-2.216-.837-2.518-.004-.015-.62-1.766-.642-2.2.998.938zm6.427 14.985c-.038.03-.04.08-.075.1-.038.038-.1.038-.12.08l-.518.73-.6.696c-.008.008-.01.008-.015.015l-.5.597-1.313 1.123c-.015.015-.023.015-.03.023l-1.534 1.44-1.737 1.138h-.004l-2.1 1.373c-.008.008-.008.015-.015.023s-.02 0-.03.008l-1.587 1.2-.867.318-.135-1.66.098-1.656.53-4.96.514-4.038.495-1.3c.015-.038-.01-.076-.004-.1s.05-.06.053-.102l.2-2.503.814-1.596-.08 2.1c0 .08.06.132.075.2.02.076-.008.147.03.216l1.047 1.804 1.054 1.906c.02.038.068.023.086.053.03.045.026.102.068.14l1.054.96c.038.038.086.03.124.053s.045.068.08.08l1.482.635a.68.68 0 0 0 .293.068.73.73 0 0 0 .214-.038l1.054-.3c.083-.03.124-.102.2-.155.053-.038.124-.03.17-.08l.634-.745.004-.008 1.054-1.27c.03-.038.015-.08.038-.117.038-.06.094-.095.1-.17l.323-1.168c0-.023 0-.023.004-.03l.53-2.23c.004-.015-.008-.023-.004-.038s.015-.023.02-.038l.506-3.887.146.102.78.877c.004.008.01.008.02.008.004.008 0 .015.008.023l.023.023.075 1.025-.3 2.48c-.004.008.01.015.008.03 0 .008-.01.015-.01.023l-.1 1.993-.203 2.208-.428.96-.5.582-1.178.8zm-4.24-2.9l-.867-.8-1.005-1.82-.945-1.626.094-2.48.23.688c.004.015.023.023.026.038s-.004.023.004.038l1.054 2.34c.015.038.056.06.08.087.01.023 0 .053.02.076l1.373 1.698c.008.015.026.008.034.015.01.015.008.038.02.045l.95.96a.75.75 0 0 0 .533.223h.788l-.195.23-.495.582-.578.178-1.114-.484zm-8.254-25.058l-.075-.287c.064-.023.128-.015.188-.053l.034-.023.13.87-.278-.507zm-9.777 52.858c.004.015.023.023.026.045.004.015-.008.03-.004.045l1.264 4.038c.008.03.038.045.05.068s-.004.038.004.06l1.512 2.896-5.264-.907v-7.812l1.103-6.292.672 4.33c.004.015.004.015.004.023l.634 3.505zm14.07 23.928h0l1.906 2.45c.004.008.015.008.023.015s0 .015.008.023l.754.858-3.362-2.303c-.02-.015-.04 0-.056-.015-.086-.053-.18-.045-.278-.06-.094-.008-.176-.038-.266-.015-.023.008-.04-.015-.064-.008l-2.214.768-.687-4.57.57-2.008.47.688c.004.008.01.008.02.008.004.008 0 .023.008.03l3.17 4.14zm-1.05 8.4l-3.354.635.915-5.732 2.285-.8 4.543 3.116-.034.14-4.356 2.632zm-19.36.93l-.74-.125 1.557-2.394 5.98.287 2.075 2.76-8.873-.53zm10.78.567l-2.998-4.004c-.008-.008-.023-.008-.034-.015-.06-.076-.154-.095-.236-.14-.086-.053-.158-.117-.26-.125-.01 0-.02-.015-.034-.015l-6.757-.318c-.03 0-.056.03-.086.03-.113.015-.2.06-.3.117-.07.038-.13.068-.188.125-.03.03-.075.03-.098.068l-2.15 3.3-5.64-1.025-2.57-3.774c-.026-.038-.075-.038-.105-.068-.03-.038-.026-.087-.064-.1-.038-.03-.086-.015-.13-.038-.038-.023-.053-.068-.094-.08l-1.546-.488-.964-.8-.083-.132-.15-.526v-.82l.424-1.123.848-.938.214-.08 2.54.087 2.334 2.053c.143.125.315.193.5.193h1.793a.74.74 0 0 0 .18-.023l4.64-1.168c.045-.015.064-.06.105-.08.06-.023.124-.023.176-.06l4.855-3.834c.01-.008.008-.023.02-.03.03-.023.04-.068.064-.095.034-.038.075-.068.1-.1.015-.03.023-.06.034-.087s.038-.038.045-.068l.657-2.4.78.17c.01.008.023.008.038.008l.476.076-1.066 2.96-1.782 4.326c-.015.038.008.076 0 .1a.64.64 0 0 0 0 .28c.01.095.026.178.08.265.02.03.004.076.03.102l1.264 1.596c.02.023.053.015.07.038.143.14.3.25.514.25a.65.65 0 0 0 .263-.053l4.22-1.596c.008 0 .008-.008.015-.015.01 0 .023 0 .034-.008l2.746-1.27c.08-.038.1-.117.16-.178.075-.068.158-.117.2-.216.038-.087.02-.178.02-.28 0-.08.045-.163.02-.25l-1.276-3.92 2.078 1.8.784 5.237-1.054 6.58-3.662.6zm-14.782-20.23a.71.71 0 0 0 .22-.038l4.75-1.486c.02-.008.026-.03.045-.038s.038-.008.053-.015l2.487 7.158-4.3 3.388-4.405 1.108h-1.418l-2.322-2.046c-.064-.053-.15-.045-.22-.076-.083-.038-.146-.1-.244-.1l-2.15-.08.01-.1.188-1.138.465-.843c.004-.023.008-.023.01-.03.045-.087.01-.178.02-.265.01-.102.053-.2.023-.295s-.116-.155-.18-.23c-.034-.045-.053-.087-.1-.117.045-.053.056-.1.086-.17a.67.67 0 0 0 .075-.265c.004-.053.05-.095.04-.147l-.083-.73.2-.405.3-.5c.038-.068.01-.132.03-.208.02-.068.08-.1.08-.185v-.526l.07-.223.135-.068c.086-.038.113-.132.173-.2.068-.068.154-.117.188-.208s.008-.193.004-.287.038-.178.004-.265l-.14-.348h5.883v.008zm14.523 4.398l1.756 5.4-2.1.976-3.703 1.395-.645-.82 1.62-3.944c.004-.015.01-.023.01-.03l1.167-3.248 1.895.272zm-4.937-2.352l3.23-4.07-2.43 4.246-.8-.178zm-1.745-.22l-1.512-4.364 1.024-1.373c.03-.045.015-.095.038-.147.03-.06.086-.102.1-.17l.293-1.6 5.4.938-5.343 6.727zm11.173 4.27l-3.043-2.62 1.137-3.24 2.54 3.626-.634 2.235zm-4.423-3.222l-2.35-.333-.28-.045 3.136-5.47.964 1.66-1.47 4.2zm-7.305-40.996c0 .015-.015.023-.015.038v.715l-.13-.348c-.01-.038-.05-.045-.068-.076s0-.068-.02-.087l-.953-1.38c-.015-.023-.04-.015-.06-.038l1.28.68-.05.45c.004.02.02.03.015.045zm13.236-40.02l.52 1.316c.015.015.008.023.01.03l.942 2.106.233.62-.386 1.913c-.004.023.01.038.01.053s-.023.03-.023.045l-.206 2.775-.098.302-.296-.053c-.015.008-.02 0-.023 0l-.4-.06-.754-1.2v-.953c0-.076-.056-.117-.075-.178-.015-.068.01-.132-.023-.193l-.503-.907-.236-.643.1-1c0-.015-.01-.023-.01-.038s.015-.023.015-.038v-1.494c0-.008-.01-.015-.01-.023l-.086-1.853.2-.45.248-.25.375-.045.484.216zm-2.003 10.977c-.004.03-.004.053-.004.08-.01.087-.064.17-.038.265l.214.843c.008.038.045.06.06.095s-.004.06.008.087l1.163 2.125.825 1.456.308.866-.315-.393c-.004-.008-.02-.008-.023-.015s-.004-.015-.008-.023l-2.17-2.394-.822-1.24c-.004-.008-.015-.008-.02-.008-.004-.008 0-.015-.004-.023l-.293-.397-.266-.465 1.14-.885.24.026zm-5.45 3.07l-1.054.442 1.103-.54-.05.098zm39.705 53.02c.01.015.008.023.008.023l1.167 3.72 2.84 8.6.308 1.543c.01.045.056.076.07.117s-.004.076.015.102l.345.613.1.7c.015.102.086.178.14.257.03.053.02.117.064.163l2.214 2.34 1.808 1.826c.015.015.038.008.053.023.02.008.01.038.03.045l2.88 2.178 1.782 2.288.777 1.565.165.783-.124-.348c-.02-.053-.08-.076-.1-.117-.03-.053-.023-.1-.064-.155l-.945-.953c-.038-.038-.086-.03-.128-.06-.08-.053-.158-.08-.255-.102s-.176-.03-.27-.008c-.05.008-.1-.023-.14-.008-.053.023-.07.08-.116.1s-.1.023-.15.068c-.038.038-.026.087-.056.125-.056.08-.08.155-.1.257-.023.095-.03.178-.008.28.008.045-.023.087-.008.132l.308.828.22.813h-.13l-.206-.37c-.015-.023-.045-.023-.06-.045s-.008-.053-.023-.068l-1.268-1.494c-.015-.023-.038-.015-.053-.03s-.015-.045-.034-.06l-1.358-1.16-.83-.836-.16-.318c-.008-.023-.03-.023-.038-.038-.053-.08-.13-.117-.2-.178s-.143-.132-.244-.163c-.015 0-.023-.023-.04-.023l-1.163-.216c-.023 0-.023-.008-.03-.008-.068-.008-.1.038-.176.045-.14.015-.27.015-.383.102-.023.015-.023.053-.045.076-.1.1-.214.23-.24.393 0 .023-.008.023-.008.03l-.1.745c-.015.08.04.147.056.23s-.015.17.03.242l.506.915.548 1.293-.1 1.176-.176 1.426-.02.023-.34-.117-.627-.628-.083-1.202c0-.038-.034-.053-.038-.087s.015-.06.008-.087l-.424-1.38c-.015-.045-.068-.06-.086-.102s-.004-.087-.03-.125l-1.238-1.66-.9-1.52-1.67-4.3c-.01-.03-.05-.038-.068-.068s0-.068-.023-.095l-.762-1.063-.214-.783.214-.495c.008-.023-.008-.038 0-.06.038-.087.01-.185.008-.287-.008-.095.008-.185-.038-.272-.008-.015.004-.038-.008-.06l-5.913-10.413-.83-1.766c-.008-.008-.023-.015-.026-.023-.008-.015 0-.023-.004-.038l-2.1-3.6L168 247.01l-.597-1.2-.465-1.7.28-1.588.728-2.75c.01-.045-.023-.087-.02-.132s.045-.076.04-.125l-.2-2.55c0-.023-.02-.03-.023-.045 0-.023.015-.03.008-.053l-.424-2.023c0-.023-.023-.03-.03-.045-.008-.023.008-.038 0-.06l-.844-2.333c-.015-.045-.06-.06-.08-.095s-.008-.08-.038-.117l-.844-1.063c-.023-.03-.068-.03-.086-.053-.03-.03-.026-.068-.06-.087l-1.167-.858c-.02-.015-.045 0-.068-.015-.015-.008-.02-.038-.038-.045l-1.268-.635c-.045-.023-.086 0-.13-.015s-.075-.06-.124-.068l-2-.216c-.023.008-.023 0-.026 0h-.04l.206-.295 1.144-.768c.038-.023.038-.068.068-.095s.068-.008.086-.038l.638-.745c.015-.023.008-.06.023-.08.03-.038.07-.06.086-.102l.53-1.176c.02-.038-.008-.076.008-.117s.056-.076.06-.117l.214-2.333c0-.008-.008-.015-.008-.023l.1-2.015.3-2.518c.004-.03-.02-.053-.02-.076 0-.03.023-.053.023-.076l-.1-1.38c-.01-.155-.094-.272-.176-.393-.023-.023-.015-.06-.038-.08l-.008-.015c-.023-.015-.034-.03-.053-.053l-.154-.155-.398-.45 1.096-.65.105.178.506 1.218.848 1.936h.004l1.035 2.605.837 2.318.717 2.58.52 2.85c.008.023.023.03.026.045s-.008.03-.004.045l.74 2.44c.004.008.015.015.015.023v.023l.3.843 1.054 2.983c.004.015.026.023.034.038s-.008.03 0 .038l2.003 4.144c.01.03.04.045.06.068.01.015.004.038.015.06l2.803 3.774 2.367 5.074 1.775 6.424zm-12.64-49.254l-.188-1.83c-.037-.355-.366-.574-.735-.587-.366.04-.638.355-.604.714l.185 1.796-.07 1.694-.832.254-.906-.34-.57-.476c-.282-.24-.708-.202-.946.065a.64.64 0 0 0 .07.922l.66.547c.034.033.077.026.117.046.034.02.04.06.077.068l1.225.46c.077.033.164.046.242.046.067 0 .134-.007.2-.033l1.507-.46c.05-.013.07-.065.107-.088.084-.046.148-.088.205-.16.054-.065.07-.127.094-.202.017-.052.064-.08.064-.14l.097-2.196c0-.02-.02-.033-.02-.046.003-.023.023-.036.02-.055z"/><path d="M268.438 219.152l2.243 2.037c.068.064.16.06.238.09.064.026.095.083.163.094l.745.106.106.008c.064 0 .12-.008.185-.023l.34-.083h.325a.76.76 0 0 0 .757-.756v-.745c0-.087-.064-.144-.09-.223s-.008-.16-.057-.227l-2.25-3.05.068-.01c.08-.015.125-.083.193-.12.09-.05.178-.076.242-.15s.076-.163.102-.253c.03-.08.09-.132.09-.22v-1.062c0-.023-.023-.038-.026-.057s.023-.038.015-.06l-.96-6.274c0-.023-.023-.03-.03-.053s.01-.038.008-.057l-2.115-6.848-3.605-23.87c0-.01-.015-.02-.015-.03s.008-.023.004-.034l-1.918-7.86c-.008-.038-.05-.053-.064-.083s.008-.072-.01-.102l-5.958-10.74c-.02-.038-.068-.042-.09-.076s-.015-.076-.045-.102l-3.193-3.076c-.03-.026-.068-.02-.095-.042-.034-.023-.038-.064-.072-.08l-5.534-2.974c-.026-.015-.057.004-.083-.008s-.042-.053-.076-.06l-2.338-.64c-.034-.008-.068.02-.098.015-.038-.008-.06-.042-.098-.042h-.987l-.688-.344c-.06-.03-.117 0-.174-.01-.064-.02-.098-.072-.166-.072h-.235c-.015-.087-.068-.15-.1-.23-.053-.087-.087-.163-.166-.227-.026-.023-.026-.06-.057-.08l-.068-.038.1-.08c.02-.015.02-.045.038-.064.076-.064.155-.12.204-.22l.02-.034c.02.004.03.023.053.023s.03-.02.053-.023c.023.004.038.023.057.023h.212c.023 0 .034-.023.053-.023s.038.023.06.023.03-.02.053-.023c.02.004.03.023.053.023s.03-.02.053-.023c.023.004.038.023.057.023.22 0 .4-.094.545-.238.083-.05.166-.072.23-.144.015-.015.045-.01.068-.026.008-.02.02-.02.023-.023l.083-.087.155-.053.306-.098c.026-.008.034-.042.06-.053.038-.02.083-.01.12-.038l.318-.212.33-.227c.023-.015.02-.042.038-.057s.045-.008.06-.026l.163-.155.265-.18.314-.212.235-.155.235-.08c.06-.02.08-.08.125-.113.057-.03.12-.023.166-.068l.374-.374.242-.166.325-.212c.026-.015.023-.053.045-.072s.06-.008.08-.03l.166-.163.25-.174a.76.76 0 0 0 .295-.397l.03-.083c.03-.023.045-.06.076-.083.034-.038.09-.023.12-.068l.216-.314.22-.325c.023-.03.008-.064.023-.09.015-.038.057-.057.068-.094l.102-.3.087-.26.083-.17c.01-.02-.004-.038.004-.057s.03-.03.038-.053l.102-.317c.015-.042-.015-.08-.008-.117s.05-.072.05-.113v-.5c0-.064-.053-.094-.068-.15s.02-.117-.01-.178l-.102-.215c0-.008-.01-.008-.015-.015l.303-.215c.03-.02.026-.057.053-.08s.06-.015.08-.038l.85-.952.85-.956c.004-.008.004-.015.008-.023s.01 0 .02-.008l.855-1.062c.01-.015.004-.034.015-.05s.026-.008.034-.02l.74-1.172c.01-.015 0-.034.008-.05s.034-.026.042-.05l.533-1.175c.008-.008 0-.015 0-.023.008-.01.023-.015.023-.026l.427-1.168c.004-.015.008-.02.008-.023l.427-1.274c.008-.023-.01-.042-.008-.064s.03-.034.034-.057l.212-1.277.216-1.27c.004-.023-.015-.042-.015-.064s.026-.038.026-.064v-1.886l.96.064.715 1.005v2.555l-1.036 5.718-.897 2.42-1.61.34c-.026.008-.042.038-.068.045-.098.034-.166.094-.246.17-.076.064-.14.1-.182.197-.01.03-.05.038-.06.068-.026.072.01.136.008.212s-.057.132-.042.208c.008.034.042.053.053.08.023.072.068.117.1.178a.72.72 0 0 0 .238.227c.034.015.042.057.08.072l.33.12c-.026.053 0 .117-.01.178-.008.023-.03.042-.03.068l-.33.144c-.05.023-.06.076-.098.102-.083.06-.136.113-.193.2-.045.068-.087.113-.106.19-.08.02-.1.083-.174.117-.087.053-.163.083-.23.166-.06.08-.08.16-.102.253-.023.072-.08.12-.08.197 0 .034.03.057.038.087 0 .03-.023.057-.015.083.023.09.09.15.144.227.034.057.05.1.095.15.136.125.306.208.496.208h.227c-.01.08.03.147.045.227.015.09-.008.185.045.265l.015.023.605.986-.647 1.213c-.034.06-.004.12-.02.185s-.072.102-.072.17c0 .042.042.068.045.106.015.098.057.174.106.257s.095.155.178.215c.03.023.038.072.076.087a.74.74 0 0 0 .356.087h.85a.75.75 0 0 0 .462-.159l.96-.737c.008-.004.004-.015.01-.02s.02-.004.026-.01l1.702-1.49c.015-.015.01-.038.026-.05s.034-.008.045-.023l.71-.813.813-.71c.026-.023.02-.057.042-.08.015-.02.05-.01.068-.034l.386-.514-.053.1-.37.556-.507.6c-.042.05-.026.113-.057.17-.045.09-.08.17-.08.272-.008.098.015.174.05.268.02.064-.004.128.034.185.023.03.068.023.087.05.03.034.023.083.06.117.144.117.318.178.488.178a.78.78 0 0 0 .412-.121l.318-.208c.03-.02.026-.057.053-.076s.057-.01.076-.034l.212-.215c.02.102.087.166.136.25s.057.174.13.234c.01.008.026.004.034.01s.008.02.02.026a.75.75 0 0 0 .42.128c.223 0 .44-.094.6-.283l.855-1.062c.01-.015.004-.034.015-.05.015-.026.045-.038.06-.064l.632-1.16.72-1.13c.015-.023.004-.045.015-.068.015-.034.05-.05.06-.08l.427-1.172.42-1.172c.004-.023.01-.026.015-.034l.427-1.38c.004-.02-.01-.034-.008-.053s.026-.03.03-.053l.212-1.277c.004-.01-.01-.023-.008-.034s.015-.02.015-.03l.106-1.38c0-.01-.008-.02-.008-.03s.01-.02.01-.03v-1.277c0-.01-.01-.02-.01-.034s.008-.02.008-.03l-.106-1.277c0-.01-.01-.015-.01-.026s.008-.015.008-.026l-.216-1.38c0-.015-.015-.02-.02-.034s.01-.023.004-.038l-.08-.336h.624a.76.76 0 0 0 .757-.756v-.166h1.903c.182 0 .344-.08.48-.2.045-.038.064-.08.098-.128.045-.06.106-.098.132-.174.015-.045-.015-.083-.008-.132s.053-.076.053-.12c0-.06-.053-.098-.068-.155-.023-.098-.045-.174-.102-.257a.7.7 0 0 0-.208-.185c-.053-.034-.068-.094-.125-.113l-2.63-.94-3.125-1.595 3.08-1.024c.13-.042.2-.15.284-.246.034-.034.083-.02.1-.06l1.173-1.8c.034-.053.01-.113.03-.174.038-.094.06-.174.053-.272s-.034-.178-.076-.265c-.03-.057-.01-.12-.053-.17-.03-.038-.08-.034-.1-.064s-.034-.08-.072-.098c-.053-.034-.113-.01-.17-.03a.68.68 0 0 0-.284-.057c-.095.008-.166.038-.253.08-.057.026-.12.01-.174.053l-.87.7.866-1.924c.038-.08 0-.16.008-.238.008-.098.038-.185.008-.28s-.095-.15-.163-.23c-.05-.064-.06-.15-.132-.197-.02-.01-.038 0-.06-.01s-.023-.034-.042-.045c-.08-.034-.15.004-.23-.008-.106-.01-.197-.038-.295-.008-.09.03-.15.098-.227.16-.064.053-.148.064-.197.136l-.48.745.034-.12c.023-.076-.023-.136-.023-.208 0-.098.008-.185-.03-.276s-.095-.147-.166-.223c-.05-.053-.064-.128-.13-.166-.03-.02-.068 0-.095-.01s-.038-.05-.068-.057c-.072-.023-.132.023-.2.023-.102-.004-.19-.008-.28.03s-.155.098-.23.17c-.05.05-.125.06-.163.125l-.764 1.334-2.14 1.43-3.71 1.138-2.107.457-.257-.155-.204-.82c-.004-.02-.026-.026-.034-.042s.01-.034.004-.053l-.533-1.38c-.004-.008-.01-.008-.02-.015 0-.01.008-.02 0-.026L254 120.924c-.008-.026-.045-.03-.057-.057s-.004-.053-.02-.076l-.844-1.168-.745-1.062c-.023-.026-.057-.026-.08-.05s-.015-.06-.042-.08l-1.03-.926-.946-.94c-.02-.02-.045-.01-.068-.026-.015-.015-.015-.042-.034-.057l-1.052-.74-1.176-.85c-.023-.02-.057-.004-.08-.02s-.03-.05-.057-.06l-.957-.423c-.02-.004-.02-.008-.023-.01l-1.063-.427c-.02 0-.023-.008-.023-.008l-1.176-.427c-.008-.004-.015.004-.026 0s-.01-.01-.02-.015l-1.063-.314c-.01-.004-.023.008-.03.004-.015-.004-.023-.02-.034-.023l-1.063-.22c-.02-.004-.03.01-.045.01s-.026-.023-.042-.023l-1.16-.102-1.063-.102c-.015 0-.023.01-.038.01s-.023-.015-.038-.015h-1.176c-.015 0-.023.015-.038.015s-.023-.01-.038-.01l-1.063.102-1.16.102c-.015 0-.023.015-.038.02s-.023-.01-.038-.008l-1.17.22c-.03.004-.042.034-.068.042s-.053-.01-.08 0l-.454.18c-.045-.045-.1-.05-.163-.08s-.08-.094-.14-.113l-.163-.48c-.02-.06-.08-.08-.1-.125-.03-.053-.02-.1-.06-.155l-4.445-4.65-.484-1.636c-.015-.053-.068-.072-.09-.117a.73.73 0 0 0-.174-.215c-.08-.068-.148-.102-.246-.136-.05-.015-.08-.064-.13-.072-.053 0-.087.038-.14.045s-.098-.034-.155-.015c-.05.015-.068.068-.1.087l-.023-.026c-.01-.02-.038-.015-.053-.034-.064-.076-.148-.094-.235-.14-.09-.053-.17-.106-.272-.113-.02-.004-.034-.023-.053-.023-.083 0-.14.064-.216.087s-.163.008-.235.06c-.015.01-.015.038-.03.053-.08.064-.102.15-.15.242-.01.02-.026.038-.034.057l-.54-.722c-.038-.053-.102-.053-.148-.087-.08-.068-.14-.113-.235-.144s-.182-.034-.28-.023c-.064.004-.117-.034-.178-.015-.045.015-.06.064-.095.083s-.083.004-.117.03c-.053.038-.053.102-.09.15-.064.08-.1.14-.144.234s-.03.178-.02.276c.004.038-.015.072-.008.106l-.144-.042c-.038-.01-.068.02-.102.015-.106-.02-.193.008-.295.038-.087.023-.163.042-.235.094-.03.023-.08.015-.106.045-.053.053-.045.125-.08.185s-.095.08-.113.144c-.01.038.02.072.01.106-.015.098.008.18.034.28a.7.7 0 0 0 .106.249c.01.02.008.045.023.06l-.28.034c-.06.008-.09.064-.148.083-.106.038-.197.072-.272.147-.068.068-.095.136-.132.223-.03.06-.087.098-.102.17-.008.042.026.072.023.106-.02.01-.03.03-.053.042-.087.05-.163.083-.223.166-.068.08-.08.16-.1.257-.02.068-.08.113-.08.19 0 .034.034.057.038.087s-.023.06-.015.09c.023.09.09.147.144.223.038.057.053.106.095.15.14.12.306.204.496.204h1.86l.53.238-.33.08-.435.106c-.008.004-.01.015-.023.02s-.02-.008-.03-.004l-.303.098-.386.09c-.015.004-.02.02-.034.026s-.026-.008-.042-.004l-.318.1c-.015.008-.02.026-.038.034s-.038-.004-.053.004l-.424.215c-.015.008-.015.026-.026.034s-.03 0-.045.008l-.322.208c-.026.015-.026.05-.05.068s-.057.01-.08.034l-.514.518-.605.503c-.008.008-.008.023-.015.03s-.023.004-.034.015l-.533.533c-.02.02-.01.05-.03.072s-.05.023-.064.045l-.393.582-.477.476c-.026.026-.02.072-.042.098s-.068.03-.08.064l-.42.745c-.02.03 0 .064-.015.09s-.045.042-.053.072l-.208.707-.216.646c-.008.01.004.023 0 .034s-.015.01-.015.023l-.208.82-.208.612c-.01.042.015.08.01.12s-.05.072-.05.113v1.553l-.73 6.077-.095.37c-.008.034.015.064.015.094-.008.038-.042.06-.042.094v.423c0 .038.034.06.042.094s-.023.064-.015.094l.083.32v.552c0 .034.034.057.038.087s-.023.06-.015.09l.102.42c.01.053.06.08.083.125.015.038-.004.08.02.1l.163.242.072.215c.01.042.053.064.072.098s0 .064.02.09l.216.317c.015.02.045.01.06.034s.01.053.03.076l.272.276.174.25c.01.02.042.01.057.03s.008.053.03.076l.023.026-.004.02c-.008.034.02.06.015.087-.004.034-.038.057-.038.087v.457l-.09.457c-.01.06.03.106.034.166s-.042.106-.026.166l.083.33v.442c0 .03.026.045.03.072s-.02.05-.015.076l.087.454v.465c0 .03.026.05.034.08 0 .026-.023.05-.015.08l.1.533c.008.02 0 .023.004.026l.102.42c.008.034.042.05.053.08s-.008.053.004.076l.03.06v.038c.004.098.076.174.1.26.038.094.045.204.117.276l.09.087.09.102c.008.008.015.004.023.008 0 .008 0 .015.008.02l.1.106c.03.03.076.023.106.045s.038.072.076.087l.113.06.042.008.106.106c.02.02.05.01.068.03l-.064.094c-.023.042-.004.087-.023.128-.015.05-.068.072-.076.117l-.1.533-.106.544c-.004.026.02.05.015.076s-.03.042-.03.072v2.026c0 .034.034.057.038.087s-.023.057-.015.087l.08.336v.446c0 .064.057.102.072.166s-.02.117.01.174l.178.355.083.34c.008.02.026.03.03.05s-.004.03 0 .045l.197.49.098.378c.01.038.045.06.064.09.01.03-.004.06.01.083l.303.544-.333 3.44h-1.23a.76.76 0 0 0-.757.756v1.14l-.85.26c-.076.023-.102.09-.16.132-.064.038-.144.038-.197.094l-.636.737c-.06.076-.053.17-.08.253s-.098.147-.098.238v.865c-.053.026-.113.01-.163.053l-.74.635c-.008.008-.008.023-.015.03-.076.068-.087.166-.132.257-.026.064-.076.1-.087.174h-.23c-.155 0-.28.083-.397.166-.045.026-.095.015-.132.053l-.427.42c-.087.09-.1.227-.148.35-.015.05-.06.09-.06.144l-2.126.597c-.038.01-.05.053-.08.068s-.076-.004-.102.015l-4.358 2.657c-.045.026-.05.08-.083.113-.042.034-.095.03-.13.076l-3.3 4.354c-.023.023-.008.057-.023.08s-.045.026-.06.053l-3.193 6.693c-.015.03.008.06-.004.083-.01.03-.042.042-.05.072l-.96 4.142c-.008.03.02.057.015.083 0 .034-.034.053-.034.083v5.726l-.957 11.75c0 .01.01.02.008.03s-.01.023-.01.034v11.803c0 .026.026.042.026.068s-.015.042-.015.064l1.8 10.238v5.15c0 .057.05.083.057.136s-.023.098 0 .147l.374.926v1.76c0 .045.042.076.05.113.008.045-.023.08-.008.12l.42 1.28c.057.17.17.3.3.39.008.008.008.023.015.026l1.063.64c.023.01.042.008.06.015.008.008.01.02.023.023.098.05.208.072.3.072h2.31l.462 1.534.416 2.51c.015.08.076.12.106.19.023.045.004.098.042.144l1.38 1.807c.03.042.08.03.117.06.05.045.06.113.117.147l1.176.635.435.227a.76.76 0 0 0 .348.083h.745c.208 0 .397-.083.537-.227l.22-.22c.015-.015.008-.042.023-.057s.03-.008.045-.023l.318-.42c.03-.045.015-.098.038-.144.034-.072.068-.125.08-.2l.37.09a.8.8 0 0 0 .185.023.72.72 0 0 0 .314-.072l.235-.106.503 3.825v4.845c0 .026.026.042.026.068s-.02.045-.015.072l1.475 8.005v3.934l-.946 7.28c-.004.045.03.08.034.117 0 .045-.038.08-.026.125l.636 3.2c.004.03.038.05.05.076s-.01.053 0 .076l3.787 8.93.832 7.876-1.052 7.99c-.004.02.015.034.01.05 0 .023-.02.034-.02.053v4.887c0 .087.068.147.09.23.03.076.008.155.06.223l.802 1.073v.128c-.06.05-.098.09-.144.15-.06.08-.08.16-.102.257-.015.06-.072.098-.072.166v2.657c0 .212.083.397.227.537l.74.745c.034.038.083.026.125.053s.053.083.098.106l2.126.956c.064.026.125.03.193.042.01.004.02.02.03.02l4.573.533.087.008h.038l4.362-.215c.02 0 .034-.023.053-.026.098-.01.204-.026.295-.08l1.808-1.062c.038-.023.045-.076.076-.098s.08-.015.106-.05l.855-.96c.06-.068.053-.16.08-.234.038-.09.1-.163.1-.265v-3.292l.015.008a.73.73 0 0 0 .397.113h1.698c.102 0 .212-.023.3-.068l2.126-.96c.026-.01.03-.042.053-.053.117-.068.2-.166.265-.287.026-.042.064-.068.08-.1 0-.01.015-.015.015-.026l.862-2.902v2.585c0 .045.042.072.05.1.015.098.053.17.102.253s.098.155.182.215c.034.026.042.076.08.09l2.875 1.49a.76.76 0 0 0 .348.083c.12 0 .242-.03.363-.09l.023-.015.598-.32.272.722c-.06.05-.148.072-.19.132-.05.076-.034.17-.05.253-.026.098-.083.193-.064.302.008.015.004.02.004.023l.86 3.72c.008.034.038.05.045.072.057.155.144.283.272.374.015.008.015.03.03.038l1.063.64c.117.072.253.106.4.106h2.126c.034 0 .06-.004.087-.008l4.467-.533c.008 0 .01-.01.023-.01.042-.008.083-.008.13-.023l3.836-1.277c.06-.02.08-.08.13-.1s.117-.026.166-.072l1.487-1.49c.034-.034.023-.08.05-.113.02-.026.06-.02.076-.045l.427-.748c.038-.064.008-.128.023-.197.023-.068.08-.1.08-.18v-2.76c0-.094-.072-.163-.102-.25-.034-.08-.02-.174-.08-.242l-.042-.045.878-.66c.015-.01.015-.038.03-.05.076-.068.098-.155.144-.246s.098-.16.106-.257c0-.02.023-.03.023-.053v-1.425l.99-2.08c.026-.057-.004-.1.008-.166s.068-.094.068-.16v-4.036c0-.023-.023-.038-.023-.057s.015-.038.015-.06l-.643-4.15c0-.03-.034-.042-.042-.072s.01-.053.004-.08l-3.386-9.082-1.37-7.166c-.008-.042-.05-.057-.06-.09s.01-.076-.008-.106l-1.407-2.808v-1.21l1.59-2.58c.042-.064.015-.132.034-.2s.08-.12.08-.197v-4.036c0-.034-.034-.057-.038-.087s.023-.057.015-.087l-2.107-8.738v-2.14l1.566-5.427c.01-.038-.02-.072-.01-.1s.042-.06.042-.098V226.6l.3-3.67.4.306c.042.034.095.026.144.05.034.02.045.06.08.076l.125.045v.2c0 .076.06.12.08.19s-.008.14.034.204l.318.533c.02.03.06.02.08.045.14.185.33.32.567.32.038 0 .072-.004.106-.008l2.232-.317c.015-.004.02-.02.034-.023.05-.008.095-.008.14-.026l.03-.01.318.548c.015.026.053.02.072.042.136.19.33.33.58.33h.957c.212 0 .4-.087.54-.234l1.82-1.916c.02-.023.01-.053.03-.08.03-.038.076-.06.095-.102l.745-1.49c.01-.02-.004-.038.004-.057s.038-.034.045-.06l.533-1.7c.01-.042-.02-.076-.015-.113s.05-.068.05-.1v-.42h-.008zm-4.17 4.758h-.148l.02-.144 1.074-.986c.03-.026.026-.072.053-.102.053-.064.117-.113.148-.197l.427-1.175c.01-.034-.015-.068-.008-.098.008-.038.045-.06.05-.094l.212-2.547c.038-.416-.272-.782-.692-.816-.446-.098-.783.272-.817.692l-.204 2.445-.33.903-1.04.952-.844.336-.855.12.098-.038.813-.208c.182-.05.314-.17.412-.3.01-.015.034-.008.045-.023l.533-.85c.023-.042.004-.087.023-.132.023-.053.072-.08.08-.14l.303-1.72.397-.998c.155-.39-.03-.83-.42-.986a.76.76 0 0 0-.984.416l-.427 1.062c-.01.03.008.057 0 .083s-.038.042-.045.072l-.287 1.655-.295.47-.552.14c-.023.004-.026.026-.045.034s-.038-.008-.053 0l-.923.37h-.057l-.393-.132-.272-.22-.053-.125.06-.268c.087-.045.178-.072.238-.144.01-.015.034-.008.05-.023l.318-.423c.057-.072.038-.155.064-.234s.09-.136.09-.223v-2.54h2.758c.034 0 .064-.004.095-.008l4.123-.53c-.023.072-.083.125-.083.204v2.01l-.477 1.53-.67 1.33-1.51 1.606zm-9.336 13.73c-.01.038.02.072.01.1s-.042.06-.042.098v2.332c0 .034.034.057.038.087s-.023.057-.015.087l2.107 8.738v3.74l-1.593 2.58c-.038.064-.01.132-.03.2s-.08.117-.08.197v1.595c0 .064.053.106.068.166s-.015.117.015.174l1.44 2.88 1.362 7.128c.004.026.03.038.034.06s-.008.042 0 .064l3.378 9.063.62 4.014v3.813l-.99 2.08c-.026.057.004.1-.008.166s-.068.094-.068.16v1.217l-.42.317-.412-.66c-.023-.038-.08-.045-.1-.08-.106-.117-.223-.23-.374-.26l-3.18-.737c-.053-.015-.095.026-.148.023s-.095-.042-.15-.034l-7.34 1.274c-.053.008-.076.06-.12.08s-.098-.004-.144.023l-2.765 1.697-.995.54-2.11-1.088v-2.732c0-.08-.064-.136-.087-.215-.023-.072 0-.147-.05-.215l-.82-1.2v-3.06c0-.026-.023-.042-.03-.068 0-.023.023-.042.015-.064l-2.107-12.003.942-7.113c.01-.083-.045-.15-.064-.23s.015-.16-.023-.234l-2.992-5.46v-24.83l5.224-3.734.08-.026 3.722-1.107 2.46-.745c.01-.004.015-.02.023-.023.023-.008.05-.004.072-.015l6.064-2.76c.05-.023.06-.08.098-.106s.095-.02.13-.057l1.297-1.342-.36 4.37c0 .01.01.02.008.03s-.01.023-.01.034v5.63l-1.566 5.427zm3.718 57.268l-3.6 1.194-4.324.514h-1.89l-.61-.367-.344-1.504c.076.026.125.087.212.087h3.514c.06 0 .117-.008.178-.023l5.32-1.28c.02-.01.03-.008.038-.01l1.808-.533c.064-.02.087-.08.144-.113s.125-.026.178-.076l.942-.94v1.266l-.28.49-1.294 1.296zm-9.207-5.215l7.05-1.22 2.73.635.29.472.045.223-.026.106-.026-.015h-.004l-.382-.193-.276-.185c-.026-.02-.057-.004-.083-.02s-.038-.053-.068-.064l-.533-.208c-.015-.008-.034.008-.053 0s-.02-.023-.038-.026l-1.267-.32c-.03-.01-.06.02-.095.015s-.057-.042-.09-.042h-1.388c-.038 0-.06.034-.095.042s-.06-.026-.095-.015l-.325.083h-.333c-.03 0-.053.03-.08.034s-.05-.023-.076-.015l-3.5.745c-.053.01-.076.06-.113.08-.05.02-.098-.004-.144.026l-.3.197-.166.083c-.015.008-.015.026-.03.038s-.03 0-.045.008l-.318.215c-.023.015-.023.045-.042.06s-.05.008-.064.026l-.216.208c-.008.015-.015.01-.015.015l-.3.317-.208.2c-.023.023-.015.057-.038.08s-.053.023-.072.05l-.17.257-.15.147c-.053.05-.045.113-.076.17-.038.057-.102.08-.12.144l-.072.215-.155.234v.004l-.567-1.497 2.118-1.308zm5.008.782h.36c.064 0 .125-.008.193-.026l.325-.083h1.2l.325.083.008.004.427.106c.008 0 .015 0 .023.004l.34.083.424.166.166.113-.318.265-1.32.563-5.07 1.138h-2.126c.015-.03.045-.045.057-.08l.045-.14.08-.08c.03-.026.023-.064.042-.087s.053-.015.068-.038l.17-.257.15-.147c.008-.015.015-.01.015-.015l.3-.317.155-.147.235-.16.17-.087c.008-.004.008-.02.02-.023s.034-.008.05-.015l.208-.132 3.268-.692zm-16.94-.234H236.2l-1.195-.74c-.026-.008-.026-.015-.03-.02l-2.73-1.512c-.026-.026-.057-.026-.08-.045l-.064-.038c-.045-.023-.087 0-.132-.015-.095-.034-.178-.1-.287-.08l-8.94.642c-.068.004-.106.064-.17.08-.064.023-.132 0-.193.038l-1.907 1.24-.004-.004v-4.596l1.055-8.023c.004-.034-.026-.06-.026-.087 0-.034.03-.057.03-.087l-.86-8.08c0-.042-.045-.06-.053-.094-.01-.042.015-.08 0-.12l-3.802-8.96-.594-2.997.934-7.207c.004-.02-.01-.03-.01-.05s.02-.03.02-.05v-4.04c0-.026-.026-.042-.026-.068s.02-.045.015-.072l-1.475-8.005v-4.822c0-.02-.02-.03-.02-.05s.015-.034.01-.053l-.56-4.27.053-.02c.02-.01.03-.01.042-.015l.533-.212 1.146-.416c.03-.01.038-.045.068-.06.1-.06.193-.14.265-.242.038-.053.076-.08.095-.14.008-.023.034-.034.042-.057l.41-1.432.076-.147c.008-.015-.004-.03.004-.05.004-.008.01-.01.015-.02l8.16 2.063c.023.008.053.008.076.008l7.656 1.028 2.444 3.56v25.174c0 .072.057.113.076.178s-.01.125.023.185l2.962 5.42-.923 6.98c-.008.042.03.076.03.113s-.03.076-.023.113l2.115 12.048v3.13l-1.256 4.24-1.668.752zm-5.583 5.956l-4.138.204-4.37-.506-1.907-.858-.42-.423v-1.036l.117.106c.057.05.13.045.197.076.053.026.076.083.132.098l2.24.533c.06.015.117.023.178.023h6.593a.64.64 0 0 0 .144-.015l2.76-.533c.038-.008.057-.045.087-.06.068-.023.144-.02.208-.064l.295-.208v1.1l-.583.66-1.536.903zm-.378-6.886l2.357 1.31.113.7-.246.552-.227.16c-.042-.106-.05-.227-.13-.302l-.155-.15-.14-.22-.2-.393c-.03-.064-.098-.076-.144-.125s-.05-.12-.106-.16l-.253-.174-.272-.268c-.03-.03-.076-.02-.106-.045s-.038-.068-.076-.083l-.178-.094-.295-.19-.3-.208c-.015-.008-.03 0-.045-.008s-.015-.034-.034-.042l-.393-.2.84-.06zm-1.854 1.38h.13l.238.06.337.17.26.174.33.215c.01.008.026.004.042.01.008.008.008.02.015.023l.1.057.242.242c.02.02.05.01.068.03s.023.045.045.06l.155.102.125.246c.008.015.023.023.03.038.008.008 0 .02.008.03l.06.083-.08.026h-7.872l-1.396-.374.008-.02.185-.185.208-.136.397-.204c.008-.004.008-.02.015-.023.02-.008.038-.004.053-.015l.216-.14.303-.076c.02-.004.026-.03.045-.034.038-.015.08-.01.117-.03l.34-.174.25-.064h.34a.77.77 0 0 0 .182-.023l.33-.08h4.165v.008zm-21.808-66.784c-.004-.02-.023-.026-.026-.045s.008-.03.004-.05l-.632-2.105-.325-1.172 10.83-2.6 2.77 1.87-.132.325c-.004.008.004.02 0 .026-.034.09 0 .19.004.287s-.02.197.02.283c.008.008 0 .02.004.026l.102.208-.43-.094-1.8-1.002v-.004l-1.812-1.062c-.042-.026-.087-.004-.132-.02a.59.59 0 0 0-.272-.038.61.61 0 0 0-.269.053c-.042.02-.087 0-.13.026-.053.034-.057.098-.095.144s-.102.053-.132.102c-.026.042-.004.083-.023.125a.76.76 0 0 0-.038.276c.004.098.015.185.057.276.02.042 0 .083.026.12l.51.767v.306c0 .015.015.023.015.038.008.098.068.17.1.26s.06.185.132.25c.01.01.008.026.02.034l1.063.87.253.442v.646l-.435.144c-.023.008-.026.03-.045.038-.03.01-.053.015-.076.026-.076.042-.102.113-.163.178s-.13.1-.163.197c-.008.02-.03.023-.038.042l-.023.064-2.482-.257c-.053 0-.098.042-.15.053-.33.034-.61.234-.67.567-.004.01.008.02.008.03s-.015.015-.015.026c-.01.09.053.163.076.246.023.098.023.2.08.28s.148.094.235.147c.08.05.132.128.23.147l2.152.385-.087.317-.56.204-1.706-.54-1.543-.82c-.072-.038-.148-.008-.223-.02-.102-.023-.197-.053-.295-.03-.087.023-.148.08-.223.132s-.166.057-.223.128c-.015.02-.004.042-.015.064-.015.015-.038.02-.05.038-.042.076-.01.155-.023.234-.02.094-.05.18-.026.276s.087.166.148.246c.045.068.053.147.117.2l1.256.94-.51-.128-.85-.506-1.3-1.693c-.057-.072-.144-.08-.212-.125-.08-.05-.136-.1-.23-.128s-.185.004-.287.023c-.076.01-.155-.02-.223.02-.023.01-.026.042-.045.053s-.05.004-.068.02c-.068.053-.072.132-.113.197-.06.083-.12.147-.144.246s.008.18.026.28c.01.08-.02.155.02.23l1.17 2.237c.068.12.163.22.272.283l-.696-.378-1.17-1.52-.382-2.366zm29.233 6.708l-1.517-2.215h4.615l-3.098 2.215zm21.032-16.08a.73.73 0 0 0 .265.049c.023 0 .042 0 .064-.004l7.66-.64.136-.026 3.775-1.04.27 1.75v.37l-.647.106c-.023.004-.038.03-.06.038s-.05-.01-.076-.004l-1.093.393-5.704.73H258.2l-.643-.19-.51-.166.265-1.678.836.3zm13.236 5.253l-3.004-2.73.348-.045c.008 0 .015-.01.023-.015.045-.008.09-.008.14-.023l.636-.23 1.857 2.517v.525zm-12.873-1.07v.43l-.4-1.005v-.374h.4v.95zm5.122-41.107l3.613 23.89c0 .023.023.034.03.057s-.01.034-.008.053l2.115 6.848.443 2.918-3.87 1.066-7.426.62-1.052-.393v-1.87l.412-2.585.2-1.21 1.044-3.023c.132-.393-.076-.828-.47-.964-.41-.128-.828.076-.965.47l-.227.658v-4.868l.817-2.653a.76.76 0 0 0-.503-.945.76.76 0 0 0-.946.503l-.004.01-.832-3.79.96-2.868 2.674-3.284c.026-.03.015-.072.034-.102.034-.053.083-.08.098-.14l1.596-4.9c.015-.042-.015-.08-.008-.117s.05-.072.05-.113v-8.503a.76.76 0 0 0-.757-.756.76.76 0 0 0-.757.756v8.4l-1.51 4.64-2.682 3.284c-.034.038-.02.083-.042.125s-.08.064-.09.1l-.382 1.138-.393-1.07-.617-5.302.61-2.525c.008-.034-.02-.06-.015-.087.004-.034.038-.057.038-.087v-4.785c0-.023-.023-.038-.026-.06s.023-.038.015-.06l-.636-4.044c-.008-.026-.03-.038-.038-.06s.01-.042.004-.064l-.772-2.305.772-2.31c.132-.393-.08-.824-.477-.956s-.828.08-.957.476l-.083.257-.068-.23c-.117-.404-.54-.627-.938-.518-.4.117-.632.54-.518.937l.745 2.55c.008.02.008.026.008.03l.832 2.475.62 3.934v4.64l-.617 2.566c-.01.05.023.083.023.132-.008.05-.045.083-.038.132l.636 5.522c.008.034.038.053.045.083s-.015.057 0 .083l1.15 3.144 1.464 6.67v5.234c0 .038.034.06.042.094s-.023.068-.015.102l.594 2.18-.185 1.115v.004l-.424 2.657c-.004.023.015.038.015.06s-.026.038-.026.06v2.385l-.522 3.345c-.008.023.015.038.015.06s-.026.038-.026.06c0 .083.064.14.09.22.03.094.042.185.102.257.068.08.16.106.25.15.072.038.1.106.193.117.03.008.06.008.087.008l.03.09-3.533 2.506-4.76 1.55-6.643 1.266a.75.75 0 0 0-.601.881.76.76 0 0 0 .741.616.59.59 0 0 0 .14-.015l6.707-1.277c.038-.015.068-.015.09-.023l4.9-1.595c.03-.01.042-.05.072-.064.042-.02.09-.01.13-.042l3.22-2.283.28.93-2.36 2.45-5.875 2.676-.087.03-6.143 1.84h-8.258l-7.864-1.047L219.07 224v-.937l3.7 1.156c.05.015.095.02.144.023.008.004.01.01.02.01l8.83.737c.02.004.042.004.064.004.393 0 .72-.3.753-.695.038-.416-.272-.782-.692-.816l-8.75-.73-.813-.253c.023-.004.03-.023.053-.026.087-.03.182-.034.257-.094l.636-.533c.042-.038.038-.094.072-.136.023-.03.072-.02.09-.053l.318-.533c.034-.053.008-.1.026-.166a.59.59 0 0 0 .042-.268c-.008-.102-.03-.18-.076-.268-.026-.053-.01-.1-.05-.16l-.424-.533c-.03-.038-.08-.034-.113-.064s-.034-.08-.08-.106l-.85-.533c-.015-.01-.038 0-.057-.01-.026-.015-.05-.03-.08-.042-.01-.004-.015-.02-.026-.023l-.22-.076-2.326-1.568c.023-.072.08-.117.08-.193 0-.023-.023-.034-.023-.057s.015-.038.015-.06l-.216-1.387c-.008-.064-.068-.09-.087-.147s0-.117-.038-.17l-.96-1.376c-.008-.01-.023-.01-.03-.02s-.004-.026-.015-.038l-.48-.567-.087-.93c0-.01-.015-.02-.015-.034s.008-.02.008-.03l-.216-1.168c-.01-.068-.076-.098-.095-.155-.03-.064-.015-.128-.057-.185l-1.07-1.338.272-2.018c.004-.02-.015-.034-.015-.053s.023-.034.023-.053v-2.55c0-.05-.045-.08-.057-.128s.023-.087.008-.136l-2.572-6.882.775-2.517c.015-.042-.015-.076-.01-.113s.045-.068.045-.106V193.2c0-.076-.06-.125-.08-.193s.008-.136-.034-.2l-1.282-2.11 1.006-2.184c.03-.068 0-.132.008-.204.015-.072.068-.12.06-.197l-.53-4.735v-2.407c0-.057-.05-.087-.057-.136s.02-.094 0-.144l-1.207-3.016.193-1.822.004-.01.208-1.96.836-3.023a.75.75 0 0 0-.533-.926c-.412-.106-.82.125-.93.53l-.85 3.076c-.004.023.015.042.008.064 0 .023-.026.034-.03.057l-.015.163-.34-.435a.75.75 0 0 0-1.063-.128c-.33.253-.4.73-.132 1.058l1.31 1.67-.185 1.716c-.008.068.045.113.053.178s-.023.12 0 .185l1.222 3.054v2.298c0 .015.02.026.02.045s-.015.026-.015.042l.51 4.577-.51 1.107-3.613-5.544c-.23-.35-.704-.442-1.048-.223a.76.76 0 0 0-.223 1.047l4.365 6.693 1.362 2.25v1.372l-.352 1.15-.923-1.353c-.235-.344-.71-.43-1.052-.2a.76.76 0 0 0-.204 1.047l1.76 2.58 2.584 6.916v2.366l-.3 2.283c-.01.106.053.197.08.29s.023.2.08.276l1.16 1.455.023.125-1.267.064c-.03 0-.045.03-.076.038s-.053-.02-.08-.01l-2.87.748c-.4.102-.647.518-.54.922a.75.75 0 0 0 .73.563.68.68 0 0 0 .193-.026l2.78-.726 1.34-.068.045.446c.008.09.08.15.117.234.026.06.01.128.06.185l.613.722.836 1.202.057.344h-.08c-.03 0-.05.03-.08.034s-.05-.01-.08-.008c-.008 0-.015-.008-.023-.004l-11.916 2.865c-.015.01-.023.008-.023.008-.02.004-.023.023-.038.03-.023.008-.038-.008-.053 0l-1.812.748c-.083.034-.117.117-.178.178-.08.072-.178.106-.223.208l-.185.397-.095-.06-.29-.892v-1.776c0-.057-.05-.083-.057-.136s.023-.098 0-.147l-.208-.518 1.014-.745 6.366-1.875c.4-.117.632-.537.514-.937s-.54-.635-.942-.5l-6.49 1.912c-.045.015-.06.064-.102.08-.042.023-.087.004-.13.034l-.393.287v-3.715c0-.026-.026-.042-.026-.068s.015-.042.015-.064l-1.8-10.238v-11.73l.957-11.75c0-.01-.01-.02-.008-.03s.01-.023.01-.034v-5.658l.92-3.972 3.117-6.546 3.174-4.187 4.15-2.528 2.213-.624 3.43 2.354c.038.026.08.02.125.038.023.01.03.045.057.053l5.216 1.8c.042.015.08.015.113.023.015 0 .02.015.03.015l5.425.745.102.008h4.9c.06 0 .117-.008.178-.023l3.08-.745c.023-.008.03-.03.053-.042.053-.015.102-.01.148-.038l4.256-2.44c.038-.023.042-.068.076-.09s.072-.015.095-.045l1.922-2.022c.026-.03.015-.076.038-.106.045-.06.106-.098.132-.174l.25-.756h.518l2.17.593 5.356 2.88 3.038 2.92 5.852 10.556 1.903 7.717zm-20.29-25.053l-.17.5-1.717 1.8-1.2.692 2.164-1.852c.026-.023.023-.064.045-.087.06-.068.132-.12.166-.212l.344-.896h.265l.102.045zm-5.962 4.65l-2.88.7h-.987l1.97-.423c.008-.004.015-.015.023-.015.03-.008.064-.008.095-.02l4.214-1.644-2.436 1.402zm-2.746-5.37l-5.296-.612-.23-.08c.008-.015.034-.01.045-.026.2-.295.117-.654-.106-.903l.23.15c.053.034.1.03.166.053.03.01.045.045.076.053l.427.102.412.106c.06.02.125.026.19.026h.235l.28.072.306.102a.77.77 0 0 0 .238.042h1.593c.064 0 .12-.008.185-.023l.337-.083h.333a.76.76 0 0 0 .757-.756.76.76 0 0 0-.757-.756h-.427c-.038 0-.057.034-.087.038s-.064-.023-.095-.015l-.337.083h-1.38l-.2-.068c-.01-.004-.02.004-.034.004-.008-.004-.01-.015-.023-.02l-.42-.106c-.03-.01-.06.02-.09.01s-.057-.038-.09-.038h-.235l-.325-.083-.3-.076-.212-.14c-.03-.02-.068-.004-.095-.02-.034-.015-.042-.057-.08-.068l-.51-.178-.43-.34c-.026-.02-.057-.008-.08-.023s-.03-.05-.053-.06l-.363-.18-.412-.336-.492-.488-.276-.37c-.015-.01-.015-.015-.015-.02l-.378-.465-.28-.57c-.008-.01-.023-.01-.026-.02s.004-.023-.004-.034l-.287-.48-.155-.393-.083-.6v-.48a.76.76 0 0 0-.757-.756.76.76 0 0 0-.757.756v.533c0 .02.02.03.02.053s-.015.034-.01.053l.05.34-1.782-3.178-.087-.33c-.004-.015-.023-.023-.03-.038s.008-.034 0-.05l-.193-.488-.095-.378c-.008-.03-.038-.042-.05-.072s.008-.057-.008-.083l-.132-.26v-.355c0-.034-.034-.057-.038-.087s.023-.057.015-.087l-.08-.336v-1.87l.083-.442.083-.397.462-.73v-.004l.533-.854c.008-.023.015-.026.023-.034l1.17-2.124c.03-.06.004-.125.02-.19s.076-.106.076-.178v-1.255l.968-2.725.117.087.4.39c.026.026.068.02.095.042.045.102.06.215.14.287.02.03.023.068.042.09.01.05-.01.09.01.136l.106.208c.004.01.02.015.023.023v.06c0 .02.02.03.02.053s-.02.034-.02.053c0 .064.053.098.064.16s-.015.1.01.166l.03.064v.257c0 .068.057.106.072.17s-.015.117.015.178l.095.185c.01.038-.015.08.008.113l.102.215.004.01.026.053v.03c0 .234.117.423.287.56.02.023.015.057.03.076.008.004.015.004.023.008l.06.1v.004l.102.215.004.01.106.215c.03.057.08.083.117.128l.087.178c.008.01.008.015.008.02l.026.053v.023c0 .238.13.43.306.567.023.045.064.068.09.102.02.023.01.06.034.08l.212.212c.004.004.01.004.02.008l.05.102c.026.057.08.083.117.132.02.023.01.057.034.08l.42.416.322.325h.004l.3.317c.02.015.045.01.06.026s.015.038.034.053l.374.272.386.393c.015.015.038.008.057.023s.01.038.03.053l.4.287.28.28c.038.038.095.03.14.06s.057.08.102.102l.518.212.333.166.363.272c.023.02.053.01.08.026.02.015.023.042.045.053l.412.204.488.295c.072.045.148.045.227.064l.144.076c.068.034.136.038.204.05l.12.06c.102.053.223.08.333.08.023 0 .045-.015.068-.02.015 0 .03.02.045.02.023 0 .03-.02.053-.023.02.004.03.023.053.023s.03-.02.053-.023c.023.004.038.023.057.023h.212c.095 0 .163-.072.25-.102h.072c.02 0 .026-.02.042-.02.026.004.045.02.068.02.113 0 .23-.026.34-.08l.216-.106c.023-.01.023-.042.045-.057a.72.72 0 0 0 .488-.238c.03-.01.064-.008.09-.023l.216-.102c.05-.023.057-.08.095-.106l.235-.1c.023-.01.026-.045.053-.06.178-.02.348-.08.465-.208l.306-.204c.026-.02.026-.053.05-.076s.06-.01.08-.034l.015-.02c.068-.01.132-.015.2-.045l.208-.102c.023-.01.026-.038.045-.05.174-.015.348-.068.48-.2l.068-.068c.03-.008.06-.026.087-.038h.053c.023.02.06.01.083.03l-.01.05c-.026.057 0 .113-.01.174s-.072.102-.072.166v.892l-.026.06c-.03.057 0 .1-.01.17s-.068.094-.068.16v.08l-.072.208c-.015.045.015.08.008.125s-.05.076-.05.117v.355l-.023.045c-.026.057 0 .113-.01.174s-.072.102-.072.166v.964c0 .064.053.102.068.16s-.02.113.01.17l.026.06v.042c0 .068.057.1.072.174s-.01.125.023.185l.102.193.09.2c.026.057.08.083.117.132.02.026.01.06.034.08l.216.212c.023.02.05.01.068.026.023.034.015.057.03.072l.216.22.008.008.208.204.22.22c.02.02.05.01.072.03s.023.05.045.064l.318.215c.02.01.042.008.064.02.01.008.01.026.026.034l.427.208c.03.015.068.015.102.026.015.004.02.023.038.026l.295.08.216.144.333.215c.05.03.102.026.155.045.026.01.038.045.068.053l.42.1.008.004.303.076.212.14c.038.026.083.02.12.038.026.01.034.045.06.053l.318.102a.74.74 0 0 0 .235.038h.333l.325.083c.068.02.13.026.193.026h.42l-2.168 2.585c-.01.01-.004.026-.01.038s-.026.01-.034.023l-1.173 1.7c-.008.015 0 .038-.008.053-.015.02-.038.02-.045.038l-.235.46-.878.62-1.067.68-5.326 1.25zm-4.63-27.736c.026-.008.034-.034.057-.045.045-.015.095-.01.136-.038l.492-.302c-.023.083 0 .16.008.242 0 .064-.038.12-.015.19.015.045.057.068.08.102.015.03.004.064.02.087.023.026.06.015.08.042.144.163.33.28.545.28.08 0 .163-.015.242-.042l.738-.25c-.023.09.008.178.023.272.008.08-.023.15.01.227.01.026.042.038.057.06l-.6.33c-.038.02-.038.064-.072.087-.08.06-.12.128-.174.215a.67.67 0 0 0-.11.257c0 .03-.03.05-.03.08-.076-.026-.132-.087-.216-.087h-.41l-.19-.068c-.045-.015-.083.015-.13.008s-.076-.053-.12-.053h-.533c-.068 0-.1.057-.17.072s-.12-.015-.178.015l-.053.026h-.01l-.19-.068c-.045-.015-.083.015-.13.008s-.076-.053-.12-.053h-1.267l-.208-.068c-.038-.01-.068.015-.102.008s-.053-.042-.087-.045l-1.827-.098-.155-.045.78-1.742h.51l-.242.522c-.02.045.008.09-.004.136-.026.098-.026.178-.01.28s.034.178.083.26c.026.045.01.094.045.132s.09.03.132.064c.05.038.064.102.12.128.102.05.212.072.318.072.163 0 .318-.068.446-.166.01-.01.034-.008.05-.02l.613-.53 1.76-.48zm-8.307 9.85l-.185.29c-.008-.01-.008-.026-.015-.038-.03-.03-.076-.02-.106-.042s-.042-.076-.08-.09l-.132-.068c-.015-.026-.03-.02-.042-.03-.004-.01-.01-.02-.01-.026-.015-.06.015-.117-.01-.174l-.072-.144-.083-.34-.087-.427v-.457c0-.03-.026-.045-.03-.072s.02-.05.015-.076l-.026-.117c.015.02.008.045.026.06l.216.215c.034.034.08.023.117.05s.042.076.08.09l.098.05.01.015c.076.068.17.076.257.1.072.03.132.094.216.094.03 0 .045.026.076.026h.374l-.605 1.1zm.878-2.61c0-.064-.053-.102-.068-.163-.004-.02 0-.038-.004-.057.004-.008 0-.02.004-.026.015-.064.072-.106.072-.174v-.227l.197-.193.083-.083-.053.144c-.015.045.015.083.008.128s-.053.076-.053.12v.6c-.064-.015-.1-.068-.185-.072zm16.992 2.72c.015.015.008.042.023.057l.295.287.102.113c.015.008.015.015.02.02l.185.185c.008.01.004.026.01.038.015.01.03.008.045.015l.08.08c.02.01.02.015.02.02l.1.102c.03.03.072.02.102.042s.03.06.06.076l.216.1c.1.06.23.087.352.087h.58c.034.01.064.038.098.042-.13.034-.265.053-.367.15l-.1.1c-.034.034-.02.08-.045.117s-.08.045-.098.087l-.05.09-.113.113c-.008.004-.004.01-.008.02s-.015.004-.023.008l-.102.1c-.026.03-.01.068-.03.094-.015.02-.034.023-.045.038v-.257c0-.238-.125-.427-.3-.567-.02-.02-.01-.053-.03-.072l-.102-.102-.008-.004-.008-.008c-.01-.023-.034-.034-.045-.057-.042-.053-.068-.102-.12-.144-.045-.042-.057-.106-.1-.136l-.216-.1c-.057-.03-.117-.004-.178-.02s-.102-.072-.174-.072h-.53c-.026 0-.042.023-.064.026l.3-.63v-.004l.106-.215.102.125c.023.03.045.023.06.038zm-5.984 1.52l-.276-.185c-.034-.023-.072-.004-.102-.023s-.05-.064-.083-.076l-.223-.072-.235-.155c-.03-.023-.072-.004-.098-.02s-.045-.057-.076-.068l-.227-.072-.163-.106-.163-.163-.216-.22c-.023-.023-.053-.015-.08-.034s-.023-.053-.05-.072l-.253-.166-.155-.155c-.045-.045-.1-.038-.163-.068s-.068-.09-.12-.1l-.163-.057-.087-.083-.235-.238-.064-.113c-.015-.034-.06-.038-.08-.072-.026-.03-.015-.076-.045-.102l-.166-.17-.166-.246c-.015-.023-.045-.023-.06-.045-.023-.023-.015-.053-.034-.076l-.216-.215c-.03-.03-.08-.023-.106-.045l-.03-.08c-.02-.06-.08-.08-.1-.132s-.023-.117-.068-.163l-.09-.094-.053-.147c-.004-.02-.026-.023-.034-.038s.004-.038-.004-.053l-.083-.174-.05-.144v-.098c0-.068-.057-.1-.072-.174s.01-.125-.023-.185l-.02-.038v-.132c0-.045-.042-.076-.05-.113s.023-.08.008-.12l-.064-.197v-.454l.023-.045c.026-.057 0-.113.01-.174s.072-.102.072-.166v-.136l.02-.038c.057-.098.03-.212.034-.317.01-.053.06-.09.06-.147v-.026c.008-.008.004-.023.01-.03.023-.015.06-.01.076-.026.008-.008.004-.026.01-.034s.01-.004.02-.008l.102-.1c.015-.015.004-.038.015-.053.023-.02.06-.01.08-.034l.03-.03c.057-.03.125-.026.17-.072l.22.004h.946l.2.068a.77.77 0 0 0 .238.042h.034l.053.026c.1.057.227.08.34.08h.148l.057.026c.02.01.042.008.064.015.015.008.02.023.03.026l.265.083.155.08c.045.023.095.023.148.038.023.004.03.03.053.034l.477.094.41.163.564.283.374.276c.015.008.026.004.038.01s.008.02.02.026l.533.325.5.295.405.302.47.374.393.4c.015.01.03.008.045.02s.008.03.023.042l.462.37.26.344.435.548c.008.01.023.008.03.015s.008.026.015.038h.004v.008c0 .094.072.163.102.246v.333l-.026.053-.208.423-.026.057-.068.034c-.08.042-.098.125-.155.185-.045.03-.106.026-.144.064s-.023.08-.05.113-.076.042-.09.08l-.03.05-.068.034c-.076.042-.095.12-.155.18-.045.05-.1.068-.148.125l-.004.004c-.01.015-.02.015-.026.023l-.004.01c-.072.042-.098.1-.15.166-.042.03-.09.02-.13.057l-.13.128-.09.045c-.042.02-.05.068-.08.087l-.26.09c-.015.008-.02.026-.038.034s-.034-.004-.053.004l-.208.102-.36.174-.246.064h-.575l-.337-.08c-.034-.008-.06.02-.09.015s-.053-.038-.083-.038h-.14l-.223-.113zm9.646 6.21c-.01-.004-.02.004-.026 0s-.015-.01-.023-.015l-.23-.06-.076-.072c-.015-.02-.045-.01-.064-.026s-.02-.045-.042-.06l-.253-.174-.272-.268h-.004l-.3-.317c-.023-.02-.053-.015-.076-.03-.015-.023-.015-.06-.034-.08s-.057-.015-.08-.034-.015-.06-.034-.08-.045-.008-.06-.023c-.015-.042.008-.08-.015-.117l-.02-.038v-.136c0-.094-.072-.163-.102-.246v-.276c0-.02-.02-.03-.02-.053s.02-.034.02-.053v-.25l.023-.045c.026-.057 0-.113.01-.174s.072-.102.072-.166v-.087l.072-.197c.015-.045-.015-.083-.008-.128s.05-.072.05-.117v-.423c.02-.034.053-.05.064-.083l.106-.317c.015-.042-.015-.08-.008-.12s.05-.076.05-.117v-.023c.015-.015.008-.038.023-.053.03-.042.08-.064.102-.1l.076-.147c.008-.004.015-.004.023-.008.015-.015.008-.038.02-.053.02-.015.045-.01.064-.026s.008-.038.023-.053c.008-.008.015-.02.023-.03.02-.01.045-.008.06-.023.026-.023.02-.06.038-.08s.045-.042.06-.068c.08-.01.136-.053.208-.083.068-.008.132-.023.2-.05l.178.045c.06.015.117.023.178.023h.446l.33.08.412.1c.01.004.023 0 .034.004l.446.094.295.144.272.185c.015.01.038.008.06.02.01.008.01.023.023.03l.37.185.363.272h-.008l.43.325c.008.004.015.004.023.008l.257.185.27.265.16.16.178.26.155.234.076.212c.008.023.026.03.034.05s-.004.034.004.05l.03.06v.922l-.026.053c-.01.023.004.042-.004.064s-.034.026-.038.045l-.072.212-.16.238c-.01.015 0 .034-.01.05s-.026.015-.034.03l-.057.102-.13.132c-.02.02-.01.05-.03.068s-.045.02-.06.042l-.102.155-.026.01c-.01.008-.015.004-.02.008l-.208.106-.216.106c-.015.008-.015.03-.03.038s-.03 0-.042.008l-.23.15-.117.038h-.09c-.05 0-.08.042-.12.053s-.083-.023-.13-.008l-.19.068h-.85l-.238-.064-.15-.076c-.026-.015-.06.004-.087-.008s-.038-.042-.068-.05l-.416-.098-.427-.1-.265-.094zm-14.82-14.58c-.02.02-.015.057-.034.08-.01.01-.034.01-.045.023-.13.064-.23.132-.303.253a.71.71 0 0 0-.235.261c-.004.008-.02.004-.023.01-.057.057-.05.132-.08.197-.008.008-.02.004-.023.01-.163.163-.22.378-.2.6-.004.02-.02.03-.02.05l-.068-.125c-.008-.01-.02-.01-.023-.02-.038-.09-.034-.193-.102-.265l-.004-.004v-.004c0-.072-.057-.117-.08-.18.02-.015.045-.01.06-.026l.023-.02.087-.087v-.004c.023-.023.02-.053.038-.076.174-.14.3-.33.3-.567v-.098h.73zm10.12 3.333c.008.094.068.17.106.257l-.034-.023-.246-.246-.072-.094c.102-.026.216-.045.303-.117-.02.076-.064.14-.057.223zm-3.58-3.37c-.02.098-.008.18.01.28.015.06-.02.117.008.178.026.05.076.076.102.113.01.015.008.03.015.045l-.106-.068c-.01-.008-.023 0-.034-.004s-.008-.02-.015-.023l-.427-.215c-.057-.026-.1 0-.17-.01l-.057-.06c-.023-.023-.057-.015-.08-.034s-.023-.053-.05-.068l-.306-.2v-.004l-.27-.185-.166-.16c-.045-.042-.102-.034-.155-.064-.023-.015-.034-.038-.06-.05.087-.015.17-.023.25-.064l.325-.17c0 .08-.045.132-.03.2.01.045.053.068.068.102s-.004.068.015.094.057.02.076.045c.14.197.34.344.583.344.057 0 .1-.008.17-.02l.295-.068c.004.03.01.045.008.064zm-11.37 1.224l-.144-.072-.216-.102c-.057-.026-.113 0-.17-.01s-.098-.068-.163-.068h-.533c-.068 0-.102.053-.166.072-.057.01-.106-.02-.163.008l-.15.076-.287.09c-.06.02-.08.083-.132.113-.034.023-.072.02-.098.045l.064-.12.182-.272c.023-.034.004-.076.023-.106.023-.05.072-.08.083-.128l.076-.3.102-.155.148-.147c.03-.026.023-.068.042-.09s.053-.015.068-.038l.163-.25.144-.14c.008-.004.015 0 .023-.008v-.004c.015 0 .03-.015.045-.02.023.004.038.023.057.023s.034-.02.053-.023c.01 0 .023.01.034.015.015.02.03.015.045.023.03.057.023.136.076.174h0c.053.057.14.06.208.094.026.026.06.034.087.057.034.045.064.076.102.106.14.174.333.3.567.3.068 0 .1-.057.174-.072l-.34.93zm23.185 16.83h0l.102-.113c.05.03.098.05.15.068-.023.03-.01.068-.03.094-.03.034-.076.042-.095.08l-.03.06-.05.023c-.253.12-.356.37-.374.627l-.216.144-.378.19-.117.06 1.036-1.232zm-5.33-12.804l.533.454c.004.004.015.004.023.008.144.12.306.174.47.174.132 0 .235-.094.356-.163.117.08.235.163.393.163h.488c.034.05.053.087.095.125.14.117.3.2.48.2.03 0 .06-.015.09-.02v.533c0 .008.01.015.01.023l-.287-.094c-.008-.004-.02.004-.03.004s-.01-.015-.023-.02l-.42-.113-.443-.106c-.023 0-.026-.008-.034-.008l-.484-.09-.265-.09c-.045-.015-.08.015-.125.008s-.076-.05-.117-.05h-.102c-.045 0-.072.042-.1.05-.03.004-.053.026-.08.034l-.068.026c-.087.038-.193.034-.265.106l-.1.106-.068.064c-.015-.02-.015-.057-.03-.076-.03-.023-.068-.015-.095-.034-.01-.015-.008-.042-.023-.057-.023-.02-.053-.015-.076-.03-.015-.023-.015-.06-.034-.08s-.042-.01-.06-.026-.01-.05-.026-.068c-.008-.004-.015-.004-.023-.008l-.27-.276-.3-.393c-.026-.03-.068-.03-.095-.057s-.023-.064-.05-.083l-.284-.223-.14-.268c-.02-.042-.068-.045-.087-.08-.026-.038-.015-.08-.05-.113l-.28-.28-.287-.385c.042.004.083.045.136.045.117 0 .223-.08.333-.136.125.08.265.136.412.136.023 0 .038-.015.06-.015-.034.045-.042.094-.064.147-.038.087-.106.163-.106.257 0 .008-.008.01-.008.02 0 .106.076.18.1.272.038.08.03.17.087.234.155.15.34.246.56.246h.775v.008zm8.265 1.814l-1.074 2.94-.05-.053-.174-.25c-.026-.042-.08-.042-.113-.076s-.038-.094-.08-.125l-.257-.178-.272-.268c-.02-.02-.045-.01-.068-.026s-.015-.045-.038-.06l-.272-.19-.265-.257c-.03-.03-.076-.02-.102-.042-.038-.026-.042-.076-.08-.09l-.42-.22c-.038-.02-.076.004-.1-.01l-.042-.057c-.026-.038-.072-.038-.098-.068-.01-.01-.01-.023-.023-.034h.775a.76.76 0 0 0 .367-.094l.96-.533c.026-.015.03-.053.057-.072s.068-.01.095-.038l1.48-1.372-.197 1.172zm-26.1 12.362c.008.008.004.015.008.02l.318.533c.008.01.026.008.034.02s.004.034.01.05l.295.385.212.325c.004.008.015.004.02.01s0 .02.008.026l.318.423v.004l.325.423c.01.015.038.01.05.026s.008.038.023.053l.412.408.322.33c.015.015.038.01.053.023.023.02.02.045.038.06l.4.3.306.306-.575-.208-3.276-1.83-.318-1.353.178-1.83.84 1.497zm-2.383 1.134l.257 1.107-.82-.563v-.544h.564zm-1.45 1.77l2.784 1.92c.03.023.072.02.102.034s.03.042.06.053l4.79 1.8c.03.01.06.008.087.015.008.004.01.015.02.015l3.938.85a.79.79 0 0 0 .159.019c.348 0 .666-.242.738-.597.042-.185-.008-.367-.095-.522l2.247.26.087.008a.8.8 0 0 0 .185-.023l4.176-1.04-1.184.865c-.337.246-.41.718-.163 1.054a.75.75 0 0 0 .609.31.76.76 0 0 0 .446-.147l1.596-1.172a.78.78 0 0 0 .291-.438l.242-1.077.518-.33.29.178v.072l-.412 1.073-1.982 1.697-4.2 1.636-2.826.608h-4.17l-5.432-1.67a.76.76 0 0 0-.946.503.76.76 0 0 0 .503.945l2.758.85-.556-.08-5.027-1.742-3.026-2.075h.09l1.61 1.138c.132.094.284.14.435.14.235 0 .473-.1.617-.32.238-.34.16-.813-.182-1.05l-1.422-1.01.163-.14 1.562 1.104c.03.023.076.02.102.034s.034.045.06.057l3.295 1.277c.087.034.185.053.272.053.303 0 .6-.185.707-.484.15-.39-.042-.828-.43-.98l-3.215-1.243-1.407-.998v-.82l.314-.363.817-.26z"/></g></g></svg>