<?xml version="1.0" encoding="UTF-8"?>
<svg width="2013px" height="1501px" viewBox="0 0 2013 1501" version="1.1" xmlns="http://www.w3.org/2000/svg" xmlns:xlink="http://www.w3.org/1999/xlink">
    <title>interview</title>
    <g id="interview" stroke="none" stroke-width="1" fill="none" fill-rule="evenodd">
        <rect fill="#FFFFFF" x="0" y="0" width="2013" height="1501"></rect>
        <g id="Group-8" transform="translate(911.000000, 1153.000000)">
            <g id="Group" fill="#005CB9" stroke="#005CB9">
                <rect id="Rectangle" x="0.5" y="0.5" width="918" height="210" rx="61"></rect>
                <path d="M940.563466,208.247273 C936.89234,206.12344 929.428566,200.584449 924.022843,187.083507 C920.413515,178.069111 917.71987,165.483222 917.71987,147.953807 L917.71987,89.3278298 C917.719902,85.2594381 916.382805,81.4329986 914.070741,78.333932 C911.758671,75.2348581 908.471629,72.8631606 904.57178,71.7042675 C899.705167,70.2580877 894.713096,70.921402 890.576134,73.1629144 C886.439171,75.4044267 883.157317,79.2241371 881.711137,84.0907495 L868.013609,130.18499 C866.351398,135.778579 865.507177,141.583225 865.507177,147.418564 C865.507177,164.125178 872.27887,179.250178 883.227216,190.198525 C894.175563,201.146871 909.300563,207.918564 926.007177,207.918564 L932.340391,207.918564 C936.194868,207.918564 938.856217,208.089982 940.563466,208.247273 Z" id="Rectangle"></path>
            </g>
            <text id="Is-there-anything-th" font-family="GillSans, Gill Sans" font-size="53" font-weight="normal" letter-spacing="-0.163076967" fill="#FFFFFF">
                <tspan x="56" y="94">Is there anything that you like or don’t </tspan>
                <tspan x="56" y="155">like about the website?</tspan>
            </text>
        </g>
        <g id="Group-8" transform="translate(159.000000, 136.000000)">
            <g id="Group" transform="translate(471.500000, 105.500000) scale(-1, 1) translate(-471.500000, -105.500000) " fill="#005CB9" stroke="#005CB9">
                <rect id="Rectangle" x="0.5" y="0.5" width="918" height="210" rx="61"></rect>
                <path d="M940.563466,208.247273 C936.89234,206.12344 929.428566,200.584449 924.022843,187.083507 C920.413515,178.069111 917.71987,165.483222 917.71987,147.953807 L917.71987,89.3278298 C917.719902,85.2594381 916.382805,81.4329986 914.070741,78.333932 C911.758671,75.2348581 908.471629,72.8631606 904.57178,71.7042675 C899.705167,70.2580877 894.713096,70.921402 890.576134,73.1629144 C886.439171,75.4044267 883.157317,79.2241371 881.711137,84.0907495 L868.013609,130.18499 C866.351398,135.778579 865.507177,141.583225 865.507177,147.418564 C865.507177,164.125178 872.27887,179.250178 883.227216,190.198525 C894.175563,201.146871 909.300563,207.918564 926.007177,207.918564 L932.340391,207.918564 C936.194868,207.918564 938.856217,208.089982 940.563466,208.247273 Z" id="Rectangle"></path>
            </g>
            <text id="Have-you-ever-attend" font-family="GillSans, Gill Sans" font-size="53" font-weight="normal" letter-spacing="-0.163076967" fill="#FFFFFF">
                <tspan x="75" y="94">Have you ever attended the Sun God</tspan>
                <tspan x="75" y="155">Festival? Why or why not?</tspan>
            </text>
        </g>
        <g id="Group-8" transform="translate(911.000000, 475.000000)">
            <g id="Group" fill="#005CB9" stroke="#005CB9">
                <rect id="Rectangle" x="0.5" y="0.5" width="918" height="210" rx="61"></rect>
                <path d="M940.563466,208.247273 C936.89234,206.12344 929.428566,200.584449 924.022843,187.083507 C920.413515,178.069111 917.71987,165.483222 917.71987,147.953807 L917.71987,89.3278298 C917.719902,85.2594381 916.382805,81.4329986 914.070741,78.333932 C911.758671,75.2348581 908.471629,72.8631606 904.57178,71.7042675 C899.705167,70.2580877 894.713096,70.921402 890.576134,73.1629144 C886.439171,75.4044267 883.157317,79.2241371 881.711137,84.0907495 L868.013609,130.18499 C866.351398,135.778579 865.507177,141.583225 865.507177,147.418564 C865.507177,164.125178 872.27887,179.250178 883.227216,190.198525 C894.175563,201.146871 909.300563,207.918564 926.007177,207.918564 L932.340391,207.918564 C936.194868,207.918564 938.856217,208.089982 940.563466,208.247273 Z" id="Rectangle"></path>
            </g>
            <text id="Do-you-know-how-to-r" font-family="GillSans, Gill Sans" font-size="53" font-weight="normal" letter-spacing="-0.163076967" fill="#FFFFFF">
                <tspan x="72" y="94">Do you know how to register for the</tspan>
                <tspan x="72" y="155">festival?</tspan>
            </text>
        </g>
        <g id="Group-8" transform="translate(159.000000, 814.000000)">
            <g id="Group" transform="translate(471.500000, 105.500000) scale(-1, 1) translate(-471.500000, -105.500000) " fill="#005CB9" stroke="#005CB9">
                <rect id="Rectangle" x="0.5" y="0.5" width="918" height="210" rx="61"></rect>
                <path d="M940.563466,208.247273 C936.89234,206.12344 929.428566,200.584449 924.022843,187.083507 C920.413515,178.069111 917.71987,165.483222 917.71987,147.953807 L917.71987,89.3278298 C917.719902,85.2594381 916.382805,81.4329986 914.070741,78.333932 C911.758671,75.2348581 908.471629,72.8631606 904.57178,71.7042675 C899.705167,70.2580877 894.713096,70.921402 890.576134,73.1629144 C886.439171,75.4044267 883.157317,79.2241371 881.711137,84.0907495 L868.013609,130.18499 C866.351398,135.778579 865.507177,141.583225 865.507177,147.418564 C865.507177,164.125178 872.27887,179.250178 883.227216,190.198525 C894.175563,201.146871 909.300563,207.918564 926.007177,207.918564 L932.340391,207.918564 C936.194868,207.918564 938.856217,208.089982 940.563466,208.247273 Z" id="Rectangle"></path>
            </g>
            <text id="What-do-you-normally" font-family="GillSans, Gill Sans" font-size="53" font-weight="normal" letter-spacing="-0.163076967" fill="#FFFFFF">
                <tspan x="99" y="93">What do you normally use the Sun</tspan>
                <tspan x="99" y="154">God Festival website for?</tspan>
            </text>
        </g>
    </g>
</svg>