<?xml version="1.0" encoding="UTF-8"?>
<svg width="1479px" height="984px" viewBox="0 0 1479 984" version="1.1" xmlns="http://www.w3.org/2000/svg" xmlns:xlink="http://www.w3.org/1999/xlink">
    <title>outcome</title>
    <g id="outcome" stroke="none" stroke-width="1" fill="none" fill-rule="evenodd">
        <rect fill="#FFFFFF" x="0" y="0" width="1479" height="984"></rect>
        <path d="M813.305714,133 L813.305714,127.16 L801.745714,127.16 L808.305714,121.32 C810.905714,119 813.265714,116.64 813.265714,112.6 C813.265714,106.68 808.225714,103.92 803.025714,103.92 C797.505714,103.92 792.865714,107.32 792.225714,113.04 L798.665714,113.92 C798.945714,111.4 800.425714,109.64 802.665714,109.64 C804.785714,109.64 806.185714,111.04 806.185714,113.04 C806.185714,114.76 805.265714,116.08 803.865714,117.4 L792.825714,127.4 L792.825714,133 L813.305714,133 Z M831.762857,133.76 C839.762857,133.76 842.802857,126.8 842.802857,118.76 C842.802857,110.76 839.762857,103.92 831.762857,103.92 C823.722857,103.92 820.642857,110.76 820.642857,118.76 C820.642857,126.8 823.722857,133.76 831.762857,133.76 Z M831.762857,128 C828.202857,128 827.522857,122.4 827.522857,118.76 C827.522857,115.2 828.202857,109.6 831.762857,109.6 C835.216442,109.6 835.897681,114.990673 835.922159,118.556363 L835.922857,118.76 C835.922857,122.4 835.282857,128 831.762857,128 Z M865.54,133 L865.54,104.68 L859.38,104.68 L850.06,111.52 L853.54,116.28 L858.82,112.2 L858.82,133 L865.54,133 Z M888.437143,133 L899.277143,110.04 L899.277143,104.68 L878.717143,104.68 L878.717143,110.44 L892.117143,110.44 L880.637143,133 L888.437143,133 Z" id="2017" fill="#000000" fill-rule="nonzero"></path>
        <path d="M1251.30571,133 L1251.30571,127.16 L1239.74571,127.16 L1246.30571,121.32 C1248.90571,119 1251.26571,116.64 1251.26571,112.6 C1251.26571,106.68 1246.22571,103.92 1241.02571,103.92 C1235.50571,103.92 1230.86571,107.32 1230.22571,113.04 L1236.66571,113.92 C1236.94571,111.4 1238.42571,109.64 1240.66571,109.64 C1242.78571,109.64 1244.18571,111.04 1244.18571,113.04 C1244.18571,114.76 1243.26571,116.08 1241.86571,117.4 L1230.82571,127.4 L1230.82571,133 L1251.30571,133 Z M1269.76286,133.76 C1277.76286,133.76 1280.80286,126.8 1280.80286,118.76 C1280.80286,110.76 1277.76286,103.92 1269.76286,103.92 C1261.72286,103.92 1258.64286,110.76 1258.64286,118.76 C1258.64286,126.8 1261.72286,133.76 1269.76286,133.76 Z M1269.76286,128 C1266.20286,128 1265.52286,122.4 1265.52286,118.76 C1265.52286,115.2 1266.20286,109.6 1269.76286,109.6 C1273.21644,109.6 1273.89768,114.990673 1273.92216,118.556363 L1273.92286,118.76 C1273.92286,122.4 1273.28286,128 1269.76286,128 Z M1303.54,133 L1303.54,104.68 L1297.38,104.68 L1288.06,111.52 L1291.54,116.28 L1296.82,112.2 L1296.82,133 L1303.54,133 Z M1327.11714,133.76 C1332.71714,133.76 1337.75714,130.88 1337.75714,124.92 C1337.75714,121.6 1335.51714,119 1332.67714,118.2 L1332.67714,118.08 C1335.19714,117.24 1336.99714,115 1336.99714,111.88 C1336.99714,106.64 1332.31714,103.92 1327.11714,103.92 C1321.87714,103.92 1317.23714,106.76 1317.23714,112 C1317.23714,115.12 1319.11714,117.2 1321.55714,118.12 L1321.55714,118.2 C1318.79714,119.08 1316.47714,121.52 1316.47714,124.96 C1316.47714,130.92 1321.51714,133.76 1327.11714,133.76 Z M1327.11714,115.72 C1325.03714,115.72 1323.75714,114.16 1323.75714,112.36 C1323.75714,110.52 1325.11714,109.12 1327.11714,109.12 C1328.99714,109.12 1330.51714,110.52 1330.51714,112.36 C1330.51714,114.16 1329.07714,115.72 1327.11714,115.72 Z M1327.11714,128.44 C1324.79714,128.44 1323.15714,126.96 1323.15714,124.68 C1323.15714,122.48 1324.79714,120.84 1327.11714,120.84 C1329.39714,120.84 1331.03714,122.52 1331.03714,124.68 C1331.03714,126.96 1329.43714,128.44 1327.11714,128.44 Z" id="2018" fill="#000000" fill-rule="nonzero"></path>
        <path d="M111.76,240 L112.96,231.64 L117.12,231.64 L115.92,240 L119.4,240 L120.64,231.64 L124.64,231.64 L124.64,228.28 L121.04,228.28 L121.72,223.4 L125.8,223.4 L125.8,220.04 L122.2,220.04 L123.4,211.68 L119.92,211.68 L118.72,220.04 L114.6,220.04 L115.8,211.68 L112.28,211.68 L111.08,220.04 L107.04,220.04 L107.04,223.4 L110.64,223.4 L109.92,228.28 L105.88,228.28 L105.88,231.64 L109.48,231.64 L108.28,240 L111.76,240 Z M117.56,228.28 L113.44,228.28 L114.12,223.4 L118.24,223.4 L117.56,228.28 Z M153.194286,240.56 C156.034286,240.56 158.314286,238.84 159.154286,236.92 L159.234286,236.92 L159.234286,240 L163.794286,240 L163.794286,220.8 L158.994286,220.8 L158.994286,231.36 C158.994286,233.92 157.554286,236.56 154.514286,236.56 C151.434286,236.56 150.914286,233.72 150.914286,231.44 L150.914286,220.8 L146.114286,220.8 L146.114286,232.8 C146.114286,236.72 148.194286,240.56 153.194286,240.56 Z M177.211429,240 L177.211429,229.44 C177.211429,226.88 178.651429,224.24 181.691429,224.24 C184.771429,224.24 185.291429,227.08 185.291429,229.36 L185.291429,240 L190.091429,240 L190.091429,228 C190.091429,224.08 188.011429,220.24 183.011429,220.24 C180.171429,220.24 177.891429,221.96 177.051429,223.88 L176.971429,223.88 L176.971429,220.8 L172.411429,220.8 L172.411429,240 L177.211429,240 Z M200.988571,217.16 C202.748571,217.16 204.108571,215.92 204.108571,214.28 C204.108571,212.64 202.748571,211.4 200.988571,211.4 C199.228571,211.4 197.948571,212.76 197.948571,214.28 C197.948571,215.8 199.228571,217.16 200.988571,217.16 Z M203.428571,240 L203.428571,220.8 L198.628571,220.8 L198.628571,240 L203.428571,240 Z M231.645714,249.6 L231.645714,220.8 L227.045714,220.8 L227.045714,223.48 L226.925714,223.48 C225.965714,221.96 223.805714,220.24 220.285714,220.24 C214.805714,220.24 210.965714,224.64 210.965714,230.32 C210.965714,235.92 214.565714,240.56 220.405714,240.56 C223.085714,240.56 225.525714,239.36 226.765714,237.44 L226.845714,237.44 L226.845714,249.6 L231.645714,249.6 Z M221.365714,236.56 C217.645714,236.56 215.845714,233.32 215.845714,230.32 C215.845714,227.32 217.645714,224.16 221.365714,224.16 C224.885714,224.16 227.005714,227.4 227.005714,230.4 C227.005714,233.4 224.885714,236.56 221.365714,236.56 Z M247.182857,240.56 C250.022857,240.56 252.302857,238.84 253.142857,236.92 L253.222857,236.92 L253.222857,240 L257.782857,240 L257.782857,220.8 L252.982857,220.8 L252.982857,231.36 C252.982857,233.92 251.542857,236.56 248.502857,236.56 C245.422857,236.56 244.902857,233.72 244.902857,231.44 L244.902857,220.8 L240.102857,220.8 L240.102857,232.8 C240.102857,236.72 242.182857,240.56 247.182857,240.56 Z M275.6,240.56 C279.24,240.56 281.96,239.28 283.84,236.72 L280.64,234.16 C279.56,235.68 277.96,236.64 275.56,236.64 C272.76,236.64 270.28,234.64 270.08,231.92 L284.68,231.92 C284.72,231.48 284.72,231.08 284.72,230.64 C284.72,223.72 280.8,220.24 275.44,220.24 C269.64,220.24 265.28,224.32 265.28,230.52 C265.28,236.76 269.68,240.56 275.6,240.56 Z M279.92,228.48 L270.08,228.48 C270.28,225.8 272.56,223.84 275.4,223.84 C278.52,223.84 279.92,226 279.92,228.48 Z M315.074286,240 L322.714286,220.8 L317.634286,220.8 L312.554286,234.8 L312.474286,234.8 L307.434286,220.8 L302.194286,220.8 L309.954286,240 L315.074286,240 Z M330.891429,217.16 C332.651429,217.16 334.011429,215.92 334.011429,214.28 C334.011429,212.64 332.651429,211.4 330.891429,211.4 C329.131429,211.4 327.851429,212.76 327.851429,214.28 C327.851429,215.8 329.131429,217.16 330.891429,217.16 Z M333.331429,240 L333.331429,220.8 L328.531429,220.8 L328.531429,240 L333.331429,240 Z M347.628571,240.56 C351.828571,240.56 355.628571,238.84 355.628571,234.16 C355.628571,230.4 352.268571,229.12 349.428571,228.44 C346.748571,227.8 345.268571,227.4 345.268571,225.92 C345.268571,224.4 346.828571,223.84 348.348571,223.84 C350.108571,223.84 351.708571,224.8 352.548571,225.92 L355.668571,223.16 C354.108571,221.2 351.228571,220.24 348.468571,220.24 C344.668571,220.24 340.828571,222.08 340.828571,226.36 C340.828571,229.96 343.668571,231.12 346.508571,231.8 C349.428571,232.48 350.908571,232.96 350.908571,234.56 C350.908571,236.28 349.228571,236.84 347.828571,236.84 C345.748571,236.84 343.948571,235.8 342.908571,234.44 L339.748571,237.4 C341.588571,239.44 344.668571,240.56 347.628571,240.56 Z M365.085714,217.16 C366.845714,217.16 368.205714,215.92 368.205714,214.28 C368.205714,212.64 366.845714,211.4 365.085714,211.4 C363.325714,211.4 362.045714,212.76 362.045714,214.28 C362.045714,215.8 363.325714,217.16 365.085714,217.16 Z M367.525714,240 L367.525714,220.8 L362.725714,220.8 L362.725714,240 L367.525714,240 Z M383.062857,240.4 C384.142857,240.4 385.422857,240.2 386.262857,239.88 L386.102857,236.12 C385.542857,236.4 384.702857,236.52 384.062857,236.52 C381.942857,236.52 381.542857,235.28 381.542857,233.56 L381.542857,224.64 L386.342857,224.64 L386.342857,220.8 L381.542857,220.8 L381.542857,215.24 L376.822857,215.24 L376.822857,220.8 L373.462857,220.8 L373.462857,224.64 L376.822857,224.64 L376.822857,233.6 C376.822857,237.28 377.982857,240.4 383.062857,240.4 Z M402,240.56 C407.8,240.56 412.44,236.36 412.44,230.32 C412.44,224.28 407.8,220.24 402,220.24 C396.2,220.24 391.56,224.28 391.56,230.32 C391.56,236.36 396.2,240.56 402,240.56 Z M402,236.56 C398.2,236.56 396.44,233.32 396.44,230.32 C396.44,227.32 398.2,224.16 402,224.16 C405.8,224.16 407.56,227.32 407.56,230.32 C407.56,233.32 405.8,236.56 402,236.56 Z M424.737143,240 L424.737143,229.72 C424.737143,228.32 425.577143,224.56 429.897143,224.56 C430.337143,224.56 430.737143,224.6 431.377143,224.76 L431.377143,220.36 C431.057143,220.28 430.577143,220.24 430.217143,220.24 C427.697143,220.24 425.657143,221.8 424.617143,224 L424.537143,224 L424.537143,220.8 L419.937143,220.8 L419.937143,240 L424.737143,240 Z M442.954286,240.56 C447.154286,240.56 450.954286,238.84 450.954286,234.16 C450.954286,230.4 447.594286,229.12 444.754286,228.44 C442.074286,227.8 440.594286,227.4 440.594286,225.92 C440.594286,224.4 442.154286,223.84 443.674286,223.84 C445.434286,223.84 447.034286,224.8 447.874286,225.92 L450.994286,223.16 C449.434286,221.2 446.554286,220.24 443.794286,220.24 C439.994286,220.24 436.154286,222.08 436.154286,226.36 C436.154286,229.96 438.994286,231.12 441.834286,231.8 C444.754286,232.48 446.234286,232.96 446.234286,234.56 C446.234286,236.28 444.554286,236.84 443.154286,236.84 C441.074286,236.84 439.274286,235.8 438.234286,234.44 L435.074286,237.4 C436.914286,239.44 439.994286,240.56 442.954286,240.56 Z" id="#uniquevisitors" fill="#132925" fill-rule="nonzero"></path>
        <path d="M117.88,400 L117.88,376.08 L126.56,376.08 L126.56,371.68 L104.16,371.68 L104.16,376.08 L112.84,376.08 L112.84,400 L117.88,400 Z M134.417143,377.16 C136.177143,377.16 137.537143,375.92 137.537143,374.28 C137.537143,372.64 136.177143,371.4 134.417143,371.4 C132.657143,371.4 131.377143,372.76 131.377143,374.28 C131.377143,375.8 132.657143,377.16 134.417143,377.16 Z M136.857143,400 L136.857143,380.8 L132.057143,380.8 L132.057143,400 L136.857143,400 Z M150.354286,400 L150.354286,389.44 C150.354286,386.88 151.674286,384.24 154.554286,384.24 C156.994286,384.24 158.114286,386.04 158.114286,388.4 L158.114286,400 L162.914286,400 L162.914286,389.52 C162.914286,387.04 164.154286,384.24 167.154286,384.24 C170.234286,384.24 170.754286,387.08 170.754286,389.36 L170.754286,400 L175.554286,400 L175.554286,388 C175.554286,384.08 173.474286,380.24 168.474286,380.24 C165.594286,380.24 163.434286,381.56 162.154286,383.88 C161.074286,381.72 159.114286,380.24 156.154286,380.24 C153.074286,380.24 151.034286,382 150.194286,383.88 L150.114286,383.88 L150.114286,380.8 L145.554286,380.8 L145.554286,400 L150.354286,400 Z M193.211429,400.56 C196.851429,400.56 199.571429,399.28 201.451429,396.72 L198.251429,394.16 C197.171429,395.68 195.571429,396.64 193.171429,396.64 C190.371429,396.64 187.891429,394.64 187.691429,391.92 L202.291429,391.92 C202.331429,391.48 202.331429,391.08 202.331429,390.64 C202.331429,383.72 198.411429,380.24 193.051429,380.24 C187.251429,380.24 182.891429,384.32 182.891429,390.52 C182.891429,396.76 187.291429,400.56 193.211429,400.56 Z M197.531429,388.48 L187.691429,388.48 C187.891429,385.8 190.171429,383.84 193.011429,383.84 C196.131429,383.84 197.531429,386 197.531429,388.48 Z M227.485714,409.6 L227.485714,397.44 L227.565714,397.44 C228.805714,399.36 231.245714,400.56 233.925714,400.56 C239.765714,400.56 243.365714,395.92 243.365714,390.32 C243.365714,384.64 239.525714,380.24 234.045714,380.24 C230.525714,380.24 228.365714,381.96 227.405714,383.48 L227.285714,383.48 L227.285714,380.8 L222.685714,380.8 L222.685714,409.6 L227.485714,409.6 Z M232.965714,396.56 C229.445714,396.56 227.325714,393.4 227.325714,390.4 C227.325714,387.4 229.445714,384.16 232.965714,384.16 C236.685714,384.16 238.485714,387.32 238.485714,390.32 C238.485714,393.32 236.685714,396.56 232.965714,396.56 Z M260.062857,400.56 C263.702857,400.56 266.422857,399.28 268.302857,396.72 L265.102857,394.16 C264.022857,395.68 262.422857,396.64 260.022857,396.64 C257.222857,396.64 254.742857,394.64 254.542857,391.92 L269.142857,391.92 C269.182857,391.48 269.182857,391.08 269.182857,390.64 C269.182857,383.72 265.262857,380.24 259.902857,380.24 C254.102857,380.24 249.742857,384.32 249.742857,390.52 C249.742857,396.76 254.142857,400.56 260.062857,400.56 Z M264.382857,388.48 L254.542857,388.48 C254.742857,385.8 257.022857,383.84 259.862857,383.84 C262.982857,383.84 264.382857,386 264.382857,388.48 Z M281.48,400 L281.48,389.72 C281.48,388.32 282.32,384.56 286.64,384.56 C287.08,384.56 287.48,384.6 288.12,384.76 L288.12,380.36 C287.8,380.28 287.32,380.24 286.96,380.24 C284.44,380.24 282.4,381.8 281.36,384 L281.28,384 L281.28,380.8 L276.68,380.8 L276.68,400 L281.48,400 Z M312.554286,400.56 C316.754286,400.56 320.554286,398.84 320.554286,394.16 C320.554286,390.4 317.194286,389.12 314.354286,388.44 C311.674286,387.8 310.194286,387.4 310.194286,385.92 C310.194286,384.4 311.754286,383.84 313.274286,383.84 C315.034286,383.84 316.634286,384.8 317.474286,385.92 L320.594286,383.16 C319.034286,381.2 316.154286,380.24 313.394286,380.24 C309.594286,380.24 305.754286,382.08 305.754286,386.36 C305.754286,389.96 308.594286,391.12 311.434286,391.8 C314.354286,392.48 315.834286,392.96 315.834286,394.56 C315.834286,396.28 314.154286,396.84 312.754286,396.84 C310.674286,396.84 308.874286,395.8 307.834286,394.44 L304.674286,397.4 C306.514286,399.44 309.594286,400.56 312.554286,400.56 Z M336.771429,400.56 C340.411429,400.56 343.131429,399.28 345.011429,396.72 L341.811429,394.16 C340.731429,395.68 339.131429,396.64 336.731429,396.64 C333.931429,396.64 331.451429,394.64 331.251429,391.92 L345.851429,391.92 C345.891429,391.48 345.891429,391.08 345.891429,390.64 C345.891429,383.72 341.971429,380.24 336.611429,380.24 C330.811429,380.24 326.451429,384.32 326.451429,390.52 C326.451429,396.76 330.851429,400.56 336.771429,400.56 Z M341.091429,388.48 L331.251429,388.48 C331.451429,385.8 333.731429,383.84 336.571429,383.84 C339.691429,383.84 341.091429,386 341.091429,388.48 Z M358.988571,400.56 C363.188571,400.56 366.988571,398.84 366.988571,394.16 C366.988571,390.4 363.628571,389.12 360.788571,388.44 C358.108571,387.8 356.628571,387.4 356.628571,385.92 C356.628571,384.4 358.188571,383.84 359.708571,383.84 C361.468571,383.84 363.068571,384.8 363.908571,385.92 L367.028571,383.16 C365.468571,381.2 362.588571,380.24 359.828571,380.24 C356.028571,380.24 352.188571,382.08 352.188571,386.36 C352.188571,389.96 355.028571,391.12 357.868571,391.8 C360.788571,392.48 362.268571,392.96 362.268571,394.56 C362.268571,396.28 360.588571,396.84 359.188571,396.84 C357.108571,396.84 355.308571,395.8 354.268571,394.44 L351.108571,397.4 C352.948571,399.44 356.028571,400.56 358.988571,400.56 Z M379.605714,400.56 C383.805714,400.56 387.605714,398.84 387.605714,394.16 C387.605714,390.4 384.245714,389.12 381.405714,388.44 C378.725714,387.8 377.245714,387.4 377.245714,385.92 C377.245714,384.4 378.805714,383.84 380.325714,383.84 C382.085714,383.84 383.685714,384.8 384.525714,385.92 L387.645714,383.16 C386.085714,381.2 383.205714,380.24 380.445714,380.24 C376.645714,380.24 372.805714,382.08 372.805714,386.36 C372.805714,389.96 375.645714,391.12 378.485714,391.8 C381.405714,392.48 382.885714,392.96 382.885714,394.56 C382.885714,396.28 381.205714,396.84 379.805714,396.84 C377.725714,396.84 375.925714,395.8 374.885714,394.44 L371.725714,397.4 C373.565714,399.44 376.645714,400.56 379.605714,400.56 Z M397.062857,377.16 C398.822857,377.16 400.182857,375.92 400.182857,374.28 C400.182857,372.64 398.822857,371.4 397.062857,371.4 C395.302857,371.4 394.022857,372.76 394.022857,374.28 C394.022857,375.8 395.302857,377.16 397.062857,377.16 Z M399.502857,400 L399.502857,380.8 L394.702857,380.8 L394.702857,400 L399.502857,400 Z M417.52,400.56 C423.32,400.56 427.96,396.36 427.96,390.32 C427.96,384.28 423.32,380.24 417.52,380.24 C411.72,380.24 407.08,384.28 407.08,390.32 C407.08,396.36 411.72,400.56 417.52,400.56 Z M417.52,396.56 C413.72,396.56 411.96,393.32 411.96,390.32 C411.96,387.32 413.72,384.16 417.52,384.16 C421.32,384.16 423.08,387.32 423.08,390.32 C423.08,393.32 421.32,396.56 417.52,396.56 Z M440.257143,400 L440.257143,389.44 C440.257143,386.88 441.697143,384.24 444.737143,384.24 C447.817143,384.24 448.337143,387.08 448.337143,389.36 L448.337143,400 L453.137143,400 L453.137143,388 C453.137143,384.08 451.057143,380.24 446.057143,380.24 C443.217143,380.24 440.937143,381.96 440.097143,383.88 L440.017143,383.88 L440.017143,380.8 L435.457143,380.8 L435.457143,400 L440.257143,400 Z" id="Timepersession" fill="#132925" fill-rule="nonzero"></path>
        <path d="M117.32,560 C122.68,560 128.04,557.92 128.04,551.76 C128.04,547.96 125.48,545.56 121.92,545.08 L121.92,545 C124.84,544.12 126.84,542 126.84,538.8 C126.84,533.64 122.44,531.68 118.16,531.68 L107.12,531.68 L107.12,560 L117.32,560 Z M116.64,543.2 L112.16,543.2 L112.16,535.84 L116.2,535.84 C120,535.84 121.8,536.84 121.8,539.36 C121.8,541.8 120,543.2 116.64,543.2 Z M116.847432,555.759268 L112.16,555.76 L112.16,547.52 L116.88,547.52 C120.96,547.52 123,548.56 123,551.52 C123,555.160851 119.436614,555.736424 116.847432,555.759268 Z M144.937143,560.56 C150.737143,560.56 155.377143,556.36 155.377143,550.32 C155.377143,544.28 150.737143,540.24 144.937143,540.24 C139.137143,540.24 134.497143,544.28 134.497143,550.32 C134.497143,556.36 139.137143,560.56 144.937143,560.56 Z M144.937143,556.56 C141.137143,556.56 139.377143,553.32 139.377143,550.32 C139.377143,547.32 141.137143,544.16 144.937143,544.16 C148.737143,544.16 150.497143,547.32 150.497143,550.32 C150.497143,553.32 148.737143,556.56 144.937143,556.56 Z M169.794286,560.56 C172.634286,560.56 174.914286,558.84 175.754286,556.92 L175.834286,556.92 L175.834286,560 L180.394286,560 L180.394286,540.8 L175.594286,540.8 L175.594286,551.36 C175.594286,553.92 174.154286,556.56 171.114286,556.56 C168.034286,556.56 167.514286,553.72 167.514286,551.44 L167.514286,540.8 L162.714286,540.8 L162.714286,552.8 C162.714286,556.72 164.794286,560.56 169.794286,560.56 Z M193.811429,560 L193.811429,549.44 C193.811429,546.88 195.251429,544.24 198.291429,544.24 C201.371429,544.24 201.891429,547.08 201.891429,549.36 L201.891429,560 L206.691429,560 L206.691429,548 C206.691429,544.08 204.611429,540.24 199.611429,540.24 C196.771429,540.24 194.491429,541.96 193.651429,543.88 L193.571429,543.88 L193.571429,540.8 L189.011429,540.8 L189.011429,560 L193.811429,560 Z M224.428571,560.56 C227.268571,560.56 229.908571,559.6 231.508571,557.88 L228.508571,554.84 C227.588571,555.96 225.948571,556.56 224.468571,556.56 C220.828571,556.56 219.028571,553.4 219.028571,550.4 C219.028571,547.4 220.788571,544.24 224.308571,544.24 C225.868571,544.24 227.508571,545.04 228.268571,546.12 L231.548571,543.24 C230.028571,541.36 227.108571,540.24 224.308571,540.24 C218.668571,540.24 214.028571,544.16 214.028571,550.4 C214.028571,556.8 218.748571,560.56 224.428571,560.56 Z M246.725714,560.56 C250.365714,560.56 253.085714,559.28 254.965714,556.72 L251.765714,554.16 C250.685714,555.68 249.085714,556.64 246.685714,556.64 C243.885714,556.64 241.405714,554.64 241.205714,551.92 L255.805714,551.92 C255.845714,551.48 255.845714,551.08 255.845714,550.64 C255.845714,543.72 251.925714,540.24 246.565714,540.24 C240.765714,540.24 236.405714,544.32 236.405714,550.52 C236.405714,556.76 240.805714,560.56 246.725714,560.56 Z M251.045714,548.48 L241.205714,548.48 C241.405714,545.8 243.685714,543.84 246.525714,543.84 C249.645714,543.84 251.045714,546 251.045714,548.48 Z M281,560 L281,549.72 C281,548.32 281.84,544.56 286.16,544.56 C286.6,544.56 287,544.6 287.64,544.76 L287.64,540.36 C287.32,540.28 286.84,540.24 286.48,540.24 C283.96,540.24 281.92,541.8 280.88,544 L280.8,544 L280.8,540.8 L276.2,540.8 L276.2,560 L281,560 Z M298.937143,560.48 C301.657143,560.48 303.937143,559.24 304.897143,557.56 L305.017143,557.56 L305.017143,560 L309.497143,560 L309.497143,548.32 C309.497143,544.48 307.817143,540.24 300.937143,540.24 C298.017143,540.24 294.977143,541.28 292.817143,543.28 L295.297143,546.2 C296.537143,544.96 298.497143,544 300.537143,544 C302.937143,544 304.937143,545.16 304.937143,547.52 L304.937143,548 C298.937143,548 291.737143,548.8 291.737143,554.52 C291.737143,559 295.857143,560.48 298.937143,560.48 Z M299.897143,556.84 C298.257143,556.84 296.537143,556.28 296.537143,554.44 C296.537143,551.661739 300.633079,551.256824 303.657181,551.240532 L304.937143,551.24 L304.937143,551.92 C304.937143,554.96 303.177143,556.84 299.897143,556.84 Z M324.394286,560.4 C325.474286,560.4 326.754286,560.2 327.594286,559.88 L327.434286,556.12 C326.874286,556.4 326.034286,556.52 325.394286,556.52 C323.274286,556.52 322.874286,555.28 322.874286,553.56 L322.874286,544.64 L327.674286,544.64 L327.674286,540.8 L322.874286,540.8 L322.874286,535.24 L318.154286,535.24 L318.154286,540.8 L314.794286,540.8 L314.794286,544.64 L318.154286,544.64 L318.154286,553.6 C318.154286,557.28 319.314286,560.4 324.394286,560.4 Z M343.211429,560.56 C346.851429,560.56 349.571429,559.28 351.451429,556.72 L348.251429,554.16 C347.171429,555.68 345.571429,556.64 343.171429,556.64 C340.371429,556.64 337.891429,554.64 337.691429,551.92 L352.291429,551.92 C352.331429,551.48 352.331429,551.08 352.331429,550.64 C352.331429,543.72 348.411429,540.24 343.051429,540.24 C337.251429,540.24 332.891429,544.32 332.891429,550.52 C332.891429,556.76 337.291429,560.56 343.211429,560.56 Z M347.531429,548.48 L337.691429,548.48 C337.891429,545.8 340.171429,543.84 343.011429,543.84 C346.131429,543.84 347.531429,546 347.531429,548.48 Z" id="Bouncerate" fill="#132925" fill-rule="nonzero"></path>
        <path d="M814.074286,560.72 C819.674286,560.72 823.474286,556.72 823.474286,551.24 C823.474286,545.96 819.594286,542.36 814.274286,542.36 C812.994286,542.36 811.554286,542.56 810.354286,543 L810.554286,534.24 L822.354286,534.24 L822.354286,531.68 L807.914286,531.68 L807.634286,546.28 C809.434286,545.32 811.474286,544.72 813.514286,544.72 C817.554286,544.72 820.554286,547.32 820.554286,551.52 C820.554286,555.36 817.754286,558.24 813.914286,558.24 C811.434286,558.24 809.194286,556.72 808.194286,554.4 L805.594286,555.56 C807.154286,558.68 809.994286,560.72 814.074286,560.72 Z M849.571429,560 L849.571429,557.44 L834.571429,557.44 L844.771429,547.32 C847.251429,544.84 849.371429,542.4 849.371429,538.76 C849.371429,533.6 845.411429,530.96 840.851429,530.96 C836.411429,530.96 832.971429,533.88 832.171429,537.88 L835.011429,538.44 C835.611429,535.52 837.811429,533.4 840.851429,533.4 C843.891429,533.4 846.451429,535.52 846.451429,538.8 C846.451429,541.4 844.771429,543.52 843.051429,545.28 L831.451429,557 L831.451429,560 L849.571429,560 Z M864.148571,561.24 L882.148571,531.52 L880.108571,530.44 L862.068571,560.16 L864.148571,561.24 Z M864.028571,545.2 C867.988571,545.2 871.068571,542.12 871.068571,538.2 C871.068571,534.28 867.988571,531.2 864.028571,531.2 C860.068571,531.2 856.988571,534.28 856.988571,538.2 C856.988571,542.12 860.068571,545.2 864.028571,545.2 Z M864.028571,542.8 C861.508571,542.8 859.388571,540.84 859.388571,538.2 C859.388571,535.56 861.508571,533.6 864.028571,533.6 C866.548571,533.6 868.668571,535.56 868.668571,538.2 C868.668571,540.84 866.548571,542.8 864.028571,542.8 Z M880.228571,560.48 C884.188571,560.48 887.268571,557.4 887.268571,553.48 C887.268571,549.56 884.188571,546.48 880.228571,546.48 C876.268571,546.48 873.188571,549.56 873.188571,553.48 C873.188571,557.4 876.268571,560.48 880.228571,560.48 Z M880.228571,558.08 C877.708571,558.08 875.588571,556.12 875.588571,553.48 C875.588571,550.84 877.708571,548.88 880.228571,548.88 C882.748571,548.88 884.868571,550.84 884.868571,553.48 C884.868571,556.12 882.748571,558.08 880.228571,558.08 Z" id="52%" fill="#000000" fill-rule="nonzero"></path>
        <path d="M775.98,390.6 C778.58,390.6 780.34,388.56 781.42,386.88 L779.74,385.28 C779.02,386.48 777.7,388.2 775.86,388.2 C774.58,388.2 773.3,387.56 771.74,386.56 C770.1,385.48 768.82,385.16 767.34,385.16 C764.74,385.16 763.1,387.2 761.9,388.88 L763.58,390.48 C764.3,389.16 765.58,387.56 767.42,387.56 C768.82,387.56 769.9,388.12 771.54,389.16 C773.42,390.36 774.46,390.6 775.98,390.6 Z M802.157143,400 L802.157143,371.68 L799.597143,371.68 L792.397143,377.6 L794.157143,379.6 L799.277143,375.24 L799.277143,400 L802.157143,400 Z M820.214286,400 L820.214286,390.4 C820.214286,385.4 823.054286,383.08 825.654286,383.08 C829.294286,383.08 830.174286,385.44 830.174286,389.08 L830.174286,400 L832.894286,400 L832.894286,390.04 C832.894286,386.56 834.294286,383.08 838.214286,383.08 C841.734286,383.08 843.054286,385.72 843.054286,389.64 L843.054286,400 L845.774286,400 L845.774286,388.52 C845.774286,383.88 843.414286,380.8 838.654286,380.8 C835.654286,380.8 833.374286,382.2 832.094286,384.76 C830.854286,381.56 828.374286,380.8 826.334286,380.8 C823.654286,380.8 821.254286,382.32 820.174286,384.48 L820.094286,384.48 C820.094286,383.68 820.014286,382.28 819.934286,381.28 L817.334286,381.28 C817.454286,382.56 817.494286,384.4 817.494286,385.4 L817.494286,400 L820.214286,400 Z M875.848571,400.72 C880.768571,400.72 884.968571,397.56 884.968571,392.16 C884.968571,388.36 882.488571,385.8 879.248571,385.12 L879.248571,385.04 C882.048571,384.28 884.168571,381.88 884.168571,378.56 C884.168571,373.64 880.328571,370.96 875.888571,370.96 C872.448571,370.96 869.648571,372.4 867.888571,375.44 L870.328571,376.72 C871.448571,374.56 873.368571,373.4 875.728571,373.4 C878.768571,373.4 881.328571,375.56 881.328571,378.72 C881.328571,382.48 878.368571,383.92 874.728571,383.92 L873.488571,383.92 L873.488571,386.4 L874.728571,386.4 C878.448571,386.4 882.088571,387.88 882.088571,392.16 C882.088571,395.96 879.088571,398.24 875.848571,398.24 C872.968571,398.24 870.568571,396.6 869.608571,393.92 L866.888571,394.92 C868.488571,398.64 871.728571,400.72 875.848571,400.72 Z M911.145714,400 L911.145714,397.44 L896.145714,397.44 L906.345714,387.32 C908.825714,384.84 910.945714,382.4 910.945714,378.76 C910.945714,373.6 906.985714,370.96 902.425714,370.96 C897.985714,370.96 894.545714,373.88 893.745714,377.88 L896.585714,378.44 C897.185714,375.52 899.385714,373.4 902.425714,373.4 C905.465714,373.4 908.025714,375.52 908.025714,378.8 C908.025714,381.4 906.345714,383.52 904.625714,385.28 L893.025714,397 L893.025714,400 L911.145714,400 Z M925.962857,400.48 C929.402857,400.48 933.002857,398.96 933.002857,394.68 C933.002857,391.76 930.922857,390.12 926.522857,389.2 C923.442857,388.56 922.042857,387.76 922.042857,386 C922.042857,383.92 924.042857,383.08 926.002857,383.08 C928.082857,383.08 929.802857,384.16 930.602857,385.72 L932.682857,384.16 C931.482857,382.04 928.722857,380.8 926.122857,380.8 C922.722857,380.8 919.442857,382.44 919.442857,386.24 C919.442857,389.8 922.602857,390.76 924.802857,391.28 C928.362857,392.12 930.322857,392.92 930.322857,394.88 C930.322857,397.32 928.242857,398.16 925.922857,398.16 C923.722857,398.16 921.682857,396.88 920.722857,395.24 L918.562857,396.84 C920.282857,399.36 923.122857,400.48 925.962857,400.48 Z" id="~1m32s" fill="#000000" fill-rule="nonzero"></path>
        <path d="M796.388571,240 L796.388571,237.44 L781.388571,237.44 L791.588571,227.32 C794.068571,224.84 796.188571,222.4 796.188571,218.76 C796.188571,213.6 792.228571,210.96 787.668571,210.96 C783.228571,210.96 779.788571,213.88 778.988571,217.88 L781.828571,218.44 C782.428571,215.52 784.628571,213.4 787.668571,213.4 C790.708571,213.4 793.268571,215.52 793.268571,218.8 C793.268571,221.4 791.588571,223.52 789.868571,225.28 L778.268571,237 L778.268571,240 L796.388571,240 Z M813.885714,240.72 C819.205714,240.72 823.085714,237.08 823.085714,231.8 C823.085714,226.64 819.365714,223.08 814.445714,223.08 C813.005714,223.08 811.245714,223.48 810.405714,224.12 L810.325714,224.04 L818.285714,211.68 L814.965714,211.68 L807.245714,224.12 C805.845714,226.4 804.685714,228.88 804.685714,231.8 C804.685714,237.08 808.565714,240.72 813.885714,240.72 Z M813.885714,238.28 C810.165714,238.28 807.565714,235.48 807.565714,231.8 C807.565714,228.16 810.005714,225.4 813.885714,225.4 C817.765714,225.4 820.205714,228.16 820.205714,231.8 C820.205714,235.48 817.605714,238.28 813.885714,238.28 Z M832.422857,245.6 L835.662857,236.2 L832.822857,236.2 L830.142857,245.6 L832.422857,245.6 Z M855.92,240 L855.92,211.68 L853.36,211.68 L846.16,217.6 L847.92,219.6 L853.04,215.24 L853.04,240 L855.92,240 Z M879.257143,240.72 C886.297143,240.72 888.537143,233.24 888.537143,225.88 C888.537143,218.52 886.297143,210.96 879.257143,210.96 C872.137143,210.96 869.977143,218.52 869.977143,225.88 C869.977143,233.24 872.137143,240.72 879.257143,240.72 Z M879.257143,238.24 C874.217143,238.24 872.897143,231.52 872.897143,225.88 C872.897143,220.24 874.217143,213.4 879.257143,213.4 C884.217143,213.4 885.617143,220.24 885.617143,225.88 C885.617143,231.52 884.217143,238.24 879.257143,238.24 Z M904.434286,240.72 C910.034286,240.72 913.834286,236.72 913.834286,231.24 C913.834286,225.96 909.954286,222.36 904.634286,222.36 C903.354286,222.36 901.914286,222.56 900.714286,223 L900.914286,214.24 L912.714286,214.24 L912.714286,211.68 L898.274286,211.68 L897.994286,226.28 C899.794286,225.32 901.834286,224.72 903.874286,224.72 C907.914286,224.72 910.914286,227.32 910.914286,231.52 C910.914286,235.36 908.114286,238.24 904.274286,238.24 C901.794286,238.24 899.554286,236.72 898.554286,234.4 L895.954286,235.56 C897.514286,238.68 900.354286,240.72 904.434286,240.72 Z" id="26,105" fill="#000000" fill-rule="nonzero"></path>
        <path d="M775.64,723.36 L775.64,720.48 C780.24,720.4 783.76,717.36 783.76,712.92 C783.76,707.72 779.68,705.84 775.64,704.44 L775.64,693.44 C777.56,693.48 779.6,694.36 780.84,696.12 L783.04,694.44 C781.24,692.32 778.2,691.28 775.64,691.2 L775.64,688.32 L773.72,688.32 L773.72,691.2 C769.56,691.4 766,694.16 766,698.8 C766,703.68 770.08,705.56 773.72,706.68 L773.72,718.16 C772.04,718.12 769,717.04 767.56,714.64 L765.28,716.24 C767.2,718.68 770.12,720.4 773.72,720.48 L773.72,723.36 L775.64,723.36 Z M773.72,703.76 C770.76,702.96 768.76,701.44 768.76,698.56 C768.76,695.56 770.96,693.52 773.72,693.44 L773.72,703.76 Z M775.64,718.16 L775.64,707.16 C778.68,708.12 780.88,710 780.88,712.72 C780.88,716.68 778,718.08 775.64,718.16 Z M803.577143,720 L803.577143,691.68 L801.017143,691.68 L793.817143,697.6 L795.577143,699.6 L800.697143,695.24 L800.697143,720 L803.577143,720 Z M835.474286,720 L835.474286,717.44 L820.474286,717.44 L830.674286,707.32 C833.154286,704.84 835.274286,702.4 835.274286,698.76 C835.274286,693.6 831.314286,690.96 826.754286,690.96 C822.314286,690.96 818.874286,693.88 818.074286,697.88 L820.914286,698.44 C821.514286,695.52 823.714286,693.4 826.754286,693.4 C829.794286,693.4 832.354286,695.52 832.354286,698.8 C832.354286,701.4 830.674286,703.52 828.954286,705.28 L817.354286,717 L817.354286,720 L835.474286,720 Z M845.451429,725.6 L848.691429,716.2 L845.851429,716.2 L843.171429,725.6 L845.451429,725.6 Z M866.228571,720.72 C871.068571,720.72 875.308571,717.52 875.308571,712.56 C875.308571,708.76 873.028571,705.88 869.948571,705 L869.948571,704.92 C872.468571,704.08 874.228571,701.44 874.228571,698.52 C874.228571,693.92 870.548571,690.96 866.228571,690.96 C861.908571,690.96 858.228571,693.92 858.228571,698.52 C858.228571,701.44 859.988571,704.08 862.508571,704.92 L862.508571,705 C859.428571,705.92 857.148571,708.76 857.148571,712.56 C857.148571,717.52 861.388571,720.72 866.228571,720.72 Z M866.228571,703.76 C863.348571,703.76 861.028571,701.64 861.028571,698.68 C861.028571,695.64 863.268571,693.4 866.228571,693.4 C869.188571,693.4 871.428571,695.64 871.428571,698.68 C871.428571,701.64 869.108571,703.76 866.228571,703.76 Z M866.228571,718.28 C862.508571,718.28 860.028571,715.68 860.028571,712.24 C860.028571,708.84 862.508571,706.32 866.228571,706.32 C869.948571,706.32 872.428571,708.84 872.428571,712.24 C872.428571,715.68 869.948571,718.28 866.228571,718.28 Z M892.285714,720.72 C899.325714,720.72 901.565714,713.24 901.565714,705.88 C901.565714,698.52 899.325714,690.96 892.285714,690.96 C885.165714,690.96 883.005714,698.52 883.005714,705.88 C883.005714,713.24 885.165714,720.72 892.285714,720.72 Z M892.285714,718.24 C887.245714,718.24 885.925714,711.52 885.925714,705.88 C885.925714,700.24 887.245714,693.4 892.285714,693.4 C897.245714,693.4 898.645714,700.24 898.645714,705.88 C898.645714,711.52 897.245714,718.24 892.285714,718.24 Z M917.342857,720 L925.062857,707.56 C926.462857,705.28 927.622857,702.8 927.622857,699.88 C927.622857,694.6 923.742857,690.96 918.422857,690.96 C913.102857,690.96 909.222857,694.6 909.222857,699.88 C909.222857,705.04 912.942857,708.6 917.862857,708.6 C919.302857,708.6 921.062857,708.2 921.902857,707.56 L921.982857,707.64 L914.022857,720 L917.342857,720 Z M918.422857,706.28 C914.542857,706.28 912.102857,703.52 912.102857,699.88 C912.102857,696.2 914.702857,693.4 918.422857,693.4 C922.142857,693.4 924.742857,696.2 924.742857,699.88 C924.742857,703.52 922.302857,706.28 918.422857,706.28 Z" id="$12,809" fill="#000000" fill-rule="nonzero"></path>
        <path d="M829.962857,880 L841.362857,854.32 L841.362857,851.68 L824.562857,851.68 L824.562857,854.24 L838.442857,854.24 L826.722857,880 L829.962857,880 Z M856.02,880 L867.42,854.32 L867.42,851.68 L850.62,851.68 L850.62,854.24 L864.5,854.24 L852.78,880 L856.02,880 Z" id="77" fill="#000000" fill-rule="nonzero"></path>
        <path d="M1213.98,390.6 C1216.58,390.6 1218.34,388.56 1219.42,386.88 L1217.74,385.28 C1217.02,386.48 1215.7,388.2 1213.86,388.2 C1212.58,388.2 1211.3,387.56 1209.74,386.56 C1208.1,385.48 1206.82,385.16 1205.34,385.16 C1202.74,385.16 1201.1,387.2 1199.9,388.88 L1201.58,390.48 C1202.3,389.16 1203.58,387.56 1205.42,387.56 C1206.82,387.56 1207.9,388.12 1209.54,389.16 C1211.42,390.36 1212.46,390.6 1213.98,390.6 Z M1240.15714,400 L1240.15714,371.68 L1237.59714,371.68 L1230.39714,377.6 L1232.15714,379.6 L1237.27714,375.24 L1237.27714,400 L1240.15714,400 Z M1258.21429,400 L1258.21429,390.4 C1258.21429,385.4 1261.05429,383.08 1263.65429,383.08 C1267.29429,383.08 1268.17429,385.44 1268.17429,389.08 L1268.17429,400 L1270.89429,400 L1270.89429,390.04 C1270.89429,386.56 1272.29429,383.08 1276.21429,383.08 C1279.73429,383.08 1281.05429,385.72 1281.05429,389.64 L1281.05429,400 L1283.77429,400 L1283.77429,388.52 C1283.77429,383.88 1281.41429,380.8 1276.65429,380.8 C1273.65429,380.8 1271.37429,382.2 1270.09429,384.76 C1268.85429,381.56 1266.37429,380.8 1264.33429,380.8 C1261.65429,380.8 1259.25429,382.32 1258.17429,384.48 L1258.09429,384.48 C1258.09429,383.68 1258.01429,382.28 1257.93429,381.28 L1255.33429,381.28 C1255.45429,382.56 1255.49429,384.4 1255.49429,385.4 L1255.49429,400 L1258.21429,400 Z M1317.24857,400 L1317.24857,371.68 L1314.68857,371.68 L1307.48857,377.6 L1309.24857,379.6 L1314.36857,375.24 L1314.36857,400 L1317.24857,400 Z M1339.58571,400 L1347.30571,387.56 C1348.70571,385.28 1349.86571,382.8 1349.86571,379.88 C1349.86571,374.6 1345.98571,370.96 1340.66571,370.96 C1335.34571,370.96 1331.46571,374.6 1331.46571,379.88 C1331.46571,385.04 1335.18571,388.6 1340.10571,388.6 C1341.54571,388.6 1343.30571,388.2 1344.14571,387.56 L1344.22571,387.64 L1336.26571,400 L1339.58571,400 Z M1340.66571,386.28 C1336.78571,386.28 1334.34571,383.52 1334.34571,379.88 C1334.34571,376.2 1336.94571,373.4 1340.66571,373.4 C1344.38571,373.4 1346.98571,376.2 1346.98571,379.88 C1346.98571,383.52 1344.54571,386.28 1340.66571,386.28 Z M1363.96286,400.48 C1367.40286,400.48 1371.00286,398.96 1371.00286,394.68 C1371.00286,391.76 1368.92286,390.12 1364.52286,389.2 C1361.44286,388.56 1360.04286,387.76 1360.04286,386 C1360.04286,383.92 1362.04286,383.08 1364.00286,383.08 C1366.08286,383.08 1367.80286,384.16 1368.60286,385.72 L1370.68286,384.16 C1369.48286,382.04 1366.72286,380.8 1364.12286,380.8 C1360.72286,380.8 1357.44286,382.44 1357.44286,386.24 C1357.44286,389.8 1360.60286,390.76 1362.80286,391.28 C1366.36286,392.12 1368.32286,392.92 1368.32286,394.88 C1368.32286,397.32 1366.24286,398.16 1363.92286,398.16 C1361.72286,398.16 1359.68286,396.88 1358.72286,395.24 L1356.56286,396.84 C1358.28286,399.36 1361.12286,400.48 1363.96286,400.48 Z" id="~1m19s" fill="#000000" fill-rule="nonzero"></path>
        <path d="M1225.14857,240.72 C1230.06857,240.72 1234.26857,237.56 1234.26857,232.16 C1234.26857,228.36 1231.78857,225.8 1228.54857,225.12 L1228.54857,225.04 C1231.34857,224.28 1233.46857,221.88 1233.46857,218.56 C1233.46857,213.64 1229.62857,210.96 1225.18857,210.96 C1221.74857,210.96 1218.94857,212.4 1217.18857,215.44 L1219.62857,216.72 C1220.74857,214.56 1222.66857,213.4 1225.02857,213.4 C1228.06857,213.4 1230.62857,215.56 1230.62857,218.72 C1230.62857,222.48 1227.66857,223.92 1224.02857,223.92 L1222.78857,223.92 L1222.78857,226.4 L1224.02857,226.4 C1227.74857,226.4 1231.38857,227.88 1231.38857,232.16 C1231.38857,235.96 1228.38857,238.24 1225.14857,238.24 C1222.26857,238.24 1219.86857,236.6 1218.90857,233.92 L1216.18857,234.92 C1217.78857,238.64 1221.02857,240.72 1225.14857,240.72 Z M1254.60571,240 L1254.60571,211.68 L1252.04571,211.68 L1244.84571,217.6 L1246.60571,219.6 L1251.72571,215.24 L1251.72571,240 L1254.60571,240 Z M1270.42286,245.6 L1273.66286,236.2 L1270.82286,236.2 L1268.14286,245.6 L1270.42286,245.6 Z M1293.92,240 L1293.92,211.68 L1291.36,211.68 L1284.16,217.6 L1285.92,219.6 L1291.04,215.24 L1291.04,240 L1293.92,240 Z M1314.17714,240 L1325.57714,214.32 L1325.57714,211.68 L1308.77714,211.68 L1308.77714,214.24 L1322.65714,214.24 L1310.93714,240 L1314.17714,240 Z M1346.03429,240 L1346.03429,211.68 L1343.47429,211.68 L1336.27429,217.6 L1338.03429,219.6 L1343.15429,215.24 L1343.15429,240 L1346.03429,240 Z" id="31,171" fill="#000000" fill-rule="nonzero"></path>
        <path d="M1213.64,723.36 L1213.64,720.48 C1218.24,720.4 1221.76,717.36 1221.76,712.92 C1221.76,707.72 1217.68,705.84 1213.64,704.44 L1213.64,693.44 C1215.56,693.48 1217.6,694.36 1218.84,696.12 L1221.04,694.44 C1219.24,692.32 1216.2,691.28 1213.64,691.2 L1213.64,688.32 L1211.72,688.32 L1211.72,691.2 C1207.56,691.4 1204,694.16 1204,698.8 C1204,703.68 1208.08,705.56 1211.72,706.68 L1211.72,718.16 C1210.04,718.12 1207,717.04 1205.56,714.64 L1203.28,716.24 C1205.2,718.68 1208.12,720.4 1211.72,720.48 L1211.72,723.36 L1213.64,723.36 Z M1211.72,703.76 C1208.76,702.96 1206.76,701.44 1206.76,698.56 C1206.76,695.56 1208.96,693.52 1211.72,693.44 L1211.72,703.76 Z M1213.64,718.16 L1213.64,707.16 C1216.68,708.12 1218.88,710 1218.88,712.72 C1218.88,716.68 1216,718.08 1213.64,718.16 Z M1241.57714,720 L1241.57714,691.68 L1239.01714,691.68 L1231.81714,697.6 L1233.57714,699.6 L1238.69714,695.24 L1238.69714,720 L1241.57714,720 Z M1270.75429,720 L1270.75429,713.16 L1274.91429,713.16 L1274.91429,710.64 L1270.75429,710.64 L1270.75429,691.68 L1266.99429,691.68 L1254.99429,710.36 L1254.99429,713.16 L1267.95429,713.16 L1267.95429,720 L1270.75429,720 Z M1267.95429,710.64 L1257.99429,710.64 L1267.87429,694.92 L1267.95429,694.92 L1267.95429,710.64 Z M1283.45143,725.6 L1286.69143,716.2 L1283.85143,716.2 L1281.17143,725.6 L1283.45143,725.6 Z M1310.06857,720 L1310.06857,713.16 L1314.22857,713.16 L1314.22857,710.64 L1310.06857,710.64 L1310.06857,691.68 L1306.30857,691.68 L1294.30857,710.36 L1294.30857,713.16 L1307.26857,713.16 L1307.26857,720 L1310.06857,720 Z M1307.26857,710.64 L1297.30857,710.64 L1307.18857,694.92 L1307.26857,694.92 L1307.26857,710.64 Z M1330.28571,720.72 C1337.32571,720.72 1339.56571,713.24 1339.56571,705.88 C1339.56571,698.52 1337.32571,690.96 1330.28571,690.96 C1323.16571,690.96 1321.00571,698.52 1321.00571,705.88 C1321.00571,713.24 1323.16571,720.72 1330.28571,720.72 Z M1330.28571,718.24 C1325.24571,718.24 1323.92571,711.52 1323.92571,705.88 C1323.92571,700.24 1325.24571,693.4 1330.28571,693.4 C1335.24571,693.4 1336.64571,700.24 1336.64571,705.88 C1336.64571,711.52 1335.24571,718.24 1330.28571,718.24 Z M1359.06286,720 L1359.06286,691.68 L1356.50286,691.68 L1349.30286,697.6 L1351.06286,699.6 L1356.18286,695.24 L1356.18286,720 L1359.06286,720 Z" id="$14,401" fill="#000000" fill-rule="nonzero"></path>
        <path d="M1260.73429,880 L1260.73429,851.68 L1258.17429,851.68 L1250.97429,857.6 L1252.73429,859.6 L1257.85429,855.24 L1257.85429,880 L1260.73429,880 Z M1292.63143,880 L1292.63143,877.44 L1277.63143,877.44 L1287.83143,867.32 C1290.31143,864.84 1292.43143,862.4 1292.43143,858.76 C1292.43143,853.6 1288.47143,850.96 1283.91143,850.96 C1279.47143,850.96 1276.03143,853.88 1275.23143,857.88 L1278.07143,858.44 C1278.67143,855.52 1280.87143,853.4 1283.91143,853.4 C1286.95143,853.4 1289.51143,855.52 1289.51143,858.8 C1289.51143,861.4 1287.83143,863.52 1286.11143,865.28 L1274.51143,877 L1274.51143,880 L1292.63143,880 Z M1310.12857,880.72 C1315.44857,880.72 1319.32857,877.08 1319.32857,871.8 C1319.32857,866.64 1315.60857,863.08 1310.68857,863.08 C1309.24857,863.08 1307.48857,863.48 1306.64857,864.12 L1306.56857,864.04 L1314.52857,851.68 L1311.20857,851.68 L1303.48857,864.12 C1302.08857,866.4 1300.92857,868.88 1300.92857,871.8 C1300.92857,877.08 1304.80857,880.72 1310.12857,880.72 Z M1310.12857,878.28 C1306.40857,878.28 1303.80857,875.48 1303.80857,871.8 C1303.80857,868.16 1306.24857,865.4 1310.12857,865.4 C1314.00857,865.4 1316.44857,868.16 1316.44857,871.8 C1316.44857,875.48 1313.84857,878.28 1310.12857,878.28 Z" id="126" fill="#000000" fill-rule="nonzero"></path>
        <path d="M1258.79429,560 L1258.79429,553.16 L1262.95429,553.16 L1262.95429,550.64 L1258.79429,550.64 L1258.79429,531.68 L1255.03429,531.68 L1243.03429,550.36 L1243.03429,553.16 L1255.99429,553.16 L1255.99429,560 L1258.79429,560 Z M1255.99429,550.64 L1246.03429,550.64 L1255.91429,534.92 L1255.99429,534.92 L1255.99429,550.64 Z M1279.01143,560.72 C1284.33143,560.72 1288.21143,557.08 1288.21143,551.8 C1288.21143,546.64 1284.49143,543.08 1279.57143,543.08 C1278.13143,543.08 1276.37143,543.48 1275.53143,544.12 L1275.45143,544.04 L1283.41143,531.68 L1280.09143,531.68 L1272.37143,544.12 C1270.97143,546.4 1269.81143,548.88 1269.81143,551.8 C1269.81143,557.08 1273.69143,560.72 1279.01143,560.72 Z M1279.01143,558.28 C1275.29143,558.28 1272.69143,555.48 1272.69143,551.8 C1272.69143,548.16 1275.13143,545.4 1279.01143,545.4 C1282.89143,545.4 1285.33143,548.16 1285.33143,551.8 C1285.33143,555.48 1282.73143,558.28 1279.01143,558.28 Z M1302.14857,561.24 L1320.14857,531.52 L1318.10857,530.44 L1300.06857,560.16 L1302.14857,561.24 Z M1302.02857,545.2 C1305.98857,545.2 1309.06857,542.12 1309.06857,538.2 C1309.06857,534.28 1305.98857,531.2 1302.02857,531.2 C1298.06857,531.2 1294.98857,534.28 1294.98857,538.2 C1294.98857,542.12 1298.06857,545.2 1302.02857,545.2 Z M1302.02857,542.8 C1299.50857,542.8 1297.38857,540.84 1297.38857,538.2 C1297.38857,535.56 1299.50857,533.6 1302.02857,533.6 C1304.54857,533.6 1306.66857,535.56 1306.66857,538.2 C1306.66857,540.84 1304.54857,542.8 1302.02857,542.8 Z M1318.22857,560.48 C1322.18857,560.48 1325.26857,557.4 1325.26857,553.48 C1325.26857,549.56 1322.18857,546.48 1318.22857,546.48 C1314.26857,546.48 1311.18857,549.56 1311.18857,553.48 C1311.18857,557.4 1314.26857,560.48 1318.22857,560.48 Z M1318.22857,558.08 C1315.70857,558.08 1313.58857,556.12 1313.58857,553.48 C1313.58857,550.84 1315.70857,548.88 1318.22857,548.88 C1320.74857,548.88 1322.86857,550.84 1322.86857,553.48 C1322.86857,556.12 1320.74857,558.08 1318.22857,558.08 Z" id="46%" fill="#000000" fill-rule="nonzero"></path>
        <path d="M111.92,720 L111.92,697.24 L112,697.24 L120.48,720 L124,720 L132.6,697.24 L132.68,697.24 L132.68,720 L137.68,720 L137.68,691.68 L129.76,691.68 L122.48,711.8 L122.36,711.8 L115,691.68 L107.12,691.68 L107.12,720 L111.92,720 Z M155.737143,720.56 C159.377143,720.56 162.097143,719.28 163.977143,716.72 L160.777143,714.16 C159.697143,715.68 158.097143,716.64 155.697143,716.64 C152.897143,716.64 150.417143,714.64 150.217143,711.92 L164.817143,711.92 C164.857143,711.48 164.857143,711.08 164.857143,710.64 C164.857143,703.72 160.937143,700.24 155.577143,700.24 C149.777143,700.24 145.417143,704.32 145.417143,710.52 C145.417143,716.76 149.817143,720.56 155.737143,720.56 Z M160.057143,708.48 L150.217143,708.48 C150.417143,705.8 152.697143,703.84 155.537143,703.84 C158.657143,703.84 160.057143,706 160.057143,708.48 Z M177.154286,720 L177.154286,709.72 C177.154286,708.32 177.994286,704.56 182.314286,704.56 C182.754286,704.56 183.154286,704.6 183.794286,704.76 L183.794286,700.36 C183.474286,700.28 182.994286,700.24 182.634286,700.24 C180.114286,700.24 178.074286,701.8 177.034286,704 L176.954286,704 L176.954286,700.8 L172.354286,700.8 L172.354286,720 L177.154286,720 Z M198.331429,720.56 C201.171429,720.56 203.811429,719.6 205.411429,717.88 L202.411429,714.84 C201.491429,715.96 199.851429,716.56 198.371429,716.56 C194.731429,716.56 192.931429,713.4 192.931429,710.4 C192.931429,707.4 194.691429,704.24 198.211429,704.24 C199.771429,704.24 201.411429,705.04 202.171429,706.12 L205.451429,703.24 C203.931429,701.36 201.011429,700.24 198.211429,700.24 C192.571429,700.24 187.931429,704.16 187.931429,710.4 C187.931429,716.8 192.651429,720.56 198.331429,720.56 Z M216.308571,720 L216.308571,709.52 C216.308571,706.96 217.788571,704.36 220.828571,704.36 C223.908571,704.36 224.388571,707.16 224.388571,709.44 L224.388571,720 L229.188571,720 L229.188571,708 C229.188571,704.08 227.108571,700.24 222.108571,700.24 C219.268571,700.24 217.148571,701.88 216.388571,703.48 L216.308571,703.48 L216.308571,689.76 L211.508571,689.76 L211.508571,720 L216.308571,720 Z M255.302857,720 L255.302857,709.72 C255.302857,708.32 256.142857,704.56 260.462857,704.56 C260.902857,704.56 261.302857,704.6 261.942857,704.76 L261.942857,700.36 C261.622857,700.28 261.142857,700.24 260.782857,700.24 C258.262857,700.24 256.222857,701.8 255.182857,704 L255.102857,704 L255.102857,700.8 L250.502857,700.8 L250.502857,720 L255.302857,720 Z M276.4,720.56 C280.04,720.56 282.76,719.28 284.64,716.72 L281.44,714.16 C280.36,715.68 278.76,716.64 276.36,716.64 C273.56,716.64 271.08,714.64 270.88,711.92 L285.48,711.92 C285.52,711.48 285.52,711.08 285.52,710.64 C285.52,703.72 281.6,700.24 276.24,700.24 C270.44,700.24 266.08,704.32 266.08,710.52 C266.08,716.76 270.48,720.56 276.4,720.56 Z M280.72,708.48 L270.88,708.48 C271.08,705.8 273.36,703.84 276.2,703.84 C279.32,703.84 280.72,706 280.72,708.48 Z M303.017143,720 L310.657143,700.8 L305.577143,700.8 L300.497143,714.8 L300.417143,714.8 L295.377143,700.8 L290.137143,700.8 L297.897143,720 L303.017143,720 Z M325.594286,720.56 C329.234286,720.56 331.954286,719.28 333.834286,716.72 L330.634286,714.16 C329.554286,715.68 327.954286,716.64 325.554286,716.64 C322.754286,716.64 320.274286,714.64 320.074286,711.92 L334.674286,711.92 C334.714286,711.48 334.714286,711.08 334.714286,710.64 C334.714286,703.72 330.794286,700.24 325.434286,700.24 C319.634286,700.24 315.274286,704.32 315.274286,710.52 C315.274286,716.76 319.674286,720.56 325.594286,720.56 Z M329.914286,708.48 L320.074286,708.48 C320.274286,705.8 322.554286,703.84 325.394286,703.84 C328.514286,703.84 329.914286,706 329.914286,708.48 Z M347.011429,720 L347.011429,709.44 C347.011429,706.88 348.451429,704.24 351.491429,704.24 C354.571429,704.24 355.091429,707.08 355.091429,709.36 L355.091429,720 L359.891429,720 L359.891429,708 C359.891429,704.08 357.811429,700.24 352.811429,700.24 C349.971429,700.24 347.691429,701.96 346.851429,703.88 L346.771429,703.88 L346.771429,700.8 L342.211429,700.8 L342.211429,720 L347.011429,720 Z M375.268571,720.56 C378.108571,720.56 380.388571,718.84 381.228571,716.92 L381.308571,716.92 L381.308571,720 L385.868571,720 L385.868571,700.8 L381.068571,700.8 L381.068571,711.36 C381.068571,713.92 379.628571,716.56 376.588571,716.56 C373.508571,716.56 372.988571,713.72 372.988571,711.44 L372.988571,700.8 L368.188571,700.8 L368.188571,712.8 C368.188571,716.72 370.268571,720.56 375.268571,720.56 Z M403.685714,720.56 C407.325714,720.56 410.045714,719.28 411.925714,716.72 L408.725714,714.16 C407.645714,715.68 406.045714,716.64 403.645714,716.64 C400.845714,716.64 398.365714,714.64 398.165714,711.92 L412.765714,711.92 C412.805714,711.48 412.805714,711.08 412.805714,710.64 C412.805714,703.72 408.885714,700.24 403.525714,700.24 C397.725714,700.24 393.365714,704.32 393.365714,710.52 C393.365714,716.76 397.765714,720.56 403.685714,720.56 Z M408.005714,708.48 L398.165714,708.48 C398.365714,705.8 400.645714,703.84 403.485714,703.84 C406.605714,703.84 408.005714,706 408.005714,708.48 Z" id="Merchrevenue" fill="#132925" fill-rule="nonzero"></path>
        <path d="M114.72,880.72 C120.28,880.72 125.04,877.76 125.04,871.68 C125.04,866.12 120.4,864.52 116.76,863.4 C113.56,862.4 111.36,861.64 111.36,859.04 C111.36,856.28 114.04,855.16 116.36,855.16 C118.36,855.16 120.48,856.2 121.56,857.6 L124.84,854 C122.68,851.96 119.44,850.96 116.6,850.96 C111.48,850.96 106.24,853.52 106.24,859.28 C106.24,864.56 109.96,866.24 113.4,867.32 C116.96,868.44 119.92,869.28 119.92,872.24 C119.92,875.28 117.16,876.44 114.8,876.44 C112.56,876.44 110,875.24 108.6,873.32 L105,876.68 C107.24,879.32 111.04,880.72 114.72,880.72 Z M147.057143,880.72 C151.497143,880.72 154.897143,879.88 157.737143,878.52 L157.737143,863.84 L146.897143,863.84 L146.897143,868 L152.857143,868 L152.857143,875.2 C151.217143,875.88 149.337143,876.2 147.217143,876.2 C140.977143,876.2 137.137143,871.8 137.137143,865.76 C137.137143,859.92 141.017143,855.4 146.977143,855.4 C150.017143,855.4 152.777143,856.68 154.217143,858.28 L157.697143,854.52 C155.417143,852.4 151.417143,850.96 146.937143,850.96 C138.217143,850.96 131.577143,856.68 131.577143,865.76 C131.577143,874.6 137.937143,880.72 147.057143,880.72 Z M189.771429,880 C195.131429,880 200.491429,877.92 200.491429,871.76 C200.491429,867.96 197.931429,865.56 194.371429,865.08 L194.371429,865 C197.291429,864.12 199.291429,862 199.291429,858.8 C199.291429,853.64 194.891429,851.68 190.611429,851.68 L179.571429,851.68 L179.571429,880 L189.771429,880 Z M189.091429,863.2 L184.611429,863.2 L184.611429,855.84 L188.651429,855.84 C192.451429,855.84 194.251429,856.84 194.251429,859.36 C194.251429,861.8 192.451429,863.2 189.091429,863.2 Z M189.29886,875.759268 L184.611429,875.76 L184.611429,867.52 L189.331429,867.52 C193.411429,867.52 195.451429,868.56 195.451429,871.52 C195.451429,875.160851 191.888042,875.736424 189.29886,875.759268 L189.29886,875.759268 Z M213.908571,880.48 C216.628571,880.48 218.908571,879.24 219.868571,877.56 L219.988571,877.56 L219.988571,880 L224.468571,880 L224.468571,868.32 C224.468571,864.48 222.788571,860.24 215.908571,860.24 C212.988571,860.24 209.948571,861.28 207.788571,863.28 L210.268571,866.2 C211.508571,864.96 213.468571,864 215.508571,864 C217.908571,864 219.908571,865.16 219.908571,867.52 L219.908571,868 C213.908571,868 206.708571,868.8 206.708571,874.52 C206.708571,879 210.828571,880.48 213.908571,880.48 Z M214.868571,876.84 C213.228571,876.84 211.508571,876.28 211.508571,874.44 C211.508571,871.661739 215.604507,871.256824 218.628609,871.240532 L219.908571,871.24 L219.908571,871.92 C219.908571,874.96 218.148571,876.84 214.868571,876.84 Z M244.245714,880.56 C250.085714,880.56 253.685714,875.92 253.685714,870.32 C253.685714,864.64 249.845714,860.24 244.365714,860.24 C240.845714,860.24 238.925714,862 237.925714,863.24 L237.805714,863.24 L237.805714,849.76 L233.005714,849.76 L233.005714,880 L237.565714,880 L237.565714,877.12 L237.645714,877.12 C238.965714,879.32 241.565714,880.56 244.245714,880.56 Z M243.285714,876.56 C239.765714,876.56 237.645714,873.4 237.645714,870.4 C237.645714,867.4 239.765714,864.16 243.285714,864.16 C247.005714,864.16 248.805714,867.32 248.805714,870.32 C248.805714,873.32 247.005714,876.56 243.285714,876.56 Z M263.622857,857.16 C265.382857,857.16 266.742857,855.92 266.742857,854.28 C266.742857,852.64 265.382857,851.4 263.622857,851.4 C261.862857,851.4 260.582857,852.76 260.582857,854.28 C260.582857,855.8 261.862857,857.16 263.622857,857.16 Z M266.062857,880 L266.062857,860.8 L261.262857,860.8 L261.262857,880 L266.062857,880 Z M283.96,880.56 C287.6,880.56 290.32,879.28 292.2,876.72 L289,874.16 C287.92,875.68 286.32,876.64 283.92,876.64 C281.12,876.64 278.64,874.64 278.44,871.92 L293.04,871.92 C293.08,871.48 293.08,871.08 293.08,870.64 C293.08,863.72 289.16,860.24 283.8,860.24 C278,860.24 273.64,864.32 273.64,870.52 C273.64,876.76 278.04,880.56 283.96,880.56 Z M288.28,868.48 L278.44,868.48 C278.64,865.8 280.92,863.84 283.76,863.84 C286.88,863.84 288.28,866 288.28,868.48 Z M306.177143,880.56 C310.377143,880.56 314.177143,878.84 314.177143,874.16 C314.177143,870.4 310.817143,869.12 307.977143,868.44 C305.297143,867.8 303.817143,867.4 303.817143,865.92 C303.817143,864.4 305.377143,863.84 306.897143,863.84 C308.657143,863.84 310.257143,864.8 311.097143,865.92 L314.217143,863.16 C312.657143,861.2 309.777143,860.24 307.017143,860.24 C303.217143,860.24 299.377143,862.08 299.377143,866.36 C299.377143,869.96 302.217143,871.12 305.057143,871.8 C307.977143,872.48 309.457143,872.96 309.457143,874.56 C309.457143,876.28 307.777143,876.84 306.377143,876.84 C304.297143,876.84 302.497143,875.8 301.457143,874.44 L298.297143,877.4 C300.137143,879.44 303.217143,880.56 306.177143,880.56 Z M338.851429,880 L338.851429,869.72 C338.851429,868.32 339.691429,864.56 344.011429,864.56 C344.451429,864.56 344.851429,864.6 345.491429,864.76 L345.491429,860.36 C345.171429,860.28 344.691429,860.24 344.331429,860.24 C341.811429,860.24 339.771429,861.8 338.731429,864 L338.651429,864 L338.651429,860.8 L334.051429,860.8 L334.051429,880 L338.851429,880 Z M359.948571,880.56 C363.588571,880.56 366.308571,879.28 368.188571,876.72 L364.988571,874.16 C363.908571,875.68 362.308571,876.64 359.908571,876.64 C357.108571,876.64 354.628571,874.64 354.428571,871.92 L369.028571,871.92 C369.068571,871.48 369.068571,871.08 369.068571,870.64 C369.068571,863.72 365.148571,860.24 359.788571,860.24 C353.988571,860.24 349.628571,864.32 349.628571,870.52 C349.628571,876.76 354.028571,880.56 359.948571,880.56 Z M364.268571,868.48 L354.428571,868.48 C354.628571,865.8 356.908571,863.84 359.748571,863.84 C362.868571,863.84 364.268571,866 364.268571,868.48 Z M383.405714,880.4 C384.485714,880.4 385.765714,880.2 386.605714,879.88 L386.445714,876.12 C385.885714,876.4 385.045714,876.52 384.405714,876.52 C382.285714,876.52 381.885714,875.28 381.885714,873.56 L381.885714,864.64 L386.685714,864.64 L386.685714,860.8 L381.885714,860.8 L381.885714,855.24 L377.165714,855.24 L377.165714,860.8 L373.805714,860.8 L373.805714,864.64 L377.165714,864.64 L377.165714,873.6 C377.165714,877.28 378.325714,880.4 383.405714,880.4 Z M399.942857,880.56 C402.782857,880.56 405.062857,878.84 405.902857,876.92 L405.982857,876.92 L405.982857,880 L410.542857,880 L410.542857,860.8 L405.742857,860.8 L405.742857,871.36 C405.742857,873.92 404.302857,876.56 401.262857,876.56 C398.182857,876.56 397.662857,873.72 397.662857,871.44 L397.662857,860.8 L392.862857,860.8 L392.862857,872.8 C392.862857,876.72 394.942857,880.56 399.942857,880.56 Z M423.96,880 L423.96,869.72 C423.96,868.32 424.8,864.56 429.12,864.56 C429.56,864.56 429.96,864.6 430.6,864.76 L430.6,860.36 C430.28,860.28 429.8,860.24 429.44,860.24 C426.92,860.24 424.88,861.8 423.84,864 L423.76,864 L423.76,860.8 L419.16,860.8 L419.16,880 L423.96,880 Z M441.377143,880 L441.377143,869.44 C441.377143,866.88 442.817143,864.24 445.857143,864.24 C448.937143,864.24 449.457143,867.08 449.457143,869.36 L449.457143,880 L454.257143,880 L454.257143,868 C454.257143,864.08 452.177143,860.24 447.177143,860.24 C444.337143,860.24 442.057143,861.96 441.217143,863.88 L441.137143,863.88 L441.137143,860.8 L436.577143,860.8 L436.577143,880 L441.377143,880 Z M471.914286,880.56 C475.554286,880.56 478.274286,879.28 480.154286,876.72 L476.954286,874.16 C475.874286,875.68 474.274286,876.64 471.874286,876.64 C469.074286,876.64 466.594286,874.64 466.394286,871.92 L480.994286,871.92 C481.034286,871.48 481.034286,871.08 481.034286,870.64 C481.034286,863.72 477.114286,860.24 471.754286,860.24 C465.954286,860.24 461.594286,864.32 461.594286,870.52 C461.594286,876.76 465.994286,880.56 471.914286,880.56 Z M476.234286,868.48 L466.394286,868.48 C466.594286,865.8 468.874286,863.84 471.714286,863.84 C474.834286,863.84 476.234286,866 476.234286,868.48 Z M496.811429,880.56 C499.491429,880.56 502.091429,879.32 503.411429,877.12 L503.491429,877.12 L503.491429,880 L508.051429,880 L508.051429,849.76 L503.251429,849.76 L503.251429,863.24 L503.131429,863.24 C502.131429,862 500.211429,860.24 496.691429,860.24 C491.211429,860.24 487.371429,864.64 487.371429,870.32 C487.371429,875.92 490.971429,880.56 496.811429,880.56 Z M497.771429,876.56 C494.051429,876.56 492.251429,873.32 492.251429,870.32 C492.251429,867.32 494.051429,864.16 497.771429,864.16 C501.291429,864.16 503.411429,867.4 503.411429,870.4 C503.411429,873.4 501.291429,876.56 497.771429,876.56 Z" id="SGBabiesreturned" fill="#132925" fill-rule="nonzero"></path>
    </g>
</svg>