<?xml version="1.0" encoding="UTF-8"?>
<svg width="500px" height="500px" viewBox="0 0 500 500" version="1.1" xmlns="http://www.w3.org/2000/svg" xmlns:xlink="http://www.w3.org/1999/xlink">
    <title>req1</title>
    <defs>
        <circle id="path-1" cx="156.202046" cy="156.202046" r="156.202046"></circle>
    </defs>
    <g id="req1" stroke="none" stroke-width="1" fill="none" fill-rule="evenodd">
        <rect fill="#FFFFFF" x="0" y="0" width="500" height="500"></rect>
        <g id="Group-2" transform="translate(78.000000, 78.000000)">
            <g id="Group">
                <circle id="Oval" fill="#3A556A" cx="172" cy="172" r="172"></circle>
                <g id="jungle" transform="translate(15.797954, 15.797954)">
                    <mask id="mask-2" fill="white">
                        <use xlink:href="#path-1"></use>
                    </mask>
                    <use id="Mask" fill="#FFFFFF" xlink:href="#path-1"></use>
                    <g mask="url(#mask-2)" fill-rule="nonzero">
                        <g transform="translate(-0.640172, 12.803446)">
                            <path d="M298.678798,273.993753 C304.398546,260.818543 302.193795,245.543514 292.981783,234.523509 C283.76977,223.503503 269.127698,218.625272 255.14708,221.918295 C247.494046,211.288068 234.08175,206.473101 221.415062,209.808622 C208.748375,213.144142 199.446961,223.940312 198.021943,236.961065 C189.096308,237.404691 180.834686,241.809666 175.492211,248.973585 C170.149737,256.137503 168.28423,265.312366 170.404909,273.993753 L298.678798,273.993753 Z" id="Path" fill="#459B63"></path>
                            <path d="M276.136268,113.755317 C273.712986,113.755317 271.748527,115.719775 271.748527,118.143058 L271.748527,152.622739 C271.745001,155.650057 269.292129,158.103503 266.264811,158.107736 L245.583404,158.107736 L245.583404,78.3985996 L218.162263,78.3985996 L218.162263,169.441346 L206.101417,169.441346 C203.074014,169.438523 200.620524,166.985033 200.617701,163.95763 L200.617701,129.476669 C200.617701,127.053386 198.653242,125.088928 196.229959,125.088928 C193.806677,125.088928 191.842218,127.053386 191.842218,129.476669 L191.842218,163.961471 C191.851392,171.832599 198.230288,178.210923 206.101417,178.219389 L218.162263,178.219389 L218.162263,277.656075 L245.583404,277.656075 L245.583404,166.881937 L266.264811,166.881937 C274.135939,166.872764 280.514263,160.493867 280.522729,152.622739 L280.522729,118.143058 C280.522729,116.979474 280.061075,115.863432 279.238417,115.040534 C278.41576,114.217636 277.299852,113.755317 276.136268,113.755317 Z" id="Path" fill="#A2663E"></path>
                            <path d="M151.749007,83.0943671 C148.920548,83.0943671 146.627629,85.3872864 146.627629,88.2157457 L146.627629,128.46466 C146.623396,131.998479 143.759725,134.86215 140.225906,134.866383 L116.085007,134.866383 L116.085007,53.7744749 L84.0763915,53.7744749 L84.0763915,148.093623 L69.9926004,148.093623 C66.4587812,148.08939 63.5951102,145.225719 63.5908772,141.6919 L63.5908772,101.442986 C63.5908772,98.6145269 61.2979579,96.3216076 58.4694987,96.3216076 C55.6410394,96.3216076 53.3481201,98.6145269 53.3481201,101.442986 L53.3481201,141.6919 C53.3587035,150.880006 60.8044951,158.325797 69.9926004,158.336381 L84.0763915,158.336381 L84.0763915,286.370845 L116.085007,286.370845 L116.085007,145.105299 L140.225906,145.105299 C149.414011,145.094716 156.859803,137.648924 156.870386,128.460819 L156.870386,88.2157457 C156.870386,85.3872864 154.577467,83.0943671 151.749007,83.0943671 Z" id="Path" fill="#A2663E"></path>
                            <path d="M116.085007,288.931534 L84.0763915,288.931534 C82.6621618,288.931534 81.5157022,287.785074 81.5157022,286.370845 L81.5157022,160.89707 L69.9926004,160.89707 C59.3905584,160.885779 50.7987216,152.293942 50.7874308,141.6919 L50.7874308,101.442986 C50.7874308,97.2002973 54.2268098,93.7609185 58.4694987,93.7609185 C62.7121875,93.7609185 66.1515664,97.2002973 66.1515665,101.442986 L66.1515665,141.6919 C66.1515665,143.813245 67.871256,145.532934 69.9926004,145.532934 L81.5157022,145.532934 L81.5157022,53.7744749 C81.5157022,52.3602452 82.6621618,51.2137856 84.0763915,51.2137856 L116.085007,51.2137856 C117.499237,51.2137856 118.645697,52.3602452 118.645697,53.7744749 L118.645697,132.301853 L140.225906,132.301853 C142.34725,132.301853 144.06694,130.582163 144.06694,128.460819 L144.06694,88.2157457 C144.06694,83.9730568 147.506318,80.5336778 151.749007,80.5336778 C155.991696,80.5336778 159.431075,83.9730568 159.431075,88.2157457 L159.431075,128.46466 C159.419784,139.066702 150.827948,147.658539 140.225906,147.669829 L118.645697,147.669829 L118.645697,286.370845 C118.645697,287.785074 117.499237,288.931534 116.085007,288.931534 Z M86.6370807,283.810155 L113.524318,283.810155 L113.524318,145.105299 C113.524318,143.691069 114.670778,142.54461 116.085007,142.54461 L140.225906,142.54461 C148.000658,142.536142 154.301229,136.235572 154.309697,128.460819 L154.309697,88.2157457 C154.309697,86.801516 153.163237,85.6550564 151.749007,85.6550564 C150.334778,85.6550564 149.188318,86.801516 149.188318,88.2157457 L149.188318,128.46466 C149.182674,133.412124 145.173369,137.421428 140.225906,137.427072 L116.085007,137.427072 C114.670778,137.427072 113.524318,136.280613 113.524318,134.866383 L113.524318,56.3351641 L86.6370807,56.3351641 L86.6370807,148.093623 C86.6370807,149.507853 85.4906211,150.654313 84.0763915,150.654313 L69.9926004,150.654313 C65.0451366,150.648668 61.0358325,146.639364 61.0301879,141.6919 L61.0301879,101.442986 C61.0301879,100.028757 59.8837283,98.8822969 58.4694987,98.8822969 C57.055269,98.8822969 55.9088094,100.028757 55.9088094,101.442986 L55.9088094,141.6919 C55.9172771,149.466653 62.2178475,155.767224 69.9926004,155.775691 L84.0763915,155.775691 C85.4906211,155.775691 86.6370807,156.922151 86.6370807,158.336381 L86.6370807,283.810155 Z" id="Shape" fill="none"></path>
                            <path d="M194.508677,202.720808 C184.35598,202.71446 176.125395,194.48903 176.112686,184.336339 L176.112686,142.325671 C176.112686,140.911441 177.259145,139.764982 178.673375,139.764982 C180.087604,139.764982 181.234064,140.911441 181.234064,142.325671 L181.234064,184.336339 C181.305551,191.613675 187.225229,197.475489 194.502916,197.475489 C201.780603,197.475489 207.700281,191.613675 207.771767,184.336339 L207.771767,165.741894 C207.771767,164.327664 208.918227,163.181205 210.332457,163.181205 C211.746686,163.181205 212.893146,164.327664 212.893146,165.741894 L212.893146,184.336339 C212.881856,194.485121 204.657459,202.709518 194.508677,202.720808 Z" id="Path" fill="#00B965"></path>
                            <path d="M256.738548,215.524254 C255.324319,215.524254 254.177859,214.377795 254.177859,212.963565 L254.177859,157.73846 C254.177859,156.32423 255.324319,155.17777 256.738548,155.17777 C258.152778,155.17777 259.299238,156.32423 259.299238,157.73846 L259.299238,212.962285 C259.299577,213.641643 259.029941,214.293294 258.549682,214.773793 C258.069423,215.254292 257.417907,215.524254 256.738548,215.524254 L256.738548,215.524254 Z" id="Path" fill="#00B965"></path>
                            <path d="M44.3614491,237.021532 L49.2600477,234.56071 L44.4805212,191.953401 C32.8024977,193.264474 25.1946899,210.902501 27.4903478,231.353446 C29.7860058,251.804391 41.1144951,267.317047 52.7937989,266.005974 L49.6838418,238.335166 L44.3614491,237.021532 Z" id="Path" fill="#00B965" transform="translate(39.937730, 229.018361) rotate(-9.000000) translate(-39.937730, -229.018361) "></path>
                            <path d="M52.8297144,243.571131 L58.1623499,244.834831 L81.8845753,209.120898 C72.0950602,202.618027 54.9294796,211.241149 43.5433748,228.382403 C32.1572699,245.523657 30.8679628,264.689136 40.6523566,271.192006 L56.0587436,247.997282 L52.8297144,243.571131 Z" id="Path" fill="#00B965"></path>
                            <rect id="Rectangle" fill="#EAA97D" x="3.2008616" y="273.993753" width="307.282714" height="35.8496499" rx="8"></rect>
                            <path d="M255.718514,242.075115 L260.921834,243.79974 L287.668234,210.289279 C278.481761,202.958026 260.629916,210.052416 247.79318,226.134825 C234.956445,242.217234 231.996288,261.198343 241.182761,268.529596 L258.553197,246.763737 L255.718514,242.075115 Z" id="Path" fill="#00B965"></path>
                            <path d="M158.55788,272.969543 C157.340384,272.970334 156.290623,272.113824 156.047124,270.920926 C153.404493,257.815318 168.480551,244.091304 190.368043,239.680517 C212.255534,235.269729 231.467106,242.0722 234.116139,255.172687 C234.250405,255.838594 234.114572,256.530564 233.738536,257.096299 C233.362499,257.662035 232.777078,258.05517 232.111119,258.189179 L190.082526,266.666341 C189.373373,266.809779 188.636636,266.646524 188.05446,266.21694 C187.684752,266.838498 187.069453,267.274741 186.360564,267.417903 L159.063616,272.923385 C158.89695,272.955245 158.72756,272.970683 158.55788,272.969543 L158.55788,272.969543 Z M203.151004,243.495944 C199.197693,243.50404 195.254953,243.904619 191.380795,244.691785 C174.518656,248.092381 161.465543,258.040659 160.894509,267.324438 L183.59758,262.744645 L184.167334,259.091822 C184.332064,258.031917 185.139928,257.187001 186.191386,256.974938 C187.242843,256.762875 188.315045,257.228609 188.877722,258.141806 L190.818724,261.288893 L228.254721,253.73486 C225.115316,247.393313 215.161917,243.497224 203.151004,243.497224 L203.151004,243.495944 Z" id="Shape" fill="none"></path>
                            <path d="M229.682083,245.319513 L224.279029,246.246483 L202.842218,209.116488 C213.019678,203.240987 229.611664,212.922953 239.900514,230.74407 C250.189363,248.565187 250.278987,267.774198 240.100247,273.650979 L226.17778,249.535688 L229.682083,245.319513 Z" id="Path" fill="#00B965"></path>
                            <path d="M55.9139308,177.754087 C45.0192277,177.742093 36.1901192,168.913557 36.1774181,158.018855 L36.1774181,120.778751 C36.1774181,119.364521 37.3238778,118.218062 38.7381074,118.218062 C40.1523371,118.218062 41.2987967,119.364521 41.2987967,120.778751 L41.2987967,158.018855 C41.2987967,166.090571 47.8422151,172.633989 55.9139308,172.633989 C63.9856464,172.633989 70.5290648,166.090571 70.5290648,158.018855 L70.5290648,142.810921 C70.5290648,141.396692 71.6755245,140.250232 73.0897541,140.250232 C74.5039837,140.250232 75.6504434,141.396692 75.6504434,142.810921 L75.6504434,158.018855 C75.6377423,168.913557 66.8086339,177.742093 55.9139308,177.754087 L55.9139308,177.754087 Z" id="Path" fill="#00B965"></path>
                            <path d="M164.571659,89.461521 C163.349039,80.6542221 166.001442,71.7491223 171.84383,65.0461515 C177.686218,58.3431807 186.145708,54.4996062 195.03746,54.5081123 C195.612334,54.5081123 196.18977,54.5273175 196.750561,54.5580458 C199.422693,38.7085261 212.882027,26.9299209 228.945916,26.3830717 C245.009804,25.8362226 259.238988,36.6722513 262.982789,52.3033589 C279.104166,53.4187637 291.612639,66.8204993 291.615136,82.9804164 C291.615136,83.5266968 291.600626,84.0699897 291.571604,84.6102952 C303.386616,90.4045551 310.767522,102.526439 310.491418,115.682871 C310.215313,128.839303 302.332343,140.640855 290.284641,145.934325 C278.23694,151.227796 264.212572,149.051802 254.335341,140.356501 C246.422984,149.056414 234.559404,153.021631 223.005998,150.827847 C211.452591,148.634063 201.86817,140.596257 197.695455,129.601606 C191.08114,138.651165 179.541294,142.639901 168.750484,139.606406 C157.959673,136.572912 150.18854,127.155504 149.258436,115.985071 C148.328332,104.814638 154.434974,94.2417002 164.5755,89.465362 L164.571659,89.461521 Z" id="Path" fill="#459B63"></path>
                            <path d="M175.53525,65.8161162 C178.520805,53.2067511 174.735993,39.9520403 165.542401,30.8203655 C156.348809,21.6886907 143.068824,17.9935348 130.479922,21.06423 C123.364285,9.71631223 110.979509,2.75105151 97.5864947,2.5648003 C84.1934803,2.37854908 71.6198047,8.99672275 64.1913589,20.1423819 C63.1837276,20.0578791 62.1658536,20.0041046 61.1364565,20.0041046 C41.3068357,20.0041046 25.2317518,36.0791885 25.2317518,55.9088094 C25.2317518,56.5489817 25.2496766,57.181472 25.2816853,57.8114015 C11.0237357,64.8088325 2.34742012,79.6691847 3.26217452,95.5252999 C4.17692893,111.381415 14.5046104,125.145409 29.4726655,130.456764 C44.4407206,135.768118 61.1342092,131.59248 71.8388574,119.859463 C80.9168223,127.875538 93.1728147,131.279453 105.084402,129.092905 C116.995989,126.906358 127.244009,119.3715 132.883129,108.653887 C139.432724,120.1791 152.520189,126.342971 165.576932,124.051857 C178.633674,121.760742 188.840685,111.509304 191.07507,98.4427343 C193.309455,85.3761642 187.0888,72.3155935 175.53525,65.8161162 Z" id="Path" fill="#6BDDDD"></path>
                            <path d="M42.6777279,135.290177 C23.4347413,135.290177 6.64900717,122.22289 1.92594394,103.568528 C-2.79711928,84.9141664 5.74836027,65.4343984 22.6723429,56.2762683 C22.6723429,56.1482338 22.6723429,56.0317225 22.6723429,55.9088094 C22.6963315,34.675403 39.9030509,17.4681107 61.1364565,17.4434154 C61.7100509,17.4434154 62.3002898,17.4587795 62.9174159,17.4895078 C70.9025684,6.38688025 83.7902753,-0.1364692 97.4654982,0.0023616719 C111.140721,0.141192544 123.893335,6.92484255 131.651438,18.1872956 C144.596871,15.6456159 157.960305,19.6869583 167.327776,28.9764614 C176.695247,38.2659645 180.848139,51.5951538 178.414745,64.5613785 C189.87655,71.8701931 195.869584,85.3145305 193.643681,98.7248657 C191.417779,112.135201 181.402687,122.922443 168.194271,126.136393 C154.985854,129.350343 141.13422,124.370493 132.995799,113.482067 C126.518524,123.260902 116.248961,129.887515 104.669882,131.759854 C93.090803,133.632193 81.2561491,130.579836 72.027068,123.340721 C64.1701023,130.988921 53.6425197,135.275181 42.6777279,135.290177 Z M61.1364565,22.5647939 C42.72984,22.5859607 27.8136079,37.5021928 27.7924411,55.9088094 C27.7924411,56.5028893 27.8090856,57.0931282 27.8385335,57.679526 C27.8926252,58.7027423 27.3315506,59.6596918 26.4122296,60.1121808 C13.0755607,66.6528513 4.95793861,80.5496572 5.81143537,95.3793116 C6.66493212,110.208966 16.3232895,123.082704 30.3222874,128.050115 C44.3212852,133.017525 59.9339678,129.110973 69.9439473,118.13612 C70.8864627,117.104871 72.4816166,117.019416 73.5289123,117.944068 C82.0181751,125.44019 93.4794049,128.623088 104.618378,126.577924 C115.757352,124.53276 125.34038,117.486044 130.613078,107.463167 C131.049397,106.636702 131.901313,106.113579 132.835756,106.098319 C133.773344,106.069779 134.647967,106.568645 135.100686,107.390187 C141.115395,117.975314 153.134989,123.636553 165.126396,121.532321 C177.117803,119.428089 186.491784,110.012742 188.543195,98.012186 C190.594606,86.0116298 184.880498,74.0170793 174.268989,68.0490373 C173.2768,67.4892077 172.773772,66.3412184 173.034737,65.232279 C175.813193,53.4915889 172.289028,41.150686 163.729636,32.6477205 C155.170243,24.144755 142.806301,20.7022917 131.084245,23.5583414 C130.014405,23.8180765 128.898285,23.3649268 128.312299,22.4329184 C121.659923,11.8189454 110.078492,5.30318201 97.5533273,5.1277878 C85.0281624,4.95239358 73.2688231,11.1413081 66.3218523,21.5648448 C65.8024229,22.3379784 64.9059431,22.7703059 63.9775413,22.6953891 C62.9404621,22.6070453 62.0122123,22.5647939 61.1364565,22.5647939 Z" id="Shape" fill="none"></path>
                        </g>
                    </g>
                </g>
            </g>
            <path d="M190.693032,94.4175166 C193.678587,81.8081514 189.893775,68.5534407 180.700183,59.4217659 C171.50659,50.290091 158.226606,46.5949352 145.637704,49.6656304 C138.522067,38.3177126 126.137291,31.3524519 112.744276,31.1662007 C99.3512619,30.9799494 86.7775863,37.5981231 79.3491405,48.7437822 C78.3415093,48.6592795 77.3236353,48.605505 76.2942382,48.605505 C56.4646173,48.605505 40.3895335,64.6805889 40.3895335,84.5102097 C40.3895335,85.1503821 40.4074583,85.7828723 40.4394669,86.4128019 C26.1815174,93.4102328 17.5052018,108.270585 18.4199562,124.1267 C19.3347106,139.982816 29.662392,153.746809 44.6304471,159.058164 C59.5985022,164.369519 76.2919909,160.19388 86.996639,148.460864 C96.074604,156.476939 108.330596,159.880853 120.242184,157.694306 C132.153771,155.507758 142.40179,147.9729 148.040911,137.255288 C154.590506,148.7805 167.677971,154.944372 180.734713,152.653257 C193.791456,150.362143 203.998466,140.110705 206.232851,127.044135 C208.467236,113.977565 202.246582,100.916994 190.693032,94.4175166 Z" id="Path" fill="#00B965" fill-rule="nonzero"></path>
        </g>
        <path d="M359.3844,365.574274 L362.262614,370.23857 L404.291208,361.761408 C401.967382,350.238306 383.731433,344.200201 363.560884,348.269136 C343.390334,352.338071 328.92116,364.971232 331.244985,376.494334 L358.540653,370.988852 L359.3844,365.574274 Z" id="Path" fill="#00B965" fill-rule="nonzero"></path>
        <path d="M130.818481,354.237368 L127.65475,358.718574 L86.2394418,347.620547 C89.2815407,336.269012 107.860622,331.384497 127.736692,336.70945 C147.612762,342.034403 161.259956,355.556123 158.217857,366.91278 L131.321657,359.70572 L130.818481,354.237368 Z" id="Path" fill="#00B965" fill-rule="nonzero" transform="translate(122.440730, 350.733791) scale(-1, 1) rotate(-30.000000) translate(-122.440730, -350.733791) "></path>
        <path d="M325.03072,358.10616 C326.834521,352.269359 325.89617,345.929579 322.478935,340.865529 C319.061699,335.801479 313.533731,332.55873 307.445975,332.047077 C302.686577,331.643626 297.939306,332.950719 294.057203,335.733484 C287.652709,323.514938 274.341303,316.550033 260.651634,318.254742 C246.961964,319.959451 235.765246,329.976235 232.552966,343.392312 C227.770519,337.521462 220.433847,334.340122 212.879545,334.861488 C205.325243,335.382855 198.495185,339.541924 194.564619,346.01411 C191.21517,341.812553 186.326053,339.123115 180.984104,338.54365 C175.642154,337.964185 170.290064,339.542713 166.117585,342.928333 C161.339129,333.623273 150.240671,329.514459 140.554843,333.464626 C130.869016,337.414793 125.80953,348.113295 128.901483,358.10616 L118.59322,358.10616 C112.742746,358.10616 108,362.848863 108,368.699283 L108,372.406877 C108,378.257297 112.742746,383 118.59322,383 L334.90678,383 C340.757254,383 345.5,378.257297 345.5,372.406877 L345.5,368.699283 C345.5,362.848863 340.757254,358.10616 334.90678,358.10616 L325.03072,358.10616 Z" id="Path" fill="#459B63" fill-rule="nonzero"></path>
    </g>
</svg>