<?xml version="1.0" encoding="UTF-8"?>
<svg width="500px" height="500px" viewBox="0 0 500 500" version="1.1" xmlns="http://www.w3.org/2000/svg" xmlns:xlink="http://www.w3.org/1999/xlink">
    <title>req3</title>
    <g id="req3" stroke="none" stroke-width="1" fill="none" fill-rule="evenodd">
        <rect fill="#FFFFFF" x="0" y="0" width="500" height="500"></rect>
        <g id="Group-2" transform="translate(49.000000, 78.000000)" fill-rule="nonzero">
            <g id="information">
                <path d="M9.41828571,53 L392.594476,53 C397.791583,53.0087905 402,57.2199572 402,62.4116522 L402,293.591535 C402,298.787687 397.78329,303 392.581714,303 L9.42147619,303 C6.92274535,303 4.52635601,302.008418 2.75948649,300.243391 C0.992616963,298.478364 0,296.084473 0,293.588348 L0,62.4084651 C0,57.2123133 4.21671014,53 9.41828571,53 L9.41828571,53 Z" id="Path" fill="#3B556A"></path>
                <path d="M20.9612903,69.2258065 L381.929032,69.2258065 C385.436931,69.2258065 388.280645,72.0695204 388.280645,75.5774194 L388.280645,284.125806 C388.280645,287.631924 385.438375,290.474194 381.932258,290.474194 L20.9645161,290.474194 C17.4566172,290.474194 14.6129032,287.63048 14.6129032,284.122581 L14.6129032,75.5741935 C14.6129032,72.0680762 17.4551729,69.2258065 20.9612903,69.2258065 Z" id="Path" fill="#FFFFFF"></path>
                <path d="M269.151613,53.3419355 L269.151613,18.8096774 C269.152468,14.0032702 271.062627,9.39406069 274.461875,5.99602249 C277.861123,2.59798428 282.471012,0.689466967 287.277419,0.690322293 L32.7419355,0.690322293 C27.9355282,0.689466967 23.325639,2.59798428 19.9263909,5.99602249 C16.5271428,9.39406069 14.616129,14.0032702 14.616129,18.8096774 L14.616129,53.3419355 L269.151613,53.3419355 Z" id="Path" fill="#DCDCD2"></path>
                <path d="M287.277419,0.690322293 L32.7419355,0.690322293 C37.5483427,0.690322293 42.1582319,2.59798428 45.5574801,5.99602249 C48.9567282,9.39406069 50.8668865,14.0032702 50.8677419,18.8096774 C50.8677419,19.2774194 50.8322581,19.7387097 50.7967742,20.1967742 L50.8677419,20.1967742 L50.8677419,290.577419 L305.403226,290.577419 L305.403226,18.8096774 C305.403226,14.0032702 303.492212,9.39406069 300.092964,5.99602249 C296.693716,2.59798428 292.083827,0.690322293 287.277419,0.690322293 Z" id="Path" fill="#EBF0F3"></path>
                <polygon id="Path" fill="#7D9FC0" points="71.983871 100.122581 188.422581 100.122581 188.422581 207.787097 71.983871 207.787097"></polygon>
                <polygon id="Path" fill="#FFC92D" points="71.983871 36.6483871 235.322581 36.6483871 235.322581 63.9096774 71.983871 63.9096774"></polygon>
                <polygon id="Path" fill="#A6CDFE" points="71.983871 235.122581 284.283871 235.122581 284.283871 290.525806 71.983871 290.525806"></polygon>
                <path d="M235.322581,103.348387 L211.490323,103.348387 C209.708759,103.348387 208.264516,101.904144 208.264516,100.122581 C208.264516,98.3410169 209.708759,96.8967742 211.490323,96.8967742 L235.322581,96.8967742 C237.104144,96.8967742 238.548387,98.3410169 238.548387,100.122581 C238.548387,101.904144 237.104144,103.348387 235.322581,103.348387 Z" id="Path" fill="#C4C8CA"></path>
                <path d="M265.322581,130.680645 L211.490323,130.680645 C209.708759,130.680645 208.264516,129.236402 208.264516,127.454839 C208.264516,125.673275 209.708759,124.229032 211.490323,124.229032 L265.322581,124.229032 C267.104144,124.229032 268.548387,125.673275 268.548387,127.454839 C268.548387,128.642548 267.473118,129.717817 265.322581,130.680645 Z" id="Path" fill="#C4C8CA"></path>
                <path d="M247.903226,158.290323 L211.490323,158.290323 C209.708759,158.290323 208.264516,156.84608 208.264516,155.064516 C208.264516,153.282952 209.708759,151.83871 211.490323,151.83871 L247.903226,151.83871 C249.68479,151.83871 251.129032,153.282952 251.129032,155.064516 C251.129032,156.84608 249.68479,158.290323 247.903226,158.290323 Z" id="Path" fill="#C4C8CA"></path>
                <path d="M284.287097,185.625806 L211.490323,185.625806 C209.708759,185.625806 208.264516,184.181564 208.264516,182.4 C208.264516,180.618436 209.708759,179.174194 211.490323,179.174194 L284.287097,179.174194 C286.06866,179.174194 287.512903,180.618436 287.512903,182.4 C287.512903,184.181564 286.06866,185.625806 284.287097,185.625806 Z" id="Path" fill="#C4C8CA"></path>
                <path d="M223.406452,211.016129 L211.490323,211.016129 C209.708759,211.016129 208.264516,209.571886 208.264516,207.790323 C208.264516,206.008759 209.708759,204.564516 211.490323,204.564516 L223.403226,204.564516 C225.18479,204.564516 226.629032,206.008759 226.629032,207.790323 C226.629032,209.571886 225.18479,211.016129 223.403226,211.016129 L223.406452,211.016129 Z" id="Path" fill="#C4C8CA"></path>
            </g>
        </g>
        <g id="Group" transform="translate(370.000000, 146.500000) scale(-1, 1) translate(-370.000000, -146.500000) translate(270.000000, 124.000000)" fill="#005CB9" stroke="#005CB9">
            <rect id="Rectangle" x="0.5" y="0.5" width="194" height="44" rx="22"></rect>
            <path d="M191.763343,16.1760244 C190.839352,15.9033817 189.892325,16.0310712 189.108135,16.4579192 C188.323946,16.8847671 187.702593,17.6107734 187.42995,18.5347641 L184.882897,27.1667704 C184.519238,28.3993353 184.334558,29.6777723 184.334558,30.9628785 C184.334558,34.6761662 185.843606,38.0370336 188.304934,40.4655752 C190.755436,42.8834359 194.149238,44.376637 198.194121,44.3801477 C197.383234,43.6506492 196.405336,42.4468905 195.624181,40.4820972 C194.84835,38.530695 194.264761,35.8069144 194.264761,32.0114482 L194.264761,19.5220907 C194.264738,18.7488575 194.010196,18.0217503 193.57025,17.4332473 C193.13031,16.8447516 192.50497,16.3948569 191.763343,16.1760244 Z" id="Rectangle"></path>
        </g>
        <g id="Group-4" transform="translate(15.000000, 297.000000)" fill="#FFC92D">
            <rect id="Rectangle" transform="translate(97.500000, 22.500000) scale(1, -1) translate(-97.500000, -22.500000) " x="0" y="0" width="195" height="45" rx="22.5"></rect>
            <path d="M194.764761,4.52209073 C194.764761,9.12745468 194.764761,13.2905738 194.764761,17.0114482 C194.764761,32.1692787 204.189523,29.8762903 197.74797,29.8762903 C197.74797,29.8762903 197.74797,29.8762903 197.74797,29.8762903 C190.063805,29.8762903 183.834558,23.6470437 183.834558,15.9628785 C183.834558,14.6298732 184.026121,13.3037854 184.403338,12.0252665 L186.950391,3.39326027 C187.573827,1.28042583 189.792012,0.0730297096 191.904847,0.696465561 C193.600685,1.19685788 194.764709,2.75396785 194.764761,4.52209073 Z" id="Rectangle" transform="translate(192.500000, 15.000000) scale(1, -1) translate(-192.500000, -15.000000) "></path>
        </g>
        <g id="Group-3" transform="translate(407.000000, 104.000000)" fill-rule="nonzero">
            <circle id="Oval" fill="#63BCE7" cx="20" cy="20" r="20"></circle>
            <g id="Group" transform="translate(9.000000, 8.000000)" fill="#FFFFFF">
                <path d="M22,23 L0,23 C0.381532217,16.8560711 5.16083206,12 10.9994926,12 C16.8381532,12 21.6174531,16.8560711 22,23 Z" id="Path"></path>
                <circle id="Oval" cx="11" cy="5" r="5"></circle>
            </g>
        </g>
        <g id="Group-5" transform="translate(36.000000, 279.000000)" fill-rule="nonzero">
            <circle id="Oval" fill="#F46275" cx="19.7661538" cy="19.7661538" r="19.7661538"></circle>
            <path d="M32.7138462,17.1528205 C32.7138462,13.6266667 29.8553846,10.7692308 26.3302564,10.7692308 C22.8041026,10.7692308 19.9466667,13.6276923 19.9466667,17.1528205 C19.9466667,13.6266667 17.0882051,10.7692308 13.5630769,10.7692308 C10.0379487,10.7692308 7.17948718,13.6276923 7.17948718,17.1528205 C7.17948718,19.0738462 8.02974359,20.7958974 9.37230769,21.9661538 L19.9476923,32.5507692 L30.5230769,21.9661538 C31.8635897,20.7958974 32.7138462,19.0738462 32.7138462,17.1528205 L32.7138462,17.1528205 Z" id="Path" fill="#FFFFFF"></path>
        </g>
    </g>
</svg>