<?xml version="1.0" encoding="UTF-8"?>
<svg width="500px" height="500px" viewBox="0 0 500 500" version="1.1" xmlns="http://www.w3.org/2000/svg" xmlns:xlink="http://www.w3.org/1999/xlink">
    <title>req3</title>
    <g id="req3" stroke="none" stroke-width="1" fill="none" fill-rule="evenodd">
        <rect fill="#FFFFFF" x="0" y="0" width="500" height="500"></rect>
        <g id="Group-2" transform="translate(49.000000, 78.000000)" fill-rule="nonzero">
            <g id="information">
                <path d="M9.41828571,53 L392.594476,53 C397.791583,53.0087905 402,57.2199572 402,62.4116522 L402,293.591535 C402,298.787687 397.78329,303 392.581714,303 L9.42147619,303 C6.92274535,303 4.52635601,302.008418 2.75948649,300.243391 C0.992616963,298.478364 0,296.084473 0,293.588348 L0,62.4084651 C0,57.2123133 4.21671014,53 9.41828571,53 L9.41828571,53 Z" id="Path" fill="#3B556A"></path>
                <path d="M20.9612903,69.2258065 L381.929032,69.2258065 C385.436931,69.2258065 388.280645,72.0695204 388.280645,75.5774194 L388.280645,284.125806 C388.280645,287.631924 385.438375,290.474194 381.932258,290.474194 L20.9645161,290.474194 C17.4566172,290.474194 14.6129032,287.63048 14.6129032,284.122581 L14.6129032,75.5741935 C14.6129032,72.0680762 17.4551729,69.2258065 20.9612903,69.2258065 Z" id="Path" fill="#FFFFFF"></path>
                <path d="M269.151613,53.3419355 L269.151613,18.8096774 C269.152468,14.0032702 271.062627,9.39406069 274.461875,5.99602249 C277.861123,2.59798428 282.471012,0.689466967 287.277419,0.690322293 L32.7419355,0.690322293 C27.9355282,0.689466967 23.325639,2.59798428 19.9263909,5.99602249 C16.5271428,9.39406069 14.616129,14.0032702 14.616129,18.8096774 L14.616129,53.3419355 L269.151613,53.3419355 Z" id="Path" fill="#DCDCD2"></path>
                <path d="M287.277419,0.690322293 L32.7419355,0.690322293 C37.5483427,0.690322293 42.1582319,2.59798428 45.5574801,5.99602249 C48.9567282,9.39406069 50.8668865,14.0032702 50.8677419,18.8096774 C50.8677419,19.2774194 50.8322581,19.7387097 50.7967742,20.1967742 L50.8677419,20.1967742 L50.8677419,290.577419 L305.403226,290.577419 L305.403226,18.8096774 C305.403226,14.0032702 303.492212,9.39406069 300.092964,5.99602249 C296.693716,2.59798428 292.083827,0.690322293 287.277419,0.690322293 Z" id="Path" fill="#EBF0F3"></path>
                <polygon id="Path" fill="#7D9FC0" points="71.983871 100.122581 188.422581 100.122581 188.422581 207.787097 71.983871 207.787097"></polygon>
                <polygon id="Path" fill="#FFC92D" points="71.983871 36.6483871 235.322581 36.6483871 235.322581 63.9096774 71.983871 63.9096774"></polygon>
                <polygon id="Path" fill="#A6CDFE" points="71.983871 235.122581 284.283871 235.122581 284.283871 290.525806 71.983871 290.525806"></polygon>
                <g id="Group" transform="translate(114.000000, 291.000000) scale(1, -1) translate(-114.000000, -291.000000) translate(50.000000, 223.000000)">
                    <path d="M78.8322581,98.6516129 C74.3451321,98.6508953 70.2121026,101.088703 68.0419355,105.016129 L52.7,132.793548 C51.6146752,134.757035 49.5483203,135.975868 47.3048387,135.975868 C45.0613572,135.975868 42.9950022,134.757035 41.9096774,132.793548 L26.5645161,105.009677 C24.394349,101.082251 20.2613195,98.6444437 15.7741935,98.6451613 L9.35483871,98.6451613 C4.18830395,98.6451613 6.39488462e-14,94.4568573 6.39488462e-14,89.2903226 L6.39488462e-14,9.35483871 C6.39488462e-14,6.87378122 0.985596249,4.49434139 2.73996882,2.73996882 C4.49434139,0.985596249 6.87378122,-2.84217094e-14 9.35483871,-2.84217094e-14 L117.916129,-2.84217094e-14 C120.397187,-2.84217094e-14 122.776626,0.985596249 124.530999,2.73996882 C126.285371,4.49434139 127.270972,6.87378122 127.270972,9.35483871 L127.270972,89.2903226 C127.272681,91.7736159 126.286955,94.1556923 124.531001,95.9116463 C122.775047,97.6676003 120.392971,98.6533261 117.909677,98.6516129 L78.8322581,98.6516129 Z" id="Path" fill="#FFC92D"></path>
                    <path d="M108.535484,25.0741935 L18.7096774,25.0741935 C16.9281137,25.0741935 15.483871,23.6299508 15.483871,21.8483871 C15.483871,20.0668234 16.9281137,18.6225806 18.7096774,18.6225806 L108.525806,18.6225806 C110.30737,18.6225806 111.751613,20.0668234 111.751613,21.8483871 C111.751613,23.6299508 110.30737,25.0741935 108.525806,25.0741935 L108.535484,25.0741935 Z" id="Path" fill="#FFFFFF"></path>
                    <path d="M108.535484,52.4096774 L18.7096774,52.4096774 C16.9281137,52.4096774 15.483871,50.9654347 15.483871,49.183871 C15.483871,47.4023073 16.9281137,45.9580645 18.7096774,45.9580645 L108.525806,45.9580645 C110.30737,45.9580645 111.751613,47.4023073 111.751613,49.183871 C111.751613,50.9654347 110.30737,52.4096774 108.525806,52.4096774 L108.535484,52.4096774 Z" id="Path" fill="#FFFFFF"></path>
                    <path d="M108.535484,80.0193548 L18.7096774,80.0193548 C16.9281137,80.0193548 15.483871,78.5751121 15.483871,76.7935484 C15.483871,75.0119847 16.9281137,73.5677419 18.7096774,73.5677419 L108.525806,73.5677419 C110.30737,73.5677419 111.751613,75.0119847 111.751613,76.7935484 C111.751613,78.5751121 110.30737,80.0193548 108.525806,80.0193548 L108.535484,80.0193548 Z" id="Path" fill="#FFFFFF"></path>
                </g>
                <path d="M235.322581,103.348387 L211.490323,103.348387 C209.708759,103.348387 208.264516,101.904144 208.264516,100.122581 C208.264516,98.3410169 209.708759,96.8967742 211.490323,96.8967742 L235.322581,96.8967742 C237.104144,96.8967742 238.548387,98.3410169 238.548387,100.122581 C238.548387,101.904144 237.104144,103.348387 235.322581,103.348387 Z" id="Path" fill="#C4C8CA"></path>
                <path d="M265.322581,130.680645 L211.490323,130.680645 C209.708759,130.680645 208.264516,129.236402 208.264516,127.454839 C208.264516,125.673275 209.708759,124.229032 211.490323,124.229032 L265.322581,124.229032 C267.104144,124.229032 268.548387,125.673275 268.548387,127.454839 C268.548387,128.642548 267.473118,129.717817 265.322581,130.680645 Z" id="Path" fill="#C4C8CA"></path>
                <path d="M247.903226,158.290323 L211.490323,158.290323 C209.708759,158.290323 208.264516,156.84608 208.264516,155.064516 C208.264516,153.282952 209.708759,151.83871 211.490323,151.83871 L247.903226,151.83871 C249.68479,151.83871 251.129032,153.282952 251.129032,155.064516 C251.129032,156.84608 249.68479,158.290323 247.903226,158.290323 Z" id="Path" fill="#C4C8CA"></path>
                <path d="M284.287097,185.625806 L211.490323,185.625806 C209.708759,185.625806 208.264516,184.181564 208.264516,182.4 C208.264516,180.618436 209.708759,179.174194 211.490323,179.174194 L284.287097,179.174194 C286.06866,179.174194 287.512903,180.618436 287.512903,182.4 C287.512903,184.181564 286.06866,185.625806 284.287097,185.625806 Z" id="Path" fill="#C4C8CA"></path>
                <path d="M223.406452,211.016129 L211.490323,211.016129 C209.708759,211.016129 208.264516,209.571886 208.264516,207.790323 C208.264516,206.008759 209.708759,204.564516 211.490323,204.564516 L223.403226,204.564516 C225.18479,204.564516 226.629032,206.008759 226.629032,207.790323 C226.629032,209.571886 225.18479,211.016129 223.403226,211.016129 L223.406452,211.016129 Z" id="Path" fill="#C4C8CA"></path>
            </g>
        </g>
        <circle id="Oval" fill="#F4DEB6" fill-rule="nonzero" cx="219.544" cy="341.544" r="38.544"></circle>
        <path d="M244.792,336.448 C244.792,329.572 239.218,324 232.344,324 C225.468,324 219.896,329.574 219.896,336.448 C219.896,329.572 214.322,324 207.448,324 C200.574,324 195,329.574 195,336.448 C195,340.194 196.658,343.552 199.276,345.834 L219.898,366.474 L240.52,345.834 C243.134,343.552 244.792,340.194 244.792,336.448 L244.792,336.448 Z" id="Path" fill="#F46275" fill-rule="nonzero"></path>
        <g id="Group-4" transform="translate(332.000000, 64.000000)" fill-rule="nonzero">
            <g id="Group-3" transform="translate(0.000000, 32.238000)">
                <path d="M2.13162821e-13,129.684 C2.13162821e-13,133.728 2.542,134.918 5.648,132.326 L42.102,101.924 L118.886,101.924 C128.998,101.924 137.27,93.65 137.27,83.54 L137.27,18.384 C137.27,8.272 128.996,1.42108547e-14 118.886,1.42108547e-14 L18.386,1.42108547e-14 C8.274,1.42108547e-14 0.002,8.274 0.002,18.384 L0.002,129.684 L2.13162821e-13,129.684 Z" id="Path" fill="#0775E1"></path>
                <path d="M114.051613,27.2136129 L24.2258065,27.2136129 C22.4442427,27.2136129 21,25.7693702 21,23.9878065 C21,22.2062427 22.4442427,20.762 24.2258065,20.762 L114.041935,20.762 C115.823499,20.762 117.267742,22.2062427 117.267742,23.9878065 C117.267742,25.7693702 115.823499,27.2136129 114.041935,27.2136129 L114.051613,27.2136129 Z" id="Path" fill="#E1E6E9"></path>
                <path d="M114.051613,54.5490968 L24.2258065,54.5490968 C22.4442427,54.5490968 21,53.104854 21,51.3232903 C21,49.5417266 22.4442427,48.0974839 24.2258065,48.0974839 L114.041935,48.0974839 C115.823499,48.0974839 117.267742,49.5417266 117.267742,51.3232903 C117.267742,53.104854 115.823499,54.5490968 114.041935,54.5490968 L114.051613,54.5490968 Z" id="Path" fill="#E1E6E9"></path>
                <path d="M114.051613,82.1587742 L24.2258065,82.1587742 C22.4442427,82.1587742 21,80.7145315 21,78.9329677 C21,77.151404 22.4442427,75.7071613 24.2258065,75.7071613 L114.041935,75.7071613 C115.823499,75.7071613 117.267742,77.151404 117.267742,78.9329677 C117.267742,80.7145315 115.823499,82.1587742 114.041935,82.1587742 L114.051613,82.1587742 Z" id="Path" fill="#E1E6E9"></path>
            </g>
            <circle id="Oval" fill="#63BCE7" cx="121.544" cy="38.544" r="38.544"></circle>
            <g id="Group" transform="translate(98.890000, 18.718000)" fill="#FFFFFF">
                <path d="M44.336,39.516 L0.974,39.516 C1.726,28.2 11.146,19.256 22.654,19.256 C34.162,19.256 43.582,28.2 44.336,39.516 Z" id="Path"></path>
                <circle id="Oval" cx="22.654" cy="9.696" r="9.56"></circle>
            </g>
        </g>
    </g>
</svg>