<?xml version="1.0" encoding="UTF-8"?>
<svg width="970px" height="1230px" viewBox="0 0 970 1230" version="1.1" xmlns="http://www.w3.org/2000/svg" xmlns:xlink="http://www.w3.org/1999/xlink">
    <title>stakeholders</title>
    <defs>
        <circle id="path-1" cx="94.074" cy="94.074" r="94.074"></circle>
        <circle id="path-3" cx="94.074" cy="94.074" r="94.074"></circle>
        <circle id="path-5" cx="94.074" cy="94.074" r="94.074"></circle>
        <circle id="path-7" cx="94.074" cy="94.074" r="94.074"></circle>
        <circle id="path-9" cx="94.074" cy="94.074" r="94.074"></circle>
    </defs>
    <g id="stakeholders" stroke="none" stroke-width="1" fill="none" fill-rule="evenodd">
        <rect fill="#FFFFFF" x="0" y="0" width="970" height="1230"></rect>
        <g id="boy" transform="translate(620.000000, 129.000000)">
            <g id="Group-4" transform="translate(0.001000, 0.001000)">
                <mask id="mask-2" fill="white">
                    <use xlink:href="#path-1"></use>
                </mask>
                <use id="Mask" fill="#FFFFFF" fill-rule="nonzero" xlink:href="#path-1"></use>
                <g mask="url(#mask-2)">
                    <g transform="translate(38.999000, 11.999000)">
                        <g id="Group" stroke-width="1" fill="none" fill-rule="evenodd">
                            <path d="M109.572,185.629 L109.572,185.639 L0.507,185.639 L0.507,185.629 C0.507,170.505 6.654,156.82 16.597,146.95 C17.06,146.487 17.523,146.045 18.005,145.603 C19.435,144.277 20.936,143.033 22.498,141.871 C23.526,141.1 24.596,140.38 25.675,139.682 C26.755,138.983 27.865,138.325 29.006,137.707 C29.027,137.686 29.048,137.686 29.048,137.686 C29.489,137.439 29.921,137.193 30.354,136.925 C31.649,136.164 32.873,135.301 34.044,134.365 C39.01,130.417 42.856,125.111 45.045,119.025 L45.045,119.014 C46.351,115.385 47.061,111.468 47.061,107.375 L63.182,107.447 C63.182,111.487 63.87,115.374 65.146,118.972 C67.315,125.089 71.14,130.405 76.106,134.373 C76.445,134.65 76.794,134.918 77.144,135.175 C77.627,135.535 78.121,135.885 78.614,136.214 C78.984,136.46 79.365,136.707 79.746,136.934 C80.167,137.191 80.599,137.448 81.031,137.684 C81.072,137.695 81.102,137.705 81.134,137.725 C81.164,137.745 81.196,137.766 81.227,137.786 C82.492,138.485 83.725,139.225 84.917,140.007 C85.318,140.265 85.719,140.531 86.109,140.81 C86.624,141.18 87.148,141.55 87.652,141.941 L87.673,141.941 C100.966,151.875 109.572,167.729 109.572,185.629 Z" id="Path" fill="#A57561" fill-rule="nonzero"></path>
                            <path d="M109.572,185.629 L0.507,185.629 C0.507,170.505 6.654,156.82 16.597,146.95 C17.06,146.487 17.523,146.045 18.005,145.603 C19.435,144.277 20.936,143.022 22.498,141.861 C23.526,141.099 24.596,140.37 25.675,139.681 C26.755,138.982 27.865,138.324 29.006,137.706 C29.027,137.685 29.048,137.685 29.048,137.685 C29.489,137.438 29.921,137.192 30.354,136.924 C31.649,136.163 32.873,135.3 34.044,134.364 C39.391,139.833 46.834,143.216 55.09,143.216 C63.316,143.216 70.759,139.823 76.106,134.374 C76.445,134.651 76.794,134.919 77.144,135.176 C77.627,135.536 78.121,135.886 78.614,136.215 C78.984,136.461 79.365,136.708 79.746,136.935 C80.167,137.202 80.599,137.449 81.031,137.685 C81.072,137.696 81.102,137.706 81.134,137.726 C81.164,137.737 81.196,137.757 81.227,137.778 C82.492,138.477 83.725,139.217 84.917,140.008 C85.318,140.266 85.719,140.532 86.109,140.811 C86.624,141.181 87.148,141.551 87.652,141.942 L87.673,141.942 C100.966,151.875 109.572,167.729 109.572,185.629 Z" id="Path" fill="#7BC37C" fill-rule="nonzero"></path>
                            <path d="M13.183,34.81 L13.183,68.927 C13.183,97.904 38.62,121.393 55.04,121.393 C71.461,121.393 96.898,97.904 96.898,68.927 L96.898,34.81 L13.183,34.81 Z" id="Path" fill="#A57561" fill-rule="nonzero"></path>
                            <path d="M13.183,64.823 L13.183,64.823 C15.246,64.823 16.917,63.152 16.917,61.09 L16.917,37.356 L13.183,37.356 L13.183,64.823 Z" id="Path" fill="#141720" fill-rule="nonzero"></path>
                            <path d="M96.899,64.823 L96.899,64.823 L96.899,37.356 L93.1659996,37.356 L93.1659996,61.09 C93.165,63.152 94.836,64.823 96.899,64.823 Z" id="Path" fill="#141720" fill-rule="nonzero"></path>
                            <path d="M96.893,36.33 C96.893,41.214 96.565,42.391 93.159,42.131 C93.022,39.764 76.018,37.835 55.048,37.835 C34.063,37.835 17.059,39.764 16.922,42.131 C13.516,42.391 13.188,41.214 13.188,36.33 C13.188,35.851 13.202,35.346 13.215,34.811 C13.735,22.759 20.533,0.229 55.048,0.229 C89.548,0.229 96.347,22.759 96.866,34.811 C96.879,35.346 96.893,35.852 96.893,36.33 Z" id="Path" fill="#141720" fill-rule="nonzero"></path>
                        </g>
                        <path d="M76.106,134.119 C72.589,144.945 65.505,155.658 55.07,164.418 C44.634,155.658 37.561,144.945 34.045,134.119 C34.097,134.139 34.158,134.16 34.21,134.18 C39.741,139.135 47.062,142.159 55.07,142.159 C63.079,142.159 70.389,139.146 75.921,134.191 C75.982,134.17 76.044,134.14 76.106,134.119 Z" id="Path" fill="#FFFFFF" fill-rule="nonzero"></path>
                    </g>
                </g>
            </g>
        </g>
        <path d="M658.546,376.504 C661.682,376.504 665.014,374.768 665.014,370.792 C665.014,366.816 661.934,365.92 659.134,364.996 C656.922,364.268 654.822,363.624 654.822,361.104 C654.822,358.556 657.09,357.38 659.05,357.38 C660.926,357.38 662.298,358.164 663.138,359.368 L664.734,358.08 C663.782,356.792 661.794,355.672 659.134,355.672 C656.222,355.672 652.806,357.296 652.806,361.132 C652.806,364.716 655.494,365.864 658.126,366.676 C660.646,367.46 662.97,368.16 662.97,370.932 C662.97,373.48 660.618,374.768 658.574,374.768 C656.502,374.768 654.906,373.676 654.038,372.276 L652.302,373.564 C653.73,375.524 656.138,376.504 658.546,376.504 Z M674.714,376.168 C675.582,376.168 676.282,376.028 676.954,375.776 L676.87,374.124 C676.366,374.376 675.75,374.544 675.218,374.544 C674.07,374.544 673.258,374.096 673.258,372.136 L673.258,364.492 L676.954,364.492 L676.954,362.896 L673.258,362.896 L673.258,359.2 L671.354,359.2 L671.354,362.896 L668.638,362.896 L668.638,364.492 L671.354,364.492 L671.354,372.668 C671.354,375.552 673.314,376.168 674.714,376.168 Z M686.794,376.336 C688.642,376.336 690.546,375.272 691.274,373.76 L691.33,373.76 C691.33,374.32 691.386,375.3 691.442,376 L693.262,376 C693.1864,375.1936 693.15616,374.06968 693.150868,373.34266 L693.15,362.896 L691.246,362.896 L691.246,369.616 C691.246,373.116 689.286,374.74 687.27,374.74 C684.526,374.74 683.714,372.892 683.714,370.148 L683.714,362.896 L681.81,362.896 L681.81,370.932 C681.81,374.18 683.462,376.336 686.794,376.336 Z M706.014,376.336 C707.89,376.336 709.85,375.44 710.97,373.788 L711.026,373.788 L711.026,376 L712.93,376 L712.93,354.832 L711.026,354.832 L711.026,365.164 L710.97,365.164 C709.85,363.456 707.89,362.56 706.014,362.56 C701.926,362.56 699.238,365.584 699.238,369.448 C699.238,373.312 701.926,376.336 706.014,376.336 Z M706.21,374.712 C703.046,374.712 701.254,372.36 701.254,369.448 C701.254,366.536 703.046,364.156 706.21,364.156 C709.15,364.156 711.25,366.452 711.25,369.448 C711.25,372.444 709.15,374.712 706.21,374.712 Z M725.85,376.336 C728.006,376.336 729.938,375.524 731.478,373.564 L730.05,372.444 C729.322,373.62 727.81,374.712 725.85,374.712 C723.162,374.712 721.118,372.584 721.062,369.952 L731.926,369.952 C731.954,369.616 731.954,369.308 731.954,369.056 C731.954,365.472 729.798,362.56 725.682,362.56 C721.958,362.56 719.074,365.5 719.074,369.448 C719.074,373.396 721.958,376.336 725.85,376.336 Z M730.022,368.44 L721.09,368.44 C721.258,366.2 723.134,364.156 725.682,364.156 C728.398,364.156 729.91,365.976 730.022,368.44 Z M739.946,376 L739.946,369.28 C739.946,365.78 741.906,364.156 743.922,364.156 C746.666,364.156 747.478,366.004 747.478,368.748 L747.478,376 L749.382,376 L749.382,367.964 C749.382,364.716 747.73,362.56 744.398,362.56 C742.55,362.56 740.646,363.624 739.918,365.136 L739.862,365.136 C739.862,364.576 739.806,363.596 739.75,362.896 L737.93,362.896 C738.014,363.792 738.042,365.08 738.042,365.78 L738.042,376 L739.946,376 Z M759.978,376.168 C760.846,376.168 761.546,376.028 762.218,375.776 L762.134,374.124 C761.63,374.376 761.014,374.544 760.482,374.544 C759.334,374.544 758.522,374.096 758.522,372.136 L758.522,364.492 L762.218,364.492 L762.218,362.896 L758.522,362.896 L758.522,359.2 L756.618,359.2 L756.618,362.896 L753.902,362.896 L753.902,364.492 L756.618,364.492 L756.618,372.668 C756.618,375.552 758.578,376.168 759.978,376.168 Z M770.91,376.336 C773.318,376.336 775.838,375.272 775.838,372.276 C775.838,370.232 774.382,369.084 771.302,368.44 C769.146,367.992 768.166,367.432 768.166,366.2 C768.166,364.744 769.566,364.156 770.938,364.156 C772.394,364.156 773.598,364.912 774.158,366.004 L775.614,364.912 C774.774,363.428 772.842,362.56 771.022,362.56 C768.642,362.56 766.346,363.708 766.346,366.368 C766.346,368.86 768.558,369.532 770.098,369.896 C772.59,370.484 773.962,371.044 773.962,372.416 C773.962,374.124 772.506,374.712 770.882,374.712 C769.342,374.712 767.914,373.816 767.242,372.668 L765.73,373.788 C766.934,375.552 768.922,376.336 770.91,376.336 Z" id="Students" fill="#000000" fill-rule="nonzero"></path>
        <g id="Group" transform="translate(182.000000, 845.000000)">
            <mask id="mask-4" fill="white">
                <use xlink:href="#path-3"></use>
            </mask>
            <g id="Mask" fill-rule="nonzero"></g>
            <g mask="url(#mask-4)">
                <g transform="translate(21.000000, 13.000000)">
                    <polygon id="Path" fill="#421800" fill-rule="nonzero" points="128.561 84.761 128.561 172.173 17.8 170.288 17.8 82.876"></polygon>
                    <path d="M114.938,45.277 L114.938,71.052 C114.938,71.504 114.927,71.957 114.918,72.409 C114.907,72.779 114.897,73.139 114.876,73.509 C114.866,73.838 114.846,74.167 114.815,74.496 C114.805,74.732 114.785,74.969 114.764,75.206 C114.753,75.35 114.744,75.483 114.723,75.627 C114.703,75.884 114.681,76.151 114.64,76.408 C114.599,76.902 114.537,77.385 114.465,77.878 C114.455,78.002 114.435,78.125 114.414,78.248 C114.383,78.495 114.342,78.742 114.301,78.988 L114.301,79.019 C114.24,79.378 114.178,79.728 114.115,80.088 C114.023,80.582 113.93,81.075 113.828,81.558 C113.817,81.579 113.817,81.599 113.808,81.62 C113.797,81.692 113.787,81.764 113.766,81.836 C113.756,81.857 113.756,81.877 113.746,81.898 C113.695,82.166 113.634,82.422 113.571,82.679 C113.551,82.792 113.53,82.906 113.489,83.018 C113.459,83.203 113.407,83.388 113.366,83.573 C113.335,83.676 113.314,83.789 113.273,83.892 C113.253,83.985 113.222,84.077 113.201,84.16 C112.985,85.003 112.739,85.826 112.481,86.648 C112.358,87.039 112.235,87.419 112.101,87.81 C112.09,87.851 112.07,87.892 112.06,87.933 C111.936,88.283 111.813,88.632 111.69,88.982 C111.649,89.085 111.608,89.188 111.566,89.301 C111.443,89.63 111.32,89.959 111.186,90.288 C111.032,90.689 110.867,91.08 110.703,91.471 C110.559,91.821 110.405,92.17 110.251,92.519 C110.23,92.581 110.199,92.632 110.179,92.694 C110.004,93.064 109.84,93.434 109.665,93.794 C109.49,94.174 109.305,94.555 109.109,94.935 C108.739,95.686 108.339,96.436 107.937,97.166 L107.382,98.153 C105.798,100.877 104.04,103.438 102.128,105.802 C101.87,106.142 101.604,106.471 101.325,106.789 C100.945,107.252 100.554,107.704 100.164,108.146 C99.835,108.516 99.495,108.896 99.145,109.256 C99.135,109.277 99.124,109.287 99.104,109.307 C98.118,110.367 97.11,111.374 96.082,112.32 C95.876,112.526 95.66,112.711 95.444,112.906 C95.094,113.225 94.745,113.534 94.385,113.832 C94.108,114.079 93.82,114.315 93.532,114.552 C92.792,115.158 92.052,115.744 91.302,116.289 C90.993,116.525 90.674,116.752 90.356,116.968 C89.842,117.338 89.318,117.688 88.793,118.027 C88.505,118.222 88.207,118.408 87.908,118.583 C86.859,119.231 85.801,119.827 84.752,120.341 C84.495,120.475 84.238,120.598 83.981,120.722 C83.723,120.845 83.457,120.968 83.178,121.092 C82.839,121.246 82.5,121.39 82.16,121.524 C82.026,121.586 81.892,121.637 81.76,121.678 C81.359,121.842 80.948,121.996 80.546,122.13 C80.042,122.316 79.528,122.47 79.025,122.613 C78.675,122.716 78.316,122.808 77.966,122.89 C77.945,122.901 77.924,122.911 77.894,122.911 C77.544,122.993 77.195,123.076 76.845,123.138 C76.752,123.159 76.66,123.179 76.568,123.189 C76.28,123.241 75.992,123.293 75.704,123.323 C75.293,123.386 74.882,123.436 74.471,123.457 C74.328,123.477 74.194,123.488 74.049,123.488 C73.72,123.508 73.402,123.518 73.083,123.518 L73.042,123.518 C72.723,123.518 72.404,123.508 72.085,123.488 C71.962,123.488 71.839,123.477 71.716,123.457 C71.428,123.447 71.129,123.416 70.821,123.375 C70.758,123.375 70.687,123.364 70.626,123.355 C70.245,123.303 69.864,123.242 69.474,123.169 C69.145,123.118 68.817,123.046 68.477,122.964 C66.719,122.563 64.91,121.956 63.08,121.144 C61.517,120.456 59.934,119.623 58.361,118.657 C57.569,118.174 56.777,117.659 55.996,117.114 C55.605,116.837 55.215,116.559 54.824,116.271 C53.6,115.376 52.387,114.4 51.194,113.351 C50.866,113.053 50.537,112.754 50.208,112.447 C49.879,112.148 49.55,111.84 49.231,111.542 C48.47,110.813 47.73,110.062 47.02,109.27 C46.968,109.229 46.927,109.178 46.886,109.137 C46.588,108.818 46.289,108.488 45.992,108.15 C45.17,107.224 44.368,106.268 43.607,105.271 C43.308,104.911 43.031,104.542 42.753,104.17 C41.714,102.793 40.728,101.354 39.802,99.862 C39.556,99.461 39.309,99.05 39.073,98.649 C38.785,98.166 38.508,97.672 38.23,97.179 C37.202,95.328 36.255,93.406 35.433,91.421 C35.31,91.133 35.186,90.845 35.083,90.557 C34.918,90.187 34.774,89.806 34.641,89.437 C34.436,88.891 34.241,88.347 34.055,87.802 C33.87,87.257 33.696,86.702 33.521,86.147 C33.356,85.612 33.202,85.078 33.058,84.533 C32.893,83.957 32.739,83.371 32.606,82.775 C32.595,82.713 32.575,82.651 32.564,82.59 C32.369,81.768 32.195,80.935 32.041,80.092 C31.835,78.982 31.671,77.851 31.547,76.71 C31.496,76.35 31.465,75.99 31.434,75.63 C31.393,75.25 31.363,74.88 31.342,74.499 C31.29,73.81 31.259,73.111 31.238,72.412 C31.228,71.96 31.217,71.507 31.217,71.055 L31.217,45.277 C31.217,22.936 48.727,4.676 70.779,3.483 C70.821,3.472 70.851,3.472 70.892,3.472 C71.18,3.462 71.468,3.451 71.756,3.441 C72.188,3.431 72.609,3.42 73.041,3.42 L73.082,3.42 C73.523,3.42 73.966,3.43 74.408,3.441 C74.747,3.451 75.087,3.462 75.426,3.483 L75.457,3.483 C77.811,3.616 80.125,3.945 82.355,4.449 C85.08,5.066 87.702,5.95 90.189,7.071 C93.583,8.592 96.739,10.546 99.577,12.88 C101.962,14.834 104.132,17.034 106.023,19.46 C111.534,26.482 114.854,35.304 114.926,44.906 C114.938,45.03 114.938,45.153 114.938,45.277 Z" id="Path" fill="#F0D0B4" fill-rule="nonzero"></path>
                    <path d="M127.615,187.745 L127.615,187.756 L18.54,187.756 L18.54,187.745 C18.54,181.648 19.537,175.767 21.398,170.288 C21.419,170.236 21.429,170.184 21.45,170.134 C21.789,169.137 22.159,168.15 22.56,167.173 L22.56,167.162 C22.951,166.185 23.382,165.229 23.834,164.283 C25.634,160.489 27.875,156.942 30.476,153.693 C31.134,152.881 31.803,152.089 32.492,151.329 C32.831,150.938 33.191,150.558 33.551,150.178 C33.911,149.808 34.271,149.438 34.641,149.068 C36.482,147.227 38.455,145.542 40.533,143.989 C41.571,143.218 42.62,142.498 43.71,141.799 C43.854,141.707 43.998,141.614 44.142,141.532 C44.543,141.274 44.944,141.028 45.356,140.792 C45.911,140.463 46.476,140.144 47.042,139.835 C47.063,139.815 47.083,139.815 47.083,139.815 C47.525,139.579 47.957,139.322 48.389,139.054 C49.674,138.283 50.909,137.43 52.08,136.484 C57.046,132.537 60.891,127.231 63.081,121.144 C63.719,119.355 64.222,117.495 64.561,115.583 C64.911,113.608 65.096,111.573 65.096,109.496 L73.043,109.537 L73.176,109.537 L81.216,109.578 C81.216,111.614 81.391,113.608 81.731,115.552 C82.06,117.464 82.553,119.315 83.18,121.094 C85.339,127.2 89.174,132.527 94.14,136.495 C94.88,137.101 95.631,137.656 96.422,138.181 C96.505,138.244 96.576,138.294 96.659,138.346 C97.029,138.593 97.399,138.839 97.79,139.066 C98.211,139.323 98.644,139.58 99.075,139.816 C99.146,139.836 99.209,139.868 99.26,139.909 C100.165,140.413 101.06,140.937 101.934,141.482 C102.005,141.523 102.067,141.564 102.139,141.616 C102.489,141.832 102.849,142.057 103.188,142.305 C104.042,142.85 104.875,143.447 105.686,144.064 C105.686,144.074 105.697,144.074 105.697,144.074 L105.707,144.074 C106.746,144.845 107.753,145.668 108.74,146.511 C109.727,147.354 110.673,148.239 111.588,149.154 C117.49,155.024 122.044,162.242 124.759,170.293 C126.607,175.768 127.615,181.639 127.615,187.745 Z" id="Path" fill="#F0D0B4" fill-rule="nonzero"></path>
                    <path d="M127.615,187.745 L18.54,187.745 C18.54,181.648 19.537,175.767 21.398,170.288 C21.419,170.236 21.429,170.184 21.45,170.134 C21.789,169.137 22.159,168.15 22.56,167.173 L22.56,167.162 C22.951,166.185 23.382,165.229 23.834,164.283 C25.634,160.489 27.875,156.942 30.476,153.693 C31.134,152.881 31.803,152.089 32.492,151.329 C32.831,150.938 33.191,150.558 33.551,150.178 C33.911,149.808 34.271,149.438 34.641,149.068 C36.482,147.227 38.455,145.542 40.533,143.989 C41.571,143.218 42.62,142.498 43.71,141.799 C43.854,141.707 43.998,141.614 44.142,141.532 C44.543,141.274 44.944,141.028 45.356,140.792 C45.911,140.452 46.476,140.134 47.042,139.825 C47.063,139.804 47.083,139.814 47.083,139.814 L47.083,139.804 C47.525,139.557 47.957,139.311 48.389,139.053 C49.674,138.272 50.909,137.408 52.06,136.462 C52.07,136.473 52.07,136.473 52.081,136.483 C57.406,141.932 64.819,145.315 73.045,145.336 L73.178,145.336 C81.383,145.325 88.806,141.933 94.142,136.494 L94.153,136.483 C94.882,137.089 95.643,137.655 96.424,138.179 C96.507,138.242 96.578,138.292 96.661,138.344 C97.031,138.591 97.411,138.827 97.792,139.064 C98.213,139.321 98.646,139.568 99.077,139.804 C99.148,139.825 99.2,139.866 99.262,139.897 C100.167,140.4 101.062,140.924 101.936,141.48 C102.007,141.521 102.069,141.562 102.141,141.614 C102.491,141.83 102.851,142.055 103.19,142.303 C104.044,142.848 104.877,143.445 105.688,144.062 L105.709,144.062 C106.748,144.843 107.766,145.655 108.742,146.508 C109.729,147.351 110.675,148.236 111.59,149.151 C117.492,155.021 122.046,162.239 124.761,170.29 C126.607,175.768 127.615,181.639 127.615,187.745 Z" id="Path" fill="#B34FC5" fill-rule="nonzero"></path>
                    <path d="M128.798,157.583 C128.726,157.614 128.644,157.646 128.561,157.655 C123.154,159.063 101.83,133.367 101.614,106.43 C101.604,104.26 101.717,102.08 101.995,99.891 C102.715,94.082 105.512,88.499 107.835,82.875 C109.665,78.423 111.217,73.961 111.217,69.355 C111.217,44.68 104.062,52.72 84.106,39.405 C79.284,36.197 75.86,33.565 73.176,31.426 C65.764,25.545 63.882,23.438 53.714,23.438 C40.779,23.438 35.639,45.902 34.169,55.505 C32.586,65.838 32.565,82.586 39.012,98.532 C44.007,110.888 44.008,123.002 34.169,136.46 C30.478,141.509 24.823,158.565 17.801,164.065 C15.612,165.782 13.298,166.379 10.862,165.134 C-8.324,155.316 3.222,123.803 8.98,104.073 C15.18,82.842 17.051,61.323 21.554,39.886 C26.632,15.749 47.297,1.036 55.646,7 C58.432,2.003 65.722,0.132 73.175,0.132 C78.635,0.132 84.197,1.15 88.145,2.682 C118.629,14.516 119.144,42.769 120.768,54.52 C122.105,64.226 126.885,73.294 128.561,82.876 L128.561,82.907 C128.921,84.922 129.137,86.978 129.148,89.055 C129.219,100.272 127.965,107.86 136.489,117.205 C142.955,124.289 138.01,153.543 128.798,157.583 Z" id="Path" fill="#421800" fill-rule="nonzero"></path>
                    <g id="Group" stroke-width="1" fill="none" fill-rule="evenodd" transform="translate(44.000000, 136.000000)">
                        <path d="M29.175,9.335 L29.145,9.387 L29.134,9.407 C26.235,13.91 21.434,16.254 16.591,16.254 C12.653,16.254 8.695,14.702 5.724,11.515 L0.141,5.532 C1.087,4.925 2.053,4.359 3.04,3.825 C3.061,3.804 3.081,3.814 3.081,3.814 L3.081,3.804 C3.523,3.557 3.955,3.311 4.387,3.053 C5.672,2.272 6.907,1.408 8.058,0.462 C8.068,0.473 8.068,0.473 8.079,0.483 C13.404,5.932 20.817,9.315 29.043,9.336 L29.175,9.336 L29.175,9.335 Z" id="Path" fill="#E7ECF2" fill-rule="nonzero"></path>
                        <path d="M58.138,5.613 L52.638,11.514 C49.666,14.702 45.708,16.253 41.76,16.253 C36.928,16.253 32.116,13.909 29.227,9.406 L29.217,9.386 L29.175,9.334 C37.38,9.323 44.803,5.931 50.139,0.492 L50.15,0.481 C50.879,1.087 51.64,1.653 52.421,2.177 C52.504,2.24 52.575,2.29 52.658,2.342 C53.028,2.589 53.408,2.825 53.789,3.062 C54.21,3.319 54.643,3.566 55.074,3.802 C55.145,3.823 55.197,3.864 55.259,3.895 C56.164,4.398 57.059,4.922 57.933,5.478 C58.004,5.52 58.065,5.561 58.138,5.613 Z" id="Path" fill="#E7ECF2" fill-rule="nonzero"></path>
                    </g>
                </g>
            </g>
        </g>
        <path d="M179.098,1092.504 C182.234,1092.504 185.566,1090.768 185.566,1086.792 C185.566,1082.816 182.486,1081.92 179.686,1080.996 C177.474,1080.268 175.374,1079.624 175.374,1077.104 C175.374,1074.556 177.642,1073.38 179.602,1073.38 C181.478,1073.38 182.85,1074.164 183.69,1075.368 L185.286,1074.08 C184.334,1072.792 182.346,1071.672 179.686,1071.672 C176.774,1071.672 173.358,1073.296 173.358,1077.132 C173.358,1080.716 176.046,1081.864 178.678,1082.676 C181.198,1083.46 183.522,1084.16 183.522,1086.932 C183.522,1089.48 181.17,1090.768 179.126,1090.768 C177.054,1090.768 175.458,1089.676 174.59,1088.276 L172.854,1089.564 C174.282,1091.524 176.69,1092.504 179.098,1092.504 Z M193.67,1098.72 L193.67,1089.788 L193.754,1089.788 C194.846,1091.412 196.806,1092.336 198.682,1092.336 C202.77,1092.336 205.458,1089.312 205.458,1085.448 C205.458,1081.584 202.77,1078.56 198.682,1078.56 C196.806,1078.56 194.846,1079.456 193.754,1081.164 L193.67,1081.164 L193.67,1078.896 L191.766,1078.896 L191.766,1098.72 L193.67,1098.72 Z M198.486,1090.712 C195.546,1090.712 193.446,1088.444 193.446,1085.448 C193.446,1082.452 195.546,1080.156 198.486,1080.156 C201.65,1080.156 203.442,1082.536 203.442,1085.448 C203.442,1088.36 201.65,1090.712 198.486,1090.712 Z M217.37,1092.336 C219.526,1092.336 221.458,1091.524 222.998,1089.564 L221.57,1088.444 C220.842,1089.62 219.33,1090.712 217.37,1090.712 C214.682,1090.712 212.638,1088.584 212.582,1085.952 L223.446,1085.952 C223.474,1085.616 223.474,1085.308 223.474,1085.056 C223.474,1081.472 221.318,1078.56 217.202,1078.56 C213.478,1078.56 210.594,1081.5 210.594,1085.448 C210.594,1089.396 213.478,1092.336 217.37,1092.336 Z M221.542,1084.44 L212.61,1084.44 C212.778,1082.2 214.654,1080.156 217.202,1080.156 C219.918,1080.156 221.43,1081.976 221.542,1084.44 Z M235.61,1092.336 C237.878,1092.336 239.474,1091.44 240.594,1090.068 L239.166,1089.004 C238.41,1090.012 237.262,1090.712 235.61,1090.712 C232.558,1090.712 230.626,1088.416 230.626,1085.448 C230.626,1082.452 232.586,1080.156 235.638,1080.156 C237.066,1080.156 238.382,1080.884 238.998,1081.892 L240.482,1080.828 C239.362,1079.316 237.374,1078.56 235.61,1078.56 C231.382,1078.56 228.61,1081.5 228.61,1085.448 C228.61,1089.396 231.382,1092.336 235.61,1092.336 Z M246.542,1075.2 C247.214,1075.2 247.886,1074.64 247.886,1073.856 C247.886,1073.072 247.214,1072.512 246.542,1072.512 C245.87,1072.512 245.198,1073.072 245.198,1073.856 C245.198,1074.64 245.87,1075.2 246.542,1075.2 Z M247.494,1092 L247.494,1078.896 L245.59,1078.896 L245.59,1092 L247.494,1092 Z M258.118,1092.336 C260.218,1092.336 261.674,1091.608 262.878,1089.872 L262.934,1089.872 C262.934,1090.572 263.018,1091.356 263.13,1092 L264.838,1092 C264.698,1091.272 264.614,1090.068 264.614,1089.06 L264.614,1083.32 C264.614,1080.128 262.346,1078.56 259.518,1078.56 C257.278,1078.56 255.43,1079.372 254.366,1080.436 L255.43,1081.696 C256.354,1080.772 257.782,1080.156 259.322,1080.156 C261.59,1080.156 262.822,1081.276 262.822,1083.544 L262.822,1083.964 C258.034,1083.964 253.582,1084.328 253.582,1088.36 C253.582,1091.272 256.13,1092.336 258.118,1092.336 Z M258.622,1090.768 C257.138,1090.768 255.542,1090.152 255.542,1088.276 C255.542,1085.784 259.154,1085.448 262.262,1085.448 L262.822,1085.448 L262.822,1086.428 C262.822,1088.752 261.31,1090.768 258.622,1090.768 Z M273.474,1092 L273.474,1070.832 L271.57,1070.832 L271.57,1092 L273.474,1092 Z M302.31,1092 L302.31,1090.208 L291.698,1090.208 L291.698,1082.564 L301.302,1082.564 L301.302,1080.8 L291.698,1080.8 L291.698,1073.968 L301.974,1073.968 L301.974,1072.176 L289.682,1072.176 L289.682,1092 L302.31,1092 Z M313.186,1092 L318.506,1078.896 L316.462,1078.896 L312.178,1089.984 L312.122,1089.984 L307.866,1078.896 L305.738,1078.896 L311.086,1092 L313.186,1092 Z M329.298,1092.336 C331.454,1092.336 333.386,1091.524 334.926,1089.564 L333.498,1088.444 C332.77,1089.62 331.258,1090.712 329.298,1090.712 C326.61,1090.712 324.566,1088.584 324.51,1085.952 L335.374,1085.952 C335.402,1085.616 335.402,1085.308 335.402,1085.056 C335.402,1081.472 333.246,1078.56 329.13,1078.56 C325.406,1078.56 322.522,1081.5 322.522,1085.448 C322.522,1089.396 325.406,1092.336 329.298,1092.336 Z M333.47,1084.44 L324.538,1084.44 C324.706,1082.2 326.582,1080.156 329.13,1080.156 C331.846,1080.156 333.358,1081.976 333.47,1084.44 Z M343.394,1092 L343.394,1085.28 C343.394,1081.78 345.354,1080.156 347.37,1080.156 C350.114,1080.156 350.926,1082.004 350.926,1084.748 L350.926,1092 L352.83,1092 L352.83,1083.964 C352.83,1080.716 351.178,1078.56 347.846,1078.56 C345.998,1078.56 344.094,1079.624 343.366,1081.136 L343.31,1081.136 C343.31,1080.576 343.254,1079.596 343.198,1078.896 L341.378,1078.896 C341.462,1079.792 341.49,1081.08 341.49,1081.78 L341.49,1092 L343.394,1092 Z M363.426,1092.168 C364.294,1092.168 364.994,1092.028 365.666,1091.776 L365.582,1090.124 C365.078,1090.376 364.462,1090.544 363.93,1090.544 C362.782,1090.544 361.97,1090.096 361.97,1088.136 L361.97,1080.492 L365.666,1080.492 L365.666,1078.896 L361.97,1078.896 L361.97,1075.2 L360.066,1075.2 L360.066,1078.896 L357.35,1078.896 L357.35,1080.492 L360.066,1080.492 L360.066,1088.668 C360.066,1091.552 362.026,1092.168 363.426,1092.168 Z M374.358,1092.336 C376.766,1092.336 379.286,1091.272 379.286,1088.276 C379.286,1086.232 377.83,1085.084 374.75,1084.44 C372.594,1083.992 371.614,1083.432 371.614,1082.2 C371.614,1080.744 373.014,1080.156 374.386,1080.156 C375.842,1080.156 377.046,1080.912 377.606,1082.004 L379.062,1080.912 C378.222,1079.428 376.29,1078.56 374.47,1078.56 C372.09,1078.56 369.794,1079.708 369.794,1082.368 C369.794,1084.86 372.006,1085.532 373.546,1085.896 C376.038,1086.484 377.41,1087.044 377.41,1088.416 C377.41,1090.124 375.954,1090.712 374.33,1090.712 C372.79,1090.712 371.362,1089.816 370.69,1088.668 L369.178,1089.788 C370.382,1091.552 372.37,1092.336 374.358,1092.336 Z" id="SpecialEvents" fill="#000000" fill-rule="nonzero"></path>
        <g id="Group-3" transform="translate(182.000000, 487.000000)">
            <mask id="mask-6" fill="white">
                <use xlink:href="#path-5"></use>
            </mask>
            <g id="Mask" fill-rule="nonzero"></g>
            <g mask="url(#mask-6)">
                <g transform="translate(39.572000, 10.929000)">
                    <path d="M96.401,41.855 L96.401,73.121 C96.401,73.573 96.391,74.025 96.38,74.477 C96.37,74.847 96.36,75.207 96.339,75.578 C96.329,75.907 96.308,76.236 96.277,76.565 C96.267,76.801 96.246,77.038 96.226,77.274 C96.215,77.419 96.205,77.551 96.184,77.696 C96.164,77.953 96.143,78.22 96.102,78.477 C96.061,78.97 95.999,79.454 95.927,79.947 C95.917,80.071 95.896,80.194 95.876,80.317 C95.845,80.564 95.804,80.811 95.763,81.057 L95.763,81.088 C95.702,81.447 95.64,81.797 95.578,82.157 C95.485,82.65 95.393,83.144 95.29,83.627 C95.28,83.648 95.28,83.669 95.27,83.69 C95.26,83.761 95.249,83.834 95.229,83.906 C95.219,83.927 95.219,83.947 95.208,83.968 C95.157,84.236 95.095,84.492 95.033,84.749 C95.013,84.862 94.992,84.976 94.951,85.089 C94.92,85.274 94.868,85.458 94.828,85.644 C94.797,85.747 94.777,85.86 94.735,85.962 C94.714,86.055 94.684,86.148 94.663,86.23 C94.447,87.073 94.2,87.896 93.943,88.718 C93.819,89.109 93.696,89.489 93.563,89.88 C93.553,89.921 93.532,89.962 93.522,90.003 C93.399,90.353 93.275,90.702 93.152,91.052 C93.111,91.155 93.07,91.257 93.029,91.37 C92.905,91.699 92.782,92.028 92.649,92.357 C92.495,92.757 92.33,93.148 92.166,93.54 C92.022,93.89 91.868,94.238 91.714,94.588 C91.694,94.651 91.663,94.701 91.642,94.763 C91.467,95.133 91.303,95.503 91.128,95.864 C90.953,96.244 90.768,96.625 90.573,97.006 C90.203,97.756 89.802,98.507 89.401,99.236 L88.846,100.223 C87.262,102.948 85.505,105.507 83.592,107.872 C83.335,108.211 83.068,108.54 82.79,108.858 C82.41,109.321 82.019,109.773 81.628,110.215 C81.278,110.606 80.929,110.996 80.569,111.377 C79.582,112.436 78.574,113.443 77.546,114.39 C77.34,114.595 77.125,114.781 76.909,114.976 C76.559,115.294 76.21,115.603 75.85,115.901 C75.573,116.148 75.285,116.384 74.996,116.621 C74.256,117.227 73.516,117.813 72.765,118.358 C72.457,118.595 72.138,118.821 71.819,119.037 C71.305,119.407 70.78,119.757 70.256,120.097 C69.968,120.292 69.67,120.477 69.372,120.652 C68.323,121.299 67.264,121.896 66.215,122.41 C65.958,122.544 65.701,122.668 65.444,122.791 C65.187,122.914 64.92,123.038 64.642,123.161 C64.303,123.315 63.963,123.459 63.624,123.593 C63.49,123.654 63.357,123.706 63.223,123.747 C62.822,123.912 62.411,124.065 62.01,124.199 C61.507,124.385 60.992,124.539 60.489,124.682 C60.139,124.785 59.78,124.877 59.43,124.959 C59.409,124.97 59.389,124.98 59.358,124.98 C59.008,125.063 58.659,125.145 58.309,125.207 C58.217,125.228 58.124,125.248 58.032,125.259 C57.744,125.31 57.456,125.362 57.168,125.393 C56.757,125.455 56.345,125.506 55.934,125.526 C55.79,125.547 55.657,125.557 55.513,125.557 C55.184,125.577 54.855,125.588 54.536,125.588 L54.505,125.588 C54.187,125.588 53.868,125.577 53.549,125.557 C53.426,125.557 53.302,125.547 53.179,125.526 C52.891,125.516 52.593,125.485 52.284,125.444 C52.223,125.444 52.151,125.434 52.089,125.423 C51.709,125.372 51.328,125.31 50.938,125.238 C50.609,125.186 50.28,125.114 49.94,125.032 C48.182,124.631 46.373,124.024 44.543,123.213 C42.98,122.524 41.397,121.691 39.824,120.725 C39.033,120.242 38.241,119.728 37.459,119.183 C37.068,118.905 36.678,118.627 36.287,118.339 C35.063,117.444 33.85,116.468 32.658,115.419 C32.329,115.121 32,114.823 31.671,114.515 C31.342,114.217 31.013,113.908 30.694,113.61 C29.892,112.839 29.111,112.038 28.35,111.205 C28.052,110.886 27.754,110.558 27.455,110.218 C26.633,109.293 25.831,108.337 25.07,107.339 C24.772,106.98 24.494,106.61 24.217,106.239 C23.178,104.861 22.192,103.422 21.266,101.93 C21.019,101.53 20.772,101.119 20.536,100.717 C20.248,100.234 19.971,99.74 19.693,99.247 C18.665,97.396 17.719,95.474 16.897,93.489 C16.773,93.201 16.65,92.913 16.547,92.626 C16.383,92.256 16.239,91.875 16.105,91.505 C15.899,90.96 15.704,90.415 15.519,89.87 C15.334,89.325 15.159,88.769 14.984,88.215 C14.82,87.68 14.666,87.146 14.522,86.601 C14.357,86.025 14.203,85.439 14.069,84.843 C14.059,84.781 14.038,84.719 14.028,84.657 C13.833,83.835 13.658,83.002 13.504,82.159 C13.298,81.049 13.134,79.918 13.011,78.776 C12.959,78.417 12.928,78.056 12.898,77.697 C12.857,77.316 12.826,76.946 12.805,76.566 C12.754,75.877 12.723,75.177 12.702,74.478 C12.692,74.026 12.681,73.574 12.681,73.122 L12.681,41.855 C12.681,18.752 31.403,0.02 54.505,-1.42108547e-13 L54.547,-1.42108547e-13 C57.734,-1.42108547e-13 60.839,0.359 63.82,1.028 C66.545,1.644 69.167,2.529 71.654,3.649 C75.047,5.17 78.203,7.125 81.041,9.459 C83.427,11.412 85.596,13.612 87.488,16.039 C92.999,23.061 96.319,31.883 96.391,41.485 C96.401,41.608 96.401,41.731 96.401,41.855 Z" id="Path" fill="#ECC19C" fill-rule="nonzero"></path>
                    <path d="M109.078,189.814 L109.078,189.824 L0.003,189.824 L0.003,189.814 C0.003,183.655 1.021,177.723 2.913,172.202 C3.252,171.205 3.622,170.218 4.024,169.241 L4.024,169.23 C4.415,168.253 4.846,167.297 5.298,166.352 C7.097,162.558 9.339,159.01 11.94,155.762 C12.598,154.949 13.266,154.157 13.955,153.397 C14.294,153.006 14.654,152.627 15.014,152.246 C15.373,151.876 15.734,151.506 16.103,151.136 C17.944,149.295 19.917,147.61 21.995,146.057 C23.033,145.286 24.082,144.566 25.172,143.868 C26.262,143.179 27.372,142.52 28.503,141.904 C28.524,141.884 28.544,141.884 28.544,141.884 C28.986,141.647 29.418,141.39 29.85,141.123 C31.135,140.352 32.369,139.498 33.541,138.553 C38.507,134.605 42.352,129.299 44.542,123.213 C45.848,119.573 46.557,115.656 46.557,111.564 L54.504,111.605 L62.678,111.647 C62.678,115.687 63.367,119.563 64.642,123.162 C66.801,129.269 70.636,134.595 75.602,138.563 C76.342,139.17 77.093,139.725 77.884,140.25 C77.967,140.311 78.038,140.362 78.121,140.414 C78.491,140.661 78.861,140.907 79.252,141.134 C79.673,141.391 80.105,141.648 80.537,141.885 C80.609,141.905 80.671,141.936 80.722,141.977 C81.627,142.481 82.521,143.005 83.395,143.55 C83.817,143.807 84.238,144.074 84.649,144.372 C85.503,144.917 86.335,145.514 87.148,146.131 C87.148,146.141 87.158,146.141 87.158,146.141 L87.168,146.141 C88.207,146.912 89.214,147.735 90.201,148.578 C91.188,149.422 92.134,150.305 93.049,151.221 C102.96,161.088 109.078,174.722 109.078,189.814 Z" id="Path" fill="#ECC19C" fill-rule="nonzero"></path>
                    <path d="M109.074,189.81 L-1.84741111e-13,189.81 C-1.84741111e-13,183.651 1.018,177.718 2.91,172.198 C3.249,171.201 3.62,170.214 4.02,169.237 L4.02,169.226 C4.411,168.249 4.843,167.293 5.295,166.347 C7.094,162.554 9.335,159.006 11.937,155.757 C12.595,154.945 13.264,154.153 13.952,153.393 C14.291,153.002 14.651,152.622 15.011,152.242 C15.371,151.872 15.731,151.502 16.101,151.132 C17.941,149.291 19.915,147.606 21.992,146.053 C23.031,145.282 24.079,144.562 25.169,143.863 C25.734,143.504 26.3,143.154 26.875,142.815 C27.41,142.496 27.955,142.187 28.5,141.889 C28.521,141.868 28.541,141.879 28.541,141.879 L28.541,141.868 C28.983,141.621 29.415,141.375 29.847,141.117 C31.132,140.336 32.366,139.472 33.517,138.526 C33.527,138.537 33.527,138.537 33.538,138.547 C38.864,143.996 46.277,147.379 54.502,147.4 L54.585,147.4 C62.81,147.4 70.253,144.007 75.6,138.558 L75.61,138.547 C76.34,139.154 77.101,139.72 77.882,140.244 C77.964,140.305 78.036,140.356 78.118,140.408 C78.488,140.655 78.869,140.891 79.249,141.128 C79.67,141.385 80.103,141.632 80.534,141.868 C80.606,141.889 80.658,141.93 80.719,141.961 C81.202,142.229 81.696,142.506 82.169,142.793 C82.581,143.04 82.992,143.287 83.393,143.544 C83.814,143.801 84.236,144.068 84.647,144.366 C85.501,144.911 86.333,145.508 87.145,146.125 L87.166,146.125 C88.204,146.906 89.222,147.719 90.199,148.571 C91.186,149.415 92.132,150.299 93.047,151.214 C102.957,161.083 109.074,174.716 109.074,189.81 Z" id="Path" fill="#EB6D4A" fill-rule="nonzero"></path>
                    <path d="M96.401,73.121 C96.401,73.573 96.391,74.025 96.38,74.477 C96.37,74.847 96.36,75.207 96.339,75.578 C96.329,75.907 96.308,76.236 96.277,76.565 C96.267,76.801 96.246,77.038 96.226,77.274 C96.215,77.419 96.205,77.551 96.184,77.696 C96.164,77.953 96.143,78.22 96.102,78.477 C96.05,78.97 95.999,79.463 95.927,79.947 C95.917,80.071 95.896,80.194 95.876,80.317 C95.845,80.564 95.804,80.811 95.763,81.057 C95.712,81.427 95.64,81.797 95.578,82.158 C95.496,82.59 95.413,83.011 95.321,83.432 C95.31,83.525 95.29,83.607 95.269,83.69 C95.259,83.761 95.238,83.834 95.228,83.906 C95.218,83.927 95.218,83.947 95.207,83.968 C95.207,84.019 95.197,84.061 95.187,84.102 C95.136,84.318 95.094,84.534 95.033,84.749 C95.013,84.862 94.992,84.976 94.951,85.089 C94.909,85.294 94.858,85.489 94.797,85.685 C94.787,85.778 94.766,85.871 94.735,85.962 C94.714,86.055 94.684,86.148 94.663,86.23 C94.447,87.073 94.2,87.896 93.943,88.718 C93.819,89.109 93.696,89.489 93.563,89.88 C93.553,89.921 93.532,89.962 93.522,90.003 C93.399,90.353 93.275,90.702 93.152,91.052 C93.111,91.155 93.07,91.257 93.029,91.37 C92.905,91.699 92.782,92.028 92.649,92.357 C92.495,92.757 92.33,93.148 92.166,93.54 C92.022,93.89 91.868,94.238 91.714,94.588 C91.694,94.651 91.663,94.701 91.642,94.763 C91.467,95.133 91.303,95.503 91.128,95.864 C90.953,96.244 90.768,96.625 90.573,97.006 C90.203,97.756 89.802,98.507 89.401,99.236 L88.846,100.223 C87.262,102.948 85.505,105.507 83.592,107.872 C83.335,108.211 83.068,108.54 82.79,108.858 C82.41,109.321 82.019,109.773 81.628,110.215 C81.278,110.606 80.929,110.996 80.569,111.377 C79.582,112.436 78.574,113.443 77.546,114.39 C77.34,114.595 77.125,114.781 76.909,114.976 C76.559,115.294 76.21,115.603 75.85,115.901 C75.573,116.148 75.285,116.384 74.996,116.621 C74.256,117.227 73.516,117.813 72.765,118.358 C72.457,118.595 72.138,118.821 71.819,119.037 C71.305,119.407 70.78,119.757 70.256,120.097 C69.968,120.292 69.67,120.477 69.372,120.652 C68.323,121.299 67.264,121.896 66.215,122.41 C65.958,122.544 65.701,122.668 65.444,122.791 C65.187,122.914 64.92,123.038 64.642,123.161 C64.303,123.315 63.963,123.459 63.624,123.593 C63.49,123.654 63.357,123.706 63.223,123.747 C62.822,123.912 62.411,124.065 62.01,124.199 C61.507,124.385 60.992,124.539 60.489,124.682 C60.139,124.785 59.78,124.877 59.43,124.959 C59.409,124.97 59.389,124.98 59.358,124.98 C59.008,125.063 58.659,125.145 58.309,125.207 C58.217,125.228 58.124,125.248 58.032,125.259 C57.744,125.31 57.456,125.362 57.168,125.393 C56.757,125.455 56.345,125.506 55.934,125.526 C55.79,125.547 55.657,125.557 55.513,125.557 C55.184,125.577 54.855,125.588 54.536,125.588 L54.505,125.588 C54.187,125.588 53.868,125.577 53.549,125.557 C53.426,125.557 53.302,125.547 53.179,125.526 C52.891,125.516 52.593,125.485 52.284,125.444 C52.223,125.444 52.151,125.434 52.089,125.423 C51.709,125.372 51.328,125.31 50.938,125.238 C50.609,125.186 50.28,125.114 49.94,125.032 C48.182,124.631 46.373,124.024 44.543,123.213 C42.98,122.524 41.397,121.691 39.824,120.725 C39.033,120.252 38.251,119.738 37.459,119.183 C37.068,118.905 36.678,118.627 36.287,118.339 C35.063,117.444 33.85,116.468 32.658,115.419 C32.329,115.121 32,114.823 31.671,114.515 C31.342,114.217 31.013,113.908 30.694,113.61 C29.892,112.839 29.111,112.038 28.35,111.205 C28.052,110.886 27.754,110.558 27.455,110.218 C26.633,109.293 25.831,108.337 25.07,107.339 C24.772,106.98 24.494,106.61 24.217,106.239 C23.178,104.861 22.192,103.422 21.266,101.93 C21.019,101.53 20.772,101.119 20.536,100.717 C20.248,100.234 19.971,99.74 19.693,99.247 C18.665,97.396 17.719,95.474 16.897,93.489 C16.773,93.201 16.65,92.913 16.547,92.626 C16.383,92.256 16.239,91.875 16.105,91.505 C15.899,90.96 15.704,90.415 15.519,89.87 C15.334,89.325 15.159,88.769 14.984,88.215 C14.82,87.68 14.666,87.146 14.522,86.601 C14.357,86.025 14.203,85.439 14.069,84.843 C14.059,84.781 14.038,84.719 14.028,84.657 C13.833,83.835 13.658,83.002 13.504,82.159 C13.298,81.049 13.134,79.918 13.011,78.776 C12.959,78.417 12.928,78.056 12.898,77.697 C12.857,77.316 12.826,76.946 12.805,76.566 C12.754,75.877 12.723,75.177 12.702,74.478 C12.692,74.026 12.681,73.574 12.681,73.122 L19.364,86.262 L30.848,91.269 L44.428,92.491 L44.438,92.491 L54.503,93.406 L54.565,93.406 L63.982,94.259 C63.982,94.259 63.982,94.249 63.992,94.259 L84.997,96.152 L96.401,73.121 Z" id="Path" fill="#543E36" fill-rule="nonzero"></path>
                    <g id="Group" stroke-width="1" fill="none" fill-rule="evenodd" transform="translate(12.428000, 60.071000)">
                        <path d="M42.159,19.651 L42.149,29.778 L42.149,29.788 L42.139,33.336 L42.139,36.122 L42.129,45.375 L42.129,45.386 L42.119,45.375 L42.109,45.375 L42.078,45.354 L1.64,24.771 C1.63,24.709 1.609,24.647 1.599,24.585 C1.404,23.763 1.229,22.93 1.075,22.087 C0.869,20.977 0.705,19.846 0.582,18.704 C0.53,18.345 0.499,17.984 0.469,17.625 C0.428,17.244 0.397,16.874 0.376,16.494 C0.325,15.805 0.294,15.105 0.273,14.406 C0.263,13.954 0.252,13.502 0.252,13.05 L0.252,0.764 C0.252,0.939 0.262,1.114 0.262,1.288 C0.344,4.259 0.817,7.528 1.732,10.87 C2.442,13.44 3.325,15.815 4.354,17.933 L4.354,17.943 C7.048,23.547 10.657,27.35 13.977,27.967 C14.183,27.998 14.398,28.019 14.604,28.039 C15.889,28.183 17.236,28.265 18.624,28.265 C23.868,28.265 28.525,24.05 31.455,22.343 C31.476,22.333 31.496,22.322 31.517,22.313 C31.671,22.22 31.825,22.127 31.959,22.035 C32,22.005 32.041,21.984 32.083,21.964 C34.55,20.555 38.108,19.66 42.076,19.651 L42.159,19.651 L42.159,19.651 Z" id="Path" fill="#543E36" fill-rule="nonzero"></path>
                        <path d="M83.981,0.759 L83.971,13.045 C83.971,16.129 83.683,19.152 83.149,22.082 C82.933,23.254 82.686,24.416 82.398,25.567 L72.908,39.272 L42.125,45.369 L42.115,45.369 L42.105,45.38 L42.105,45.369 L42.074,19.641 L42.157,19.641 C46.125,19.652 49.693,20.546 52.16,21.954 C52.202,21.975 52.232,21.995 52.273,22.026 C52.417,22.118 52.571,22.211 52.726,22.303 C52.736,22.313 52.757,22.324 52.777,22.334 C55.717,24.04 60.364,28.259 65.608,28.259 C66.996,28.259 68.343,28.177 69.628,28.033 C69.844,28.012 70.049,27.992 70.265,27.961 C73.576,27.344 77.195,23.54 79.878,17.937 L79.878,17.927 C80.906,15.809 81.79,13.434 82.5,10.864 C83.425,7.47 83.909,4.16 83.97,1.148 C83.981,1.016 83.981,0.892 83.981,0.759 Z" id="Path" fill="#543E36" fill-rule="nonzero"></path>
                    </g>
                    <ellipse id="Oval" fill="#ECC19C" fill-rule="nonzero" cx="54.536" cy="93.021" rx="10.255" ry="3.171"></ellipse>
                    <path d="M54.544,-1.49213975e-13 L54.504,-1.49213975e-13 C31.402,0.021 12.68,18.753 12.68,41.855 L12.68,60.311 C12.68,60.311 14.417,49.299 19.096,43.953 C24.175,38.144 22.89,29.312 34.282,29.312 C41.633,29.312 42.044,32.026 54.495,32.026 L54.505,32.026 L54.545,32.026 L54.555,32.026 C67.006,32.026 67.417,29.312 74.768,29.312 C86.16,29.312 84.874,38.143 89.954,43.953 C94.632,49.299 96.369,60.311 96.369,60.311 L96.369,41.855 C96.368,18.753 77.646,0.02 54.544,-1.49213975e-13 Z" id="Path" fill="#543E36" fill-rule="nonzero"></path>
                    <path d="M82.168,142.792 L81.037,143.944 C73.984,151.13 64.566,155.089 54.521,155.089 C44.374,155.068 34.976,151.1 27.954,143.924 L26.874,142.814 C27.409,142.495 27.954,142.186 28.499,141.888 C28.52,141.867 28.54,141.878 28.54,141.878 L28.54,141.867 C28.982,141.62 29.414,141.374 29.846,141.116 C31.131,140.335 32.365,139.471 33.516,138.525 C33.526,138.536 33.526,138.536 33.537,138.546 C38.863,143.995 46.276,147.378 54.501,147.399 L54.584,147.399 C62.809,147.399 70.252,144.006 75.599,138.557 L75.609,138.546 C76.339,139.153 77.1,139.719 77.881,140.243 C77.963,140.304 78.035,140.355 78.117,140.407 C78.487,140.654 78.868,140.89 79.248,141.127 C79.669,141.384 80.102,141.631 80.533,141.867 C80.605,141.888 80.657,141.929 80.718,141.96 C81.202,142.228 81.695,142.505 82.168,142.792 Z" id="Path" fill="#C34628" fill-rule="nonzero"></path>
                </g>
            </g>
        </g>
        <path d="M216.762,734 L216.762,716.78 L216.818,716.78 L223.986,734 L225.05,734 L232.218,716.78 L232.274,716.78 L232.274,734 L234.29,734 L234.29,714.176 L231.21,714.176 L224.574,730.584 L224.546,730.584 L217.826,714.176 L214.746,714.176 L214.746,734 L216.762,734 Z M244.998,734.336 C247.098,734.336 248.554,733.608 249.758,731.872 L249.814,731.872 C249.814,732.572 249.898,733.356 250.01,734 L251.718,734 C251.578,733.272 251.494,732.068 251.494,731.06 L251.494,725.32 C251.494,722.128 249.226,720.56 246.398,720.56 C244.158,720.56 242.31,721.372 241.246,722.436 L242.31,723.696 C243.234,722.772 244.662,722.156 246.202,722.156 C248.47,722.156 249.702,723.276 249.702,725.544 L249.702,725.964 C244.914,725.964 240.462,726.328 240.462,730.36 C240.462,733.272 243.01,734.336 244.998,734.336 Z M245.502,732.768 C244.018,732.768 242.422,732.152 242.422,730.276 C242.422,727.784 246.034,727.448 249.142,727.448 L249.702,727.448 L249.702,728.428 C249.702,730.752 248.19,732.768 245.502,732.768 Z M260.298,734 L260.298,727.28 C260.298,723.78 262.258,722.156 264.274,722.156 C267.018,722.156 267.83,724.004 267.83,726.748 L267.83,734 L269.734,734 L269.734,725.964 C269.734,722.716 268.082,720.56 264.75,720.56 C262.902,720.56 260.998,721.624 260.27,723.136 L260.214,723.136 C260.214,722.576 260.158,721.596 260.102,720.896 L258.282,720.896 C258.366,721.792 258.394,723.08 258.394,723.78 L258.394,734 L260.298,734 Z M280.218,734.336 C282.318,734.336 283.774,733.608 284.978,731.872 L285.034,731.872 C285.034,732.572 285.118,733.356 285.23,734 L286.938,734 C286.798,733.272 286.714,732.068 286.714,731.06 L286.714,725.32 C286.714,722.128 284.446,720.56 281.618,720.56 C279.378,720.56 277.53,721.372 276.466,722.436 L277.53,723.696 C278.454,722.772 279.882,722.156 281.422,722.156 C283.69,722.156 284.922,723.276 284.922,725.544 L284.922,725.964 C280.134,725.964 275.682,726.328 275.682,730.36 C275.682,733.272 278.23,734.336 280.218,734.336 Z M280.722,732.768 C279.238,732.768 277.642,732.152 277.642,730.276 C277.642,727.784 281.254,727.448 284.362,727.448 L284.922,727.448 L284.922,728.428 C284.922,730.752 283.41,732.768 280.722,732.768 Z M299.242,740.72 C305.038,740.72 306.354,736.744 306.354,733.888 L306.354,720.896 L304.45,720.896 L304.45,723.164 L304.394,723.164 C303.358,721.484 301.342,720.56 299.438,720.56 C295.35,720.56 292.662,723.612 292.662,727.336 C292.662,731.172 295.35,734 299.438,734 C301.342,734 303.386,733.048 304.394,731.424 L304.45,731.424 L304.45,733.888 C304.45,736.716 303.078,739.04 299.326,739.04 C297.338,739.04 295.35,737.976 294.314,736.632 L292.942,738.088 C294.482,739.712 296.834,740.72 299.242,740.72 Z M299.634,732.376 C296.47,732.376 294.678,730.024 294.678,727.28 C294.678,724.536 296.47,722.156 299.634,722.156 C302.574,722.156 304.674,724.536 304.674,727.28 C304.674,730.304 302.574,732.376 299.634,732.376 Z M319.134,734.336 C321.29,734.336 323.222,733.524 324.762,731.564 L323.334,730.444 C322.606,731.62 321.094,732.712 319.134,732.712 C316.446,732.712 314.402,730.584 314.346,727.952 L325.21,727.952 C325.238,727.616 325.238,727.308 325.238,727.056 C325.238,723.472 323.082,720.56 318.966,720.56 C315.242,720.56 312.358,723.5 312.358,727.448 C312.358,731.396 315.242,734.336 319.134,734.336 Z M323.306,726.44 L314.374,726.44 C314.542,724.2 316.418,722.156 318.966,722.156 C321.682,722.156 323.194,723.976 323.306,726.44 Z M333.23,734 L333.23,727.28 C333.23,723.78 335.05,722.324 337.066,722.324 C337.57,722.324 338.186,722.408 338.41,722.492 L338.662,720.7 C338.27,720.588 337.878,720.56 337.402,720.56 C335.554,720.56 333.93,721.624 333.202,723.136 L333.146,723.136 C333.146,722.576 333.09,721.596 333.034,720.896 L331.214,720.896 C331.298,721.792 331.326,723.08 331.326,723.78 L331.326,734 L333.23,734 Z" id="Manager" fill="#000000" fill-rule="nonzero"></path>
        <g id="Group-2" transform="translate(619.000000, 487.000000)">
            <mask id="mask-8" fill="white">
                <use xlink:href="#path-7"></use>
            </mask>
            <g id="Mask" fill-rule="nonzero"></g>
            <g mask="url(#mask-8)">
                <g transform="translate(39.538000, 10.929000)">
                    <path d="M96.4,41.855 L96.4,73.121 C96.4,73.574 96.389,74.026 96.379,74.478 C96.359,75.414 96.307,76.349 96.225,77.274 C96.205,77.593 96.173,77.911 96.132,78.23 C95.998,79.556 95.814,80.862 95.577,82.158 C95.494,82.59 95.412,83.011 95.319,83.433 C95.309,83.525 95.289,83.608 95.268,83.69 C95.185,84.122 95.082,84.544 94.98,84.965 C94.939,85.191 94.877,85.417 94.826,85.644 C94.774,85.839 94.723,86.035 94.662,86.23 C94.445,87.073 94.199,87.896 93.941,88.718 C93.818,89.109 93.695,89.489 93.561,89.88 C93.55,89.921 93.53,89.962 93.52,90.003 C93.396,90.352 93.273,90.702 93.15,91.051 C93.109,91.154 93.068,91.256 93.026,91.37 C92.903,91.699 92.78,92.028 92.646,92.357 C92.492,92.758 92.328,93.149 92.163,93.54 C92.019,93.89 91.865,94.239 91.711,94.589 C91.691,94.651 91.659,94.702 91.639,94.763 C91.464,95.133 91.3,95.504 91.125,95.863 C90.95,96.243 90.765,96.624 90.569,97.005 C90.199,97.755 89.798,98.506 89.397,99.236 C89.212,99.565 89.027,99.894 88.841,100.223 C87.258,102.948 85.5,105.508 83.588,107.872 C83.33,108.211 83.064,108.54 82.786,108.859 C82.405,109.321 82.014,109.774 81.624,110.216 C81.274,110.607 80.925,110.997 80.565,111.378 C79.578,112.437 78.57,113.445 77.542,114.391 C77.337,114.597 77.12,114.782 76.904,114.977 C76.555,115.296 76.206,115.604 75.845,115.902 C75.568,116.149 75.28,116.385 74.991,116.622 C74.251,117.228 73.511,117.814 72.761,118.359 C72.452,118.596 72.133,118.822 71.815,119.038 C71.301,119.408 70.777,119.758 70.252,120.097 C69.964,120.292 69.666,120.477 69.367,120.652 C68.318,121.3 67.26,121.896 66.211,122.41 C65.954,122.543 65.697,122.667 65.44,122.79 C65.182,122.913 64.916,123.037 64.638,123.16 C64.298,123.314 63.959,123.458 63.62,123.592 C63.486,123.654 63.352,123.705 63.219,123.746 C62.819,123.911 62.407,124.065 62.006,124.198 C61.502,124.383 60.988,124.537 60.485,124.681 C60.135,124.784 59.776,124.876 59.426,124.958 C59.405,124.969 59.385,124.979 59.354,124.979 C59.004,125.061 58.655,125.144 58.305,125.205 C58.212,125.226 58.121,125.246 58.028,125.256 C57.74,125.307 57.452,125.359 57.164,125.39 C56.753,125.452 56.342,125.503 55.931,125.524 C55.788,125.544 55.654,125.555 55.509,125.555 C55.181,125.576 54.852,125.586 54.532,125.586 L54.502,125.586 C54.183,125.586 53.864,125.576 53.546,125.555 C53.422,125.555 53.299,125.545 53.175,125.524 C52.888,125.514 52.589,125.482 52.281,125.441 C52.219,125.441 52.147,125.431 52.086,125.421 C51.705,125.37 51.325,125.308 50.934,125.236 C50.606,125.185 50.277,125.112 49.937,125.03 C48.179,124.629 46.37,124.023 44.54,123.21 C42.977,122.521 41.394,121.689 39.821,120.722 C39.029,120.239 38.237,119.725 37.456,119.18 C37.065,118.902 36.675,118.625 36.284,118.337 C35.06,117.442 33.847,116.466 32.654,115.417 C32.326,115.119 31.997,114.821 31.668,114.512 C31.339,114.214 31.01,113.906 30.691,113.608 C29.888,112.837 29.107,112.035 28.346,111.202 C28.048,110.884 27.75,110.555 27.451,110.215 C26.629,109.29 25.827,108.334 25.066,107.336 C24.767,106.976 24.49,106.606 24.212,106.236 C23.174,104.859 22.187,103.419 21.261,101.928 C21.015,101.527 20.768,101.115 20.532,100.715 C20.244,100.232 19.967,99.739 19.689,99.245 C18.661,97.394 17.714,95.472 16.892,93.487 C16.769,93.199 16.645,92.911 16.542,92.624 C16.377,92.254 16.233,91.873 16.1,91.503 C15.895,90.958 15.7,90.413 15.514,89.868 C15.329,89.323 15.155,88.768 14.98,88.213 C14.815,87.678 14.661,87.144 14.517,86.599 C14.352,86.023 14.199,85.437 14.065,84.841 C14.054,84.779 14.034,84.718 14.024,84.656 C13.829,83.834 13.654,83.001 13.5,82.158 C13.294,81.047 13.13,79.916 13.006,78.775 C12.955,78.415 12.924,78.055 12.893,77.695 C12.852,77.315 12.822,76.944 12.801,76.564 C12.749,75.875 12.718,75.176 12.697,74.477 C12.687,74.024 12.676,73.572 12.676,73.12 L12.676,41.855 C12.676,18.753 31.399,0.021 54.501,-3.26849658e-13 L54.542,-3.26849658e-13 C57.73,-3.26849658e-13 60.834,0.359 63.815,1.028 C66.54,1.645 69.162,2.529 71.65,3.65 C75.043,5.172 78.199,7.125 81.037,9.459 C83.422,11.413 85.592,13.613 87.483,16.039 C93.069,23.154 96.4,32.109 96.4,41.855 Z" id="Path" fill="#ECC19C" fill-rule="nonzero"></path>
                    <path d="M109.075,189.812 L109.075,189.822 L2.13162821e-14,189.822 L2.13162821e-14,189.812 C2.13162821e-14,183.654 1.018,177.721 2.91,172.2 C3.249,171.203 3.619,170.216 4.02,169.239 L4.02,169.229 C4.42,168.252 4.842,167.296 5.294,166.35 C7.094,162.556 9.335,159.009 11.936,155.76 C12.594,154.948 13.262,154.156 13.952,153.395 C14.291,153.004 14.651,152.624 15.011,152.244 C15.371,151.874 15.731,151.504 16.101,151.134 C17.942,149.294 19.915,147.608 21.993,146.055 C23.031,145.284 24.08,144.564 25.17,143.865 C26.26,143.176 27.37,142.518 28.501,141.901 C28.522,141.881 28.542,141.881 28.542,141.881 C28.984,141.645 29.416,141.388 29.848,141.12 C30.702,140.606 31.544,140.051 32.347,139.455 C32.758,139.167 33.149,138.869 33.539,138.55 C34.464,137.81 35.358,137.018 36.212,136.185 C36.489,135.908 36.768,135.63 37.045,135.342 C37.62,134.745 38.165,134.118 38.69,133.481 C38.948,133.173 39.205,132.854 39.441,132.535 C39.688,132.217 39.924,131.888 40.161,131.558 C41.991,129.008 43.461,126.202 44.541,123.209 C45.847,119.569 46.556,115.652 46.556,111.56 L54.504,111.601 L62.677,111.642 C62.677,115.682 63.366,119.558 64.641,123.157 C65.701,126.159 67.17,128.966 68.97,131.516 C70.841,134.168 73.072,136.533 75.601,138.558 C75.982,138.867 76.362,139.165 76.743,139.442 C77.113,139.72 77.493,139.987 77.884,140.244 C77.967,140.306 78.038,140.357 78.121,140.409 C78.491,140.656 78.861,140.903 79.252,141.129 C79.673,141.386 80.106,141.643 80.537,141.88 C80.608,141.9 80.671,141.931 80.722,141.973 C81.627,142.477 82.522,143.001 83.396,143.546 C83.817,143.803 84.239,144.07 84.65,144.369 C85.504,144.924 86.337,145.51 87.148,146.127 C87.148,146.138 87.159,146.138 87.159,146.138 L87.169,146.138 C89.246,147.69 91.21,149.386 93.05,151.217 C102.958,161.086 109.075,174.719 109.075,189.812 Z" id="Path" fill="#ECC19C" fill-rule="nonzero"></path>
                    <path d="M109.076,189.814 L0.001,189.814 C0.001,183.655 1.02,177.723 2.911,172.202 C3.25,171.204 3.62,170.218 4.021,169.241 C4.01,169.23 4.021,169.23 4.021,169.23 C4.412,168.253 4.843,167.297 5.295,166.352 C7.095,162.558 9.336,159.011 11.937,155.762 C12.595,154.949 13.264,154.158 13.953,153.397 C14.292,153.006 14.652,152.626 15.012,152.246 C15.372,151.876 15.732,151.506 16.102,151.136 C17.943,149.296 19.916,147.609 21.994,146.057 C23.032,145.286 24.081,144.566 25.171,143.867 C26.261,143.168 27.371,142.51 28.502,141.893 C28.523,141.873 28.543,141.883 28.543,141.883 L28.543,141.873 C28.985,141.626 29.417,141.379 29.849,141.122 C31.134,140.341 32.369,139.477 33.52,138.531 C33.53,138.541 33.53,138.541 33.541,138.551 C38.866,144 46.279,147.382 54.505,147.403 L54.587,147.403 C62.812,147.403 70.256,144.01 75.602,138.561 L75.613,138.551 C76.342,139.157 77.103,139.723 77.885,140.247 C77.967,140.308 78.039,140.36 78.121,140.411 C78.491,140.658 78.871,140.894 79.252,141.131 C79.674,141.388 80.106,141.635 80.537,141.871 C80.609,141.891 80.66,141.932 80.722,141.963 C81.627,142.467 82.522,142.991 83.396,143.546 C83.817,143.803 84.239,144.07 84.65,144.369 C85.504,144.914 86.337,145.51 87.148,146.127 L87.169,146.127 C89.257,147.69 91.22,149.386 93.05,151.216 C102.959,161.088 109.076,174.721 109.076,189.814 Z" id="Path" fill="#C7D4E2" fill-rule="nonzero"></path>
                    <path d="M96.4,73.121 C96.4,73.574 96.389,74.026 96.379,74.478 C96.359,75.414 96.307,76.349 96.225,77.274 C96.205,77.593 96.173,77.911 96.132,78.23 C95.998,79.556 95.814,80.862 95.577,82.158 C95.494,82.59 95.412,83.011 95.319,83.433 C95.309,83.525 95.289,83.608 95.268,83.69 C95.185,84.122 95.082,84.544 94.98,84.965 C94.928,85.212 94.867,85.448 94.794,85.685 C94.764,85.87 94.712,86.055 94.661,86.23 C94.444,87.073 94.198,87.896 93.94,88.718 C93.817,89.109 93.694,89.489 93.56,89.88 C93.549,89.921 93.529,89.962 93.519,90.003 C93.395,90.352 93.272,90.702 93.149,91.051 C93.108,91.154 93.067,91.256 93.025,91.37 C92.902,91.699 92.779,92.028 92.645,92.357 C92.491,92.758 92.327,93.149 92.162,93.54 C92.018,93.89 91.864,94.239 91.71,94.589 C91.69,94.651 91.658,94.702 91.638,94.763 C91.463,95.133 91.299,95.504 91.124,95.863 C90.949,96.243 90.764,96.624 90.568,97.005 C90.198,97.755 89.797,98.506 89.396,99.236 C89.211,99.565 89.026,99.894 88.84,100.223 C87.257,102.948 85.499,105.508 83.587,107.872 C83.329,108.211 83.063,108.54 82.785,108.859 C82.404,109.321 82.013,109.774 81.623,110.216 C81.273,110.607 80.924,110.997 80.564,111.378 C79.577,112.437 78.569,113.445 77.541,114.391 C77.336,114.597 77.119,114.782 76.903,114.977 C76.554,115.296 76.205,115.604 75.844,115.902 C75.567,116.149 75.279,116.385 74.99,116.622 C74.25,117.228 73.51,117.814 72.76,118.359 C72.451,118.596 72.132,118.822 71.814,119.038 C71.3,119.408 70.776,119.758 70.251,120.097 C69.963,120.292 69.665,120.477 69.366,120.652 C68.317,121.3 67.259,121.896 66.21,122.41 C65.953,122.543 65.696,122.667 65.439,122.79 C65.181,122.913 64.915,123.037 64.637,123.16 C64.297,123.314 63.958,123.458 63.619,123.592 C63.485,123.654 63.351,123.705 63.218,123.746 C62.818,123.911 62.406,124.065 62.005,124.198 C61.501,124.383 60.987,124.537 60.484,124.681 C60.134,124.784 59.775,124.876 59.425,124.958 C59.404,124.969 59.384,124.979 59.353,124.979 C59.003,125.061 58.654,125.144 58.304,125.205 C58.211,125.226 58.12,125.246 58.027,125.256 C57.739,125.307 57.451,125.359 57.163,125.39 C56.752,125.452 56.341,125.503 55.93,125.524 C55.787,125.544 55.653,125.555 55.508,125.555 C55.18,125.576 54.851,125.586 54.531,125.586 L54.501,125.586 C54.182,125.586 53.863,125.576 53.545,125.555 C53.421,125.555 53.298,125.545 53.174,125.524 C52.887,125.514 52.588,125.482 52.28,125.441 C52.218,125.441 52.146,125.431 52.085,125.421 C51.704,125.37 51.324,125.308 50.933,125.236 C50.605,125.185 50.276,125.112 49.936,125.03 C48.178,124.629 46.369,124.023 44.539,123.21 C42.976,122.521 41.393,121.689 39.82,120.722 C39.028,120.249 38.247,119.735 37.455,119.18 C37.064,118.902 36.674,118.625 36.283,118.337 C35.059,117.442 33.846,116.466 32.653,115.417 C32.325,115.119 31.996,114.821 31.667,114.512 C31.338,114.214 31.009,113.906 30.69,113.608 C29.887,112.837 29.106,112.035 28.345,111.202 C28.047,110.884 27.749,110.555 27.45,110.215 C26.628,109.29 25.826,108.334 25.065,107.336 C24.766,106.976 24.489,106.606 24.211,106.236 C23.173,104.859 22.186,103.419 21.26,101.928 C21.014,101.527 20.767,101.115 20.531,100.715 C20.243,100.232 19.966,99.739 19.688,99.245 C18.66,97.394 17.713,95.472 16.891,93.487 C16.768,93.199 16.644,92.911 16.541,92.624 C16.376,92.254 16.232,91.873 16.099,91.503 C15.894,90.958 15.699,90.413 15.513,89.868 C15.328,89.323 15.154,88.768 14.979,88.213 C14.814,87.678 14.66,87.144 14.516,86.599 C14.351,86.023 14.198,85.437 14.064,84.841 C14.053,84.779 14.033,84.718 14.023,84.656 C13.828,83.834 13.653,83.001 13.499,82.158 C13.293,81.047 13.129,79.916 13.005,78.775 C12.954,78.415 12.923,78.055 12.892,77.695 C12.851,77.315 12.821,76.944 12.8,76.564 C12.748,75.875 12.717,75.176 12.696,74.477 C12.686,74.024 12.675,73.572 12.675,73.12 L19.359,86.26 L30.843,91.267 L44.424,92.491 L54.5,93.406 L54.562,93.406 L63.99,94.26 L84.995,96.152 L96.4,73.121 Z" id="Path" fill="#543E36" fill-rule="nonzero"></path>
                    <path d="M87.485,16.039 C85.439,20.676 82.776,24.984 79.63,28.891 C79.445,29.118 79.26,29.344 79.065,29.57 C72.619,37.332 64.168,43.368 54.503,46.894 C51.963,47.83 49.342,48.59 46.648,49.156 C44.849,49.536 43.019,49.835 41.158,50.051 C39.019,50.287 36.84,50.411 34.63,50.411 C32.101,50.411 29.623,50.246 27.187,49.928 C24.801,49.63 22.467,49.188 20.185,48.592 C18.879,48.263 17.604,47.883 16.339,47.461 C15.095,47.05 13.882,46.597 12.679,46.104 L12.679,41.858 C12.679,18.756 31.402,0.024 54.504,0.003 L54.545,0.003 C57.733,0.003 60.837,0.362 63.818,1.031 C66.543,1.648 69.165,2.532 71.653,3.653 C75.046,5.175 78.202,7.128 81.04,9.462 C83.424,11.412 85.594,13.613 87.485,16.039 Z" id="Path" fill="#543E36" fill-rule="nonzero"></path>
                    <path d="M96.4,41.855 L96.4,50.09 C89.264,44.569 83.353,37.588 79.086,29.61 C79.076,29.6 79.076,29.579 79.065,29.569 C74.871,21.735 72.269,12.944 71.653,3.649 C75.046,5.171 78.202,7.124 81.04,9.458 C83.425,11.412 85.595,13.612 87.486,16.038 C93.069,23.154 96.4,32.109 96.4,41.855 Z" id="Path" fill="#543E36" fill-rule="nonzero"></path>
                    <path d="M17.582,45.084 C17.141,45.855 16.739,46.647 16.338,47.459 C16.185,47.777 16.03,48.117 15.876,48.446 C13.851,52.949 12.832,57.37 12.688,61.36 C12.688,61.473 12.677,61.596 12.677,61.71 L12.677,45.588 C12.677,45.012 12.698,44.446 12.698,43.891 C14.323,44.313 15.947,44.724 17.582,45.084 Z" id="Path" fill="#543E36" fill-rule="nonzero"></path>
                    <path d="M91.516,45.084 C92.138,46.177 92.693,47.297 93.226,48.445 C95.314,53.088 96.336,57.623 96.424,61.713 L96.424,45.583 C96.424,45.016 96.403,44.449 96.403,43.895 C94.78,44.314 93.159,44.719 91.516,45.084 Z" id="Path" fill="#543E36" fill-rule="nonzero"></path>
                    <path d="M91.434,49.238 C91.434,49.063 91.3,48.909 91.125,48.888 C89.645,48.662 82.982,47.746 75.816,47.746 C67.683,47.746 57.186,50.296 55.356,50.296 L53.732,50.296 C52.878,50.296 50.144,49.741 46.648,49.155 C42.628,48.476 37.611,47.746 33.272,47.746 C28.029,47.746 23.052,48.24 20.184,48.589 C19.135,48.713 18.364,48.825 17.963,48.887 C17.788,48.908 17.654,49.062 17.654,49.237 L17.572,53.606 C17.572,53.76 17.665,53.894 17.808,53.956 L18.301,54.131 C19.031,54.409 18.97,67.579 22.897,70.869 C25.231,72.812 27.308,73.922 36.057,73.922 C41.126,73.922 44.313,72.555 47.336,68.473 C49.516,65.543 51.448,58.613 51.448,58.613 C52.034,55.755 54.162,55.529 54.502,55.508 C54.523,55.508 54.543,55.508 54.543,55.508 C54.614,55.508 57.011,55.549 57.638,58.613 C57.638,58.613 59.571,65.543 61.75,68.473 C64.772,72.555 67.96,73.922 73.028,73.922 C81.778,73.922 83.854,72.812 86.188,70.869 C90.116,67.579 90.054,54.409 90.784,54.131 L91.278,53.956 C91.421,53.894 91.514,53.761 91.514,53.606 L91.434,49.238 Z M47.337,64.824 C46.052,67.867 42.731,71.795 38.053,72.031 C24.019,72.74 23.371,68.823 22.466,65.718 C21.551,62.613 21.315,59.888 21.674,56.783 C22.044,53.678 22.826,51.858 24.235,50.943 C24.841,50.542 25.5,50.182 27.186,49.925 C28.697,49.699 31.031,49.565 34.917,49.565 C37.168,49.565 39.276,49.74 41.157,50.048 C46.154,50.85 49.526,52.547 49.526,54.222 C49.526,55.365 49.238,60.32 47.337,64.824 Z M86.621,65.718 C85.717,68.823 85.069,72.74 71.035,72.031 C66.357,71.795 63.036,67.867 61.751,64.824 C59.849,60.321 59.562,55.365 59.562,54.224 C59.562,51.921 65.957,49.566 74.171,49.566 C82.386,49.566 83.701,50.183 84.854,50.944 C86.262,51.859 87.043,53.679 87.414,56.784 C87.774,59.889 87.537,62.614 86.621,65.718 Z" id="Shape" fill="#1A1A1A" fill-rule="nonzero"></path>
                    <g id="Group" stroke-width="1" fill="none" fill-rule="evenodd" transform="translate(12.462000, 60.071000)">
                        <path d="M42.123,19.65 L42.112,29.788 L42.102,33.335 L42.102,36.121 L42.091,45.374 L42.091,45.384 L42.081,45.374 L42.07,45.374 L42.04,45.353 L1.604,24.771 C1.593,24.709 1.573,24.648 1.563,24.586 C1.368,23.764 1.193,22.931 1.039,22.088 C0.833,20.977 0.669,19.846 0.545,18.705 C0.494,18.345 0.463,17.985 0.432,17.625 C0.391,17.245 0.361,16.874 0.34,16.494 C0.288,15.805 0.257,15.106 0.236,14.407 C0.226,13.954 0.215,13.502 0.215,13.05 L0.215,0.764 C0.215,0.939 0.226,1.114 0.226,1.288 C0.308,4.259 0.781,7.529 1.696,10.87 C2.406,13.44 3.29,15.815 4.318,17.933 L4.318,17.943 C7.012,23.547 10.621,27.35 13.941,27.967 C14.147,27.998 14.363,28.018 14.569,28.039 C15.854,28.183 17.201,28.265 18.589,28.265 C23.832,28.265 28.49,24.05 31.42,22.343 C31.441,22.333 31.461,22.322 31.482,22.312 C31.636,22.219 31.791,22.127 31.924,22.034 C31.965,22.003 32.006,21.983 32.047,21.962 C34.515,20.553 38.072,19.659 42.041,19.649 L42.123,19.649 L42.123,19.65 Z" id="Path" fill="#543E36" fill-rule="nonzero"></path>
                        <path d="M83.947,0.764 L83.937,13.05 C83.937,16.135 83.649,19.157 83.115,22.088 C82.898,23.26 82.652,24.421 82.364,25.573 L72.874,39.278 L42.092,45.375 L42.082,45.375 L42.071,45.385 L42.071,45.375 L42.041,19.648 L42.123,19.648 C46.092,19.658 49.659,20.553 52.127,21.961 C52.168,21.982 52.198,22.002 52.24,22.033 C52.384,22.126 52.538,22.218 52.692,22.311 C52.702,22.321 52.722,22.332 52.743,22.342 C55.684,24.049 60.331,28.267 65.575,28.267 C66.963,28.267 68.309,28.185 69.594,28.041 C69.81,28.02 70.016,28 70.232,27.969 C73.543,27.352 77.162,23.548 79.845,17.945 L79.845,17.935 C80.872,15.817 81.757,13.442 82.466,10.872 C83.392,7.479 83.875,4.169 83.937,1.156 C83.947,1.021 83.947,0.897 83.947,0.764 Z" id="Path" fill="#543E36" fill-rule="nonzero"></path>
                    </g>
                    <ellipse id="Oval" fill="#ECC19C" fill-rule="nonzero" cx="54.536" cy="93.026" rx="10.255" ry="3.17"></ellipse>
                    <g id="Group" stroke-width="1" fill="none" fill-rule="evenodd" transform="translate(19.462000, 144.071000)">
                        <path d="M5.131,0.174 L5.131,56.732 L0.762,56.732 L0.762,3.362 C1.348,2.889 1.934,2.426 2.531,1.984 C3.384,1.347 4.247,0.75 5.131,0.174 Z" id="Path" fill="#435363" fill-rule="nonzero"></path>
                        <polygon id="Path" fill="#435363" fill-rule="nonzero" points="65.021 0.185 65.021 45.741 65.021 56.732 69.39 56.732 69.39 45.741 69.39 3.372"></polygon>
                    </g>
                    <g id="Group" stroke-width="1" fill="none" fill-rule="evenodd" transform="translate(31.462000, 131.071000)">
                        <g transform="translate(11.000000, 9.000000)" fill="#141720" fill-rule="nonzero" id="Path">
                            <polygon points="0.113 0.713 12.074 15.049 24.036 0.713"></polygon>
                            <path d="M12.074,74.437 L5.001,74.437 L10.111,8.637 C10.326,9.474 13.823,9.474 14.038,8.637 L19.148,74.437 L12.074,74.437 Z"></path>
                        </g>
                        <g fill="#E7ECF2" fill-rule="nonzero" id="Path">
                            <path d="M23.07,9.638 L23.04,9.689 L23.029,9.71 L18.063,18.048 L13.426,25.82 L0.872,8.373 C1.273,8.085 1.674,7.777 2.055,7.458 C2.065,7.468 2.065,7.468 2.076,7.479 C4.594,5.474 6.836,3.12 8.697,0.488 L23.04,9.618 L23.07,9.638 Z"></path>
                            <path d="M45.278,8.373 L32.724,25.82 L28.087,18.048 L23.11,9.71 L23.069,9.638 L37.505,0.447 C39.376,3.099 41.607,5.464 44.136,7.489 C44.518,7.797 44.897,8.096 45.278,8.373 Z"></path>
                        </g>
                    </g>
                </g>
            </g>
        </g>
        <path d="M630.092,734.504 C633.228,734.504 636.56,732.768 636.56,728.792 C636.56,724.816 633.48,723.92 630.68,722.996 C628.468,722.268 626.368,721.624 626.368,719.104 C626.368,716.556 628.636,715.38 630.596,715.38 C632.472,715.38 633.844,716.164 634.684,717.368 L636.28,716.08 C635.328,714.792 633.34,713.672 630.68,713.672 C627.768,713.672 624.352,715.296 624.352,719.132 C624.352,722.716 627.04,723.864 629.672,724.676 C632.192,725.46 634.516,726.16 634.516,728.932 C634.516,731.48 632.164,732.768 630.12,732.768 C628.048,732.768 626.452,731.676 625.584,730.276 L623.848,731.564 C625.276,733.524 627.684,734.504 630.092,734.504 Z M644.664,740.72 L644.664,731.788 L644.748,731.788 C645.84,733.412 647.8,734.336 649.676,734.336 C653.764,734.336 656.452,731.312 656.452,727.448 C656.452,723.584 653.764,720.56 649.676,720.56 C647.8,720.56 645.84,721.456 644.748,723.164 L644.664,723.164 L644.664,720.896 L642.76,720.896 L642.76,740.72 L644.664,740.72 Z M649.48,732.712 C646.54,732.712 644.44,730.444 644.44,727.448 C644.44,724.452 646.54,722.156 649.48,722.156 C652.644,722.156 654.436,724.536 654.436,727.448 C654.436,730.36 652.644,732.712 649.48,732.712 Z M668.56,734.336 C672.648,734.336 675.56,731.396 675.56,727.448 C675.56,723.5 672.648,720.56 668.56,720.56 C664.5,720.56 661.588,723.5 661.588,727.448 C661.588,731.396 664.5,734.336 668.56,734.336 Z M668.56,732.712 C665.536,732.712 663.604,730.388 663.604,727.448 C663.604,724.508 665.536,722.156 668.56,722.156 C671.612,722.156 673.544,724.508 673.544,727.448 C673.544,730.388 671.612,732.712 668.56,732.712 Z M683.552,734 L683.552,727.28 C683.552,723.78 685.512,722.156 687.528,722.156 C690.272,722.156 691.084,724.004 691.084,726.748 L691.084,734 L692.988,734 L692.988,725.964 C692.988,722.716 691.336,720.56 688.004,720.56 C686.156,720.56 684.252,721.624 683.524,723.136 L683.468,723.136 C683.468,722.576 683.412,721.596 683.356,720.896 L681.536,720.896 C681.62,721.792 681.648,723.08 681.648,723.78 L681.648,734 L683.552,734 Z M703.64,734.336 C706.048,734.336 708.568,733.272 708.568,730.276 C708.568,728.232 707.112,727.084 704.032,726.44 C701.876,725.992 700.896,725.432 700.896,724.2 C700.896,722.744 702.296,722.156 703.668,722.156 C705.124,722.156 706.328,722.912 706.888,724.004 L708.344,722.912 C707.504,721.428 705.572,720.56 703.752,720.56 C701.372,720.56 699.076,721.708 699.076,724.368 C699.076,726.86 701.288,727.532 702.828,727.896 C705.32,728.484 706.692,729.044 706.692,730.416 C706.692,732.124 705.236,732.712 703.612,732.712 C702.072,732.712 700.644,731.816 699.972,730.668 L698.46,731.788 C699.664,733.552 701.652,734.336 703.64,734.336 Z M720.368,734.336 C724.456,734.336 727.368,731.396 727.368,727.448 C727.368,723.5 724.456,720.56 720.368,720.56 C716.308,720.56 713.396,723.5 713.396,727.448 C713.396,731.396 716.308,734.336 720.368,734.336 Z M720.368,732.712 C717.344,732.712 715.412,730.388 715.412,727.448 C715.412,724.508 717.344,722.156 720.368,722.156 C723.42,722.156 725.352,724.508 725.352,727.448 C725.352,730.388 723.42,732.712 720.368,732.712 Z M735.36,734 L735.36,727.28 C735.36,723.78 737.18,722.324 739.196,722.324 C739.7,722.324 740.316,722.408 740.54,722.492 L740.792,720.7 C740.4,720.588 740.008,720.56 739.532,720.56 C737.684,720.56 736.06,721.624 735.332,723.136 L735.276,723.136 C735.276,722.576 735.22,721.596 735.164,720.896 L733.344,720.896 C733.428,721.792 733.456,723.08 733.456,723.78 L733.456,734 L735.36,734 Z M749.26,734.336 C751.668,734.336 754.188,733.272 754.188,730.276 C754.188,728.232 752.732,727.084 749.652,726.44 C747.496,725.992 746.516,725.432 746.516,724.2 C746.516,722.744 747.916,722.156 749.288,722.156 C750.744,722.156 751.948,722.912 752.508,724.004 L753.964,722.912 C753.124,721.428 751.192,720.56 749.372,720.56 C746.992,720.56 744.696,721.708 744.696,724.368 C744.696,726.86 746.908,727.532 748.448,727.896 C750.94,728.484 752.312,729.044 752.312,730.416 C752.312,732.124 750.856,732.712 749.232,732.712 C747.692,732.712 746.264,731.816 745.592,730.668 L744.08,731.788 C745.284,733.552 747.272,734.336 749.26,734.336 Z M761.928,734 L761.928,727.28 C761.928,723.78 763.888,722.156 765.904,722.156 C768.648,722.156 769.46,724.004 769.46,726.748 L769.46,734 L771.364,734 L771.364,725.964 C771.364,722.716 769.712,720.56 766.38,720.56 C764.532,720.56 762.684,721.54 761.984,723.052 L761.928,723.052 L761.928,712.832 L760.024,712.832 L760.024,734 L761.928,734 Z M779.272,717.2 C779.944,717.2 780.616,716.64 780.616,715.856 C780.616,715.072 779.944,714.512 779.272,714.512 C778.6,714.512 777.928,715.072 777.928,715.856 C777.928,716.64 778.6,717.2 779.272,717.2 Z M780.224,734 L780.224,720.896 L778.32,720.896 L778.32,734 L780.224,734 Z M789.196,740.72 L789.196,731.788 L789.28,731.788 C790.372,733.412 792.332,734.336 794.208,734.336 C798.296,734.336 800.984,731.312 800.984,727.448 C800.984,723.584 798.296,720.56 794.208,720.56 C792.332,720.56 790.372,721.456 789.28,723.164 L789.196,723.164 L789.196,720.896 L787.292,720.896 L787.292,740.72 L789.196,740.72 Z M794.012,732.712 C791.072,732.712 788.972,730.444 788.972,727.448 C788.972,724.452 791.072,722.156 794.012,722.156 C797.176,722.156 798.968,724.536 798.968,727.448 C798.968,730.36 797.176,732.712 794.012,732.712 Z" id="Sponsorship" fill="#000000" fill-rule="nonzero"></path>
        <path d="M215.838,376 L217.994,370.792 L228.242,370.792 L230.426,376 L232.666,376 L224.154,356.176 L222.194,356.176 L213.626,376 L215.838,376 Z M227.486,368.944 L218.75,368.944 L223.118,358.416 L227.486,368.944 Z M242.59,376.504 C245.726,376.504 249.058,374.768 249.058,370.792 C249.058,366.816 245.978,365.92 243.178,364.996 C240.966,364.268 238.866,363.624 238.866,361.104 C238.866,358.556 241.134,357.38 243.094,357.38 C244.97,357.38 246.342,358.164 247.182,359.368 L248.778,358.08 C247.826,356.792 245.838,355.672 243.178,355.672 C240.266,355.672 236.85,357.296 236.85,361.132 C236.85,364.716 239.538,365.864 242.17,366.676 C244.69,367.46 247.014,368.16 247.014,370.932 C247.014,373.48 244.662,374.768 242.618,374.768 C240.546,374.768 238.95,373.676 238.082,372.276 L236.346,373.564 C237.774,375.524 240.182,376.504 242.59,376.504 Z M264.638,376.504 C268.194,376.504 270.742,374.796 272.058,372.808 L270.49,371.8 C269.118,373.844 266.934,374.74 264.666,374.74 C259.57,374.74 256.434,370.708 256.434,366.088 C256.434,361.468 259.542,357.436 264.666,357.436 C267.186,357.436 269.174,358.752 270.014,360.04 L271.694,358.808 C270.322,356.876 267.55,355.672 264.638,355.672 C258.73,355.672 254.306,360.068 254.306,366.088 C254.306,372.108 258.646,376.504 264.638,376.504 Z M290.158,376 L290.158,374.208 L279.546,374.208 L279.546,366.564 L289.15,366.564 L289.15,364.8 L279.546,364.8 L279.546,357.968 L289.822,357.968 L289.822,356.176 L277.53,356.176 L277.53,376 L290.158,376 Z M311.742,376 L319.33,356.176 L317.174,356.176 L310.734,373.396 L310.678,373.396 L304.238,356.176 L302.054,356.176 L309.614,376 L311.742,376 Z M326.062,376 L326.062,366.788 L329.59,366.788 C333.622,366.788 336.338,365.024 336.338,361.468 C336.338,357.912 333.678,356.176 329.646,356.176 L324.046,356.176 L324.046,376 L326.062,376 Z M329.478,365.08 L326.062,365.08 L326.062,357.912 L329.478,357.912 C332.53,357.912 334.322,359.032 334.322,361.468 C334.322,363.82 332.614,365.08 329.478,365.08 Z" id="ASCEVP" fill="#000000" fill-rule="nonzero"></path>
        <g id="Group" transform="translate(182.000000, 129.000000)">
            <mask id="mask-10" fill="white">
                <use xlink:href="#path-9"></use>
            </mask>
            <g id="Mask" fill-rule="nonzero"></g>
            <g mask="url(#mask-10)">
                <g transform="translate(39.000000, 10.000000)">
                    <path d="M109.645,190.743 L109.645,190.753 L0.57,190.753 L0.57,190.743 C0.57,184.584 1.588,178.652 3.48,173.131 C3.819,172.134 4.189,171.147 4.59,170.17 L4.59,170.16 C4.981,169.183 5.412,168.227 5.865,167.282 C7.664,163.488 9.906,159.941 12.507,156.692 C13.165,155.879 13.834,155.088 14.522,154.327 C14.861,153.936 15.221,153.556 15.581,153.175 C15.941,152.805 16.301,152.435 16.671,152.065 C18.511,150.224 20.485,148.538 22.562,146.986 C23.601,146.215 24.649,145.495 25.739,144.796 C26.13,144.549 26.52,144.302 26.921,144.066 C27.096,143.963 27.281,143.86 27.456,143.757 C27.991,143.438 28.525,143.13 29.07,142.832 C29.091,142.811 29.111,142.811 29.111,142.811 C29.553,142.574 29.985,142.317 30.417,142.05 C31.702,141.279 32.936,140.425 34.108,139.48 C37.881,136.478 41.007,132.694 43.248,128.386 C43.958,127.019 44.585,125.6 45.109,124.14 C46.415,120.5 47.125,116.583 47.125,112.491 L55.072,112.532 L55.093,112.532 L63.246,112.574 C63.246,116.614 63.935,120.491 65.209,124.089 C65.723,125.56 66.34,126.978 67.049,128.346 C69.28,132.674 72.396,136.478 76.169,139.491 C76.909,140.097 77.66,140.653 78.452,141.177 C78.534,141.239 78.606,141.29 78.688,141.342 C79.058,141.589 79.428,141.836 79.819,142.062 C80.241,142.319 80.673,142.576 81.104,142.812 C81.176,142.833 81.238,142.863 81.289,142.904 C81.772,143.172 82.256,143.449 82.728,143.737 C83.14,143.973 83.551,144.22 83.962,144.477 C84.383,144.734 84.805,145.001 85.216,145.299 C86.069,145.844 86.902,146.441 87.714,147.057 C87.714,147.067 87.724,147.067 87.724,147.067 L87.735,147.067 C88.773,147.838 89.781,148.661 90.768,149.503 C91.755,150.346 92.701,151.231 93.616,152.146 C103.527,162.017 109.645,175.65 109.645,190.743 Z" id="Path" fill="#ECC19C" fill-rule="nonzero"></path>
                    <path d="M109.645,190.743 L0.57,190.743 C0.57,184.584 1.588,178.652 3.48,173.131 C3.819,172.134 4.189,171.147 4.59,170.17 L4.59,170.16 C4.981,169.183 5.412,168.227 5.865,167.282 C7.664,163.488 9.906,159.941 12.507,156.692 C13.165,155.879 13.834,155.088 14.522,154.327 C14.861,153.936 15.221,153.556 15.581,153.175 C15.941,152.805 16.301,152.435 16.671,152.065 C18.511,150.224 20.485,148.538 22.562,146.986 C23.601,146.215 24.649,145.495 25.739,144.796 C26.13,144.549 26.52,144.302 26.921,144.066 C27.096,143.953 27.271,143.85 27.445,143.747 C27.98,143.428 28.525,143.12 29.07,142.822 C29.091,142.801 29.111,142.812 29.111,142.812 L29.111,142.802 C29.553,142.555 29.985,142.308 30.417,142.052 C31.702,141.27 32.936,140.407 34.087,139.461 C34.097,139.471 34.097,139.471 34.108,139.481 C39.434,144.93 46.847,148.313 55.072,148.333 L55.154,148.333 C63.379,148.333 70.823,144.94 76.169,139.491 L76.179,139.481 C76.909,140.088 77.67,140.653 78.451,141.177 C78.533,141.239 78.605,141.29 78.687,141.342 C79.057,141.589 79.437,141.825 79.818,142.062 C80.24,142.319 80.672,142.566 81.103,142.802 C81.175,142.823 81.226,142.864 81.288,142.894 C81.771,143.162 82.265,143.439 82.738,143.727 C83.149,143.974 83.561,144.221 83.962,144.478 C84.383,144.735 84.805,145.002 85.216,145.3 C86.069,145.845 86.902,146.442 87.714,147.058 L87.735,147.058 C88.773,147.839 89.791,148.652 90.768,149.505 C91.755,150.348 92.701,151.233 93.616,152.148 C103.527,162.017 109.645,175.65 109.645,190.743 Z" id="Path" fill="#1C5A7D" fill-rule="nonzero"></path>
                    <path d="M82.738,143.727 L82.728,143.737 L81.607,144.878 C74.554,152.065 65.136,156.023 55.091,156.023 C55.081,156.023 55.081,156.023 55.07,156.023 C44.933,155.992 35.546,152.034 28.524,144.858 L27.455,143.758 L27.445,143.748 C27.98,143.429 28.525,143.121 29.07,142.823 C29.091,142.802 29.111,142.813 29.111,142.813 L29.111,142.803 C29.553,142.556 29.985,142.309 30.417,142.053 C31.702,141.271 32.936,140.408 34.087,139.462 C34.097,139.472 34.097,139.472 34.108,139.482 C39.434,144.931 46.847,148.314 55.072,148.334 L55.154,148.334 C63.379,148.334 70.823,144.941 76.169,139.492 L76.179,139.482 C76.909,140.089 77.67,140.654 78.451,141.178 C78.533,141.24 78.605,141.291 78.687,141.343 C79.057,141.59 79.437,141.826 79.818,142.063 C80.24,142.32 80.672,142.567 81.103,142.803 C81.175,142.824 81.226,142.865 81.288,142.895 C81.772,143.161 82.266,143.439 82.738,143.727 Z" id="Path" fill="#7CA6BA" fill-rule="nonzero"></path>
                    <g id="Group" stroke-width="1" fill="none" fill-rule="evenodd" transform="translate(13.000000, 0.000000)">
                        <path d="M83.968,54.094 L83.968,79.19 C83.968,79.642 83.958,80.095 83.948,80.547 C83.938,80.896 83.927,81.246 83.907,81.595 C83.897,81.945 83.876,82.284 83.845,82.633 C83.835,82.869 83.814,83.106 83.794,83.343 C83.784,83.487 83.774,83.62 83.753,83.764 C83.733,84.021 83.712,84.288 83.671,84.545 C83.65,84.792 83.63,85.039 83.589,85.285 C83.568,85.522 83.538,85.768 83.496,86.015 C83.404,86.755 83.28,87.495 83.146,88.225 C83.054,88.719 82.961,89.212 82.858,89.696 C82.848,89.717 82.848,89.737 82.838,89.758 C82.828,89.83 82.817,89.902 82.797,89.974 C82.787,89.995 82.787,90.015 82.776,90.036 C82.776,90.057 82.776,90.077 82.766,90.098 C82.745,90.201 82.725,90.304 82.694,90.406 C82.674,90.529 82.643,90.653 82.612,90.776 C82.592,90.91 82.56,91.033 82.519,91.157 C82.488,91.342 82.437,91.527 82.395,91.712 C82.364,91.815 82.344,91.928 82.303,92.031 C82.282,92.124 82.252,92.216 82.231,92.299 C82.015,93.142 81.768,93.964 81.511,94.787 C81.388,95.178 81.264,95.558 81.131,95.949 C81.12,95.99 81.1,96.031 81.089,96.072 C80.966,96.422 80.842,96.771 80.719,97.121 C80.678,97.224 80.637,97.326 80.596,97.44 C80.472,97.769 80.349,98.098 80.216,98.427 C80.062,98.828 79.897,99.219 79.733,99.61 C79.589,99.96 79.435,100.309 79.28,100.658 C79.26,100.72 79.229,100.771 79.208,100.833 C79.033,101.203 78.869,101.573 78.694,101.933 C78.519,102.313 78.334,102.694 78.139,103.075 C77.769,103.825 77.368,104.576 76.967,105.306 L76.412,106.293 C74.828,109.018 73.07,111.578 71.158,113.942 C70.901,114.281 70.634,114.61 70.356,114.929 C69.975,115.392 69.585,115.844 69.194,116.286 C68.844,116.677 68.495,117.067 68.135,117.448 C67.148,118.507 66.14,119.515 65.112,120.461 C64.906,120.667 64.691,120.852 64.474,121.047 C64.124,121.366 63.775,121.674 63.415,121.972 C63.137,122.219 62.85,122.455 62.561,122.692 C61.821,123.298 61.081,123.884 60.33,124.429 C60.021,124.666 59.703,124.892 59.384,125.108 C58.87,125.478 58.345,125.828 57.821,126.167 C57.533,126.362 57.235,126.547 56.937,126.722 C55.981,127.318 55.004,127.863 54.048,128.346 C53.956,128.397 53.874,128.438 53.781,128.479 C53.524,128.613 53.267,128.736 53.01,128.86 C52.753,128.983 52.486,129.107 52.208,129.23 C51.869,129.384 51.53,129.528 51.19,129.662 C51.056,129.723 50.922,129.775 50.789,129.816 C50.388,129.98 49.976,130.135 49.576,130.268 C49.072,130.453 48.558,130.607 48.055,130.751 C47.705,130.854 47.346,130.946 46.996,131.028 C46.975,131.039 46.955,131.049 46.924,131.049 C46.574,131.131 46.225,131.213 45.875,131.275 C45.782,131.296 45.69,131.316 45.597,131.326 C45.309,131.377 45.021,131.429 44.733,131.46 C44.322,131.521 43.911,131.573 43.5,131.594 C43.356,131.615 43.222,131.625 43.079,131.625 C42.75,131.645 42.421,131.656 42.102,131.656 L42.071,131.656 C41.752,131.656 41.434,131.646 41.115,131.625 C40.991,131.625 40.868,131.615 40.745,131.594 C40.457,131.583 40.159,131.553 39.85,131.512 C39.788,131.512 39.716,131.502 39.655,131.491 C39.275,131.44 38.894,131.378 38.503,131.306 C38.174,131.255 37.845,131.183 37.506,131.101 C35.748,130.7 33.939,130.093 32.108,129.281 C31.491,129.003 30.864,128.716 30.247,128.386 C29.291,127.913 28.335,127.378 27.389,126.792 C26.597,126.309 25.805,125.795 25.024,125.25 C24.633,124.972 24.243,124.695 23.852,124.407 C22.629,123.512 21.415,122.536 20.223,121.487 C19.894,121.189 19.565,120.891 19.236,120.582 C18.907,120.284 18.578,119.976 18.259,119.677 C17.457,118.906 16.676,118.104 15.915,117.271 C15.617,116.952 15.319,116.624 15.02,116.284 C14.198,115.359 13.395,114.403 12.635,113.405 C12.337,113.045 12.059,112.675 11.782,112.305 C10.744,110.928 9.757,109.488 8.831,107.997 C8.584,107.596 8.338,107.184 8.101,106.784 C7.813,106.301 7.536,105.807 7.258,105.314 C6.23,103.463 5.284,101.541 4.461,99.556 C4.338,99.268 4.214,98.98 4.111,98.693 C3.947,98.323 3.803,97.943 3.669,97.572 C3.463,97.027 3.268,96.482 3.083,95.937 C2.898,95.392 2.723,94.837 2.548,94.282 C2.383,93.747 2.229,93.213 2.085,92.668 C1.921,92.092 1.767,91.506 1.633,90.91 C1.623,90.848 1.602,90.786 1.592,90.725 C1.397,89.903 1.222,89.07 1.068,88.226 C0.862,87.116 0.698,85.985 0.574,84.844 C0.523,84.484 0.492,84.124 0.461,83.764 C0.42,83.384 0.389,83.013 0.369,82.633 C0.318,81.944 0.287,81.245 0.266,80.546 C0.256,80.093 0.245,79.641 0.245,79.189 L0.245,54.094 C0.245,48.347 1.407,42.867 3.504,37.88 C3.555,37.736 3.617,37.603 3.679,37.469 C4.492,35.588 5.437,33.778 6.517,32.051 C6.682,31.774 6.856,31.506 7.031,31.239 C14.495,19.806 27.399,12.249 42.07,12.239 L42.111,12.239 C45.299,12.239 48.403,12.599 51.385,13.267 C54.11,13.884 56.731,14.768 59.219,15.889 C62.612,17.41 65.768,19.364 68.606,21.698 C70.991,23.651 73.161,25.851 75.052,28.278 C75.792,29.224 76.491,30.2 77.15,31.208 C77.335,31.485 77.52,31.763 77.685,32.051 C78.754,33.768 79.71,35.568 80.522,37.449 L80.707,37.881 C82.763,42.765 83.915,48.111 83.956,53.725 C83.968,53.847 83.968,53.97 83.968,54.094 Z" id="Path" fill="#ECC19C" fill-rule="nonzero"></path>
                        <path d="M83.968,79.19 C83.968,79.642 83.958,80.095 83.948,80.547 C83.938,80.896 83.927,81.246 83.907,81.595 C83.897,81.945 83.876,82.284 83.845,82.633 C83.835,82.869 83.814,83.106 83.794,83.343 C83.784,83.487 83.774,83.62 83.753,83.764 C83.733,84.021 83.712,84.288 83.671,84.545 C83.65,84.792 83.62,85.039 83.589,85.285 C83.568,85.522 83.538,85.768 83.496,86.015 C83.404,86.755 83.28,87.495 83.146,88.225 C83.064,88.657 82.982,89.079 82.889,89.5 C82.879,89.593 82.858,89.675 82.838,89.757 C82.828,89.829 82.817,89.901 82.797,89.973 C82.787,89.994 82.787,90.014 82.776,90.035 C82.776,90.056 82.776,90.076 82.766,90.097 C82.766,90.107 82.766,90.118 82.766,90.118 C82.745,90.231 82.715,90.344 82.694,90.447 C82.674,90.56 82.643,90.673 82.612,90.776 C82.592,90.91 82.56,91.033 82.519,91.157 C82.478,91.362 82.426,91.558 82.365,91.753 C82.355,91.845 82.334,91.938 82.304,92.03 C82.283,92.123 82.253,92.215 82.232,92.298 C82.016,93.141 81.769,93.963 81.512,94.786 C81.389,95.177 81.265,95.557 81.132,95.948 C81.121,95.989 81.101,96.03 81.09,96.071 C80.967,96.421 80.843,96.77 80.72,97.12 C80.679,97.223 80.638,97.325 80.597,97.439 C80.473,97.768 80.35,98.097 80.217,98.426 C80.063,98.827 79.898,99.218 79.734,99.609 C79.59,99.959 79.436,100.308 79.281,100.657 C79.261,100.719 79.23,100.77 79.209,100.832 C79.034,101.202 78.87,101.572 78.695,101.932 C78.52,102.312 78.335,102.693 78.14,103.074 C77.77,103.824 77.369,104.575 76.968,105.305 L76.413,106.292 C74.829,109.017 73.071,111.577 71.159,113.941 C70.902,114.28 70.635,114.609 70.357,114.928 C69.976,115.391 69.586,115.843 69.195,116.285 C68.845,116.676 68.496,117.066 68.136,117.447 C67.149,118.506 66.141,119.514 65.113,120.46 C64.907,120.666 64.692,120.851 64.475,121.046 C64.125,121.365 63.776,121.673 63.416,121.971 C63.138,122.218 62.851,122.454 62.562,122.691 C61.822,123.297 61.082,123.883 60.331,124.428 C60.022,124.665 59.704,124.891 59.385,125.107 C58.871,125.477 58.346,125.827 57.822,126.166 C57.534,126.361 57.236,126.546 56.938,126.721 C55.982,127.317 55.005,127.862 54.049,128.345 C53.957,128.396 53.875,128.437 53.782,128.478 C53.525,128.612 53.268,128.735 53.011,128.859 C52.754,128.982 52.487,129.106 52.209,129.229 C51.87,129.383 51.531,129.527 51.191,129.661 C51.057,129.722 50.923,129.774 50.79,129.815 C50.389,129.979 49.977,130.134 49.577,130.267 C49.073,130.452 48.559,130.606 48.056,130.75 C47.706,130.853 47.347,130.945 46.997,131.027 C46.976,131.038 46.956,131.048 46.925,131.048 C46.575,131.13 46.226,131.212 45.876,131.274 C45.783,131.295 45.691,131.315 45.598,131.325 C45.31,131.376 45.022,131.428 44.734,131.459 C44.323,131.52 43.912,131.572 43.501,131.593 C43.357,131.614 43.223,131.624 43.08,131.624 C42.751,131.644 42.422,131.655 42.103,131.655 L42.072,131.655 C41.753,131.655 41.435,131.645 41.116,131.624 C40.992,131.624 40.869,131.614 40.746,131.593 C40.458,131.582 40.16,131.552 39.851,131.511 C39.789,131.511 39.717,131.501 39.656,131.49 C39.276,131.439 38.895,131.377 38.504,131.305 C38.175,131.254 37.846,131.182 37.507,131.1 C35.749,130.699 33.94,130.092 32.109,129.28 C31.492,129.002 30.865,128.715 30.248,128.385 C29.292,127.912 28.336,127.377 27.39,126.791 C26.598,126.318 25.817,125.804 25.025,125.249 C24.634,124.971 24.244,124.694 23.853,124.406 C22.63,123.511 21.416,122.535 20.224,121.486 C19.895,121.188 19.566,120.89 19.237,120.581 C18.908,120.283 18.579,119.975 18.26,119.676 C17.458,118.905 16.677,118.103 15.916,117.27 C15.618,116.951 15.32,116.623 15.021,116.283 C14.199,115.358 13.396,114.402 12.636,113.404 C12.338,113.044 12.06,112.674 11.783,112.304 C10.745,110.927 9.758,109.487 8.832,107.996 C8.585,107.595 8.339,107.183 8.102,106.783 C7.814,106.3 7.537,105.806 7.259,105.313 C6.231,103.462 5.285,101.54 4.462,99.555 C4.339,99.267 4.215,98.979 4.112,98.692 C3.948,98.322 3.804,97.942 3.67,97.571 C3.464,97.026 3.269,96.481 3.084,95.936 C2.899,95.391 2.724,94.836 2.549,94.281 C2.384,93.746 2.23,93.212 2.086,92.667 C1.922,92.091 1.768,91.505 1.634,90.909 C1.624,90.847 1.603,90.785 1.593,90.724 C1.398,89.902 1.223,89.069 1.069,88.225 C0.863,87.115 0.699,85.984 0.575,84.843 C0.524,84.483 0.493,84.123 0.462,83.763 C0.421,83.383 0.39,83.012 0.37,82.632 C0.319,81.943 0.288,81.244 0.267,80.545 C0.257,80.092 0.246,79.64 0.246,79.188 L6.929,92.328 L18.413,97.335 L31.995,98.559 L32.005,98.559 L42.07,99.474 L42.132,99.474 L51.55,100.328 C51.56,100.328 51.56,100.328 51.56,100.328 L72.565,102.22 L83.968,79.19 Z" id="Path" fill="#ACACAC" fill-rule="nonzero"></path>
                        <g transform="translate(0.000000, 66.000000)" fill="#ACACAC" fill-rule="nonzero" id="Path">
                            <path d="M42.153,19.791 L42.143,29.918 L42.143,29.929 L42.133,33.476 L42.133,36.262 L42.123,45.515 L42.123,45.525 L42.113,45.515 L42.103,45.515 L42.093,45.505 L42.072,45.495 L1.635,24.912 C1.625,24.85 1.604,24.788 1.594,24.727 C1.399,23.905 1.224,23.072 1.07,22.228 C0.864,21.118 0.7,19.987 0.576,18.846 C0.525,18.486 0.494,18.126 0.463,17.766 C0.422,17.386 0.391,17.015 0.371,16.635 C0.32,15.946 0.289,15.247 0.268,14.548 C0.258,14.095 0.247,13.643 0.247,13.191 L0.247,0.904 C0.247,1.079 0.257,1.254 0.257,1.428 C0.257,1.551 0.267,1.675 0.278,1.798 C0.38,4.666 0.854,7.802 1.727,11.01 C2.436,13.58 3.321,15.955 4.349,18.074 L4.349,18.084 C7.043,23.687 10.651,27.491 13.973,28.108 C14.178,28.139 14.394,28.159 14.6,28.18 C15.885,28.324 17.232,28.406 18.62,28.406 C23.863,28.406 28.521,24.191 31.451,22.484 C31.472,22.474 31.492,22.463 31.513,22.453 C31.667,22.36 31.822,22.268 31.955,22.175 C31.996,22.144 32.037,22.124 32.078,22.103 C34.546,20.694 38.103,19.8 42.072,19.79 L42.153,19.79 L42.153,19.791 Z"></path>
                            <path d="M83.981,0.899 L83.971,13.185 C83.971,16.269 83.683,19.292 83.149,22.222 C82.933,23.394 82.686,24.556 82.399,25.707 L72.909,39.412 L42.126,45.509 L42.116,45.509 L42.106,45.519 L42.106,45.509 L42.075,19.781 L42.157,19.781 C46.125,19.791 49.693,20.686 52.16,22.094 C52.201,22.115 52.232,22.135 52.273,22.166 C52.417,22.258 52.571,22.351 52.725,22.443 C52.735,22.454 52.756,22.464 52.777,22.474 C55.717,24.181 60.364,28.399 65.608,28.399 C66.996,28.399 68.343,28.317 69.628,28.173 C69.844,28.152 70.049,28.132 70.265,28.101 C73.575,27.484 77.195,23.68 79.878,18.077 L79.878,18.067 C80.906,15.949 81.79,13.574 82.5,11.004 C83.425,7.611 83.909,4.3 83.97,1.288 C83.981,1.156 83.981,1.033 83.981,0.899 Z"></path>
                        </g>
                        <ellipse id="Oval" fill="#ECC19C" fill-rule="nonzero" cx="42.107" cy="99.091" rx="10.255" ry="3.17"></ellipse>
                        <path d="M78.776,53.477 C78.776,53.302 78.652,53.148 78.478,53.127 C77.008,52.901 70.387,51.996 63.272,51.996 C55.201,51.996 44.786,54.525 42.966,54.525 L41.352,54.525 C40.509,54.525 37.795,53.98 34.32,53.394 C30.331,52.715 25.344,51.996 21.047,51.996 C15.835,51.996 10.9,52.49 8.051,52.829 C7.002,52.952 6.241,53.065 5.841,53.127 C5.666,53.148 5.543,53.302 5.543,53.477 L5.461,57.815 C5.461,57.969 5.553,58.103 5.687,58.165 L6.181,58.33 C6.911,58.608 6.849,71.685 10.746,74.955 C13.059,76.878 15.126,77.978 23.813,77.978 C28.841,77.978 32.007,76.621 35.009,72.57 C37.168,69.66 39.091,62.782 39.091,62.782 C39.646,60.047 41.63,59.739 42.072,59.698 C42.082,59.698 42.082,59.698 42.093,59.698 L42.124,59.698 C42.145,59.698 42.155,59.698 42.155,59.698 C42.227,59.698 44.613,59.739 45.229,62.782 C45.229,62.782 47.152,69.66 49.311,72.57 C52.313,76.621 55.479,77.978 60.507,77.978 C69.195,77.978 71.261,76.878 73.574,74.955 C77.47,71.685 77.409,58.608 78.139,58.33 L78.633,58.165 C78.767,58.103 78.859,57.97 78.859,57.815 L78.776,53.477 Z M35.008,68.95 C33.723,71.973 30.433,75.869 25.786,76.106 C11.855,76.805 11.218,72.919 10.312,69.835 C9.407,66.75 9.171,64.046 9.531,60.972 C9.891,57.888 10.672,56.078 12.071,55.174 C12.667,54.773 13.325,54.413 15.001,54.156 C16.502,53.94 18.815,53.806 22.671,53.806 C24.912,53.806 27,53.981 28.871,54.279 C33.826,55.081 37.178,56.767 37.178,58.422 C37.177,59.563 36.89,64.478 35.008,68.95 Z M74.005,69.835 C73.1,72.919 72.463,76.806 58.531,76.106 C53.884,75.87 50.584,71.973 49.309,68.95 C47.427,64.478 47.14,59.563 47.14,58.422 C47.14,56.14 53.483,53.806 61.647,53.806 C69.8,53.806 71.106,54.413 72.247,55.174 C73.645,56.079 74.427,57.888 74.787,60.972 C75.146,64.046 74.91,66.75 74.005,69.835 Z" id="Shape" fill="#1A1A1A" fill-rule="nonzero"></path>
                        <g fill="#ACACAC" fill-rule="nonzero">
                            <path d="M84.061,37.87 C84.05,37.87 84.05,37.88 84.04,37.88 L0.247,37.88 C0.247,8.28 20.193,9.473 42.072,11.909 C42.082,11.909 42.082,11.909 42.093,11.909 C43.646,12.084 45.208,12.259 46.771,12.433 C63.139,14.253 76.463,7.179 83.136,0.918 C92.213,7.386 93.828,31.259 84.061,37.87 Z" id="Path"></path>
                            <path d="M14.846,36.132 L14.62,36.841 C14.507,37.19 14.394,37.54 14.27,37.879 C14.167,38.157 14.075,38.434 13.961,38.702 C12.039,43.843 9.129,48.552 5.561,52.767 C3.053,55.738 0.534,60.509 0.277,67.798 C0.256,68.219 0.246,68.641 0.246,69.083 L0.246,54.093 C0.246,45.601 0.246,37.879 0.246,37.879 L3.68,37.468 L7.032,37.067 L10.98,36.594 L14.846,36.132 Z" id="Path"></path>
                            <path d="M84.176,37.883 L69.581,36.141 L69.808,36.846 C71.697,42.721 74.882,48.054 78.863,52.77 C81.52,55.918 84.177,61.072 84.177,69.093 C84.176,58.105 84.176,37.883 84.176,37.883 Z" id="Path"></path>
                            <ellipse id="Oval" cx="42.07" cy="36.141" rx="31.19" ry="5.912"></ellipse>
                        </g>
                    </g>
                </g>
            </g>
        </g>
    </g>
</svg>