<?xml version="1.0" encoding="UTF-8"?>
<svg width="1614px" height="1145px" viewBox="0 0 1614 1145" version="1.1" xmlns="http://www.w3.org/2000/svg" xmlns:xlink="http://www.w3.org/1999/xlink">
    <title>userTestData</title>
    <g id="userTestData" stroke="none" stroke-width="1" fill="none" fill-rule="evenodd">
        <rect fill="#FFFFFF" x="0" y="0" width="1614" height="1145"></rect>
        <circle id="Oval" fill="#F1C40F" cx="579.5" cy="478.5" r="400.5"></circle>
        <circle id="Oval" fill-opacity="0.749317089" fill="#BA274A" cx="1181" cy="736" r="255"></circle>
        <path d="M664.810357,1093.594 C668.506357,1093.594 672.433357,1091.548 672.433357,1086.862 C672.433357,1082.176 668.803357,1081.12 665.503357,1080.031 C662.896357,1079.173 660.421357,1078.414 660.421357,1075.444 C660.421357,1072.441 663.094357,1071.055 665.404357,1071.055 C667.615357,1071.055 669.232357,1071.979 670.222357,1073.398 L672.103357,1071.88 C670.981357,1070.362 668.638357,1069.042 665.503357,1069.042 C662.071357,1069.042 658.045357,1070.956 658.045357,1075.477 C658.045357,1079.701 661.213357,1081.054 664.315357,1082.011 C667.285357,1082.935 670.024357,1083.76 670.024357,1087.027 C670.024357,1090.03 667.252357,1091.548 664.843357,1091.548 C662.401357,1091.548 660.520357,1090.261 659.497357,1088.611 L657.451357,1090.129 C659.134357,1092.439 661.972357,1093.594 664.810357,1093.594 Z M683.9315,1093.396 C686.4065,1093.396 688.1225,1092.538 689.5415,1090.492 L689.6075,1090.492 C689.6075,1091.317 689.7065,1092.241 689.8385,1093 L691.8515,1093 C691.6865,1092.142 691.5875,1090.723 691.5875,1089.535 L691.5875,1082.77 C691.5875,1079.008 688.9145,1077.16 685.5815,1077.16 C682.9415,1077.16 680.7635,1078.117 679.5095,1079.371 L680.7635,1080.856 C681.8525,1079.767 683.5355,1079.041 685.3505,1079.041 C688.0235,1079.041 689.4755,1080.361 689.4755,1083.034 L689.4755,1083.529 C683.8325,1083.529 678.5855,1083.958 678.5855,1088.71 C678.5855,1092.142 681.5885,1093.396 683.9315,1093.396 Z M684.5255,1091.548 C682.7765,1091.548 680.8955,1090.822 680.8955,1088.611 C680.8955,1085.674 685.1525,1085.278 688.8155,1085.278 L689.4755,1085.278 L689.4755,1086.433 C689.4755,1089.172 687.6935,1091.548 684.5255,1091.548 Z M701.963643,1093 L701.963643,1085.08 C701.963643,1080.955 704.306643,1079.041 706.451643,1079.041 C709.454643,1079.041 710.180643,1080.988 710.180643,1083.991 L710.180643,1093 L712.424643,1093 L712.424643,1084.783 C712.424643,1081.912 713.579643,1079.041 716.813643,1079.041 C719.717643,1079.041 720.806643,1081.219 720.806643,1084.453 L720.806643,1093 L723.050643,1093 L723.050643,1083.529 C723.050643,1079.701 721.103643,1077.16 717.176643,1077.16 C714.701643,1077.16 712.820643,1078.315 711.764643,1080.427 C710.741643,1077.787 708.695643,1077.16 707.012643,1077.16 C704.801643,1077.16 702.821643,1078.414 701.930643,1080.196 L701.864643,1080.196 C701.864643,1079.536 701.798643,1078.381 701.732643,1077.556 L699.587643,1077.556 C699.686643,1078.612 699.719643,1080.13 699.719643,1080.955 L699.719643,1093 L701.963643,1093 Z M733.459786,1100.92 L733.459786,1090.393 L733.558786,1090.393 C734.845786,1092.307 737.155786,1093.396 739.366786,1093.396 C744.184786,1093.396 747.352786,1089.832 747.352786,1085.278 C747.352786,1080.724 744.184786,1077.16 739.366786,1077.16 C737.155786,1077.16 734.845786,1078.216 733.558786,1080.229 L733.459786,1080.229 L733.459786,1077.556 L731.215786,1077.556 L731.215786,1100.92 L733.459786,1100.92 Z M739.135786,1091.482 C735.670786,1091.482 733.195786,1088.809 733.195786,1085.278 C733.195786,1081.747 735.670786,1079.041 739.135786,1079.041 C742.864786,1079.041 744.976786,1081.846 744.976786,1085.278 C744.976786,1088.71 742.864786,1091.482 739.135786,1091.482 Z M756.837929,1093 L756.837929,1068.052 L754.593929,1068.052 L754.593929,1093 L756.837929,1093 Z M772.065071,1093.396 C774.606071,1093.396 776.883071,1092.439 778.698071,1090.129 L777.015071,1088.809 C776.157071,1090.195 774.375071,1091.482 772.065071,1091.482 C768.897071,1091.482 766.488071,1088.974 766.422071,1085.872 L779.226071,1085.872 C779.259071,1085.476 779.259071,1085.113 779.259071,1084.816 C779.259071,1080.592 776.718071,1077.16 771.867071,1077.16 C767.478071,1077.16 764.079071,1080.625 764.079071,1085.278 C764.079071,1089.931 767.478071,1093.396 772.065071,1093.396 Z M776.982071,1084.09 L766.455071,1084.09 C766.653071,1081.45 768.864071,1079.041 771.867071,1079.041 C775.068071,1079.041 776.850071,1081.186 776.982071,1084.09 Z M801.430357,1093.396 C804.268357,1093.396 807.238357,1092.142 807.238357,1088.611 C807.238357,1086.202 805.522357,1084.849 801.892357,1084.09 C799.351357,1083.562 798.196357,1082.902 798.196357,1081.45 C798.196357,1079.734 799.846357,1079.041 801.463357,1079.041 C803.179357,1079.041 804.598357,1079.932 805.258357,1081.219 L806.974357,1079.932 C805.984357,1078.183 803.707357,1077.16 801.562357,1077.16 C798.757357,1077.16 796.051357,1078.513 796.051357,1081.648 C796.051357,1084.585 798.658357,1085.377 800.473357,1085.806 C803.410357,1086.499 805.027357,1087.159 805.027357,1088.776 C805.027357,1090.789 803.311357,1091.482 801.397357,1091.482 C799.582357,1091.482 797.899357,1090.426 797.107357,1089.073 L795.325357,1090.393 C796.744357,1092.472 799.087357,1093.396 801.430357,1093.396 Z M815.2055,1073.2 C815.9975,1073.2 816.7895,1072.54 816.7895,1071.616 C816.7895,1070.692 815.9975,1070.032 815.2055,1070.032 C814.4135,1070.032 813.6215,1070.692 813.6215,1071.616 C813.6215,1072.54 814.4135,1073.2 815.2055,1073.2 Z M816.3275,1093 L816.3275,1077.556 L814.0835,1077.556 L814.0835,1093 L816.3275,1093 Z M835.250643,1093 L835.250643,1091.053 L825.680643,1091.053 L834.920643,1079.14 L834.920643,1077.556 L823.172643,1077.556 L823.172643,1079.437 L831.917643,1079.437 L822.710643,1091.416 L822.710643,1093 L835.250643,1093 Z M848.464786,1093.396 C851.005786,1093.396 853.282786,1092.439 855.097786,1090.129 L853.414786,1088.809 C852.556786,1090.195 850.774786,1091.482 848.464786,1091.482 C845.296786,1091.482 842.887786,1088.974 842.821786,1085.872 L855.625786,1085.872 C855.658786,1085.476 855.658786,1085.113 855.658786,1084.816 C855.658786,1080.592 853.117786,1077.16 848.266786,1077.16 C843.877786,1077.16 840.478786,1080.625 840.478786,1085.278 C840.478786,1089.931 843.877786,1093.396 848.464786,1093.396 Z M853.381786,1084.09 L842.854786,1084.09 C843.052786,1081.45 845.263786,1079.041 848.266786,1079.041 C851.467786,1079.041 853.249786,1081.186 853.381786,1084.09 Z M873.870071,1093 L875.256071,1085.08 C875.982071,1080.955 878.556071,1079.008 880.932071,1079.008 C883.473071,1079.008 884.364071,1080.361 884.364071,1082.506 C884.364071,1083.1 884.298071,1083.76 884.166071,1084.453 L882.648071,1093 L884.859071,1093 L886.542071,1083.529 C886.641071,1082.935 886.707071,1082.407 886.707071,1081.879 C886.707071,1078.975 884.727071,1077.16 881.394071,1077.16 C879.315071,1077.16 877.302071,1078.315 876.114071,1080.196 L876.048071,1080.196 C876.180071,1079.536 876.312071,1078.381 876.411071,1077.556 L874.266071,1077.556 C874.167071,1078.612 873.936071,1080.13 873.771071,1080.955 L871.659071,1093 L873.870071,1093 Z M911.273214,1081.516 L911.273214,1079.536 L894.443214,1079.536 L894.443214,1081.516 L911.273214,1081.516 Z M911.273214,1086.466 L911.273214,1084.486 L894.443214,1084.486 L894.443214,1086.466 L911.273214,1086.466 Z M926.236357,1093 L930.361357,1069.636 L928.249357,1069.636 L921.451357,1074.454 L922.606357,1076.17 L927.523357,1072.507 L923.926357,1093 L926.236357,1093 Z M942.8165,1093 L956.0825,1071.814 L956.4785,1069.636 L942.6185,1069.636 L942.2555,1071.715 L953.6735,1071.715 L940.0445,1093 L942.8165,1093 Z" id="Samplesizen=17" fill="#000000" fill-rule="nonzero"></path>
        <path d="M316.668,499 L320.252,489.928 L337.444,489.928 L341.14,499 L349.204,499 L332.124,459.352 L326.02,459.352 L308.772,499 L316.668,499 Z M334.98,483.88 L322.66,483.88 L328.876,467.752 L334.98,483.88 Z M363.508,499 L363.508,484.608 C363.508,482.648 364.684,477.384 370.732,477.384 C371.348,477.384 371.908,477.44 372.804,477.664 L372.804,471.504 C372.356,471.392 371.684,471.336 371.18,471.336 C367.652,471.336 364.796,473.52 363.34,476.6 L363.228,476.6 L363.228,472.12 L356.788,472.12 L356.788,499 L363.508,499 Z M390.076,499.56 C391.588,499.56 393.38,499.28 394.556,498.832 L394.332,493.568 C393.548,493.96 392.372,494.128 391.476,494.128 C388.508,494.128 387.948,492.392 387.948,489.984 L387.948,477.496 L394.668,477.496 L394.668,472.12 L387.948,472.12 L387.948,464.336 L381.34,464.336 L381.34,472.12 L376.636,472.12 L376.636,477.496 L381.34,477.496 L381.34,490.04 C381.34,495.192 382.964,499.56 390.076,499.56 Z M406.956,467.024 C409.42,467.024 411.324,465.288 411.324,462.992 C411.324,460.696 409.42,458.96 406.956,458.96 C404.492,458.96 402.7,460.864 402.7,462.992 C402.7,465.12 404.492,467.024 406.956,467.024 Z M410.372,499 L410.372,472.12 L403.652,472.12 L403.652,499 L410.372,499 Z M430.388,499.784 C436.268,499.784 441.588,497.376 441.588,490.824 C441.588,485.56 436.884,483.768 432.908,482.816 C429.156,481.92 427.084,481.36 427.084,479.288 C427.084,477.16 429.268,476.376 431.396,476.376 C433.86,476.376 436.1,477.72 437.276,479.288 L441.644,475.424 C439.46,472.68 435.428,471.336 431.564,471.336 C426.244,471.336 420.868,473.912 420.868,479.904 C420.868,484.944 424.844,486.568 428.82,487.52 C432.908,488.472 434.98,489.144 434.98,491.384 C434.98,493.792 432.628,494.576 430.668,494.576 C427.756,494.576 425.236,493.12 423.78,491.216 L419.356,495.36 C421.932,498.216 426.244,499.784 430.388,499.784 Z M460.988,499.56 C462.5,499.56 464.292,499.28 465.468,498.832 L465.244,493.568 C464.46,493.96 463.284,494.128 462.388,494.128 C459.42,494.128 458.86,492.392 458.86,489.984 L458.86,477.496 L465.58,477.496 L465.58,472.12 L458.86,472.12 L458.86,464.336 L452.252,464.336 L452.252,472.12 L447.548,472.12 L447.548,477.496 L452.252,477.496 L452.252,490.04 C452.252,495.192 453.876,499.56 460.988,499.56 Z M482.292,499.784 C488.172,499.784 493.492,497.376 493.492,490.824 C493.492,485.56 488.788,483.768 484.812,482.816 C481.06,481.92 478.988,481.36 478.988,479.288 C478.988,477.16 481.172,476.376 483.3,476.376 C485.764,476.376 488.004,477.72 489.18,479.288 L493.548,475.424 C491.364,472.68 487.332,471.336 483.468,471.336 C478.148,471.336 472.772,473.912 472.772,479.904 C472.772,484.944 476.748,486.568 480.724,487.52 C484.812,488.472 486.884,489.144 486.884,491.384 C486.884,493.792 484.532,494.576 482.572,494.576 C479.66,494.576 477.14,493.12 475.684,491.216 L471.26,495.36 C473.836,498.216 478.148,499.784 482.292,499.784 Z M528.036,512.44 L528.036,495.416 L528.148,495.416 C529.884,498.104 533.3,499.784 537.052,499.784 C545.228,499.784 550.268,493.288 550.268,485.448 C550.268,477.496 544.892,471.336 537.22,471.336 C532.292,471.336 529.268,473.744 527.924,475.872 L527.756,475.872 L527.756,472.12 L521.316,472.12 L521.316,512.44 L528.036,512.44 Z M535.708,494.184 C530.78,494.184 527.812,489.76 527.812,485.56 C527.812,481.36 530.78,476.824 535.708,476.824 C540.916,476.824 543.436,481.248 543.436,485.448 C543.436,489.648 540.916,494.184 535.708,494.184 Z M573.644,499.784 C578.74,499.784 582.548,497.992 585.18,494.408 L580.7,490.824 C579.188,492.952 576.948,494.296 573.588,494.296 C569.668,494.296 566.196,491.496 565.916,487.688 L586.356,487.688 C586.412,487.072 586.412,486.512 586.412,485.896 C586.412,476.208 580.924,471.336 573.42,471.336 C565.3,471.336 559.196,477.048 559.196,485.728 C559.196,494.464 565.356,499.784 573.644,499.784 Z M579.692,482.872 L565.916,482.872 C566.196,479.12 569.388,476.376 573.364,476.376 C577.732,476.376 579.692,479.4 579.692,482.872 Z M603.628,499 L603.628,484.608 C603.628,482.648 604.804,477.384 610.852,477.384 C611.468,477.384 612.028,477.44 612.924,477.664 L612.924,471.504 C612.476,471.392 611.804,471.336 611.3,471.336 C607.772,471.336 604.916,473.52 603.46,476.6 L603.348,476.6 L603.348,472.12 L596.908,472.12 L596.908,499 L603.628,499 Z M629.076,499 L629.076,477.496 L635.292,477.496 L635.292,472.12 L629.076,472.12 L629.076,467.752 C629.076,465.064 629.748,461.704 633.612,461.704 C634.564,461.704 635.46,461.872 636.188,462.096 L636.636,456.384 C635.628,456.104 634.676,455.992 633.22,455.992 C624.876,455.992 622.356,461.704 622.356,468.144 L622.356,472.12 L617.26,472.12 L617.26,477.496 L622.356,477.496 L622.356,499 L629.076,499 Z M656.484,499.784 C664.604,499.784 671.1,493.904 671.1,485.448 C671.1,476.992 664.604,471.336 656.484,471.336 C648.364,471.336 641.868,476.992 641.868,485.448 C641.868,493.904 648.364,499.784 656.484,499.784 Z M656.484,494.184 C651.164,494.184 648.7,489.648 648.7,485.448 C648.7,481.248 651.164,476.824 656.484,476.824 C661.804,476.824 664.268,481.248 664.268,485.448 C664.268,489.648 661.804,494.184 656.484,494.184 Z M688.316,499 L688.316,484.608 C688.316,482.648 689.492,477.384 695.54,477.384 C696.156,477.384 696.716,477.44 697.612,477.664 L697.612,471.504 C697.164,471.392 696.492,471.336 695.988,471.336 C692.46,471.336 689.604,473.52 688.148,476.6 L688.036,476.6 L688.036,472.12 L681.596,472.12 L681.596,499 L688.316,499 Z M712.7,499 L712.7,484.216 C712.7,480.632 714.548,476.936 718.58,476.936 C721.996,476.936 723.564,479.456 723.564,482.76 L723.564,499 L730.284,499 L730.284,484.328 C730.284,480.856 732.02,476.936 736.22,476.936 C740.532,476.936 741.26,480.912 741.26,484.104 L741.26,499 L747.98,499 L747.98,482.2 C747.98,476.712 745.068,471.336 738.068,471.336 C734.036,471.336 731.012,473.184 729.22,476.432 C727.708,473.408 724.964,471.336 720.82,471.336 C716.508,471.336 713.652,473.8 712.476,476.432 L712.364,476.432 L712.364,472.12 L705.98,472.12 L705.98,499 L712.7,499 Z M763.236,467.024 C765.7,467.024 767.604,465.288 767.604,462.992 C767.604,460.696 765.7,458.96 763.236,458.96 C760.772,458.96 758.98,460.864 758.98,462.992 C758.98,465.12 760.772,467.024 763.236,467.024 Z M766.652,499 L766.652,472.12 L759.932,472.12 L759.932,499 L766.652,499 Z M785.548,499 L785.548,484.216 C785.548,480.632 787.564,476.936 791.82,476.936 C796.132,476.936 796.86,480.912 796.86,484.104 L796.86,499 L803.58,499 L803.58,482.2 C803.58,476.712 800.668,471.336 793.668,471.336 C789.692,471.336 786.5,473.744 785.324,476.432 L785.212,476.432 L785.212,472.12 L778.828,472.12 L778.828,499 L785.548,499 Z M827.572,512.44 C838.044,512.44 842.748,506.28 842.748,496.592 L842.748,472.12 L836.364,472.12 L836.364,476.152 L836.252,476.152 C834.292,472.904 830.764,471.336 827.012,471.336 C818.892,471.336 813.852,477.664 813.852,485.448 C813.852,493.064 819.06,499.448 827.124,499.448 C830.82,499.448 833.956,498.048 835.916,495.416 L836.028,495.416 L836.028,497.376 C836.028,502.696 834.012,506.616 827.516,506.616 C824.156,506.616 820.684,505.272 818.108,502.808 L814.244,508.016 C817.716,510.872 823.204,512.44 827.572,512.44 Z M828.356,493.904 C823.54,493.904 820.684,489.648 820.684,485.392 C820.684,480.632 823.54,476.824 828.412,476.824 C833.284,476.824 836.364,480.744 836.364,485.392 C836.364,489.872 833.34,493.904 828.356,493.904 Z" id="Artistsperforming" fill="#000000" fill-rule="nonzero"></path>
        <path d="M1045.65929,752 L1045.65929,738.5 L1049.79929,738.5 L1057.17929,752 L1064.01929,752 L1055.51429,737.87 C1059.96929,736.88 1062.80429,733.865 1062.80429,729.275 C1062.80429,722.525 1057.04429,720.14 1051.05929,720.14 L1039.98929,720.14 L1039.98929,752 L1045.65929,752 Z M1050.29429,733.865 L1045.65929,733.865 L1045.65929,724.91 L1050.78929,724.91 C1053.71429,724.91 1057.13429,725.765 1057.13429,729.23 C1057.13429,733.1 1053.48929,733.865 1050.29429,733.865 Z M1081.04857,752.63 C1085.14357,752.63 1088.20357,751.19 1090.31857,748.31 L1086.71857,745.43 C1085.50357,747.14 1083.70357,748.22 1081.00357,748.22 C1077.85357,748.22 1075.06357,745.97 1074.83857,742.91 L1091.26357,742.91 C1091.30857,742.415 1091.30857,741.965 1091.30857,741.47 C1091.30857,733.685 1086.89857,729.77 1080.86857,729.77 C1074.34357,729.77 1069.43857,734.36 1069.43857,741.335 C1069.43857,748.355 1074.38857,752.63 1081.04857,752.63 Z M1085.90857,739.04 L1074.83857,739.04 C1075.06357,736.025 1077.62857,733.82 1080.82357,733.82 C1084.33357,733.82 1085.90857,736.25 1085.90857,739.04 Z M1109.50786,762.8 C1117.92286,762.8 1121.70286,757.85 1121.70286,750.065 L1121.70286,730.4 L1116.57286,730.4 L1116.57286,733.64 L1116.48286,733.64 C1114.90786,731.03 1112.07286,729.77 1109.05786,729.77 C1102.53286,729.77 1098.48286,734.855 1098.48286,741.11 C1098.48286,747.23 1102.66786,752.36 1109.14786,752.36 C1112.11786,752.36 1114.63786,751.235 1116.21286,749.12 L1116.30286,749.12 L1116.30286,750.695 C1116.30286,754.97 1114.68286,758.12 1109.46286,758.12 C1106.76286,758.12 1103.97286,757.04 1101.90286,755.06 L1098.79786,759.245 C1101.58786,761.54 1105.99786,762.8 1109.50786,762.8 Z M1110.13786,747.905 C1106.26786,747.905 1103.97286,744.485 1103.97286,741.065 C1103.97286,737.24 1106.26786,734.18 1110.18286,734.18 C1114.09786,734.18 1116.57286,737.33 1116.57286,741.065 C1116.57286,744.665 1114.14286,747.905 1110.13786,747.905 Z M1134.14214,726.305 C1136.12214,726.305 1137.65214,724.91 1137.65214,723.065 C1137.65214,721.22 1136.12214,719.825 1134.14214,719.825 C1132.16214,719.825 1130.72214,721.355 1130.72214,723.065 C1130.72214,724.775 1132.16214,726.305 1134.14214,726.305 Z M1136.88714,752 L1136.88714,730.4 L1131.48714,730.4 L1131.48714,752 L1136.88714,752 Z M1152.97143,752.63 C1157.69643,752.63 1161.97143,750.695 1161.97143,745.43 C1161.97143,741.2 1158.19143,739.76 1154.99643,738.995 C1151.98143,738.275 1150.31643,737.825 1150.31643,736.16 C1150.31643,734.45 1152.07143,733.82 1153.78143,733.82 C1155.76143,733.82 1157.56143,734.9 1158.50643,736.16 L1162.01643,733.055 C1160.26143,730.85 1157.02143,729.77 1153.91643,729.77 C1149.64143,729.77 1145.32143,731.84 1145.32143,736.655 C1145.32143,740.705 1148.51643,742.01 1151.71143,742.775 C1154.99643,743.54 1156.66143,744.08 1156.66143,745.88 C1156.66143,747.815 1154.77143,748.445 1153.19643,748.445 C1150.85643,748.445 1148.83143,747.275 1147.66143,745.745 L1144.10643,749.075 C1146.17643,751.37 1149.64143,752.63 1152.97143,752.63 Z M1177.56071,752.45 C1178.77571,752.45 1180.21571,752.225 1181.16071,751.865 L1180.98071,747.635 C1180.35071,747.95 1179.40571,748.085 1178.68571,748.085 C1176.30071,748.085 1175.85071,746.69 1175.85071,744.755 L1175.85071,734.72 L1181.25071,734.72 L1181.25071,730.4 L1175.85071,730.4 L1175.85071,724.145 L1170.54071,724.145 L1170.54071,730.4 L1166.76071,730.4 L1166.76071,734.72 L1170.54071,734.72 L1170.54071,744.8 C1170.54071,748.94 1171.84571,752.45 1177.56071,752.45 Z M1193.78,752 L1193.78,740.435 C1193.78,738.86 1194.725,734.63 1199.585,734.63 C1200.08,734.63 1200.53,734.675 1201.25,734.855 L1201.25,729.905 C1200.89,729.815 1200.35,729.77 1199.945,729.77 C1197.11,729.77 1194.815,731.525 1193.645,734 L1193.555,734 L1193.555,730.4 L1188.38,730.4 L1188.38,752 L1193.78,752 Z M1213.95929,752.54 C1217.01929,752.54 1219.58429,751.145 1220.66429,749.255 L1220.79929,749.255 L1220.79929,752 L1225.83929,752 L1225.83929,738.86 C1225.83929,734.54 1223.94929,729.77 1216.20929,729.77 C1212.92429,729.77 1209.50429,730.94 1207.07429,733.19 L1209.86429,736.475 C1211.25929,735.08 1213.46429,734 1215.75929,734 C1218.45929,734 1220.70929,735.305 1220.70929,737.96 L1220.70929,738.5 C1213.95929,738.5 1205.85929,739.4 1205.85929,745.835 C1205.85929,750.875 1210.49429,752.54 1213.95929,752.54 Z M1215.03929,748.445 C1213.19429,748.445 1211.25929,747.815 1211.25929,745.745 C1211.25929,742.55 1216.07429,742.145 1219.49429,742.145 L1220.70929,742.145 L1220.70929,742.91 C1220.70929,746.33 1218.72929,748.445 1215.03929,748.445 Z M1242.59857,752.45 C1243.81357,752.45 1245.25357,752.225 1246.19857,751.865 L1246.01857,747.635 C1245.38857,747.95 1244.44357,748.085 1243.72357,748.085 C1241.33857,748.085 1240.88857,746.69 1240.88857,744.755 L1240.88857,734.72 L1246.28857,734.72 L1246.28857,730.4 L1240.88857,730.4 L1240.88857,724.145 L1235.57857,724.145 L1235.57857,730.4 L1231.79857,730.4 L1231.79857,734.72 L1235.57857,734.72 L1235.57857,744.8 C1235.57857,748.94 1236.88357,752.45 1242.59857,752.45 Z M1256.16286,726.305 C1258.14286,726.305 1259.67286,724.91 1259.67286,723.065 C1259.67286,721.22 1258.14286,719.825 1256.16286,719.825 C1254.18286,719.825 1252.74286,721.355 1252.74286,723.065 C1252.74286,724.775 1254.18286,726.305 1256.16286,726.305 Z M1258.90786,752 L1258.90786,730.4 L1253.50786,730.4 L1253.50786,752 L1258.90786,752 Z M1279.17714,752.63 C1285.70214,752.63 1290.92214,747.905 1290.92214,741.11 C1290.92214,734.315 1285.70214,729.77 1279.17714,729.77 C1272.65214,729.77 1267.43214,734.315 1267.43214,741.11 C1267.43214,747.905 1272.65214,752.63 1279.17714,752.63 Z M1279.17714,748.13 C1274.90214,748.13 1272.92214,744.485 1272.92214,741.11 C1272.92214,737.735 1274.90214,734.18 1279.17714,734.18 C1283.45214,734.18 1285.43214,737.735 1285.43214,741.11 C1285.43214,744.485 1283.45214,748.13 1279.17714,748.13 Z M1304.75643,752 L1304.75643,740.12 C1304.75643,737.24 1306.37643,734.27 1309.79643,734.27 C1313.26143,734.27 1313.84643,737.465 1313.84643,740.03 L1313.84643,752 L1319.24643,752 L1319.24643,738.5 C1319.24643,734.09 1316.90643,729.77 1311.28143,729.77 C1308.08643,729.77 1305.52143,731.705 1304.57643,733.865 L1304.48643,733.865 L1304.48643,730.4 L1299.35643,730.4 L1299.35643,752 L1304.75643,752 Z" id="Registration" fill="#000000" fill-rule="nonzero"></path>
        <circle id="Oval" fill="#8D99AE" cx="1125" cy="316" r="169"></circle>
        <path d="M1059.64,316 C1067.04,316 1075.28,311.76 1075.28,301.84 C1075.28,291.2 1067.04,287.68 1059.64,287.68 L1049.6,287.68 L1049.6,316 L1059.64,316 Z M1058.84,311.6 L1054.64,311.6 L1054.64,292 L1058.84,292 C1064.04,292 1069.88,293.72 1069.88,301.84 C1069.88,309.48 1064.04,311.6 1058.84,311.6 Z M1088.61714,316.48 C1091.33714,316.48 1093.61714,315.24 1094.57714,313.56 L1094.69714,313.56 L1094.69714,316 L1099.17714,316 L1099.17714,304.32 C1099.17714,300.48 1097.49714,296.24 1090.61714,296.24 C1087.69714,296.24 1084.65714,297.28 1082.49714,299.28 L1084.97714,302.2 C1086.21714,300.96 1088.17714,300 1090.21714,300 C1092.61714,300 1094.61714,301.16 1094.61714,303.52 L1094.61714,304 C1088.61714,304 1081.41714,304.8 1081.41714,310.52 C1081.41714,315 1085.53714,316.48 1088.61714,316.48 Z M1089.57714,312.84 C1087.93714,312.84 1086.21714,312.28 1086.21714,310.44 C1086.21714,307.6 1090.49714,307.24 1093.53714,307.24 L1094.61714,307.24 L1094.61714,307.92 C1094.61714,310.96 1092.85714,312.84 1089.57714,312.84 Z M1114.07429,316.4 C1115.15429,316.4 1116.43429,316.2 1117.27429,315.88 L1117.11429,312.12 C1116.55429,312.4 1115.71429,312.52 1115.07429,312.52 C1112.95429,312.52 1112.55429,311.28 1112.55429,309.56 L1112.55429,300.64 L1117.35429,300.64 L1117.35429,296.8 L1112.55429,296.8 L1112.55429,291.24 L1107.83429,291.24 L1107.83429,296.8 L1104.47429,296.8 L1104.47429,300.64 L1107.83429,300.64 L1107.83429,309.6 C1107.83429,313.28 1108.99429,316.4 1114.07429,316.4 Z M1132.89143,316.56 C1136.53143,316.56 1139.25143,315.28 1141.13143,312.72 L1137.93143,310.16 C1136.85143,311.68 1135.25143,312.64 1132.85143,312.64 C1130.05143,312.64 1127.57143,310.64 1127.37143,307.92 L1141.97143,307.92 C1142.01143,307.48 1142.01143,307.08 1142.01143,306.64 C1142.01143,299.72 1138.09143,296.24 1132.73143,296.24 C1126.93143,296.24 1122.57143,300.32 1122.57143,306.52 C1122.57143,312.76 1126.97143,316.56 1132.89143,316.56 Z M1137.21143,304.48 L1127.37143,304.48 C1127.57143,301.8 1129.85143,299.84 1132.69143,299.84 C1135.81143,299.84 1137.21143,302 1137.21143,304.48 Z M1171.68571,316.56 C1177.48571,316.56 1182.12571,312.36 1182.12571,306.32 C1182.12571,300.28 1177.48571,296.24 1171.68571,296.24 C1165.88571,296.24 1161.24571,300.28 1161.24571,306.32 C1161.24571,312.36 1165.88571,316.56 1171.68571,316.56 Z M1171.68571,312.56 C1167.88571,312.56 1166.12571,309.32 1166.12571,306.32 C1166.12571,303.32 1167.88571,300.16 1171.68571,300.16 C1175.48571,300.16 1177.24571,303.32 1177.24571,306.32 C1177.24571,309.32 1175.48571,312.56 1171.68571,312.56 Z M1195.18286,316 L1195.18286,300.64 L1199.62286,300.64 L1199.62286,296.8 L1195.18286,296.8 L1195.18286,293.68 C1195.18286,291.76 1195.66286,289.36 1198.42286,289.36 C1199.10286,289.36 1199.74286,289.48 1200.26286,289.64 L1200.58286,285.56 C1199.86286,285.36 1199.18286,285.28 1198.14286,285.28 C1192.18286,285.28 1190.38286,289.36 1190.38286,293.96 L1190.38286,296.8 L1186.74286,296.8 L1186.74286,300.64 L1190.38286,300.64 L1190.38286,316 L1195.18286,316 Z M1078.27714,364.56 C1081.91714,364.56 1084.63714,363.28 1086.51714,360.72 L1083.31714,358.16 C1082.23714,359.68 1080.63714,360.64 1078.23714,360.64 C1075.43714,360.64 1072.95714,358.64 1072.75714,355.92 L1087.35714,355.92 C1087.39714,355.48 1087.39714,355.08 1087.39714,354.64 C1087.39714,347.72 1083.47714,344.24 1078.11714,344.24 C1072.31714,344.24 1067.95714,348.32 1067.95714,354.52 C1067.95714,360.76 1072.35714,364.56 1078.27714,364.56 Z M1082.59714,352.48 L1072.75714,352.48 C1072.95714,349.8 1075.23714,347.84 1078.07714,347.84 C1081.19714,347.84 1082.59714,350 1082.59714,352.48 Z M1104.89429,364 L1112.53429,344.8 L1107.45429,344.8 L1102.37429,358.8 L1102.29429,358.8 L1097.25429,344.8 L1092.01429,344.8 L1099.77429,364 L1104.89429,364 Z M1127.47143,364.56 C1131.11143,364.56 1133.83143,363.28 1135.71143,360.72 L1132.51143,358.16 C1131.43143,359.68 1129.83143,360.64 1127.43143,360.64 C1124.63143,360.64 1122.15143,358.64 1121.95143,355.92 L1136.55143,355.92 C1136.59143,355.48 1136.59143,355.08 1136.59143,354.64 C1136.59143,347.72 1132.67143,344.24 1127.31143,344.24 C1121.51143,344.24 1117.15143,348.32 1117.15143,354.52 C1117.15143,360.76 1121.55143,364.56 1127.47143,364.56 Z M1131.79143,352.48 L1121.95143,352.48 C1122.15143,349.8 1124.43143,347.84 1127.27143,347.84 C1130.39143,347.84 1131.79143,350 1131.79143,352.48 Z M1148.88857,364 L1148.88857,353.44 C1148.88857,350.88 1150.32857,348.24 1153.36857,348.24 C1156.44857,348.24 1156.96857,351.08 1156.96857,353.36 L1156.96857,364 L1161.76857,364 L1161.76857,352 C1161.76857,348.08 1159.68857,344.24 1154.68857,344.24 C1151.84857,344.24 1149.56857,345.96 1148.72857,347.88 L1148.64857,347.88 L1148.64857,344.8 L1144.08857,344.8 L1144.08857,364 L1148.88857,364 Z M1177.06571,364.4 C1178.14571,364.4 1179.42571,364.2 1180.26571,363.88 L1180.10571,360.12 C1179.54571,360.4 1178.70571,360.52 1178.06571,360.52 C1175.94571,360.52 1175.54571,359.28 1175.54571,357.56 L1175.54571,348.64 L1180.34571,348.64 L1180.34571,344.8 L1175.54571,344.8 L1175.54571,339.24 L1170.82571,339.24 L1170.82571,344.8 L1167.46571,344.8 L1167.46571,348.64 L1170.82571,348.64 L1170.82571,357.6 C1170.82571,361.28 1171.98571,364.4 1177.06571,364.4 Z" id="Dateofevent" fill="#000000" fill-rule="nonzero"></path>
    </g>
</svg>