<?xml version="1.0" encoding="UTF-8"?>
<svg width="461px" height="465px" viewBox="0 0 461 465" version="1.1" xmlns="http://www.w3.org/2000/svg" xmlns:xlink="http://www.w3.org/1999/xlink">
    <!-- Generator: Sketch 52.6 (67491) - http://www.bohemiancoding.com/sketch -->
    <title>airplane</title>
    <desc>Created with Sketch.</desc>
    <g id="airplane" stroke="none" stroke-width="1" fill="none" fill-rule="evenodd">
        <g transform="translate(230.135606, 277.135606) rotate(-45.000000) translate(-230.135606, -277.135606) translate(30.635606, 77.635606)" fill="#000000">
            <path d="M336.65625,141.1292 L366.575393,114.528983 L366.689278,114.434621 C390.744985,92.1490084 402.325434,59.4738555 397.675683,27.0102017 L396.588898,19.3018332 C395.284104,10.5392177 388.405467,3.65732646 379.642852,2.34927868 L371.993052,1.26900159 C339.464322,-3.39051041 306.724091,8.23874609 284.415701,32.3692915 L257.815484,62.2916884 L243.439979,54.0204034 C205.594459,32.3139763 162.715235,20.9255042 119.087626,20.9873267 L106.716491,21.032881 C94.8562109,21.0881962 83.9135159,27.4299489 77.9687333,37.6925887 L75.6389781,41.7403771 C73.8038063,44.9258956 74.893846,48.9964603 78.0761109,50.8348857 L205.038052,124.1376 L105.824937,236.545073 L98.2271986,246.313128 C77.6238257,235.025526 54.5117349,229.097012 31.0156902,229.074235 L20.9808194,229.028681 C13.8776665,229.110027 7.33092196,232.900761 3.72891073,239.024506 L0.894808729,243.875995 C0.00976158914,245.405304 -0.231023499,247.22746 0.227769858,248.93573 C0.683307908,250.644002 1.80263202,252.101726 3.33519519,252.983519 L67.9729086,290.301914 C66.1409922,293.845357 64.4034363,297.39856 62.822066,301.049378 C59.3469551,309.281617 60.1994632,318.704764 65.0965068,326.178856 C69.9935496,333.652947 78.2908645,338.198574 87.2259348,338.302697 C90.893023,338.29619 94.5210642,337.541297 97.8887983,336.09008 C98.0579984,336.021749 98.2271986,335.943657 98.386637,335.855803 C101.718579,334.424109 105.15139,332.738616 108.636262,330.939237 L145.954658,395.576951 C146.833198,397.116021 148.287668,398.245107 149.999193,398.707154 C151.710717,399.172454 153.536126,398.934923 155.071943,398.049876 L159.968987,395.219028 L160.008033,395.219028 C166.128523,391.584478 169.902988,385.008449 169.951796,377.89228 L169.906242,367.981056 C169.876957,344.465488 163.932175,321.333874 152.618541,300.717486 L162.246681,293.227125 L274.742008,193.896872 L348.083768,320.875082 C349.925447,324.057346 353.996012,325.150639 357.181531,323.315468 L361.226065,320.988966 C371.491959,315.04093 377.833711,304.094981 377.885773,292.228193 L377.924819,279.873328 C378.10378,236.232703 366.708801,193.32094 344.904758,155.517721 L336.65625,141.1292 Z M106.765299,34.3606472 L119.133179,34.3150929 C160.414764,34.2207315 200.990263,45.0007344 236.782603,65.5683147 L248.938984,72.5608364 L213.927567,113.930275 L90.5839071,42.6970083 C94.335595,37.4941041 100.348708,34.3964397 106.765299,34.3606472 Z M21.0133575,242.356448 L31.0091821,242.402001 C51.5604943,242.405255 71.8026897,247.39666 89.9982143,256.949961 L85.8137638,262.341589 C83.3929,265.400207 81.0956829,268.63128 78.8570347,271.950205 C78.1899958,272.910091 77.5912876,273.8895 76.9567868,274.868908 C76.1368168,276.141163 75.2778006,277.367865 74.4838614,278.672658 L15.8429914,244.839135 C17.111993,243.283794 19.0057328,242.372717 21.0133575,242.356448 Z M156.542684,367.990818 L156.591491,377.836965 C156.591491,379.877129 155.673906,381.806661 154.099043,383.095185 L120.272027,324.454315 C121.563805,323.666884 122.77749,322.827391 124.03673,322.013929 C125.029154,321.350144 126.037848,320.741674 127.010748,320.081142 C130.241821,317.910825 133.381785,315.678684 136.339534,313.352183 L136.538018,313.205759 L142.004485,308.952979 C151.56104,327.164772 156.549191,347.423237 156.542684,367.990818 Z M153.737865,282.964485 L140.022891,293.627349 C139.990353,293.627349 139.944799,293.627349 139.91226,293.685918 L128.289511,302.751142 C121.866413,307.784847 115.052853,312.304443 107.910654,316.25787 C102.977818,319.052926 97.89856,321.584421 92.6989087,323.842592 C92.549232,323.901161 92.4093163,323.966238 92.2628933,324.041077 C87.2487119,325.977117 81.5609828,324.724385 77.8223103,320.86532 C74.0803841,317.003001 73.009868,311.27948 75.105346,306.327122 C77.3765331,301.088425 79.9210428,295.973374 82.7356229,291.001492 C86.6955572,283.826755 91.2216615,276.980656 96.2748891,270.531528 L105.271782,258.98687 C105.271782,258.98687 105.271782,258.915286 105.323843,258.882747 L116.087576,245.02135 L294.281372,41.327138 C310.661249,23.6554838 333.656201,13.5978359 357.754208,13.5718051 C361.880089,13.5718051 365.999461,13.8679056 370.083042,14.4633593 L377.732842,15.5436373 C380.654798,15.9763998 382.958524,18.2638552 383.401048,21.1890658 L384.487833,28.8909269 C388.503083,57.0009301 378.474719,85.293148 357.653338,104.598235 L153.737865,282.964485 Z M364.584038,292.189148 C364.548245,298.59923 361.447327,304.60909 356.241168,308.35427 L285.017663,184.978071 L326.400117,149.999193 L333.402401,162.168589 C354.031805,197.947914 364.805299,238.559205 364.623084,279.860313 L364.584038,292.189148 Z" id="Shape" fill-rule="nonzero"></path>
            <path d="M321.874013,49.6830227 C329.732059,45.0332724 339.744153,46.2990196 346.196536,52.7579108 C352.648919,59.2200548 353.908159,69.2288948 349.248647,77.0836863 C347.371175,80.2496822 348.415661,84.3365167 351.578402,86.2172411 C354.744398,88.0947119 358.834486,87.0534801 360.711957,83.8874851 C368.475641,70.8005042 366.38667,54.1147657 355.632698,43.3445245 C344.878727,32.5775378 328.196242,30.4625355 315.096246,38.2066973 C313.02029,39.4041138 311.748034,41.6264922 311.764304,44.0213251 C311.777319,46.4194118 313.078859,48.6222683 315.171084,49.793654 C317.263309,50.9650397 319.824088,50.922739 321.874013,49.6830227 Z" id="Path"></path>
        </g>
    </g>
</svg>