<?xml version="1.0" encoding="UTF-8"?>
<svg width="1264px" height="557px" viewBox="0 0 1264 557" version="1.1" xmlns="http://www.w3.org/2000/svg" xmlns:xlink="http://www.w3.org/1999/xlink">
    <!-- Generator: Sketch 52.6 (67491) - http://www.bohemiancoding.com/sketch -->
    <title>audience_bg</title>
    <desc>Created with Sketch.</desc>
    <g id="audience_bg" stroke="none" stroke-width="1" fill="none" fill-rule="evenodd">
        <rect fill="#FFFFFF" x="0" y="0" width="1264" height="557"></rect>
        <g id="Group" transform="translate(218.000000, 430.000000)" fill="#000000" fill-rule="nonzero">
            <g id="seats">
                <path d="M122.631006,85.2631579 C122.911816,84.504523 123.058577,83.7030994 123.066667,82.8947368 C123.066667,78.9708831 119.887614,75.7894737 115.966667,75.7894737 L108.866667,75.7894737 L108.866667,61.5789474 L118.333333,61.5789474 C119.640316,61.5789474 120.7,60.5184777 120.7,59.2105263 L120.7,49.7368421 C120.7,45.8129884 117.520947,42.6315789 113.6,42.6315789 L97.0333333,42.6315789 C96.8403482,42.6315789 96.6473631,42.6547081 96.4601563,42.7021227 L88.7315104,44.6357164 L82.8333333,21.0243627 L82.8333333,7.10526316 C82.8333333,3.18140941 79.6542805,0 75.7333333,0 C71.8123861,0 68.6333333,3.18140941 68.6333333,7.10526316 L68.6333333,21.3157895 C68.6333333,21.510074 68.6576008,21.7032022 68.7038248,21.8917042 L71.5211752,33.1578947 L75.0711752,47.3684211 L78.1704915,59.7864411 C78.4351236,60.8399722 79.3815592,61.5789474 80.4666667,61.5789474 L94.6666667,61.5789474 L94.6666667,75.7894737 L82.8333333,75.7894737 C78.9123861,75.7894737 75.7333333,78.9708831 75.7333333,82.8947368 C75.7414226,83.7030994 75.8881837,84.504523 76.1689941,85.2631579 L53.9976726,85.2631579 C54.2784829,84.504523 54.4252441,83.7030994 54.4333333,82.8947368 C54.4333333,78.9708831 51.2542805,75.7894737 47.3333333,75.7894737 L37.8666667,75.7894737 L37.8666667,61.5789474 L47.3333333,61.5789474 C48.6403158,61.5789474 49.7,60.5184777 49.7,59.2105263 L49.7,49.7368421 C49.7,45.8129884 46.5209472,42.6315789 42.6,42.6315789 L28.4,42.6315789 C28.2070149,42.6315789 28.0140298,42.6547081 27.8268229,42.7021227 L20.0981771,44.6357164 L14.2,21.0243627 L14.2,7.10526316 C14.2,3.18140941 11.0209472,0 7.1,0 C3.17905281,0 0,3.18140941 0,7.10526316 L0,21.3157895 C0,21.510074 0.0242675633,21.7032022 0.0704914625,21.8917042 L9.53715813,59.7864411 C9.80179022,60.8399722 10.7482258,61.5789474 11.8333333,61.5789474 L23.6666667,61.5789474 L23.6666667,75.7894737 L14.2,75.7894737 C10.2790528,75.7894737 7.1,78.9708831 7.1,82.8947368 C7.10808927,83.7030994 7.25485041,84.504523 7.53566073,85.2631579 L2.36666667,85.2631579 C1.05968417,85.2631579 0,86.3236276 0,87.6315789 C0,88.9395303 1.05968417,90 2.36666667,90 L139.633333,90 C140.940316,90 142,88.9395303 142,87.6315789 C142,86.3236276 140.940316,85.2631579 139.633333,85.2631579 L122.631006,85.2631579 Z M13.6811361,56.8421053 L4.73333333,21.0243627 L4.73333333,7.10526316 C4.73333333,5.79731181 5.7930175,4.73684211 7.1,4.73684211 C8.4069825,4.73684211 9.46666667,5.79731181 9.46666667,7.10526316 L9.46666667,21.3157895 C9.46666667,21.510074 9.49093417,21.7032022 9.53715813,21.8917042 L16.0928712,48.0784849 C16.4095052,49.3471166 17.6933757,50.119629 18.9622232,49.80276 L28.6912109,47.3684211 L42.6,47.3684211 C43.9069825,47.3684211 44.9666667,48.4288908 44.9666667,49.7368421 L44.9666667,56.8421053 L40.2333333,56.8421053 L40.2333333,54.4736842 C40.2333333,53.1657329 39.1736492,52.1052632 37.8666667,52.1052632 C36.5596842,52.1052632 35.5,53.1657329 35.5,54.4736842 L35.5,56.8421053 L13.6811361,56.8421053 Z M33.1333333,61.5789474 L33.1333333,75.7894737 L28.4,75.7894737 L28.4,61.5789474 L33.1333333,61.5789474 Z M47.3333333,85.2631579 L14.2,85.2631579 C12.8930175,85.2631579 11.8333333,84.2026882 11.8333333,82.8947368 C11.8333333,81.5867855 12.8930175,80.5263158 14.2,80.5263158 L47.3333333,80.5263158 C48.6403158,80.5263158 49.7,81.5867855 49.7,82.8947368 C49.7,84.2026882 48.6403158,85.2631579 47.3333333,85.2631579 Z M82.3144695,56.8421053 L73.3666667,21.0243627 L73.3666667,7.10526316 C73.3666667,5.79731181 74.4263508,4.73684211 75.7333333,4.73684211 C77.0403158,4.73684211 78.1,5.79731181 78.1,7.10526316 L78.1,21.3157895 C78.1,21.510074 78.1242675,21.7032022 78.1704915,21.8917042 L84.7262046,48.0784849 C85.0428385,49.3471166 86.3267091,50.119629 87.5955566,49.80276 L97.3245443,47.3684211 L113.6,47.3684211 C114.906982,47.3684211 115.966667,48.4288908 115.966667,49.7368421 L115.966667,56.8421053 L111.233333,56.8421053 L111.233333,54.4736842 C111.233333,53.1657329 110.173649,52.1052632 108.866667,52.1052632 C107.559684,52.1052632 106.5,53.1657329 106.5,54.4736842 L106.5,56.8421053 L82.3144695,56.8421053 Z M104.133333,61.5789474 L104.133333,75.7894737 L99.4,75.7894737 L99.4,61.5789474 L104.133333,61.5789474 Z M115.966667,85.2631579 L82.8333333,85.2631579 C81.5263508,85.2631579 80.4666667,84.2026882 80.4666667,82.8947368 C80.4666667,81.5867855 81.5263508,80.5263158 82.8333333,80.5263158 L115.966667,80.5263158 C117.273649,80.5263158 118.333333,81.5867855 118.333333,82.8947368 C118.333333,84.2026882 117.273649,85.2631579 115.966667,85.2631579 Z" id="Shape"></path>
            </g>
            <g id="seats" transform="translate(138.000000, 0.000000)">
                <path d="M122.631006,85.2631579 C122.911816,84.504523 123.058577,83.7030994 123.066667,82.8947368 C123.066667,78.9708831 119.887614,75.7894737 115.966667,75.7894737 L108.866667,75.7894737 L108.866667,61.5789474 L118.333333,61.5789474 C119.640316,61.5789474 120.7,60.5184777 120.7,59.2105263 L120.7,49.7368421 C120.7,45.8129884 117.520947,42.6315789 113.6,42.6315789 L97.0333333,42.6315789 C96.8403482,42.6315789 96.6473631,42.6547081 96.4601562,42.7021227 L88.7315104,44.6357164 L82.8333333,21.0243627 L82.8333333,7.10526316 C82.8333333,3.18140941 79.6542805,0 75.7333333,0 C71.8123861,0 68.6333333,3.18140941 68.6333333,7.10526316 L68.6333333,21.3157895 C68.6333333,21.510074 68.6576008,21.7032022 68.7038248,21.8917042 L71.5211752,33.1578947 L75.0711752,47.3684211 L78.1704915,59.7864411 C78.4351235,60.8399722 79.3815592,61.5789474 80.4666667,61.5789474 L94.6666667,61.5789474 L94.6666667,75.7894737 L82.8333333,75.7894737 C78.9123861,75.7894737 75.7333333,78.9708831 75.7333333,82.8947368 C75.7414226,83.7030994 75.8881837,84.504523 76.1689941,85.2631579 L53.9976726,85.2631579 C54.2784829,84.504523 54.4252441,83.7030994 54.4333333,82.8947368 C54.4333333,78.9708831 51.2542805,75.7894737 47.3333333,75.7894737 L37.8666667,75.7894737 L37.8666667,61.5789474 L47.3333333,61.5789474 C48.6403158,61.5789474 49.7,60.5184777 49.7,59.2105263 L49.7,49.7368421 C49.7,45.8129884 46.5209472,42.6315789 42.6,42.6315789 L28.4,42.6315789 C28.2070149,42.6315789 28.0140298,42.6547081 27.8268229,42.7021227 L20.0981771,44.6357164 L14.2,21.0243627 L14.2,7.10526316 C14.2,3.18140941 11.0209472,0 7.1,0 C3.17905281,0 0,3.18140941 0,7.10526316 L0,21.3157895 C0,21.510074 0.0242675633,21.7032022 0.0704914625,21.8917042 L9.53715813,59.7864411 C9.80179022,60.8399722 10.7482258,61.5789474 11.8333333,61.5789474 L23.6666667,61.5789474 L23.6666667,75.7894737 L14.2,75.7894737 C10.2790528,75.7894737 7.1,78.9708831 7.1,82.8947368 C7.10808927,83.7030994 7.25485041,84.504523 7.53566073,85.2631579 L2.36666667,85.2631579 C1.05968417,85.2631579 0,86.3236276 0,87.6315789 C0,88.9395303 1.05968417,90 2.36666667,90 L139.633333,90 C140.940316,90 142,88.9395303 142,87.6315789 C142,86.3236276 140.940316,85.2631579 139.633333,85.2631579 L122.631006,85.2631579 Z M13.6811361,56.8421053 L4.73333333,21.0243627 L4.73333333,7.10526316 C4.73333333,5.79731181 5.7930175,4.73684211 7.1,4.73684211 C8.4069825,4.73684211 9.46666667,5.79731181 9.46666667,7.10526316 L9.46666667,21.3157895 C9.46666667,21.510074 9.49093417,21.7032022 9.53715813,21.8917042 L16.0928712,48.0784849 C16.4095052,49.3471166 17.6933757,50.119629 18.9622232,49.80276 L28.6912109,47.3684211 L42.6,47.3684211 C43.9069825,47.3684211 44.9666667,48.4288908 44.9666667,49.7368421 L44.9666667,56.8421053 L40.2333333,56.8421053 L40.2333333,54.4736842 C40.2333333,53.1657329 39.1736492,52.1052632 37.8666667,52.1052632 C36.5596842,52.1052632 35.5,53.1657329 35.5,54.4736842 L35.5,56.8421053 L13.6811361,56.8421053 Z M33.1333333,61.5789474 L33.1333333,75.7894737 L28.4,75.7894737 L28.4,61.5789474 L33.1333333,61.5789474 Z M47.3333333,85.2631579 L14.2,85.2631579 C12.8930175,85.2631579 11.8333333,84.2026882 11.8333333,82.8947368 C11.8333333,81.5867855 12.8930175,80.5263158 14.2,80.5263158 L47.3333333,80.5263158 C48.6403158,80.5263158 49.7,81.5867855 49.7,82.8947368 C49.7,84.2026882 48.6403158,85.2631579 47.3333333,85.2631579 Z M82.3144695,56.8421053 L73.3666667,21.0243627 L73.3666667,7.10526316 C73.3666667,5.79731181 74.4263508,4.73684211 75.7333333,4.73684211 C77.0403158,4.73684211 78.1,5.79731181 78.1,7.10526316 L78.1,21.3157895 C78.1,21.510074 78.1242675,21.7032022 78.1704915,21.8917042 L84.7262046,48.0784849 C85.0428385,49.3471166 86.3267091,50.119629 87.5955566,49.80276 L97.3245443,47.3684211 L113.6,47.3684211 C114.906982,47.3684211 115.966667,48.4288908 115.966667,49.7368421 L115.966667,56.8421053 L111.233333,56.8421053 L111.233333,54.4736842 C111.233333,53.1657329 110.173649,52.1052632 108.866667,52.1052632 C107.559684,52.1052632 106.5,53.1657329 106.5,54.4736842 L106.5,56.8421053 L82.3144695,56.8421053 Z M104.133333,61.5789474 L104.133333,75.7894737 L99.4,75.7894737 L99.4,61.5789474 L104.133333,61.5789474 Z M115.966667,85.2631579 L82.8333333,85.2631579 C81.5263508,85.2631579 80.4666667,84.2026882 80.4666667,82.8947368 C80.4666667,81.5867855 81.5263508,80.5263158 82.8333333,80.5263158 L115.966667,80.5263158 C117.273649,80.5263158 118.333333,81.5867855 118.333333,82.8947368 C118.333333,84.2026882 117.273649,85.2631579 115.966667,85.2631579 Z" id="Shape"></path>
            </g>
            <g id="seats" transform="translate(276.000000, 0.000000)">
                <path d="M122.631006,85.2631579 C122.911816,84.504523 123.058577,83.7030994 123.066667,82.8947368 C123.066667,78.9708831 119.887614,75.7894737 115.966667,75.7894737 L108.866667,75.7894737 L108.866667,61.5789474 L118.333333,61.5789474 C119.640316,61.5789474 120.7,60.5184777 120.7,59.2105263 L120.7,49.7368421 C120.7,45.8129884 117.520947,42.6315789 113.6,42.6315789 L97.0333333,42.6315789 C96.8403482,42.6315789 96.6473631,42.6547081 96.4601562,42.7021227 L88.7315104,44.6357164 L82.8333333,21.0243627 L82.8333333,7.10526316 C82.8333333,3.18140941 79.6542805,0 75.7333333,0 C71.8123861,0 68.6333333,3.18140941 68.6333333,7.10526316 L68.6333333,21.3157895 C68.6333333,21.510074 68.6576008,21.7032022 68.7038248,21.8917042 L71.5211752,33.1578947 L75.0711752,47.3684211 L78.1704915,59.7864411 C78.4351235,60.8399722 79.3815592,61.5789474 80.4666667,61.5789474 L94.6666667,61.5789474 L94.6666667,75.7894737 L82.8333333,75.7894737 C78.9123861,75.7894737 75.7333333,78.9708831 75.7333333,82.8947368 C75.7414226,83.7030994 75.8881837,84.504523 76.1689941,85.2631579 L53.9976726,85.2631579 C54.2784829,84.504523 54.4252441,83.7030994 54.4333333,82.8947368 C54.4333333,78.9708831 51.2542805,75.7894737 47.3333333,75.7894737 L37.8666667,75.7894737 L37.8666667,61.5789474 L47.3333333,61.5789474 C48.6403158,61.5789474 49.7,60.5184777 49.7,59.2105263 L49.7,49.7368421 C49.7,45.8129884 46.5209472,42.6315789 42.6,42.6315789 L28.4,42.6315789 C28.2070149,42.6315789 28.0140298,42.6547081 27.8268229,42.7021227 L20.0981771,44.6357164 L14.2,21.0243627 L14.2,7.10526316 C14.2,3.18140941 11.0209472,0 7.1,0 C3.17905281,0 0,3.18140941 0,7.10526316 L0,21.3157895 C0,21.510074 0.0242675633,21.7032022 0.0704914625,21.8917042 L9.53715813,59.7864411 C9.80179022,60.8399722 10.7482258,61.5789474 11.8333333,61.5789474 L23.6666667,61.5789474 L23.6666667,75.7894737 L14.2,75.7894737 C10.2790528,75.7894737 7.1,78.9708831 7.1,82.8947368 C7.10808927,83.7030994 7.25485041,84.504523 7.53566073,85.2631579 L2.36666667,85.2631579 C1.05968417,85.2631579 0,86.3236276 0,87.6315789 C0,88.9395303 1.05968417,90 2.36666667,90 L139.633333,90 C140.940316,90 142,88.9395303 142,87.6315789 C142,86.3236276 140.940316,85.2631579 139.633333,85.2631579 L122.631006,85.2631579 Z M13.6811361,56.8421053 L4.73333333,21.0243627 L4.73333333,7.10526316 C4.73333333,5.79731181 5.7930175,4.73684211 7.1,4.73684211 C8.4069825,4.73684211 9.46666667,5.79731181 9.46666667,7.10526316 L9.46666667,21.3157895 C9.46666667,21.510074 9.49093417,21.7032022 9.53715813,21.8917042 L16.0928712,48.0784849 C16.4095052,49.3471166 17.6933757,50.119629 18.9622232,49.80276 L28.6912109,47.3684211 L42.6,47.3684211 C43.9069825,47.3684211 44.9666667,48.4288908 44.9666667,49.7368421 L44.9666667,56.8421053 L40.2333333,56.8421053 L40.2333333,54.4736842 C40.2333333,53.1657329 39.1736492,52.1052632 37.8666667,52.1052632 C36.5596842,52.1052632 35.5,53.1657329 35.5,54.4736842 L35.5,56.8421053 L13.6811361,56.8421053 Z M33.1333333,61.5789474 L33.1333333,75.7894737 L28.4,75.7894737 L28.4,61.5789474 L33.1333333,61.5789474 Z M47.3333333,85.2631579 L14.2,85.2631579 C12.8930175,85.2631579 11.8333333,84.2026882 11.8333333,82.8947368 C11.8333333,81.5867855 12.8930175,80.5263158 14.2,80.5263158 L47.3333333,80.5263158 C48.6403158,80.5263158 49.7,81.5867855 49.7,82.8947368 C49.7,84.2026882 48.6403158,85.2631579 47.3333333,85.2631579 Z M82.3144695,56.8421053 L73.3666667,21.0243627 L73.3666667,7.10526316 C73.3666667,5.79731181 74.4263508,4.73684211 75.7333333,4.73684211 C77.0403158,4.73684211 78.1,5.79731181 78.1,7.10526316 L78.1,21.3157895 C78.1,21.510074 78.1242675,21.7032022 78.1704915,21.8917042 L84.7262046,48.0784849 C85.0428385,49.3471166 86.3267091,50.119629 87.5955566,49.80276 L97.3245443,47.3684211 L113.6,47.3684211 C114.906982,47.3684211 115.966667,48.4288908 115.966667,49.7368421 L115.966667,56.8421053 L111.233333,56.8421053 L111.233333,54.4736842 C111.233333,53.1657329 110.173649,52.1052632 108.866667,52.1052632 C107.559684,52.1052632 106.5,53.1657329 106.5,54.4736842 L106.5,56.8421053 L82.3144695,56.8421053 Z M104.133333,61.5789474 L104.133333,75.7894737 L99.4,75.7894737 L99.4,61.5789474 L104.133333,61.5789474 Z M115.966667,85.2631579 L82.8333333,85.2631579 C81.5263508,85.2631579 80.4666667,84.2026882 80.4666667,82.8947368 C80.4666667,81.5867855 81.5263508,80.5263158 82.8333333,80.5263158 L115.966667,80.5263158 C117.273649,80.5263158 118.333333,81.5867855 118.333333,82.8947368 C118.333333,84.2026882 117.273649,85.2631579 115.966667,85.2631579 Z" id="Shape"></path>
            </g>
        </g>
        <g id="seats" transform="translate(627.000000, 515.000000)" fill="#000000" fill-rule="nonzero">
            <path d="M122.631006,0.263157895 L76.1689941,0.263157895 L53.9976726,0.263157895 L7.53566073,0.263157895 L2.36666667,0.263157895 C1.05968417,0.263157895 0,1.3236276 0,2.63157895 C0,3.9395303 1.05968417,5 2.36666667,5 L139.633333,5 C140.940316,5 142,3.9395303 142,2.63157895 C142,1.3236276 140.940316,0.263157895 139.633333,0.263157895 L122.631006,0.263157895 Z" id="Shape"></path>
        </g>
        <g id="seats" transform="translate(763.000000, 515.000000)" fill="#000000" fill-rule="nonzero">
            <path d="M122.631006,0.263157895 L76.1689941,0.263157895 L53.9976726,0.263157895 L7.53566073,0.263157895 L2.36666667,0.263157895 C1.05968417,0.263157895 0,1.3236276 0,2.63157895 C0,3.9395303 1.05968417,5 2.36666667,5 L139.633333,5 C140.940316,5 142,3.9395303 142,2.63157895 C142,1.3236276 140.940316,0.263157895 139.633333,0.263157895 L122.631006,0.263157895 Z" id="Shape"></path>
        </g>
        <g id="seats" transform="translate(903.500000, 449.000000) rotate(90.000000) translate(-903.500000, -449.000000) translate(832.500000, 446.500000)" fill="#000000" fill-rule="nonzero">
            <path d="M122.631006,0.263157895 L76.1689941,0.263157895 L53.9976726,0.263157895 L7.53566073,0.263157895 L2.36666667,0.263157895 C1.05968417,0.263157895 0,1.3236276 0,2.63157895 C0,3.9395303 1.05968417,5 2.36666667,5 L139.633333,5 C140.940316,5 142,3.9395303 142,2.63157895 C142,1.3236276 140.940316,0.263157895 139.633333,0.263157895 L122.631006,0.263157895 Z" id="Shape"></path>
        </g>
        <g id="seats" transform="translate(903.500000, 309.000000) rotate(90.000000) translate(-903.500000, -309.000000) translate(832.500000, 306.500000)" fill="#000000" fill-rule="nonzero">
            <path d="M122.631006,0.263157895 L76.1689941,0.263157895 L53.9976726,0.263157895 L7.53566073,0.263157895 L2.36666667,0.263157895 C1.05968417,0.263157895 0,1.3236276 0,2.63157895 C0,3.9395303 1.05968417,5 2.36666667,5 L139.633333,5 C140.940316,5 142,3.9395303 142,2.63157895 C142,1.3236276 140.940316,0.263157895 139.633333,0.263157895 L122.631006,0.263157895 Z" id="Shape"></path>
        </g>
        <g id="seats" transform="translate(86.000000, 515.000000)" fill="#000000" fill-rule="nonzero">
            <path d="M122.631006,0.263157895 L76.1689941,0.263157895 L53.9976726,0.263157895 L7.53566073,0.263157895 L2.36666667,0.263157895 C1.05968417,0.263157895 0,1.3236276 0,2.63157895 C0,3.9395303 1.05968417,5 2.36666667,5 L139.633333,5 C140.940316,5 142,3.9395303 142,2.63157895 C142,1.3236276 140.940316,0.263157895 139.633333,0.263157895 L122.631006,0.263157895 Z" id="Shape"></path>
        </g>
    </g>
</svg>