<?xml version="1.0" encoding="UTF-8"?>
<svg width="182px" height="127px" viewBox="0 0 182 127" version="1.1" xmlns="http://www.w3.org/2000/svg" xmlns:xlink="http://www.w3.org/1999/xlink">
    <!-- Generator: Sketch 52.6 (67491) - http://www.bohemiancoding.com/sketch -->
    <title>bus</title>
    <desc>Created with Sketch.</desc>
    <g id="bus" stroke="none" stroke-width="1" fill="none" fill-rule="evenodd">
        <path d="M25.5387665,19.4954054 C27.5737591,18.4471849 31.8211338,14.7512514 38.9401996,14 C59.4395553,11.8367709 156.750468,13.0667086 161,15.2299377 C163.73994,16.6247072 167.330365,43.5132384 166.641207,93.8237509 C166.625599,94.9631861 165.745197,96.3552692 164,98 L146.727357,98 C148.120435,108.716475 143.877983,114.074712 134,114.074712 C124.122017,114.074712 119.558533,108.716475 120.309547,98 L62.228216,98 C61.3325891,107.85034 56.642097,112.775509 48.1567399,112.775509 C39.6713827,112.775509 36.0580785,107.85034 37.3168271,98 L16,98 C14.4644223,49.7301759 17.6440111,23.5619778 25.5387665,19.4954054 Z" id="Rectangle" fill="#FFFFFF"></path>
        <g transform="translate(11.000000, 10.000000)" fill="#000000">
            <path d="M38.6415669,80.8916081 C34.188017,80.8916081 30.5649294,84.516674 30.5649294,88.9726557 C30.5649294,93.4286374 34.1884088,97.0537033 38.6415669,97.0537033 C43.0947251,97.0537033 46.7182044,93.4286374 46.7182044,88.9726557 C46.7182044,84.516674 43.0947251,80.8916081 38.6415669,80.8916081 Z M38.6415669,91.1745824 C37.4279951,91.1745824 36.4408418,90.1864982 36.4408418,88.9726557 C36.4408418,87.7588132 37.4283869,86.7707289 38.6415669,86.7707289 C39.854747,86.7707289 40.842292,87.7584212 40.842292,88.9726557 C40.842292,90.1868901 39.854747,91.1745824 38.6415669,91.1745824 Z" id="Shape" fill-rule="nonzero"></path>
            <path d="M122.170404,80.8916081 C117.716854,80.8916081 114.093766,84.516674 114.093766,88.9726557 C114.093766,93.4286374 117.717246,97.0537033 122.170404,97.0537033 C126.623562,97.0537033 130.247041,93.4286374 130.247041,88.9726557 C130.247433,84.516674 126.623954,80.8916081 122.170404,80.8916081 Z M122.170404,91.1745824 C120.956832,91.1745824 119.969679,90.1864982 119.969679,88.9726557 C119.969679,87.7588132 120.957224,86.7707289 122.170404,86.7707289 C123.383584,86.7707289 124.371129,87.7584212 124.371129,88.9726557 C124.371129,90.1868901 123.383976,91.1745824 122.170404,91.1745824 Z" id="Shape" fill-rule="nonzero"></path>
            <path d="M157.082725,74.7926081 L157.082725,47.2101245 L157.082725,17.1701685 C157.082725,7.81413553 149.474985,0.202241758 140.124058,0.202241758 L30.0740949,0.202241758 C15.5476642,0.202241758 3.72924574,12.0271136 3.72924574,26.5614762 L3.72924574,74.7922161 C1.46662774,76.4928498 0,79.199989 0,82.2434139 L0,82.604 C0,87.7368645 4.17346472,91.9126081 9.30352798,91.9126081 L21.2641436,91.9126081 C22.6677032,100.242538 29.9232798,106.609234 38.6415669,106.609234 C47.359854,106.609234 54.6154307,100.242538 56.0189903,91.9126081 L104.793372,91.9126081 C106.196932,100.242538 113.452509,106.609234 122.170796,106.609234 C130.889083,106.609234 138.144659,100.242538 139.548219,91.9126081 L151.508835,91.9126081 C156.638898,91.9126081 160.812363,87.7368645 160.812363,82.604 L160.812363,82.2434139 C160.811971,79.199989 159.345343,76.4928498 157.082725,74.7926081 Z M151.206813,44.2705641 L143.143886,44.2705641 C142.731397,44.2705641 142.395686,43.9350623 142.395686,43.521956 L142.395686,20.858337 C142.395686,20.4456227 142.731005,20.1097289 143.143886,20.1097289 L151.206813,20.1097289 L151.206813,44.2705641 Z M5.87591241,82.604 L5.87591241,82.2434139 C5.87591241,80.350337 7.41344282,78.8100073 9.30352798,78.8100073 L24.2483236,78.8100073 C22.7530998,80.9237473 21.7111046,83.3780842 21.2637518,86.0334872 L9.30352798,86.0334872 C7.41344282,86.0334872 5.87591241,84.4951172 5.87591241,82.604 Z M38.6415669,100.730114 C32.1620024,100.730114 26.8905255,95.4553663 26.8905255,88.9722637 C26.8905255,82.4891612 32.1620024,77.2148059 38.6415669,77.2148059 C45.1211314,77.2148059 50.3926083,82.4891612 50.3926083,88.9722637 C50.3926083,95.4553663 45.1211314,100.730114 38.6415669,100.730114 Z M104.792981,86.0334872 L56.0189903,86.0334872 C54.6158224,77.7031648 47.359854,71.335685 38.6415669,71.335685 C36.033837,71.335685 33.5592944,71.9094872 31.3299732,72.9308864 L9.60515815,72.9308864 L9.60515815,26.5618681 C9.60515815,15.2688608 18.7876423,6.08175458 30.0740949,6.08175458 L140.124058,6.08175458 C145.217691,6.08175458 149.517292,9.5390696 150.808426,14.231 L143.143494,14.231 C139.491027,14.231 136.519382,17.2038755 136.519382,20.8587289 L136.519382,43.522348 C136.519382,47.1768095 139.490635,50.1500769 143.143494,50.1500769 L151.206813,50.1500769 L151.206813,72.9316703 L129.481998,72.9316703 C127.253068,71.910663 124.778134,71.3364689 122.170404,71.3364689 C113.452117,71.3360769 106.196148,77.7035568 104.792981,86.0334872 Z M122.170404,100.730114 C115.690839,100.730114 110.419363,95.4553663 110.419363,88.9722637 C110.419363,82.4891612 115.690839,77.2148059 122.170404,77.2148059 C128.649968,77.2148059 133.921445,82.4891612 133.921445,88.9722637 C133.921445,95.4553663 128.649968,100.730114 122.170404,100.730114 Z M154.936058,82.604 C154.936058,84.4951172 153.398528,86.0334872 151.508443,86.0334872 L139.548219,86.0334872 C139.100866,83.3780842 138.058871,80.9237473 136.563647,78.8100073 L151.508443,78.8100073 C153.398528,78.8100073 154.936058,80.350337 154.936058,82.2434139 L154.936058,82.604 Z" id="Shape" fill-rule="nonzero"></path>
            <path d="M127.850844,43.521956 L127.850844,20.858337 C127.850844,17.2038755 124.879591,14.2306081 121.226732,14.2306081 L30.7670608,14.2306081 C22.9513139,14.2306081 16.5927932,20.5926007 16.5927932,28.4126154 L16.5927932,43.521956 C16.5927932,47.1764176 19.5640462,50.149685 23.2169051,50.149685 L121.227124,50.149685 C124.879591,50.149685 127.850844,47.1764176 127.850844,43.521956 Z M75.1599708,20.1097289 L98.2566156,20.1097289 L98.2566156,44.2705641 L75.1599708,44.2705641 L75.1599708,20.1097289 Z M69.2840584,44.2705641 L46.1878054,44.2705641 L46.1878054,20.1097289 L69.2840584,20.1097289 L69.2840584,44.2705641 Z M22.4687056,43.521956 L22.4687056,28.4126154 C22.4687056,23.834348 26.191292,20.1097289 30.7670608,20.1097289 L40.3118929,20.1097289 L40.3118929,44.2705641 L23.2169051,44.2705641 C22.8040243,44.2705641 22.4687056,43.9346703 22.4687056,43.521956 Z M121.974932,43.521956 C121.974932,43.9346703 121.639613,44.2705641 121.226732,44.2705641 L104.132136,44.2705641 L104.132136,20.1097289 L121.226732,20.1097289 C121.639221,20.1097289 121.974932,20.4452308 121.974932,20.858337 L121.974932,43.521956 Z" id="Shape" fill-rule="nonzero"></path>
            <path d="M144.757803,68.359674 C146.380338,68.359674 147.695759,67.0435348 147.695759,65.4201136 L147.695759,62.8070403 C147.695759,61.183619 146.380338,59.8674799 144.757803,59.8674799 C143.135268,59.8674799 141.819847,61.183619 141.819847,62.8070403 L141.819847,65.4201136 C141.819847,67.0435348 143.135268,68.359674 144.757803,68.359674 Z" id="Path"></path>
        </g>
    </g>
</svg>