<?xml version="1.0" encoding="UTF-8"?>
<svg width="1264px" height="557px" viewBox="0 0 1264 557" version="1.1" xmlns="http://www.w3.org/2000/svg" xmlns:xlink="http://www.w3.org/1999/xlink">
    <!-- Generator: Sketch 52.6 (67491) - http://www.bohemiancoding.com/sketch -->
    <title>castle_bg</title>
    <desc>Created with Sketch.</desc>
    <g id="castle_bg" stroke="none" stroke-width="1" fill="none" fill-rule="evenodd">
        <rect fill="#FFFFFF" x="0" y="0" width="1264" height="557"></rect>
        <g id="garden" transform="translate(31.000000, 350.000000)" fill="#000000" fill-rule="nonzero">
            <path d="M961.638076,169.604362 L172.418851,169.605238 L172.418851,146.902838 C182.853643,145.496649 192.101937,138.967167 197.479677,129.06818 C204.624475,127.431864 211.115213,123.287379 215.916766,117.256287 C221.129131,110.708832 224,102.34096 224,93.6938667 C224,80.5397823 217.277388,68.3649448 206.699971,62.0410428 C205.597911,40.1052952 188.720506,22.6147331 168.165484,22.6147331 C161.695309,22.6147331 155.293384,24.3790435 149.65227,27.7169872 C147.897024,28.7554099 147.314275,31.0224939 148.35071,32.7806676 C149.387583,34.5397179 151.650766,35.1231457 153.405138,34.0847231 C157.910504,31.4187515 163.014369,30.0099332 168.165484,30.0099332 C185.343013,30.0099332 199.343861,45.3749944 199.376236,64.2612247 C199.378861,65.6529478 200.160672,66.9254429 201.400107,67.5540196 C210.645339,72.2420443 216.618514,82.5022214 216.618514,93.6934284 C216.618514,107.817555 207.071846,120.046308 194.411495,122.138495 C193.225873,122.33487 192.21,123.096263 191.688063,124.18115 C187.728696,132.407877 180.57471,137.969071 172.418851,139.416902 L172.418851,106.697163 L190.582065,89.9627338 C192.08225,88.5802159 192.18025,86.2412444 190.800377,84.7381834 C189.420068,83.2351225 187.08601,83.1364965 185.585825,84.5194528 L172.418851,96.6504564 L172.418851,71.966768 C172.418851,69.9245514 170.766416,68.2689488 168.728108,68.2689488 C166.689799,68.2689488 165.037365,69.9245514 165.037365,71.966768 L165.037365,116.721076 L151.870391,104.590072 C150.370206,103.207116 148.035273,103.305742 146.655839,104.808803 C145.275966,106.311864 145.373966,108.650835 146.874151,110.033353 L165.037803,126.767782 L165.037803,139.590045 C156.33507,138.466585 148.660022,132.69718 144.541843,123.967241 C144.049656,122.923558 143.098971,122.170055 141.97241,121.930723 C129.725934,119.323927 120.837701,107.448913 120.837701,93.6934284 C120.837701,82.8471934 126.296816,73.0306143 135.084424,68.0760801 C136.260421,67.4128748 136.98142,66.1596665 136.964795,64.8082705 C136.96392,64.7056994 136.96042,64.604005 136.95692,64.5027489 C136.954733,64.4440116 136.952545,64.3857127 136.952545,64.3274137 C136.952545,56.6245004 139.221416,49.3463365 143.51372,43.2806156 C144.69278,41.6144929 144.300343,39.3062051 142.637846,38.1257609 C140.974912,36.9440017 138.671042,37.3380675 137.492856,39.0033135 C132.602929,45.9132735 129.888684,54.0992353 129.598184,62.7664922 C119.589079,69.3060565 113.457091,80.9540117 113.457091,93.6938667 C113.457091,110.264796 123.95707,124.699265 138.673667,128.735482 C144.212843,139.187651 154.010199,145.951644 165.038678,147.034339 L165.038678,169.605238 L162.70112,169.605238 C162.157308,159.928051 155.555009,151.509331 146.360964,148.66671 C143.476095,142.517266 137.872606,138.058492 131.283431,136.612853 C129.12306,126.774357 120.28339,119.437895 109.982473,119.437895 C102.039238,119.437895 94.8366898,123.715197 90.9971973,130.523462 C83.4358995,130.81145 76.6376003,134.858625 72.7324829,141.128611 C70.2986752,134.420287 64.0643124,129.535887 56.7650766,129.010758 L56.7650766,119.28886 C66.7282447,117.901082 75.5504149,111.657396 80.7050299,102.212089 C87.552329,100.627059 93.7709419,96.6469497 98.3747454,90.8643951 C103.387611,84.5685466 106.14823,76.5219763 106.14823,68.2075815 C106.14823,55.5887077 99.7130552,43.9056855 89.5810125,37.8114726 C88.4815772,16.7664278 72.2717963,0 52.5344599,0 C44.9635372,0 37.6813639,2.44636427 31.4745635,7.07565169 C29.8400667,8.29466961 29.5010049,10.6117242 30.71769,12.2497932 C31.9343751,13.8874239 34.2465581,14.2271358 35.8819299,13.0081179 C40.8046703,9.33572232 46.5630341,7.39520008 52.5344599,7.39520008 C68.8929904,7.39520008 82.2270894,22.034812 82.2581518,40.0294628 C82.2607768,41.4211858 83.0425878,42.693681 84.2820229,43.3222577 C93.0810057,47.7841 98.7658696,57.5524619 98.7658696,68.2075815 C98.7658696,81.6535991 89.6825123,93.2945408 77.6368484,95.2850336 C76.4516632,95.481409 75.4353527,96.2428021 74.9134162,97.3276886 C71.174986,105.095038 64.4466866,110.367367 56.7642016,111.796349 L56.7642016,80.7269526 L74.1031678,64.7526015 C75.6033523,63.3700836 75.7009146,61.0311121 74.3214798,59.5280512 C72.942045,58.0245519 70.6071121,57.9263642 69.1069275,59.3093205 L56.7642016,70.6806844 L56.7642016,47.4075676 C56.7642016,45.365351 55.1117674,43.7097484 53.0734588,43.7097484 C51.0351503,43.7097484 49.382716,45.365351 49.382716,47.4075676 L49.382716,89.8961065 L37.0404277,78.5247426 C35.5398056,77.1417862 33.2053101,77.2404123 31.8258753,78.7434732 C30.446003,80.2465342 30.5440028,82.585944 32.0441874,83.9680236 L49.3822786,99.9423747 L49.3822786,111.969492 C41.1765446,110.844717 33.9508087,105.373821 30.0592538,97.1251764 C29.5670673,96.0814937 28.6163816,95.3279907 27.4898213,95.0886582 C15.8379066,92.6072269 7.38061058,81.3029287 7.38061058,68.2075815 C7.38061058,57.8799003 12.5759129,48.5345346 20.9395841,43.8188946 C22.1147068,43.1561276 22.8357054,41.905111 22.8199554,40.5541533 C22.8190804,40.4542123 22.8160179,40.3542712 22.8125179,40.2547685 C22.8112054,40.2008529 22.8085805,40.1473757 22.8085805,40.0925834 C22.8085805,35.5189649 23.6498913,31.0961347 25.3088881,26.9472657 C25.8023871,25.7146593 26.3706985,24.5039698 26.9993848,23.3476342 C27.9741329,21.5539552 27.3135092,19.3087881 25.5232626,18.332171 C23.7330161,17.3546773 21.491708,18.017006 20.5173974,19.810685 C19.7513364,21.22038 19.0583378,22.6958256 18.4580889,24.1966949 C16.6398425,28.7426981 15.632282,33.5503891 15.4559698,38.5106216 C5.86992604,44.8082234 0,55.9858419 0,68.2075815 C0,84.1179352 10.0703553,97.9821272 24.1919528,101.889472 C29.5023174,111.863853 38.8512366,118.335475 49.382716,119.418608 L49.382716,129.995265 C45.3437239,131.409343 41.8870432,134.205063 39.663235,137.960304 C30.7006275,138.470968 23.4587042,145.103022 22.0552069,153.849618 C15.4450323,156.790866 10.5306044,162.624268 8.72110797,169.604362 L3.69074279,169.604362 C1.65243427,169.604362 0,171.259964 0,173.302181 C0,175.344397 1.65243427,177 3.69074279,177 L11.775727,177 L95.0904393,177 L158.897502,177 L970.828225,177 C972.866534,177 961,175.344397 961,173.302181 C961,171.259964 963.675947,169.604362 961.638076,169.604362 Z M16.4617803,169.605238 C18.2222769,165.110082 21.9257072,161.529299 26.643698,159.998185 C28.1281326,159.516451 29.1496931,158.151905 29.1956305,156.589669 C29.3815676,150.27278 34.4692452,145.324382 40.7784204,145.324382 C41.0312949,145.324382 41.3077943,145.336218 41.6477312,145.361203 C43.2288531,145.475609 44.7080377,144.570879 45.321849,143.105954 C47.0420956,139.00574 51.0211503,136.355987 55.4591417,136.355987 C61.1580056,136.355987 65.9687462,140.810378 66.4114953,146.496937 C66.553245,148.312094 67.9921797,149.754226 69.8043012,149.896248 C70.8105492,149.97471 71.7835473,150.196071 72.7049205,150.533591 C72.708858,150.534906 72.712358,150.537098 72.7162955,150.538413 C72.8873576,150.601533 73.0557948,150.669476 73.2229195,150.740487 C73.2587944,150.755828 73.2951068,150.77117 73.3309818,150.78695 C73.487169,150.854893 73.6416062,150.926342 73.7934184,151.001298 C73.8450433,151.02716 73.8957932,151.053898 73.9469806,151.080199 C74.1574177,151.18803 74.3634798,151.302874 74.5656044,151.423417 C74.6758541,151.489606 74.7869789,151.553604 74.8946037,151.623738 C74.9764161,151.676338 75.0551659,151.732884 75.1347908,151.786799 C75.255978,151.869645 75.3762903,151.953806 75.494415,152.041474 C75.5613524,152.091444 75.6274148,152.141415 75.6926022,152.1927 C75.8352269,152.304038 75.9761016,152.418883 76.1130388,152.537672 C76.1511013,152.570109 76.1891637,152.601231 76.2267886,152.634107 C76.5903504,152.956723 76.9329122,153.304325 77.2518491,153.673406 C77.2811616,153.707596 77.3100365,153.741787 77.3389114,153.776415 C77.4732237,153.935532 77.6027234,154.099032 77.7282857,154.266039 C77.7523481,154.298038 77.7772856,154.329598 77.8009105,154.362035 C78.0874725,154.753032 78.3486595,155.16507 78.583159,155.59508 C78.6142215,155.652064 78.6435339,155.710363 78.6741588,155.768223 C78.7572837,155.92734 78.836471,156.089525 78.9121584,156.253902 C78.9423458,156.318776 78.9725333,156.38365 79.0014082,156.448962 C79.0945955,156.661994 79.1829703,156.878095 79.2630327,157.097702 C79.2660952,157.105592 79.2687202,157.112606 79.2717827,157.120496 C79.7044693,158.318035 80.7220923,159.2083 81.9645899,159.476563 C82.2944643,159.547573 82.6177761,159.634364 82.935838,159.732114 C83.0395253,159.764112 83.1401501,159.803124 83.2429624,159.837753 C83.454712,159.908764 83.6655866,159.98109 83.8716487,160.063497 C83.9906485,160.111276 84.1065857,160.165192 84.223398,160.216477 C84.4075851,160.297131 84.5908973,160.3791 84.7702719,160.468521 C84.8910217,160.528574 85.0082715,160.593448 85.1263962,160.657445 C85.2961459,160.749058 85.4641456,160.843739 85.6282078,160.943241 C85.74502,161.013814 85.8600823,161.087016 85.9742696,161.161534 C86.1335193,161.26542 86.2905815,161.373689 86.4445812,161.485027 C86.5543934,161.564366 86.6628932,161.643706 86.769643,161.726551 C86.9223302,161.844903 87.0702049,161.968076 87.2167672,162.093002 C87.3160795,162.177601 87.4167043,162.261762 87.5133916,162.34943 C87.6634538,162.486191 87.8069535,162.628651 87.9500157,162.771987 C88.0344531,162.856587 88.1219529,162.939433 88.2037652,163.0271 C88.3647649,163.19849 88.5170146,163.377332 88.6679518,163.557051 C88.7239517,163.624117 88.7834516,163.687237 88.838139,163.75518 C89.0393886,164.006786 89.2314507,164.265405 89.4125754,164.532353 C89.4506378,164.588022 89.4834502,164.647636 89.5202002,164.703743 C89.6597624,164.916775 89.7958246,165.131999 89.9222619,165.35336 C89.9791368,165.453739 90.0303242,165.558064 90.0845741,165.660196 C90.1825739,165.843422 90.2788237,166.027085 90.367636,166.215132 C90.4227609,166.332169 90.4717608,166.451835 90.5229482,166.570186 C90.600823,166.750343 90.6760729,166.9305 90.7451978,167.114602 C90.7924477,167.240843 90.8357601,167.3684 90.8790725,167.496394 C90.9407599,167.678743 90.9985098,167.862406 91.0518847,168.048262 C91.0895096,168.179763 91.1245095,168.312141 91.158197,168.444958 C91.2050094,168.633443 91.2461343,168.823243 91.2841967,169.014359 C91.3108842,169.147613 91.3366966,169.280868 91.3590091,169.415876 C91.369509,169.478559 91.374759,169.542118 91.3839465,169.605238 L16.4617803,169.605238 Z M98.825807,169.605677 L98.825807,169.605238 C98.8227445,169.570171 98.815307,169.535543 98.812682,169.500914 C98.7702446,169.059507 98.7155572,168.620731 98.6433698,168.187215 C98.6389948,168.161791 98.6333074,168.136368 98.6289324,168.110944 C98.5536825,167.668661 98.4639952,167.230761 98.3589954,166.797683 C98.3546204,166.778835 98.3511204,166.759986 98.3463079,166.742015 C98.2408706,166.312882 98.1188084,165.889886 97.9858086,165.471711 C97.9713711,165.427001 97.9582462,165.380975 97.9433712,165.336265 C97.8121215,164.93387 97.6659967,164.537613 97.5089346,164.145739 C97.4861846,164.089193 97.4643096,164.032209 97.4411222,163.976102 C97.2836225,163.592556 97.1134353,163.215586 96.9323107,162.844313 C96.9038732,162.785576 96.8754358,162.727277 96.8461233,162.668978 C96.6614987,162.299897 96.4663741,161.936954 96.2598745,161.581023 C96.2283746,161.527108 96.1968746,161.474069 96.1649372,161.420153 C95.9523126,161.061154 95.7296255,160.708731 95.4946885,160.364635 C95.466251,160.322555 95.4365011,160.281789 95.4076262,160.240586 C95.1626266,159.887285 94.9084396,159.54056 94.6415652,159.204355 C94.6249402,159.183314 94.6070027,159.163151 94.5903778,159.141672 C94.3112533,158.792755 94.0216289,158.452605 93.719317,158.123413 C93.715817,158.119906 93.7127545,158.115961 93.709692,158.112455 C93.4104426,157.787208 93.0985057,157.47292 92.7778188,157.167836 C92.7498188,157.141098 92.7226939,157.113482 92.694694,157.087182 C92.3862571,156.797441 92.0668827,156.518658 91.7396333,156.248642 C91.6958834,156.212698 91.652571,156.175878 91.6083836,156.139495 C91.2863842,155.878684 90.9556349,155.628393 90.616573,155.387746 C90.5640731,155.350487 90.5115732,155.313228 90.4590733,155.276408 C90.120449,155.040582 89.7735122,154.815276 89.4191379,154.600929 C89.3635755,154.567615 89.3075756,154.534302 89.2520132,154.501426 C88.8928264,154.288833 88.5270771,154.086759 88.1538903,153.896958 C88.1027029,153.870658 88.0506405,153.84655 87.9990156,153.821126 C87.6140164,153.630449 87.2228921,153.449415 86.8234554,153.283724 C86.788018,153.26882 86.7521431,153.256108 86.7167056,153.241643 C86.2980189,153.07113 85.8732073,152.912013 85.4400831,152.77043 C85.4387706,152.769991 85.4370206,152.769115 85.4352706,152.768238 C85.4164582,152.730103 85.3950207,152.694597 85.3762082,152.6569 C85.227021,152.357515 85.0708338,152.063391 84.9063342,151.774088 C84.8223343,151.626368 84.732647,151.482154 84.6451472,151.336626 C84.5388349,151.161729 84.4316476,150.987271 84.3200853,150.815881 C84.212898,150.650627 84.1026482,150.488442 83.9897735,150.327134 C83.8917736,150.187304 83.7911488,150.049666 83.689649,149.912466 C83.5618993,149.739323 83.433712,149.567056 83.2998373,149.398734 C83.2210875,149.300108 83.1384001,149.205427 83.0579003,149.108993 C82.7468384,148.734214 82.4217765,148.372585 82.0818397,148.023668 C82.0232148,147.963615 81.9672149,147.901371 81.9081525,147.842196 C81.7392779,147.673874 81.5647157,147.512566 81.389716,147.350819 C81.2886537,147.257453 81.1880289,147.164525 81.0847791,147.073351 C80.9176545,146.926069 80.7479048,146.781418 80.5746551,146.639396 C80.4486554,146.535949 80.3204681,146.436446 80.1918434,146.336067 C80.0312812,146.212017 79.8720315,146.086652 79.7070943,145.967424 C79.4752198,145.799103 79.2380952,145.638671 78.9983457,145.481307 C78.9344708,145.439227 78.8736584,145.392763 78.8089086,145.351559 C81.4986533,140.798981 86.4222687,137.904635 91.8621331,137.904635 C92.1950699,137.904635 92.5564442,137.919977 92.9991934,137.952414 C94.5781278,138.070327 96.0590624,137.161653 96.6728737,135.697165 C98.9308068,130.313498 104.155422,126.834848 109.982473,126.834848 C117.465021,126.834848 123.781196,132.68403 124.362195,140.150679 C124.503507,141.965837 125.942879,143.407969 127.755,143.549552 C133.384302,143.989205 138.264167,147.712886 140.187414,153.036501 C140.6201,154.23404 141.637723,155.124305 142.880221,155.392568 C149.689458,156.862753 154.740823,162.729469 155.308259,169.606992 L98.825807,169.606992 L98.825807,169.605677 Z" id="Shape"></path>
        </g>
        <g id="garden" transform="translate(989.000000, 350.000000)" fill="#000000" fill-rule="nonzero">
            <path d="M220.20382,169.605238 L172.418851,169.605238 L172.418851,146.902838 C182.853643,145.496649 192.101937,138.967167 197.479677,129.06818 C204.624475,127.431864 211.115213,123.287379 215.916766,117.256287 C221.129131,110.708832 224,102.34096 224,93.6938667 C224,80.5397823 217.277388,68.3649448 206.699971,62.0410428 C205.597911,40.1052952 188.720506,22.6147331 168.165484,22.6147331 C161.695309,22.6147331 155.293384,24.3790435 149.65227,27.7169872 C147.897024,28.7554099 147.314275,31.0224939 148.35071,32.7806676 C149.387583,34.5397179 151.650766,35.1231457 153.405138,34.0847231 C157.910504,31.4187515 163.014369,30.0099332 168.165484,30.0099332 C185.343013,30.0099332 199.343861,45.3749944 199.376236,64.2612247 C199.378861,65.6529478 200.160672,66.9254429 201.400107,67.5540196 C210.645339,72.2420443 216.618514,82.5022214 216.618514,93.6934284 C216.618514,107.817555 207.071846,120.046308 194.411495,122.138495 C193.225873,122.33487 192.21,123.096263 191.688063,124.18115 C187.728696,132.407877 180.57471,137.969071 172.418851,139.416902 L172.418851,106.697163 L190.582065,89.9627338 C192.08225,88.5802159 192.18025,86.2412444 190.800377,84.7381834 C189.420068,83.2351225 187.08601,83.1364965 185.585825,84.5194528 L172.418851,96.6504564 L172.418851,71.966768 C172.418851,69.9245514 170.766416,68.2689488 168.728108,68.2689488 C166.689799,68.2689488 165.037365,69.9245514 165.037365,71.966768 L165.037365,116.721076 L151.870391,104.590072 C150.370206,103.207116 148.035273,103.305742 146.655839,104.808803 C145.275966,106.311864 145.373966,108.650835 146.874151,110.033353 L165.037803,126.767782 L165.037803,139.590045 C156.33507,138.466585 148.660022,132.69718 144.541843,123.967241 C144.049656,122.923558 143.098971,122.170055 141.97241,121.930723 C129.725934,119.323927 120.837701,107.448913 120.837701,93.6934284 C120.837701,82.8471934 126.296816,73.0306143 135.084424,68.0760801 C136.260421,67.4128748 136.98142,66.1596665 136.964795,64.8082705 C136.96392,64.7056994 136.96042,64.604005 136.95692,64.5027489 C136.954733,64.4440116 136.952545,64.3857127 136.952545,64.3274137 C136.952545,56.6245004 139.221416,49.3463365 143.51372,43.2806156 C144.69278,41.6144929 144.300343,39.3062051 142.637846,38.1257609 C140.974912,36.9440017 138.671042,37.3380675 137.492856,39.0033135 C132.602929,45.9132735 129.888684,54.0992353 129.598184,62.7664922 C119.589079,69.3060565 113.457091,80.9540117 113.457091,93.6938667 C113.457091,110.264796 123.95707,124.699265 138.673667,128.735482 C144.212843,139.187651 154.010199,145.951644 165.038678,147.034339 L165.038678,169.605238 L162.70112,169.605238 C162.157308,159.928051 155.555009,151.509331 146.360964,148.66671 C143.476095,142.517266 137.872606,138.058492 131.283431,136.612853 C129.12306,126.774357 120.28339,119.437895 109.982473,119.437895 C102.039238,119.437895 94.8366898,123.715197 90.9971973,130.523462 C83.4358995,130.81145 76.6376003,134.858625 72.7324829,141.128611 C70.2986752,134.420287 64.0643124,129.535887 56.7650766,129.010758 L56.7650766,119.28886 C66.7282447,117.901082 75.5504149,111.657396 80.7050299,102.212089 C87.552329,100.627059 93.7709419,96.6469497 98.3747454,90.8643951 C103.387611,84.5685466 106.14823,76.5219763 106.14823,68.2075815 C106.14823,55.5887077 99.7130552,43.9056855 89.5810125,37.8114726 C88.4815772,16.7664278 72.2717963,0 52.5344599,0 C44.9635372,0 37.6813639,2.44636427 31.4745635,7.07565169 C29.8400667,8.29466961 29.5010049,10.6117242 30.71769,12.2497932 C31.9343751,13.8874239 34.2465581,14.2271358 35.8819299,13.0081179 C40.8046703,9.33572232 46.5630341,7.39520008 52.5344599,7.39520008 C68.8929904,7.39520008 82.2270894,22.034812 82.2581518,40.0294628 C82.2607768,41.4211858 83.0425878,42.693681 84.2820229,43.3222577 C93.0810057,47.7841 98.7658696,57.5524619 98.7658696,68.2075815 C98.7658696,81.6535991 89.6825123,93.2945408 77.6368484,95.2850336 C76.4516632,95.481409 75.4353527,96.2428021 74.9134162,97.3276886 C71.174986,105.095038 64.4466866,110.367367 56.7642016,111.796349 L56.7642016,80.7269526 L74.1031678,64.7526015 C75.6033523,63.3700836 75.7009146,61.0311121 74.3214798,59.5280512 C72.942045,58.0245519 70.6071121,57.9263642 69.1069275,59.3093205 L56.7642016,70.6806844 L56.7642016,47.4075676 C56.7642016,45.365351 55.1117674,43.7097484 53.0734588,43.7097484 C51.0351503,43.7097484 49.382716,45.365351 49.382716,47.4075676 L49.382716,89.8961065 L37.0404277,78.5247426 C35.5398056,77.1417862 33.2053101,77.2404123 31.8258753,78.7434732 C30.446003,80.2465342 30.5440028,82.585944 32.0441874,83.9680236 L49.3822786,99.9423747 L49.3822786,111.969492 C41.1765446,110.844717 33.9508087,105.373821 30.0592538,97.1251764 C29.5670673,96.0814937 28.6163816,95.3279907 27.4898213,95.0886582 C15.8379066,92.6072269 7.38061058,81.3029287 7.38061058,68.2075815 C7.38061058,57.8799003 12.5759129,48.5345346 20.9395841,43.8188946 C22.1147068,43.1561276 22.8357054,41.905111 22.8199554,40.5541533 C22.8190804,40.4542123 22.8160179,40.3542712 22.8125179,40.2547685 C22.8112054,40.2008529 22.8085805,40.1473757 22.8085805,40.0925834 C22.8085805,35.5189649 23.6498913,31.0961347 25.3088881,26.9472657 C25.8023871,25.7146593 26.3706985,24.5039698 26.9993848,23.3476342 C27.9741329,21.5539552 27.3135092,19.3087881 25.5232626,18.332171 C23.7330161,17.3546773 21.491708,18.017006 20.5173974,19.810685 C19.7513364,21.22038 19.0583378,22.6958256 18.4580889,24.1966949 C16.6398425,28.7426981 15.632282,33.5503891 15.4559698,38.5106216 C5.86992604,44.8082234 0,55.9858419 0,68.2075815 C0,84.1179352 10.0703553,97.9821272 24.1919528,101.889472 C29.5023174,111.863853 38.8512366,118.335475 49.382716,119.418608 L49.382716,129.995265 C45.3437239,131.409343 41.8870432,134.205063 39.663235,137.960304 C30.7006275,138.470968 23.4587042,145.103022 22.0552069,153.849618 C15.4450323,156.790866 10.5306044,162.624268 8.72110797,169.604362 L3.69074279,169.604362 C1.65243427,169.604362 0,171.259964 0,173.302181 C0,175.344397 1.65243427,177 3.69074279,177 L11.775727,177 L95.0904393,177 L158.897502,177 L220.20382,177 C222.242128,177 223.894563,175.344397 223.894563,173.302181 C223.894563,171.259964 222.241691,169.605238 220.20382,169.605238 Z M16.4617803,169.605238 C18.2222769,165.110082 21.9257072,161.529299 26.643698,159.998185 C28.1281326,159.516451 29.1496931,158.151905 29.1956305,156.589669 C29.3815676,150.27278 34.4692452,145.324382 40.7784204,145.324382 C41.0312949,145.324382 41.3077943,145.336218 41.6477312,145.361203 C43.2288531,145.475609 44.7080377,144.570879 45.321849,143.105954 C47.0420956,139.00574 51.0211503,136.355987 55.4591417,136.355987 C61.1580056,136.355987 65.9687462,140.810378 66.4114953,146.496937 C66.553245,148.312094 67.9921797,149.754226 69.8043012,149.896248 C70.8105492,149.97471 71.7835473,150.196071 72.7049205,150.533591 C72.708858,150.534906 72.712358,150.537098 72.7162955,150.538413 C72.8873576,150.601533 73.0557948,150.669476 73.2229195,150.740487 C73.2587944,150.755828 73.2951068,150.77117 73.3309818,150.78695 C73.487169,150.854893 73.6416062,150.926342 73.7934184,151.001298 C73.8450433,151.02716 73.8957932,151.053898 73.9469806,151.080199 C74.1574177,151.18803 74.3634798,151.302874 74.5656044,151.423417 C74.6758541,151.489606 74.7869789,151.553604 74.8946037,151.623738 C74.9764161,151.676338 75.0551659,151.732884 75.1347908,151.786799 C75.255978,151.869645 75.3762903,151.953806 75.494415,152.041474 C75.5613524,152.091444 75.6274148,152.141415 75.6926022,152.1927 C75.8352269,152.304038 75.9761016,152.418883 76.1130388,152.537672 C76.1511013,152.570109 76.1891637,152.601231 76.2267886,152.634107 C76.5903504,152.956723 76.9329122,153.304325 77.2518491,153.673406 C77.2811616,153.707596 77.3100365,153.741787 77.3389114,153.776415 C77.4732237,153.935532 77.6027234,154.099032 77.7282857,154.266039 C77.7523481,154.298038 77.7772856,154.329598 77.8009105,154.362035 C78.0874725,154.753032 78.3486595,155.16507 78.583159,155.59508 C78.6142215,155.652064 78.6435339,155.710363 78.6741588,155.768223 C78.7572837,155.92734 78.836471,156.089525 78.9121584,156.253902 C78.9423458,156.318776 78.9725333,156.38365 79.0014082,156.448962 C79.0945955,156.661994 79.1829703,156.878095 79.2630327,157.097702 C79.2660952,157.105592 79.2687202,157.112606 79.2717827,157.120496 C79.7044693,158.318035 80.7220923,159.2083 81.9645899,159.476563 C82.2944643,159.547573 82.6177761,159.634364 82.935838,159.732114 C83.0395253,159.764112 83.1401501,159.803124 83.2429624,159.837753 C83.454712,159.908764 83.6655866,159.98109 83.8716487,160.063497 C83.9906485,160.111276 84.1065857,160.165192 84.223398,160.216477 C84.4075851,160.297131 84.5908973,160.3791 84.7702719,160.468521 C84.8910217,160.528574 85.0082715,160.593448 85.1263962,160.657445 C85.2961459,160.749058 85.4641456,160.843739 85.6282078,160.943241 C85.74502,161.013814 85.8600823,161.087016 85.9742696,161.161534 C86.1335193,161.26542 86.2905815,161.373689 86.4445812,161.485027 C86.5543934,161.564366 86.6628932,161.643706 86.769643,161.726551 C86.9223302,161.844903 87.0702049,161.968076 87.2167672,162.093002 C87.3160795,162.177601 87.4167043,162.261762 87.5133916,162.34943 C87.6634538,162.486191 87.8069535,162.628651 87.9500157,162.771987 C88.0344531,162.856587 88.1219529,162.939433 88.2037652,163.0271 C88.3647649,163.19849 88.5170146,163.377332 88.6679518,163.557051 C88.7239517,163.624117 88.7834516,163.687237 88.838139,163.75518 C89.0393886,164.006786 89.2314507,164.265405 89.4125754,164.532353 C89.4506378,164.588022 89.4834502,164.647636 89.5202002,164.703743 C89.6597624,164.916775 89.7958246,165.131999 89.9222619,165.35336 C89.9791368,165.453739 90.0303242,165.558064 90.0845741,165.660196 C90.1825739,165.843422 90.2788237,166.027085 90.367636,166.215132 C90.4227609,166.332169 90.4717608,166.451835 90.5229482,166.570186 C90.600823,166.750343 90.6760729,166.9305 90.7451978,167.114602 C90.7924477,167.240843 90.8357601,167.3684 90.8790725,167.496394 C90.9407599,167.678743 90.9985098,167.862406 91.0518847,168.048262 C91.0895096,168.179763 91.1245095,168.312141 91.158197,168.444958 C91.2050094,168.633443 91.2461343,168.823243 91.2841967,169.014359 C91.3108842,169.147613 91.3366966,169.280868 91.3590091,169.415876 C91.369509,169.478559 91.374759,169.542118 91.3839465,169.605238 L16.4617803,169.605238 Z M98.825807,169.605677 L98.825807,169.605238 C98.8227445,169.570171 98.815307,169.535543 98.812682,169.500914 C98.7702446,169.059507 98.7155572,168.620731 98.6433698,168.187215 C98.6389948,168.161791 98.6333074,168.136368 98.6289324,168.110944 C98.5536825,167.668661 98.4639952,167.230761 98.3589954,166.797683 C98.3546204,166.778835 98.3511204,166.759986 98.3463079,166.742015 C98.2408706,166.312882 98.1188084,165.889886 97.9858086,165.471711 C97.9713711,165.427001 97.9582462,165.380975 97.9433712,165.336265 C97.8121215,164.93387 97.6659967,164.537613 97.5089346,164.145739 C97.4861846,164.089193 97.4643096,164.032209 97.4411222,163.976102 C97.2836225,163.592556 97.1134353,163.215586 96.9323107,162.844313 C96.9038732,162.785576 96.8754358,162.727277 96.8461233,162.668978 C96.6614987,162.299897 96.4663741,161.936954 96.2598745,161.581023 C96.2283746,161.527108 96.1968746,161.474069 96.1649372,161.420153 C95.9523126,161.061154 95.7296255,160.708731 95.4946885,160.364635 C95.466251,160.322555 95.4365011,160.281789 95.4076262,160.240586 C95.1626266,159.887285 94.9084396,159.54056 94.6415652,159.204355 C94.6249402,159.183314 94.6070027,159.163151 94.5903778,159.141672 C94.3112533,158.792755 94.0216289,158.452605 93.719317,158.123413 C93.715817,158.119906 93.7127545,158.115961 93.709692,158.112455 C93.4104426,157.787208 93.0985057,157.47292 92.7778188,157.167836 C92.7498188,157.141098 92.7226939,157.113482 92.694694,157.087182 C92.3862571,156.797441 92.0668827,156.518658 91.7396333,156.248642 C91.6958834,156.212698 91.652571,156.175878 91.6083836,156.139495 C91.2863842,155.878684 90.9556349,155.628393 90.616573,155.387746 C90.5640731,155.350487 90.5115732,155.313228 90.4590733,155.276408 C90.120449,155.040582 89.7735122,154.815276 89.4191379,154.600929 C89.3635755,154.567615 89.3075756,154.534302 89.2520132,154.501426 C88.8928264,154.288833 88.5270771,154.086759 88.1538903,153.896958 C88.1027029,153.870658 88.0506405,153.84655 87.9990156,153.821126 C87.6140164,153.630449 87.2228921,153.449415 86.8234554,153.283724 C86.788018,153.26882 86.7521431,153.256108 86.7167056,153.241643 C86.2980189,153.07113 85.8732073,152.912013 85.4400831,152.77043 C85.4387706,152.769991 85.4370206,152.769115 85.4352706,152.768238 C85.4164582,152.730103 85.3950207,152.694597 85.3762082,152.6569 C85.227021,152.357515 85.0708338,152.063391 84.9063342,151.774088 C84.8223343,151.626368 84.732647,151.482154 84.6451472,151.336626 C84.5388349,151.161729 84.4316476,150.987271 84.3200853,150.815881 C84.212898,150.650627 84.1026482,150.488442 83.9897735,150.327134 C83.8917736,150.187304 83.7911488,150.049666 83.689649,149.912466 C83.5618993,149.739323 83.433712,149.567056 83.2998373,149.398734 C83.2210875,149.300108 83.1384001,149.205427 83.0579003,149.108993 C82.7468384,148.734214 82.4217765,148.372585 82.0818397,148.023668 C82.0232148,147.963615 81.9672149,147.901371 81.9081525,147.842196 C81.7392779,147.673874 81.5647157,147.512566 81.389716,147.350819 C81.2886537,147.257453 81.1880289,147.164525 81.0847791,147.073351 C80.9176545,146.926069 80.7479048,146.781418 80.5746551,146.639396 C80.4486554,146.535949 80.3204681,146.436446 80.1918434,146.336067 C80.0312812,146.212017 79.8720315,146.086652 79.7070943,145.967424 C79.4752198,145.799103 79.2380952,145.638671 78.9983457,145.481307 C78.9344708,145.439227 78.8736584,145.392763 78.8089086,145.351559 C81.4986533,140.798981 86.4222687,137.904635 91.8621331,137.904635 C92.1950699,137.904635 92.5564442,137.919977 92.9991934,137.952414 C94.5781278,138.070327 96.0590624,137.161653 96.6728737,135.697165 C98.9308068,130.313498 104.155422,126.834848 109.982473,126.834848 C117.465021,126.834848 123.781196,132.68403 124.362195,140.150679 C124.503507,141.965837 125.942879,143.407969 127.755,143.549552 C133.384302,143.989205 138.264167,147.712886 140.187414,153.036501 C140.6201,154.23404 141.637723,155.124305 142.880221,155.392568 C149.689458,156.862753 154.740823,162.729469 155.308259,169.606992 L98.825807,169.606992 L98.825807,169.605677 Z" id="Shape"></path>
        </g>
    </g>
</svg>