<?xml version="1.0" encoding="UTF-8"?>
<svg width="230px" height="224px" viewBox="0 0 230 224" version="1.1" xmlns="http://www.w3.org/2000/svg" xmlns:xlink="http://www.w3.org/1999/xlink">
    <!-- Generator: Sketch 52.6 (67491) - http://www.bohemiancoding.com/sketch -->
    <title>castle</title>
    <desc>Created with Sketch.</desc>
    <g id="castle" stroke="none" stroke-width="1" fill="none" fill-rule="evenodd">
        <rect fill="#FFFFFF" x="0" y="0" width="230" height="224"></rect>
        <g id="Group-2">
            <g id="Group">
                <rect id="Rectangle" fill="#FFFFFF" x="5.68441065" y="89.6875" width="223.878327" height="134.3125"></rect>
                <g id="university" fill="#000000">
                    <path d="M87.7729848,138.133187 C87.7729848,140.193812 89.4446388,141.866375 91.5041445,141.866375 L106.429658,141.866375 C108.489163,141.866375 110.160817,140.193812 110.160817,138.133187 L110.160817,115.733187 C110.160817,113.672562 108.489163,112 106.429658,112 L91.5045817,112 C89.445076,112 87.7734221,113.672562 87.7734221,115.733187 L87.7734221,138.133187 L87.7729848,138.133187 Z M95.2357414,119.466812 L102.698498,119.466812 L102.698498,134.4 L95.2357414,134.4 L95.2357414,119.466812 Z" id="Shape" fill-rule="nonzero"></path>
                    <path d="M91.5045817,97.0668125 L106.429658,97.0668125 C108.489163,97.0668125 110.160817,95.39425 110.160817,93.333625 L110.160817,70.933625 C110.160817,68.873 108.489163,67.2004375 106.429658,67.2004375 L91.5045817,67.2004375 C89.445076,67.2004375 87.7734221,68.873 87.7734221,70.933625 L87.7734221,93.333625 C87.7729848,95.39425 89.4446388,97.0668125 91.5045817,97.0668125 Z M95.2357414,74.6668125 L102.698498,74.6668125 L102.698498,89.6 L95.2357414,89.6 L95.2357414,74.6668125 Z" id="Shape" fill-rule="nonzero"></path>
                    <path d="M63.5550577,70.3994375 L117.404944,37.953125 L171.25483,70.3994375 C171.853428,70.7616875 172.515197,70.9331875 173.165639,70.9331875 C174.429492,70.9331875 175.660234,70.2874375 176.355549,69.122375 C177.415077,67.3526875 176.842619,65.060625 175.08429,64.000125 L121.12244,31.486875 L121.12244,7.4668125 L139.71079,7.4668125 L139.71079,14.933625 L128.557867,14.933625 C126.505903,14.933625 124.840371,16.6061875 124.840371,18.6668125 C124.840371,20.7274375 126.505903,22.4 128.557867,22.4 L143.428286,22.4 C145.48025,22.4 147.145782,20.7274375 147.145782,18.6668125 L147.145782,3.7331875 C147.145782,1.6725625 145.48025,0 143.428286,0 L117.404944,0 C115.35298,0 113.687448,1.6725625 113.687448,3.7331875 L113.687448,31.486875 L59.7260326,64.0005625 C57.9677045,65.060625 57.3952459,67.353125 58.4547736,69.1228125 C59.5064594,70.8885625 61.796294,71.4634375 63.5550577,70.3994375 Z" id="Path"></path>
                    <path d="M46.7289163,141.866812 C48.7884221,141.866812 50.460076,140.19425 50.460076,138.133625 L50.460076,115.733625 C50.460076,113.673 48.7884221,112.000438 46.7289163,112.000438 L31.803403,112.000438 C29.7438973,112.000438 28.0722433,113.673 28.0722433,115.733625 L28.0722433,123.2 C28.0722433,125.260625 29.7438973,126.933187 31.803403,126.933187 C33.8629087,126.933187 35.5345627,125.260625 35.5345627,123.2 L35.5345627,119.466813 L42.9973194,119.466813 L42.9973194,138.133625 C42.9973194,140.19425 44.6689734,141.866812 46.7289163,141.866812 Z" id="Path"></path>
                    <path d="M72.8479087,190.4 L72.8479087,82.1331875 C72.8479087,80.0725625 71.1762548,78.4 69.116749,78.4 C67.0572433,78.4 65.3855894,80.0725625 65.3855894,82.1331875 L65.3855894,190.4 C65.3855894,192.460625 67.0572433,194.133188 69.116749,194.133188 C71.1762548,194.133188 72.8479087,192.460625 72.8479087,190.4 Z" id="Path"></path>
                    <path d="M54.1912357,209.066813 L181.055475,209.066813 C183.114981,209.066813 184.786635,207.39425 184.786635,205.333625 C184.786635,203.273 183.114981,201.600438 181.055475,201.600438 L147.473726,201.600438 L147.473726,164.26725 L151.204886,164.26725 C153.264392,164.26725 154.936046,162.594688 154.936046,160.534063 C154.936046,158.473438 153.264392,156.800875 151.204886,156.800875 L84.0418251,156.800875 C81.9823194,156.800875 80.3106654,158.473438 80.3106654,160.534063 C80.3106654,162.594688 81.9823194,164.26725 84.0418251,164.26725 L87.7729848,164.26725 L87.7729848,201.6 L54.1912357,201.6 C52.13173,201.6 50.460076,203.272563 50.460076,205.333188 C50.460076,207.393813 52.13173,209.066813 54.1912357,209.066813 Z M121.354734,186.666813 C123.41424,186.666813 125.085894,184.99425 125.085894,182.933625 C125.085894,180.873 123.41424,179.200438 121.354734,179.200438 L121.354734,164.26725 L140.011407,164.26725 L140.011407,201.6 L121.354734,201.6 L121.354734,186.666813 Z M95.2357414,164.266813 L113.892414,164.266813 L113.892414,179.2 C111.832909,179.2 110.161255,180.872563 110.161255,182.933188 C110.161255,184.993813 111.832909,186.666375 113.892414,186.666375 L113.892414,201.6 L95.2357414,201.6 L95.2357414,164.266813 Z" id="Shape" fill-rule="nonzero"></path>
                    <path d="M203.443745,160.533187 L188.518669,160.533187 C186.459163,160.533187 184.78751,162.20575 184.78751,164.266375 L184.78751,186.666375 C184.78751,188.727 186.459163,190.399563 188.518669,190.399563 L203.443745,190.399563 C205.503251,190.399563 207.174905,188.727 207.174905,186.666375 L207.174905,164.266375 C207.174905,162.20575 205.503251,160.533187 203.443745,160.533187 Z M199.712148,182.933188 L192.249392,182.933188 L192.249392,168 L199.712148,168 L199.712148,182.933188 Z" id="Shape" fill-rule="nonzero"></path>
                    <path d="M203.443745,115.733188 L188.518669,115.733188 C186.459163,115.733188 184.78751,117.40575 184.78751,119.466375 L184.78751,141.866375 C184.78751,143.927 186.459163,145.599562 188.518669,145.599562 L203.443745,145.599562 C205.503251,145.599562 207.174905,143.927 207.174905,141.866375 L207.174905,119.466375 C207.174905,117.40575 205.503251,115.733188 203.443745,115.733188 Z M199.712148,138.133188 L192.249392,138.133188 L192.249392,123.2 L199.712148,123.2 L199.712148,138.133188 Z" id="Shape" fill-rule="nonzero"></path>
                    <path d="M224.494266,216.533187 L5.33463174,216.533187 C2.45449258,216.533187 0.116749049,218.20575 0.116749049,220.266375 C0.116749049,222.327 2.45449258,224 5.33463174,224 L224.494266,224 C227.374405,224 229.712148,222.327437 229.712148,220.266812 C229.712148,218.206187 227.374405,216.533187 224.494266,216.533187 Z" id="Path"></path>
                    <path d="M225.831578,82.1331875 C223.772072,82.1331875 222.100418,83.80575 222.100418,85.866375 L222.100418,89.5995625 L181.055913,89.5995625 C178.996407,89.5995625 177.324753,91.272125 177.324753,93.33275 C177.324753,95.393375 178.996407,97.0659375 181.055913,97.0659375 L222.100418,97.0659375 L222.100418,220.265938 C222.100418,222.326563 223.772072,223.999125 225.831578,223.999125 C227.891084,223.999125 229.562738,222.326563 229.562738,220.265938 L229.562738,85.8659375 C229.562738,83.80575 227.891084,82.1331875 225.831578,82.1331875 Z" id="Path"></path>
                    <path d="M125.086331,138.133187 C125.086331,140.193812 126.757985,141.866375 128.81749,141.866375 L143.742567,141.866375 C145.802072,141.866375 147.473726,140.193812 147.473726,138.133187 L147.473726,115.733187 C147.473726,113.672562 145.802072,112 143.742567,112 L128.81749,112 C126.757985,112 125.086331,113.672562 125.086331,115.733187 L125.086331,138.133187 Z M132.54865,119.466812 L140.011407,119.466812 L140.011407,134.4 L132.54865,134.4 L132.54865,119.466812 Z" id="Shape" fill-rule="nonzero"></path>
                    <path d="M42.9973194,182.933187 C42.9973194,182.448 42.7848099,134.4 24.3406464,134.4 C5.89692015,134.4 5.68441065,182.448 5.68441065,182.933187 C5.68441065,191.949187 12.1060456,199.486875 20.6094867,201.222875 L20.6094867,220.266812 C20.6094867,222.327437 22.2811407,224 24.3406464,224 C26.4001521,224 28.0718061,222.327437 28.0718061,220.266812 L28.0718061,201.222875 C36.5756844,199.486875 42.9973194,191.949187 42.9973194,182.933187 Z M24.3410837,194.133187 C18.1695627,194.133187 13.1471673,189.108062 13.1471673,182.933187 C13.1471673,164.33375 18.1398289,141.866375 24.3410837,141.866375 C30.5423384,141.866375 35.535,164.33375 35.535,182.933187 C35.535,189.108062 30.5126046,194.133187 24.3410837,194.133187 Z" id="Shape" fill-rule="nonzero"></path>
                    <path d="M169.861996,190.4 L169.861996,78.4 C169.861996,76.339375 168.190342,74.6668125 166.130837,74.6668125 C164.071331,74.6668125 162.399677,76.339375 162.399677,78.4 L162.399677,190.4 C162.399677,192.460625 164.071331,194.133188 166.130837,194.133188 C168.190342,194.133188 169.861996,192.460625 169.861996,190.4 Z" id="Path"></path>
                    <path d="M128.81749,97.0668125 L143.742567,97.0668125 C145.802072,97.0668125 147.473726,95.39425 147.473726,93.333625 L147.473726,70.933625 C147.473726,68.873 145.802072,67.2004375 143.742567,67.2004375 L128.81749,67.2004375 C126.757985,67.2004375 125.086331,68.873 125.086331,70.933625 L125.086331,93.333625 C125.086331,95.39425 126.757985,97.0668125 128.81749,97.0668125 Z M132.54865,74.6668125 L140.011407,74.6668125 L140.011407,89.6 L132.54865,89.6 L132.54865,74.6668125 Z" id="Shape" fill-rule="nonzero"></path>
                </g>
            </g>
        </g>
        <path d="M48.5068251,82 C46.4473194,82 44.7756654,83.6725625 44.7756654,85.7331875 L44.7756654,89.466375 L3.7311597,89.466375 C1.67165399,89.466375 0,91.1389375 0,93.1995625 C0,95.2601875 1.67165399,96.93275 3.7311597,96.93275 L44.7756654,96.93275 L44.7756654,220.13275 C44.7756654,222.193375 46.4473194,223.865938 48.5068251,223.865938 C50.5663308,223.865938 52.2379848,222.193375 52.2379848,220.13275 L52.2379848,85.73275 C52.2379848,83.6725625 50.5663308,82 48.5068251,82 Z" id="Path" fill="#000000" transform="translate(26.118992, 152.932969) scale(-1, 1) translate(-26.118992, -152.932969) "></path>
    </g>
</svg>