<?xml version="1.0" encoding="UTF-8"?>
<svg width="230px" height="224px" viewBox="0 0 230 224" version="1.1" xmlns="http://www.w3.org/2000/svg" xmlns:xlink="http://www.w3.org/1999/xlink">
    <!-- Generator: Sketch 52.6 (67491) - http://www.bohemiancoding.com/sketch -->
    <title>castle</title>
    <desc>Created with Sketch.</desc>
    <g id="castle" stroke="none" stroke-width="1" fill="none" fill-rule="evenodd">
        <rect fill="#FFFFFF" x="0" y="0" width="230" height="224"></rect>
        <g id="Group-2" transform="translate(-8.000000, 0.000000)">
            <g id="Group">
                <rect id="Rectangle" fill="#FFFFFF" x="13.6844106" y="89.6875" width="223.878327" height="134.3125"></rect>
                <g id="university" fill="#000000">
                    <path d="M95.7729848,138.133187 C95.7729848,140.193812 97.4446388,141.866375 99.5041445,141.866375 L114.429658,141.866375 C116.489163,141.866375 118.160817,140.193812 118.160817,138.133187 L118.160817,115.733187 C118.160817,113.672563 116.489163,112 114.429658,112 L99.5045817,112 C97.445076,112 95.7734221,113.672562 95.7734221,115.733187 L95.7734221,138.133187 L95.7729848,138.133187 Z M103.235741,119.466812 L110.698498,119.466812 L110.698498,134.4 L103.235741,134.4 L103.235741,119.466812 Z" id="Shape" fill-rule="nonzero"></path>
                    <path d="M99.5045817,97.0668125 L114.429658,97.0668125 C116.489163,97.0668125 118.160817,95.39425 118.160817,93.333625 L118.160817,70.933625 C118.160817,68.873 116.489163,67.2004375 114.429658,67.2004375 L99.5045817,67.2004375 C97.445076,67.2004375 95.7734221,68.873 95.7734221,70.933625 L95.7734221,93.333625 C95.7729848,95.39425 97.4446388,97.0668125 99.5045817,97.0668125 Z M103.235741,74.6668125 L110.698498,74.6668125 L110.698498,89.6 L103.235741,89.6 L103.235741,74.6668125 Z" id="Shape" fill-rule="nonzero"></path>
                    <path d="M71.5550577,70.3994375 L125.404944,37.953125 L179.25483,70.3994375 C179.853428,70.7616875 180.515197,70.9331875 181.165639,70.9331875 C182.429492,70.9331875 183.660234,70.2874375 184.355549,69.122375 C185.415077,67.3526875 184.842619,65.060625 183.08429,64.000125 L129.12244,31.486875 L129.12244,7.4668125 L147.71079,7.4668125 L147.71079,14.933625 L136.557867,14.933625 C134.505903,14.933625 132.840371,16.6061875 132.840371,18.6668125 C132.840371,20.7274375 134.505903,22.4 136.557867,22.4 L151.428286,22.4 C153.48025,22.4 155.145782,20.7274375 155.145782,18.6668125 L155.145782,3.7331875 C155.145782,1.6725625 153.48025,0 151.428286,0 L125.404944,0 C123.35298,0 121.687448,1.6725625 121.687448,3.7331875 L121.687448,31.486875 L67.7260326,64.0005625 C65.9677045,65.060625 65.3952459,67.353125 66.4547736,69.1228125 C67.5064594,70.8885625 69.796294,71.4634375 71.5550577,70.3994375 Z" id="Path"></path>
                    <path d="M54.7289163,141.866812 C56.7884221,141.866812 58.460076,140.19425 58.460076,138.133625 L58.460076,115.733625 C58.460076,113.673 56.7884221,112.000437 54.7289163,112.000437 L39.803403,112.000437 C37.7438973,112.000437 36.0722433,113.673 36.0722433,115.733625 L36.0722433,123.2 C36.0722433,125.260625 37.7438973,126.933187 39.803403,126.933187 C41.8629087,126.933187 43.5345627,125.260625 43.5345627,123.2 L43.5345627,119.466812 L50.9973194,119.466812 L50.9973194,138.133625 C50.9973194,140.19425 52.6689734,141.866812 54.7289163,141.866812 Z" id="Path"></path>
                    <path d="M80.8479087,190.4 L80.8479087,82.1331875 C80.8479087,80.0725625 79.1762548,78.4 77.116749,78.4 C75.0572433,78.4 73.3855894,80.0725625 73.3855894,82.1331875 L73.3855894,190.4 C73.3855894,192.460625 75.0572433,194.133188 77.116749,194.133188 C79.1762548,194.133188 80.8479087,192.460625 80.8479087,190.4 Z" id="Path"></path>
                    <path d="M62.1912357,209.066813 L189.055475,209.066813 C191.114981,209.066813 192.786635,207.39425 192.786635,205.333625 C192.786635,203.273 191.114981,201.600438 189.055475,201.600438 L155.473726,201.600438 L155.473726,164.26725 L159.204886,164.26725 C161.264392,164.26725 162.936046,162.594687 162.936046,160.534062 C162.936046,158.473437 161.264392,156.800875 159.204886,156.800875 L92.0418251,156.800875 C89.9823194,156.800875 88.3106654,158.473437 88.3106654,160.534062 C88.3106654,162.594687 89.9823194,164.26725 92.0418251,164.26725 L95.7729848,164.26725 L95.7729848,201.6 L62.1912357,201.6 C60.13173,201.6 58.460076,203.272563 58.460076,205.333188 C58.460076,207.393813 60.13173,209.066813 62.1912357,209.066813 Z M129.354734,186.666812 C131.41424,186.666812 133.085894,184.99425 133.085894,182.933625 C133.085894,180.873 131.41424,179.200437 129.354734,179.200437 L129.354734,164.26725 L148.011407,164.26725 L148.011407,201.6 L129.354734,201.6 L129.354734,186.666812 Z M103.235741,164.266812 L121.892414,164.266812 L121.892414,179.2 C119.832909,179.2 118.161255,180.872562 118.161255,182.933187 C118.161255,184.993812 119.832909,186.666375 121.892414,186.666375 L121.892414,201.6 L103.235741,201.6 L103.235741,164.266812 Z" id="Shape" fill-rule="nonzero"></path>
                    <path d="M211.443745,160.533188 L196.518669,160.533188 C194.459163,160.533188 192.78751,162.20575 192.78751,164.266375 L192.78751,186.666375 C192.78751,188.727 194.459163,190.399563 196.518669,190.399563 L211.443745,190.399563 C213.503251,190.399563 215.174905,188.727 215.174905,186.666375 L215.174905,164.266375 C215.174905,162.20575 213.503251,160.533188 211.443745,160.533188 Z M207.712148,182.933188 L200.249392,182.933188 L200.249392,168 L207.712148,168 L207.712148,182.933188 Z" id="Shape" fill-rule="nonzero"></path>
                    <path d="M211.443745,115.733187 L196.518669,115.733187 C194.459163,115.733187 192.78751,117.40575 192.78751,119.466375 L192.78751,141.866375 C192.78751,143.927 194.459163,145.599562 196.518669,145.599562 L211.443745,145.599562 C213.503251,145.599562 215.174905,143.927 215.174905,141.866375 L215.174905,119.466375 C215.174905,117.40575 213.503251,115.733187 211.443745,115.733187 Z M207.712148,138.133187 L200.249392,138.133187 L200.249392,123.2 L207.712148,123.2 L207.712148,138.133187 Z" id="Shape" fill-rule="nonzero"></path>
                    <path d="M239.153369,220.533187 L5.67552812,220.533187 C2.60722278,220.533187 0.116749049,221.309752 0.116749049,222.266492 C0.116749049,223.223232 2.60722278,224 5.67552812,224 L239.153369,224 C242.221675,224 244.712148,223.223436 244.712148,222.266695 C244.712148,221.309955 242.221675,220.533187 239.153369,220.533187 Z" id="Path"></path>
                    <path d="M233.831578,82.1331875 C231.772072,82.1331875 230.100418,83.80575 230.100418,85.866375 L230.100418,89.5995625 L189.055913,89.5995625 C186.996407,89.5995625 185.324753,91.272125 185.324753,93.33275 C185.324753,95.393375 186.996407,97.0659375 189.055913,97.0659375 L230.100418,97.0659375 L230.100418,220.265938 C230.100418,222.326563 231.772072,223.999125 233.831578,223.999125 C235.891084,223.999125 237.562738,222.326563 237.562738,220.265938 L237.562738,85.8659375 C237.562738,83.80575 235.891084,82.1331875 233.831578,82.1331875 Z" id="Path"></path>
                    <path d="M133.086331,138.133187 C133.086331,140.193812 134.757985,141.866375 136.81749,141.866375 L151.742567,141.866375 C153.802072,141.866375 155.473726,140.193812 155.473726,138.133187 L155.473726,115.733187 C155.473726,113.672563 153.802072,112 151.742567,112 L136.81749,112 C134.757985,112 133.086331,113.672562 133.086331,115.733187 L133.086331,138.133187 Z M140.54865,119.466812 L148.011407,119.466812 L148.011407,134.4 L140.54865,134.4 L140.54865,119.466812 Z" id="Shape" fill-rule="nonzero"></path>
                    <path d="M50.9973194,182.933187 C50.9973194,182.448 50.7848099,134.4 32.3406464,134.4 C13.8969202,134.4 13.6844106,182.448 13.6844106,182.933187 C13.6844106,191.949187 20.1060456,199.486875 28.6094867,201.222875 L28.6094867,220.266812 C28.6094867,222.327437 30.2811407,224 32.3406464,224 C34.4001521,224 36.0718061,222.327437 36.0718061,220.266812 L36.0718061,201.222875 C44.5756844,199.486875 50.9973194,191.949187 50.9973194,182.933187 Z M32.3410837,194.133187 C26.1695627,194.133187 21.1471673,189.108062 21.1471673,182.933187 C21.1471673,164.33375 26.1398289,141.866375 32.3410837,141.866375 C38.5423384,141.866375 43.535,164.33375 43.535,182.933187 C43.535,189.108062 38.5126046,194.133187 32.3410837,194.133187 Z" id="Shape" fill-rule="nonzero"></path>
                    <path d="M177.861996,190.4 L177.861996,78.4 C177.861996,76.339375 176.190342,74.6668125 174.130837,74.6668125 C172.071331,74.6668125 170.399677,76.339375 170.399677,78.4 L170.399677,190.4 C170.399677,192.460625 172.071331,194.133188 174.130837,194.133188 C176.190342,194.133188 177.861996,192.460625 177.861996,190.4 Z" id="Path"></path>
                    <path d="M136.81749,97.0668125 L151.742567,97.0668125 C153.802072,97.0668125 155.473726,95.39425 155.473726,93.333625 L155.473726,70.933625 C155.473726,68.873 153.802072,67.2004375 151.742567,67.2004375 L136.81749,67.2004375 C134.757985,67.2004375 133.086331,68.873 133.086331,70.933625 L133.086331,93.333625 C133.086331,95.39425 134.757985,97.0668125 136.81749,97.0668125 Z M140.54865,74.6668125 L148.011407,74.6668125 L148.011407,89.6 L140.54865,89.6 L140.54865,74.6668125 Z" id="Shape" fill-rule="nonzero"></path>
                </g>
            </g>
        </g>
        <path d="M48.5068251,82 C46.4473194,82 44.7756654,83.6725625 44.7756654,85.7331875 L44.7756654,89.466375 L3.7311597,89.466375 C1.67165399,89.466375 0,91.1389375 0,93.1995625 C0,95.2601875 1.67165399,96.93275 3.7311597,96.93275 L44.7756654,96.93275 L44.7756654,220.13275 C44.7756654,222.193375 46.4473194,223.865938 48.5068251,223.865938 C50.5663308,223.865938 52.2379848,222.193375 52.2379848,220.13275 L52.2379848,85.73275 C52.2379848,83.6725625 50.5663308,82 48.5068251,82 Z" id="Path" fill="#000000" transform="translate(26.118992, 152.932969) scale(-1, 1) translate(-26.118992, -152.932969) "></path>
    </g>
</svg>