<?xml version="1.0" encoding="UTF-8"?>
<svg width="324px" height="253px" viewBox="0 0 324 253" version="1.1" xmlns="http://www.w3.org/2000/svg" xmlns:xlink="http://www.w3.org/1999/xlink">
    <!-- Generator: Sketch 52.6 (67491) - http://www.bohemiancoding.com/sketch -->
    <title>chat3</title>
    <desc>Created with Sketch.</desc>
    <g id="chat3" stroke="none" stroke-width="1" fill="none" fill-rule="evenodd">
        <g id="dialogue-box" transform="translate(162.000000, 126.500000) scale(1, -1) translate(-162.000000, -126.500000) translate(7.000000, 3.000000)" fill="#000000">
            <path d="M285.386276,0 L24.6137239,0 C11.0427092,0 -2.84217094e-14,11.0413123 -2.84217094e-14,24.6106102 L-2.84217094e-14,107.674671 C-2.84217094e-14,111.018516 2.7104184,113.728592 6.0546875,113.728592 C9.3989566,113.728592 12.109375,111.018516 12.109375,107.674671 L12.109375,24.6106102 C12.109375,17.7171798 17.7194214,12.1078431 24.6137239,12.1078431 L285.383911,12.1078431 C292.280579,12.1078431 297.890625,17.7171798 297.890625,24.6106102 L297.890625,33.6938572 C297.890625,37.035338 300.601043,39.7477788 303.945312,39.7477788 C307.287216,39.7477788 310,37.035338 310,33.6938572 L310,24.6106102 C310,11.0413123 298.957291,0 285.386276,0 Z" id="Path"></path>
            <path d="M303.945312,76.0713082 C300.601043,76.0713082 297.890625,78.7813837 297.890625,82.1252298 L297.890625,165.186926 C297.890625,172.082721 292.280579,177.692057 285.386276,177.692057 L117.229157,177.692057 C115.62561,177.692057 114.085922,178.330557 112.948303,179.465667 L66.419449,225.98627 L66.419449,183.745979 C66.419449,180.402133 63.70903,177.692057 60.3647615,177.692057 L24.6137239,177.692057 C17.7194214,177.692057 12.109375,172.082721 12.109375,165.18929 L12.109375,156.106043 C12.109375,152.764562 9.3989566,150.052122 6.0546875,150.052122 C2.7104184,150.052122 2.84217094e-14,152.764562 2.84217094e-14,156.106043 L2.84217094e-14,165.18929 C2.84217094e-14,178.758588 11.0427092,189.7999 24.6137239,189.7999 L54.310074,189.7999 L54.310074,240.603181 C54.310074,243.050762 55.7859041,245.259498 58.0493164,246.195964 C58.7990569,246.505754 59.5842741,246.657102 60.3647615,246.657102 C61.939926,246.657102 63.4890747,246.039886 64.64798,244.883492 L119.738541,189.7999 L285.383911,189.7999 C298.957291,189.7999 310,178.758588 310,165.18929 L310,82.1252298 C310,78.7813837 307.289582,76.0713082 303.945312,76.0713082 Z" id="Path"></path>
            <path d="M6.0546875,137.944278 C9.38949555,137.944278 12.109375,135.224744 12.109375,131.890357 C12.109375,128.55597 9.38949555,125.836435 6.0546875,125.836435 C2.71987945,125.836435 0,128.55597 0,131.890357 C0,135.224744 2.71987945,137.944278 6.0546875,137.944278 Z" id="Path"></path>
            <path d="M303.945312,51.8556219 C300.610504,51.8556219 297.890625,54.5751573 297.890625,57.9095435 C297.890625,61.2439297 300.610504,63.9634651 303.945312,63.9634651 C307.280121,63.9634651 310,61.2439297 310,57.9095435 C310,54.5751573 307.280121,51.8556219 303.945312,51.8556219 Z" id="Path"></path>
        </g>
    </g>
</svg>