<?xml version="1.0" encoding="UTF-8"?>
<svg width="686px" height="253px" viewBox="0 0 686 253" version="1.1" xmlns="http://www.w3.org/2000/svg" xmlns:xlink="http://www.w3.org/1999/xlink">
    <!-- Generator: Sketch 52.6 (67491) - http://www.bohemiancoding.com/sketch -->
    <title>drop_plane</title>
    <desc>Created with Sketch.</desc>
    <g id="drop_plane" stroke="none" stroke-width="1" fill="none" fill-rule="evenodd">
        <path d="M172.288922,165.243949 C147.13069,176.988022 130.548682,181.768558 122.413483,179.553458 C114.642487,177.437526 105.667434,170.102449 89.1865676,153.905555 C88.487044,153.218085 87.75916,152.500995 86.8679301,151.621657 C71.0101565,135.975472 65.6858458,131.078503 59.1628383,126.92166 C53.0454072,123.023274 51.957563,123.063695 47.0258655,126.894855 C46.666642,127.173915 46.4769922,127.851833 46.2466678,129.513385 C46.2101425,129.778203 46.1907028,129.918815 46.172293,130.049164 C46.1431259,130.255679 46.1172599,130.431025 46.0908245,130.599294 C45.6024909,133.707673 44.6032033,135.263452 42.1228938,135.263452 C36.8856446,135.263452 35.2245215,138.792012 36.5492537,145.840333 C37.6473325,151.682731 40.6339779,159.330603 45.7804849,170.292526 C46.4580407,171.735701 47.1774231,173.247152 47.9973831,174.953412 C48.673096,176.359508 51.7711204,182.757546 52.5759137,184.436817 C54.2555803,187.941587 55.4903189,190.601758 56.5188551,192.962102 C59.0749874,198.828063 60.2266877,202.578793 59.9265613,204.688639 C56.7415968,227.078487 72.037568,232.061299 106.478743,219.530134 L106.592667,219.503263 C168.92232,212.346853 213.948179,205.888048 241.662936,200.128681 C286.995117,190.70826 331.484083,179.859786 377.527426,167.236728 C379.026214,166.825826 380.080485,167.382213 380.717556,168.778453 C381.186462,169.806133 381.427556,171.101317 381.739888,173.761584 C382.2613,178.202675 382.376872,179.029223 382.85961,181.060234 C383.507978,183.78809 384.451866,186.064793 385.827418,187.967427 C391.806975,196.238218 407.966207,202.124633 414.872559,200.137713 C417.760595,199.306841 420.685319,196.20726 423.853126,190.89481 C426.302871,186.78656 428.315402,182.594971 432.381393,173.512989 C433.484371,171.049328 433.489205,171.03854 433.887341,170.154291 C440.948461,154.471748 445.023086,147.856683 450.089972,146.33598 C465.434292,141.730754 480.951384,136.980432 499.908235,131.106162 C507.435286,128.77371 538.811565,119.01195 546.852113,116.522371 C604.192932,98.7680467 642.899889,83.6471927 662.948979,71.1768523 C682.717489,58.8810292 684.120064,49.5363341 667.452023,42.4945039 L585.171336,34.9735034 L370.219726,102.793883 L370.073757,102.751118 C258.100537,69.946019 191.221266,52.0710651 169.500501,49.1394881 C163.990607,48.3958367 159.228548,50.5505772 154.375425,54.9575552 C154.049804,55.2532416 148.623896,60.8111186 147.689272,61.1060062 C146.710202,61.4149171 146.516035,61.7868376 146.887804,62.4882433 C147.368683,63.3955047 148.744583,64.6521008 150.99884,66.2095099 C155.604086,69.3911584 163.792047,73.7851016 175.55098,79.3821398 C199.101956,90.5919767 236.95359,106.617958 289.101495,127.457821 L290.402004,127.977543 L172.288929,165.243947 Z" id="Rectangle" stroke="#979797" fill="#FFFFFF"></path>
        <g id="airplane" transform="translate(0.000000, 18.000000)" fill="#000000" fill-rule="nonzero">
            <path d="M664.290342,9.16784945 L619.488566,0.229196236 L569.494873,0 L371.606035,65.9626768 L169.063955,10.714924 L97.3513141,46.5382957 L241.154815,109.441203 L126.795101,147.545077 L58.0279849,90.246018 L5.05438304,107.905588 L39.4379411,176.664459 L0,189.797403 L28.1945176,218 L180.628292,209.531199 C220.805604,207.301467 260.530223,199.922116 298.827503,187.5742 L356.511653,168.963465 L413.187218,197.30358 L482.057484,128.430111 L598.789664,90.7502497 L669.642716,60.404668 C680.509815,55.7538887 687.081235,44.569086 685.853234,32.8137618 C684.625233,21.0584377 675.884067,11.4728568 664.290342,9.16784945 Z M171.459343,35.1014036 L380.763522,92.1827262 L308.55805,113.85323 L151.459573,45.0943595 L171.459343,35.1014036 Z M37.3749276,121.290648 L53.168442,116.030595 L101.225195,156.071177 L61.3975736,169.341639 L37.3749276,121.290648 Z M408.637127,169.421858 L387.617311,158.91321 L434.172649,143.889397 L408.637127,169.421858 Z M660.59984,39.3415339 L590.755373,69.3089418 L291.698646,165.754718 C255.268625,177.500607 217.482198,184.525498 179.264411,186.657415 L62.474925,193.132208 L272.478237,123.147138 L306.999329,138.23971 L464.017578,91.1513431 L411.456578,76.7807391 L573.208297,22.9196236 L616.05021,22.9196236 L659.774635,31.66346 C661.508915,32.0110714 662.816313,33.4448474 663.002707,35.2035698 C663.189102,36.9622922 662.211277,38.6382046 660.588379,39.3415339 L660.59984,39.3415339 Z" id="Shape"></path>
        </g>
    </g>
</svg>