<?xml version="1.0" encoding="UTF-8"?>
<svg width="1264px" height="557px" viewBox="0 0 1264 557" version="1.1" xmlns="http://www.w3.org/2000/svg" xmlns:xlink="http://www.w3.org/1999/xlink">
    <!-- Generator: Sketch 52.6 (67491) - http://www.bohemiancoding.com/sketch -->
    <title>FAMU</title>
    <desc>Created with Sketch.</desc>
    <g id="FAMU" stroke="none" stroke-width="1" fill="none" fill-rule="evenodd">
        <rect fill="#FFFFFF" x="0" y="0" width="1264" height="557"></rect>
        <g id="Group-2" transform="translate(547.000000, 131.000000)">
            <g id="office-block" fill="#000000" fill-rule="nonzero">
                <path d="M280.25,265.5 C279.39957,265.5 278.55375,265.57375 277.72291,265.72125 C274.33041,259.609795 267.87498,255.666475 260.583525,255.666475 C253.29207,255.666475 246.836641,259.609795 243.444141,265.72125 C242.613301,265.57375 241.76748,265.5 240.917051,265.5 C232.784961,265.5 226.167051,272.11791 226.167051,280.25 C226.167051,281.98082 226.52082,283.617725 227.076826,285.166475 L206.5,285.166475 L206.5,255.666475 L231.083525,255.666475 C233.797295,255.666475 236,253.46377 236,250.75 L236,54.0835254 C236,51.3697559 233.797295,49.1670508 231.083525,49.1670508 L83.5835254,49.1670508 C80.8697559,49.1670508 78.6670508,51.3697559 78.6670508,54.0835254 L78.6670508,290.083525 C78.6670508,292.797295 80.8697559,295 83.5835254,295 L280.25,295 C288.38209,295 295,288.38209 295,280.25 C295,272.11791 288.38209,265.5 280.25,265.5 Z M206.5,59 L226.166475,59 L226.166475,88.5 L206.5,88.5 L206.5,59 Z M206.5,98.3335254 L226.166475,98.3335254 L226.166475,127.833525 L206.5,127.833525 L206.5,98.3335254 Z M206.5,137.666475 L226.166475,137.666475 L226.166475,167.166475 L206.5,167.166475 L206.5,137.666475 Z M206.5,177 L226.166475,177 L226.166475,206.5 L206.5,206.5 L206.5,177 Z M206.5,216.333525 L226.166475,216.333525 L226.166475,245.833525 L206.5,245.833525 L206.5,216.333525 Z M108.166475,285.166475 L88.5,285.166475 L88.5,255.666475 L108.166475,255.666475 L108.166475,285.166475 Z M108.166475,245.833525 L88.5,245.833525 L88.5,216.333525 L108.166475,216.333525 L108.166475,245.833525 Z M108.166475,206.5 L88.5,206.5 L88.5,177 L108.166475,177 L108.166475,206.5 Z M108.166475,167.166475 L88.5,167.166475 L88.5,137.666475 L108.166475,137.666475 L108.166475,167.166475 Z M108.166475,127.833525 L88.5,127.833525 L88.5,98.3335254 L108.166475,98.3335254 L108.166475,127.833525 Z M108.166475,88.5 L88.5,88.5 L88.5,59 L108.166475,59 L108.166475,88.5 Z M137.666475,285.166475 L118,285.166475 L118,255.666475 L137.666475,255.666475 L137.666475,285.166475 Z M137.666475,245.833525 L118,245.833525 L118,216.333525 L137.666475,216.333525 L137.666475,245.833525 Z M137.666475,206.5 L118,206.5 L118,177 L137.666475,177 L137.666475,206.5 Z M137.666475,167.166475 L118,167.166475 L118,137.666475 L137.666475,137.666475 L137.666475,167.166475 Z M137.666475,127.833525 L118,127.833525 L118,98.3335254 L137.666475,98.3335254 L137.666475,127.833525 Z M137.666475,88.5 L118,88.5 L118,59 L137.666475,59 L137.666475,88.5 Z M167.166475,285.166475 L147.5,285.166475 L147.5,255.666475 L167.166475,255.666475 L167.166475,285.166475 Z M167.166475,245.833525 L147.5,245.833525 L147.5,216.333525 L167.166475,216.333525 L167.166475,245.833525 Z M167.166475,206.5 L147.5,206.5 L147.5,177 L167.166475,177 L167.166475,206.5 Z M167.166475,167.166475 L147.5,167.166475 L147.5,137.666475 L167.166475,137.666475 L167.166475,167.166475 Z M167.166475,127.833525 L147.5,127.833525 L147.5,98.3335254 L167.166475,98.3335254 L167.166475,127.833525 Z M167.166475,88.5 L147.5,88.5 L147.5,59 L167.166475,59 L167.166475,88.5 Z M196.666475,285.166475 L177,285.166475 L177,255.666475 L196.666475,255.666475 L196.666475,285.166475 Z M196.666475,245.833525 L177,245.833525 L177,216.333525 L196.666475,216.333525 L196.666475,245.833525 Z M196.666475,206.5 L177,206.5 L177,177 L196.666475,177 L196.666475,206.5 Z M196.666475,167.166475 L177,167.166475 L177,137.666475 L196.666475,137.666475 L196.666475,167.166475 Z M196.666475,127.833525 L177,127.833525 L177,98.3335254 L196.666475,98.3335254 L196.666475,127.833525 Z M196.666475,88.5 L177,88.5 L177,59 L196.666475,59 L196.666475,88.5 Z M280.25,285.166475 L240.916475,285.166475 C238.207314,285.166475 236,282.95916 236,280.25 C236,277.54084 238.207314,275.333525 240.916475,275.333525 C241.860244,275.333525 242.755039,275.60375 243.58127,276.13498 C244.928359,277.000391 246.610205,277.157686 248.095,276.557891 C249.579795,275.958096 250.67625,274.669775 251.035205,273.11123 C252.072891,268.63207 256.00123,265.5 260.583525,265.5 C265.16582,265.5 269.09416,268.63207 270.131846,273.11123 C270.490801,274.669775 271.587256,275.958096 273.072051,276.557891 C274.556846,277.157686 276.238115,277.000391 277.585781,276.13498 C280.781807,274.06998 285.172236,276.59707 285.167051,280.25 C285.166475,282.95916 282.95916,285.166475 280.25,285.166475 Z" id="Shape"></path>
                <path d="M108.166475,34.4164746 L108.166475,19.6664746 L142.582949,19.6664746 C145.296719,19.6664746 147.499424,17.4637695 147.499424,14.75 L147.499424,9.83352539 L167.165898,9.83352539 L167.165898,14.75 C167.165898,17.4637695 169.368604,19.6664746 172.082373,19.6664746 L206.5,19.6664746 L206.5,29.5 L122.916475,29.5 C120.202705,29.5 118,31.7027051 118,34.4164746 C118,37.1302441 120.202705,39.3329492 122.916475,39.3329492 L245.832949,39.3329492 L245.832949,243.271289 C245.832949,245.985059 248.035654,248.187764 250.749424,248.187764 C253.463193,248.187764 255.665898,245.985059 255.665898,243.271289 L255.665898,34.4164746 C255.665898,31.7027051 253.463193,29.5 250.749424,29.5 L216.332949,29.5 L216.332949,14.75 C216.332949,12.0362305 214.130244,9.83352539 211.416475,9.83352539 L177,9.83352539 L177,4.91647461 C177,2.20270508 174.797295,0 172.083525,0 L142.583525,0 C139.869756,0 137.667051,2.20270508 137.667051,4.91647461 L137.667051,9.83294922 L103.25,9.83294922 C100.53623,9.83294922 98.3335254,12.0356543 98.3335254,14.7494238 L98.3335254,29.4994238 L63.9170508,29.4994238 C61.2032813,29.4994238 59.0005762,31.7021289 59.0005762,34.4158984 L59.0005762,285.165898 L29.5,285.165898 L29.5,265.002764 C40.7048145,262.716514 49.1664746,252.789648 49.1664746,240.915898 C49.1664746,240.276924 48.8864551,176.999424 24.5829492,176.999424 C0.280019531,177 0,240.2775 0,240.916475 C0,252.790225 8.46166016,262.71709 19.6664746,265.00334 L19.6664746,285.166475 L4.91647461,285.166475 C2.20270508,285.166475 1.02348685e-15,287.36918 1.02348685e-15,290.082949 C1.02348685e-15,292.796719 2.20270508,295 4.91647461,295 L63.9164746,295 C66.6302441,295 68.8329492,292.797295 68.8329492,290.083525 L68.8329492,39.3335254 L103.25,39.3335254 C105.96377,39.3335254 108.166475,37.1308203 108.166475,34.4164746 Z M9.83352539,240.916475 C9.83352539,216.42168 16.4122559,186.832949 24.5835254,186.832949 C32.7547949,186.832949 39.3335254,216.42168 39.3335254,240.916475 C39.3335254,249.048564 32.7156152,255.666475 24.5835254,255.666475 C16.4514355,255.666475 9.83352539,249.048564 9.83352539,240.916475 Z" id="Shape"></path>
            </g>
            <g id="building" transform="translate(402.000000, 0.000000)" fill="#000000">
                <path d="M211.416475,275.333525 L73.75,275.333525 C71.0362305,275.333525 68.8335254,277.53623 68.8335254,280.25 L68.8335254,290.083525 C68.8335254,292.797295 71.0362305,295 73.75,295 C76.4637695,295 78.6664746,292.797295 78.6664746,290.083525 L78.6664746,285.167051 L211.416475,285.167051 C214.130244,285.167051 216.332949,282.964346 216.332949,280.250576 C216.332949,277.536807 214.13082,275.333525 211.416475,275.333525 Z" id="Path"></path>
                <path d="M108.166475,122.916475 C108.166475,125.630244 110.36918,127.832949 113.082949,127.832949 L132.75,127.832949 C135.46377,127.832949 137.666475,125.630244 137.666475,122.916475 L137.666475,93.4164746 C137.666475,90.7027051 135.46377,88.5 132.75,88.5 L113.083525,88.5 C110.369756,88.5 108.167051,90.7027051 108.167051,93.4164746 L108.167051,122.916475 L108.166475,122.916475 Z M118,98.3335254 L127.833525,98.3335254 L127.833525,118 L118,118 L118,98.3335254 Z" id="Shape" fill-rule="nonzero"></path>
                <path d="M63.9164746,59 L4.91647461,59 C2.20270508,59 0,61.2027051 0,63.9164746 L0,162.25 C0,164.96377 2.20270508,167.166475 4.91647461,167.166475 C7.63024414,167.166475 9.83294922,164.96377 9.83294922,162.25 L9.83294922,68.8335254 L63.9164746,68.8335254 C66.6302441,68.8335254 68.8329492,66.6308203 68.8329492,63.9170508 C68.8329492,61.2032813 66.6308203,59 63.9164746,59 Z" id="Path"></path>
                <path d="M236,240.916475 C236,243.630244 238.202705,245.832949 240.916475,245.832949 L260.582949,245.832949 C263.296719,245.832949 265.499424,243.630244 265.499424,240.916475 L265.499424,211.416475 C265.499424,208.702705 263.296719,206.5 260.582949,206.5 L240.916475,206.5 C238.202705,206.5 236,208.702705 236,211.416475 L236,240.916475 Z M245.833525,216.333525 L255.667051,216.333525 L255.667051,236 L245.833525,236 L245.833525,216.333525 Z" id="Shape" fill-rule="nonzero"></path>
                <path d="M24.5835254,177 C0.280019531,177 0,240.2775 0,240.916475 C0,252.790225 8.46166016,262.71709 19.6664746,265.00334 L19.6664746,290.083525 C19.6664746,292.797295 21.8691797,295 24.5829492,295 C27.2967188,295 29.4994238,292.797295 29.4994238,290.083525 L29.4994238,265.00334 C40.7042383,262.71709 49.1658984,252.790225 49.1658984,240.916475 C49.1664746,240.2775 48.8864551,177 24.5835254,177 Z M24.5835254,255.666475 C16.4514355,255.666475 9.83352539,249.048564 9.83352539,240.916475 C9.83352539,216.42168 16.4122559,186.832949 24.5835254,186.832949 C32.7547949,186.832949 39.3335254,216.42168 39.3335254,240.916475 C39.3335254,249.048564 32.7156152,255.666475 24.5835254,255.666475 Z" id="Shape" fill-rule="nonzero"></path>
                <path d="M54.0835254,147.5 L34.4164746,147.5 C31.7027051,147.5 29.5,149.702705 29.5,152.416475 L29.5,162.25 C29.5,164.96377 31.7027051,167.166475 34.4164746,167.166475 C37.1302441,167.166475 39.3329492,164.96377 39.3329492,162.25 L39.3329492,157.333525 L49.1664746,157.333525 L49.1664746,181.917051 C49.1664746,184.63082 51.3691797,186.833525 54.0829492,186.833525 C56.7967188,186.833525 58.9994238,184.63082 58.9994238,181.917051 L58.9994238,152.417051 C59,149.702705 56.7972949,147.5 54.0835254,147.5 Z" id="Path"></path>
                <path d="M240.916475,127.833525 L260.582949,127.833525 C263.296719,127.833525 265.499424,125.63082 265.499424,122.917051 L265.499424,93.4170508 C265.499424,90.7032812 263.296719,88.5005762 260.582949,88.5005762 L240.916475,88.5005762 C238.202705,88.5005762 236,90.7032812 236,93.4170508 L236,122.917051 C236,125.63082 238.202705,127.833525 240.916475,127.833525 Z M245.833525,98.3335254 L255.667051,98.3335254 L255.667051,118 L245.833525,118 L245.833525,98.3335254 Z" id="Shape" fill-rule="nonzero"></path>
                <path d="M54.0835254,88.5 L34.4164746,88.5 C31.7027051,88.5 29.5,90.7027051 29.5,93.4164746 L29.5,122.916475 C29.5,125.630244 31.7027051,127.832949 34.4164746,127.832949 L54.0829492,127.832949 C56.7967188,127.832949 58.9994238,125.630244 58.9994238,122.916475 L58.9994238,93.4164746 C59,90.7027051 56.7972949,88.5 54.0835254,88.5 Z M49.1664746,118 L39.3335254,118 L39.3335254,98.3335254 L49.1670508,98.3335254 L49.1670508,118 L49.1664746,118 Z" id="Shape" fill-rule="nonzero"></path>
                <path d="M157.333525,122.916475 C157.333525,125.630244 159.53623,127.832949 162.25,127.832949 L181.916475,127.832949 C184.630244,127.832949 186.832949,125.630244 186.832949,122.916475 L186.832949,93.4164746 C186.832949,90.7027051 184.630244,88.5 181.916475,88.5 L162.25,88.5 C159.53623,88.5 157.333525,90.7027051 157.333525,93.4164746 L157.333525,122.916475 Z M167.166475,98.3335254 L177,98.3335254 L177,118 L167.166475,118 L167.166475,98.3335254 Z" id="Shape" fill-rule="nonzero"></path>
                <path d="M290.083525,59 L231.083525,59 C228.369756,59 226.167051,61.2027051 226.167051,63.9164746 C226.167051,66.6302441 228.369756,68.8329492 231.083525,68.8329492 L285.167051,68.8329492 L285.167051,266.40459 C283.623486,265.85377 281.986006,265.5 280.250576,265.5 C279.400146,265.5 278.554326,265.57375 277.723486,265.72125 C274.330986,259.609795 267.875557,255.666475 260.584102,255.666475 C253.292646,255.666475 246.837217,259.609795 243.444717,265.72125 C242.613877,265.57375 241.768057,265.5 240.917627,265.5 C232.785537,265.5 226.167627,272.11791 226.167627,280.25 C226.167627,288.38209 232.785537,295 240.917627,295 L280.25,295 C288.38209,295 295,288.38209 295,280.25 L295,63.9164746 C295,61.2027051 292.797295,59 290.083525,59 Z M280.25,285.166475 L240.916475,285.166475 C238.207314,285.166475 236,282.95916 236,280.25 C236,277.54084 238.207314,275.333525 240.916475,275.333525 C241.860244,275.333525 242.755039,275.60375 243.58127,276.13498 C244.928359,277.000391 246.610205,277.157686 248.095,276.557891 C249.579795,275.958096 250.67625,274.669775 251.035205,273.11123 C252.072891,268.63207 256.00123,265.5 260.583525,265.5 C265.16582,265.5 269.09416,268.63207 270.131846,273.11123 C270.490801,274.669775 271.587256,275.958096 273.072051,276.557891 C274.552236,277.157686 276.238115,277.000391 277.585781,276.13498 C280.786416,274.06998 285.167051,276.59707 285.167051,280.25 C285.166475,282.95916 282.95916,285.166475 280.25,285.166475 Z" id="Shape" fill-rule="nonzero"></path>
                <path d="M162.25,68.8335254 L181.916475,68.8335254 C184.630244,68.8335254 186.832949,66.6308203 186.832949,63.9170508 L186.832949,34.4170508 C186.832949,31.7032813 184.630244,29.5005762 181.916475,29.5005762 L162.25,29.5005762 C159.53623,29.5005762 157.333525,31.7032813 157.333525,34.4170508 L157.333525,63.9170508 C157.333525,66.6308203 159.53623,68.8335254 162.25,68.8335254 Z M167.166475,39.3335254 L177,39.3335254 L177,59 L167.166475,59 L167.166475,39.3335254 Z" id="Shape" fill-rule="nonzero"></path>
                <path d="M157.333525,181.916475 C157.333525,184.630244 159.53623,186.832949 162.25,186.832949 L181.916475,186.832949 C184.630244,186.832949 186.832949,184.630244 186.832949,181.916475 L186.832949,152.416475 C186.832949,149.702705 184.630244,147.5 181.916475,147.5 L162.25,147.5 C159.53623,147.5 157.333525,149.702705 157.333525,152.416475 L157.333525,181.916475 Z M167.166475,157.333525 L177,157.333525 L177,177 L167.166475,177 L167.166475,157.333525 Z" id="Shape" fill-rule="nonzero"></path>
                <path d="M113.083525,68.8335254 L132.75,68.8335254 C135.46377,68.8335254 137.666475,66.6308203 137.666475,63.9170508 L137.666475,34.4170508 C137.666475,31.7032813 135.46377,29.5005762 132.75,29.5005762 L113.083525,29.5005762 C110.369756,29.5005762 108.167051,31.7032813 108.167051,34.4170508 L108.167051,63.9170508 C108.166475,66.6308203 110.36918,68.8335254 113.083525,68.8335254 Z M118,39.3335254 L127.833525,39.3335254 L127.833525,59 L118,59 L118,39.3335254 Z" id="Shape" fill-rule="nonzero"></path>
                <path d="M144.008975,237.426025 C143.123975,238.36 142.582949,239.638525 142.582949,240.917051 C142.582949,242.195576 143.123975,243.473525 144.008975,244.408076 C144.942949,245.293076 146.221475,245.834102 147.5,245.834102 C148.778525,245.834102 150.056475,245.293076 150.991025,244.408076 C151.876025,243.474102 152.417051,242.195576 152.417051,240.917051 C152.417051,239.638525 151.876025,238.360576 150.991025,237.426025 C149.1225,235.606475 145.8775,235.606475 144.008975,237.426025 Z" id="Path"></path>
                <path d="M108.166475,181.916475 C108.166475,184.630244 110.36918,186.832949 113.082949,186.832949 L132.75,186.832949 C135.46377,186.832949 137.666475,184.630244 137.666475,181.916475 L137.666475,152.416475 C137.666475,149.702705 135.46377,147.5 132.75,147.5 L113.083525,147.5 C110.369756,147.5 108.167051,149.702705 108.167051,152.416475 L108.167051,181.916475 L108.166475,181.916475 Z M118,157.333525 L127.833525,157.333525 L127.833525,177 L118,177 L118,157.333525 Z" id="Shape" fill-rule="nonzero"></path>
                <path d="M98.3335254,211.416475 C98.3335254,214.130244 100.53623,216.332949 103.25,216.332949 L118,216.332949 L118,260.582949 C118,263.296719 120.202705,265.499424 122.916475,265.499424 C125.630244,265.499424 127.832949,263.296719 127.832949,260.582949 L127.832949,216.332949 L167.166475,216.332949 L167.166475,260.582949 C167.166475,263.296719 169.36918,265.499424 172.082949,265.499424 C174.796719,265.499424 176.999424,263.296719 176.999424,260.582949 L176.999424,216.332949 L191.749424,216.332949 C194.463193,216.332949 196.665898,214.130244 196.665898,211.416475 C196.665898,208.702705 194.463193,206.5 191.749424,206.5 L103.25,206.5 C100.53623,206.5 98.3335254,208.702705 98.3335254,211.416475 Z" id="Path"></path>
                <path d="M236,181.916475 C236,184.630244 238.202705,186.832949 240.916475,186.832949 L260.582949,186.832949 C263.296719,186.832949 265.499424,184.630244 265.499424,181.916475 L265.499424,152.416475 C265.499424,149.702705 263.296719,147.5 260.582949,147.5 L240.916475,147.5 C238.202705,147.5 236,149.702705 236,152.416475 L236,181.916475 Z M245.833525,157.333525 L255.667051,157.333525 L255.667051,177 L245.833525,177 L245.833525,157.333525 Z" id="Shape" fill-rule="nonzero"></path>
                <path d="M211.416475,0 L83.5835254,0 C80.8697559,0 78.6670508,2.20270508 78.6670508,4.91647461 L78.6670508,260.582949 C78.6670508,263.296719 80.8697559,265.499424 83.5835254,265.499424 C86.2972949,265.499424 88.5,263.296719 88.5,260.582949 L88.5,9.83294922 L206.5,9.83294922 L206.5,260.582949 C206.5,263.296719 208.702705,265.499424 211.416475,265.499424 C214.130244,265.499424 216.332949,263.296719 216.332949,260.582949 L216.332949,4.91647461 C216.333525,2.20270508 214.13082,0 211.416475,0 Z" id="Path"></path>
            </g>
            <g id="Group" transform="translate(189.000000, 0.000000)">
                <rect id="Rectangle" fill="#FFFFFF" x="7.48859316" y="118.115234" width="294.935361" height="176.884766"></rect>
                <g id="university" fill="#000000">
                    <path d="M115.631367,181.916475 C115.631367,184.630244 117.833589,186.832949 120.546764,186.832949 L140.209506,186.832949 C142.922681,186.832949 145.124903,184.630244 145.124903,181.916475 L145.124903,152.416475 C145.124903,149.702705 142.922681,147.5 140.209506,147.5 L120.54734,147.5 C117.834165,147.5 115.631943,149.702705 115.631943,152.416475 L115.631943,181.916475 L115.631367,181.916475 Z M125.462738,157.333525 L135.294108,157.333525 L135.294108,177 L125.462738,177 L125.462738,157.333525 Z" id="Shape" fill-rule="nonzero"></path>
                    <path d="M120.54734,127.833525 L140.209506,127.833525 C142.922681,127.833525 145.124903,125.63082 145.124903,122.917051 L145.124903,93.4170508 C145.124903,90.7032813 142.922681,88.5005762 140.209506,88.5005762 L120.54734,88.5005762 C117.834165,88.5005762 115.631943,90.7032813 115.631943,93.4170508 L115.631943,122.917051 C115.631367,125.63082 117.833589,127.833525 120.54734,127.833525 Z M125.462738,98.3335254 L135.294108,98.3335254 L135.294108,118 L125.462738,118 L125.462738,98.3335254 Z" id="Shape" fill-rule="nonzero"></path>
                    <path d="M83.7268804,92.7135449 L154.668252,49.9829102 L225.609624,92.7135449 C226.398212,93.1906152 227.270021,93.4164746 228.126907,93.4164746 C229.791896,93.4164746 231.413265,92.5660449 232.329267,91.0316992 C233.72508,88.701084 232.970928,85.6825195 230.654522,84.2858789 L159.565649,41.4670898 L159.565649,9.83352539 L184.05378,9.83352539 L184.05378,19.6670508 L169.361016,19.6670508 C166.657777,19.6670508 164.463619,21.8697559 164.463619,24.5835254 C164.463619,27.2972949 166.657777,29.5 169.361016,29.5 L188.951177,29.5 C191.654416,29.5 193.848574,27.2972949 193.848574,24.5835254 L193.848574,4.91647461 C193.848574,2.20270508 191.654416,0 188.951177,0 L154.668252,0 C151.965013,0 149.770855,2.20270508 149.770855,4.91647461 L149.770855,41.4670898 L78.682556,84.2864551 C76.3661499,85.6825195 75.6119979,88.7016602 77.0078105,91.0322754 C78.3932922,93.3577051 81.4099003,94.1147949 83.7268804,92.7135449 Z" id="Path"></path>
                    <path d="M61.5602681,186.833525 C64.273443,186.833525 66.4756654,184.63082 66.4756654,181.917051 L66.4756654,152.417051 C66.4756654,149.703281 64.273443,147.500576 61.5602681,147.500576 L41.8975266,147.500576 C39.1843517,147.500576 36.9821293,149.703281 36.9821293,152.417051 L36.9821293,162.25 C36.9821293,164.96377 39.1843517,167.166475 41.8975266,167.166475 C44.6107015,167.166475 46.812924,164.96377 46.812924,162.25 L46.812924,157.333525 L56.6442947,157.333525 L56.6442947,181.917051 C56.6442947,184.63082 58.8465171,186.833525 61.5602681,186.833525 Z" id="Path"></path>
                    <path d="M95.9692015,250.75 L95.9692015,108.166475 C95.9692015,105.452705 93.7669791,103.25 91.0538042,103.25 C88.3406293,103.25 86.1384068,105.452705 86.1384068,108.166475 L86.1384068,250.75 C86.1384068,253.46377 88.3406293,255.666475 91.0538042,255.666475 C93.7669791,255.666475 95.9692015,253.46377 95.9692015,250.75 Z" id="Path"></path>
                    <path d="M71.3910627,275.333525 L238.520909,275.333525 C241.234084,275.333525 243.436306,273.13082 243.436306,270.417051 C243.436306,267.703281 241.234084,265.500576 238.520909,265.500576 L194.280605,265.500576 L194.280605,216.334102 L199.196002,216.334102 C201.909177,216.334102 204.111399,214.131396 204.111399,211.417627 C204.111399,208.703857 201.909177,206.501152 199.196002,206.501152 L110.71597,206.501152 C108.002795,206.501152 105.800572,208.703857 105.800572,211.417627 C105.800572,214.131396 108.002795,216.334102 110.71597,216.334102 L115.631367,216.334102 L115.631367,265.5 L71.3910627,265.5 C68.6778878,265.5 66.4756654,267.702705 66.4756654,270.416475 C66.4756654,273.130244 68.6778878,275.333525 71.3910627,275.333525 Z M159.871671,245.833525 C162.584846,245.833525 164.787068,243.63082 164.787068,240.917051 C164.787068,238.203281 162.584846,236.000576 159.871671,236.000576 L159.871671,216.334102 L184.44981,216.334102 L184.44981,265.5 L159.871671,265.5 L159.871671,245.833525 Z M125.462738,216.333525 L150.040876,216.333525 L150.040876,236 C147.327702,236 145.125479,238.202705 145.125479,240.916475 C145.125479,243.630244 147.327702,245.832949 150.040876,245.832949 L150.040876,265.5 L125.462738,265.5 L125.462738,216.333525 Z" id="Shape" fill-rule="nonzero"></path>
                    <path d="M268.015021,211.416475 L248.352856,211.416475 C245.639681,211.416475 243.437458,213.61918 243.437458,216.332949 L243.437458,245.832949 C243.437458,248.546719 245.639681,250.749424 248.352856,250.749424 L268.015021,250.749424 C270.728196,250.749424 272.930418,248.546719 272.930418,245.832949 L272.930418,216.332949 C272.930418,213.61918 270.728196,211.416475 268.015021,211.416475 Z M263.099048,240.916475 L253.267677,240.916475 L253.267677,221.25 L263.099048,221.25 L263.099048,240.916475 Z" id="Shape" fill-rule="nonzero"></path>
                    <path d="M268.015021,152.416475 L248.352856,152.416475 C245.639681,152.416475 243.437458,154.61918 243.437458,157.332949 L243.437458,186.832949 C243.437458,189.546719 245.639681,191.749424 248.352856,191.749424 L268.015021,191.749424 C270.728196,191.749424 272.930418,189.546719 272.930418,186.832949 L272.930418,157.332949 C272.930418,154.61918 270.728196,152.416475 268.015021,152.416475 Z M263.099048,181.916475 L253.267677,181.916475 L253.267677,162.25 L263.099048,162.25 L263.099048,181.916475 Z" id="Shape" fill-rule="nonzero"></path>
                    <path d="M257.123242,285.166475 L6.12960961,285.166475 C2.83111628,285.166475 0.153804183,287.36918 0.153804183,290.082949 C0.153804183,292.796719 2.83111628,295 6.12960961,295 L257.123242,295 C260.421735,295 263.099048,292.797295 263.099048,290.083525 C263.099048,287.369756 260.421735,285.166475 257.123242,285.166475 Z" id="Path"></path>
                    <path d="M297.508557,108.166475 C294.795382,108.166475 292.59316,110.36918 292.59316,113.082949 L292.59316,117.999424 L238.521485,117.999424 C235.80831,117.999424 233.606087,120.202129 233.606087,122.915898 C233.606087,125.629668 235.80831,127.832373 238.521485,127.832373 L292.59316,127.832373 L292.59316,290.082373 C292.59316,292.796143 294.795382,294.998848 297.508557,294.998848 C300.221732,294.998848 302.423954,292.796143 302.423954,290.082373 L302.423954,113.082373 C302.423954,110.36918 300.221732,108.166475 297.508557,108.166475 Z" id="Path"></path>
                    <path d="M164.787644,181.916475 C164.787644,184.630244 166.989867,186.832949 169.703042,186.832949 L189.365207,186.832949 C192.078382,186.832949 194.280605,184.630244 194.280605,181.916475 L194.280605,152.416475 C194.280605,149.702705 192.078382,147.5 189.365207,147.5 L169.703042,147.5 C166.989867,147.5 164.787644,149.702705 164.787644,152.416475 L164.787644,181.916475 Z M174.618439,157.333525 L184.44981,157.333525 L184.44981,177 L174.618439,177 L174.618439,157.333525 Z" id="Shape" fill-rule="nonzero"></path>
                    <path d="M56.6442947,240.916475 C56.6442947,240.2775 56.3643365,177 32.0661559,177 C7.76855133,177 7.48859316,240.2775 7.48859316,240.916475 C7.48859316,252.790225 15.9483992,262.71709 27.1507586,265.00334 L27.1507586,290.083525 C27.1507586,292.797295 29.352981,295 32.0661559,295 C34.7793308,295 36.9815532,292.797295 36.9815532,290.083525 L36.9815532,265.00334 C48.1844886,262.71709 56.6442947,252.790225 56.6442947,240.916475 Z M32.0667319,255.666475 C23.936424,255.666475 17.3199639,249.048564 17.3199639,240.916475 C17.3199639,216.42168 23.8972529,186.832949 32.0667319,186.832949 C40.236211,186.832949 46.8135,216.42168 46.8135,240.916475 C46.8135,249.048564 40.1970399,255.666475 32.0667319,255.666475 Z" id="Shape" fill-rule="nonzero"></path>
                    <path d="M223.774717,250.75 L223.774717,103.25 C223.774717,100.53623 221.572494,98.3335254 218.859319,98.3335254 C216.146144,98.3335254 213.943922,100.53623 213.943922,103.25 L213.943922,250.75 C213.943922,253.46377 216.146144,255.666475 218.859319,255.666475 C221.572494,255.666475 223.774717,253.46377 223.774717,250.75 Z" id="Path"></path>
                    <path d="M169.703042,127.833525 L189.365207,127.833525 C192.078382,127.833525 194.280605,125.63082 194.280605,122.917051 L194.280605,93.4170508 C194.280605,90.7032813 192.078382,88.5005762 189.365207,88.5005762 L169.703042,88.5005762 C166.989867,88.5005762 164.787644,90.7032813 164.787644,93.4170508 L164.787644,122.917051 C164.787644,125.63082 166.989867,127.833525 169.703042,127.833525 Z M174.618439,98.3335254 L184.44981,98.3335254 L184.44981,118 L174.618439,118 L174.618439,98.3335254 Z" id="Shape" fill-rule="nonzero"></path>
                    <path d="M12.4039905,172.083525 C15.1171654,172.083525 17.3193878,169.88082 17.3193878,167.167051 L17.3193878,127.833525 L71.3910627,127.833525 C74.1042376,127.833525 76.3064601,125.63082 76.3064601,122.917051 C76.3064601,120.203281 74.1042376,118.000576 71.3910627,118.000576 L17.3199639,118.000576 L17.3199639,113.084102 C17.3199639,110.370332 15.1177414,108.167627 12.4045665,108.167627 C9.69139163,108.167627 7.48859316,110.36918 7.48859316,113.083525 C7.48859316,132.56677 7.48859316,147.179203 7.48859316,156.920825 C7.48859316,159.197764 7.48859316,162.613173 7.48859316,167.167051 C7.48859316,169.88082 9.69081559,172.083525 12.4039905,172.083525 Z" id="Path"></path>
                </g>
            </g>
            <rect id="Rectangle" fill="#000000" x="196" y="167" width="10" height="123"></rect>
        </g>
        <text id="FAMU-INTERNATIONAL" font-family="GillSans, Gill Sans" font-size="58" font-weight="normal" letter-spacing="-0.22132349" fill="#000000">
            <tspan x="591" y="90">FAMU INTERNATIONAL</tspan>
        </text>
    </g>
</svg>