<?xml version="1.0" encoding="UTF-8"?>
<svg width="955px" height="1080px" viewBox="0 0 955 1080" version="1.1" xmlns="http://www.w3.org/2000/svg" xmlns:xlink="http://www.w3.org/1999/xlink">
    <!-- Generator: Sketch 52.6 (67491) - http://www.bohemiancoding.com/sketch -->
    <title>FAMU</title>
    <desc>Created with Sketch.</desc>
    <g id="FAMU" stroke="none" stroke-width="1" fill="none" fill-rule="evenodd">
        <rect fill="#FFFFFF" x="0" y="0" width="955" height="1080"></rect>
        <g id="Group-2" transform="translate(45.000000, 387.000000)">
            <g id="office-block" fill="#000000" fill-rule="nonzero">
                <path d="M347.7,329.4 C346.644891,329.4 345.5955,329.4915 344.564695,329.6745 C340.355695,322.092152 332.346586,317.199762 323.300238,317.199762 C314.253891,317.199762 306.244781,322.092152 302.035781,329.6745 C301.004977,329.4915 299.955586,329.4 298.900477,329.4 C288.811172,329.4 280.600477,337.610695 280.600477,347.7 C280.600477,349.847391 281.039391,351.878262 281.729215,353.799762 L256.2,353.799762 L256.2,317.199762 L286.700238,317.199762 C290.067152,317.199762 292.8,314.466914 292.8,311.1 L292.8,67.1002383 C292.8,63.7333242 290.067152,61.0004766 286.700238,61.0004766 L103.700238,61.0004766 C100.333324,61.0004766 97.6004766,63.7333242 97.6004766,67.1002383 L97.6004766,359.900238 C97.6004766,363.267152 100.333324,366 103.700238,366 L347.7,366 C357.789305,366 366,357.789305 366,347.7 C366,337.610695 357.789305,329.4 347.7,329.4 Z M256.2,73.2 L280.599762,73.2 L280.599762,109.8 L256.2,109.8 L256.2,73.2 Z M256.2,122.000238 L280.599762,122.000238 L280.599762,158.600238 L256.2,158.600238 L256.2,122.000238 Z M256.2,170.799762 L280.599762,170.799762 L280.599762,207.399762 L256.2,207.399762 L256.2,170.799762 Z M256.2,219.6 L280.599762,219.6 L280.599762,256.2 L256.2,256.2 L256.2,219.6 Z M256.2,268.400238 L280.599762,268.400238 L280.599762,305.000238 L256.2,305.000238 L256.2,268.400238 Z M134.199762,353.799762 L109.8,353.799762 L109.8,317.199762 L134.199762,317.199762 L134.199762,353.799762 Z M134.199762,305.000238 L109.8,305.000238 L109.8,268.400238 L134.199762,268.400238 L134.199762,305.000238 Z M134.199762,256.2 L109.8,256.2 L109.8,219.6 L134.199762,219.6 L134.199762,256.2 Z M134.199762,207.399762 L109.8,207.399762 L109.8,170.799762 L134.199762,170.799762 L134.199762,207.399762 Z M134.199762,158.600238 L109.8,158.600238 L109.8,122.000238 L134.199762,122.000238 L134.199762,158.600238 Z M134.199762,109.8 L109.8,109.8 L109.8,73.2 L134.199762,73.2 L134.199762,109.8 Z M170.799762,353.799762 L146.4,353.799762 L146.4,317.199762 L170.799762,317.199762 L170.799762,353.799762 Z M170.799762,305.000238 L146.4,305.000238 L146.4,268.400238 L170.799762,268.400238 L170.799762,305.000238 Z M170.799762,256.2 L146.4,256.2 L146.4,219.6 L170.799762,219.6 L170.799762,256.2 Z M170.799762,207.399762 L146.4,207.399762 L146.4,170.799762 L170.799762,170.799762 L170.799762,207.399762 Z M170.799762,158.600238 L146.4,158.600238 L146.4,122.000238 L170.799762,122.000238 L170.799762,158.600238 Z M170.799762,109.8 L146.4,109.8 L146.4,73.2 L170.799762,73.2 L170.799762,109.8 Z M207.399762,353.799762 L183,353.799762 L183,317.199762 L207.399762,317.199762 L207.399762,353.799762 Z M207.399762,305.000238 L183,305.000238 L183,268.400238 L207.399762,268.400238 L207.399762,305.000238 Z M207.399762,256.2 L183,256.2 L183,219.6 L207.399762,219.6 L207.399762,256.2 Z M207.399762,207.399762 L183,207.399762 L183,170.799762 L207.399762,170.799762 L207.399762,207.399762 Z M207.399762,158.600238 L183,158.600238 L183,122.000238 L207.399762,122.000238 L207.399762,158.600238 Z M207.399762,109.8 L183,109.8 L183,73.2 L207.399762,73.2 L207.399762,109.8 Z M243.999762,353.799762 L219.6,353.799762 L219.6,317.199762 L243.999762,317.199762 L243.999762,353.799762 Z M243.999762,305.000238 L219.6,305.000238 L219.6,268.400238 L243.999762,268.400238 L243.999762,305.000238 Z M243.999762,256.2 L219.6,256.2 L219.6,219.6 L243.999762,219.6 L243.999762,256.2 Z M243.999762,207.399762 L219.6,207.399762 L219.6,170.799762 L243.999762,170.799762 L243.999762,207.399762 Z M243.999762,158.600238 L219.6,158.600238 L219.6,122.000238 L243.999762,122.000238 L243.999762,158.600238 Z M243.999762,109.8 L219.6,109.8 L219.6,73.2 L243.999762,73.2 L243.999762,109.8 Z M347.7,353.799762 L298.899762,353.799762 C295.538566,353.799762 292.8,351.061195 292.8,347.7 C292.8,344.338805 295.538566,341.600238 298.899762,341.600238 C300.070676,341.600238 301.180828,341.9355 302.205914,342.594586 C303.877219,343.668281 305.963848,343.863434 307.806,343.119281 C309.648152,342.375129 311.0085,340.776738 311.453848,338.843086 C312.741281,333.285891 317.615086,329.4 323.300238,329.4 C328.985391,329.4 333.859195,333.285891 335.146629,338.843086 C335.591977,340.776738 336.952324,342.375129 338.794477,343.119281 C340.636629,343.863434 342.722543,343.668281 344.394562,342.594586 C348.359801,340.032586 353.80691,343.167891 353.800477,347.7 C353.799762,351.061195 351.061195,353.799762 347.7,353.799762 Z" id="Shape"></path>
                <path d="M134.199762,42.6997617 L134.199762,24.3997617 L176.899523,24.3997617 C180.266438,24.3997617 182.999285,21.6669141 182.999285,18.3 L182.999285,12.2002383 L207.399047,12.2002383 L207.399047,18.3 C207.399047,21.6669141 210.131895,24.3997617 213.498809,24.3997617 L256.2,24.3997617 L256.2,36.6 L152.499762,36.6 C149.132848,36.6 146.4,39.3328477 146.4,42.6997617 C146.4,46.0666758 149.132848,48.7995234 152.499762,48.7995234 L304.999523,48.7995234 L304.999523,301.821328 C304.999523,305.188242 307.732371,307.92109 311.099285,307.92109 C314.466199,307.92109 317.199047,305.188242 317.199047,301.821328 L317.199047,42.6997617 C317.199047,39.3328477 314.466199,36.6 311.099285,36.6 L268.399523,36.6 L268.399523,18.3 C268.399523,14.9330859 265.666676,12.2002383 262.299762,12.2002383 L219.6,12.2002383 L219.6,6.09976172 C219.6,2.73284766 216.867152,0 213.500238,0 L176.900238,0 C173.533324,0 170.800477,2.73284766 170.800477,6.09976172 L170.800477,12.1995234 L128.1,12.1995234 C124.733086,12.1995234 122.000238,14.9323711 122.000238,18.2992852 L122.000238,36.5992852 L79.3004766,36.5992852 C75.9335625,36.5992852 73.2007148,39.3321328 73.2007148,42.6990469 L73.2007148,353.799047 L36.6,353.799047 L36.6,328.78309 C50.5015664,325.94659 60.9997617,313.630547 60.9997617,298.899047 C60.9997617,298.106285 60.6523477,219.599285 30.4995234,219.599285 C0.347414063,219.6 0,298.107 0,298.899762 C0,313.631262 10.4981953,325.947305 24.3997617,328.783805 L24.3997617,353.799762 L6.09976172,353.799762 C2.73284766,353.799762 1.26981758e-15,356.532609 1.26981758e-15,359.899523 C1.26981758e-15,363.266438 2.73284766,366 6.09976172,366 L79.2997617,366 C82.6666758,366 85.3995234,363.267152 85.3995234,359.900238 L85.3995234,48.8002383 L128.1,48.8002383 C131.466914,48.8002383 134.199762,46.0673906 134.199762,42.6997617 Z M12.2002383,298.899762 C12.2002383,268.509609 20.3623242,231.799523 30.5002383,231.799523 C40.6381523,231.799523 48.8002383,268.509609 48.8002383,298.899762 C48.8002383,308.989066 40.589543,317.199762 30.5002383,317.199762 C20.4109336,317.199762 12.2002383,308.989066 12.2002383,298.899762 Z" id="Shape"></path>
            </g>
            <g id="building" transform="translate(499.000000, 0.000000)" fill="#000000">
                <path d="M262.299762,341.600238 L91.5,341.600238 C88.1330859,341.600238 85.4002383,344.333086 85.4002383,347.7 L85.4002383,359.900238 C85.4002383,363.267152 88.1330859,366 91.5,366 C94.8669141,366 97.5997617,363.267152 97.5997617,359.900238 L97.5997617,353.800477 L262.299762,353.800477 C265.666676,353.800477 268.399523,351.067629 268.399523,347.700715 C268.399523,344.333801 265.667391,341.600238 262.299762,341.600238 Z" id="Path"></path>
                <path d="M134.199762,152.499762 C134.199762,155.866676 136.932609,158.599523 140.299523,158.599523 L164.7,158.599523 C168.066914,158.599523 170.799762,155.866676 170.799762,152.499762 L170.799762,115.899762 C170.799762,112.532848 168.066914,109.8 164.7,109.8 L140.300238,109.8 C136.933324,109.8 134.200477,112.532848 134.200477,115.899762 L134.200477,152.499762 L134.199762,152.499762 Z M146.4,122.000238 L158.600238,122.000238 L158.600238,146.4 L146.4,146.4 L146.4,122.000238 Z" id="Shape" fill-rule="nonzero"></path>
                <path d="M79.2997617,73.2 L6.09976172,73.2 C2.73284766,73.2 0,75.9328477 0,79.2997617 L0,201.3 C0,204.666914 2.73284766,207.399762 6.09976172,207.399762 C9.46667578,207.399762 12.1995234,204.666914 12.1995234,201.3 L12.1995234,85.4002383 L79.2997617,85.4002383 C82.6666758,85.4002383 85.3995234,82.6673906 85.3995234,79.3004766 C85.3995234,75.9335625 82.6673906,73.2 79.2997617,73.2 Z" id="Path"></path>
                <path d="M292.8,298.899762 C292.8,302.266676 295.532848,304.999523 298.899762,304.999523 L323.299523,304.999523 C326.666437,304.999523 329.399285,302.266676 329.399285,298.899762 L329.399285,262.299762 C329.399285,258.932848 326.666438,256.2 323.299523,256.2 L298.899762,256.2 C295.532848,256.2 292.8,258.932848 292.8,262.299762 L292.8,298.899762 Z M305.000238,268.400238 L317.200477,268.400238 L317.200477,292.8 L305.000238,292.8 L305.000238,268.400238 Z" id="Shape" fill-rule="nonzero"></path>
                <path d="M30.5002383,219.6 C0.347414063,219.6 0,298.107 0,298.899762 C0,313.631262 10.4981953,325.947305 24.3997617,328.783805 L24.3997617,359.900238 C24.3997617,363.267152 27.1326094,366 30.4995234,366 C33.8664375,366 36.5992852,363.267152 36.5992852,359.900238 L36.5992852,328.783805 C50.5008516,325.947305 60.9990469,313.631262 60.9990469,298.899762 C60.9997617,298.107 60.6523477,219.6 30.5002383,219.6 Z M30.5002383,317.199762 C20.4109336,317.199762 12.2002383,308.989066 12.2002383,298.899762 C12.2002383,268.509609 20.3623242,231.799523 30.5002383,231.799523 C40.6381523,231.799523 48.8002383,268.509609 48.8002383,298.899762 C48.8002383,308.989066 40.589543,317.199762 30.5002383,317.199762 Z" id="Shape" fill-rule="nonzero"></path>
                <path d="M67.1002383,183 L42.6997617,183 C39.3328477,183 36.6,185.732848 36.6,189.099762 L36.6,201.3 C36.6,204.666914 39.3328477,207.399762 42.6997617,207.399762 C46.0666758,207.399762 48.7995234,204.666914 48.7995234,201.3 L48.7995234,195.200238 L60.9997617,195.200238 L60.9997617,225.700477 C60.9997617,229.067391 63.7326094,231.800238 67.0995234,231.800238 C70.4664375,231.800238 73.1992852,229.067391 73.1992852,225.700477 L73.1992852,189.100477 C73.2,185.732848 70.4671523,183 67.1002383,183 Z" id="Path"></path>
                <path d="M298.899762,158.600238 L323.299523,158.600238 C326.666437,158.600238 329.399285,155.867391 329.399285,152.500477 L329.399285,115.900477 C329.399285,112.533563 326.666437,109.800715 323.299523,109.800715 L298.899762,109.800715 C295.532848,109.800715 292.8,112.533563 292.8,115.900477 L292.8,152.500477 C292.8,155.867391 295.532848,158.600238 298.899762,158.600238 Z M305.000238,122.000238 L317.200477,122.000238 L317.200477,146.4 L305.000238,146.4 L305.000238,122.000238 Z" id="Shape" fill-rule="nonzero"></path>
                <path d="M67.1002383,109.8 L42.6997617,109.8 C39.3328477,109.8 36.6,112.532848 36.6,115.899762 L36.6,152.499762 C36.6,155.866676 39.3328477,158.599523 42.6997617,158.599523 L67.0995234,158.599523 C70.4664375,158.599523 73.1992852,155.866676 73.1992852,152.499762 L73.1992852,115.899762 C73.2,112.532848 70.4671523,109.8 67.1002383,109.8 Z M60.9997617,146.4 L48.8002383,146.4 L48.8002383,122.000238 L61.0004766,122.000238 L61.0004766,146.4 L60.9997617,146.4 Z" id="Shape" fill-rule="nonzero"></path>
                <path d="M195.200238,152.499762 C195.200238,155.866676 197.933086,158.599523 201.3,158.599523 L225.699762,158.599523 C229.066676,158.599523 231.799523,155.866676 231.799523,152.499762 L231.799523,115.899762 C231.799523,112.532848 229.066676,109.8 225.699762,109.8 L201.3,109.8 C197.933086,109.8 195.200238,112.532848 195.200238,115.899762 L195.200238,152.499762 Z M207.399762,122.000238 L219.6,122.000238 L219.6,146.4 L207.399762,146.4 L207.399762,122.000238 Z" id="Shape" fill-rule="nonzero"></path>
                <path d="M359.900238,73.2 L286.700238,73.2 C283.333324,73.2 280.600477,75.9328477 280.600477,79.2997617 C280.600477,82.6666758 283.333324,85.3995234 286.700238,85.3995234 L353.800477,85.3995234 L353.800477,330.522305 C351.88541,329.838914 349.853824,329.4 347.700715,329.4 C346.645605,329.4 345.596215,329.4915 344.56541,329.6745 C340.35641,322.092152 332.347301,317.199762 323.300953,317.199762 C314.254605,317.199762 306.245496,322.092152 302.036496,329.6745 C301.005691,329.4915 299.956301,329.4 298.901191,329.4 C288.811887,329.4 280.601191,337.610695 280.601191,347.7 C280.601191,357.789305 288.811887,366 298.901191,366 L347.7,366 C357.789305,366 366,357.789305 366,347.7 L366,79.2997617 C366,75.9328477 363.267152,73.2 359.900238,73.2 Z M347.7,353.799762 L298.899762,353.799762 C295.538566,353.799762 292.8,351.061195 292.8,347.7 C292.8,344.338805 295.538566,341.600238 298.899762,341.600238 C300.070676,341.600238 301.180828,341.9355 302.205914,342.594586 C303.877219,343.668281 305.963848,343.863434 307.806,343.119281 C309.648152,342.375129 311.0085,340.776738 311.453848,338.843086 C312.741281,333.285891 317.615086,329.4 323.300238,329.4 C328.985391,329.4 333.859195,333.285891 335.146629,338.843086 C335.591977,340.776738 336.952324,342.375129 338.794477,343.119281 C340.63091,343.863434 342.722543,343.668281 344.394563,342.594586 C348.36552,340.032586 353.800477,343.167891 353.800477,347.7 C353.799762,351.061195 351.061195,353.799762 347.7,353.799762 Z" id="Shape" fill-rule="nonzero"></path>
                <path d="M201.3,85.4002383 L225.699762,85.4002383 C229.066676,85.4002383 231.799523,82.6673906 231.799523,79.3004766 L231.799523,42.7004766 C231.799523,39.3335625 229.066676,36.6007148 225.699762,36.6007148 L201.3,36.6007148 C197.933086,36.6007148 195.200238,39.3335625 195.200238,42.7004766 L195.200238,79.3004766 C195.200238,82.6673906 197.933086,85.4002383 201.3,85.4002383 Z M207.399762,48.8002383 L219.6,48.8002383 L219.6,73.2 L207.399762,73.2 L207.399762,48.8002383 Z" id="Shape" fill-rule="nonzero"></path>
                <path d="M195.200238,225.699762 C195.200238,229.066676 197.933086,231.799523 201.3,231.799523 L225.699762,231.799523 C229.066676,231.799523 231.799523,229.066676 231.799523,225.699762 L231.799523,189.099762 C231.799523,185.732848 229.066676,183 225.699762,183 L201.3,183 C197.933086,183 195.200238,185.732848 195.200238,189.099762 L195.200238,225.699762 Z M207.399762,195.200238 L219.6,195.200238 L219.6,219.6 L207.399762,219.6 L207.399762,195.200238 Z" id="Shape" fill-rule="nonzero"></path>
                <path d="M140.300238,85.4002383 L164.7,85.4002383 C168.066914,85.4002383 170.799762,82.6673906 170.799762,79.3004766 L170.799762,42.7004766 C170.799762,39.3335625 168.066914,36.6007148 164.7,36.6007148 L140.300238,36.6007148 C136.933324,36.6007148 134.200477,39.3335625 134.200477,42.7004766 L134.200477,79.3004766 C134.199762,82.6673906 136.932609,85.4002383 140.300238,85.4002383 Z M146.4,48.8002383 L158.600238,48.8002383 L158.600238,73.2 L146.4,73.2 L146.4,48.8002383 Z" id="Shape" fill-rule="nonzero"></path>
                <path d="M178.668762,294.569238 C177.570762,295.728 176.899523,297.314238 176.899523,298.900477 C176.899523,300.486715 177.570762,302.072238 178.668762,303.231715 C179.827523,304.329715 181.413762,305.000953 183,305.000953 C184.586238,305.000953 186.171762,304.329715 187.331238,303.231715 C188.429238,302.072953 189.100477,300.486715 189.100477,298.900477 C189.100477,297.314238 188.429238,295.728715 187.331238,294.569238 C185.013,292.311762 180.987,292.311762 178.668762,294.569238 Z" id="Path"></path>
                <path d="M134.199762,225.699762 C134.199762,229.066676 136.932609,231.799523 140.299523,231.799523 L164.7,231.799523 C168.066914,231.799523 170.799762,229.066676 170.799762,225.699762 L170.799762,189.099762 C170.799762,185.732848 168.066914,183 164.7,183 L140.300238,183 C136.933324,183 134.200477,185.732848 134.200477,189.099762 L134.200477,225.699762 L134.199762,225.699762 Z M146.4,195.200238 L158.600238,195.200238 L158.600238,219.6 L146.4,219.6 L146.4,195.200238 Z" id="Shape" fill-rule="nonzero"></path>
                <path d="M122.000238,262.299762 C122.000238,265.666676 124.733086,268.399523 128.1,268.399523 L146.4,268.399523 L146.4,323.299523 C146.4,326.666438 149.132848,329.399285 152.499762,329.399285 C155.866676,329.399285 158.599523,326.666438 158.599523,323.299523 L158.599523,268.399523 L207.399762,268.399523 L207.399762,323.299523 C207.399762,326.666438 210.132609,329.399285 213.499523,329.399285 C216.866438,329.399285 219.599285,326.666438 219.599285,323.299523 L219.599285,268.399523 L237.899285,268.399523 C241.266199,268.399523 243.999047,265.666676 243.999047,262.299762 C243.999047,258.932848 241.266199,256.2 237.899285,256.2 L128.1,256.2 C124.733086,256.2 122.000238,258.932848 122.000238,262.299762 Z" id="Path"></path>
                <path d="M292.8,225.699762 C292.8,229.066676 295.532848,231.799523 298.899762,231.799523 L323.299523,231.799523 C326.666437,231.799523 329.399285,229.066676 329.399285,225.699762 L329.399285,189.099762 C329.399285,185.732848 326.666438,183 323.299523,183 L298.899762,183 C295.532848,183 292.8,185.732848 292.8,189.099762 L292.8,225.699762 Z M305.000238,195.200238 L317.200477,195.200238 L317.200477,219.6 L305.000238,219.6 L305.000238,195.200238 Z" id="Shape" fill-rule="nonzero"></path>
                <path d="M262.299762,0 L103.700238,0 C100.333324,0 97.6004766,2.73284766 97.6004766,6.09976172 L97.6004766,323.299523 C97.6004766,326.666438 100.333324,329.399285 103.700238,329.399285 C107.067152,329.399285 109.8,326.666438 109.8,323.299523 L109.8,12.1995234 L256.2,12.1995234 L256.2,323.299523 C256.2,326.666438 258.932848,329.399285 262.299762,329.399285 C265.666676,329.399285 268.399523,326.666438 268.399523,323.299523 L268.399523,6.09976172 C268.400238,2.73284766 265.667391,0 262.299762,0 Z" id="Path"></path>
            </g>
            <g id="Group" transform="translate(234.000000, 0.000000)">
                <rect id="Rectangle" fill="#FFFFFF" x="9.29277567" y="146.542969" width="365.992395" height="219.457031"></rect>
                <g id="university" fill="#000000">
                    <path d="M143.489749,225.699762 C143.489749,229.066676 146.22254,231.799523 149.589384,231.799523 L173.989354,231.799523 C177.356198,231.799523 180.088989,229.066676 180.088989,225.699762 L180.088989,189.099762 C180.088989,185.732848 177.356198,183 173.989354,183 L149.590099,183 C146.223255,183 143.490464,185.732848 143.490464,189.099762 L143.490464,225.699762 L143.489749,225.699762 Z M155.689734,195.200238 L167.889719,195.200238 L167.889719,219.6 L155.689734,219.6 L155.689734,195.200238 Z" id="Shape" fill-rule="nonzero"></path>
                    <path d="M149.590099,158.600238 L173.989354,158.600238 C177.356198,158.600238 180.088989,155.867391 180.088989,152.500477 L180.088989,115.900477 C180.088989,112.533563 177.356198,109.800715 173.989354,109.800715 L149.590099,109.800715 C146.223255,109.800715 143.490464,112.533563 143.490464,115.900477 L143.490464,152.500477 C143.489749,155.867391 146.22254,158.600238 149.590099,158.600238 Z M155.689734,122.000238 L167.889719,122.000238 L167.889719,146.4 L155.689734,146.4 L155.689734,122.000238 Z" id="Shape" fill-rule="nonzero"></path>
                    <path d="M103.898703,115.027652 L191.93156,62.0126953 L279.964417,115.027652 C280.942995,115.619543 282.024844,115.899762 283.088175,115.899762 C285.1543,115.899762 287.166296,114.844652 288.302985,112.941023 C290.035083,110.04948 289.099237,106.304414 286.224753,104.571633 L198.008858,51.4473047 L198.008858,12.2002383 L228.39677,12.2002383 L228.39677,24.4004766 L210.164165,24.4004766 C206.809651,24.4004766 204.086868,27.1333242 204.086868,30.5002383 C204.086868,33.8671523 206.809651,36.6 210.164165,36.6 L234.474068,36.6 C237.828582,36.6 240.551365,33.8671523 240.551365,30.5002383 L240.551365,6.09976172 C240.551365,2.73284766 237.828582,0 234.474068,0 L191.93156,0 C188.577046,0 185.854263,2.73284766 185.854263,6.09976172 L185.854263,51.4473047 L97.6390794,104.572348 C94.7645953,106.304414 93.8287498,110.050195 95.5608473,112.941738 C97.280125,115.826848 101.023507,116.766152 103.898703,115.027652 Z" id="Path"></path>
                    <path d="M76.3916198,231.800238 C79.7584639,231.800238 82.4912548,229.067391 82.4912548,225.700477 L82.4912548,189.100477 C82.4912548,185.733563 79.7584639,183.000715 76.3916198,183.000715 L51.9916502,183.000715 C48.6248061,183.000715 45.8920152,185.733563 45.8920152,189.100477 L45.8920152,201.3 C45.8920152,204.666914 48.6248061,207.399762 51.9916502,207.399762 C55.3584943,207.399762 58.0912852,204.666914 58.0912852,201.3 L58.0912852,195.200238 L70.29127,195.200238 L70.29127,225.700477 C70.29127,229.067391 73.0240608,231.800238 76.3916198,231.800238 Z" id="Path"></path>
                    <path d="M119.090494,311.1 L119.090494,134.199762 C119.090494,130.832848 116.357703,128.1 112.990859,128.1 C109.624015,128.1 106.891224,130.832848 106.891224,134.199762 L106.891224,311.1 C106.891224,314.466914 109.624015,317.199762 112.990859,317.199762 C116.357703,317.199762 119.090494,314.466914 119.090494,311.1 Z" id="Path"></path>
                    <path d="M88.5908897,341.600238 L295.986342,341.600238 C299.353186,341.600238 302.085977,338.867391 302.085977,335.500477 C302.085977,332.133563 299.353186,329.400715 295.986342,329.400715 L241.087483,329.400715 L241.087483,268.400953 L247.187118,268.400953 C250.553962,268.400953 253.286753,265.668105 253.286753,262.301191 C253.286753,258.934277 250.553962,256.20143 247.187118,256.20143 L137.390114,256.20143 C134.02327,256.20143 131.290479,258.934277 131.290479,262.301191 C131.290479,265.668105 134.02327,268.400953 137.390114,268.400953 L143.489749,268.400953 L143.489749,329.4 L88.5908897,329.4 C85.2240456,329.4 82.4912548,332.132848 82.4912548,335.499762 C82.4912548,338.866676 85.2240456,341.600238 88.5908897,341.600238 Z M198.388608,305.000238 C201.755452,305.000238 204.488243,302.267391 204.488243,298.900477 C204.488243,295.533563 201.755452,292.800715 198.388608,292.800715 L198.388608,268.400953 L228.888213,268.400953 L228.888213,329.4 L198.388608,329.4 L198.388608,305.000238 Z M155.689734,268.400238 L186.189338,268.400238 L186.189338,292.8 C182.822494,292.8 180.089703,295.532848 180.089703,298.899762 C180.089703,302.266676 182.822494,304.999523 186.189338,304.999523 L186.189338,329.4 L155.689734,329.4 L155.689734,268.400238 Z" id="Shape" fill-rule="nonzero"></path>
                    <path d="M332.586297,262.299762 L308.187042,262.299762 C304.820198,262.299762 302.087407,265.032609 302.087407,268.399523 L302.087407,304.999523 C302.087407,308.366438 304.820198,311.099285 308.187042,311.099285 L332.586297,311.099285 C335.953141,311.099285 338.685932,308.366438 338.685932,304.999523 L338.685932,268.399523 C338.685932,265.032609 335.953141,262.299762 332.586297,262.299762 Z M326.485947,298.899762 L314.285962,298.899762 L314.285962,274.5 L326.485947,274.5 L326.485947,298.899762 Z" id="Shape" fill-rule="nonzero"></path>
                    <path d="M332.586297,189.099762 L308.187042,189.099762 C304.820198,189.099762 302.087407,191.832609 302.087407,195.199523 L302.087407,231.799523 C302.087407,235.166438 304.820198,237.899285 308.187042,237.899285 L332.586297,237.899285 C335.953141,237.899285 338.685932,235.166438 338.685932,231.799523 L338.685932,195.199523 C338.685932,191.832609 335.953141,189.099762 332.586297,189.099762 Z M326.485947,225.699762 L314.285962,225.699762 L314.285962,201.3 L326.485947,201.3 L326.485947,225.699762 Z" id="Shape" fill-rule="nonzero"></path>
                    <path d="M319.070426,353.799762 L7.60638024,353.799762 C3.5132004,353.799762 0.190859316,356.532609 0.190859316,359.899523 C0.190859316,363.266438 3.5132004,366 7.60638024,366 L319.070426,366 C323.163606,366 326.485947,363.267152 326.485947,359.900238 C326.485947,356.533324 323.163606,353.799762 319.070426,353.799762 Z" id="Path"></path>
                    <path d="M369.185536,134.199762 C365.818692,134.199762 363.085901,136.932609 363.085901,140.299523 L363.085901,146.399285 L295.987057,146.399285 C292.620213,146.399285 289.887422,149.132133 289.887422,152.499047 C289.887422,155.865961 292.620213,158.598809 295.987057,158.598809 L363.085901,158.598809 L363.085901,359.898809 C363.085901,363.265723 365.818692,365.99857 369.185536,365.99857 C372.55238,365.99857 375.285171,363.265723 375.285171,359.898809 L375.285171,140.298809 C375.285171,136.932609 372.55238,134.199762 369.185536,134.199762 Z" id="Path"></path>
                    <path d="M204.488958,225.699762 C204.488958,229.066676 207.221749,231.799523 210.588593,231.799523 L234.987848,231.799523 C238.354692,231.799523 241.087483,229.066676 241.087483,225.699762 L241.087483,189.099762 C241.087483,185.732848 238.354692,183 234.987848,183 L210.588593,183 C207.221749,183 204.488958,185.732848 204.488958,189.099762 L204.488958,225.699762 Z M216.688228,195.200238 L228.888213,195.200238 L228.888213,219.6 L216.688228,219.6 L216.688228,195.200238 Z" id="Shape" fill-rule="nonzero"></path>
                    <path d="M70.29127,298.899762 C70.29127,298.107 69.9438631,219.6 39.7916654,219.6 C9.64018251,219.6 9.29277567,298.107 9.29277567,298.899762 C9.29277567,313.631262 19.7907529,325.947305 33.6920304,328.783805 L33.6920304,359.900238 C33.6920304,363.267152 36.4248213,366 39.7916654,366 C43.1585095,366 45.8913004,363.267152 45.8913004,359.900238 L45.8913004,328.783805 C59.7932928,325.947305 70.29127,313.631262 70.29127,298.899762 Z M39.7923802,317.199762 C29.7032852,317.199762 21.4927605,308.989066 21.4927605,298.899762 C21.4927605,268.509609 29.6546768,231.799523 39.7923802,231.799523 C49.9300837,231.799523 58.092,268.509609 58.092,298.899762 C58.092,308.989066 49.8814753,317.199762 39.7923802,317.199762 Z" id="Shape" fill-rule="nonzero"></path>
                    <path d="M277.687437,311.1 L277.687437,128.1 C277.687437,124.733086 274.954646,122.000238 271.587802,122.000238 C268.220958,122.000238 265.488167,124.733086 265.488167,128.1 L265.488167,311.1 C265.488167,314.466914 268.220958,317.199762 271.587802,317.199762 C274.954646,317.199762 277.687437,314.466914 277.687437,311.1 Z" id="Path"></path>
                    <path d="M210.588593,158.600238 L234.987848,158.600238 C238.354692,158.600238 241.087483,155.867391 241.087483,152.500477 L241.087483,115.900477 C241.087483,112.533563 238.354692,109.800715 234.987848,109.800715 L210.588593,109.800715 C207.221749,109.800715 204.488958,112.533563 204.488958,115.900477 L204.488958,152.500477 C204.488958,155.867391 207.221749,158.600238 210.588593,158.600238 Z M216.688228,122.000238 L228.888213,122.000238 L228.888213,146.4 L216.688228,146.4 L216.688228,122.000238 Z" id="Shape" fill-rule="nonzero"></path>
                    <path d="M15.3924106,213.500238 C18.7592548,213.500238 21.4920456,210.767391 21.4920456,207.400477 L21.4920456,158.600238 L88.5908897,158.600238 C91.9577338,158.600238 94.6905247,155.867391 94.6905247,152.500477 C94.6905247,149.133563 91.9577338,146.400715 88.5908897,146.400715 L21.4927605,146.400715 L21.4927605,140.300953 C21.4927605,136.934039 18.7599696,134.201191 15.3931255,134.201191 C12.0262814,134.201191 9.29277567,136.932609 9.29277567,140.300238 C9.29277567,164.47267 9.29277567,182.601994 9.29277567,194.68821 C9.29277567,197.513158 9.29277567,201.75058 9.29277567,207.400477 C9.29277567,210.767391 12.0255665,213.500238 15.3924106,213.500238 Z" id="Path"></path>
                </g>
            </g>
            <rect id="Rectangle" fill="#000000" x="244" y="207" width="12" height="152"></rect>
        </g>
        <text id="FAMU-INTERNATIONAL" font-family="GillSans, Gill Sans" font-size="58" font-weight="normal" letter-spacing="-0.22132349" fill="#000000">
            <tspan x="193" y="304">FAMU INTERNATIONAL</tspan>
        </text>
    </g>
</svg>