<?xml version="1.0" encoding="UTF-8"?>
<svg width="446px" height="216px" viewBox="0 0 446 216" version="1.1" xmlns="http://www.w3.org/2000/svg" xmlns:xlink="http://www.w3.org/1999/xlink">
    <!-- Generator: Sketch 52.6 (67491) - http://www.bohemiancoding.com/sketch -->
    <title>hand</title>
    <desc>Created with Sketch.</desc>
    <g id="hand" stroke="none" stroke-width="1" fill="none" fill-rule="evenodd">
        <g id="Group" transform="translate(27.000000, 22.000000)">
            <path d="M305.093766,43.1620649 C322.063953,35.3971808 335.67805,30.5323149 345.936058,28.5674671 C356.194067,26.6026193 367.978291,26.6026193 381.288731,28.5674671 L381.288731,124.870635 C341.109605,130.90873 313.680698,134.471769 299.00201,135.559753 C285.688967,136.546516 270.240649,157.969742 262.694751,158 C257.743414,158.019854 246.567701,159.734133 231.842292,152.313225 C221.224444,146.962333 193.934089,134.857925 149.971228,116 C118.269832,103.284514 101.994906,93.8463818 101.146449,87.6856031 C101.146449,87.6856031 57.7883125,102.996666 36.1018868,106.341836 C24.3977801,108.147216 18.7662443,93.9442956 17.9755744,92.1694045 C16.6468742,89.1867463 9.14129148,75.1473152 24.6716029,65.8822917 C40.9320561,56.1816826 80.3512883,51.2434513 82.9920366,48.1925908 C88.6158179,41.6954277 97.2201327,35.9100647 105.110387,32.2051881 C122.755751,23.919791 149.69251,8.99702344 188,11.9780853 C204.724094,13.2795425 237.718513,35.984094 277,48.2921864 C283.839432,50.4351897 293.204021,48.7251492 305.093766,43.1620649 Z" id="Rectangle" fill="#FFFFFF"></path>
            <g id="payment-method" transform="translate(196.500000, 86.000000) rotate(180.000000) translate(-196.500000, -86.000000) " fill="#000000">
                <path d="M146.263086,70.1981797 C146.152891,69.6556797 145.991836,69.1216563 145.779922,68.6045859 C145.568008,68.0959922 145.305234,67.6043516 145.000078,67.1466172 C144.694922,66.6804063 144.338906,66.2481016 143.948984,65.8581797 C143.559062,65.4682578 143.126758,65.1122422 142.660547,64.8070859 C142.202812,64.5019297 141.711172,64.2391563 141.194102,64.0272422 C140.685508,63.8153281 140.151484,63.6457969 139.608984,63.5440781 C138.515508,63.3236875 137.388125,63.3236875 136.303125,63.5440781 C135.760625,63.6457969 135.226602,63.8153281 134.709531,64.0272422 C134.200937,64.2391563 133.709297,64.5019297 133.251562,64.8070859 C132.785352,65.1122422 132.353047,65.4682578 131.963125,65.8581797 C131.573203,66.2481016 131.217187,66.6804063 130.912031,67.1466172 C130.598398,67.6043516 130.344102,68.0959922 130.132187,68.6045859 C129.920273,69.1216563 129.750742,69.6556797 129.649023,70.1981797 C129.538828,70.7406797 129.479492,71.3001328 129.479492,71.8511094 C129.479492,72.4020859 129.538828,72.9615391 129.649023,73.5040391 C129.750742,74.0465391 129.920273,74.5805625 130.132187,75.0891563 C130.344102,75.6062266 130.598398,76.0978672 130.912031,76.5556016 C131.217187,77.0218125 131.573203,77.4541172 131.963125,77.8440391 C132.353047,78.2339609 132.785352,78.5899766 133.251562,78.8951328 C133.709297,79.2011367 134.200937,79.4639102 134.709531,79.6758242 C135.226602,79.8877383 135.760625,80.0572695 136.303125,80.1589883 C136.845625,80.2691836 137.405078,80.3285195 137.956055,80.3285195 C138.507031,80.3285195 139.066484,80.2691836 139.608984,80.1589883 C140.151484,80.0572695 140.685508,79.8877383 141.194102,79.6758242 C141.711172,79.4639102 142.202812,79.2002891 142.660547,78.8951328 C143.126758,78.5899766 143.559062,78.2339609 143.948984,77.8440391 C144.338906,77.4541172 144.694922,77.0218125 145.000078,76.5556016 C145.305234,76.0978672 145.568008,75.6062266 145.779922,75.0891563 C145.991836,74.5805625 146.152891,74.0465391 146.263086,73.5040391 C146.373281,72.9615391 146.432617,72.4020859 146.432617,71.8511094 C146.432617,71.3001328 146.373281,70.7406797 146.263086,70.1981797 Z" id="Path"></path>
                <path d="M389.915941,72.8089609 C389.882883,72.7241953 389.848977,72.6402773 389.813375,72.557207 C382.011547,54.3012344 363.714039,47.5538906 342.059812,54.9496914 L283.005297,71.2806367 C279.590937,60.9409258 271.074535,52.1422539 259.03273,47.6734102 C258.958137,47.6462852 258.883543,47.6191602 258.808102,47.5937305 L193.893738,25.5614492 C188.490777,18.5776094 171.566473,0.707320313 139.878539,0.707320313 C117.73352,0.707320313 98.1433359,15.8990156 86.935625,32.4579805 L8.4765625,32.4579805 C3.79495703,32.4579805 0,36.2529375 0,40.934543 L0,147.8045 C0,152.486105 3.79495703,156.281063 8.4765625,156.281063 L58.8756602,156.281063 C63.5572656,156.281063 67.3522227,152.486105 67.3522227,147.8045 L67.3522227,140.485836 L90.9874219,140.485836 C95.6690273,140.485836 99.4639844,136.690879 99.4639844,132.009273 L99.4639844,129.569719 C113.241789,130.771695 117.773359,133.38502 130.427172,140.681645 C140.158266,146.293129 154.865949,154.77393 181.351816,166.682652 C181.474727,166.73775 181.599332,166.790305 181.723937,166.839469 C186.807332,168.83909 196.744406,171.980504 208.995582,171.980504 C217.523004,171.980504 227.17357,170.457266 237.079281,165.96723 L367.610715,119.230855 C367.842973,119.147785 368.07184,119.054543 368.295621,118.951129 C380.770578,113.211648 399.360527,97.0358242 389.915941,72.8089609 Z M50.3990977,139.32709 L16.953125,139.32709 L16.953125,49.4102578 L50.3990977,49.4102578 L50.3990977,139.32709 Z M82.5108594,123.531863 L67.3522227,123.531863 L67.3522227,49.4102578 L82.5108594,49.4102578 L82.5108594,123.531863 Z M361.522,103.40257 L231.049055,150.117754 C230.934621,150.158441 230.7795,150.219473 230.666762,150.265246 C230.552328,150.311867 230.437895,150.361031 230.325156,150.412738 C212.153949,158.763848 194.881258,153.764371 188.111875,151.132398 C162.527914,139.620379 148.87302,131.7465 138.896105,125.993457 C125.025059,117.994973 118.341289,114.139832 99.4639844,112.580992 L99.4639844,44.3090625 C107.498918,31.139875 123.080535,17.6595977 139.879387,17.6595977 C168.687832,17.6595977 180.89493,36.3970391 181.374703,37.1531484 C182.409691,38.8365938 184.000742,40.1055352 185.87152,40.7404297 L253.239,63.6051094 C263.998301,67.6433438 269.684379,76.8573672 267.071055,86.0459609 C265.86484,90.2893281 263.077746,93.8087969 259.224301,95.9559102 C255.403914,98.084375 250.987625,98.6107695 246.778164,97.4460898 L170.834098,73.3794336 C166.368645,71.9646953 161.606512,74.4364609 160.192621,78.8993711 C158.777883,83.3622813 161.249648,88.1261094 165.712559,89.5408477 L241.788859,113.649039 C241.869387,113.674469 241.949914,113.699051 242.031289,113.721938 C245.068441,114.585699 248.160691,115.012918 251.234293,115.012918 C256.861035,115.012918 262.425898,113.579531 267.476234,110.765313 C275.285691,106.414293 280.932777,99.2821133 283.377418,90.6826406 C283.572379,89.9960391 283.745301,89.3094375 283.895336,88.6228359 L347.53991,70.9915859 C356.731895,67.8518672 368.798281,66.7202461 374.170727,79.0934844 C379.731352,93.6197695 365.278812,101.610625 361.522,103.40257 Z" id="Shape" fill-rule="nonzero"></path>
            </g>
        </g>
    </g>
</svg>