<?xml version="1.0" encoding="UTF-8"?>
<svg width="446px" height="309px" viewBox="0 0 446 309" version="1.1" xmlns="http://www.w3.org/2000/svg" xmlns:xlink="http://www.w3.org/1999/xlink">
    <!-- Generator: Sketch 52.6 (67491) - http://www.bohemiancoding.com/sketch -->
    <title>hand_DOP</title>
    <desc>Created with Sketch.</desc>
    <g id="hand_DOP" stroke="none" stroke-width="1" fill="none" fill-rule="evenodd">
        <g id="Group" transform="translate(22.000000, 21.000000)">
            <path d="M312.095903,54.5717814 C329.066089,46.8068974 342.680186,41.9420314 352.938195,39.9771837 C363.196203,38.0123359 374.980427,38.0123359 388.290867,39.9771837 L388.290867,136.280352 C348.111741,142.318446 320.682834,145.881485 306.004146,146.96947 C292.691103,147.956233 277.242785,169.379459 269.696887,169.409717 C268.170049,169.415839 258.493245,166.882321 245.884776,178.532822 C217.60562,204.663381 173.184552,257.345803 163,252.213272 C152.382152,246.862381 122.715485,214.879129 74,156.263517 C60.8460803,149.102186 53.8448922,142.441131 52.9964356,136.280352 C52.9964356,136.280352 17.6016949,107.408702 16.8110249,105.633811 C15.4823248,102.651152 16.1434276,86.5570317 31.673739,77.2920082 C47.9341922,67.5913991 95.942423,20.8278605 98.5831714,17.777 C104.206953,11.279837 122.836822,43.6820603 130.727077,39.9771837 C148.372441,31.6917865 156.694646,20.40674 195.002136,23.3878018 C211.72623,24.689259 244.720649,47.3938106 284.002136,59.7019029 C290.841568,61.8449062 300.206157,60.1348658 312.095903,54.5717814 Z" id="Rectangle" fill="#FFFFFF"></path>
            <g id="payment-method" fill="#000000">
                <path d="M274.8385,108.83996 C274.728,108.295824 274.5665,107.76019 274.3455,107.24156 C274.133,106.731433 273.878,106.23831 273.5635,105.779195 C273.2575,105.311578 272.9005,104.877969 272.5095,104.486872 C272.1185,104.095774 271.685,103.738685 271.2175,103.432608 C270.7585,103.126532 270.2655,102.862966 269.7555,102.650413 C269.237,102.437859 268.7015,102.267817 268.166,102.165791 C267.0695,101.944736 265.939,101.944736 264.8425,102.165791 C264.2985,102.267817 263.763,102.437859 263.253,102.650413 C262.7345,102.862966 262.2415,103.126532 261.7825,103.432608 C261.315,103.738685 260.8815,104.095774 260.4905,104.486872 C260.0995,104.877969 259.7425,105.311578 259.4365,105.779195 C259.1305,106.23831 258.867,106.731433 258.6545,107.24156 C258.442,107.76019 258.272,108.295824 258.17,108.83996 C258.0595,109.384096 258,109.945236 258,110.497874 C258,111.050513 258.0595,111.611653 258.17,112.155789 C258.272,112.699925 258.442,113.235559 258.6545,113.745686 C258.867,114.264316 259.1305,114.757439 259.4365,115.216554 C259.7425,115.684171 260.0995,116.117779 260.4905,116.508877 C260.8815,116.899975 261.315,117.257064 261.7825,117.563141 C262.2415,117.869217 262.7345,118.132783 263.253,118.345336 C263.763,118.557889 264.2985,118.71943 264.8425,118.829957 C265.3865,118.940485 265.9475,119 266.5,119 C267.0525,119 267.6135,118.940485 268.166,118.829957 C268.7015,118.71943 269.237,118.557889 269.7555,118.345336 C270.2655,118.132783 270.7585,117.869217 271.2175,117.563141 C271.685,117.257064 272.1185,116.899975 272.5095,116.508877 C272.9005,116.117779 273.2575,115.684171 273.5635,115.216554 C273.878,114.757439 274.133,114.264316 274.3455,113.745686 C274.5665,113.235559 274.728,112.699925 274.8385,112.155789 C274.949,111.611653 275,111.050513 275,110.497874 C275,109.945236 274.949,109.384096 274.8385,108.83996 Z" id="Path"></path>
                <path d="M394.644366,28.1390882 L344.96427,28.1390882 C340.349453,28.1390882 336.608635,31.8588126 336.608635,36.4476083 L336.608635,43.6211845 L313.310619,43.6211845 C308.695802,43.6211845 304.954985,47.340909 304.954985,51.9297046 L304.954985,54.3208967 C291.373737,53.1419177 286.906814,50.5812318 274.434359,43.4292577 C264.84209,37.9290174 250.344229,29.616343 224.235378,17.9437031 C224.114221,17.8888669 223.992229,17.8381849 223.86773,17.7899955 C215.369214,14.4649258 193.095599,7.92279705 169.306272,18.6432805 L135.683199,30.6141963 L107.341722,2.43335782 C104.078847,-0.811119275 98.7880594,-0.811119275 95.5251842,2.43335782 L2.4785096,94.9545451 C-0.531189939,97.9481049 -1.10856428,103.138437 2.4785096,106.705285 L161.475372,264.805621 C164.019662,267.336397 169.97723,268.101611 173.292746,264.805621 L258.240304,180.337883 C260.448698,180.527317 262.740648,180.629512 265.116155,180.629512 C286.946086,180.629512 306.255957,165.738982 317.302942,149.509119 L394.644366,149.509119 C399.259182,149.509119 403,145.789394 403,141.200599 L403,36.4476083 C403,31.8588126 399.259182,28.1390882 394.644366,28.1390882 Z M198.463259,216.277217 L167.199894,247.591243 L136.305694,216.277217 L51.2862774,131.736364 L18.5638029,100.308878 L51.2862774,69.9226357 L70.3513286,50.9659163 L101.348711,19.6664222 L132.515578,50.9659163 L150.58798,68.9364144 C146.688405,69.5088714 142.885756,70.7867218 139.339625,72.7516868 C133.350306,76.0701098 128.651097,81.0394356 125.724954,87.0514808 C123.543024,89.3948582 119.660752,114.761661 142.114257,128.309839 C156.56654,137.030174 180.481933,145.673075 180.481933,145.673075 C188.533356,149.494193 197.074807,153.572341 206.106287,157.90752 C219.653506,164.410289 231.00966,166.834495 233.45378,174.438182 C235.083193,179.507307 229.780273,187.12893 217.545021,197.30305 L198.463259,216.277217 Z M304.954149,137.887992 C297.034679,150.79777 281.675352,164.01081 265.116155,164.01081 C262.017886,164.01081 259.114303,163.791465 256.399557,163.400965 C256.388695,163.399303 256.377833,163.397641 256.36697,163.395979 C238.322142,160.789597 228.615401,150.591719 225.416029,146.553778 C225.245574,146.304523 224.519469,145.359844 224.411682,145.202813 C223.43825,143.472979 221.842324,142.082133 219.806892,141.395018 L153.372913,118.974477 C142.771284,115.017959 137.16716,105.990752 139.735682,96.98764 C139.737353,96.981824 139.739024,96.976008 139.740695,96.9701921 C139.743202,96.9635453 139.744873,96.9560676 139.746544,96.9494208 C140.940564,92.8034692 143.682884,89.3645728 147.472999,87.2650097 C151.238048,85.1787403 155.590498,84.6611195 159.741577,85.8052028 L234.602214,109.393922 C239.002291,110.782276 243.698157,108.35785 245.091877,103.983414 C246.485597,99.6089781 244.04993,94.9395898 239.650688,93.5528978 L180.112614,74.7922594 L179.592894,74.2754694 C179.587881,74.2704843 179.582867,74.2646683 179.577018,74.2596832 L148.753083,43.6095526 L175.247128,34.1760589 C175.336534,34.1436556 175.446828,34.1029439 175.535398,34.0672173 C175.557958,34.0580779 175.601407,34.0414608 175.623132,34.0323215 C175.736769,33.9866246 175.848734,33.9384352 175.959864,33.8877532 C193.871002,25.7021992 210.896443,30.6017335 217.570088,33.1823599 C242.7899,44.466161 256.250827,52.1839453 266.085409,57.8229379 C279.758569,65.6636883 286.346987,69.4415724 304.954149,70.9695093 L304.954149,137.887992 Z M336.608635,132.890417 L321.666254,132.890417 L321.666254,60.2382247 L336.608635,60.2382247 L336.608635,132.890417 Z M386.288731,132.890417 L353.319904,132.890417 L353.319904,44.7561284 L386.288731,44.7561284 L386.288731,132.890417 Z" id="Shape" fill-rule="nonzero"></path>
            </g>
            <text id="D.o.P" transform="translate(85.194174, 80.123106) rotate(-45.000000) translate(-85.194174, -80.123106) " font-family="GillSans-Bold, Gill Sans" font-size="32" font-weight="bold" letter-spacing="-0.122109599" fill="#000000">
                <tspan x="41.6941738" y="91.123106">D.o.P</tspan>
            </text>
        </g>
    </g>
</svg>