<?xml version="1.0" encoding="UTF-8"?>
<svg width="545px" height="435px" viewBox="0 0 545 435" version="1.1" xmlns="http://www.w3.org/2000/svg" xmlns:xlink="http://www.w3.org/1999/xlink">
    <!-- Generator: Sketch 52.6 (67491) - http://www.bohemiancoding.com/sketch -->
    <title>hat</title>
    <desc>Created with Sketch.</desc>
    <g id="hat" stroke="none" stroke-width="1" fill="none" fill-rule="evenodd">
        <g id="Group" transform="translate(17.000000, 18.000000)">
            <path d="M150.886423,299 L172.690757,270.767891 L199.315203,129.00254 C215.760633,109.03886 228.859218,94.3971487 238.610961,85.0774067 C245.806602,78.2005315 254.305486,70.470737 264.345246,63.1879841 C266.722857,61.4632864 270.508326,59.0672918 275.701652,56 L314.723825,42 L285.279965,117.658394 L348.33502,292.737868 L496.84,385.970516 L186.022104,385.970516 L217.38574,338.109536 C171.472865,363.666369 136.486405,379.620029 112.42636,385.970516 C88.3663144,392.321002 55.933478,392.321002 15.1278504,385.970516 L150.886423,299 Z" id="Rectangle" fill="#FFFFFF"></path>
            <g id="witch-hat" fill="#000000">
                <path d="M358.511719,289.488281 L296.484375,126.339844 L345.140625,-2.84217094e-14 L259.921875,65.191406 L269.066406,77.128906 L312.074219,44.5 L283.402344,119.3125 L256.5,119.3125 L256.5,134.34375 L283.382812,134.34375 L341.785156,287.644531 L287.5625,287.644531 L287.5625,262.59375 L312.609375,262.59375 L312.609375,247.566406 L177.027344,247.566406 L199.222656,130.804688 L253.050781,89.515625 L243.921875,77.511719 L185.53125,122.132812 L153.324219,289.890625 L0,378.496094 L0,398.859375 L113.992188,398.859375 L187.597656,362.058594 L161.949219,398.859375 L512,398.859375 L512,378.496094 L358.511719,289.488281 Z M239.46875,262.59375 L272.53125,262.59375 L272.53125,287.644531 L239.46875,287.644531 L239.46875,262.59375 Z M174.167969,262.59375 L224.4375,262.59375 L224.4375,287.644531 L169.394531,287.644531 L174.167969,262.59375 Z M190.742188,383.832031 L224.261719,335.738281 L206.632812,335.738281 L110.445312,383.832031 L22.148438,383.832031 L162.332031,302.671875 L350.671875,302.671875 L490.855469,383.832031 L190.742188,383.832031 Z" id="Shape" fill-rule="nonzero"></path>
                <polygon id="Path" points="344.671875 327.722656 360.703125 327.722656 360.703125 342.75 344.671875 342.75"></polygon>
                <polygon id="Path" points="328.640625 311.691406 344.671875 311.691406 344.671875 326.71875 328.640625 326.71875"></polygon>
                <polygon id="Path" points="200.390625 223.519531 216.421875 223.519531 216.421875 238.546875 200.390625 238.546875"></polygon>
            </g>
        </g>
    </g>
</svg>