<?xml version="1.0" encoding="UTF-8"?>
<svg width="119px" height="119px" viewBox="0 0 119 119" version="1.1" xmlns="http://www.w3.org/2000/svg" xmlns:xlink="http://www.w3.org/1999/xlink">
    <!-- Generator: Sketch 52.6 (67491) - http://www.bohemiancoding.com/sketch -->
    <title>moon</title>
    <desc>Created with Sketch.</desc>
    <g id="moon" stroke="none" stroke-width="1" fill="none" fill-rule="evenodd">
        <path d="M61,115 C81.9868205,115 99.4200962,105.284268 113.299827,85.8528053 C81.6263551,86.5856908 60.1436,81.0598978 48.851562,69.2754262 C37.559524,57.4909546 33.0285765,35.8686156 35.2587195,4.40840928 C14.4195732,18.6318877 4,36.3290846 4,57.5 C4,89.2563731 29.5197693,115 61,115 Z" id="Oval" fill="#FFFFFF"></path>
        <g fill="#000000" fill-rule="nonzero" id="Shape">
            <path d="M117.273331,79.6175722 C116.517283,78.8419138 115.360155,78.6018839 114.353971,79.0125652 C85.5889895,90.8148036 52.6171445,77.2705399 40.7091428,48.7599174 C34.6624191,34.2821675 35.0273391,17.9528991 41.7149949,3.75496484 C42.341662,2.44170525 41.7753726,0.873619369 40.4503814,0.252500848 C39.7703033,-0.0664430197 38.9853936,-0.0838698496 38.2913822,0.203837247 C6.75533132,13.0434652 -8.30823274,48.7908254 4.64609397,80.0476532 C17.6004207,111.304481 53.6671187,126.234671 85.2035013,113.395043 C99.5866555,107.538971 111.210351,96.5189667 117.751376,82.5370594 C118.211507,81.5591841 118.02208,80.4014507 117.273331,79.6175722 Z M61.7789576,112.76143 C30.6025187,112.756169 5.33347047,87.702306 5.3387784,56.8019062 C5.34209585,36.5118153 16.4283641,17.8138132 34.3104372,7.93740401 C32.1929062,14.1670025 31.1170559,20.6977892 31.1256812,27.2713209 C31.12734,61.0770692 58.7786521,88.4809236 92.8863934,88.4792796 C98.6026986,88.4789508 104.291137,87.6921129 109.789154,86.1411251 C99.4967525,102.635784 81.3462974,112.699614 61.7789576,112.76143 Z"></path>
        </g>
    </g>
</svg>