<?xml version="1.0" encoding="UTF-8"?>
<svg width="23px" height="52px" viewBox="0 0 23 52" version="1.1" xmlns="http://www.w3.org/2000/svg" xmlns:xlink="http://www.w3.org/1999/xlink">
    <!-- Generator: Sketch 52.6 (67491) - http://www.bohemiancoding.com/sketch -->
    <title>rec_flash</title>
    <desc>Created with Sketch.</desc>
    <g id="rec_flash" stroke="none" stroke-width="1" fill="none" fill-rule="evenodd">
        <path d="M14.6870227,7.41551155 L2.59065308,7.41551155 C0.391313144,7.41551155 -1.49383537,8.37758314 -1.49383537,9.5 C-1.49383537,10.6224169 0.391313144,11.5844884 2.59065308,11.5844884 L14.6870227,11.5844884 C16.8863626,11.5844884 18.7715112,10.6224169 18.7715112,9.5 C18.7715112,8.37758314 16.8863626,7.41551155 14.6870227,7.41551155 Z" id="Path" fill="#000000" transform="translate(8.638838, 9.500000) rotate(-45.000000) translate(-8.638838, -9.500000) "></path>
        <path d="M16.9689922,24 L5.03100775,24 C2.86046512,24 1,24.9230769 1,26 C1,27.0769231 2.86046512,28 5.03100775,28 L16.9689922,28 C19.1395349,28 21,27.0769231 21,26 C21,24.9230769 19.1395349,24 16.9689922,24 Z" id="Path" fill="#000000"></path>
        <path d="M14.6870227,40.4155116 L2.59065308,40.4155116 C0.391313144,40.4155116 -1.49383537,41.3775831 -1.49383537,42.5 C-1.49383537,43.6224169 0.391313144,44.5844884 2.59065308,44.5844884 L14.6870227,44.5844884 C16.8863626,44.5844884 18.7715112,43.6224169 18.7715112,42.5 C18.7715112,41.3775831 16.8863626,40.4155116 14.6870227,40.4155116 Z" id="Path" fill="#000000" transform="translate(8.638838, 42.500000) rotate(45.000000) translate(-8.638838, -42.500000) "></path>
    </g>
</svg>