<?xml version="1.0" encoding="UTF-8"?>
<svg width="111px" height="125px" viewBox="0 0 111 125" version="1.1" xmlns="http://www.w3.org/2000/svg" xmlns:xlink="http://www.w3.org/1999/xlink">
    <!-- Generator: Sketch 52.6 (67491) - http://www.bohemiancoding.com/sketch -->
    <title>sleep_head</title>
    <desc>Created with Sketch.</desc>
    <g id="sleep_head" stroke="none" stroke-width="1" fill="none" fill-rule="evenodd">
        <g id="Group" transform="translate(14.000000, 12.000000)" fill="#000000">
            <g id="high-five" transform="translate(41.500000, 50.500000) scale(-1, 1) translate(-41.500000, -50.500000) ">
                <path d="M35.9999999,44 C33.790872,44 32,45.8509341 32,48.1341516 L32,53.8658484 C32,56.1490659 33.790872,58 35.9999999,58 C38.2091279,58 39.9999999,56.1490659 39.9999999,53.8658484 L39.9999999,48.1346953 C40.000526,45.8509341 38.2091279,44 35.9999999,44 Z" id="Path" transform="translate(36.000000, 51.000000) rotate(90.000000) translate(-36.000000, -51.000000) "></path>
                <path d="M19,44 C16.790872,44 15,45.8509341 15,48.1341516 L15,53.8658484 C15,56.1490659 16.790872,58 19,58 C21.209128,58 23,56.1490659 23,53.8658484 L23,48.1346953 C23,45.8509341 21.209128,44 19,44 Z" id="Path" transform="translate(19.000000, 51.000000) rotate(90.000000) translate(-19.000000, -51.000000) "></path>
                <path d="M78.6067439,45.881457 C75.7755462,43.0023724 72.0096699,41.4170638 68.0025346,41.4170638 C66.7403189,41.4170638 65.5015368,41.5744589 64.3085566,41.880054 L64.3085566,40.449977 C64.3085566,38.1788373 62.4956527,36.3376943 60.2593474,36.3376943 C48.9233726,36.3376943 47.9460875,25.6521415 47.8736565,24.4573457 C47.794302,22.8330941 46.7797363,21.4095076 45.2858481,20.8242795 C43.79196,20.2390513 42.0988867,20.6036019 40.9666207,21.753505 C34.3226796,28.5009372 17.6896596,29.0180149 8.38814206,28.4690255 C10.1685585,17.0138057 19.9584523,8.22564718 31.730078,8.22564718 L44.0678366,8.22564718 C48.1500658,8.22564718 52.1715807,9.29820493 55.6983285,11.3275729 C57.6438448,12.4471869 60.1150181,11.7532426 61.2179922,9.77688048 C62.3204338,7.80051838 61.637133,5.29085223 59.6910841,4.17123823 C54.9489878,1.44197629 49.5464917,0 44.0683692,0 L31.730078,0 C14.2342776,0 0,14.4560016 0,32.2243298 C0,34.3110307 1.53969008,36.0672561 3.58053836,36.3095687 C3.89050018,36.3463483 11.2757933,37.2009329 20.1208893,36.6692514 C28.9452148,36.1381109 36.0130899,34.4386775 41.2339761,31.6028629 C43.2902692,37.0700408 47.7607495,42.8363233 56.2096057,44.2404383 L56.2096057,48.7875855 C56.2096057,50.4507803 57.1959447,51.9500894 58.7095383,52.5867009 C60.2225994,53.2227714 61.96467,52.8712018 63.1224999,51.6953367 C64.4262569,50.3712714 66.1592736,49.6416293 68.0025346,49.6416293 C69.8447303,49.6416293 71.5750842,50.3701897 72.8799063,51.6975002 C74.1825981,53.0188611 74.9005165,54.7761682 74.9005165,56.6465186 C74.9005165,58.5168689 74.1831307,60.2741761 72.877776,61.5977005 C72.1332285,62.3538456 71.2576663,62.9136526 70.2739902,63.2630587 C68.8381533,63.7725642 67.8044146,65.0566046 67.5977734,66.5867437 C65.582489,81.5170938 52.8532837,92.7759755 37.989496,92.7759755 C21.5077288,92.7759755 8.0984183,79.1577913 8.0984183,62.4192916 L8.0984183,44.8359431 C8.0984183,42.5648034 6.28551445,40.7236604 4.04920915,40.7236604 C1.81290385,40.7236604 3.02736935e-14,42.5648034 3.02736935e-14,44.8359431 L3.02736935e-14,62.4182099 C3.02736935e-14,83.6919575 17.0420418,101 37.9900286,101 C56.1158715,101 71.7444448,87.8204665 75.2445635,69.9856105 C76.4705637,69.2992385 77.594841,68.4392451 78.6035484,67.4142845 C81.4384741,64.5389859 83,60.7144494 83,56.6454368 C82.9989348,52.5769651 81.437409,48.7524286 78.6067439,45.881457 Z" id="Path"></path>
                <path d="M71.54244,16.0457344 C70.396439,14.0586919 67.906501,13.4066248 65.9815608,14.5906994 C64.0566205,15.7736726 63.4254663,18.3439406 64.5720009,20.330983 C66.7407598,24.0913837 67.8872943,28.4074734 67.8872943,32.8127817 C67.8872943,35.125307 69.7033965,37 71.9436471,37 C74.1838977,37 75.9999999,35.125307 75.9999999,32.8127817 C76.0005334,26.8995681 74.459194,21.1020084 71.54244,16.0457344 Z" id="Path"></path>
            </g>
            <ellipse id="Oval" cx="52" cy="75.5" rx="6" ry="5.5"></ellipse>
        </g>
    </g>
</svg>