<?xml version="1.0" encoding="UTF-8"?>
<svg width="314px" height="270px" viewBox="0 0 314 270" version="1.1" xmlns="http://www.w3.org/2000/svg" xmlns:xlink="http://www.w3.org/1999/xlink">
    <!-- Generator: Sketch 52.6 (67491) - http://www.bohemiancoding.com/sketch -->
    <title>sleep</title>
    <desc>Created with Sketch.</desc>
    <g id="sleep" stroke="none" stroke-width="1" fill="none" fill-rule="evenodd">
        <path d="M118.529527,39.3319787 C150.149042,24.8692131 148.125222,11.7407589 178.236309,17.3073202 C208.347396,22.8738815 230.951798,41.9647415 230.951798,68.2976682 C230.951798,70.8894307 237.137622,68.2976682 242.903893,68.2976682 C248.670164,68.2976682 259.278052,67.7030336 263.928324,70.8894307 C268.23349,73.8393588 281.859909,79.827755 289.402167,93.0280237 C294.365587,101.714876 294.236427,114.956741 295.765429,127.452603 C298.333714,148.442059 279.812127,164.276231 240.200667,174.955121 C225.457851,194.862479 212.524282,206.273619 201.399962,209.18854 C188.908694,212.461645 172.271154,213.871872 159.336033,207.810825 C150.649211,203.740416 144.298198,192.088864 139.499091,191.147335 C125.030241,188.308715 118.529527,205.430972 73.4539312,199.103955 C55.553086,196.591311 42.6632493,187.639173 34.784421,172.247541 C20.9281403,154.746804 14,136.065794 14,116.204513 C14,111.299961 17.1843219,106.680038 17.6532392,100.654209 C18.1790822,93.8968556 21.230467,86.2939484 25.1127491,78.6125742 C30.5493596,67.8558497 35.6464362,62.6568488 40.9212044,58.454238 C42.7720881,56.9795676 46.2760549,57.1154377 47.574208,55.1246095 C56.9577446,40.7341587 79.7487807,37.6643887 97.9147429,37.6557969 C106.738924,37.6516234 108.191816,44.060448 118.529527,39.3319787 Z" id="Rectangle" fill="#FFFFFF"></path>
        <g id="thought-bubble" transform="translate(9.000000, 12.000000)" fill="#000000" fill-rule="nonzero">
            <path d="M263.384399,158.19755 C281.047792,148.055534 293,129.11645 293,107.416887 C293,75.0832057 266.53975,48.7795766 234.017282,48.7795766 C231.320772,48.7795766 228.628205,48.965177 225.975081,49.3226539 C218.460086,20.5212616 192.069517,0 161.805097,0 C141.736406,0 123.200689,8.79379943 110.52801,24.2352302 C102.959111,22.1518003 95.1259516,21.0904797 87.2033905,21.0904797 C39.1197817,21.0904797 0,59.9816067 0,107.787435 C0,155.586074 39.1197817,194.476547 87.2027331,194.476547 C101.432052,194.476547 115.500975,190.953407 128.117121,184.263297 C139.404733,198.563677 156.697372,207 175.066118,207 C200.982727,207 223.845219,190.304459 231.771724,166.007798 C232.517833,166.038514 233.263942,166.053545 234.017282,166.053545 C237.46779,166.053545 244.119665,165.138613 244.119665,165.138613 C244.119665,165.138613 257.285297,162.938251 263.384399,158.19755 Z M229.231009,157.900197 L225.873847,157.591081 L225.011384,160.827978 C219.020161,183.352287 198.481454,199.085188 175.066775,199.085188 C158.098874,199.085188 142.187358,190.76846 132.51029,176.851044 L130.410009,173.830463 L127.22179,175.692349 C115.038847,182.80006 101.20066,186.563043 87.2027331,186.563043 C43.5076921,186.563043 7.95740141,151.215969 7.95740141,107.784167 C7.95740141,64.3451767 43.5076921,28.9981026 87.2027331,28.9981026 C95.247564,28.9981026 103.19379,30.1973165 110.809362,32.5578399 L113.486152,33.3845459 L115.17032,31.1534199 C126.333033,16.3838103 143.330515,7.90696933 161.800495,7.90696933 C189.57416,7.90696933 213.648833,27.5453219 219.026734,54.6181471 L219.804397,58.5177161 L223.728865,57.7236862 C227.08537,57.03422 230.547711,56.686546 234.010051,56.686546 C262.149211,56.686546 285.03471,79.4461223 285.03471,107.412966 C285.03471,135.385692 262.149211,158.135465 234.010051,158.135465 C232.400822,158.135465 230.808027,158.046586 229.231009,157.900197 Z" id="Shape"></path>
        </g>
        <g id="high-five" transform="translate(101.500000, 134.500000) scale(-1, 1) translate(-101.500000, -134.500000) translate(60.000000, 84.000000)" fill="#000000">
            <path d="M35.9999999,44 C33.790872,44 32,45.8509341 32,48.1341516 L32,53.8658484 C32,56.1490659 33.790872,58 35.9999999,58 C38.2091279,58 39.9999999,56.1490659 39.9999999,53.8658484 L39.9999999,48.1346953 C40.000526,45.8509341 38.2091279,44 35.9999999,44 Z" id="Path" transform="translate(36.000000, 51.000000) rotate(90.000000) translate(-36.000000, -51.000000) "></path>
            <path d="M19,44 C16.790872,44 15,45.8509341 15,48.1341516 L15,53.8658484 C15,56.1490659 16.790872,58 19,58 C21.209128,58 23,56.1490659 23,53.8658484 L23,48.1346953 C23,45.8509341 21.209128,44 19,44 Z" id="Path" transform="translate(19.000000, 51.000000) rotate(90.000000) translate(-19.000000, -51.000000) "></path>
            <path d="M78.6067439,45.881457 C75.7755462,43.0023724 72.0096699,41.4170638 68.0025346,41.4170638 C66.7403189,41.4170638 65.5015368,41.5744589 64.3085566,41.880054 L64.3085566,40.449977 C64.3085566,38.1788373 62.4956527,36.3376943 60.2593474,36.3376943 C48.9233726,36.3376943 47.9460875,25.6521415 47.8736565,24.4573457 C47.794302,22.8330941 46.7797363,21.4095076 45.2858481,20.8242795 C43.79196,20.2390513 42.0988867,20.6036019 40.9666207,21.753505 C34.3226796,28.5009372 17.6896596,29.0180149 8.38814206,28.4690255 C10.1685585,17.0138057 19.9584523,8.22564718 31.730078,8.22564718 L44.0678366,8.22564718 C48.1500658,8.22564718 52.1715807,9.29820493 55.6983285,11.3275729 C57.6438448,12.4471869 60.1150181,11.7532426 61.2179922,9.77688048 C62.3204338,7.80051838 61.637133,5.29085223 59.6910841,4.17123823 C54.9489878,1.44197629 49.5464917,0 44.0683692,0 L31.730078,0 C14.2342776,0 0,14.4560016 0,32.2243298 C0,34.3110307 1.53969008,36.0672561 3.58053836,36.3095687 C3.89050018,36.3463483 11.2757933,37.2009329 20.1208893,36.6692514 C28.9452148,36.1381109 36.0130899,34.4386775 41.2339761,31.6028629 C43.2902692,37.0700408 47.7607495,42.8363233 56.2096057,44.2404383 L56.2096057,48.7875855 C56.2096057,50.4507803 57.1959447,51.9500894 58.7095383,52.5867009 C60.2225994,53.2227714 61.96467,52.8712018 63.1224999,51.6953367 C64.4262569,50.3712714 66.1592736,49.6416293 68.0025346,49.6416293 C69.8447303,49.6416293 71.5750842,50.3701897 72.8799063,51.6975002 C74.1825981,53.0188611 74.9005165,54.7761682 74.9005165,56.6465186 C74.9005165,58.5168689 74.1831307,60.2741761 72.877776,61.5977005 C72.1332285,62.3538456 71.2576663,62.9136526 70.2739902,63.2630587 C68.8381533,63.7725642 67.8044146,65.0566046 67.5977734,66.5867437 C65.582489,81.5170938 52.8532837,92.7759755 37.989496,92.7759755 C21.5077288,92.7759755 8.0984183,79.1577913 8.0984183,62.4192916 L8.0984183,44.8359431 C8.0984183,42.5648034 6.28551445,40.7236604 4.04920915,40.7236604 C1.81290385,40.7236604 3.02736935e-14,42.5648034 3.02736935e-14,44.8359431 L3.02736935e-14,62.4182099 C3.02736935e-14,83.6919575 17.0420418,101 37.9900286,101 C56.1158715,101 71.7444448,87.8204665 75.2445635,69.9856105 C76.4705637,69.2992385 77.594841,68.4392451 78.6035484,67.4142845 C81.4384741,64.5389859 83,60.7144494 83,56.6454368 C82.9989348,52.5769651 81.437409,48.7524286 78.6067439,45.881457 Z" id="Path"></path>
            <path d="M71.54244,16.0457344 C70.396439,14.0586919 67.906501,13.4066248 65.9815608,14.5906994 C64.0566205,15.7736726 63.4254663,18.3439406 64.5720009,20.330983 C66.7407598,24.0913837 67.8872943,28.4074734 67.8872943,32.8127817 C67.8872943,35.125307 69.7033965,37 71.9436471,37 C74.1838977,37 75.9999999,35.125307 75.9999999,32.8127817 C76.0005334,26.8995681 74.459194,21.1020084 71.54244,16.0457344 Z" id="Path"></path>
        </g>
        <ellipse id="Oval" fill="#000000" cx="112" cy="159.5" rx="6" ry="5.5"></ellipse>
        <g id="thought-bubble" transform="translate(250.000000, 175.000000)" fill="#000000" fill-rule="nonzero">
            <path d="M11.0630618,66.1383648 C5.31350739,66.1383648 0.636261075,70.8171101 0.636261075,76.5713302 C0.636261075,82.3259409 5.31311704,87 11.0630618,87 C16.8106644,87 21.4898625,82.3216452 21.4898625,76.5713302 C21.4898625,70.8217963 16.8102741,66.1383648 11.0630618,66.1383648 Z M11.0630618,82.2724405 C7.91796303,82.2724405 5.36191154,79.714966 5.36191154,76.5709397 C5.36191154,73.4226179 7.92342801,70.8651433 11.0630618,70.8651433 C14.2058185,70.8651433 16.7642121,73.4230084 16.7642121,76.5709397 C16.7642121,79.714966 14.2054281,82.2724405 11.0630618,82.2724405 Z M51,24.0195041 C51,11.01071 40.4233025,0.429739888 27.4193711,0.429739888 C26.9673388,0.429739888 26.2951456,0.463584413 25.4027917,0.531273463 C23.1972498,0.949304413 21.020812,1.53777893 18.8734782,2.29669701 C15.9503056,3.32981475 14.9143446,4.07534192 13.963017,4.67892002 C7.85355428,8.94684482 3.84069398,16.0167058 3.84069398,24.0237998 C3.84069398,36.8674066 14.1613179,47.3257554 26.9439174,47.5866185 C21.371975,49.1928016 17.2763592,54.3311816 17.2763592,60.420072 C17.2763592,67.7878949 23.2687151,73.7803285 30.6331725,73.7803285 C37.9980203,73.7803285 43.9903762,67.7878949 43.9903762,60.420072 C43.9903762,53.5462489 38.776,47.8724746 32.0985692,47.1386993 C42.864199,44.95768 51,35.4201626 51,24.0195041 Z M39.2651161,60.4138238 C39.2651161,65.1757484 35.3935647,69.0445682 30.6335629,69.0445682 C25.8739515,69.0445682 22.0020097,65.1714528 22.0020097,60.4138238 C22.0020097,55.6476034 25.8739515,51.7787837 30.6335629,51.7787837 C35.3935647,51.7783932 39.2651161,55.6476034 39.2651161,60.4138238 Z M27.4193711,42.8754606 C17.0249699,42.8754606 8.56868658,34.4184948 8.56868658,24.0148179 C8.56868658,13.6138747 17.0273121,5.15417526 27.4193711,5.15417526 C37.8161144,5.15417526 46.2747399,13.6162178 46.2747399,24.0148179 C46.2747399,34.4161517 37.8161144,42.8754606 27.4193711,42.8754606 Z" id="Shape"></path>
        </g>
    </g>
</svg>