<?xml version="1.0" encoding="UTF-8"?>
<svg width="335px" height="597px" viewBox="0 0 335 597" version="1.1" xmlns="http://www.w3.org/2000/svg" xmlns:xlink="http://www.w3.org/1999/xlink">
    <!-- Generator: Sketch 52.6 (67491) - http://www.bohemiancoding.com/sketch -->
    <title>Tony-Hi</title>
    <desc>Created with Sketch.</desc>
    <g id="Tony-Hi" stroke="none" stroke-width="1" fill="none" fill-rule="evenodd">
        <rect fill="#FFFFFF" x="0" y="0" width="335" height="597"></rect>
        <g id="high-five" transform="translate(31.000000, 42.000000)" fill="#000000">
            <path d="M133.512,82.417 C129.313,82.417 125.909,85.821 125.909,90.02 L125.909,100.561 C125.909,104.76 129.313,108.164 133.512,108.164 C137.711,108.164 141.115,104.76 141.115,100.561 L141.115,90.021 C141.116,85.821 137.711,82.417 133.512,82.417 Z" id="Path"></path>
            <path d="M106.107,82.417 C101.908,82.417 98.504,85.821 98.504,90.02 L98.504,100.561 C98.504,104.76 101.908,108.164 106.107,108.164 C110.306,108.164 113.71,104.76 113.71,100.561 L113.71,90.021 C113.71,85.821 110.306,82.417 106.107,82.417 Z" id="Path"></path>
            <path d="M160.475,126.766 C156.829,124.684 152.184,125.949 150.101,129.595 C146.166,136.483 139.659,140.075 130.21,140.58 C126.017,140.804 122.799,144.386 123.023,148.579 C123.239,152.634 126.596,155.777 130.609,155.777 C130.745,155.777 130.883,155.774 131.021,155.766 C145.623,154.986 156.788,148.546 163.304,137.14 C165.387,133.495 164.121,128.85 160.475,126.766 Z" id="Path"></path>
            <path d="M219.118,84.875 C213.802,79.552 206.731,76.621 199.207,76.621 C196.837,76.621 194.511,76.912 192.271,77.477 L192.271,74.833 C192.271,70.634 188.867,67.23 184.668,67.23 C163.383,67.23 161.548,47.474 161.412,45.265 C161.263,42.262 159.358,39.63 156.553,38.548 C153.748,37.466 150.569,38.14 148.443,40.266 C135.968,52.741 104.737,53.697 87.272,52.682 C90.615,31.503 108.997,15.255 131.1,15.255 L154.266,15.255 C161.931,15.255 169.482,17.238 176.104,20.99 C179.757,23.06 184.397,21.777 186.468,18.123 C188.538,14.469 187.255,9.829 183.601,7.759 C174.697,2.713 164.553,0.047 154.267,0.047 L131.1,0.047 C98.249,0.047 71.522,26.774 71.522,59.625 C71.522,63.483 74.413,66.73 78.245,67.178 C78.827,67.246 92.694,68.826 109.302,67.843 C125.871,66.861 139.142,63.719 148.945,58.476 C152.806,68.584 161.2,79.245 177.064,81.841 L177.064,90.248 C177.064,93.323 178.916,96.095 181.758,97.272 C184.599,98.448 187.87,97.798 190.044,95.624 C192.492,93.176 195.746,91.827 199.207,91.827 C202.666,91.827 205.915,93.174 208.365,95.628 C210.811,98.071 212.159,101.32 212.159,104.778 C212.159,108.236 210.812,111.485 208.361,113.932 C206.963,115.33 205.319,116.365 203.472,117.011 C200.776,117.953 198.835,120.327 198.447,123.156 C194.663,150.76 170.762,171.576 142.853,171.576 C111.906,171.576 86.728,146.398 86.728,115.451 L86.728,82.942 C86.728,78.743 83.324,75.339 79.125,75.339 C74.926,75.339 71.522,78.743 71.522,82.942 L71.522,115.449 C71.522,154.781 103.521,186.781 142.854,186.781 C176.888,186.781 206.233,162.414 212.805,129.44 C215.107,128.171 217.218,126.581 219.112,124.686 C224.435,119.37 227.367,112.299 227.367,104.776 C227.365,97.254 224.433,90.183 219.118,84.875 Z" id="Path"></path>
            <path d="M205.485,29.181 C203.337,25.573 198.67,24.389 195.062,26.539 C191.454,28.687 190.271,33.354 192.42,36.962 C196.485,43.79 198.634,51.627 198.634,59.626 C198.634,63.825 202.038,67.229 206.237,67.229 C210.436,67.229 213.84,63.825 213.84,59.626 C213.841,48.889 210.952,38.362 205.485,29.181 Z" id="Path"></path>
            <path d="M267.071,361.498 C260.173,359.582 255.451,353.33 255.588,346.296 C256.482,300.421 239.872,265.856 225.779,244.938 C212.87,225.776 199.811,214.351 195.644,210.945 C192.82,203.069 189.773,195.506 186.508,188.564 C184.721,184.763 180.191,183.132 176.392,184.921 C172.592,186.708 170.961,191.237 172.749,195.037 C192.073,236.12 203.807,302.641 206.539,319.302 C189.027,335.175 165.896,341.337 137.717,337.622 C123.268,335.717 110.868,331.543 103.632,328.697 C122.211,285.485 130.21,214.428 131.689,199.923 C132.115,195.745 129.074,192.014 124.896,191.588 C120.712,191.162 116.987,194.204 116.561,198.381 C116.045,203.442 115.435,208.773 114.735,214.287 C53.685,194.914 20.328,125.289 15.611,114.806 L15.611,77.874 C15.611,73.675 12.207,70.271 8.008,70.271 C3.809,70.271 0.405,73.675 0.405,77.874 L0.405,116.397 C0.405,117.397 0.602,118.386 0.985,119.31 C1.381,120.264 10.895,142.967 30.065,168.133 C53.967,199.51 82.386,220.61 112.626,229.542 C107.256,265.522 98.432,305.638 86.659,329.184 C85.757,330.987 85.609,333.076 86.246,334.989 C86.884,336.902 88.255,338.483 90.059,339.385 C90.493,339.602 96.32,342.48 105.604,345.614 C102.306,354.388 97.452,369.792 94.99,389.656 C91.726,415.985 92.294,455.07 111.69,496.795 L97.676,496.795 C93.477,496.795 90.073,500.199 90.073,504.398 C90.073,508.597 93.477,512.001 97.676,512.001 L124.028,512.001 C126.709,512.001 129.192,510.589 130.563,508.285 C131.934,505.981 131.989,503.125 130.71,500.769 C112.349,466.966 105.384,430.41 110.011,392.113 C112.373,372.563 117.326,357.523 120.287,349.83 C124.934,350.936 129.96,351.918 135.267,352.635 C141.268,353.446 147.116,353.849 152.795,353.849 C161.877,353.849 170.512,352.793 178.654,350.75 C175.579,359.853 171.907,373.23 169.871,389.654 C166.607,415.983 167.174,455.068 186.571,496.793 L172.557,496.793 C168.358,496.793 164.954,500.197 164.954,504.396 C164.954,508.595 168.358,511.999 172.557,511.999 L198.909,511.999 C201.59,511.999 204.073,510.587 205.444,508.283 C206.815,505.979 206.87,503.123 205.591,500.767 C187.229,466.964 180.265,430.408 184.892,392.111 C188.363,363.386 197.429,344.388 197.548,344.143 C197.626,343.982 197.69,343.818 197.756,343.653 C205.933,339.49 213.403,334.077 220.056,327.424 C221.76,325.72 222.555,323.309 222.2,320.926 C221.862,318.662 216.312,282.023 205.746,243.337 C221.83,263.705 241.319,298.359 240.39,345.999 C240.117,359.976 249.418,372.374 263.006,376.149 C263.686,376.339 264.371,376.428 265.045,376.428 C268.375,376.428 271.432,374.223 272.367,370.857 C273.486,366.814 271.118,362.622 267.071,361.498 Z" id="Path"></path>
        </g>
    </g>
</svg>