<?xml version="1.0" encoding="UTF-8"?>
<svg width="161px" height="278px" viewBox="0 0 161 278" version="1.1" xmlns="http://www.w3.org/2000/svg" xmlns:xlink="http://www.w3.org/1999/xlink">
    <!-- Generator: Sketch 52.6 (67491) - http://www.bohemiancoding.com/sketch -->
    <title>tony_walk</title>
    <desc>Created with Sketch.</desc>
    <g id="tony_walk" stroke="none" stroke-width="1" fill="none" fill-rule="evenodd">
        <g id="Group" transform="translate(28.000000, 12.000000)" fill="#000000">
            <g id="high-five" transform="translate(50.500000, 127.500000) scale(-1, 1) translate(-50.500000, -127.500000) ">
                <path d="M30.5813657,40.8398438 C28.5489361,40.8398438 26.901308,42.5518545 26.901308,44.6637032 L26.901308,49.965203 C26.901308,52.0770518 28.5489361,53.7890625 30.5813657,53.7890625 C32.6137953,53.7890625 34.2614234,52.0770518 34.2614234,49.965203 L34.2614234,44.6642062 C34.2619074,42.5518545 32.6137953,40.8398438 30.5813657,40.8398438 Z" id="Path"></path>
                <path d="M17.1993375,40.8398438 C15.1669079,40.8398438 13.5192798,42.5518545 13.5192798,44.6637032 L13.5192798,49.965203 C13.5192798,52.0770518 15.1669079,53.7890625 17.1993375,53.7890625 C19.2317672,53.7890625 20.8793953,52.0770518 20.8793953,49.965203 L20.8793953,44.6642062 C20.8793953,42.5518545 19.2317672,40.8398438 17.1993375,40.8398438 Z" id="Path"></path>
                <path d="M44.3804707,63.2529968 C42.549115,62.2165313 40.2159698,62.8462762 39.1696961,64.6613354 C37.1931781,68.0903337 33.9247657,69.8785106 29.178611,70.1299107 C27.0725017,70.2414229 25.4561269,72.0246215 25.5686402,74.1119893 C25.6771353,76.1306578 27.3633287,77.6953125 29.3790254,77.6953125 C29.4473371,77.6953125 29.5166534,77.693819 29.5859696,77.6898365 C36.9204337,77.3015353 42.528521,74.0955612 45.801454,68.4174028 C46.8477277,66.6028414 46.2118264,64.290458 44.3804707,63.2529968 Z" id="Path"></path>
                <path d="M73.6447509,42.3085025 C70.997214,39.6536225 67.4756312,38.1917677 63.7284401,38.1917677 C62.5481047,38.1917677 61.3896828,38.3369058 60.2740916,38.6187031 L60.2740916,37.2999913 C60.2740916,35.2057135 58.5787914,33.5079469 56.4875559,33.5079469 C45.8869494,33.5079469 44.9730611,23.6545167 44.9053287,22.552764 C44.831122,21.0549987 43.8823714,19.742272 42.4853923,19.2026177 C41.0884131,18.6629633 39.5051701,18.9991251 38.4463545,20.0594811 C32.233408,26.2814664 16.6793773,26.7582774 7.98125219,26.2520397 C9.64617244,15.6888793 18.8009927,7.58508636 29.8089893,7.58508636 L41.3463936,7.58508636 C45.1638072,7.58508636 48.9244452,8.57412017 52.2224117,10.4454539 C54.0417218,11.4778796 56.3525893,10.8379752 57.3840131,9.01551953 C58.4149389,7.19306388 57.7759642,4.87883448 55.956156,3.84640886 C51.521681,1.32968439 46.4696466,0 41.3468916,0 L29.8089893,0 C13.4481471,0 0.137251571,13.3302606 0.137251571,29.714905 C0.137251571,31.6391069 1.57706146,33.2585687 3.48551926,33.4820116 C3.77537376,33.515927 10.6815805,34.303962 18.9528924,33.8136845 C27.2047811,33.3239058 33.8141609,31.7568134 38.6963665,29.1418339 C40.6192672,34.183263 44.799746,39.5005043 52.7005222,40.7952757 L52.7005222,44.9883203 C52.7005222,46.521996 53.6228771,47.9045485 55.0382834,48.4915848 C56.4531917,49.0781222 58.0822537,48.7539306 59.1649748,47.6696343 C60.3841566,46.4486788 62.004752,45.7758565 63.7284401,45.7758565 C65.451132,45.7758565 67.0692373,46.4476813 68.2894151,47.6716293 C69.5076009,48.8900911 70.1789477,50.5105504 70.1789477,52.2352498 C70.1789477,53.9599492 69.5080989,55.5804086 68.287423,56.8008653 C67.5911746,57.4981267 66.7724103,58.0143395 65.8525456,58.3365361 C64.5098519,58.8063645 63.5431722,59.9904121 63.3499359,61.4013938 C61.4653836,75.1690637 49.5619259,85.5511755 35.6623568,85.5511755 C20.2497672,85.5511755 7.7103229,72.9934885 7.7103229,57.5584762 L7.7103229,41.3444065 C7.7103229,39.2501286 6.0150227,37.552362 3.92378723,37.552362 C1.83255177,37.552362 0.137251571,39.2501286 0.137251571,41.3444065 L0.137251571,57.5574787 C0.137251571,77.1745629 16.0737707,93.1347656 35.6628549,93.1347656 C52.6128686,93.1347656 67.2276114,80.98157 70.5006763,64.5355786 C71.6471454,63.9026568 72.6984905,63.1096342 73.6417627,62.1644909 C76.2927859,59.5131023 77.7530151,55.9863962 77.7530151,52.2342523 C77.7520191,48.4826071 76.2917899,44.9559011 73.6447509,42.3085025 Z" id="Path"></path>
                <path d="M66.8367082,14.31172 C65.7504211,12.5045508 63.3902246,11.9115108 61.565586,12.9883993 C59.7409473,14.0642861 59.1426802,16.4018855 60.229473,18.2090547 C62.2852259,21.6290523 63.3720187,25.5544361 63.3720187,29.5609623 C63.3720187,31.6641506 65.0934904,33.3691406 67.2170098,33.3691406 C69.3405291,33.3691406 71.0620009,31.6641506 71.0620009,29.5609623 C71.0625066,24.1830311 69.6014808,18.9102844 66.8367082,14.31172 Z" id="Path"></path>
                <path d="M97.7217931,179.996635 C94.2801934,179.041794 91.9242592,175.926101 91.9926122,172.420698 C92.4386531,149.558832 84.1514726,132.33332 77.1200918,121.908807 C70.6794408,112.3594 64.1639507,106.665736 62.0849212,104.968352 C60.6759508,101.043337 59.1557197,97.274306 57.5267224,93.8147513 C56.6351395,91.920518 54.3749994,91.1077071 52.479575,91.9992575 C50.5836517,92.8898113 49.7699015,95.1468443 50.6619833,97.0405793 C60.3032522,117.514346 66.1576638,150.665172 67.5207328,158.968203 C58.78352,166.878533 47.2428353,169.949374 33.1835662,168.097999 C25.9745674,167.14864 19.7878703,165.068522 16.1776332,163.650214 C25.4472013,142.115457 29.4381199,106.704109 30.1760332,99.4755237 C30.3885761,97.393412 28.8713386,95.5340633 26.7868208,95.3217656 C24.6993095,95.109468 22.8408057,96.6254526 22.6282627,98.707066 C22.3708163,101.229222 22.0664707,103.885933 21.7172217,106.633842 C21.7172217,106.633842 20.6649843,114.236191 20.6649843,114.236191 C17.9857453,132.16687 13.5832118,152.158731 7.7093421,163.892911 C7.25930979,164.791438 7.18546856,165.832494 7.50328518,166.78584 C7.82160072,167.739186 8.50562989,168.52708 9.40569453,168.976592 C9.62222893,169.084735 12.5294776,170.51899 17.1615176,172.080823 C15.5160557,176.453357 13.0942632,184.12996 11.8659045,194.02921 C10.2374061,207.150302 10.5207968,226.628362 20.1979884,247.42207 L13.2060229,247.42207 C11.1110276,247.42207 9.41267951,249.118458 9.41267951,251.211035 C9.41267951,253.303612 11.1110276,255 13.2060229,255 L26.353752,255 C27.6913758,255 28.930212,254.296328 29.6142412,253.148127 C30.2982703,251.999925 30.3257113,250.576634 29.6875835,249.402518 C20.5267814,232.556749 17.0517536,214.339019 19.3602897,195.25366 C20.5387557,185.510892 23.009942,178.015688 24.4872654,174.181872 C26.80578,174.733048 29.3133881,175.222429 31.9611946,175.579747 C34.9552567,175.98391 37.8729828,176.184746 40.7063903,176.184746 C45.237647,176.184746 49.5458832,175.658487 53.6081483,174.640355 C52.0739472,179.176847 50.2418866,185.843292 49.2260709,194.028214 C47.5975725,207.149305 47.8804643,226.627366 57.5581548,247.421073 L50.5661893,247.421073 C48.471194,247.421073 46.7728459,249.117461 46.7728459,251.210038 C46.7728459,253.302615 48.471194,254.999003 50.5661893,254.999003 L63.7139184,254.999003 C65.0515422,254.999003 66.2903784,254.295331 66.9744076,253.14713 C67.6584367,251.998928 67.6858777,250.575637 67.0477499,249.401522 C57.8864489,232.555753 54.41192,214.338023 56.7204561,195.252663 C58.4522323,180.937522 62.9755062,171.469844 63.0348785,171.347748 C63.0737948,171.267513 63.1057262,171.185784 63.1386554,171.103556 C67.218383,169.028919 70.945369,166.331344 74.2647316,163.015813 C75.1149035,162.166622 75.5115506,160.965097 75.3344314,159.777526 C75.1657941,158.649258 72.3967482,140.390165 67.1250836,121.110947 C75.1498284,131.261366 84.8734203,148.531232 84.4099169,172.272688 C84.2737098,179.238144 88.9142315,185.416703 95.6936541,187.297979 C96.0329246,187.392666 96.3746897,187.43702 96.7109666,187.43702 C98.3723941,187.43702 99.8976145,186.338155 100.364111,184.660704 C100.922411,182.64587 99.7409514,180.556781 97.7217931,179.996635 Z" id="Path"></path>
            </g>
            <path d="M92.038093,127.218715 C85.2238124,113.067244 78.4614223,104.722107 78.0168232,104.180496 C77.8026186,102.128298 79.7047224,118.252982 79.7047224,118.252982 C81.7907267,121.636171 84.1880749,125.87362 86.5737996,130.847321 C92.5470366,143.300616 99.6676797,163.049675 99.6676797,186.414177 C99.6676797,188.394443 101.084917,190 102.83384,190 C104.582762,190 106,188.394443 106,186.414177 C105.998339,161.45023 98.4065292,140.444463 92.038093,127.218715 Z" id="Path"></path>
        </g>
    </g>
</svg>