<?xml version="1.0" encoding="UTF-8"?>
<svg width="95px" height="125px" viewBox="0 0 95 125" version="1.1" xmlns="http://www.w3.org/2000/svg" xmlns:xlink="http://www.w3.org/1999/xlink">
    <!-- Generator: Sketch 52.6 (67491) - http://www.bohemiancoding.com/sketch -->
    <title>tree</title>
    <desc>Created with Sketch.</desc>
    <g id="tree" stroke="none" stroke-width="1" fill="none" fill-rule="evenodd">
        <path d="M28.4975369,14.4836027 C34.3136807,10.089517 41.89683,9.05863318 51.2469849,11.3909511 C64.6841355,13.0558403 73.4708604,23.715207 77.6071595,43.3690513 C78.1225512,45.8179622 80.4395709,44.9308956 82.6947511,47.6266362 C84.700886,50.0246792 86.003009,60.2621694 86.1599708,62.5 C86.8817553,72.7906033 82.1206692,81.4438692 71.8767126,88.4597975 C65.2104596,95.2983899 60.3141572,99.4322425 57.1878054,100.861355 C51.319738,103.543757 44.921986,102.010322 41.5649294,100.861355 C35.5250458,98.7941805 26.3446183,92.9196277 14.0236469,83.2376967 C7.95119618,75.0738566 5.94331389,66.2850697 8,56.8713359 C9.38989554,50.5095938 18.06755,43.9802225 21.9856697,33.4978195 C23.8653543,28.4689757 19.7733213,21.0747311 28.4975369,14.4836027 Z" id="Rectangle" fill="#FFFFFF"></path>
        <g id="garden" transform="translate(4.000000, 7.000000)" fill="#000000" fill-rule="nonzero">
            <path d="M47.0114082,117.151036 L47.0114082,99.1943348 C55.3033412,98.0820955 62.6524323,92.917533 66.9258146,85.0878261 C72.6033777,83.7935651 77.7611958,80.5154409 81.5767157,75.7450854 C85.7186841,70.5663079 88,63.947652 88,57.1081432 C88,46.7037826 82.6579245,37.0739677 74.2526558,32.0720113 C73.3769114,14.7217024 59.9654024,0.887359521 43.6315007,0.887359521 C38.4900225,0.887359521 33.4027785,2.28285925 28.9201076,4.92304073 C27.5253134,5.744392 27.0622362,7.53756581 27.8858323,8.92821163 C28.709776,10.3195509 30.5081982,10.7810192 31.9022971,9.95966795 C35.4824541,7.85098985 39.538204,6.73667032 43.6315007,6.73667032 C57.2815014,6.73667032 68.407175,18.8898261 68.4329015,33.8280873 C68.4349874,34.9288852 69.0562479,35.9353786 70.0411562,36.4325579 C77.3878137,40.1406 82.1343552,48.2559943 82.1343552,57.1077965 C82.1343552,68.2794219 74.548163,77.9518819 64.4877061,79.6067192 C63.5455595,79.7620444 62.7383032,80.3642762 62.3235501,81.2223785 C59.1772672,87.7293944 53.4924033,92.1280789 47.0114082,93.2732554 L47.0114082,67.3932362 L61.4446769,54.1569646 C62.6367878,53.0634476 62.7146627,51.2134136 61.618157,50.0245519 C60.5213037,48.8356901 58.6665612,48.7576808 57.4744502,49.8515446 L47.0114082,59.4466887 L47.0114082,39.9228674 C47.0114082,38.3075548 45.6983131,36.9980386 44.0785858,36.9980386 C42.4588585,36.9980386 41.1457634,38.3075548 41.1457634,39.9228674 L41.1457634,75.3217549 L30.6827213,65.7266108 C29.4906104,64.6327471 27.6351726,64.7107564 26.5390146,65.8996181 C25.4425089,67.0884799 25.5203837,68.9385138 26.7124947,70.0320309 L41.146111,83.2683025 L41.146111,93.4102051 C34.2305464,92.5215925 28.1316247,87.9582217 24.8591429,81.053185 C24.4680303,80.2276732 23.7125748,79.6316822 22.8173617,79.4423796 C13.0857869,77.3805071 6.02281636,67.9878405 6.02281636,57.1077965 C6.02281636,48.5288535 10.3608626,40.7643277 17.3438724,36.8454871 C18.2783706,36.3209179 18.8513069,35.3296797 18.838096,34.2607789 C18.8374007,34.1796492 18.8346195,34.099213 18.8318382,34.0191234 C18.8300999,33.9726646 18.8283617,33.9265524 18.8283617,33.8804402 C18.8283617,27.7877404 20.6313035,22.0310006 24.0421523,17.2332552 C24.979084,15.9154181 24.667237,14.0896537 23.3461458,13.1559691 C22.024707,12.2212443 20.1939527,12.5329348 19.2577163,13.8500785 C15.37197,19.3155835 13.2151148,25.7903556 12.9842715,32.645813 C5.03060736,37.8183498 0.157866879,47.0314217 0.157866879,57.1081432 C0.157866879,70.2150927 8.50160058,81.6321874 20.1960387,84.8246747 C24.5977059,93.0919272 32.3831047,98.4419784 41.1468064,99.2983472 L41.1468064,117.151036 L47.0114082,117.151036 Z" id="Shape"></path>
        </g>
    </g>
</svg>