<?xml version="1.0" encoding="UTF-8"?>
<svg width="461px" height="465px" viewBox="0 0 461 465" version="1.1" xmlns="http://www.w3.org/2000/svg" xmlns:xlink="http://www.w3.org/1999/xlink">
    <!-- Generator: Sketch 52.6 (67491) - http://www.bohemiancoding.com/sketch -->
    <title>airplane</title>
    <desc>Created with Sketch.</desc>
    <g id="airplane" stroke="none" stroke-width="1" fill="none" fill-rule="evenodd">
        <path d="M285.440981,148.805244 L279.524964,209.672513 L420.650385,246.18034 C424.170087,231.044861 418.604938,217.806934 403.893773,206.395068 C402.932352,205.649267 401.895949,204.825866 400.364049,203.595346 C399.944686,203.258487 398.422399,202.033687 398.380953,202.000359 C397.553173,201.33471 396.899379,200.810284 396.244353,200.287099 C392.56673,197.349696 389.433439,194.92476 386.046951,192.430961 C376.893399,185.690313 367.360235,179.579061 356.547921,173.792208 C351.623273,171.156491 346.507591,168.633041 341.176472,166.225151 C331.079047,161.664477 312.494861,155.854999 285.440981,148.805248 Z" id="Rectangle" stroke="#979797" fill="#D8D8D8"></path>
        <path d="M45.4550185,148.631463 L39.5390012,209.498732 L180.664423,246.00656 C184.184125,230.871081 178.618976,217.633154 163.90781,206.221288 C162.946389,205.475486 161.909987,204.652085 160.378086,203.421565 C159.958724,203.084707 158.436437,201.859907 158.394991,201.826579 C157.567211,201.16093 156.913417,200.636503 156.25839,200.113318 C152.580767,197.175916 149.447476,194.75098 146.060989,192.257181 C136.907437,185.516533 127.374273,179.40528 116.561958,173.618428 C111.637311,170.98271 106.521628,168.459261 101.19051,166.05137 C91.0930849,161.490696 72.5088983,155.681218 45.4550186,148.631468 Z" id="Rectangle" stroke="#979797" fill="#D8D8D8" transform="translate(110.593516, 197.309111) scale(-1, 1) translate(-110.593516, -197.309111) "></path>
        <path d="M131.479784,390.663782 L128.530728,427.047225 L199.220768,448.975543 C200.887857,439.980066 198.085984,432.114907 190.785611,425.324106 C190.299681,424.872094 189.776355,424.37353 189.003151,423.628766 C188.79165,423.425044 188.024126,422.684541 188.003292,422.664452 C187.586144,422.26221 187.256713,421.945344 186.926704,421.629271 C185.074761,419.85553 183.49734,418.391623 181.792783,416.886437 C177.186961,412.819332 172.390787,409.13249 166.951364,405.641546 C164.473998,404.051608 161.900535,402.529395 159.218676,401.07688 C154.186339,398.351328 144.934296,394.876788 131.479786,390.663795 Z" id="Rectangle" stroke="#979797" fill="#D8D8D8" transform="translate(164.093516, 419.809111) scale(-1, 1) translate(-164.093516, -419.809111) "></path>
        <path d="M263.479784,386.663782 L260.530728,423.047225 L331.220768,444.975543 C332.887857,435.980066 330.085984,428.114907 322.785611,421.324106 C322.299681,420.872094 321.776355,420.37353 321.003151,419.628766 C320.79165,419.425044 320.024126,418.684541 320.003292,418.664452 C319.586144,418.26221 319.256713,417.945344 318.926704,417.629271 C317.074761,415.85553 315.49734,414.391623 313.792783,412.886437 C309.186961,408.819332 304.390787,405.13249 298.951364,401.641546 C296.473998,400.051608 293.900535,398.529395 291.218676,397.07688 C286.186339,394.351328 276.934296,390.876788 263.479786,386.663795 Z" id="Rectangle" stroke="#979797" fill="#D8D8D8"></path>
        <path d="M182.507679,59.1207557 C192.387309,232.773869 199.281141,340.52712 203.188284,382.369761 C207.049718,423.722892 211.115834,447.140805 215.266899,452.321265 C234.208196,456.657366 246.323477,454.310938 251.71517,445.386315 C253.098957,443.095797 255.610503,431.976487 257.991855,416.707362 C260.938554,397.813255 263.461132,374.511893 265.113339,348.898487 C267.884647,305.936169 271.345788,209.343159 275.496284,59.127609 C259.639144,31.6978447 244.12159,18.0238465 229,18.0238465 C213.87967,18.0238465 198.36344,31.695567 182.507679,59.1207557 Z" id="Rectangle" stroke="#979797" fill="#5792D7"></path>
        <g transform="translate(230.135606, 277.135606) rotate(-45.000000) translate(-230.135606, -277.135606) translate(30.635606, 77.635606)" fill="#000000">
            <path d="M336.65625,141.1292 L366.575393,114.528983 L366.689278,114.434621 C390.744985,92.1490084 402.325434,59.4738555 397.675683,27.0102017 L396.588898,19.3018332 C395.284104,10.5392177 388.405467,3.65732646 379.642852,2.34927868 L371.993052,1.26900159 C339.464322,-3.39051041 306.724091,8.23874609 284.415701,32.3692915 L257.815484,62.2916884 L243.439979,54.0204034 C205.594459,32.3139763 162.715235,20.9255042 119.087626,20.9873267 L106.716491,21.032881 C94.8562109,21.0881962 83.9135159,27.4299489 77.9687333,37.6925887 L75.6389781,41.7403771 C73.8038063,44.9258956 74.893846,48.9964603 78.0761109,50.8348857 L205.038052,124.1376 L105.824937,236.545073 L98.2271986,246.313128 C77.6238257,235.025526 54.5117349,229.097012 31.0156902,229.074235 L20.9808194,229.028681 C13.8776665,229.110027 7.33092196,232.900761 3.72891073,239.024506 L0.894808729,243.875995 C0.00976158914,245.405304 -0.231023499,247.22746 0.227769858,248.93573 C0.683307908,250.644002 1.80263202,252.101726 3.33519519,252.983519 L67.9729086,290.301914 C66.1409922,293.845357 64.4034363,297.39856 62.822066,301.049378 C59.3469551,309.281617 60.1994632,318.704764 65.0965068,326.178856 C69.9935496,333.652947 78.2908645,338.198574 87.2259348,338.302697 C90.893023,338.29619 94.5210642,337.541297 97.8887983,336.09008 C98.0579984,336.021749 98.2271986,335.943657 98.386637,335.855803 C101.718579,334.424109 105.15139,332.738616 108.636262,330.939237 L145.954658,395.576951 C146.833198,397.116021 148.287668,398.245107 149.999193,398.707154 C151.710717,399.172454 153.536126,398.934923 155.071943,398.049876 L159.968987,395.219028 L160.008033,395.219028 C166.128523,391.584478 169.902988,385.008449 169.951796,377.89228 L169.906242,367.981056 C169.876957,344.465488 163.932175,321.333874 152.618541,300.717486 L162.246681,293.227125 L274.742008,193.896872 L348.083768,320.875082 C349.925447,324.057346 353.996012,325.150639 357.181531,323.315468 L361.226065,320.988966 C371.491959,315.04093 377.833711,304.094981 377.885773,292.228193 L377.924819,279.873328 C378.10378,236.232703 366.708801,193.32094 344.904758,155.517721 L336.65625,141.1292 Z M106.765299,34.3606472 L119.133179,34.3150929 C160.414764,34.2207315 200.990263,45.0007344 236.782603,65.5683147 L248.938984,72.5608364 L213.927567,113.930275 L90.5839071,42.6970083 C94.335595,37.4941041 100.348708,34.3964397 106.765299,34.3606472 Z M21.0133575,242.356448 L31.0091821,242.402001 C51.5604943,242.405255 71.8026897,247.39666 89.9982143,256.949961 L85.8137638,262.341589 C83.3929,265.400207 81.0956829,268.63128 78.8570347,271.950205 C78.1899958,272.910091 77.5912876,273.8895 76.9567868,274.868908 C76.1368168,276.141163 75.2778006,277.367865 74.4838614,278.672658 L15.8429914,244.839135 C17.111993,243.283794 19.0057328,242.372717 21.0133575,242.356448 Z M156.542684,367.990818 L156.591491,377.836965 C156.591491,379.877129 155.673906,381.806661 154.099043,383.095185 L120.272027,324.454315 C121.563805,323.666884 122.77749,322.827391 124.03673,322.013929 C125.029154,321.350144 126.037848,320.741674 127.010748,320.081142 C130.241821,317.910825 133.381785,315.678684 136.339534,313.352183 L136.538018,313.205759 L142.004485,308.952979 C151.56104,327.164772 156.549191,347.423237 156.542684,367.990818 Z M153.737865,282.964485 L140.022891,293.627349 C139.990353,293.627349 139.944799,293.627349 139.91226,293.685918 L128.289511,302.751142 C121.866413,307.784847 115.052853,312.304443 107.910654,316.25787 C102.977818,319.052926 97.89856,321.584421 92.6989087,323.842592 C92.549232,323.901161 92.4093163,323.966238 92.2628933,324.041077 C87.2487119,325.977117 81.5609828,324.724385 77.8223103,320.86532 C74.0803841,317.003001 73.009868,311.27948 75.105346,306.327122 C77.3765331,301.088425 79.9210428,295.973374 82.7356229,291.001492 C86.6955572,283.826755 91.2216615,276.980656 96.2748891,270.531528 L105.271782,258.98687 C105.271782,258.98687 105.271782,258.915286 105.323843,258.882747 L116.087576,245.02135 L294.281372,41.327138 C310.661249,23.6554838 333.656201,13.5978359 357.754208,13.5718051 C361.880089,13.5718051 365.999461,13.8679056 370.083042,14.4633593 L377.732842,15.5436373 C380.654798,15.9763998 382.958524,18.2638552 383.401048,21.1890658 L384.487833,28.8909269 C388.503083,57.0009301 378.474719,85.293148 357.653338,104.598235 L153.737865,282.964485 Z M364.584038,292.189148 C364.548245,298.59923 361.447327,304.60909 356.241168,308.35427 L285.017663,184.978071 L326.400117,149.999193 L333.402401,162.168589 C354.031805,197.947914 364.805299,238.559205 364.623084,279.860313 L364.584038,292.189148 Z" id="Shape" fill-rule="nonzero"></path>
            <path d="M321.874013,49.6830227 C329.732059,45.0332724 339.744153,46.2990196 346.196536,52.7579108 C352.648919,59.2200548 353.908159,69.2288948 349.248647,77.0836863 C347.371175,80.2496822 348.415661,84.3365167 351.578402,86.2172411 C354.744398,88.0947119 358.834486,87.0534801 360.711957,83.8874851 C368.475641,70.8005042 366.38667,54.1147657 355.632698,43.3445245 C344.878727,32.5775378 328.196242,30.4625355 315.096246,38.2066973 C313.02029,39.4041138 311.748034,41.6264922 311.764304,44.0213251 C311.777319,46.4194118 313.078859,48.6222683 315.171084,49.793654 C317.263309,50.9650397 319.824088,50.922739 321.874013,49.6830227 Z" id="Path"></path>
        </g>
    </g>
</svg>