<?xml version="1.0" encoding="UTF-8"?>
<svg width="115px" height="45px" viewBox="0 0 115 45" version="1.1" xmlns="http://www.w3.org/2000/svg" xmlns:xlink="http://www.w3.org/1999/xlink">
    <!-- Generator: Sketch 52.6 (67491) - http://www.bohemiancoding.com/sketch -->
    <title>bush</title>
    <desc>Created with Sketch.</desc>
    <g id="bush" stroke="none" stroke-width="1" fill="none" fill-rule="evenodd">
        <path d="M49.1878054,23.5816605 C65.1156971,11.9204314 74.0673972,6.38634841 76.0429056,6.97941153 C79.0061683,7.86900622 82.8578382,13.8412175 88.5935115,18.6745148 C91.4608297,21.0907266 97.0114441,25.2895355 105.245355,31.2709416 L107,42 L8,42 C15.289616,28.491069 22.3115268,20.2264325 29.0657323,17.2060907 C35.8199379,14.1857489 42.5272956,16.3109388 49.1878054,23.5816605 Z" id="Rectangle" fill="#FFFFFF"></path>
        <g id="garden" transform="translate(4.000000, 4.000000)" fill="#000000" fill-rule="nonzero">
            <path d="M107.309708,35.8612673 C106.930983,29.136442 102.332952,23.2861455 95.9299572,21.3107643 C93.9208517,17.0374222 90.0184218,13.9389521 85.4295324,12.9343558 C83.9249884,6.09743486 77.7687895,0.999214954 70.5949363,0.999214954 C65.0630409,0.999214954 60.0469804,3.97157737 57.3730481,8.70274494 C52.1071443,8.90287223 47.3726145,11.7153156 44.6529792,16.0724248 C42.9580059,11.4107078 36.1168183,7.35136834 33.2912856,7.35136834 C31.4075971,7.35136834 29.7743467,7.67947642 28.3915344,8.3356926 C25.5786649,9.3183572 23.1713336,11.2611454 21.6226101,13.87072 C15.3807942,14.225588 10.3373118,18.8343033 9.35987625,24.9124463 C4.7563618,26.9563643 1.3338138,31.0100843 0.0736287624,35.8606581 L-7.10542736e-14,41 L60.2236988,41 L107.309708,41 L107.309708,35.8612673 Z M5.46445417,35.8612673 C6.69051428,32.7375148 9.26968893,30.2491741 12.5554325,29.1851792 C13.5892352,28.8504153 14.3006791,27.9021714 14.3326712,26.8165494 C14.4621632,22.4268471 18.0053672,18.9881302 22.399257,18.9881302 C22.5753661,18.9881302 22.7679282,18.9963546 23.0046699,19.0137173 C24.1058084,19.0932199 25.1359548,18.4645095 25.5634305,17.4465104 C26.7614595,14.5972095 29.5325869,12.7558557 32.6233308,12.7558557 C36.5921824,12.7558557 39.9425196,15.8512796 40.2508628,19.8029559 C40.3495813,21.0643366 41.3516966,22.0664961 42.6137097,22.165189 C43.3144896,22.2197138 43.9921133,22.3735407 44.6337839,22.6080887 C44.6365261,22.6090025 44.6389636,22.6105256 44.6417058,22.6114394 C44.7608384,22.6553029 44.8781428,22.7025171 44.9945332,22.7518636 C45.0195175,22.7625248 45.0448066,22.7731861 45.0697909,22.784152 C45.1785641,22.8313662 45.2861186,22.8810172 45.3918449,22.9331052 C45.427798,22.951077 45.4631417,22.9696581 45.49879,22.9879346 C45.6453444,23.0628681 45.788852,23.1426753 45.9296173,23.2264424 C46.0063984,23.2724382 46.0837889,23.3169109 46.1587419,23.3656482 C46.2157183,23.4022011 46.270562,23.4414955 46.326015,23.4789623 C46.4104133,23.5365331 46.4942022,23.5950178 46.5764676,23.6559394 C46.6230847,23.6906646 46.6690924,23.7253899 46.7144908,23.761029 C46.8138187,23.8383994 46.9119279,23.9182066 47.0072949,24.0007553 C47.0338027,24.0232963 47.0603104,24.0449235 47.0865135,24.067769 C47.3397083,24.2919603 47.5782782,24.5335143 47.8003949,24.789994 C47.8208089,24.8137534 47.8409183,24.8375128 47.8610276,24.8615768 C47.9545665,24.9721494 48.0447538,25.0857681 48.132199,25.2018237 C48.1489567,25.22406 48.1663239,25.2459918 48.182777,25.2685328 C48.3823469,25.5402429 48.564245,25.8265742 48.7275572,26.1253944 C48.7491899,26.1649934 48.769604,26.2055062 48.790932,26.2457144 C48.8488226,26.3562871 48.9039709,26.4689919 48.9566817,26.5832198 C48.9777051,26.6283018 48.9987285,26.6733837 49.0188379,26.7187703 C49.0837362,26.8668096 49.1452829,27.0169813 49.2010406,27.1695897 C49.2031734,27.1750727 49.2050016,27.1799464 49.2071344,27.1854293 C49.5084697,28.0176177 50.2171715,28.6362761 51.0824823,28.822696 C51.3122162,28.8720425 51.5373798,28.9323548 51.7588872,29.0002823 C51.831098,29.0225187 51.901176,29.0496288 51.9727774,29.0736928 C52.1202459,29.1230392 52.2671049,29.1732995 52.4106125,29.2305658 C52.4934873,29.263768 52.5742293,29.3012348 52.6555808,29.3368739 C52.7838539,29.3929217 52.9115178,29.4498834 53.0364394,29.5120233 C53.120533,29.5537546 53.2021891,29.5988365 53.2844545,29.6433093 C53.402673,29.7069723 53.5196728,29.7727676 53.6339304,29.8419135 C53.7152818,29.8909554 53.7954145,29.9418249 53.8749377,29.9936082 C53.9858438,30.0658002 54.0952264,30.1410383 54.2024762,30.2184087 C54.2789526,30.2735427 54.3545149,30.3286767 54.4288585,30.3862476 C54.5351943,30.4684917 54.6381784,30.5540864 54.7402486,30.6408997 C54.8094125,30.699689 54.8794905,30.7581736 54.9468263,30.8190952 C55.0513339,30.9141328 55.1512712,31.0131303 55.2509038,31.1127371 C55.3097084,31.1715264 55.3706458,31.2290972 55.4276222,31.2900188 C55.539747,31.4091204 55.645778,31.5334004 55.750895,31.6582895 C55.7898949,31.7048945 55.8313324,31.748758 55.8694182,31.7959722 C56.0095742,31.9708171 56.1433318,32.1505357 56.2694721,32.3360418 C56.2959799,32.374727 56.3188314,32.4161536 56.3444251,32.4551434 C56.4416202,32.6031828 56.5363779,32.7527452 56.6244324,32.9065721 C56.6640417,32.9763273 56.69969,33.0488239 56.7374712,33.1197975 C56.8057211,33.2471236 56.8727522,33.3747542 56.9346036,33.5054309 C56.9729942,33.5867612 57.0071191,33.6699191 57.0427675,33.7521632 C57.0970018,33.877357 57.1494079,34.0025508 57.1975484,34.130486 C57.2304546,34.2182131 57.2606186,34.3068539 57.2907826,34.3957994 C57.3337435,34.5225162 57.3739622,34.6501469 57.411134,34.7793005 C57.437337,34.8706829 57.461712,34.9626744 57.4851729,35.0549706 C57.5177744,35.1859519 57.5464149,35.317847 57.5729227,35.450656 C57.5915086,35.5432568 57.6094851,35.6358575 57.6250242,35.7296767 C57.6323367,35.7732356 57.6359929,35.8174038 57.6423913,35.8612673 L5.46445417,35.8612673 Z M62.8251156,35.8615719 L62.8251156,35.8612673 C62.8229828,35.8368986 62.8178031,35.8128346 62.815975,35.7887706 C62.7864203,35.4820306 62.7483345,35.1771183 62.6980611,34.8758612 C62.6950143,34.8581939 62.6910533,34.8405267 62.6880065,34.8228594 C62.6356003,34.5155102 62.5731395,34.2112071 62.5000146,33.9102546 C62.4969678,33.8971565 62.4945303,33.8840584 62.4911787,33.8715694 C62.4177492,33.5733585 62.3327415,33.279412 62.2401167,32.9888162 C62.2300621,32.9577462 62.2209214,32.9257624 62.2105621,32.8946924 C62.119156,32.6150625 62.0173906,32.3396971 61.908008,32.0673777 C61.8921643,32.0280833 61.8769299,31.9884843 61.8607815,31.9494945 C61.7510942,31.6829628 61.632571,31.4210001 61.5064307,31.1629973 C61.486626,31.1221799 61.4668214,31.0816671 61.4464073,31.0411542 C61.3178295,30.7846745 61.1819391,30.5324593 61.0381269,30.2851178 C61.0161894,30.2476511 60.994252,30.2107935 60.9720098,30.1733268 C60.823932,29.923853 60.6688463,29.6789484 60.5052295,29.4398313 C60.4854248,29.410589 60.4647061,29.3822604 60.4445968,29.3536273 C60.2739721,29.1081135 60.096949,28.8671687 59.91109,28.6335346 C59.8995119,28.6189134 59.8870198,28.6049015 59.8754416,28.5899757 C59.6810514,28.3475079 59.4793487,28.1111323 59.26881,27.8823719 C59.2663725,27.879935 59.2642397,27.8771935 59.2621069,27.8747567 C59.0537011,27.6487377 58.8364593,27.430334 58.6131238,27.218327 C58.5936238,27.1997459 58.5747333,27.1805556 58.5552333,27.1622792 C58.340429,26.9609334 58.1180076,26.7672029 57.8901018,26.5795645 C57.8596331,26.5545867 57.8294691,26.5289996 57.7986957,26.5037172 C57.5744461,26.3224756 57.3441028,26.1485446 57.1079705,25.9813149 C57.0714081,25.9554233 57.0348456,25.9295316 56.9982832,25.9039445 C56.7624555,25.7400656 56.5208388,25.5834972 56.2740424,25.434544 C56.2353472,25.4113938 56.1963473,25.3882436 56.157652,25.365398 C55.9075041,25.2176633 55.6527858,25.0772391 55.3928879,24.945344 C55.3572395,24.9270675 55.3209818,24.9103141 55.2850287,24.8926468 C55.0169043,24.7601424 54.7445142,24.6343394 54.466335,24.5191977 C54.4416554,24.5088411 54.4166711,24.5000074 54.3919914,24.4899554 C54.1004061,24.371463 53.8045551,24.2608903 53.502915,24.162502 C53.502001,24.1621974 53.5007822,24.1615882 53.4995635,24.160979 C53.4864619,24.1344781 53.4715323,24.1098049 53.4584307,24.0836086 C53.3545325,23.8755615 53.2457593,23.6711697 53.131197,23.4701286 C53.0726971,23.3674758 53.0102363,23.2672599 52.9492989,23.1661301 C52.87526,23.0445916 52.8006117,22.9233577 52.7229166,22.8042561 C52.6482683,22.689419 52.5714872,22.5767141 52.4928779,22.4646184 C52.4246281,22.3674486 52.3545501,22.2718017 52.2838627,22.1764595 C52.1948942,22.0561395 52.1056209,21.9364286 52.0123867,21.8194592 C51.9575431,21.7509225 51.8999572,21.6851272 51.8438948,21.6181135 C51.6272624,21.3576739 51.4008801,21.1063725 51.1641384,20.8639047 C51.1233103,20.8221735 51.0843104,20.7789192 51.0431777,20.7377971 C50.9255685,20.6208277 50.8039984,20.5087321 50.6821237,20.3963318 C50.611741,20.3314504 50.541663,20.2668735 50.4697569,20.2035151 C50.3533665,20.1011669 50.235148,20.0006464 50.114492,19.9019535 C50.0267421,19.830066 49.9374689,19.7609201 49.8478909,19.6911649 C49.7360708,19.6049609 49.6251648,19.5178431 49.5102978,19.4349898 C49.3488138,19.3180204 49.1836735,19.206534 49.016705,19.0971798 C48.9722208,19.0679374 48.9298693,19.035649 48.8847756,19.0070159 C50.7579907,15.8433598 54.1869371,13.8320348 57.9754141,13.8320348 C58.2072808,13.8320348 58.4589522,13.8426961 58.7672954,13.8652371 C59.8669104,13.9471766 60.8982756,13.3157247 61.3257513,12.2980302 C62.8982404,8.55683782 66.5368115,6.13947073 70.5949363,6.13947073 C75.8059965,6.13947073 80.2047613,10.2041565 80.6093855,15.3928449 C80.7077994,16.6542256 81.7102193,17.6563851 82.9722325,17.7547734 C86.8926389,18.060295 90.2911166,20.6479378 91.6305203,24.3473989 C91.9318556,25.1795873 92.6405573,25.7982457 93.5058682,25.9846656 C98.2480151,27.00632 101.76593,31.0831901 102.161109,35.8624857 L62.8251156,35.8624857 L62.8251156,35.8615719 Z" id="Shape"></path>
        </g>
    </g>
</svg>