<?xml version="1.0" encoding="UTF-8"?>
<svg width="92px" height="116px" viewBox="0 0 92 116" version="1.1" xmlns="http://www.w3.org/2000/svg" xmlns:xlink="http://www.w3.org/1999/xlink">
    <!-- Generator: Sketch 52.6 (67491) - http://www.bohemiancoding.com/sketch -->
    <title>cameraman</title>
    <desc>Created with Sketch.</desc>
    <g id="cameraman" stroke="none" stroke-width="1" fill="none" fill-rule="evenodd">
        <g id="Group-3">
            <path d="M19.5182613,40.5049505 C28.3548173,40.5049505 35,30.4934102 35,20 C35,18.3466343 35.3342014,16.1157886 35,14.5865749 C33.2131265,6.41033323 26.4442481,1 19,1 C15.5025529,1 11.5591227,1.37857624 8.92627913,3.63948919 C4.90705083,7.0909382 3.88798869,13.7929957 3.88798869,20.1331875 C3.88798869,30.6265977 10.6817053,40.5049505 19.5182613,40.5049505 Z" id="Oval" fill="#FFFFFF"></path>
            <path d="M11,38.1121961 L25.7922918,38.933263 C24.8439746,47.1997442 24.7306764,53.377594 25.4523972,57.4668125 C26.174118,61.556031 27.6899856,67.4004268 30,75 C24.4538467,76.880757 20.28718,77.8211354 17.5,77.8211354 C14.71282,77.8211354 10.4241622,76.0140903 4.63402655,72.4 L10.2684985,42.5550531 L11,38.1121961 Z" id="Rectangle" fill="#FFFFFF"></path>
            <g id="Group" fill="#000000">
                <g id="high-five" transform="translate(18.000000, 58.000000) scale(-1, 1) translate(-18.000000, -58.000000) ">
                    <path d="M13.9281467,18.578125 C13.0024857,18.578125 12.2520809,19.356922 12.2520809,20.3176062 L12.2520809,22.7292688 C12.2520809,23.689953 13.0024857,24.46875 13.9281467,24.46875 C14.8538077,24.46875 15.6042126,23.689953 15.6042126,22.7292688 L15.6042126,20.317835 C15.6044331,19.356922 14.8538077,18.578125 13.9281467,18.578125 Z" id="Path"></path>
                    <path d="M7.83336164,18.578125 C6.90770062,18.578125 6.15729574,19.356922 6.15729574,20.3176062 L6.15729574,22.7292688 C6.15729574,23.689953 6.90770062,24.46875 7.83336164,24.46875 C8.75902267,24.46875 9.50942755,23.689953 9.50942755,22.7292688 L9.50942755,20.317835 C9.50942755,19.356922 8.75902267,18.578125 7.83336164,18.578125 Z" id="Path"></path>
                    <path d="M20.2128876,28.7739123 C19.3788048,28.3024221 18.3161843,28.5888943 17.8396636,29.4145683 C16.9394673,30.9744263 15.4508834,31.7878715 13.2892684,31.9022339 C12.3300503,31.952961 11.5938796,32.7641415 11.6451233,33.7136893 C11.6945369,34.6319855 12.4625061,35.34375 13.3805462,35.34375 C13.4116585,35.34375 13.4432283,35.3430706 13.474798,35.3412589 C16.815247,35.16462 19.3694254,33.7062161 20.8600682,31.1232107 C21.3365889,30.2977632 21.0469704,29.2458554 20.2128876,28.7739123 Z" id="Path"></path>
                    <path d="M33.5411737,19.2462207 C32.3353648,18.0385106 30.7314756,17.37351 29.0248341,17.37351 C28.4872556,17.37351 27.9596575,17.4395336 27.4515665,17.5677238 L27.4515665,16.9678392 C27.4515665,16.0151481 26.6794495,15.2428308 25.7270057,15.2428308 C20.8990066,15.2428308 20.4827803,10.760486 20.4519319,10.2592966 C20.4181348,9.5779602 19.9860306,8.98079826 19.3497826,8.73530844 C18.7135347,8.48981861 17.9924537,8.64273926 17.5102209,9.12509727 C14.6805621,11.9554906 7.59654808,12.1723929 3.63502575,11.9421044 C4.39330626,7.13690196 8.56282837,3.45047066 13.5763713,3.45047066 L18.8310307,3.45047066 C20.5696548,3.45047066 22.2824206,3.90038408 23.7844647,4.75165748 C24.6130614,5.22130992 25.6655357,4.93021616 26.1352931,4.10117751 C26.6048237,3.27213886 26.3138055,2.21939137 25.4849819,1.74973893 C23.4653201,0.604876037 21.1643935,0 18.8312576,0 L13.5763713,0 C6.12489868,0 0.0625106166,6.06396168 0.0625106166,13.5173685 C0.0625106166,14.3926918 0.718265616,15.1293881 1.58746422,15.2310327 C1.71947716,15.2464609 4.86487826,15.6049396 8.63201041,15.3819114 C12.3902963,15.1591101 15.4005089,14.4462367 17.6240877,13.2566774 C18.4998643,15.5500334 20.4038447,17.9688569 24.002218,18.5578509 L24.002218,20.4652751 C24.002218,21.1629472 24.4223005,21.7918731 25.066941,22.058917 C25.7113547,22.325734 26.4533037,22.1782586 26.9464242,21.6850101 C27.5016951,21.1295951 28.2397881,20.8235269 29.0248341,20.8235269 C29.8094265,20.8235269 30.5463853,21.1291413 31.1021099,21.6859177 C31.6569271,22.2401983 31.9626891,22.9773484 31.9626891,23.7619176 C31.9626891,24.5464867 31.657154,25.2836368 31.1012026,25.838825 C30.7840993,26.1560106 30.4111968,26.3908368 29.9922485,26.5374046 C29.3807246,26.7511305 28.9404547,27.2897561 28.8524461,27.9316144 C27.9941351,34.1945544 22.5727583,38.9173975 16.2422615,38.9173975 C9.22266624,38.9173975 3.51163221,33.204881 3.51163221,26.1834637 L3.51163221,18.8076516 C3.51163221,17.8549605 2.73951529,17.0826431 1.78707141,17.0826431 C0.834627538,17.0826431 0.0625106166,17.8549605 0.0625106166,18.8076516 L0.0625106166,26.1830099 C0.0625106166,35.10686 7.32072723,42.3671875 16.2424884,42.3671875 C23.9622966,42.3671875 30.6185161,36.838675 32.1092189,29.3573612 C32.6313732,29.0694439 33.1102036,28.7086963 33.5398127,28.2787488 C34.7472094,27.0726269 35.4122643,25.4683214 35.4122643,23.7614638 C35.4118107,22.0548331 34.7467558,20.4505276 33.5411737,19.2462207 Z" id="Path"></path>
                    <path d="M30.4404809,6.5104295 C29.9457363,5.68834469 28.8707954,5.41856963 28.0397718,5.90844833 C27.2087483,6.39787133 26.9362702,7.46124988 27.4312451,8.28333469 C28.3675286,9.83909829 28.8625036,11.6247631 28.8625036,13.4473397 C28.8625036,14.4040842 29.6465402,15.1796875 30.6136876,15.1796875 C31.5808351,15.1796875 32.3648717,14.4040842 32.3648717,13.4473397 C32.365102,11.0009083 31.6996843,8.60232547 30.4404809,6.5104295 Z" id="Path"></path>
                    <path d="M28.2763007,47.750309 C27.6345915,45.9648121 26.942209,44.2502725 26.2002894,42.6765143 C25.794222,41.8148239 24.7648512,41.4450746 23.9015886,41.8506426 C23.0380988,42.2557573 22.6674799,43.282486 23.0737746,44.1439498 C27.4648475,53.4575062 30.1312132,68.5378823 30.7520169,72.3149474 C26.7726923,75.9133721 21.5165389,77.3103035 15.1133074,76.4681094 C11.830001,76.036244 9.01229736,75.0899941 7.36803096,74.4448031 C11.5898145,64.6486002 13.4074605,48.5399085 13.7435399,45.2516108 C13.8403416,44.3044541 13.1493225,43.4586327 12.1999382,43.3620581 C11.2491905,43.2654835 10.4027432,43.9551079 10.3059414,44.9020379 C10.1886886,46.0493715 10.0500758,47.2579145 9.89101186,48.5079437 C9.89101186,48.5079437 9.41177501,51.9662672 9.41177501,51.9662672 C8.19152756,60.1229685 6.18641331,69.2173051 3.51118551,74.5552065 C3.3062203,74.9639484 3.27258964,75.4375267 3.4173378,75.8712057 C3.5623132,76.3048847 3.87385124,76.6632989 4.28378167,76.8677832 C4.38240129,76.9169773 5.70649476,77.5694227 7.81613672,78.2799036 C7.06671846,80.268978 5.96372383,83.76108 5.40427332,88.2642683 C4.66258102,94.2330785 4.79165002,103.093686 9.19908384,112.552785 L6.01462428,112.552785 C5.06046803,112.552785 4.28696294,113.324475 4.28696294,114.276392 C4.28696294,115.22831 5.06046803,116 6.01462428,116 L12.0026989,116 C12.6119137,116 13.1761362,115.679898 13.4876742,115.157579 C13.7992122,114.63526 13.8117101,113.987802 13.5210776,113.453695 C9.34883115,105.790521 7.76614521,97.5032401 8.81755768,88.8212726 C9.35428477,84.3892684 10.4797756,80.9796856 11.1526159,79.235675 C12.2085731,79.4864063 13.350652,79.7090266 14.5565837,79.8715712 C15.9202159,80.0554257 17.2490813,80.1467862 18.5395441,80.1467862 C20.6032848,80.1467862 22.5654518,79.90739 24.4155923,79.4442399 C23.7168473,81.5078989 22.8824434,84.540478 22.4197947,88.2638149 C21.6781023,94.2326251 21.8069441,103.093233 26.2146052,112.552331 L23.0301456,112.552331 C22.0759894,112.552331 21.3024843,113.324022 21.3024843,114.275939 C21.3024843,115.227856 22.0759894,115.999547 23.0301456,115.999547 L29.0182203,115.999547 C29.6274351,115.999547 30.1916575,115.679445 30.5031955,115.157126 C30.8147336,114.634807 30.8272314,113.987349 30.5365989,113.453241 C26.3641252,105.790068 24.7816665,97.5027867 25.833079,88.8208192 C26.6218088,82.3088335 28.6819137,78.0019682 28.7089546,77.9464265 C28.7266788,77.9099276 28.7412218,77.8727487 28.7562193,77.835343 C30.614313,76.8915868 32.3117522,75.6644544 33.8235411,74.1562128 C34.2107481,73.7699143 34.3913993,73.2233382 34.3107312,72.6831098 C34.233926,72.1698587 32.9727764,63.8637614 30.5718202,55.0936072 C30.5718202,55.0936072 28.2763007,47.750309 28.2763007,47.750309 Z" id="Path"></path>
                </g>
                <path d="M36.4310216,31.6163827 C33.2672484,25.1988551 32.7863703,31.0063978 33.8940282,33.2619135 C36.6673168,38.9093378 39.9733297,47.8653067 39.9733297,58.4608366 C39.9733297,59.358864 40.6313328,60.0869656 41.4433326,60.0869656 C42.2553324,60.0869656 42.9133355,59.358864 42.9133355,58.4608366 C42.9125646,47.1399768 39.3877955,37.6141059 36.4310216,31.6163827 Z" id="Path" transform="translate(38.133849, 44.388231) scale(-1, 1) rotate(130.000000) translate(-38.133849, -44.388231) "></path>
                <path d="M24.9735332,43.07357 C21.8097601,36.6560424 20.5511979,36.6490272 20.3447769,36.4034128 C20.2453248,35.4727647 19.2473254,39.0077144 19.2473254,39.0077144 C20.2158274,40.5419513 21.328882,42.463585 22.4365399,44.7191008 C25.2098285,50.366525 28.5158413,59.3224939 28.5158413,69.9180238 C28.5158413,70.8160513 29.1738445,71.5441528 29.9858443,71.5441528 C30.797844,71.5441528 31.4558472,70.8160513 31.4558472,69.9180238 C31.4550762,58.5971641 27.9303072,49.0712931 24.9735332,43.07357 Z" id="Path" transform="translate(25.351586, 53.895739) scale(-1, 1) rotate(90.000000) translate(-25.351586, -53.895739) "></path>
            </g>
            <g id="Group-2" transform="translate(39.000000, 20.000000)" fill="#FFFFFF">
                <rect id="Rectangle" x="7" y="0" width="26" height="15"></rect>
                <rect id="Rectangle" transform="translate(37.500000, 7.500000) scale(-1, 1) translate(-37.500000, -7.500000) " x="33" y="2" width="9" height="11"></rect>
                <rect id="Rectangle" x="0" y="0" width="8" height="5"></rect>
            </g>
            <g id="tripod" transform="translate(59.500000, 67.000000) scale(-1, 1) translate(-59.500000, -67.000000) translate(27.000000, 18.000000)" fill="#000000" fill-rule="nonzero">
                <path d="M60.8747423,86.2681825 L40.8855145,33.0120898 C40.5999596,32.2514443 39.8749133,31.7478565 39.0649825,31.7478565 L34.1516062,31.7478565 L34.1516062,27.1502963 L51.370932,27.1502963 C52.4452442,27.1502963 53.3164062,26.2763388 53.3164062,25.1981516 C53.3164062,24.1199644 52.4452442,23.2460069 51.370932,23.2460069 L34.1516062,23.2460069 L34.1516062,18.6484467 L46.0689949,18.6484467 C47.1433072,18.6484467 48.0144691,17.7744892 48.0144691,16.696302 L48.0144691,9.73641509 L53.7913773,9.73641509 C54.8656896,9.73641509 55.7368515,8.86245757 55.7368515,7.78427037 L55.7368515,1.95214472 C55.7370423,0.873957524 54.8658803,0 53.7915681,0 L19.4799571,0 C18.4056449,0 17.5344829,0.873957524 17.5344829,1.95214472 L17.5344829,2.52349014 L11.788858,1.15781188 C11.210118,1.01980852 10.6004763,1.15589783 10.1335167,1.52626748 C9.66693864,1.89644572 9.39473629,2.46051773 9.39473629,3.05751149 L9.39473629,15.554951 C9.39473629,16.1504135 9.66579413,16.7133371 10.130274,17.0837067 C10.4776324,17.3604791 10.9049157,17.5070957 11.3402105,17.5070957 C11.4870891,17.5070957 11.6349215,17.4904434 11.7808464,17.4563732 L17.5344829,16.1142378 L17.5344829,16.696302 C17.5344829,17.7744892 18.4056449,18.6484467 19.4799571,18.6484467 L30.2604671,18.6484467 L30.2604671,31.7478565 L25.3470908,31.7478565 C24.53716,31.7478565 23.811923,32.2514443 23.5265588,33.0120898 L0.125359485,95.3589869 C-0.253282178,96.3678853 0.25468898,97.4939239 1.26033072,97.8740552 C1.48618045,97.959422 1.71794349,98 1.94550999,98 C2.73235979,98 3.47285699,97.5176581 3.7664235,96.7351924 L16.9286563,61.6674075 L30.2602763,75.0445467 L30.2602763,96.0470897 C30.2602763,97.1252769 31.1314383,97.9992344 32.2057505,97.9992344 C33.2800628,97.9992344 34.1512247,97.1252769 34.1512247,96.0470897 L34.1512247,74.9431018 L47.4551858,61.593525 L57.2331061,87.6441967 C57.4144769,88.1272198 58.7962792,91.2634901 61.3785128,97.0530078 C62.5697773,96.912559 63.2598556,96.8066206 63.4487478,96.7351924 C63.6402876,96.6628271 64.074215,96.4334595 64.7505301,96.0470897 C62.3468905,90.0083483 61.0549612,86.7487126 60.8747423,86.2681825 Z M48.0144691,3.90428944 L51.8459031,3.90428944 L51.8459031,5.83212566 L48.0144691,5.83212566 L48.0144691,3.90428944 Z M17.5344829,12.1058238 L13.2856847,13.0969215 L13.2856847,5.52625966 L17.5344829,6.53611509 L17.5344829,12.1058238 Z M23.3903622,8.44672482 L23.3903622,14.7441572 L21.4254313,14.7441572 L21.4254313,3.90428944 L44.12333,3.90428944 L44.12333,14.7441572 L42.1583991,14.7441572 L42.1583991,8.44672482 C42.1583991,7.36853762 41.2872371,6.4945801 40.2129249,6.4945801 L25.3358364,6.4945801 C24.2615242,6.49438869 23.3903622,7.36853762 23.3903622,8.44672482 Z M30.2606578,69.522498 L18.4346391,57.655931 L26.6934146,35.6519545 L30.2604671,35.6519545 L30.2604671,69.522498 L30.2606578,69.522498 Z M27.2815014,14.7441572 L27.2815014,10.3988695 L38.2676414,10.3988695 L38.2676414,14.7441572 L27.2815014,14.7441572 Z M34.1514155,69.4216273 L34.1514155,35.6521459 L37.7184679,35.6521459 L45.9497753,57.5824313 L34.1514155,69.4216273 Z" id="Shape"></path>
            </g>
        </g>
    </g>
</svg>