<?xml version="1.0" encoding="UTF-8"?>
<svg width="163px" height="140px" viewBox="0 0 163 140" version="1.1" xmlns="http://www.w3.org/2000/svg" xmlns:xlink="http://www.w3.org/1999/xlink">
    <!-- Generator: Sketch 52.6 (67491) - http://www.bohemiancoding.com/sketch -->
    <title>curtain</title>
    <desc>Created with Sketch.</desc>
    <g id="curtain" stroke="none" stroke-width="1" fill="none" fill-rule="evenodd">
        <rect id="Rectangle" fill="#FFFFFF" x="11" y="15" width="133" height="111"></rect>
        <g id="Group-3" transform="translate(6.000000, 11.000000)" fill="#000000">
            <g id="Group-2">
                <path d="M0.671875,0.142796875 L0.671875,2.82674219 L0.671875,15.0916641 L0.671875,117.794992 L2.83984375,117.794992 C5.35439844,117.794992 6.69998437,116.980125 7.78136719,116.325109 C8.61935937,115.817805 9.17291406,115.482492 10.476875,115.482492 C11.7808359,115.482492 12.3343906,115.817805 13.1723828,116.325109 C14.2534766,116.980125 15.5993516,117.794992 18.1139063,117.794992 C20.6281719,117.794992 21.9740469,116.980125 23.0551406,116.325109 C23.8925547,115.817805 24.4463984,115.482492 25.7497812,115.482492 C27.0531641,115.482492 27.6067187,115.817805 28.4441328,116.325109 C29.5252266,116.980125 30.8708125,117.794992 33.3850781,117.794992 C35.8993437,117.794992 37.2452187,116.980125 38.3263125,116.325109 C39.1637266,115.817805 39.7175703,115.482492 41.0206641,115.482492 C42.3243359,115.482492 42.8778906,115.817805 43.7153047,116.325109 C44.7963984,116.980125 46.1422734,117.794992 48.65625,117.794992 L50.8242187,117.791234 L50.8242188,0.142796875 L0.671875,0.142796875 Z M46.4882812,112.926313 C46.3191797,112.832367 46.1474766,112.728305 45.9618984,112.615859 C44.9967187,112.031375 43.8208125,111.319125 41.7910156,111.173148 L41.7910156,50.4573047 L37.4550781,50.4573047 L37.4550781,111.863141 C36.9278281,112.102195 36.4852734,112.370445 36.0797187,112.615859 C35.2423047,113.123164 34.6884609,113.458477 33.3850781,113.458477 C32.9087031,113.458477 32.5323438,113.413672 32.2059922,113.331867 L33.1191406,113.331867 L33.1191406,26.0138906 L28.7832031,26.0138906 L28.7832031,111.645188 C27.9929062,111.35468 27.0207891,111.146266 25.7497812,111.146266 C25.2762969,111.146266 24.8441484,111.175172 24.4472656,111.226625 L24.4472656,48.5607656 L20.1113281,48.5607656 L20.1113281,113.018234 C19.5768516,113.293133 19.0308125,113.459055 18.1139062,113.459055 C17.0030391,113.459055 16.4367656,113.215664 15.7753906,112.830055 L15.7753906,26.0138906 L11.4394531,26.0138906 L11.4394531,111.189336 C11.1385391,111.161586 10.8185469,111.146555 10.476875,111.146555 C7.96232031,111.146555 6.61673437,111.961422 5.53535156,112.616438 C5.34919531,112.729172 5.17720312,112.833234 5.0078125,112.92718 L5.0078125,4.47873438 L11.4394531,4.47873438 L11.4394531,16.3302969 L15.7753906,16.3302969 L15.7753906,4.47873438 L28.7832031,4.47873438 L28.7832031,16.3302969 L33.1191406,16.3302969 L33.1191406,4.47873438 L46.4882812,4.47873438 L46.4882812,112.926313 Z" id="Shape" fill-rule="nonzero"></path>
                <rect id="Rectangle" x="37.4550781" y="24.5671328" width="4.3359375" height="19.078125"></rect>
                <rect id="Rectangle" x="37.4550781" y="17.3405703" width="4.3359375" height="4.3359375"></rect>
                <rect id="Rectangle" x="37.4550781" y="10.1154531" width="4.3359375" height="4.3359375"></rect>
                <rect id="Rectangle" x="20.1113281" y="22.8327578" width="4.3359375" height="19.078125"></rect>
                <rect id="Rectangle" x="20.1113281" y="8.38107813" width="4.3359375" height="4.3359375"></rect>
                <rect id="Rectangle" x="20.1113281" y="15.6061953" width="4.3359375" height="4.3359375"></rect>
            </g>
            <g id="Group" transform="translate(46.000000, 0.000000)">
                <rect id="Rectangle" x="36.9589844" y="17.9186953" width="4.3359375" height="4.3359375"></rect>
                <rect id="Rectangle" x="36.9589844" y="25.1452578" width="4.3359375" height="19.078125"></rect>
                <rect id="Rectangle" x="36.9589844" y="10.6935781" width="4.3359375" height="4.3359375"></rect>
                <rect id="Rectangle" x="19.6152344" y="30.0593203" width="4.3359375" height="4.3359375"></rect>
                <rect id="Rectangle" x="19.6152344" y="8.38107813" width="4.3359375" height="4.3359375"></rect>
                <rect id="Rectangle" x="19.6152344" y="15.6061953" width="4.3359375" height="4.3359375"></rect>
                <rect id="Rectangle" x="19.6152344" y="22.8327578" width="4.3359375" height="4.3359375"></rect>
                <path d="M50.328125,2.82674219 L50.328125,0.142796875 L0.17578125,0.142796875 L0.17578125,117.794992 L2.34375,117.794992 C4.85830469,117.794992 6.20389062,116.980125 7.28527344,116.325109 C8.12326562,115.817805 8.67682031,115.482492 9.98078125,115.482492 C11.2847422,115.482492 11.8382969,115.817805 12.6762891,116.325109 C13.7573828,116.980125 15.1032578,117.794992 17.6178125,117.794992 C20.1320781,117.794992 21.4779531,116.980125 22.5590469,116.325109 C23.3964609,115.817805 23.9503047,115.482492 25.2536875,115.482492 C26.5570703,115.482492 27.110625,115.817805 27.9480391,116.325109 C29.0291328,116.980125 30.3747187,117.794992 32.8889844,117.794992 C35.40325,117.794992 36.749125,116.980125 37.8302187,116.325109 C38.6676328,115.817805 39.2214766,115.482492 40.5245703,115.482492 C41.8282422,115.482492 42.3817969,115.817805 43.2192109,116.325109 C44.3003047,116.980125 45.6461797,117.794992 48.1601562,117.794992 L50.328125,117.791234 L50.328125,15.091375 L50.328125,2.82674219 Z M45.9921875,112.926313 C45.8230859,112.832367 45.6513828,112.728305 45.4658047,112.615859 C44.500625,112.031375 43.3247187,111.319125 41.2949219,111.173148 L41.2949219,50.4573047 L36.9589844,50.4573047 L36.9589844,111.863141 C36.4317344,112.102195 35.9891797,112.370445 35.583625,112.615859 C34.7462109,113.123164 34.1923672,113.458477 32.8889844,113.458477 C32.4126094,113.458477 32.03625,113.413672 31.7098984,113.331867 L32.6230469,113.331867 L32.6230469,26.0138906 L28.2871094,26.0138906 L28.2871094,111.645188 C27.4968125,111.35468 26.5246953,111.146266 25.2536875,111.146266 C24.7802031,111.146266 24.3480547,111.175172 23.9511719,111.226625 L23.9511719,38.7326406 L19.6152344,38.7326406 L19.6152344,113.018234 C19.0807578,113.293133 18.5347187,113.459055 17.6178125,113.459055 C16.5069453,113.459055 15.9406719,113.215664 15.2792969,112.830055 L15.2792969,26.0138906 L10.9433594,26.0138906 L10.9433594,111.189336 C10.6424453,111.161586 10.3224531,111.146555 9.98078125,111.146555 C7.46622656,111.146555 6.12064062,111.961422 5.03925781,112.616438 C4.85310156,112.729172 4.68110937,112.833234 4.51171875,112.92718 L4.51171875,4.47873438 L10.9433594,4.47873438 L10.9433594,16.3302969 L15.2792969,16.3302969 L15.2792969,4.47873438 L28.2871094,4.47873438 L28.2871094,16.3302969 L32.6230469,16.3302969 L32.6230469,4.47873438 L45.9921875,4.47873438 L45.9921875,112.926313 Z" id="Shape" fill-rule="nonzero"></path>
            </g>
            <g id="Group" transform="translate(92.000000, 0.000000)">
                <rect id="Rectangle" x="36.9589844" y="17.9186953" width="4.3359375" height="4.3359375"></rect>
                <rect id="Rectangle" x="36.9589844" y="25.1452578" width="4.3359375" height="19.078125"></rect>
                <rect id="Rectangle" x="36.9589844" y="10.6935781" width="4.3359375" height="4.3359375"></rect>
                <rect id="Rectangle" x="19.6152344" y="30.0593203" width="4.3359375" height="4.3359375"></rect>
                <rect id="Rectangle" x="19.6152344" y="8.38107813" width="4.3359375" height="4.3359375"></rect>
                <rect id="Rectangle" x="19.6152344" y="15.6061953" width="4.3359375" height="4.3359375"></rect>
                <rect id="Rectangle" x="19.6152344" y="22.8327578" width="4.3359375" height="4.3359375"></rect>
                <path d="M50.328125,2.82674219 L50.328125,0.142796875 L0.17578125,0.142796875 L0.17578125,117.794992 L2.34375,117.794992 C4.85830469,117.794992 6.20389062,116.980125 7.28527344,116.325109 C8.12326562,115.817805 8.67682031,115.482492 9.98078125,115.482492 C11.2847422,115.482492 11.8382969,115.817805 12.6762891,116.325109 C13.7573828,116.980125 15.1032578,117.794992 17.6178125,117.794992 C20.1320781,117.794992 21.4779531,116.980125 22.5590469,116.325109 C23.3964609,115.817805 23.9503047,115.482492 25.2536875,115.482492 C26.5570703,115.482492 27.110625,115.817805 27.9480391,116.325109 C29.0291328,116.980125 30.3747187,117.794992 32.8889844,117.794992 C35.40325,117.794992 36.749125,116.980125 37.8302187,116.325109 C38.6676328,115.817805 39.2214766,115.482492 40.5245703,115.482492 C41.8282422,115.482492 42.3817969,115.817805 43.2192109,116.325109 C44.3003047,116.980125 45.6461797,117.794992 48.1601562,117.794992 L50.328125,117.791234 L50.328125,15.091375 L50.328125,2.82674219 Z M45.9921875,112.926313 C45.8230859,112.832367 45.6513828,112.728305 45.4658047,112.615859 C44.500625,112.031375 43.3247187,111.319125 41.2949219,111.173148 L41.2949219,50.4573047 L36.9589844,50.4573047 L36.9589844,111.863141 C36.4317344,112.102195 35.9891797,112.370445 35.583625,112.615859 C34.7462109,113.123164 34.1923672,113.458477 32.8889844,113.458477 C32.4126094,113.458477 32.03625,113.413672 31.7098984,113.331867 L32.6230469,113.331867 L32.6230469,26.0138906 L28.2871094,26.0138906 L28.2871094,111.645188 C27.4968125,111.35468 26.5246953,111.146266 25.2536875,111.146266 C24.7802031,111.146266 24.3480547,111.175172 23.9511719,111.226625 L23.9511719,38.7326406 L19.6152344,38.7326406 L19.6152344,113.018234 C19.0807578,113.293133 18.5347187,113.459055 17.6178125,113.459055 C16.5069453,113.459055 15.9406719,113.215664 15.2792969,112.830055 L15.2792969,26.0138906 L10.9433594,26.0138906 L10.9433594,111.189336 C10.6424453,111.161586 10.3224531,111.146555 9.98078125,111.146555 C7.46622656,111.146555 6.12064062,111.961422 5.03925781,112.616438 C4.85310156,112.729172 4.68110937,112.833234 4.51171875,112.92718 L4.51171875,4.47873438 L10.9433594,4.47873438 L10.9433594,16.3302969 L15.2792969,16.3302969 L15.2792969,4.47873438 L28.2871094,4.47873438 L28.2871094,16.3302969 L32.6230469,16.3302969 L32.6230469,4.47873438 L45.9921875,4.47873438 L45.9921875,112.926313 Z" id="Shape" fill-rule="nonzero"></path>
            </g>
        </g>
    </g>
</svg>