<?xml version="1.0" encoding="UTF-8"?>
<svg width="1264px" height="557px" viewBox="0 0 1264 557" version="1.1" xmlns="http://www.w3.org/2000/svg" xmlns:xlink="http://www.w3.org/1999/xlink">
    <!-- Generator: Sketch 52.6 (67491) - http://www.bohemiancoding.com/sketch -->
    <title>dissapointed</title>
    <desc>Created with Sketch.</desc>
    <g id="dissapointed" stroke="none" stroke-width="1" fill="none" fill-rule="evenodd">
        <rect fill="#FFFFFF" x="0" y="0" width="1264" height="557"></rect>
        <g id="high-five" transform="translate(554.000000, 185.000000)" fill="#000000">
            <path d="M62.512,82.417 C58.313,82.417 54.909,85.821 54.909,90.02 L54.909,100.561 C54.909,104.76 58.313,108.164 62.512,108.164 C66.711,108.164 70.115,104.76 70.115,100.561 L70.115,90.021 C70.116,85.821 66.711,82.417 62.512,82.417 Z" id="Path"></path>
            <path d="M35.107,82.417 C30.908,82.417 27.504,85.821 27.504,90.02 L27.504,100.561 C27.504,104.76 30.908,108.164 35.107,108.164 C39.306,108.164 42.71,104.76 42.71,100.561 L42.71,90.021 C42.71,85.821 39.306,82.417 35.107,82.417 Z" id="Path"></path>
            <path d="M148.118,84.875 C142.802,79.552 135.731,76.621 128.207,76.621 C125.837,76.621 123.511,76.912 121.271,77.477 L121.271,74.833 C121.271,70.634 117.867,67.23 113.668,67.23 C92.383,67.23 90.548,47.474 90.412,45.265 C90.263,42.262 88.358,39.63 85.553,38.548 C82.748,37.466 79.569,38.14 77.443,40.266 C64.968,52.741 33.737,53.697 16.272,52.682 C19.615,31.503 37.997,15.255 60.1,15.255 L83.266,15.255 C90.931,15.255 98.482,17.238 105.104,20.99 C108.757,23.06 113.397,21.777 115.468,18.123 C117.538,14.469 116.255,9.829 112.601,7.759 C103.697,2.713 93.553,0.047 83.267,0.047 L60.1,0.047 C27.249,0.047 0.522,26.774 0.522,59.625 C0.522,63.483 3.413,66.73 7.245,67.178 C7.827,67.246 21.694,68.826 38.302,67.843 C54.871,66.861 68.142,63.719 77.945,58.476 C81.806,68.584 90.2,79.245 106.064,81.841 L106.064,90.248 C106.064,93.323 107.916,96.095 110.758,97.272 C113.599,98.448 116.87,97.798 119.044,95.624 C121.492,93.176 124.746,91.827 128.207,91.827 C131.666,91.827 134.915,93.174 137.365,95.628 C139.811,98.071 141.159,101.32 141.159,104.778 C141.159,108.236 139.812,111.485 137.361,113.932 C135.963,115.33 134.319,116.365 132.472,117.011 C129.776,117.953 127.835,120.327 127.447,123.156 C123.663,150.76 99.762,171.576 71.853,171.576 C40.906,171.576 15.728,146.398 15.728,115.451 L15.728,82.942 C15.728,78.743 12.324,75.339 8.125,75.339 C3.926,75.339 0.522,78.743 0.522,82.942 L0.522,115.449 C0.522,154.781 32.521,186.781 71.854,186.781 C105.888,186.781 135.233,162.414 141.805,129.44 C144.107,128.171 146.218,126.581 148.112,124.686 C153.435,119.37 156.367,112.299 156.367,104.776 C156.365,97.254 153.433,90.183 148.118,84.875 Z" id="Path"></path>
            <path d="M134.485,29.181 C132.337,25.573 127.67,24.389 124.062,26.539 C120.454,28.687 119.271,33.354 121.42,36.962 C125.485,43.79 127.634,51.627 127.634,59.626 C127.634,63.825 131.038,67.229 135.237,67.229 C139.436,67.229 142.84,63.825 142.84,59.626 C142.841,48.889 139.952,38.362 134.485,29.181 Z" id="Path"></path>
        </g>
    </g>
</svg>