<?xml version="1.0" encoding="UTF-8"?>
<svg width="111px" height="232px" viewBox="0 0 111 232" version="1.1" xmlns="http://www.w3.org/2000/svg" xmlns:xlink="http://www.w3.org/1999/xlink">
    <!-- Generator: Sketch 52.6 (67491) - http://www.bohemiancoding.com/sketch -->
    <title>projector</title>
    <desc>Created with Sketch.</desc>
    <g id="projector" stroke="none" stroke-width="1" fill="none" fill-rule="evenodd">
        <g id="Group" transform="translate(5.000000, 7.000000)" fill="#000000">
            <g id="projector" transform="translate(2.000000, 0.000000)">
                <path d="M97.3500002,21.9522757 L92.3554508,21.9522757 C91.9877071,21.9524819 91.6304821,22.075609 91.3407009,22.3020638 L76.9824025,33.5018835 L72.600003,33.5018835 L72.600003,23.5263222 C72.600003,23.5263222 39.6264068,6.54984242 39.6709568,7.10257365 L37.6695071,7.10257365 C36.3519822,7.09968624 35.0880824,7.62416219 34.1599575,8.55947417 L29.525108,13.1941668 C28.3432956,5.08407344 20.8104278,-0.532335847 12.7002662,0.649436523 C5.40107953,1.71303166 -0.00906359917,7.97621898 1.13997882e-05,15.3522935 L1.13997882e-05,76.4002205 C1.13997882e-05,77.3114021 0.738798815,78.0501645 1.65001121,78.0501645 L9.90001026,78.0501645 L9.90001026,81.3500524 C9.90001026,82.261234 10.6387977,82.9999964 11.5500101,82.9999964 L31.3500078,82.9999964 C32.2612202,82.9999964 33.0000076,82.261234 33.0000076,81.3500524 L33.0000076,78.0501645 L39.3013569,78.0501645 L52.2373554,82.89605 C52.4225679,82.9651414 52.6187116,83.0004089 52.8165053,82.9999964 L70.9500032,82.9999964 C71.8612156,82.9999964 72.600003,82.261234 72.600003,81.3500524 L72.600003,56.6008928 L76.9824025,56.6008928 L91.3374009,67.8007125 C91.6271821,68.0271674 91.9844071,68.1502944 92.3521508,68.1505007 L97.3500002,68.1505007 C98.2612126,68.1505007 99,67.4117382 99,66.5005567 L99,23.6020134 C99,22.6908318 98.2614188,21.9522757 97.3500002,21.9522757 Z M14.8500097,3.80289194 C21.2258152,3.81011045 26.3927896,8.97691 26.4000084,15.3524998 C26.4028959,15.8701697 26.3692771,16.3872209 26.2993584,16.9001472 C25.4572397,23.2229388 19.6486216,27.6660316 13.3256161,26.8239415 C8.6571479,26.2021188 4.83368584,22.8081841 3.66301098,18.2465015 C3.42396726,17.3002586 3.30186727,16.3284416 3.30001102,15.3524998 C3.30743602,8.97670376 8.47420417,3.81011045 14.8500097,3.80289194 Z M29.700008,79.7003147 L13.2000099,79.7003147 L13.2000099,78.0503707 L29.700008,78.0503707 L29.700008,79.7003147 Z M53.1151553,79.7003147 L40.1791568,74.8544293 C39.9939443,74.7853379 39.7978006,74.7500703 39.6000068,74.7504828 L3.30001102,74.7504828 L3.30001102,24.6961325 C3.34786101,24.7555305 3.40396101,24.8066787 3.453461,24.8611269 C3.70756097,25.1647166 3.97321094,25.4577879 4.25041091,25.740547 C4.3527109,25.8444935 4.45666089,25.94679 4.56061087,26.0474366 C4.84936084,26.3246272 5.14966081,26.5902682 5.45821077,26.8427096 C5.53081076,26.9021076 5.60011075,26.9664554 5.67436075,27.0242034 C6.0571607,27.3244932 6.45542941,27.6056024 6.86896061,27.8673248 C6.9679606,27.9300227 7.07026059,27.9877707 7.17256057,28.0488186 C7.50256054,28.245162 7.8325605,28.4299557 8.17411046,28.6031998 C8.30281044,28.6675476 8.43151043,28.7318954 8.56186041,28.7929434 C8.95456037,28.9760871 9.35386032,29.1443814 9.76306028,29.2879266 C9.82081027,29.3077259 9.87691026,29.334125 9.92806026,29.3539243 C10.3952165,29.51665 10.8704164,29.6548328 11.3520101,29.7680603 C11.4840101,29.8010591 11.6176601,29.8258083 11.75131,29.8538573 C12.1231788,29.9330546 12.4981412,29.9980212 12.8766099,30.0485507 C13.0218099,30.0667001 13.1670099,30.0881494 13.3138599,30.1029989 C13.8239161,30.1628093 14.3366535,30.1960145 14.8500097,30.2019955 C15.3087096,30.2019955 15.7618408,30.181165 16.2096095,30.1392976 C16.3548095,30.1260981 16.4967095,30.098049 16.6402595,30.0798997 C16.9405594,30.0436009 17.2425094,30.0089521 17.5378594,29.9545039 C17.7144094,29.921505 17.8843593,29.8736567 18.0592593,29.835708 C18.3166593,29.7779599 18.5757093,29.7251617 18.8281592,29.6542141 C19.0129592,29.6030659 19.1911592,29.5370681 19.3726592,29.4793201 C19.6086091,29.4034226 19.8462091,29.332475 20.0772091,29.245028 C20.2620091,29.1757304 20.438559,29.0915832 20.620059,29.0156858 C20.839509,28.921639 21.062259,28.832542 21.2800589,28.7302455 C21.4632089,28.6411485 21.6381089,28.5405019 21.8179589,28.4448052 C21.9978089,28.3491084 22.2255088,28.2336124 22.4218588,28.1148164 C22.6182088,27.9960204 22.7766088,27.8871241 22.9515088,27.773278 C23.1264087,27.6594319 23.3244087,27.5356861 23.5042587,27.4069904 C23.6841087,27.2782948 23.8474587,27.1429994 24.0174086,27.0093539 C24.1873586,26.8757085 24.3474086,26.7486628 24.5124086,26.6100675 C24.6774086,26.4714722 24.8424085,26.3114276 25.0074085,26.1579828 C25.1724085,26.004538 25.3110085,25.8774924 25.4562085,25.7306473 C25.6014085,25.5838023 25.7664084,25.4006586 25.9182084,25.2356642 C26.0700084,25.0706698 26.1904584,24.9370243 26.3191584,24.7802796 C26.4478584,24.6235349 26.6062583,24.4139921 26.7465083,24.2258984 C26.8636583,24.0691538 26.9841083,23.914059 27.0963083,23.7507146 C27.2316083,23.5543712 27.3553582,23.3530781 27.4824082,23.150135 C27.5847082,22.9851406 27.6886582,22.8201462 27.7843582,22.6551518 C27.9031582,22.4472588 28.0104082,22.2327661 28.1143582,22.0182734 C28.2018082,21.8433793 28.2909081,21.6701352 28.3734081,21.4902913 C28.4724081,21.2741487 28.5598581,21.0514062 28.6489581,20.8303137 C28.7232081,20.6438701 28.7974581,20.4557765 28.8651081,20.264383 C28.9426581,20.0432905 29.0103081,19.8172481 29.0779581,19.5912058 C29.145608,19.3651635 29.196758,19.1853196 29.242958,18.9790766 C29.289158,18.7728336 29.343608,18.5352417 29.388158,18.319099 C29.416208,18.1854536 29.452508,18.0567579 29.475608,17.9231125 L36.4930572,10.897651 C36.8028447,10.5814805 37.2268946,10.4030803 37.6695071,10.4026678 L40.1791568,10.4026678 C40.2006068,10.4950647 68.441591,25.6060766 69.1911034,25.3033119 L69.2818534,25.2719629 L69.3000034,25.2719629 L69.3000034,79.7003147 L53.1151553,79.7003147 Z M75.9000027,53.3012111 L72.600003,53.3012111 L72.600003,36.8017714 L75.9000027,36.8017714 L75.9000027,53.3012111 Z M95.7000004,64.850819 L92.9230507,64.850819 L79.2000023,54.1459825 L79.2000023,35.9570001 L92.9230507,25.2521636 L95.7000004,25.2521636 L95.7000004,64.850819 Z" id="Shape" fill-rule="nonzero"></path>
                <path d="M91,29.65 L91,59.35 C91,60.2612125 91.671625,61 92.5,61 C93.328375,61 94,60.2612125 94,59.35 L94,29.65 C94,28.7387875 93.328375,28 92.5,28 C91.671625,28 91,28.7385813 91,29.65 Z" id="Path"></path>
                <path d="M17.6666667,56 L54.3333333,56 C55.25375,56 56,55.328375 56,54.5 C56,53.671625 55.25375,53 54.3333333,53 L17.6666667,53 C16.74625,53 16,53.671625 16,54.5 C16,55.328375 16.74625,56 17.6666667,56 Z" id="Path"></path>
                <path d="M64.3666667,68 L18.6333333,68 C17.731325,68 17,68.671625 17,69.5 C17,70.328375 17.731325,71 18.6333333,71 L64.3666667,71 C65.268675,71 66,70.328375 66,69.5 C66,68.671625 65.2688792,68 64.3666667,68 Z" id="Path"></path>
                <path d="M11.25,68 L7.75,68 C6.7835625,68 6,68.671625 6,69.5 C6,70.328375 6.7835625,71 7.75,71 L11.25,71 C12.2164375,71 13,70.328375 13,69.5 C13,68.671625 12.2166562,68 11.25,68 Z" id="Path"></path>
                <path d="M17.6666667,51 L54.3333333,51 C55.25375,51 56,50.2836 56,49.4 L56,36.6 C56,35.7164 55.25375,35 54.3333333,35 L17.6666667,35 C16.74625,35 16,35.7164 16,36.6 L16,49.4 C16,50.2836 16.74625,51 17.6666667,51 Z M19.3333333,38.2 L52.6666667,38.2 L52.6666667,47.8 L19.3333333,47.8 L19.3333333,38.2 Z" id="Shape" fill-rule="nonzero"></path>
                <path d="M15,20 C17.7614583,20 20,17.7614583 20,15 C20,12.2385417 17.7614583,10 15,10 C12.2385417,10 10,12.2385417 10,15 C10,17.7614583 12.2385417,20 15,20 Z M15,13.3333333 C15.9204167,13.3333333 16.6666667,14.0795833 16.6666667,15 C16.6666667,15.9204167 15.9204167,16.6666667 15,16.6666667 C14.0795833,16.6666667 13.3333333,15.9204167 13.3333333,15 C13.3333333,14.0795833 14.0795833,13.3333333 15,13.3333333 Z" id="Shape" fill-rule="nonzero"></path>
            </g>
            <path d="M128.668165,145.36674 L-9.46516859,145.36674 C-12.1896019,145.36674 -14.3985019,146.038365 -14.3985019,146.86674 C-14.3985019,147.695115 -12.1896019,148.36674 -9.46516859,148.36674 L128.668165,148.36674 C131.392598,148.36674 133.601498,147.695115 133.601498,146.86674 C133.601498,146.038365 131.393215,145.36674 128.668165,145.36674 Z" id="Path" transform="translate(59.601498, 146.866740) rotate(75.000000) translate(-59.601498, -146.866740) "></path>
            <path d="M89.6681647,145.36674 L-48.4651686,145.36674 C-51.1896019,145.36674 -53.3985019,146.038365 -53.3985019,146.86674 C-53.3985019,147.695115 -51.1896019,148.36674 -48.4651686,148.36674 L89.6681647,148.36674 C92.3925981,148.36674 94.6014981,147.695115 94.6014981,146.86674 C94.6014981,146.038365 92.3932147,145.36674 89.6681647,145.36674 Z" id="Path" transform="translate(20.601498, 146.866740) scale(-1, 1) rotate(75.000000) translate(-20.601498, -146.866740) "></path>
        </g>
    </g>
</svg>