<?xml version="1.0" encoding="UTF-8"?>
<svg width="60px" height="83px" viewBox="0 0 60 83" version="1.1" xmlns="http://www.w3.org/2000/svg" xmlns:xlink="http://www.w3.org/1999/xlink">
    <!-- Generator: Sketch 52.6 (67491) - http://www.bohemiancoding.com/sketch -->
    <title>rain_drop</title>
    <desc>Created with Sketch.</desc>
    <g id="rain_drop" stroke="none" stroke-width="1" fill="none" fill-rule="evenodd">
        <g id="Group" transform="translate(4.000000, 6.000000)">
            <path d="M7.14679919,29.9967213 L26.052221,4.54203398 L45.4565148,32.3530437 C49.9494133,45.8342808 49.4190532,55.3666234 43.8654345,60.9500712 C35.5350065,69.3252431 17.9337411,71.0412519 8.67901468,60.9500712 C2.50919709,54.2226175 1.99845859,43.9048342 7.14679919,29.9967213 Z" id="Rectangle" fill="#FFFFFF"></path>
            <g id="drop" fill="#000000">
                <path d="M32.6716981,7.93802003 C31.0037736,5.49290629 29.5320755,3.24340165 28.1584906,1.18950611 C27.9622642,0.896092464 27.6679245,0.602678815 27.3735849,0.407069716 C26.1962264,-0.37536668 24.6264151,0.0158515178 23.8415094,1.18950611 C22.5660377,3.24340165 21.0943396,5.39510174 19.3283019,7.93802003 C11.5773585,19.2833478 0,36.399144 0,46.1795989 C0,53.319331 2.94339623,59.7744313 7.65283019,64.4690497 C12.3622642,69.0658635 18.8377358,72 26,72 C33.1622642,72 39.6377358,69.0658635 44.3471698,64.3712451 C49.0566038,59.6766268 52,53.2215265 52,46.0817944 C52,36.3013394 40.4226415,19.2833478 32.6716981,7.93802003 Z M40.8150943,60.8502813 C36.9886792,64.6646588 31.7886792,66.9141634 26,66.9141634 C20.2113208,66.9141634 15.0113208,64.5668542 11.1849057,60.8502813 C7.35849057,57.0359039 5.10188679,51.8522628 5.10188679,46.0817944 C5.10188679,37.8662122 16.1886792,21.5328524 23.5471698,10.6765474 C24.4301887,9.40508828 25.2150943,8.13362913 26,7.05777909 C26.7849057,8.13362913 27.5698113,9.40508828 28.4528302,10.6765474 C35.8113208,21.630657 46.8981132,37.8662122 46.8981132,46.0817944 C46.8981132,51.8522628 44.5433962,57.0359039 40.8150943,60.8502813 Z" id="Shape" fill-rule="nonzero"></path>
                <path d="M41.5799568,44.006018 C40.1719707,43.9107463 38.9651255,44.9587352 38.8645551,46.2925392 C38.7639846,48.388517 38.0599916,50.389223 36.9537168,52.1041139 C35.847442,53.8190048 34.238315,55.3433522 32.3274767,56.2960694 C31.1206315,56.9629714 30.6177793,58.4873189 31.3217724,59.6305795 C32.1263359,60.9643835 33.7354628,61.3454703 34.9423081,60.6785683 C37.6577098,59.2494926 39.8702594,57.1535148 41.378816,54.7717219 C42.9879429,52.389929 43.8930769,49.5317775 43.9936473,46.5783543 C44.0942177,45.2445503 42.9879429,44.1012897 41.5799568,44.006018 Z" id="Path"></path>
            </g>
        </g>
    </g>
</svg>