<?xml version="1.0" encoding="UTF-8"?>
<svg width="90px" height="89px" viewBox="0 0 90 89" version="1.1" xmlns="http://www.w3.org/2000/svg" xmlns:xlink="http://www.w3.org/1999/xlink">
    <!-- Generator: Sketch 52.6 (67491) - http://www.bohemiancoding.com/sketch -->
    <title>reel</title>
    <desc>Created with Sketch.</desc>
    <g id="reel" stroke="none" stroke-width="1" fill="none" fill-rule="evenodd">
        <g id="Group" transform="translate(3.000000, 3.000000)" fill="#FFFFFF">
            <path d="M65.3270772,30.0849441 C72.2306365,30.0849441 80.0126423,34.784202 80.0126423,28.9852122 C80.0126423,24.6326891 72.6658435,12.5244132 69.1835611,11.7755634 C68.8997805,11.7145376 66.7843418,8.65631439 63.3304885,6 C58.3932812,2.20285692 50.2438965,-0.155048953 48.1309317,1.84818291 C48.0371294,1.93711371 42.209481,0.337979415 40.4897123,1 C39.0690777,1.54686967 33.5060052,0.860945583 32.8231335,1.84818291 C32.2313031,2.70380057 27.0043809,4.94037571 17.1423666,8.55790833 C5.83470328,22.4504269 1.01023257,29.2595282 2.6689545,28.9852122 C3.35019391,28.8725502 0.12013238,44.1876821 1.17707971,44.5398006 C1.78126096,44.7410815 4.20733565,47.9506271 5.42013985,46 C6.46842263,44.3139828 6.43014835,41.8459233 7.3771431,39.3596798 C8.69079282,35.9108189 10.8714557,32.5641919 11.2800162,32.4483162 C11.5708161,32.3658397 23.150762,30.6696107 25.0922285,32.4483162 C25.6455001,32.9552048 27.669257,36.8833498 28.9586088,36.8911589 C32.4518544,36.9123161 36.5442909,31.8191308 36.8528036,31.510637 C37.0589916,31.3044617 39.7904429,30.7370945 38.8197032,28.9852122 C37.2712311,26.190703 31.6490246,21.7066083 31.7005163,20.8671124 C31.8080207,19.1144113 32.1822265,16.4920405 32.8231335,13 C38.244488,8.33333333 41.3034435,6 42,6 C43.3539593,6 51.784831,10.2117443 51.7028956,11.7755634 C51.4049113,17.4628896 52.150484,23.0503707 51.7028956,23.0503707 C49.253855,23.0503707 49.6877978,26.9289608 46.5,28 C45.4821662,28.3419727 39.8076577,27.9266794 39.5823407,30.0849441 C39.5383284,30.506529 31.2349192,36.2392799 31.7005163,36.8911589 C33.0850134,38.829583 43.7945502,37.4169237 43.8396268,38.0867617 C44.1438734,42.6078629 48.1309317,43.4248768 48.1309317,46 C48.1309317,51.7989899 58.4235178,30.0849441 65.3270772,30.0849441 Z" id="Oval"></path>
            <path d="M65.3644068,66.0472489 C72.2679662,66.0472489 80.049972,70.7465068 80.049972,64.947517 C80.049972,60.594994 72.4252384,48.486718 68.9429561,47.7378682 C68.6591755,47.6768424 66.8216714,44.6186192 63.3678182,41.9623048 C58.4306108,38.1651617 50.2812261,35.8072559 48.1682613,37.8104877 C48.0744591,37.8994185 42.2468106,36.3002842 40.5270419,36.9623048 C39.1064074,37.5091745 33.5433348,36.8232504 32.8604632,37.8104877 C32.2686328,38.6661054 27.0417105,40.9026805 17.1796963,44.5202131 C5.87203293,58.4127318 1.04756222,65.221833 2.70628415,64.947517 C3.09280649,64.8835947 1.84871101,67.4394722 1.21440936,71.7576773 C0.730764564,75.0502391 0.757153936,80.3497723 1.21440936,80.5021054 C1.81859061,80.7033863 4.2446653,83.9129319 5.4574695,81.9623048 C6.50575228,80.2762876 6.46747801,77.8082281 7.41447275,75.3219846 C8.72812247,71.8731237 10.9087854,68.5264967 11.3173459,68.410621 C11.6081458,68.3281445 23.1880917,66.6319155 25.1295581,68.410621 C25.6828297,68.9175097 27.7065866,72.8456546 28.9959384,72.8534637 C32.4891841,72.8746209 36.5816206,67.7814356 36.8901333,67.4729418 C37.0963212,67.2667665 39.8277726,66.6993993 38.8570329,64.947517 C37.3085607,62.1530078 31.6863543,57.6689131 31.7378459,56.8294172 C31.8991026,54.2003655 32.2258344,47.9910616 32.8604632,47.7378682 C39.4362124,45.1143877 40.9924948,41.9623048 42.0373297,41.9623048 C43.391289,41.9623048 51.7860681,46.1740491 51.7041326,47.7378682 C51.4061483,53.4251944 52.7673717,58.8775775 50.7305792,59.9733785 C48.6937866,61.0691795 49.7251275,62.8912656 46.5373297,63.9623048 C45.5194958,64.3042775 39.8449874,63.8889842 39.6196703,66.0472489 C39.575658,66.4688338 31.2722488,72.2015847 31.7378459,72.8534637 C33.1223431,74.7918878 43.6980608,73.3899777 43.7431374,74.0598157 C44.047384,78.5809169 48.1682613,79.3871817 48.1682613,81.9623048 C48.1682613,84.5301624 53.1560512,82.7195701 53.7223695,78.446757 C54.6470598,71.4700646 61.5178208,66.0472489 65.3644068,66.0472489 Z" id="Oval" transform="translate(40.455737, 59.973378) scale(1, -1) translate(-40.455737, -59.973378) "></path>
            <path d="M40.2954964,55.3429038 C43.3330625,55.3429038 39,47.418278 39,43 C39,40.2232082 41.4341106,32.8928675 40.2954964,29.4039515 C39.6224105,27.3414967 35.7806245,28 34.6521027,28 C32.5893192,28 28.0760571,31.3672671 26.7937822,35.8829682 C26.1878342,38.0168941 28,41.5821344 28,43 C28,44.0227551 25.9936136,47.9646554 26.7937822,49.2213927 C29.4503229,53.3937311 37.9610745,55.3429038 40.2954964,55.3429038 Z" id="Oval"></path>
            <path d="M80.5,55 C82.4329966,55 84,49.1797017 84,42 C84,34.8202983 82.4329966,29 80.5,29 C79.3555094,29 72.2096596,25.845176 71.5710556,29 C71.1310843,31.1735413 77,39.0712634 77,42 C77,45.2509368 71.0400041,52.7206053 71.5710556,55 C72.2128327,57.7546539 79.4422556,55 80.5,55 Z" id="Oval"></path>
        </g>
        <g id="film-reel" transform="translate(1.000000, 1.000000)" fill="#000000" fill-rule="nonzero">
            <path d="M38.6038382,43.84861 C38.6038382,46.73611 40.9445539,49.0768257 43.8320539,49.0768257 C46.7195539,49.0768257 49.0602697,46.73611 49.0602697,43.84861 C49.0602697,40.96111 46.7195539,38.6203942 43.8320539,38.6203942 C40.9445539,38.6203942 38.6038382,40.96111 38.6038382,43.84861 Z M45.5747925,43.84861 C45.5747925,44.8110373 44.7944813,45.5913485 43.8320539,45.5913485 C42.8696266,45.5913485 42.0893154,44.8110373 42.0893154,43.84861 C42.0893154,42.8861826 42.8696266,42.1058714 43.8320539,42.1058714 C44.7944813,42.1058714 45.5747925,42.8861826 45.5747925,43.84861 Z" id="Shape"></path>
            <path d="M43.8320539,31.6494398 C50.5662137,31.6418154 56.0235996,26.1844295 56.0312241,19.4502697 C56.0312241,12.7128423 50.5694813,7.25109959 43.8320539,7.25109959 C37.0946266,7.25109959 31.6328838,12.7128423 31.6328838,19.4502697 C31.6328838,26.1876971 37.0946266,31.6494398 43.8320539,31.6494398 Z M43.8320539,10.7365768 C48.6420124,10.7422407 52.540083,14.6403112 52.5457469,19.4502697 C52.5457469,24.2626245 48.6444087,28.1639627 43.8320539,28.1639627 C39.0196992,28.1639627 35.118361,24.2626245 35.118361,19.4502697 C35.118361,14.6379149 39.0196992,10.7365768 43.8320539,10.7365768 Z" id="Shape"></path>
            <path d="M19.4337137,31.6494398 C12.6962863,31.6494398 7.23454357,37.1111826 7.23454357,43.84861 C7.23454357,50.5860373 12.6962863,56.0477801 19.4337137,56.0477801 C26.1678734,56.0401556 31.6252593,50.5827697 31.6328838,43.84861 C31.6328838,37.1111826 26.1711411,31.6494398 19.4337137,31.6494398 Z M19.4337137,52.5623029 C14.6213589,52.5623029 10.7200207,48.6609647 10.7200207,43.84861 C10.7200207,39.0362552 14.6213589,35.134917 19.4337137,35.134917 C24.2436722,35.1405809 28.1417427,39.0386515 28.1474066,43.84861 C28.1474066,48.6611826 24.2460685,52.5623029 19.4337137,52.5623029 Z" id="Shape"></path>
            <path d="M43.8320539,56.0477801 C37.0946266,56.0477801 31.6328838,61.5095228 31.6328838,68.2469502 C31.6328838,74.9843776 37.0946266,80.4461203 43.8320539,80.4461203 C50.5662137,80.4384959 56.0235996,74.98111 56.0312241,68.2469502 C56.0312241,61.5095228 50.5694813,56.0477801 43.8320539,56.0477801 Z M43.8320539,76.9606432 C39.0196992,76.9606432 35.118361,73.059305 35.118361,68.2469502 C35.118361,63.4345954 39.0196992,59.5332573 43.8320539,59.5332573 C48.6420124,59.5389212 52.540083,63.4369917 52.5457469,68.2469502 C52.5457469,73.0595228 48.6444087,76.9606432 43.8320539,76.9606432 Z" id="Shape"></path>
            <path d="M68.2303942,31.6494398 C61.4929668,31.6494398 56.0312241,37.1111826 56.0312241,43.84861 C56.0312241,50.5860373 61.4929668,56.0477801 68.2303942,56.0477801 C74.9645539,56.0401556 80.4219398,50.5827697 80.4295643,43.84861 C80.4295643,37.1111826 74.9678216,31.6494398 68.2303942,31.6494398 Z M68.2303942,52.5623029 C63.4180394,52.5623029 59.5167012,48.6609647 59.5167012,43.84861 C59.5167012,39.0362552 63.4180394,35.134917 68.2303942,35.134917 C73.0403527,35.1405809 76.9384232,39.0386515 76.9440871,43.84861 C76.9440871,48.6611826 73.042749,52.5623029 68.2303942,52.5623029 Z" id="Shape"></path>
            <path d="M80.4295643,67.4435477 C93.5364834,47.1737552 87.7298963,20.1166494 67.4601037,7.00973029 C47.1903112,-6.0971888 20.1334232,-0.29060166 7.02628631,19.9791909 C-6.08085062,40.2489834 -0.274045643,67.3060892 19.9957469,80.4130083 C38.3775,92.299139 62.7170228,88.7537552 76.9440871,72.1175726 L80.4295643,67.4435477 Z M43.8320539,83.9315975 C21.694917,83.9315975 3.74906639,65.9857469 3.74906639,43.84861 C3.74906639,21.711473 21.694917,3.76562241 43.8320539,3.76562241 C65.9691909,3.76562241 83.9150415,21.711473 83.9150415,43.84861 C83.8899896,65.9755083 65.9589523,83.9067635 43.8320539,83.9315975 Z" id="Shape"></path>
        </g>
    </g>
</svg>