<?xml version="1.0" encoding="UTF-8"?>
<svg width="314px" height="270px" viewBox="0 0 314 270" version="1.1" xmlns="http://www.w3.org/2000/svg" xmlns:xlink="http://www.w3.org/1999/xlink">
    <!-- Generator: Sketch 52.6 (67491) - http://www.bohemiancoding.com/sketch -->
    <title>sleep_bubble</title>
    <desc>Created with Sketch.</desc>
    <g id="sleep_bubble" stroke="none" stroke-width="1" fill="none" fill-rule="evenodd">
        <path d="M118.529527,39.3319787 C150.149042,24.8692131 148.125222,11.7407589 178.236309,17.3073202 C208.347396,22.8738815 230.951798,41.9647415 230.951798,68.2976682 C230.951798,70.8894307 237.137622,68.2976682 242.903893,68.2976682 C248.670164,68.2976682 259.278052,67.7030336 263.928324,70.8894307 C268.23349,73.8393588 281.859909,79.827755 289.402167,93.0280237 C294.365587,101.714876 294.236427,114.956741 295.765429,127.452603 C298.333714,148.442059 279.812127,164.276231 240.200667,174.955121 C225.457851,194.862479 212.524282,206.273619 201.399962,209.18854 C188.908694,212.461645 172.271154,213.871872 159.336033,207.810825 C150.649211,203.740416 144.298198,192.088864 139.499091,191.147335 C125.030241,188.308715 118.529527,205.430972 73.4539312,199.103955 C55.553086,196.591311 42.6632493,187.639173 34.784421,172.247541 C20.9281403,154.746804 14,136.065794 14,116.204513 C14,111.299961 17.1843219,106.680038 17.6532392,100.654209 C18.1790822,93.8968556 21.230467,86.2939484 25.1127491,78.6125742 C30.5493596,67.8558497 35.6464362,62.6568488 40.9212044,58.454238 C42.7720881,56.9795676 46.2760549,57.1154377 47.574208,55.1246095 C56.9577446,40.7341587 79.7487807,37.6643887 97.9147429,37.6557969 C106.738924,37.6516234 108.191816,44.060448 118.529527,39.3319787 Z" id="Rectangle" fill="#FFFFFF"></path>
        <g id="thought-bubble" transform="translate(9.000000, 12.000000)" fill="#000000" fill-rule="nonzero">
            <path d="M263.384399,158.19755 C281.047792,148.055534 293,129.11645 293,107.416887 C293,75.0832057 266.53975,48.7795766 234.017282,48.7795766 C231.320772,48.7795766 228.628205,48.965177 225.975081,49.3226539 C218.460086,20.5212616 192.069517,0 161.805097,0 C141.736406,0 123.200689,8.79379943 110.52801,24.2352302 C102.959111,22.1518003 95.1259516,21.0904797 87.2033905,21.0904797 C39.1197817,21.0904797 0,59.9816067 0,107.787435 C0,155.586074 39.1197817,194.476547 87.2027331,194.476547 C101.432052,194.476547 115.500975,190.953407 128.117121,184.263297 C139.404733,198.563677 156.697372,207 175.066118,207 C200.982727,207 223.845219,190.304459 231.771724,166.007798 C232.517833,166.038514 233.263942,166.053545 234.017282,166.053545 C237.46779,166.053545 244.119665,165.138613 244.119665,165.138613 C244.119665,165.138613 257.285297,162.938251 263.384399,158.19755 Z M229.231009,157.900197 L225.873847,157.591081 L225.011384,160.827978 C219.020161,183.352287 198.481454,199.085188 175.066775,199.085188 C158.098874,199.085188 142.187358,190.76846 132.51029,176.851044 L130.410009,173.830463 L127.22179,175.692349 C115.038847,182.80006 101.20066,186.563043 87.2027331,186.563043 C43.5076921,186.563043 7.95740141,151.215969 7.95740141,107.784167 C7.95740141,64.3451767 43.5076921,28.9981026 87.2027331,28.9981026 C95.247564,28.9981026 103.19379,30.1973165 110.809362,32.5578399 L113.486152,33.3845459 L115.17032,31.1534199 C126.333033,16.3838103 143.330515,7.90696933 161.800495,7.90696933 C189.57416,7.90696933 213.648833,27.5453219 219.026734,54.6181471 L219.804397,58.5177161 L223.728865,57.7236862 C227.08537,57.03422 230.547711,56.686546 234.010051,56.686546 C262.149211,56.686546 285.03471,79.4461223 285.03471,107.412966 C285.03471,135.385692 262.149211,158.135465 234.010051,158.135465 C232.400822,158.135465 230.808027,158.046586 229.231009,157.900197 Z" id="Shape"></path>
        </g>
        <g id="thought-bubble" transform="translate(250.000000, 175.000000)" fill="#000000" fill-rule="nonzero">
            <path d="M11.0630618,66.1383648 C5.31350739,66.1383648 0.636261075,70.8171101 0.636261075,76.5713302 C0.636261075,82.3259409 5.31311704,87 11.0630618,87 C16.8106644,87 21.4898625,82.3216452 21.4898625,76.5713302 C21.4898625,70.8217963 16.8102741,66.1383648 11.0630618,66.1383648 Z M11.0630618,82.2724405 C7.91796303,82.2724405 5.36191154,79.714966 5.36191154,76.5709397 C5.36191154,73.4226179 7.92342801,70.8651433 11.0630618,70.8651433 C14.2058185,70.8651433 16.7642121,73.4230084 16.7642121,76.5709397 C16.7642121,79.714966 14.2054281,82.2724405 11.0630618,82.2724405 Z M51,24.0195041 C51,11.01071 40.4233025,0.429739888 27.4193711,0.429739888 C26.9673388,0.429739888 26.2951456,0.463584413 25.4027917,0.531273463 C23.1972498,0.949304413 21.020812,1.53777893 18.8734782,2.29669701 C15.9503056,3.32981475 14.9143446,4.07534192 13.963017,4.67892002 C7.85355428,8.94684482 3.84069398,16.0167058 3.84069398,24.0237998 C3.84069398,36.8674066 14.1613179,47.3257554 26.9439174,47.5866185 C21.371975,49.1928016 17.2763592,54.3311816 17.2763592,60.420072 C17.2763592,67.7878949 23.2687151,73.7803285 30.6331725,73.7803285 C37.9980203,73.7803285 43.9903762,67.7878949 43.9903762,60.420072 C43.9903762,53.5462489 38.776,47.8724746 32.0985692,47.1386993 C42.864199,44.95768 51,35.4201626 51,24.0195041 Z M39.2651161,60.4138238 C39.2651161,65.1757484 35.3935647,69.0445682 30.6335629,69.0445682 C25.8739515,69.0445682 22.0020097,65.1714528 22.0020097,60.4138238 C22.0020097,55.6476034 25.8739515,51.7787837 30.6335629,51.7787837 C35.3935647,51.7783932 39.2651161,55.6476034 39.2651161,60.4138238 Z M27.4193711,42.8754606 C17.0249699,42.8754606 8.56868658,34.4184948 8.56868658,24.0148179 C8.56868658,13.6138747 17.0273121,5.15417526 27.4193711,5.15417526 C37.8161144,5.15417526 46.2747399,13.6162178 46.2747399,24.0148179 C46.2747399,34.4161517 37.8161144,42.8754606 27.4193711,42.8754606 Z" id="Shape"></path>
        </g>
    </g>
</svg>