<?xml version="1.0" encoding="UTF-8"?>
<svg width="781px" height="601px" viewBox="0 0 781 601" version="1.1" xmlns="http://www.w3.org/2000/svg" xmlns:xlink="http://www.w3.org/1999/xlink">
    <!-- Generator: Sketch 52.6 (67491) - http://www.bohemiancoding.com/sketch -->
    <title>suitcase</title>
    <desc>Created with Sketch.</desc>
    <g id="suitcase" stroke="none" stroke-width="1" fill="none" fill-rule="evenodd">
        <g transform="translate(316.000000, 129.000000)" fill="#000000">
            <path d="M396.916385,86.6 C392.933123,86.6 389.7,89.833123 389.7,93.8163848 C389.7,97.7996465 392.933123,101.03277 396.916385,101.03277 C408.86025,101.03277 418.566385,110.746516 418.566385,122.68277 L418.566385,396.916385 C418.566385,408.852639 408.86025,418.566385 396.916385,418.566385 L331.966385,418.566385 L331.966385,122.683615 C331.966385,118.700354 328.740873,115.46723 324.75,115.46723 C320.766738,115.46723 317.533615,118.700354 317.533615,122.683615 L317.533615,425.783615 C317.533615,429.766877 320.766738,433 324.75,433 L396.916385,433 C416.813242,433 433,416.813242 433,396.916385 L433,122.683615 C433,102.786758 416.813242,86.6 396.916385,86.6 Z" id="Path"></path>
            <path d="M137.116385,101.033615 L360.83277,101.033615 L360.83277,396.91723 C360.83277,400.900492 364.065893,404.133615 368.049154,404.133615 C372.040027,404.133615 375.265539,400.900492 375.265539,396.91723 L375.265539,93.8172305 C375.265539,89.8339688 372.040027,86.6008457 368.049154,86.6008457 L303.099154,86.6008457 L303.099154,64.95 C303.099154,30.3531309 272.752789,0 238.149154,0 L194.849154,0 C160.858654,0 129.899154,30.9595 129.899154,64.95 L129.899154,93.8163848 C129.9,97.8004922 133.133123,101.033615 137.116385,101.033615 Z M259.8,86.6 L173.2,86.6 L173.2,64.95 C173.2,53.0137461 182.913746,43.3 194.85,43.3 L238.15,43.3 C250.093865,43.3 259.8,53.0137461 259.8,64.95 L259.8,86.6 Z M144.333615,64.95 C144.333615,38.984377 168.884377,14.4336152 194.85,14.4336152 L238.15,14.4336152 C264.591754,14.4336152 288.666385,38.5082461 288.666385,64.95 L288.666385,86.6 L274.23277,86.6 L274.23277,64.95 C274.23277,45.0539883 258.046012,28.8663848 238.149154,28.8663848 L194.849154,28.8663848 C174.959908,28.8663848 158.765539,45.0531426 158.765539,64.95 L158.765539,86.6 L144.331924,86.6 L144.331924,64.95 L144.333615,64.95 Z" id="Shape" fill-rule="nonzero"></path>
            <path d="M36.0836152,418.566385 C24.1473613,418.566385 14.4336152,408.852639 14.4336152,396.916385 L14.4336152,122.683615 C14.4336152,110.747361 24.1473613,101.033615 36.0836152,101.033615 L101.033615,101.033615 L101.033615,396.91723 C101.033615,400.900492 104.266738,404.133615 108.25,404.133615 C112.240873,404.133615 115.466385,400.900492 115.466385,396.91723 L115.466385,93.8172305 C115.466385,89.8339688 112.240873,86.6008457 108.25,86.6008457 L36.0836152,86.6008457 C16.1943691,86.6 0,102.786758 0,122.683615 L0,396.91723 C0,416.813242 16.1943691,433 36.0836152,433 C40.0744883,433 43.3,429.766877 43.3,425.783615 C43.3,421.800354 40.0744883,418.566385 36.0836152,418.566385 Z" id="Path"></path>
            <path d="M183.065127,273.713508 C184.284631,273.713508 185.526123,273.403135 186.666131,272.746869 L261.661393,229.446869 C263.321508,228.494607 264.5334,226.913988 265.024754,225.066127 C265.522873,223.218266 265.263242,221.248623 264.303369,219.588508 L235.436984,169.591385 C233.437742,166.141762 229.035857,164.951012 225.579469,166.950254 L150.584207,210.250254 C148.924092,211.210127 147.712199,212.783135 147.220846,214.630996 C146.722727,216.485623 146.982357,218.456111 147.935465,220.108615 L176.80185,270.105738 C178.143135,272.422119 180.568611,273.713508 183.065127,273.713508 Z M226.545262,183.058361 L248.195262,220.555992 L185.698646,256.639607 L164.048646,219.141977 L226.545262,183.058361 Z" id="Shape" fill-rule="nonzero"></path>
            <path d="M281.45,295.883615 C285.440873,295.883615 288.666385,292.650492 288.666385,288.66723 L288.666385,230.933615 C288.666385,226.950354 285.440873,223.71723 281.45,223.71723 C277.466738,223.71723 274.233615,226.950354 274.233615,230.933615 L274.233615,281.45 L194.85,281.45 C192.273988,281.45 189.892488,282.820885 188.600254,285.058615 L174.166639,310.064365 C172.175008,313.513988 173.358146,317.93025 176.80777,319.922727 L214.313012,341.572727 C215.446254,342.229838 216.6869,342.539365 217.914016,342.539365 C220.381777,342.539365 222.785266,341.269119 224.127396,338.995869 L237.305143,316.696369 C239.333139,313.261123 238.193131,308.83725 234.76465,306.809254 C231.337016,304.788869 226.905531,305.928877 224.877535,309.349746 L215.337158,325.500984 L190.2739,311.03185 L199.020162,295.884461 L281.45,295.884461 L281.45,295.883615 Z" id="Path"></path>
            <path d="M295.883615,418.566385 L72.1663848,418.566385 L72.1663848,120.878885 C72.1663848,116.895623 68.940873,113.6625 64.95,113.6625 C60.9667383,113.6625 57.7336152,116.895623 57.7336152,120.878885 L57.7336152,425.78277 C57.7336152,429.766031 60.9667383,432.999154 64.95,432.999154 L295.883615,432.999154 C299.874488,432.999154 303.1,429.766031 303.1,425.78277 C303.1,421.799508 299.874488,418.566385 295.883615,418.566385 Z" id="Path"></path>
        </g>
        <path d="M59.0634114,183.267777 C95.1524,168.156778 369.163888,168.156778 387.463173,193.886 C405.762458,219.615221 415.398094,485.809193 390.999047,548.267777 C366.6,610.726361 83.9729171,548.267777 59.0634114,548.267777 C34.1539057,548.267777 22.9744228,198.378776 59.0634114,183.267777 Z" id="Rectangle" fill="#FFFFFF"></path>
        <g id="suitcase-2" transform="translate(33.000000, 70.000000)" fill="#000000">
            <path d="M230.667,477.867 L145.334,477.867 C140.624,477.867 136.801,481.69 136.801,486.4 C136.801,491.11 140.624,494.933 145.334,494.933 L230.667,494.933 C235.377,494.933 239.2,491.11 239.2,486.4 C239.2,481.69 235.377,477.867 230.667,477.867 Z" id="Path"></path>
            <path d="M94.133,460.8 C80.019,460.8 68.533,472.286 68.533,486.4 C68.533,500.514 80.019,512 94.133,512 C108.247,512 119.733,500.514 119.733,486.4 C119.733,472.286 108.247,460.8 94.133,460.8 Z M94.133,494.933 C89.431,494.933 85.6,491.102 85.6,486.4 C85.6,481.698 89.431,477.867 94.133,477.867 C98.835,477.867 102.666,481.698 102.666,486.4 C102.666,491.102 98.835,494.933 94.133,494.933 Z" id="Shape" fill-rule="nonzero"></path>
            <path d="M119.733,49.621 L119.733,76.8 C119.733,81.51 123.556,85.333 128.266,85.333 C132.976,85.333 136.8,81.51 136.8,76.8 L136.8,51.2 L239.2,51.2 L239.2,76.8 C239.2,81.51 243.023,85.333 247.733,85.333 C252.443,85.333 256.266,81.51 256.266,76.8 L256.266,49.63 C266.182,46.089 273.333,36.711 273.333,25.6 C273.333,11.486 261.847,0 247.733,0 L128.267,0 C114.153,0 102.667,11.486 102.667,25.6 C102.667,36.71 109.818,46.089 119.733,49.621 Z M128.267,17.067 L247.734,17.067 C252.436,17.067 256.267,20.898 256.267,25.6 C256.267,30.302 252.436,34.133 247.734,34.133 L128.267,34.133 C123.565,34.133 119.734,30.302 119.734,25.6 C119.733,20.898 123.565,17.067 128.267,17.067 Z" id="Shape" fill-rule="nonzero"></path>
            <path d="M281.867,460.8 C267.753,460.8 256.267,472.286 256.267,486.4 C256.267,500.514 267.753,512 281.867,512 C295.981,512 307.467,500.514 307.467,486.4 C307.467,472.286 295.981,460.8 281.867,460.8 Z M281.867,494.933 C277.165,494.933 273.334,491.102 273.334,486.4 C273.334,481.698 277.165,477.867 281.867,477.867 C286.569,477.867 290.4,481.698 290.4,486.4 C290.4,491.102 286.569,494.933 281.867,494.933 Z" id="Shape" fill-rule="nonzero"></path>
            <path d="M323.262,174.711 C321.7,172.202 318.961,170.666 316,170.666 L60,170.666 C55.29,170.666 51.467,174.489 51.467,179.199 C51.467,183.909 55.29,187.732 60,187.732 L302.193,187.732 L293.011,206.096 L250.148,217.582 C247.963,218.162 246.103,219.596 244.968,221.559 L210.835,280.686 C208.48,284.765 209.871,289.979 213.958,292.342 L273.077,326.475 C274.391,327.226 275.859,327.618 277.344,327.618 C278.086,327.618 278.829,327.516 279.554,327.319 C281.739,326.739 283.607,325.305 284.734,323.351 L318.867,264.223 C320.002,262.26 320.309,259.931 319.72,257.746 L308.046,214.183 L323.636,183.011 C324.951,180.369 324.815,177.229 323.262,174.711 Z M274.221,307.422 L229.882,281.822 L257.982,233.156 L292.952,223.786 L302.322,258.756 L274.221,307.422 Z" id="Shape" fill-rule="nonzero"></path>
            <path d="M333.067,102.4 L42.933,102.4 C19.407,102.4 0.266,121.54 0.266,145.067 L0.266,452.267 C0.266,475.793 19.406,494.934 42.933,494.934 C47.643,494.934 51.466,491.111 51.466,486.401 C51.466,481.691 47.643,477.868 42.933,477.868 C28.819,477.868 17.333,466.382 17.333,452.268 L17.333,145.068 C17.333,130.954 28.819,119.468 42.933,119.468 L333.066,119.468 C347.18,119.468 358.666,130.954 358.666,145.068 L358.666,452.268 C358.666,466.382 347.18,477.868 333.066,477.868 C328.356,477.868 324.533,481.691 324.533,486.401 C324.533,491.111 328.356,494.934 333.066,494.934 C356.592,494.934 375.733,475.794 375.733,452.267 L375.733,145.067 C375.733,121.54 356.593,102.4 333.067,102.4 Z" id="Path"></path>
            <path d="M324.533,313.779 C324.533,309.069 320.71,305.246 316,305.246 C311.29,305.246 307.467,309.069 307.467,313.779 L307.467,401.066 C307.467,405.768 303.636,409.599 298.934,409.599 L77.067,409.599 C72.365,409.599 68.534,405.768 68.534,401.066 L68.534,281.6 C68.534,276.898 72.365,273.067 77.067,273.067 L192.002,273.067 C196.712,273.067 200.535,269.244 200.535,264.534 C200.535,259.824 196.712,256.001 192.002,256.001 L77.067,256.001 C62.953,256.001 51.467,267.487 51.467,281.601 L51.467,401.068 C51.467,415.182 62.953,426.668 77.067,426.668 L298.934,426.668 C313.048,426.668 324.534,415.182 324.534,401.068 L324.534,313.779 L324.533,313.779 Z" id="Path"></path>
            <path d="M265.107,263.927 L265.022,263.927 C260.312,263.927 256.531,267.741 256.531,272.46 C256.531,277.17 260.397,280.993 265.107,280.993 C269.826,280.993 273.64,277.17 273.64,272.46 C273.641,267.742 269.826,263.927 265.107,263.927 Z" id="Path"></path>
        </g>
    </g>
</svg>