<?xml version="1.0" encoding="UTF-8"?>
<svg width="119px" height="119px" viewBox="0 0 119 119" version="1.1" xmlns="http://www.w3.org/2000/svg" xmlns:xlink="http://www.w3.org/1999/xlink">
    <!-- Generator: Sketch 52.6 (67491) - http://www.bohemiancoding.com/sketch -->
    <title>sun</title>
    <desc>Created with Sketch.</desc>
    <g id="sun" stroke="none" stroke-width="1" fill="none" fill-rule="evenodd">
        <circle id="Oval" fill="#FFFFFF" cx="59.5" cy="59.5" r="25.5"></circle>
        <g fill="#000000">
            <path d="M80.4330033,38.3313531 C75.0917492,32.990099 67.5511551,29.5339934 59.3821782,29.5339934 C51.2132013,29.5339934 43.6726073,32.8330033 38.3313531,38.3313531 C32.990099,43.6726073 29.5339934,51.2132013 29.5339934,59.3821782 C29.5339934,67.5511551 32.990099,75.0917492 38.3313531,80.4330033 C43.6726073,85.7742574 51.2132013,89.230363 59.3821782,89.230363 C67.5511551,89.230363 75.0917492,85.9313531 80.4330033,80.4330033 C85.7742574,75.0917492 89.230363,67.5511551 89.230363,59.3821782 C89.230363,51.2132013 85.9313531,43.6726073 80.4330033,38.3313531 Z M74.7775578,74.7775578 C70.850165,78.7049505 65.3518152,81.0613861 59.3821782,81.0613861 C53.4125413,81.0613861 47.9141914,78.7049505 43.9867987,74.7775578 C40.0594059,70.850165 37.7029703,65.3518152 37.7029703,59.3821782 C37.7029703,53.4125413 40.0594059,47.9141914 43.9867987,43.9867987 C47.9141914,40.0594059 53.4125413,37.7029703 59.3821782,37.7029703 C65.3518152,37.7029703 70.850165,40.0594059 74.7775578,43.9867987 C78.7049505,47.9141914 81.0613861,53.4125413 81.0613861,59.3821782 C81.0613861,65.3518152 78.7049505,70.850165 74.7775578,74.7775578 Z" id="Shape" fill-rule="nonzero"></path>
            <path d="M114.679868,55.2976898 L102.583498,55.2976898 C100.384158,55.2976898 98.4990099,57.1828383 98.4990099,59.3821782 C98.4990099,61.5815182 100.384158,63.4666667 102.583498,63.4666667 L114.679868,63.4666667 C116.879208,63.4666667 118.764356,61.5815182 118.764356,59.3821782 C118.764356,57.1828383 116.879208,55.2976898 114.679868,55.2976898 Z" id="Path"></path>
            <path d="M59.3821782,98.4990099 C57.1828383,98.4990099 55.2976898,100.384158 55.2976898,102.583498 L55.2976898,114.679868 C55.2976898,116.879208 57.1828383,118.764356 59.3821782,118.764356 C61.5815182,118.764356 63.4666667,116.879208 63.4666667,114.679868 L63.4666667,102.583498 C63.4666667,100.384158 61.5815182,98.4990099 59.3821782,98.4990099 Z" id="Path"></path>
            <path d="M101.326733,95.6712871 L92.6864686,87.0310231 C91.2726073,85.460066 88.6019802,85.460066 87.0310231,87.0310231 C85.460066,88.6019802 85.460066,91.1155116 87.0310231,92.6864686 L95.6712871,101.326733 C97.2422442,102.89769 99.7557756,102.89769 101.326733,101.326733 C102.89769,99.7557756 102.89769,97.2422442 101.326733,95.6712871 Z" id="Path"></path>
            <path d="M59.3821782,0 C57.1828383,0 55.2976898,1.88514851 55.2976898,4.08448845 L55.2976898,16.1808581 C55.2976898,18.380198 57.1828383,20.2653465 59.3821782,20.2653465 C61.5815182,20.2653465 63.4666667,18.380198 63.4666667,16.1808581 L63.4666667,4.08448845 C63.4666667,1.88514851 61.5815182,0 59.3821782,0 Z" id="Path"></path>
            <path d="M101.483828,17.4376238 C99.9128713,15.8666667 97.3993399,15.8666667 95.8283828,17.4376238 L87.1881188,26.0778878 C85.6171617,27.6488449 85.6171617,30.1623762 87.1881188,31.7333333 C88.6019802,33.3042904 91.2726073,33.3042904 92.8435644,31.7333333 L101.483828,23.0930693 C103.054785,21.5221122 103.054785,19.0085809 101.483828,17.4376238 Z" id="Path"></path>
            <path d="M16.1808581,55.2976898 L4.08448845,55.2976898 C1.88514851,55.2976898 0,57.1828383 0,59.3821782 C0,61.5815182 1.72805281,63.4666667 4.08448845,63.4666667 L16.1808581,63.4666667 C18.380198,63.4666667 20.2653465,61.5815182 20.2653465,59.3821782 C20.2653465,57.1828383 18.380198,55.2976898 16.1808581,55.2976898 Z" id="Path"></path>
            <path d="M31.5762376,87.0310231 C30.1623762,85.460066 27.4917492,85.460066 25.9207921,87.0310231 L17.2805281,95.6712871 C15.709571,97.2422442 15.709571,99.7557756 17.2805281,101.326733 C18.8514851,102.89769 21.3650165,102.89769 22.9359736,101.326733 L31.5762376,92.6864686 C33.1471947,91.1155116 33.1471947,88.6019802 31.5762376,87.0310231 Z" id="Path"></path>
            <path d="M31.5762376,26.0778878 L22.9359736,17.4376238 C21.3650165,15.8666667 18.8514851,15.8666667 17.2805281,17.4376238 C15.709571,19.0085809 15.709571,21.5221122 17.2805281,23.0930693 L25.9207921,31.7333333 C27.4917492,33.3042904 30.0052805,33.3042904 31.5762376,31.7333333 C33.1471947,30.1623762 33.1471947,27.6488449 31.5762376,26.0778878 Z" id="Path"></path>
        </g>
    </g>
</svg>