<?xml version="1.0" encoding="UTF-8"?>
<svg width="804px" height="557px" viewBox="0 0 804 557" version="1.1" xmlns="http://www.w3.org/2000/svg" xmlns:xlink="http://www.w3.org/1999/xlink">
    <!-- Generator: Sketch 52.6 (67491) - http://www.bohemiancoding.com/sketch -->
    <title>Artboard</title>
    <desc>Created with Sketch.</desc>
    <g id="Artboard" stroke="none" stroke-width="1" fill="none" fill-rule="evenodd">
        <rect fill="#FFFFFF" x="0" y="0" width="804" height="557"></rect>
        <g id="legal-paper" transform="translate(204.000000, 88.000000)" fill="#000000">
            <g id="Group">
                <polygon id="Path" points="287.974 54.707 287.974 54.704 287.974 54.627"></polygon>
                <path d="M342.294,0.627 L102.294,0.627 C72.445,0.671 48.258,24.858 48.214,54.707 L48.214,273.907 C18.523,277.149 -2.918,303.847 0.324,333.538 C3.328,361.05 26.618,381.854 54.294,381.747 L249.814,381.747 C279.663,381.703 303.85,357.516 303.894,327.667 L303.894,108.787 L342.294,108.787 C372.162,108.787 396.374,84.575 396.374,54.707 C396.374,24.839 372.161,0.627 342.294,0.627 Z M211.494,365.747 L54.294,365.747 C33.241,365.747 16.174,348.68 16.174,327.627 C16.174,306.574 33.241,289.507 54.294,289.507 L211.494,289.507 C190.49,310.58 190.49,344.673 211.494,365.747 Z M287.974,54.704 L287.974,327.667 C287.974,348.698 270.925,365.747 249.894,365.747 C228.863,365.747 211.814,348.698 211.814,327.667 C211.814,306.636 228.863,289.587 249.894,289.587 C254.312,289.587 257.894,286.005 257.894,281.587 C257.894,277.169 254.312,273.587 249.894,273.587 L64.534,273.587 L64.534,54.707 C64.577,33.818 81.406,16.846 102.294,16.627 L303.654,16.627 C293.595,26.745 287.957,40.437 287.974,54.704 Z M334.294,92.787 L303.974,92.787 L303.974,79.667 L334.294,79.667 L334.294,92.787 Z M350.294,91.987 L350.294,91.907 L350.294,71.667 C350.294,67.249 346.712,63.667 342.294,63.667 L303.974,63.667 L303.974,54.707 C304.03,33.676 321.125,16.673 342.156,16.729 C363.187,16.785 380.19,33.88 380.134,54.911 C380.086,72.729 367.689,88.131 350.294,91.987 Z" id="Shape" fill-rule="nonzero"></path>
            </g>
        </g>
    </g>
</svg>